<?xml version="1.0" encoding="UTF-8"?>
<svg width="294px" height="113px" viewBox="0 0 294 113" version="1.1" xmlns="http://www.w3.org/2000/svg" xmlns:xlink="http://www.w3.org/1999/xlink">
    <!-- Generator: Sketch 55.2 (78181) - https://sketchapp.com -->
    <title>Group</title>
    <desc>Created with Sketch.</desc>
    <defs>
        <path d="M155,80 L140,100 L125,80 L10,80 C4.4771525,80 6.76353751e-16,75.5228475 0,70 L0,10 C-6.76353751e-16,4.4771525 4.4771525,1.01453063e-15 10,0 L270,0 C275.522847,-1.01453063e-15 280,4.4771525 280,10 L280,70 C280,75.5228475 275.522847,80 270,80 L155,80 Z" id="path-1"></path>
        <filter x="-3.9%" y="-10.0%" width="107.9%" height="122.0%" filterUnits="objectBoundingBox" id="filter-2">
            <feOffset dx="0" dy="1" in="SourceAlpha" result="shadowOffsetOuter1"></feOffset>
            <feGaussianBlur stdDeviation="3.5" in="shadowOffsetOuter1" result="shadowBlurOuter1"></feGaussianBlur>
            <feColorMatrix values="0 0 0 0 0   0 0 0 0 0   0 0 0 0 0  0 0 0 0.5 0" type="matrix" in="shadowBlurOuter1"></feColorMatrix>
        </filter>
        <polygon id="path-3" points="0 0.0263048017 43.1985971 0.0263048017 43.1985971 59.874714 0 59.874714"></polygon>
    </defs>
    <g id="Mobile" stroke="none" stroke-width="1" fill="none" fill-rule="evenodd">
        <g id="Map-SE-Hotel-Signs" transform="translate(-13.000000, -36.000000)">
            <g id="Group" transform="translate(20.000000, 42.000000)">
                <circle id="Oval" fill="#E02020" cx="140" cy="100" r="6"></circle>
                <g id="Group-12">
                    <g id="Combined-Shape">
                        <use fill="black" fill-opacity="1" filter="url(#filter-2)" xlink:href="#path-1"></use>
                        <use fill="#FFFFFF" fill-rule="evenodd" xlink:href="#path-1"></use>
                    </g>
                    <text id="Russo-Balt-Hotel-Mos" font-family="Montserrat-SemiBold, Montserrat" font-size="12" font-weight="500" line-spacing="15" fill="#424242">
                        <tspan x="64" y="22">Russo-Balt Hotel Moscow</tspan>
                    </text>
                    <text id="31,-Gololevsky-Blv." font-family="Montserrat-Medium, Montserrat" font-size="12" font-weight="400" line-spacing="15" fill="#424242">
                        <tspan x="64" y="47">31, Gololevsky Blv. Moscow</tspan>
                        <tspan x="64" y="62">Russia</tspan>
                    </text>
                    <g id="Group-2-Copy" transform="translate(10.000000, 10.000000)">
                        <g id="Group-13">
                            <mask id="mask-4" fill="white">
                                <use xlink:href="#path-3"></use>
                            </mask>
                            <g id="Clip-12"></g>
                            <path d="M39.6653612,31.5880334 C39.6653612,13.0506639 31.2140042,1.0634405 21.2125428,1.0634405 C13.0203507,1.0634405 3.53458873,8.82561169 3.53458873,28.3129603 C3.53458873,46.6784718 11.5547975,58.8376785 22.0735866,58.8376785 C32.1624802,58.8376785 39.6653612,47.972167 39.6653612,31.5880334 M-2.50521921e-05,29.6271983 C-2.50521921e-05,12.7578038 9.546238,0.0262797495 21.6346722,0.0262797495 C36.2620209,0.0262797495 43.1985971,16.6517912 43.1985971,30.19438 C43.1985971,47.2253612 33.5839415,59.874714 21.5651524,59.874714 C9.61575783,59.874714 -2.50521921e-05,47.0610188 -2.50521921e-05,29.6271983" id="Fill-11" fill="#424242" mask="url(#mask-4)"></path>
                        </g>
                        <path d="M36.8858956,32.4748935 C36.4692777,31.4888392 35.861261,30.5736827 35.1091942,29.8065846 C35.0590898,29.7403215 34.9628894,29.6383591 34.8009269,29.4910522 C34.4906555,30.0794029 34.1198831,30.5937244 33.6567933,31.0728476 C33.5867724,31.1452484 33.5157495,31.2163967 33.4437244,31.2869186 C33.3386305,31.3895073 33.292785,31.3898831 33.321595,31.511762 C33.3526597,31.643286 33.6056868,31.880405 33.6862296,31.997023 C33.9110731,32.322952 34.1093612,32.6669186 34.2744551,33.0269186 C34.7971691,34.1664175 34.9474823,35.4379415 34.7508225,36.6728894 C34.5795908,37.748881 34.1756242,38.8243716 33.558714,39.7270021 C32.1802171,41.7440793 29.8456033,43.1248309 27.584142,43.9052067 C24.7102797,44.8967724 21.6722004,44.9566472 18.672952,44.6755616 C18.6859791,45.0016159 18.8170021,45.5092985 18.3877328,45.5895908 C18.2915324,45.6077537 18.1736618,45.5895908 18.076334,45.5895908 L16.2075658,45.5895908 L11.6722422,45.5895908 C11.276167,45.5895908 10.9265637,45.6341837 10.9141628,45.1247474 C10.8967516,44.4071273 10.9141628,43.6870021 10.9141628,42.9690063 C10.9141628,42.6219081 11.0171273,42.5358539 11.3528267,42.4246221 C11.4143299,42.4042046 11.5171691,42.3733904 11.5627641,42.3355616 C11.7098205,42.2130564 11.6651023,42.3527223 11.6248935,42.1353946 C11.601595,42.0103841 11.5362088,41.9022839 11.5223048,41.7706347 C11.5126597,41.6798205 11.5284426,41.599904 11.5298205,41.5119708 C11.5335783,41.2524301 11.516167,40.9907599 11.5092777,40.7314697 C11.430238,37.7206973 11.3511983,34.7099248 11.2722839,31.6992777 C11.2587557,31.1872109 11.2453528,30.6751441 11.2319499,30.1632025 C11.2235574,29.8419081 11.1713236,29.8186096 11.449904,29.6434948 C13.8398831,28.1409896 16.4747474,26.8903841 19.2024301,26.146334 C21.8667307,25.4194447 24.7760418,25.3449144 27.4397161,26.1383173 C28.7010939,26.5141002 29.9945386,27.1444134 30.8211357,28.2052484 C30.9147056,28.3253737 31.001762,28.4507599 31.0781712,28.5825344 C31.4104885,28.1118038 31.6904468,27.6017411 31.8858539,27.0588601 C31.9719081,26.8196117 32.0416785,26.574476 32.0926597,26.3252067 C32.1060626,26.260071 32.1818455,26.0270856 32.152785,25.9670856 C32.1135783,25.8859165 31.8476493,25.7832025 31.7679833,25.7377328 C30.9242255,25.257357 30.021595,24.8850814 29.0924092,24.6058747 C26.9416785,23.9594029 24.6651858,23.8008225 22.4306555,23.9014071 C20.0853946,24.0067516 17.8468559,24.6120125 15.762263,25.6918873 C14.7645595,26.2085887 13.8162088,26.8148518 12.9118246,27.480739 C12.5257704,27.7649562 11.7173361,28.6070856 11.2979624,27.9274196 C11.0139958,27.4672109 11.0986722,26.8112192 11.1001754,26.2870021 C11.1035574,25.1014071 11.1055616,23.9158121 11.1058121,22.7300919 C11.1061879,21.3009896 11.1054363,19.871762 11.0942881,18.4426597 C11.0863967,17.4279207 10.7892777,16.0742255 11.7869812,15.4367724 C12.4268142,15.0277954 13.1768768,15.0022422 13.9071482,14.9442463 C15.6980042,14.8020752 17.4971273,14.7358121 19.2934948,14.7378163 C21.6971273,14.7406973 24.0972526,14.9307182 26.4998831,14.9981086 C27.4273152,15.0240376 28.3552484,15.0443299 29.2823048,15.0874196 C30.0673152,15.1239958 30.9099457,15.1238706 31.6789228,15.300238 C32.1217203,15.4016994 32.9458121,15.8784426 32.7243507,16.4754363 C32.5598831,16.9188601 31.547023,16.8618664 31.6229311,17.4505929 C31.6953319,18.0111357 32.4222213,18.3651232 32.8909478,18.48362 C33.6427641,18.6733904 34.5764593,18.640572 35.1282338,18.0255407 C35.827691,17.246167 35.6088601,16.0157286 35.0873987,15.2065428 C34.5306138,14.3427432 33.57362,13.8525971 32.6052276,13.5955616 C30.8117411,13.1194447 28.9690271,13.3608225 27.1463549,13.4597787 C23.1418873,13.6774823 19.116,13.5326806 15.1164175,13.2801545 C13.7439332,13.1933486 12.3723257,13.0901336 11.0024718,12.9682547 C10.3504885,12.9103841 9.66117745,12.7851232 9.00481002,12.8126806 C8.54309812,12.8322213 8.24973695,12.9985678 8.2428476,13.4899666 C8.23232568,14.2406555 8.54297286,14.9972317 8.69491441,15.7224927 C8.97412109,17.0542672 8.93002923,18.4723466 8.90422547,19.8250397 C8.87641754,21.2825762 8.796,22.7393612 8.68890188,24.1931399 C8.65420459,24.6627432 8.59357829,25.1338497 8.58718998,25.6045804 C8.55687683,27.8507599 8.56764927,30.0983173 8.55875574,32.3446221 C8.54810856,35.0734322 8.53908977,37.8022422 8.53445511,40.5310522 C8.53270146,41.5074614 8.4748309,42.4887557 8.2736618,43.4463758 C8.16481002,43.9650814 7.69708559,44.8390271 8.0942881,45.2966054 C8.43286848,45.6867933 9.09324426,45.9222839 9.56898539,46.08362 C10.1922839,46.2949353 10.8432651,46.4208225 11.4937453,46.5140167 C13.2835992,46.7704259 15.1058956,46.7981086 16.9106555,46.8282965 C19.3221795,46.86838 21.753119,46.9703424 24.1636409,46.8925553 C27.0205929,46.800238 30.1580042,46.3141002 32.5706555,44.6617829 C32.8800501,44.4499666 33.1348309,44.1954363 33.419048,43.9586931 C33.9606764,43.5072526 34.5127015,43.1135574 34.9993403,42.5903424 C37.5034322,39.8983591 38.3322839,35.8977745 36.8858956,32.4748935" id="Fill-14" fill="#424242"></path>
                        <path d="M29.8409436,17.8255992 C27.3319666,16.8365386 24.547666,16.4137829 21.8585637,16.3903591 C20.8969353,16.3820919 19.9374363,16.3557871 18.9755574,16.3934906 C17.5700042,16.4486054 16.1970188,16.6591691 14.8034906,16.8280209 C13.9155157,16.93562 13.0811524,16.9768309 12.2079582,16.8147432 C11.9699624,16.7704008 11.5681253,16.7737829 11.642405,17.1097328 C11.6857453,17.3055157 11.8798998,17.4622171 11.9877495,17.6251816 C12.0915908,17.7825094 12.171382,17.9548685 12.241904,18.1292317 C12.7330522,19.3453904 12.8615699,20.7315282 12.9949729,22.0243466 C13.1590647,23.6167891 13.2428643,25.2169979 13.3163925,26.8158288 C13.8189395,26.4668518 14.3345136,26.1367891 14.8647432,25.8315282 C15.0661628,25.7155365 15.345119,25.6239708 15.5171023,25.4725303 C15.5520501,25.4417161 15.6358497,25.4360793 15.659524,25.3976242 C15.7289186,25.2851399 15.6598998,24.8846806 15.6606514,24.7473946 C15.6666639,23.6156618 15.6928434,22.483929 15.7348058,21.3529478 C15.7628643,20.5944927 15.7979374,19.8362881 15.8417787,19.0785846 C15.848167,18.9681044 15.814096,18.7031775 15.8710898,18.6015908 C15.9701712,18.4248476 16.7113403,18.3936576 16.9378121,18.357833 C19.1341378,18.0112359 21.37919,17.9269353 23.5906722,18.1765804 C24.8831148,18.3225094 26.3333862,18.5092735 27.5187307,19.0808392 C28.6750146,19.6383758 29.8160167,20.3458497 30.7572276,21.2216743 C32.113929,22.483929 32.7500042,24.4390021 32.4199415,26.2671858 C32.0499207,28.3169562 30.5377704,29.9402129 28.9275407,31.1511106 C27.2281253,32.429023 25.2290856,33.1577912 23.1322171,33.4541587 C22.3229061,33.5685219 21.5044509,33.621382 20.685119,33.6250146 C20.7332192,33.6243883 20.7814447,33.623762 20.8295449,33.623261 C20.7536367,33.6241378 20.6772276,33.6253904 20.6023215,33.6253904 C19.5793152,33.6256409 18.5554322,33.5476033 17.5472067,33.3971649 C17.3082088,33.3614656 17.0695866,33.3217578 16.8322171,33.2764134 C16.7234906,33.25562 16.419357,33.2467265 16.3458288,33.1736994 C16.3508392,33.174952 16.3587307,33.1768309 16.371382,33.1797119 C16.3587307,33.1768309 16.350714,33.174952 16.3458288,33.1736994 C16.2333445,33.0622171 16.2084175,32.6628852 16.1750981,32.5041795 C16.1188559,32.2348685 16.0716326,31.9636785 16.0299207,31.6918622 C15.8296284,30.3863925 15.7487098,29.0625094 15.7018622,27.743762 C15.3372276,27.9054739 14.9753486,28.0735741 14.6166013,28.2479374 C14.2741378,28.4144092 13.8371023,28.5663507 13.534096,28.7988351 C13.419858,28.8865177 13.4368935,28.8402965 13.4038246,28.9830939 C13.3728852,29.1167474 13.4132192,29.3068935 13.4168518,29.4454322 C13.425119,29.7677286 13.4320084,30.0900251 13.4376451,30.4123215 C13.4619457,31.7942004 13.4648267,33.1764551 13.4434071,34.5582088 C13.4233653,35.8566639 13.3856618,37.1561211 13.2932192,38.4515699 C13.2148058,39.549858 13.1626973,40.7487307 12.5886263,41.7192526 C12.3914656,42.052572 12.1311733,42.3499415 11.7976033,42.5513612 C11.7184384,42.5989603 11.2636159,42.7089395 11.2220292,42.7673111 C11.1967265,42.8030104 11.2220292,42.9540752 11.2220292,42.9937829 L11.2220292,44.1473111 C11.2220292,44.4361628 11.1280835,44.9081461 11.2220292,45.1818413 C11.2722589,45.3278956 11.1918413,45.2462255 11.3530522,45.2816743 C11.542572,45.3233862 11.7903382,45.2816743 11.9834906,45.2816743 L14.2333027,45.2816743 L18.3889603,45.2816743 C18.37681,44.9749102 18.3645344,44.6681461 18.3521336,44.3612568 C18.3404843,44.0688977 18.384952,44.0309436 18.1160167,43.9045553 C17.8338038,43.7720292 17.5687516,43.598167 17.3469144,43.3782088 C16.7844927,42.8206722 16.5719248,42.0402965 16.6262881,41.2665595 C16.659858,40.7886889 16.6379374,40.3066848 16.6264134,39.8271858 C16.6004843,38.7516952 16.5743048,37.6620501 16.4176033,36.5962046 C16.3414447,36.0783758 16.1694614,35.5321127 16.8036576,35.3132818 C17.2470814,35.1603382 17.7660376,35.2328643 18.2174781,35.3036367 C19.7143466,35.5383758 21.2962672,35.5306096 22.8034071,35.4059749 C25.7842422,35.1593361 28.7261211,34.2920292 31.2414864,32.6462255 C32.4776868,31.8372902 33.7073737,30.8358288 34.433261,29.5258497 C35.3192317,27.9267683 35.8619875,26.0373319 35.6733445,24.2000042 C35.3427808,20.9828017 32.651048,18.9335324 29.8409436,17.8255992" id="Fill-16" fill="#424242"></path>
                    </g>
                </g>
            </g>
        </g>
    </g>
</svg>