<svg xmlns="http://www.w3.org/2000/svg" width="19" height="11" viewBox="0 0 19 11">
    <g fill="none" fill-rule="evenodd" transform="matrix(0 1 1 0 -16 -20)">
        <rect width="50" height="50" rx="25"/>
        <g fill="#424242">
            <path d="M30.122 25.399l.002.002a.5.5 0 0 1 0 .707l-8.517 8.487a.5.5 0 0 1-.706 0l-.002-.002a.5.5 0 0 1 0-.707l8.518-8.487a.5.5 0 0 1 .705 0z"/>
            <path d="M30.124 26.108l-.002.002a.5.5 0 0 1-.705 0l-8.518-8.487a.5.5 0 0 1 0-.708l.002-.001a.5.5 0 0 1 .706 0l8.517 8.487a.5.5 0 0 1 0 .707z"/>
        </g>
    </g>
</svg>
