<svg xmlns="http://www.w3.org/2000/svg" width="71" height="72" viewBox="0 0 71 72">
    <g fill="none" fill-rule="evenodd">
        <path fill="#C69C6D" d="M70.314 36c0 19.33-15.362 35-34.312 35C17.048 71 1.686 55.33 1.686 36S17.048 1 36.002 1c18.95 0 34.312 15.67 34.312 35"/>
        <path fill="#FFF" d="M35.312 1C16.392 1 1 16.834 1 36.296 1 46.754 5.468 56.133 12.512 62.6c.22-.157.486-.293.8-.4.279-.084.555-.17.821-.253 7.845-2.476 9.72-4.618 10.428-6.982 1.3-.598 1.786-1.008 2.044-2.429.161-.903.287-3.933.164-4.984-.743-.746-1.147-2.666-1.507-3.434-.833-1.775-.98-2.693-1.78-5.68-.123-.4-.386-.426-.572-.503-.279-.12-.521-.311-.78-.672-.727-1.014-.272-1.587-.955-3.513-.869-2.192-1.22-4.356-.557-5.003.446-.41.746-.145.965-.062.143.056.033-.317-.096-.857-.525-2.206-.555-6.608-.555-6.608l.081-.003c-.27-1.84-.207-3.536.98-6.106 1.169-2.626 2.214-2.047 2.802-2.722 2.478-2.87 4.755-2.943 6.466-3.702 3.844-1.707 7.087-.194 9.679.922 1.09.484 4.27.857 5.33 3.27.62 1.406 1.163 3.807 1.373 4.023.221 1.035.341 2.706.227 4.537-.14 2.262-.144 4.133-.665 6.34-.132.536-.246.912-.099.854.219-.083.492-.388.938.022.66.647.524 2.903-.344 5.095-.68 1.926-.306 2.28-.74 3.07-.186.345-.315.81-.879 1.02-.185.07-.413.24-.5.653-.605 2.904-.758 3.434-1.393 5.613-.237.814-.78 2.568-1.496 3.258-.15 1.248.204 4.451.408 5.172.473 1.69.926 2.02 1.849 2.43 1.135 2.44 2.01 5.624 10.718 7.048.396.065.806.127 1.235.185.494.074.893.21 1.246.37 7.024-6.47 11.48-15.834 11.48-26.273C69.627 16.834 54.231 1 35.311 1"/>
        <path stroke="#C69C6D" d="M1 36c0 19.33 15.363 35 34.314 35 18.95 0 34.313-15.67 34.313-35S54.265 1 35.314 1 1 16.67 1 36z"/>
    </g>
</svg>
