<?xml version="1.0" encoding="UTF-8"?>
<svg width="51px" height="50px" viewBox="0 0 51 50" version="1.1" xmlns="http://www.w3.org/2000/svg" xmlns:xlink="http://www.w3.org/1999/xlink">
    <!-- Generator: Sketch 55.2 (78181) - https://sketchapp.com -->
    <title>Icons / Person</title>
    <desc>Created with Sketch.</desc>
    <g id="Icons-/-Person" stroke="none" stroke-width="1" fill="none" fill-rule="evenodd">
        <g id="Group">
            <path d="M50.5,25 C50.5,38.8077035 39.308245,50 25.5012097,50 C11.691755,50 0.5,38.8077035 0.5,25 C0.5,11.1922965 11.691755,0 25.5012097,0 C39.308245,0 50.5,11.1922965 50.5,25" id="Path" fill="#C69C6D"></path>
            <path d="M24.9989084,0 C11.214688,0 0,11.3098824 0,25.2111083 C0,32.681311 3.25503209,39.3809357 8.38754748,44 C8.54691525,43.8877158 8.74121294,43.7908431 8.97044055,43.7137853 C9.17347072,43.6543408 9.37431777,43.5926945 9.56861547,43.5332499 C15.2840239,41.765324 16.6506571,40.2351764 17.1658735,38.5465099 C18.1133476,38.1193895 18.4670131,37.8265699 18.6547614,36.8116087 C18.7726499,36.1665249 18.8643409,34.0023017 18.774833,33.2515387 C18.2334192,32.7187391 17.938698,31.3471103 17.6767236,30.7988992 C17.0698162,29.5307481 16.9628433,28.874656 16.3799502,26.7412559 C16.2904423,26.4550413 16.0983277,26.4374281 15.9629743,26.3823868 C15.7599441,26.2965224 15.5831114,26.16002 15.3953631,25.9024268 C14.8648649,25.1780836 15.1966991,24.7685764 14.6989477,23.3925444 C14.0658429,21.8271704 13.8104178,20.2816112 14.2928874,19.8192644 C14.6181723,19.5264448 14.8364843,19.7157868 14.9958521,19.7752314 C15.1006418,19.8148611 15.0198664,19.5484613 14.9259922,19.1631724 C14.5439462,17.5867901 14.522115,14.4428321 14.522115,14.4428321 L14.5810592,14.4406305 C14.3845784,13.1262447 14.430424,11.9153365 15.2949395,10.0791594 C16.1463564,8.20335251 16.9082653,8.61726295 17.3361568,8.13510133 C19.1415972,6.08536402 20.8007685,6.03252439 22.04733,5.49091819 C24.8482732,4.2712034 27.2104091,5.35221416 29.098808,6.14921191 C29.8934637,6.49487115 32.2097542,6.76127095 32.9825787,8.48516387 C33.4344846,9.48911684 33.8296293,11.2042032 33.9824477,11.3583187 C34.1439986,12.0980736 34.2313234,13.2913685 34.1483648,14.5991494 C34.0457582,16.2151614 34.0435751,17.5515637 33.6637122,19.127946 C33.5676549,19.5110333 33.4846963,19.7796347 33.5916692,19.7378034 C33.751037,19.6783588 33.9497009,19.4603953 34.2749858,19.7532149 C34.7552722,20.2155617 34.6570318,21.8271704 34.023927,23.3925444 C33.5283587,24.7685764 33.8012487,25.0217663 33.4846963,25.585389 C33.3493429,25.831974 33.2554687,26.1644233 32.8450421,26.3141356 C32.7096887,26.3647736 32.5437716,26.4858644 32.4804611,26.7808857 C32.0394708,28.8548411 31.9281317,29.2335251 31.4653102,30.7900926 C31.2928437,31.3713285 30.897699,32.6240681 30.3759333,33.1172379 C30.2667773,34.0089067 30.5243855,36.2964223 30.6728376,36.8116087 C31.0177706,38.0181136 31.3474217,38.2536903 32.0198227,38.5465099 C32.8472253,40.2902177 33.4846963,42.5645234 39.8288434,43.5816863 C40.1170152,43.6279209 40.4161027,43.671954 40.7282889,43.7137853 C41.0885037,43.766625 41.3788587,43.8634976 41.6364668,43.9779835 C46.7537004,39.3567175 50,32.6681011 50,25.2111083 C50,11.3098824 38.7831288,0 24.9989084,0" id="Path" fill="#FFFFFF"></path>
            <path d="M0,25 C0,38.8072581 11.1927419,50 25,50 C38.8072581,50 50,38.8072581 50,25 C50,11.1927419 38.8072581,0 25,0 C11.1927419,0 0,11.1927419 0,25 Z" id="Path" stroke="#C69C6D"></path>
        </g>
    </g>
</svg>