<svg xmlns="http://www.w3.org/2000/svg" width="60" height="60" viewBox="0 0 60 60">
    <g fill="none" fill-rule="evenodd">
        <rect width="59" height="59" x=".5" y=".5" stroke="#FFF" rx="29.5"/>
        <path fill="#FFF" fill-rule="nonzero" d="M24.679 25.344h-1.337v-.335-.038c0-.01.003-.02.003-.032 0-.023.002-.046.004-.067a.288.288 0 0 1 .019-.067c.008-.02.02-.04.034-.056a.246.246 0 0 1 .046-.041.265.265 0 0 1 .113-.027h.902c.02 0 .038.001.057.006.02.003.037.01.055.02a.296.296 0 0 1 .046.042.246.246 0 0 1 .052.123.376.376 0 0 1 .004.067.262.262 0 0 1 .002.032v.373zm4.988 2.627a3.028 3.028 0 0 0-3.03 3.025 3.026 3.026 0 0 0 3.03 3.024 3.026 3.026 0 0 0 3.03-3.024 3.028 3.028 0 0 0-3.03-3.024zm8.323-.78c0-.043 0-.087-.002-.13a1.91 1.91 0 0 0-.025-.282.898.898 0 0 0-.483-.661.945.945 0 0 0-.268-.09 1.763 1.763 0 0 0-.284-.024c-.043-.002-.086-.002-.13-.003h-.236l-1.458.001h-.433c-.066 0-.133 0-.198-.002a2.93 2.93 0 0 1-.433-.038 1.433 1.433 0 0 1-.41-.136c-.13-.065-.275-.241-.35-.364-.179-.29-.144-.223-.291-.51-.037-.073-.045-.117-.074-.176a1.388 1.388 0 0 0-1.015-.737 3.032 3.032 0 0 0-.432-.038c-.066-.002-3.55-.002-3.614 0-.144.005-.29.013-.433.038a1.49 1.49 0 0 0-.41.135 1.365 1.365 0 0 0-.604.602c-.03.059-.047.12-.074.176-.1.207-.168.33-.288.501-.084.12-.222.311-.35.376-.131.068-.266.11-.41.134a2.627 2.627 0 0 1-.432.038c-.067.004-.134.004-.2.004l-.236.001H22.524c-.043 0-.086 0-.13.002a1.76 1.76 0 0 0-.283.026.934.934 0 0 0-.496.253.93.93 0 0 0-.256.497 1.901 1.901 0 0 0-.024.282l-.002.13v8.259l.002.13c.002.094.008.19.024.282a.95.95 0 0 0 .256.497.924.924 0 0 0 .496.253c.094.019.189.023.283.025.044.002.087.011.13.011.052 0 .103.008.155.008h12.125l1.758.005h.083c.051 0 .102-.008.153-.008.044 0 .087-.005.13-.007.095-.002.19-.009.284-.027a.925.925 0 0 0 .497-.255.908.908 0 0 0 .254-.497c.017-.093.022-.187.025-.282l.002-.13c0-.05.01-.102.01-.154V27.344c0-.05-.01-.101-.01-.152zm-8.321 7.467a3.667 3.667 0 0 1-3.672-3.662 3.668 3.668 0 0 1 3.672-3.663c2.026 0 3.67 1.64 3.67 3.663a3.666 3.666 0 0 1-3.67 3.662zm4.674-6.591a.402.402 0 1 1 0-.805.402.402 0 0 1 0 .805z"/>
    </g>
</svg>
