<svg xmlns="http://www.w3.org/2000/svg" xmlns:xlink="http://www.w3.org/1999/xlink" width="173" height="141" viewBox="0 0 173 141">
    <defs>
        <path id="a" d="M0 .026h43.199v59.849H0z"/>
    </defs>
    <g fill="none" fill-rule="evenodd">
        <text fill="#424242" font-family="EBGaramond-SemiBold, EB Garamond" font-size="18" font-weight="500">
            <tspan x=".271" y="89">RUSSO-BALT HOTEL </tspan> <tspan x="45.352" y="112">MOSCOW</tspan>
        </text>
        <path fill="#C69C6D" d="M87.5 137.75l-3.82 2.009.73-4.255-3.092-3.013 4.272-.62L87.5 128l1.91 3.87 4.272.621-3.091 3.013.73 4.255zM102.5 137.75l-3.82 2.009.73-4.255-3.092-3.013 4.272-.62L102.5 128l1.91 3.87 4.272.621-3.091 3.013.73 4.255zM117.5 137.75l-3.82 2.009.73-4.255-3.092-3.013 4.272-.62L117.5 128l1.91 3.87 4.272.621-3.091 3.013.73 4.255zM72.5 137.75l-3.82 2.009.73-4.255-3.092-3.013 4.272-.62L72.5 128l1.91 3.87 4.272.621-3.091 3.013.73 4.255zM57.5 137.75l-3.82 2.009.73-4.255-3.092-3.013 4.272-.62L57.5 128l1.91 3.87 4.272.621-3.091 3.013.73 4.255z"/>
        <g transform="translate(65)">
            <mask id="b" fill="#fff">
                <use xlink:href="#a"/>
            </mask>
            <path fill="#424242" d="M39.665 31.588c0-18.537-8.451-30.525-18.452-30.525-8.193 0-17.678 7.763-17.678 27.25 0 18.365 8.02 30.525 18.539 30.525 10.088 0 17.591-10.866 17.591-27.25M0 29.628C0 12.757 9.546.025 21.635.025c14.627 0 21.564 16.626 21.564 30.168 0 17.031-9.615 29.68-21.634 29.68C9.615 59.875 0 47.062 0 29.628" mask="url(#b)"/>
        </g>
        <path fill="#424242" d="M101.886 32.475a8.627 8.627 0 0 0-1.777-2.668 2.631 2.631 0 0 0-.308-.316 6.798 6.798 0 0 1-1.144 1.582c-.07.072-.141.143-.213.214-.105.103-.151.103-.122.225.03.131.284.368.364.485.225.326.423.67.588 1.03a6.346 6.346 0 0 1 .477 3.646c-.171 1.076-.575 2.151-1.192 3.054-1.379 2.017-3.713 3.398-5.975 4.178-2.874.992-5.912 1.052-8.911.77.013.327.144.834-.285.915-.096.018-.214 0-.312 0h-6.404c-.396 0-.745.044-.758-.465-.017-.718 0-1.438 0-2.156 0-.347.103-.433.439-.544.061-.02.164-.052.21-.09.147-.122.102.018.062-.2-.023-.125-.089-.233-.103-.364-.01-.091.006-.171.008-.259.004-.26-.014-.521-.02-.78l-.238-9.033-.04-1.536c-.008-.321-.06-.344.218-.52 2.39-1.502 5.025-2.753 7.752-3.497 2.665-.727 5.574-.801 8.238-.008 1.261.376 2.555 1.006 3.381 2.067.094.12.18.246.257.378.332-.471.612-.981.808-1.524.086-.24.156-.485.207-.734.013-.065.089-.298.06-.358-.04-.081-.305-.184-.385-.23a12.913 12.913 0 0 0-2.676-1.131c-2.15-.647-4.427-.805-6.661-.705-2.346.106-4.584.711-6.669 1.79a21.486 21.486 0 0 0-2.85 1.79c-.386.284-1.195 1.126-1.614.446-.284-.46-.2-1.116-.198-1.64.004-1.186.006-2.371.006-3.557 0-1.429 0-2.858-.012-4.287-.008-1.015-.305-2.369.693-3.006.64-.41 1.39-.435 2.12-.493 1.791-.142 3.59-.208 5.386-.206 2.404.003 4.804.193 7.207.26.927.026 1.855.046 2.782.09.785.036 1.628.036 2.397.212.443.102 1.267.578 1.045 1.175-.164.444-1.177.387-1.101.976.072.56.8.914 1.268 1.033.752.19 1.685.157 2.237-.458.7-.78.48-2.01-.04-2.82-.557-.863-1.514-1.353-2.483-1.61-1.793-.477-3.636-.235-5.459-.136-4.004.217-8.03.073-12.03-.18-1.372-.087-2.744-.19-4.114-.312-.652-.058-1.34-.183-1.997-.155-.462.02-.755.186-.762.677-.01.75.3 1.507.452 2.232.28 1.332.235 2.75.21 4.103a80.333 80.333 0 0 1-.216 4.368c-.035.47-.095.94-.102 1.412-.03 2.246-.02 4.493-.028 6.74a3715.5 3715.5 0 0 0-.025 8.186c-.001.976-.06 1.958-.26 2.915-.11.52-.577 1.393-.18 1.85.339.39 1 .626 1.475.788.623.21 1.274.337 1.925.43 1.79.256 3.612.284 5.417.314 2.411.04 4.842.142 7.253.065 2.857-.093 5.994-.579 8.407-2.231.31-.212.564-.467.848-.703.542-.452 1.094-.845 1.58-1.369 2.504-2.692 3.333-6.692 1.887-10.115"/>
        <path fill="#424242" d="M94.84 17.826c-2.508-.99-5.292-1.412-7.981-1.436-.962-.008-1.922-.034-2.883.003-1.406.056-2.779.266-4.173.435-.887.108-1.722.149-2.595-.013-.238-.045-.64-.041-.566.295.044.196.238.352.346.515.104.158.183.33.254.504.491 1.216.62 2.603.753 3.895.164 1.593.248 3.193.321 4.792a21.695 21.695 0 0 1 1.549-.984c.201-.116.48-.208.652-.36.035-.03.119-.036.143-.074.069-.113 0-.513 0-.65.007-1.132.033-2.264.075-3.395.028-.759.063-1.517.107-2.274.006-.11-.028-.376.03-.477.098-.177.84-.208 1.066-.244 2.196-.347 4.441-.431 6.653-.181 1.292.146 2.742.332 3.928.904 1.156.557 2.297 1.265 3.238 2.14 1.357 1.263 1.993 3.218 1.663 5.046-.37 2.05-1.882 3.673-3.492 4.884-1.7 1.278-3.699 2.007-5.796 2.303a18.065 18.065 0 0 1-2.302.17l-.228.001a20.697 20.697 0 0 1-3.77-.349c-.109-.02-.413-.03-.486-.102-.113-.112-.138-.511-.17-.67-.057-.27-.104-.54-.146-.812-.2-1.306-.281-2.63-.328-3.948-.365.161-.727.33-1.085.504-.343.166-.78.318-1.083.55-.114.089-.097.042-.13.185-.031.134.01.324.013.462a125.325 125.325 0 0 1 .027 5.113 69.846 69.846 0 0 1-.15 3.894c-.08 1.098-.131 2.297-.705 3.267-.198.334-.458.63-.791.832-.08.048-.534.158-.576.216-.025.036 0 .187 0 .227v1.153c0 .29-.094.761 0 1.035.05.146-.03.064.131.1.19.041.437 0 .63 0h6.406l-.037-.92c-.012-.293.033-.331-.236-.457a2.745 2.745 0 0 1-.77-.527c-.562-.557-.774-1.338-.72-2.111.034-.478.012-.96 0-1.44-.026-1.075-.052-2.165-.208-3.23-.077-.519-.249-1.065.386-1.284.443-.153.962-.08 1.413-.01 1.497.235 3.08.228 4.586.103 2.981-.247 5.923-1.114 8.438-2.76 1.237-.809 2.466-1.81 3.192-3.12.886-1.6 1.429-3.489 1.24-5.326-.33-3.217-3.022-5.266-5.832-6.374"/>
    </g>
</svg>
