<svg xmlns="http://www.w3.org/2000/svg" width="20" height="20" viewBox="0 0 20 20">
    <path fill="#FFF" fill-rule="evenodd" d="M10.807 19.968a10.11 10.11 0 0 1-1.614 0C4.047 19.557 0 15.25 0 10 0 4.477 4.477 0 10 0s10 4.477 10 10c0 5.251-4.047 9.557-9.193 9.968zm5.322-3.112A9.18 9.18 0 0 0 19.2 10c0-5.073-4.127-9.2-9.2-9.2C4.927.8.8 4.927.8 10a9.18 9.18 0 0 0 3.071 6.856v-1.372a4.193 4.193 0 0 1 4.194-4.194h3.87a4.193 4.193 0 0 1 4.194 4.194v1.372zm-2.796-10.19a3.333 3.333 0 1 1-6.666 0 3.333 3.333 0 0 1 6.666 0z"/>
</svg>
