<svg xmlns="http://www.w3.org/2000/svg" width="52" height="52" viewBox="0 0 52 52">
    <g fill="none" fill-rule="evenodd">
        <path fill="#C69C6D" d="M51.5 26c0 13.808-11.192 25-24.999 25C12.691 51 1.5 39.808 1.5 26S12.692 1 26.501 1C40.308 1 51.5 12.192 51.5 26"/>
        <path fill="#FFF" d="M25.999 1C12.215 1 1 12.31 1 26.211 1 33.681 4.255 40.381 9.388 45c.159-.112.353-.21.582-.286l.599-.18c5.715-1.769 7.082-3.299 7.597-4.987.947-.428 1.301-.72 1.489-1.735.118-.645.21-2.81.12-3.56-.542-.533-.836-1.905-1.098-2.453-.607-1.268-.714-1.924-1.297-4.058-.09-.286-.282-.304-.417-.359-.203-.085-.38-.222-.568-.48-.53-.724-.198-1.133-.696-2.51-.633-1.565-.889-3.11-.406-3.573.325-.293.543-.103.703-.044.105.04.024-.227-.07-.612-.382-1.576-.404-4.72-.404-4.72l.06-.002c-.197-1.315-.152-2.526.713-4.362.851-1.876 1.613-1.462 2.041-1.944 1.806-2.05 3.465-2.102 4.711-2.644 2.801-1.22 5.163-.139 7.052.658.794.346 3.11.612 3.884 2.336.451 1.004.847 2.72 1 2.873.161.74.248 1.933.165 3.241-.102 1.616-.104 2.953-.484 4.529-.096.383-.18.652-.072.61.159-.06.358-.278.683.015.48.463.382 2.074-.251 3.64-.496 1.376-.223 1.629-.54 2.192-.135.247-.229.58-.639.73-.135.05-.301.17-.365.466-.44 2.074-.552 2.453-1.015 4.01-.172.58-.567 1.833-1.09 2.326-.108.892.15 3.18.298 3.695.345 1.206.674 1.442 1.347 1.735.827 1.743 1.465 4.018 7.809 5.035.288.046.587.09.9.132.36.053.65.15.907.264C47.754 40.357 51 33.668 51 26.211 51 12.31 39.783 1 25.999 1"/>
        <path stroke="#C69C6D" d="M1 26c0 13.807 11.193 25 25 25s25-11.193 25-25S39.807 1 26 1 1 12.193 1 26z"/>
    </g>
</svg>
