<svg xmlns="http://www.w3.org/2000/svg" width="20" height="20" viewBox="0 0 20 20">
    <g fill="none" fill-rule="evenodd" transform="translate(-20 -20)">
        <rect width="60" height="60" rx="30"/>
        <path fill="#424242" d="M30.807 39.968a10.11 10.11 0 0 1-1.614 0C24.047 39.557 20 35.25 20 30c0-5.523 4.477-10 10-10s10 4.477 10 10c0 5.251-4.047 9.557-9.193 9.968zm5.322-3.786A8.683 8.683 0 0 0 38.709 30c0-4.803-3.906-8.71-8.709-8.71-4.803 0-8.71 3.907-8.71 8.71 0 2.415.988 4.603 2.581 6.182v-.698a4.193 4.193 0 0 1 4.194-4.194h3.87a4.193 4.193 0 0 1 4.194 4.194v.698zm-2.796-9.515a3.333 3.333 0 1 1-6.666 0 3.333 3.333 0 0 1 6.666 0z"/>
    </g>
</svg>
