<svg xmlns="http://www.w3.org/2000/svg" width="44" height="33" viewBox="0 0 44 33">
    <g fill="none" fill-rule="nonzero">
        <path fill="#5E5E5E" d="M42.625 27.5H1.375c-.372 0-.695-.136-.967-.408A1.321 1.321 0 0 1 0 26.125c0-5.385 1.669-9.976 5.006-13.771 3.337-3.796 7.627-6.08 12.869-6.854.372 0 .695-.136.967-.408.272-.272.408-.595.408-.967s-.136-.695-.408-.967a1.321 1.321 0 0 0-.967-.408c-.372 0-.695-.136-.967-.408a1.321 1.321 0 0 1-.408-.967c0-.372.136-.695.408-.967.272-.272.595-.408.967-.408h8.25c.372 0 .695.136.967.408.272.272.408.595.408.967s-.136.695-.408.967a1.321 1.321 0 0 1-.967.408c-.372 0-.695.136-.967.408a1.321 1.321 0 0 0-.408.967c0 .372.136.695.408.967.272.272.595.408.967.408 5.242.773 9.532 3.058 12.87 6.854C42.33 16.149 44 20.74 44 26.125c0 .372-.136.695-.408.967a1.321 1.321 0 0 1-.967.408zm-41.25 2.75h41.25c.372 0 .695.136.967.408.272.272.408.595.408.967s-.136.695-.408.967a1.321 1.321 0 0 1-.967.408H1.375c-.372 0-.695-.136-.967-.408A1.321 1.321 0 0 1 0 31.625c0-.372.136-.695.408-.967.272-.272.595-.408.967-.408z"/>
        <path fill="none" d="M0-5h44v44H0z"/>
    </g>
</svg>
