<svg xmlns="http://www.w3.org/2000/svg" width="50" height="50" viewBox="0 0 50 50">
    <g fill="none" fill-rule="evenodd">
        <rect width="49" height="49" x=".5" y=".5" fill="#FFF" stroke="#919191" rx="24.5"/>
        <path fill="#4D4D4C" d="M16.855 31.915h2.867V16.642c0-1.107.57-1.642 1.76-1.642h10.025c.552 0 .904.318.904.855 0 .518-.352.822-.904.822H21.55v8.045h9.084c.555 0 .907.32.907.838 0 .52-.352.838-.907.838H21.55v5.517h3.571c.518 0 .87.317.87.786 0 .504-.352.79-.87.79h-3.57v3.553c0 .587-.352.956-.908.956-.569 0-.92-.37-.92-.956v-3.553h-2.868c-.52 0-.855-.303-.855-.773 0-.503.335-.803.855-.803"/>
    </g>
</svg>
