<svg xmlns="http://www.w3.org/2000/svg" xmlns:xlink="http://www.w3.org/1999/xlink" width="50" height="50" viewBox="0 0 50 50">
    <defs>
        <path id="a" d="M0 0h22.979v24.15H0z"/>
    </defs>
    <g fill="none" fill-rule="evenodd">
        <rect width="49" height="49" x=".5" y=".5" fill="#FFF" stroke="#919191" rx="24.5"/>
        <g transform="translate(13 13)">
            <mask id="b" fill="#fff">
                <use xlink:href="#a"/>
            </mask>
            <path fill="#4D4D4C" d="M18.017 20.225c-1.172-.818-3.243-1.8-5.259-2.534l1.089-.764c2.043.682 4.334 1.689 5.67 2.534l-1.5.764zM7.524 6.16h7.85V4.443h-7.85v1.718zM6.38 15.757h10.084v-1.419H6.379v1.419zm0-2.482h10.084v-1.391H6.379v1.39zm0-2.482h10.084V9.459H6.379v1.334zm-.41-3.543h11.04V3.352H5.968V7.25zm-1.197 9.622h13.355V8.341H4.772v8.531zm5.56.737c-.055.136-.246.218-.519.19-1.391.844-3.543 1.799-5.341 2.371-.22-.3-.709-.818-1.039-1.034 1.746-.493 3.9-1.309 5.18-2.236l1.718.709zm-8.587 3.516h19.409V1.69H1.744v19.434zM-.001 0h22.98v24.15h-1.827v-1.334H1.745v1.334H-.001V0z" mask="url(#b)"/>
        </g>
    </g>
</svg>
