<svg xmlns="http://www.w3.org/2000/svg" width="50" height="50" viewBox="0 0 50 50">
    <g fill="none" fill-rule="evenodd">
        <rect width="49" height="49" x=".5" y=".5" fill="#FFF" stroke="#919191" rx="24.5"/>
        <path fill="#4D4D4C" d="M25.47 37c-4.144 0-6.992-2.655-7.075-8.238h-1.586c-.486 0-.809-.292-.809-.745s.31-.744.81-.744h1.555V23.97h-1.556c-.486 0-.809-.29-.809-.743 0-.454.31-.746.81-.746h1.585C18.478 17.01 21.196 14 25.39 14c3.98 0 6.715 3.268 6.781 6.489.017.52-.31.876-.793.876-.439 0-.762-.293-.906-.876-.486-2.912-2.185-4.87-5.036-4.87-3.35 0-5.21 2.541-5.292 6.862h6.102c.486 0 .793.292.793.729 0 .47-.307.76-.793.76h-6.119v3.303h6.119c.486 0 .793.29.793.727 0 .47-.307.762-.793.762h-6.102c.083 4.24 2.154 6.603 5.342 6.603 2.962 0 4.644-2.039 5.033-4.614.13-.6.406-.873.89-.873.486 0 .81.357.795.907-.066 3.09-2.67 6.215-6.734 6.215"/>
    </g>
</svg>
