<svg xmlns="http://www.w3.org/2000/svg" width="50" height="50" viewBox="0 0 50 50">
    <g fill="none" fill-rule="evenodd">
        <rect width="49" height="49" x=".5" y=".5" fill="#FFF" stroke="#919191" rx="24.5"/>
        <path fill="#4D4D4C" d="M31.666 36H18.877a.895.895 0 0 1-.877-.877c0-.378.248-.677.578-.81 2.628-.907 3.866-2.907 3.866-5.45 0-1.472-.262-2.629-.609-3.734h-2.462c-.513 0-.826-.282-.826-.745 0-.462.313-.744.826-.744h2c-.432-1.337-.843-2.676-.843-4.38 0-3.815 2.71-6.26 6.889-6.26 1.57 0 2.842.248 3.734.612.315.116.53.395.53.742 0 .462-.398.809-.86.761-.742-.133-1.966-.496-3.322-.496-3.088 0-5.186 1.802-5.186 4.658 0 1.687.411 3.01.84 4.363h5.603c.497 0 .81.282.81.744 0 .463-.313.745-.81.745h-5.14c.315 1.088.563 2.23.563 3.7 0 2.479-.826 4.427-2.726 5.454v.163h10.21c.43 0 .776.347.776.778a.775.775 0 0 1-.775.776"/>
    </g>
</svg>
