<svg xmlns="http://www.w3.org/2000/svg" width="50" height="50" viewBox="0 0 50 50">
    <g fill="none" fill-rule="evenodd">
        <rect width="49" height="49" x=".5" y=".5" fill="#FFF" stroke="#919191" rx="24.5"/>
        <path fill="#4D4D4C" d="M28.066 36.9h-4.723c-.603 0-.923-.335-.923-.938V20.298c0-.452.369-.837.823-.837.452 0 .82.385.82.837v14.827h3.634c2.748 0 3.637-.972 3.637-4.106V14.821c0-.435.366-.821.82-.821.452 0 .821.386.821.82v16.368c0 4.02-1.392 5.712-4.909 5.712zm.503-6.264a.84.84 0 0 1-.837.838c-.438 0-.82-.386-.82-.838V19.964c0-3.03-1.041-4.103-3.889-4.103h-3.365v20.301a.84.84 0 0 1-.837.838c-.438 0-.821-.386-.821-.838V15.023c0-.603.334-.937.938-.937h4.523c3.516 0 5.108 1.707 5.108 5.477v11.073z"/>
    </g>
</svg>
