<svg xmlns="http://www.w3.org/2000/svg" width="50" height="50" viewBox="0 0 50 50">
    <g fill="none" fill-rule="evenodd">
        <rect width="49" height="49" x=".5" y=".5" fill="#FFF" stroke="#919191" rx="24.5"/>
        <path fill="#4D4D4C" d="M25.026 37c-.569 0-.92-.369-.92-.955v-4.588h-3.937c-.469 0-.772-.303-.772-.72 0-.438.303-.721.772-.721h3.937v-2.9h-3.937c-.469 0-.772-.285-.772-.72 0-.434.303-.703.772-.703h3.316l-6.18-10.018c-.304-.503-.335-.686-.286-.903.017-.455.385-.772.906-.772.351 0 .603.2.903.703l6.133 10.17h.083l6.163-10.17c.303-.503.538-.703.872-.703.518 0 .887.303.92.755.052.234.018.4-.285.903l-6.198 10.035h3.368c.451 0 .754.269.754.686 0 .452-.303.738-.754.738h-3.969v2.899h3.969c.451 0 .754.283.754.72 0 .418-.303.72-.754.72h-3.969v4.59c0 .585-.354.954-.889.954"/>
    </g>
</svg>
