<svg xmlns="http://www.w3.org/2000/svg" xmlns:xlink="http://www.w3.org/1999/xlink" width="50" height="50" viewBox="0 0 50 50">
    <defs>
        <path id="a" d="M0 2.44h15.484V23H0z"/>
    </defs>
    <g fill="none" fill-rule="evenodd">
        <rect width="49" height="49" x=".5" y=".5" fill="#FFF" stroke="#919191" rx="24.5"/>
        <g transform="translate(17 13)">
            <mask id="b" fill="#fff">
                <use xlink:href="#a"/>
            </mask>
            <path fill="#4D4D4C" d="M11.5 20.65l.974-7.609h-2.247l1.184 7.608h.089zm-4.97-8.672h2.425L7.77 4.388h-.046l-1.196 7.59zM4.088 20.65l1.168-7.608H3.026l.97 7.608h.093zm5.045-7.608h-2.77l-1.422 9.121c-.076.463-.48.838-.958.838-.496 0-.9-.36-.974-.838l-1.288-9.029H.613A.617.617 0 0 1 0 12.517c0-.342.284-.613.613-.613h.943L.314 3.264a.728.728 0 0 1 .718-.823c.36 0 .66.283.706.628l1.137 8.91H5.42l1.334-8.685a.975.975 0 0 1 .987-.853c.51 0 .93.36 1.004.853l1.332 8.684h2.532l1.137-8.909a.738.738 0 0 1 .718-.628c.435 0 .78.388.719.823l-1.242 8.64h.927a.61.61 0 0 1 .616.613.61.61 0 0 1-.616.616h-1.106l-1.288 9.029a.96.96 0 0 1-.959.838.97.97 0 0 1-.958-.838l-1.423-9.12z" mask="url(#b)"/>
        </g>
    </g>
</svg>
