<svg xmlns="http://www.w3.org/2000/svg" width="50" height="50" viewBox="0 0 50 50">
    <g fill="none" fill-rule="evenodd">
        <rect width="49" height="49" x=".5" y=".5" fill="#FFF" stroke="#919191" rx="24.5"/>
        <path fill="#4D4D4C" d="M22.447 24.281h3.336c3.537 0 5.4-1.642 5.4-4.71 0-3.07-1.863-4.894-4.982-4.894h-3.754v9.604zM21.527 36c-.57 0-.908-.37-.908-.956v-3.539h-2.764c-.537 0-.855-.3-.855-.787 0-.486.318-.786.855-.786h2.764V25.94h-2.715c-.57 0-.904-.335-.904-.839 0-.503.352-.82.904-.82h2.715V14.69c0-1.122.587-1.691 1.794-1.691h3.974c3.94 0 6.672 2.68 6.672 6.52 0 3.871-2.698 6.42-6.824 6.42h-3.788v3.992h4.896c.52 0 .855.3.855.786 0 .47-.335.787-.855.787h-4.896v3.54c0 .569-.351.955-.92.955z"/>
    </g>
</svg>
