<svg xmlns="http://www.w3.org/2000/svg" width="50" height="50" viewBox="0 0 50 50">
    <g fill="none" fill-rule="evenodd">
        <rect width="49" height="49" x=".5" y=".5" fill="#FFF" stroke="#919191" rx="24.5"/>
        <path fill="#4D4D4C" d="M24.608 38.157v-1.762c-1.81-.127-3.366-.7-4.51-1.542C18.827 33.947 18 32.598 18 31.58c0-.507.336-.84.78-.84.334 0 .508.127.873.713 1.033 2.098 2.844 3.431 5.812 3.431 3.353 0 5.464-1.748 5.464-4.288 0-2.32-1.477-3.35-4.431-4.144l-3.05-.81c-3.128-.844-4.922-2.59-4.922-5.465 0-3.207 2.317-5.462 6.161-5.7v-1.621c0-.524.317-.857.81-.857.51 0 .827.333.827.857v1.65c1.65.16 3.096.748 4.112 1.572 1.05.81 1.81 1.987 1.81 3.036 0 .475-.316.762-.745.762-.382 0-.634-.206-.938-.716-.856-1.938-2.54-3.176-5.21-3.176-3.16 0-5.082 1.683-5.082 4.147 0 2.128 1.337 3.271 3.765 3.922l2.971.778c3.779 1.016 5.67 2.51 5.67 5.654 0 3.35-2.51 5.606-6.431 5.91v1.761c0 .523-.304.843-.795.843-.525 0-.843-.32-.843-.843"/>
    </g>
</svg>
