<svg xmlns="http://www.w3.org/2000/svg" width="102" height="120" viewBox="0 0 102 120">
    <g fill="none" fill-rule="evenodd">
        <path fill="#FFF" d="M.807 0h101.142v93.424l-.046.97-.047.969-.092.97-.139.968-.185.924-.23.877-.278.923-.324.83-.323.878-.416.784-.416.831-.463.739-.508.738-.601.739-.6.646-.602.646-.693.6-.74.6-.74.508-.832.554-.832.415-.832.462-.924.37-.925.369-.97.277-1.018.277-1.016.276-1.064.185-1.109.138-1.156.093-1.155.046-1.202.046H70.007h-.786l-.74.046h-.74l-.74.093-.692.046-.694.092-.647.093-.647.138-.647.138-.601.139-.601.138-.6.185-.602.185-.555.184-.508.185-.555.23-.508.231-.509.231-.508.231-.463.277-.462.277-.462.277-.462.277-.463.277-.416.323-.416.323-.416.323-.37.323-.416.323-.37.323-.415.37-1.618 1.615-1.618-1.615-.416-.37-.37-.323-.416-.323-.37-.323-.416-.323-.416-.323-.462-.323-.416-.277-.463-.277-.462-.277-.462-.277-.462-.277-.509-.23-.508-.232-.509-.23-.554-.231-.555-.185-.555-.184-.555-.185-.6-.185-.602-.138-.6-.139-.647-.138-.648-.138-.693-.093-.647-.092-.694-.046-.74-.093h-.739l-.786-.046h-.785-11.418l-1.202-.046-1.156-.046-1.155-.093-1.11-.138-1.063-.185-1.017-.276-1.017-.277-.97-.277-.925-.37-.925-.369-.878-.462-.832-.415-.786-.554-.74-.508-.74-.6-.646-.6-.648-.646-.6-.646-.555-.739-.555-.738-.462-.739-.416-.83-.416-.785-.37-.877-.277-.831-.278-.923-.23-.877-.186-.924-.139-.969-.092-.97-.046-.968-.046-.97V0z"/>
        <path fill="#161413" d="M2.452 1.644h98.655v91.893l-.047.92-.046.92-.092.92-.139.874-.185.874-.231.874-.23.781-.278.828-.324.782-.37.782-.415.69-.416.736-.508.69-.509.644-.554.597-.601.598-.6.552-.694.552-.693.506-.74.46-.785.414-.785.414-.832.368-.924.322-.878.276-.97.276-.97.23-1.064.138-1.016.184-1.11.092-1.108.046-1.155.046h-11.46-.785l-.786.046h-.786l-.739.092-.74.046-.692.092-.694.138-.693.092-.647.138-.647.137-.646.184-.647.184-.601.184-.555.184-.6.23-.555.23-.554.23-.509.276-.554.23-.508.276-.462.276-.509.276-.462.322-.462.322-.462.322-.462.322-.416.322-.416.368-.415.368-.417.322-.37.368-.83.781-.787-.781-.415-.368-.416-.322-.416-.368-.416-.368-.416-.322-.462-.322-.462-.322-.462-.322-.462-.322-.462-.276-.508-.276-.555-.276-.508-.23-.509-.276-.554-.23-.554-.23-.601-.23-.555-.184-.647-.184-.6-.184-.601-.184-.647-.137-.693-.138-.693-.092-.693-.138-.693-.092-.74-.046-.74-.092h-.785l-.785-.046h-.832-11.414l-1.155-.046-1.109-.046-1.109-.092-1.063-.184-1.016-.138-.97-.23-.97-.276-.925-.276-.832-.322-.878-.368-.832-.414-.739-.414-.74-.46-.692-.506-.693-.552-.601-.552-.6-.598-.555-.597-.509-.644-.508-.69-.416-.736-.416-.69-.37-.782-.323-.782-.277-.828-.277-.781-.185-.874-.185-.874-.138-.874-.093-.92-.046-.92v-.92V1.644z"/>
        <path fill="#A8002C" d="M3.274 1.644h96.913v91.689c0 9.884-6.295 16.86-18.518 16.86H70.273c-8.777 0-14.383 3.048-18.519 7.159-4.136-4.111-9.788-7.16-18.519-7.16H21.84c-12.223 0-18.565-6.975-18.565-16.86V1.645z"/>
        <path fill="#161413" d="M24.294 84.959c.737-2.773 2.443-4.206 5.255-4.668 2.72-.462 5.717-1.987 8.99-3.512 1.384-1.017 1.568-.555.554 1.432l-1.568 1.803c-.83.924-1.014 1.895.139 2.819 1.568.786 2.213 1.525 1.982 2.172-1.706-.462-3.273-.231-4.61 1.017-.968-.277-2.12-.139-3.735.647-.83-.462-1.752-.508-2.858-.185-.277-.693-1.06-.878-2.398-.647-.368-.416-.968-.693-1.751-.878zm18.856 0c-1.66-1.71-1.844-3.235.047-4.53 1.06-.739 2.627-2.449 4.564-5.037 1.29-.092 2.443-.37 3.735-.555 5.163-.646 10.05-1.756 13.97-3.928.737-.231 1.29-.092 1.613.462l3.043 4.021-.876.324 2.305 1.756c-.415.323-.138.555.37.74-.278.415-.093.831.322.785.184.555.6 1.387-.6.231-.738-.37-.83 0-.23 1.156l1.245 1.802c.092.832.414 1.525 1.06 2.126l1.014 2.08c0 .323.185.647.277.924.138.786.323 1.202.968 1.294-.645 1.248-1.475 2.404-2.858 3.143-2.72 1.479-4.887.878-4.657-2.727.139-1.941.507-3.559.553-5.546.784-3.096.046-4.668-2.628-4.853-1.383.046-2.443.046-3.227.601-.738.508-1.798.324-3.227-.508-2.767-2.08-4.841-3.19-6.224-3.19 1.337 1.526 1.705 3.05.645 4.576 1.106.508 1.06 1.017-.046 1.525-2.674.093-5.671-.462-8.806-1.34-1.015-.185-1.199 0-.507.555 2.305.924 3.55 2.31 3.55 4.252-1.476.046-2.72.138-3.412.277-.646.416-1.337.37-1.983-.416zm26.142 14.928c-.784.416-.968.878-.23 1.34.507.324.783.37.876.14.921-.186-.37-.694-.646-1.48zm-24.113-2.034c-.507.37-.738.786-.46 1.34l1.013.879c.415-.37.323-.924-.138-1.294-.23-.185-.369-.509-.415-.925zm-11.803-4.852c.738.323.738 1.016-.184 1.432-.692-.277-.646-.878.184-1.432zM19.913 65.548c3.32 3.836 3.92 8.18 1.2 13.218-1.015 2.45-.877 4.02.46 4.76.37-.832.692-2.126.876-3.466.277-2.08 1.614-1.849 3.366-3.651 1.89-1.941 1.337-3.975 1.153-7.21-.323-6.933 1.106-10.953 3.135-13.218-5.164-1.433-8.3 2.403-10.19 9.567zm3.274-57.355c-.6.092-.83.508-.738 1.202l4.104 5.823c.138.277.415.555.368.786-.322.785-.46 1.294.23 1.987l1.384 1.34c.139.97.323 1.756.646 2.034-.323.647.092 1.248.645 1.849.138.184.184.415.415.6l.23 1.988c-1.936 1.617-2.904 2.819-3.089 3.558-.092.416-.184.74.093.97l2.72-.276c.23.138.507.184.6.37.414.97-.14 2.495-1.614 2.68-3.366.832-5.81 1.987-4.841 4.252 1.244 1.617.599 3.05-1.522 4.344-.507.462-.738 1.063-.645 1.849-.6.508-1.06 1.294-1.476 2.172-.322.924-.322 1.34.323 1.248 4.703-1.572 9.313-2.218 12.587.508 1.613 1.34 1.337 2.034 3.872 2.172-.276 1.063 0 1.664.923 1.849l.138 1.202c-1.015.23-2.167.23-3.182.508-1.152.277-2.258.74-3.273.74-.876-.694-1.89-1.11-2.72-1.618-4.242-2.634-7.792-2.773-10.88.832-1.614 1.895-3.09 4.483-4.289 8.458-.23.693-.783.97-1.89.323-2.213-1.802-2.628-3.42-1.521-4.483 1.567-1.479 2.167-.6 1.337.185l.046.185c1.198 0 1.66.832 2.12 1.71 1.015-2.635.462-4.437-.968-5.87l-.322-.046.138 2.264c-2.444-.508-3.78 1.387-3.965 3.143-.138 1.71.645 3.235 2.858 4.53 1.245.415 1.614 1.848.646 3.281-2.397 3.512-2.029 7.256.138 12.062l.277-.138c.46-5.269 1.568-7.95 3.32-8.458.553-.185 1.06-.554 1.52-1.155.508-.786.785-.693 1.154.139.968 2.218.876 4.344-.462 6.47-3.042 4.945-3.18 8.735 1.153 11.739l.138.37-1.152 1.479c-.369.6-.093 1.34.922 2.172.738.878 1.106 2.31 1.337 4.113-.369.555-.415 1.248-.185 2.034.646.924 2.213 1.432 4.427 1.201.23-.046.184-.23.184-.462.185-1.017-.507-1.756-1.245-3.004-2.167-1.941-2.628-3.79-1.936-5.592l.323-.509c1.706.601 3.873 1.294 5.855 1.572-.83 1.71-.738 3.836 0 5.084 1.383 2.403 2.858 3.512 5.67 3.281 3.735-.323 5.58-3.42 4.196-7.626 1.337-.74 2.213-.693 2.675.139-.047 1.895.783 1.294.83 3.143-2.214 1.94-3.043 3.605-.646 4.667 1.245 1.248.553 1.71-1.06 1.803-1.706-.416-2.951-.324-3.182 1.063-1.568.092-2.028 1.017-1.982 2.496.46-1.11 1.337-1.202 1.798-.925.83-.046 1.706.185 2.443-.138.692-.324 1.476-.324 2.352.046.46 0 .783.185 1.014.554 1.106 1.156.968-.138 3.412 1.34.6.047 1.614 0 1.798.971l.23-.878c.185-.323.092-.693-.276-1.016-.784-.925.46-.971 2.628-.555 1.153.508 2.213.74 3.043.6.968-.97 1.198-.37 1.383.925.691-1.895.23-2.912-1.66-3.004.323-1.017.461.508 1.153-.74.6-.277 1.198 0 1.798.601.138-.924-.415-1.479-1.614-1.756-.277-.786-.876-.832-1.706-.046-3.504-.925-3.873-3.05-1.89-3.467 1.06-.277 1.475.832 2.305 1.156.646.231.968.139 1.845.231.968.046 1.843.231 2.443.647l.692.231c.368-.277.737-.231 1.198.185.507.74 1.015.832 1.476.231 1.383-1.109 3.458-1.109 3.32-.416-.047 1.017.138 1.387.506 1.294.323.046.461.462.461 1.202-1.337-.046-2.259.185-2.259 1.155-1.245.37-1.198 1.248-.645 2.403-.138-2.218 1.752-.415 3.596-1.617l1.29-.139c.14.647.739.925 1.891.879.415-.186 1.06-.186 1.476-.278 2.259-.6 4.057-.462 5.394 1.386.276-.554.23-1.155-.138-1.71 1.567-1.062 3.273-.646 2.259 1.064.922-.462 1.844-2.82.645-2.773.507-1.387 2.582-.231 1.983.785.876-.462 1.014-1.155-.046-2.033-.139-.786-.784-1.017-1.937-.693-.645-1.11-1.475-1.156-2.582-.185-1.106.508-1.982.554-2.535-.185-.6-.97-.462-1.433.368-1.11.415.14.6-.37 1.107-1.34.184-.416.553-.739.83-1.294 1.199-.185 2.167-1.248 3.412-3.374.876-.416 1.29-2.125 1.337-4.806.369.185.83.046 1.429-.324-.415-.046-.6-.185-.6-1.247h1.153c.461-.185.646-.37.6-.601 0-.185-.462-.139-.784-.648-.139-.646-.508-1.293-1.199-1.94l-1.106-1.803c-.784-2.496-1.706-3.928-2.86-3.004l-.322-.185c-.876-.97-1.521-2.264-2.028-3.697.046-1.757-1.799-1.849-2.767-.185l-.276-1.387-.461.74-2.905-4.206c.323-.046.876-.37 1.199-.416 3.55-.277 7.1-1.34 10.742-3.374l2.582-.785c1.153-.463 1.522-.093 2.12.508l2.629 2.727c.507.554.507 1.063.23 1.617-.276.555.37 1.294 1.291 2.08.83.924.922 2.172.185 3.744-.415 1.016-.323 1.664.276 1.987l1.799 1.294c1.198.97 1.798.647 1.752-1.063-.093-.878-.37-1.71-.877-2.588-.599-1.063-1.014-2.08-1.06-3.143-.046-2.126-.323-3.235-1.199-3.974a14.723 14.723 0 0 1-2.581-3.282c-.231-.693-.415-1.109-.784-1.294-.092-2.218-1.706-3.327-2.72-2.726-.876.184-1.706.277-2.628.138v-.508c1.152-.647 3.135-2.681 5.117-4.9.738-.924 1.107-.554 1.844.186l2.859 3.004c-.092 1.479.138 2.45 1.152 2.357.692 1.201 1.015 2.357.37 2.865-.646.555-1.153.925-1.153 1.71.138 1.156 1.475 2.357 2.95 2.912.139.046.37-.046.462-.231.415-1.017.46-2.219.046-3.42l-.508-1.71c-.092-.694 0-1.248.047-1.757.138-1.34.184-2.08-1.245-3.096-1.798-1.849-3.32-3.744-4.565-5.731.046-2.634-2.213-3.328-3.642-.462l-2.766 1.94c-.692.463-1.153-.276-1.153-1.016-.276-3.466-2.628-6.24-5.21-8.92-1.383-4.205-3.273-7.718-3.965-10.953 2.628.277 4.61.786 5.394 1.571 1.153 1.248 2.629 1.895 2.997 1.017.139-.277-.691-.786-1.106-1.202.46 0 1.06.416 1.706 1.063 1.152 0 1.521-.878 1.198-2.08.139-.97.093-1.71-.322-2.033l-.968-.554c-1.614-1.757-2.951-3.513-4.058-5.454a1.12 1.12 0 0 1-.184-.6c0-.787-.23-1.48-1.014-2.173l.368-.185-.046-.277.83.185-.83-1.387c-.46-1.71-2.028-1.987-4.38-1.294-.323.093-.738-.277-1.152-.74-1.476-1.432-3.043-2.218-2.49-1.155.092.185.553.693.046.647l-2.536-.416c-.553-.092-.645.093-.507.37.461.508.922.97 1.107 1.525l-3.228.185c-.645.046-1.198.324-1.798.277-1.752-1.479-3.919-.37-6.178 1.34l-.323-.138-.046-2.634h.277l-.23-1.71h.184c.184-2.588-.323-4.252-1.291-5.408-.185-.786.6-.693.784-.924.737-.924.691-1.987.691-2.542-.138-1.11-.507-1.479-1.06-1.11h-.646c-.691-.092-1.245-.323-1.521-.646-.738-.509-1.43-.509-2.121-.046-3.32.831-3.919 3.42-7.976 1.663-.461-.046-.553.14-.369.509.692.924 1.66 1.525 2.72 1.987-.368.277-1.106.323-2.305.231.691.924 2.028 1.387 4.103 1.34.784.462 1.706.278 2.72-.138.554-.324.6-.139.231.6-1.06.879-1.798 2.589-1.936 5.685-.415.647-.646 1.34-.784 2.126-1.522-.416-2.859-.693-3.412-.23l-.6-.047c-1.336-1.017-2.627-.97-3.688-.277l-2.351 1.802c-.876.601-1.614.647-1.752-.092l-.968-2.08c.046-1.479-.507-2.172-1.522-2.265-.46-.416-.783-.924-.876-1.479l-.691-.878c.23-.786-.093-1.063-.646-1.063-.599 0-1.152-.092-1.475-.323l-4.795-5.916z"/>
        <path fill="#FFF" d="M89.057 76.372l.47-.993c.235-.331.422-.331.563-.048l1.127 1.04c-.235.237-.751.237-1.127.332l.376.615-.376.189-.14.52c-.705-.567-1.127-1.088-.893-1.655zm.986-3.405c.141 0 .282.425.282.898 0 .473-.14.899-.282.899-.188 0-.281-.426-.281-.899 0-.473.093-.898.281-.898zm-.657-3.831c.094-.095.329.094.47.33.187.284.234.568.14.616-.094.047-.328-.095-.47-.379-.187-.284-.234-.52-.14-.567zM92.987 64.877c-.12-.133-.238-.089-.357.044-.437.573-.517 1.014-.278 1.41l.874.75c.278.265.595.133.437-.132l-.318-.485c.198.088.357.309.556.309.159 0 .198-.265 0-.441-.318-.353-.397-.485-.199-.706.08-.088.08-.176-.04-.264l-.675-.485zm0-4.102c-.397-.529-.318-.838.199-.794-.477-.837.04-1.014.516-.132.238.397.278 1.191.199 2.117-.04.265-.318.353-.397 0-.16-.53-.318-.882-.517-1.19zm.318 3.484l.199-1.014c.04-.265.119-.22.238 0 .318.44.596.882.675 1.632.08.308.04.485-.159.529-.238.044-.437-.088-.635-.309-.278-.353-.358-.573-.318-.838zM76.78 52.247c.046-1.89.271-3.418.271-4.813 0-.585.407-.585.407.09.09 1.484-.09 3.014-.271 4.588 0 .225-.406.63-.406.135zm2.62 7.512c.09 0 .134.09.134.18s-.045.18-.135.18c-.09 0-.135-.09-.135-.18s.045-.18.135-.18zm-4.47-6.657l.18-.135c.045-.045.135-.045.18.045l.678.855c.045.044.045.134 0 .18l-.18.134c-.046.045-.136.045-.181-.045l-.723-.854c-.045-.045-.045-.135.045-.18zm6.5 4.813l.271-1.755-.315.63c-.271 0-.317-.27-.362-.81-.045-.63 0-.854.362-.72l.225.586.18-.405c.317-.18.362 0 .227.54l-.09 1.934c-.181.27-.317.765-.497 0zm4.786-5.533c-.27-.36-.316-.81 0-1.124.271-.315.678-.36.994-.135.27.135.36.314.36.45l-.54.18.676.18c.361.314.045.899-.27.404-.272-.27-.587-.315-.904-.135 0 .405-.09.495-.316.18zm-6.546 3.149c.09-.045.27.135.406.36.09.225.136.45 0 .495-.09.09-.27-.09-.36-.315-.136-.225-.136-.495-.046-.54zm-4.154-.36c.09-.045.271.09.407.315.135.27.135.495.045.54-.09.045-.271-.09-.406-.36-.136-.225-.136-.45-.046-.495zm1.22-2.204c.315-.045.722.315.812.81.135.54-.09.99-.406 1.08-.361.044-.723-.27-.858-.81-.09-.54.09-.99.452-1.08zm.586 2.969c-.18-.855.09-.99.407-.18.496 1.17.767 2.654.722 4.453 0 .675-.542.72-.587.09-.18-1.574-.226-3.059-.542-4.363zm5.237 1.394a8.972 8.972 0 0 1 .542-2.609c.136-.405.316-.45.542-.225.813-1.304.632-.585.27.405l.226.135c.994-1.844.588-.36.497.45-.722.9-1.219 1.08-1.445.45l-.225 1.169c-.18.54-.316.63-.407.225zM20.179 89.58c-.326 1.233-1.72.594-1.023-.502 1.72-2.739 3.393-5.478 3.718-9.175.093-1.324.93-1.918 1.998-2.511 2.278-1.233 3.068-3.333 3.021-5.706-.51-10.318 2.417-14.837 6.925-16.618l-.14.411c-4.043 2.42-5.716 7.076-5.762 13.422-.046 1.415-.186 2.876 0 4.428l.14-.32c.139-3.743.139-6.939.603-9.13.512-2.42 1.302-3.88 2.092-4.93.279-.365.51-.822.79-1.096.372-.365.79-.456 1.115-.776l-.046.32c-1.534 1.506-2.835 3.424-3.44 5.934-.65 2.876-.697 6.209-.464 9.678-.047.503-.14.913-.325 1.278l.185-.09c.28-.549.419-1.188.419-1.964-.326-4.2 0-8.445 1.533-11.412 1.07-2.055 1.72-2.83 4.694-4.474l-.093.32c-2.51 1.688-4.88 3.651-5.344 10.316l.14-.137c.464-5.067 2.323-8.81 5.762-10.18 1.208-.502 2.65-.41 4.229-.41l-.279.228c-2.416-.229-4.508.593-6.32 2.465l.279.091c1.72-1.734 3.718-2.693 6.227-2.145l-.186.365c-1.766-.274-3.253.365-4.647 1.415v.183c1.58-1.05 3.02-1.552 4.415-1.279.465.046.604.411.465.959l-.28 2.51c-.046 2.42-.185 4.794-.79 6.94l-.232.182.233-4.2-.976 5.205c-.093.593-.511.502-.418-.046.232-1.096.604-2.602.836-4.2-.232.046-.418.183-.465.502-.279 2.237-.65 4.063-1.162 4.702.326-1.415.512-2.83.558-4.245l-.279.228-.697 3.972c.511.274-.14.684-.325.182l.232-2.191-.186-.046-.976 3.516.326-2.42-.837 2.42h-.325l.418-2.055-1.394 3.744c-.418.09-.465-.046-.14-.685l.884-2.557-.28.046c-.557 1.872-.975 3.196-1.672 3.606l-.233.046c.976-1.689 1.116-2.51 1.162-3.332-.511 1.597-1.022 2.739-1.952 3.697-.14-.137.047-.547.604-1.552l.512-1.324c-.233-.274-.372-.182-.512.229-.325 1.14-.65 1.917-1.254 2.647l.604-2.236-.093-.274c-.419 1.323-.976 2.465-1.766 3.15l.372.182c1.254-.822 2.974-.548 4.74-1.324.372-.182.743-.274.976-.091l-.326.867-.325-.502c-.186.685-.464 1.324-.836 1.598l-.14-1.005c-.743 1.598-1.254 2.466-1.3 1.69l.138-.96c-.557.549-.93 1.188-1.069 1.964-.278-.046-.325-.594-.232-1.37l-.465 1.69c-.418.09-.51-.366-.278-1.37-.372.913-.698 1.552-.837 1.643-.186-.274-.232-.73-.093-1.324l-.465.868c0 .64-.186.867-.464.822.139-.96.139-1.324-.047-1.096l-.558 1.46c-.325.183-.418-.182-.371-1.004-.512.274-.372 1.279-.744 1.69-.279-.183-.325-.64-.279-1.142-.232.776-.465 1.233-.79 1.278l-.093-1.506c-.14.685-.325 1.232-.604 1.69l-.418-1.097-.186 1.05c-.325.183-.604-.09-.79-.776-.047 1.416-.186 2.602-1.116 3.196.093.365-.325 1.324-.883 2.42l1.488-2.146c.325-.091.464.091.325.776l-1.534 2.465c-.232.274-.51.183-.79 0-.325 1.233-.883 2.1-1.44 2.922.65-.411 1.068-1.279 1.58-2.465.093-.366.51.09.371.821l-.371.32.046.548-.465.045v.73l-.418.183c.418 1.005-.093 1.644-1.115 1.142zM28.774 54.98l1.492-.733-.076.837-1.416-.105zM12.323 69.005c.191-.754.688-1.19 1.186-2.103.306-.516.42-.159.382.317-.65.992-1.147 1.508-1.568 1.786z"/>
        <path fill="#FFF" d="M30.282 53.955c-2.946-2.647-5.846-4.04-8.01-3.575-4.097.928-6.076 4.736-7.273 8.358.69-1.207 1.289-1.997 2.025-2.229-2.025 3.25-3.176 6.548-3.36 10.355-.138.465-.368.883-.737 1.208-1.289.975-1.197 1.764-1.427 2.554.277-.186.599-.79 1.013-1.3.552-.697 1.197-1.44 1.473-2.647.414-1.626.598-3.25.92-4.458.461-1.58.922-2.647 1.75-4.04 1.473-2.461 3.36-4.69 5.524-5.619v.186c-2.117 1.16-3.637 2.925-5.34 5.665-.414.697-.69 1.347-1.059 2.322-.368.882-.736 1.904-.828 3.065-.276 2.507-.875 4.132-1.565 5.108-.737.975-1.197 1.393-1.335 1.857-.092.232-.276.65-.23 1.115 1.61-3.065 2.347-2.787 3.038-4.97.967-3.343.322-6.779 4.741-11.655h.322c-2.117 2.461-3.544 4.783-4.28 9.752-.139.836-.277 1.997-.645 2.693-.553 1.068-1.703 1.904-2.026 2.972l.23-.046c.553-.557 1.658-1.858 2.072-2.74 1.335-2.6.875-6.083 2.578-8.87 2.21-3.668 3.913-5.572 6.629-6.64l.322-.046c-3.729 1.997-4.373 3.436-5.984 5.665-.553.743-.967 1.486-1.427 2.88-.415 1.206-.69 3.064-.921 4.504-.276 1.857-.967 2.971-1.703 3.9-.415.511-.737.743-1.06 1.207-.275.418-.551 1.208-.69 1.765l.23-.093c1.013-2.74 1.612-2.136 2.348-3.065.415-.557 1.059-1.671 1.243-2.971.276-2.694.829-4.737 1.75-6.502.966-1.95 2.485-4.086 4.189-5.526.782-.65 1.38-1.021 2.44-1.346h.23c-1.244.836-2.072 1.068-3.039 1.997-1.565 1.485-3.084 3.715-3.82 5.618-.783 1.811-1.197 3.808-1.428 5.851.046-.278.185.14.277-.092.828-4.83 2.531-8.22 4.695-10.402 1.197-1.254 2.624-2.183 3.959-2.508l.875-.046c-2.026.557-3.96 1.532-5.432 3.808l.276-.047c1.795-1.95 3.59-2.833 5.34-3.25l.276.046c-1.197.418-2.302.882-2.992 1.532l.092.279c1.335-.882 3.36-1.347 5.754-1.579zM11.989 73.92c-.349-.344-.489-.731-.489-1.075.07-.516.698-.473.838-.13.14.646-.35.689-.35 1.205zM17.258 78.867l.574-.576c.287-.157.631-.209.86-.104-.057.261-.688.523-1.434.68zM17.258 80.563l.56-.586c.301-.21.645-.251.904-.126-.087.252-.69.544-1.464.712zM17.258 81.49l.646-.68c.301-.21.688-.262.946-.053-.086.262-.817.576-1.592.732zM17.258 82.207l.603-.628c.3-.21.645-.21.903-.052-.129.314-.774.575-1.506.68zM17.258 83.168l.517-.697c.286-.21.63-.28.86-.14-.057.28-.688.628-1.377.837zM19.726 75.527l.419-.523c.21-.21.471-.105.576.105-.053.313-.524.418-.995.418zM19.726 76.244l.732-.558c.344-.07.688 0 .86.349-.172.348-.817.418-1.592.21zM19.726 74.057l.64-.697c.294-.21.639-.21.885 0-.148.349-.787.558-1.525.697z"/>
        <path fill="#FFF" d="M20.549 73.465l.746-.314c.344 0 .688.314.803.732-.172.314-.86.105-1.55-.418zM18.904 85.286l.376-.523c.168-.105.377 0 .461.104-.042.314-.419.523-.837.419zM20.395 83.836l-.841.125c-.345.167-.612.502-.65.795.267.084.88-.335 1.491-.92z"/>
        <path fill="#FFF" d="M19.655 83.836h-.836a1.11 1.11 0 0 0-.738.906c.246.14.934-.279 1.574-.906zM23.016 87.052l.492-1.032c.246-.344.688-.54 1.082-.54 0 .343-.688 1.031-1.574 1.572zM25.522 85.823l.689-.344c.344 0 .65.148.803.394h-.038c-.038.294-.497.835-1.071 1.228l.344-.836c.077-.098.153-.196.268-.294h-.23c-.153.245-.459.54-.803.835l.268-.688c.038-.098.115-.147.153-.196-.115-.05-.23-.05-.383-.099zM29.22 86.416c.281-.115 1.266.076 1.126.344-.047.23-.657.65-1.315 1.032l.376-.688c.094-.115.188-.153.282-.23h-.329c-.188.192-.516.421-.939.65l.282-.573c.047-.038.14-.076.188-.115-.094 0-.188-.038-.235-.038-.141.153-.423.306-.704.459l.188-.382c.328-.344.563-.306 1.08-.459zM35.355 86.252c0-.797.56-1.266 1.635-1.407 1.248-.187 2.754.094 2.324.704h-.129l-.215.563-.473.938.3-1.032.13-.516c-.13-.047-.344-.14-.56-.188l-.387.422-.645.798.516-.938.215-.376c-.086 0-.172-.046-.258-.046l-.387.422-.646.797.516-.891.216-.375h-.344l-.259.422-.602.844.43-.985.13-.234a6.637 6.637 0 0 0-.474.14l-.301.798.129-.75c-.387.187-.732.421-.86.89zM31.242 86.63v-.04-.04h.098l1.23-.634c.836-.318 1.869-.437 1.721.119 0 .04-.098.12-.295.159 0 .198.05.436.05.674l-.345-.595h-.197c0 .318 0 .635.05.953l-.492-.874c-.098.04-.148.04-.246.04.05.437.05.913.05 1.39l-.69-1.152v-.08c-.098.239-.147.517-.245.755l-.148-.794c-.147.318-.344.715-.492 1.112l-.049-.834v-.198.04zM18.08 55.89l1.646-1.643c-.65.267-1.224.802-1.645 1.643zM29.162 91.932c-.172-.459-.388-.872 0-1.926.344-.964.774-1.239 1.033-1.193.3.367-.087 1.1.086 2.018l-.689-.642.215 1.238-.516-.596-.13 1.1zM35.914 93.19c-.14-.209-.35-.313-.42-.313-.139.052 0 .261.14.47.21.21.419.314.49.314.069-.052 0-.261-.21-.47zM35.16 94.075c-.209-.251-.418-.376-.523-.335-.104.042 0 .252.21.503.209.25.418.376.523.335.053-.042 0-.252-.21-.503zM35.16 94.939c-.209-.261-.418-.418-.488-.418-.14.052-.07.313.07.575.21.209.418.418.488.366.14 0 .07-.262-.07-.523zM34.478 95.208c-.14-.393-.489-.687-.629-.639-.139.05-.139.394.07.787.14.344.42.639.559.639.21-.05.21-.394 0-.787zM29.235 95.447c.252.105.419.314.419.523-.042.105-.251.21-.46.105-.21-.105-.42-.314-.378-.419 0-.209.21-.314.42-.209z"/>
        <path fill="#FFF" d="M28.697 94.625c.402.105.69.419.69.628 0 .209-.345.313-.747.209-.401-.209-.688-.418-.688-.627 0-.21.344-.314.745-.21zM28.788 93.769c.393.139.688.348.688.488-.049.209-.393.279-.787.14-.393-.07-.737-.28-.688-.489 0-.14.344-.21.787-.14zM41.167 85.72c-.265-.956.708-1.29 1.726-.813.797.335 1.77.478 3.054.191.62-.143 1.284-.143 1.948-.048.664.383.62.717-.133.86-1.416 1.433-2.478 2.914-2.656 4.348-.486-.717.531-2.532 2.125-4.778-.974.812-1.859 1.863-2.7 3.058.177-.764.753-1.816 1.55-2.962-1.727 1.385-2.922 3.44-2.745 7.261-.664-2.292-.221-4.49 1.15-6.64l-1.903 2.15 1.727-2.867-1.063.383.09-.43-.665.334v-.478l-.885.765.177-.812c-.31-.192-.531.095-.797.477zM42.04 91.233c-.104.459-.052.994.472 1.529.157.114.366-.039.261-.306-.366-.23-.576-.688-.732-1.223z"/>
        <path fill="#FFF" d="M44 91.233c.21 0 .419.286.419.688 0 .401-.21.745-.42.745-.208 0-.418-.344-.418-.745 0-.402.21-.688.419-.688zM45.994 88.809c.07.042.07.25-.07.46-.21.251-.419.419-.558.377-.14 0-.07-.251.07-.46.209-.251.418-.419.558-.377zM46.887 87.945c.14.105 0 .314-.21.523-.21.262-.489.419-.558.366-.07-.052 0-.313.21-.523.208-.261.488-.366.558-.366zM64.145 89.589c.89.238.995 1.19.524 2.342.052-.953-.157-1.707-.524-2.342zM59.838 95.305c-.105-.261-.314-.523-.628-.784l.314.941.314-.157zM50.984 81.37c.105 0 .262 0 .419.07l.419.907c-.157 0-.314-.07-.471-.14l-.367-.837zM50.475 85.48c.21.052.524.313.629.575.104.261 0 .418-.21.366-.209-.052-.523-.262-.628-.523-.104-.262 0-.419.21-.419zM51.194 85.532c.104-.053.419.157.523.418.21.262.314.471.21.523-.21 0-.42-.156-.629-.418-.21-.314-.314-.523-.104-.523z"/>
        <path fill="#FFF" d="M51.911 85.48c.21 0 .628.25.733.543.105.252.21.377-.314.377-.419.042-.314-.084-.419-.377-.104-.25-.104-.544 0-.544zM52.769 84.658c.07 0 .349.286.558.745.14.401.21.802.07.802-.14.058-.349-.229-.559-.687-.139-.46-.209-.803-.07-.86zM53.592 84.707c.21-.05.419.295.558.688.14.442.07.786-.07.835-.14 0-.419-.344-.488-.737-.14-.442-.14-.786 0-.786zM54.414 84.707c.14-.05.559.442.628.835.14.393.21.59-.21.639-.488.049-.348-.148-.488-.59-.07-.393-.07-.884.07-.884z"/>
        <path fill="#FFF" d="M54.414 84.707c.21-.05.419.294.628.737.14.442.14.835 0 .835-.14.05-.419-.295-.558-.737-.14-.442-.21-.835-.07-.835z"/>
        <path fill="#FFF" d="M55.446 84.658c.14 0 .349.344.349.764 0 .42-.14.764-.349.764-.14 0-.349-.343-.349-.764 0-.42.14-.764.35-.764zM56.338 85.48c.21 0 .42.343.42.73 0 .43-.21.731-.42.731-.313 0-.418-.3-.418-.73 0-.388.105-.732.418-.732zM57.161 84.658c.21 0 .419.343.419.764 0 .42-.21.764-.419.764-.21 0-.419-.344-.419-.764 0-.42.21-.764.42-.764zM58.053 84.658c.21.051.28.516.21 1.187-.14.567-.28 1.083-.489 1.083-.14 0-.21-.516-.14-1.135.07-.62.21-1.135.42-1.135zM59.085 84.658c.21 0 .21.382.07.84-.14.46-.349.803-.558.803-.14 0-.21-.382-.07-.84.14-.46.419-.803.558-.803zM60.52 83.879c.21 0 .56.644.42 1.246-.21.645-.49 1.161-.698 1.118-.21-.043-.07-.558.07-1.16.139-.646.07-1.247.209-1.204zM55.202 89.641c.105-.052.314.157.524.367.21.261.21.523.21.523-.105.052-.42-.157-.525-.366-.209-.262-.314-.524-.209-.524zM56.025 88.767c.209 0 .523.21.733.46.209.252.209.377-.105.419-.42.084-.315-.084-.524-.335-.21-.21-.21-.502-.104-.544zM62.5 86.721v.301c.21-.085.42-.172.629-.258.14-.774.14-1.504.07-2.106-.21.774-.42 1.462-.699 2.063z"/>
        <path fill="#FFF" d="M61.774 87.653c-.229 1.22-.274 1.595-.732 2.017.183-.75.092-1.313.092-1.454-.137.047-.229.094-.32.094v.14c.046.47.046 1.08-.503 1.83-.046-.657.228-1.267.228-1.923-.137.047-.228.094-.365.14v.657c-.046.281-.32.985-.366 1.032.046 0 .228-1.36.091-1.642-.09.047-.228.047-.32.094v.188c-.045.14-.045.281-.137.281-.046 0-.091-.094-.091-.234-.046-.047-.046-.141-.092-.188-.045 0-.137 0-.228.047v.047c.046.14.046.234 0 .281-.046 0-.137-.14-.229-.281-.091 0-.183.047-.228.047.045.234.045.328-.138.422-.228.094-.228-.14-.274-.375-.137.046-.274.046-.411.094.045.187 0 .328-.046.328-.046.047-.137-.094-.229-.282h-.365c.045.188.045.282 0 .329-.046 0-.138-.094-.229-.282l-.046.047c0-.047 0-.047.046-.047-.046-.047-.046-.14-.092-.234-.137-.282-.182-.563-.137-.61.092-.047.229.14.366.469a.884.884 0 0 1 .092.328.832.832 0 0 1 .32-.094c0-.093 0-.14-.046-.187-.092-.375-.092-.704 0-.75.091-.047.229.234.32.61 0 .046.046.14.046.234.137-.047.228-.094.365-.141-.045-.234-.045-.328-.045-.47 0-.187 0-.28.045-.28.046-.047.275.28.366.656.092-.047.137-.047.229-.094-.046-.046-.046-.046-.046-.093-.091-.282-.091-.376-.091-.563-.046-.141-.046-.188 0-.235.045-.047.274.329.365.657 0 .047 0 .094.046.14.092-.046.137-.046.229-.093v-.094-.657c0-.187.045-.281.091-.281s.091.094.137.234c.046.188.092.423.138.657.09 0 .182-.047.274-.093V87.7c.045-.14.045-.234.091-.234.046-.047.137.234.183.469.137-.047.229-.094.366-.141v-.516c0-.14.045-.282.091-.282.046-.046.092.047.092.188.046.14.091.282.091.47.092-.048.183-.048.274-.142 0-.28.046-.562.046-.75.046-.188.092-.328.137-.328.046-.047.092.046.092.234.046.188.046.422.046.704.091-.047.182-.094.274-.094.32-1.313.731-3.096.731-4.69-.091-.188-.183-.329-.274-.517-.091 1.783-.228 3.284-.777 4.269.274-1.454.32-3.002-.046-4.784h-.137c.046 1.923.046 3.517-.457 4.596.183-1.548.137-3.19-.457-5.019-.092-.047-.184-.093-.275-.093.412.375.32 1.876.137 2.11-.274-.891-.046-1.173-.823-1.782h-.228c.411.469.457 1.172.365 1.735-.228-.516-.594-1.126-.96-1.5h-.411c.594.703.594.844.503 1.407-.229-.61-1.143-1.033-1.509-1.314-.183 0-.229.047-.411.047.457.234 1.097 1.079.868 1.36-.32-.375-1.006-.75-1.28-1.266-.183 0-.091.094-.274.094.091.281 0 .469.045.797-.41-.094-.64-.14-1.143-.704-.09 0-.274-.047-.274 0 .046.141.229.47.274.61-.09-.14-1.051-.657-1.143-.797-.045-.047.183-.047-.365-.094.045.14.365.891.411 1.032-.091-.14-.777-.891-.868-.985-.23-.047-.412-.047-.64-.094l-.412-.703c2.057.14 4.343.047 7.087-.47l2.56-.515c.869-.282 1.463.187 1.646 1.548l.137 1.5c.549.798.777 1.783.229 3.143.228.985.777 1.83 1.6 2.533.732.703.823 1.688-.046 3.096-.777 2.064-1.874 3.33-2.835 4.69 0 .047-.09.094-.09.14-.047.048-.092.095-.138.189.046-.094.091-.141.137-.235l-.137-.703c.137.187.183.328.228.516l.412-.704a22.41 22.41 0 0 1-.137-.75c.091.187.183.328.274.515.092-.187.229-.375.32-.563-.091-.234-.137-.515-.228-.797.137.188.228.375.32.563a5.14 5.14 0 0 0 .365-.704c-.045-.234-.137-.469-.182-.703.091.14.182.281.274.469.137-.422.229-.75.274-1.032l-4.71 3.002c.413-.375.87-.704 1.281-1.079l-.046.047c-.045-.281-.091-.61-.137-.891.137.234.229.516.32.75.092-.093.229-.187.32-.281l-.137-1.126c.183.328.274.657.366.938.137-.094.274-.234.411-.328-.045-.47-.09-.985-.182-1.501a4.7 4.7 0 0 1 .457 1.266 2.32 2.32 0 0 1 .365-.328 37.24 37.24 0 0 0-.228-2.11c.32.656.548 1.266.548 1.782.092-.094.183-.141.275-.235a20.992 20.992 0 0 0-.275-2.298c.366.703.595 1.407.64 1.97 0-.047.092-.094.138-.14 0-.751-.137-1.783-.275-2.722.458.892.686 1.736.595 2.346l.274-.282c-.045-1.36-.503-2.58-.914-3.846-.183.657-.183.891-.366.844.091-.75.046-1.078-.092-1.172-.09 1.032-.32 1.688-.64 2.017l.183-1.689h-.274z"/>
        <path fill="#FFF" d="M58.402 91.233c0 .419 0 .767-.418.767-.42-.07-.315-.418-.21-.767h.628z"/>
        <path fill="#FFF" d="M58.123 90.411c.14.042.21.126.21.418 0 .293 0 .503-.35.503-.418-.042-.348-.293-.209-.544.14-.293.21-.377.349-.377zM59.225 90.411c0 .575 0 .994-.419.941-.419-.052-.419-.47-.21-.941h.63zM58.701 89.589c.105 0 .105.21.21.523h-.524c.105-.313.21-.523.314-.523zM59.978 89.589c.14 0 .21.197.21.639s0 .835-.49.786c-.488-.05-.348-.442-.209-.884.21-.393.28-.541.489-.541zM55.92 76.438c1.265.258 2.582 1.162 3.898 2.107.202.301.101.387-.203.258-.91-.258-2.227-1.548-3.695-2.365zM60.609 80.005c.261.21.366.419.314.488-.053.14-.262.07-.524-.14-.21-.209-.366-.488-.314-.557.052-.07.262 0 .524.209zM49.339 81.37l1.162.172.258.573-.043-.057c-.13 0 .387 1.834-.301-.115-.086-.229-.345-.172-.56-.287-.215-.114-.129-.172-.516-.286zM43.23 101.096c.261 0 .523.209.523.418 0 .105-.157.314-.419.314-.314 0-.523-.105-.523-.314-.053-.21.157-.418.419-.418zM43.397 102.127c.394-.14.837-.21.886-.07.098.14-.197.35-.59.558-.394.14-.787.14-.886 0-.049-.14.197-.349.59-.488zM44.27 102.95c.387-.14.774-.21.86-.07.043.139-.215.418-.602.557-.43.21-.775.21-.86.07-.087-.14.171-.419.601-.558z"/>
        <path fill="#FFF" d="M45.035 102.949c.344-.21.688-.21.746 0 .057.104-.172.418-.517.627-.401.105-.746.105-.803-.104-.057-.105.23-.419.574-.523z"/>
        <path fill="#FFF" d="M44.822 103.562c.314 0 .524.209.524.418.052.21-.157.314-.419.314s-.523-.105-.523-.314c0-.21.157-.418.418-.418zM49.978 102.075c.393-.157.787-.157.836.052.098.157-.196.47-.59.628-.394.157-.787.157-.836-.052-.049-.157.197-.419.59-.628zM49.148 101.305c.344-.21.688-.21.745 0 .058.21-.172.489-.516.628-.344.21-.688.14-.746 0-.115-.21.172-.488.517-.628zM48.935 100.413c.262-.139.471-.07.524 0 .052.21-.105.419-.367.489-.262.14-.471.14-.523 0-.053-.14.104-.349.366-.489zM42.407 96.451c-.052-.287-.314-.287-.419-.057-.052.401.052.917.419 1.146.419.23.524-.229.314-.401-.21-.23-.262-.401-.314-.688z"/>
        <path fill="#FFF" d="M41.898 96.552c.053-.259-.21-.388-.418-.172-.262.3-.367.773-.053 1.074.367.387.681.043.576-.172-.157-.3-.21-.473-.105-.73zM73.512 75.868c-.239.433-.318 2.07.874 4.045.436.674-.08 1.156.556 1.252.238-.048.397-.289.437-.722l-.398-.24h.556l-.595-.483c.198-.048.675.097.635-.144-.04-.289-.596-.337-.874-.482l.676-.192c.04-.241-.358-.434-.993-.674l.635-.193-.715-.53.556-.192-.874-.53.477-.289-.516-.193.476-.288c-.397-.193-.556-.627-.913-.145zM72.773 76.423c-.344-.559-.402-1.031-.23-1.461.402-.774.804-.99 1.148-.99.688.56-.46.903-.689 1.334-.172.086-.23.386-.23 1.117z"/>
        <path fill="#FFF" d="M72.706 74.307c.21-.209.46-.334.545-.25.083.083-.042.292-.252.543-.209.21-.46.377-.544.293-.084-.083.042-.335.251-.586zM72.037 77.26c.21 0 .42.21.42.489a.45.45 0 0 1-.42.418c-.279 0-.488-.21-.488-.418 0-.28.21-.489.488-.489zM73 78.166c.209.042.261.25.104.46-.105.21-.314.335-.471.251-.21-.042-.262-.251-.105-.46.105-.21.314-.335.471-.251zM73.167 78.988c.21.084.251.293.084.544-.126.21-.42.335-.629.293-.209-.084-.25-.335-.125-.544.125-.21.418-.377.67-.293zM73.99 79.935c.125.21.042.419-.168.523-.167.105-.419.053-.545-.156-.083-.157-.041-.367.168-.471.21-.105.419-.053.545.104zM76.971 80.533c.089-.135.089-.362-.133-.407-.222-.045-.356-.045-.489-.271-.177-.544.09-.815.533-.95.356 0 .489.135.4.361l-.222.181c.4.136.666.272.8.498-.223 0-.356.045-.4.226.755-.135.71 1.087.044.86-.444-.135-.666.046-.444.815.178.905.8 1.131.755.181-.089-.453 1.422-.543 1.6.452l-.578-.226c.133.724.71.407.8 1.041l-.49.046c.578.407 1.022.905 1.245 1.493-.622-.09-.667-.77-1.244-.77.755 1.042 1.643.815 2.087 1.856-.622-.045-1.376-.543-2.22-1.357.755 1.086 1.243 1.99 1.066 2.443-1.111-.497-1.333-2.172-1.777-2.67 0 .86.622 1.358.4 2.308-.445-.543-.667-1.403-.667-2.76.444.09.622-.227.622-.996-.089-.815-.489-.77-.4 0 0 .588-.4.77-1.599.045-.178.181.089.408.755.815l-.044.679.355-.589.134 1.901c-.045.498-.178.408-.311-.09l-.134-.95c0 .678-.089.995-.31.95l-.178-1.765-.489.633-.133-.995-.444.362V82.66c-.311.182-.667.046-1.022-.497.489.136.8.045 1.2-.181-.223-.905.177-1.358.932-1.449zM66.698 86.083c.07-.442.21-.59-.419-1.18-.279-.196-.488-.245-.418 0 .14.393.698.787.837 1.18zM65.79 83.014c.747.3 1.09.344 1.492 1.16.115.301.058.517-.23.259-.458-.387-.688-1.032-1.261-1.42zM65.79 81.37c.837.516 1.18.602 1.574 1.806.099.473-.049.73-.344.344-.492-.602-.64-1.505-1.23-2.15z"/>
        <path fill="#FFF" d="M65.79 80.548c.935.238 1.623 1.15 1.623 1.944 0 .437-.245.715-.393.318-.197-.555-.541-1.707-1.23-2.262zM66.613 79.726c.732.328 1.205.891 1.464 1.735.043.47 0 .704-.302.329-.172-.704-.602-1.407-1.162-2.064zM71.549 102.555c.206-.419.98-.837 1.91-.502.413.083.361.502.361.795-.258-.21-.516-.46-.774-.21-.723-.46-.981-.209-1.497-.083zM69.5 102.74c.28 0 .489.14.489.418 0 .21-.21.35-.49.35-.209 0-.418-.14-.418-.35 0-.279.21-.418.419-.418zM67.575 102.782c.14-.042.35.125.489.334.07.21.07.419-.07.419-.14.042-.35-.084-.489-.335-.07-.21-.07-.418.07-.418zM68.468 101.918c.104 0 .313.14.418.418.105.21.105.419-.105.488-.104 0-.313-.14-.418-.418-.105-.21-.105-.419.105-.488zM68.813 96.584c-.043.04-.086.08-.086.12-.172.158-.344.277-.388.198-.086-.04-.043-.238.087-.397.085-.08.129-.119.172-.159-.043-.04-.043-.08-.087-.119-.042.04-.042.08-.085.12-.173.198-.388.317-.474.237-.086-.04-.043-.277.13-.476.042-.08.128-.119.171-.159-.043-.04-.043-.08-.086-.08-.172.2-.387.279-.473.24-.086-.08-.043-.279.129-.477 0-.04.043-.08.086-.08-.086-.079-.086-.119-.129-.158-.13.08-.215.119-.301.08-.043-.04 0-.2.129-.358-.086-.159-.13-.318 0-.397.258-.198.387.08.645.595.086.199 0 .318.13.437.086.159.344.238.43.357.3.437.258.794.215.834-.086.04-.043-.04-.215-.358zM68.231 97.07c.126.083.042.335-.167.586-.21.25-.419.376-.503.293-.125-.084-.041-.335.126-.586.21-.251.46-.377.544-.293zM74.784 94.562c.07 0 0 .252-.14.503-.139.25-.418.418-.558.376-.07 0 0-.251.14-.502.21-.251.419-.418.558-.377zM73.167 93.748c.084.049.042.442-.126.884-.209.393-.419.737-.544.688-.126-.049-.084-.442.125-.884.168-.442.42-.737.545-.688zM72.456 92.934c.14.058.07.401-.14.86-.209.401-.488.688-.628.63-.14-.057-.07-.4.14-.802.21-.458.489-.745.628-.688zM27.176 15.054c.141-.688.564-1.032 1.033-1.081l1.033.196c.375.295.329.393-.094.443-.845-.148-1.314.049-1.55.638-.328.492-.469.54-.422-.196zM30.769 17.26c.14 0 .349.14.349.419 0 .209-.21.418-.35.418-.209 0-.348-.21-.348-.418 0-.28.14-.419.349-.419z"/>
        <path fill="#FFF" d="M27.43 16.132c-.3.43-.215.908.302 1.481l.688.956c.603.477.904.382.818-.335-.086-.477.043-.669.43-.669.258-.047.43-.19.56-.43.086-.382.043-.573-.259-.669-.56.43-1.032.622-1.42.717.517-.382.904-.669 1.033-.908.13-.143.301-.19.56-.095 0-.239-.087-.478-.388-.573-.602 0-1.205.477-1.764 1.146.344-.812.86-1.29 1.635-1.29a.602.602 0 0 0-.215-.62 1.75 1.75 0 0 0-1.334.43l-.645.86zM30.42 22.192a20.745 20.745 0 0 1 3.968 5.466v1.79l-.574-2.032c.048 1.403 0 2.322-.143 2.032l-.478-2.903-.335 1.258-.287-1.79c-.239-.193-.287.92-.239 2.467-.43-.435-.382-1.693-.334-3.096l-.479 1.355c-.287-.726-.143-1.693 0-2.612-.287-.242-.478.241-.573 1.693-.335-.968-.24-1.742-.096-2.66l-.335.725-.095-1.693zM41.765 8.92c.511.394 1.21.492 1.907.492l.046.393c1.117 0 2.28-.54 3.443-1.376-.047-.05-.28-.098-.512 0-.837.442-.744.147.837-.688.233-.147.42.05.791-.098l1.024-.246c-.838.786-1.675 1.573-2.605 2.31-1.303.786-2.466.983-3.536.59a9.858 9.858 0 0 1-1.768-1.13c-.14-.247-.279-.394.373-.247zM48.935 9.041c.315 0 .524.21.524.419s-.21.418-.524.418c-.209 0-.419-.209-.419-.418 0-.21.21-.419.42-.419zM49.548 11.786c.21-.21.42-.28.629-.14.21.07.21.28 0 .419-.21.21-.524.279-.629.21-.209-.07-.209-.28 0-.49zM53.048 10.755c.21-.07.419-.07.489.07.07.139 0 .418-.28.488-.209.14-.418.14-.488-.07-.14-.14 0-.349.28-.488zM51.947 10.072c.209-.14.418-.209.488-.07.14.07.07.35-.07.489-.21.14-.418.209-.489.07-.07-.07-.07-.28.07-.489zM47.22 11.611c.21-.104.419 0 .489.21 0 .209-.14.523-.349.523-.21.104-.419 0-.489-.21 0-.209.14-.418.35-.523zM48.883 14.934c.21-.14.471-.14.524 0 .052.14-.053.349-.315.488-.209.07-.47.07-.523-.07-.053-.139.052-.348.314-.418zM43.36 11.831c.474-.038 1.12-.19 1.98-.535l.99-.42c.473-.191.56-.153.172.191-.43.382-.99.573-1.377.84-.387.23-.947.536-1.893.307-.474-.115-.302-.344.129-.383z"/>
        <path fill="#FFF" d="M46.393 10.834c.56-.563.904-.704 1.678-1.079.732-.328 1.463-.422 2.195-.422.516-.516.99.187.43.75-.172.188-.387.282-.602.423-.56.469-1.162.656-1.765.844-.774.234-.86.14-.215-.328.215-.188.388-.329.603-.47.473-.328.99-.422 1.463-.468-.732-.516-2.152.281-3.572 1.031-.43.235-.56.094-.215-.281z"/>
        <path fill="#FFF" d="M50.984 9.127c.268-.086.498-.043.804-.043.497.172.726.473.764.86-.114.387-.267.602-.497.688-.115-.688-.344-1.075-.688-1.204-.153-.043-.23-.043-.383-.043v-.258zM49.705 9.46c.21-.21.262-.314.472-.419v.628l-.42.209c-.209.105-.418-.209-.052-.418zM48.698 8.109c.407-.335.86-.628 1.404-.67a7.97 7.97 0 0 1 1.721.042c1.133.377.68.711-.045.46-.453-.251-.997-.209-1.63 0-.046.419-.816.084-1.27.377-.316.126-.362.042-.18-.21zM52.63 8.22c.418 0 .732.056.785.458.052.516-.053.917-.367 1.146.157-1.089-.314-.974-.419-1.605z"/>
        <path fill="#FFF" d="M53.203 8.744c.115.119.172.437 0 .952l-.459.596c-.115.278 0 .357.287.278.459-.199.688-.477.688-.874 0-.595.058-.873.345-1.071-.516-.595-1.033-.516-.86.119zM50.162 11.908c0 .382 1.32.459 1.491.038.287-.458-.23-.802-.057-1.261-.86.153-1.434.573-1.434 1.223zM50.368 13.714c.258-.423.672-.563 1.291-.516.465 0 .723.093.723.516 0 .422.052.89-.052 1.266-.155.375-.206.328-.722.375-.568 0-.775-.234-1.395.094.362-.797-.051-1.126.155-1.735zM52.016 11.98c-.21-.344.042-.473.252-.215.25.215.418.516.418.817.042.3-.293.559-.502.3-.21-.257.042-.515-.168-.902z"/>
        <path fill="#FFF" d="M51.979 13.624c-.172-.43.057-.473.746-.258.459.3.516.516.287.688.459.344.459.817.057 1.376-.287-.172-.631-.086-.86-.344-.058-.172-.23-.086-.115-.731.057-.258.057-.473-.115-.731zM53.048 17.26c.262 0 .419.21.419.419s-.21.349-.419.279a.413.413 0 0 1-.419-.419c0-.14.21-.279.42-.279zM49.863 16.508c.261 0 .47.21.419.419 0 .209-.21.418-.472.349-.262 0-.471-.21-.419-.419 0-.21.21-.419.472-.349z"/>
        <path fill="#FFF" d="M53.293 16.593c-.258-.444-.904-.755-1.85-.888-.603-.089-1.42.09-2.281.311-.473.533-.646 1.331-.56 2.397l.388.088-.344.267h.473l-.301.444.258.088-.215.577.258.178-.129.355.344.044-.086.355.258.045-.086.355.258.089c.172.266.474.488.818.71.258.133.516.133.818.088.516-.399.645-.754 1.075-1.242.13-.045.172-.31.172-.71.259-.133.345-.355.345-.666l.215-.31v-1.066c-.258.089-.43.133-.646.089l-.602-.266-.172 1.375c0 .267-.13.666-.43.533l-.732-.355c-.172-.089-.13-.355.086-.444l.258-.044V17.79c-.43.134-.903.178-1.334-.133-.172-.088-.344-.088-.516-.088a1.78 1.78 0 0 1 .473-.622l-.258-.4c.086 0 .258.045.387.045.603-.044.904-.133 1.076.044.172.178.301.311.473.4l.043-.31c.13-.356.388-.445.775-.311l-.086.887 1.377-.444v-.266zm-3.184 3.64a2.756 2.756 0 0 1 1.205 0c.688.177.731.443.086.843-.388 0-.818 0-1.248-.133.129-.222.258-.311-.043-.71zm.516.31c.172-.133.43-.133.689 0 .129.089.086.222-.043.31a.86.86 0 0 1-.474 0c-.129-.132-.043-.221-.172-.31z"/>
        <path fill="#FFF" d="M51.298 18.904c.21 0 .314.105.314.314 0 .105-.104.21-.314.21-.105 0-.314-.105-.314-.21 0-.209.21-.314.314-.314zM51.807 17.223c0-.105.104-.21.104-.366.524-.262.733-.419.733-.157 0 .21 0 .366-.104.523h-.733zM51.807 19.324c.07-.67.21-1.238.349-2.064h.488c-.07.568-.14 1.187-.419 2.167-.139.207-.278.103-.418-.103zM48.154 15.922c-.041-.306.294-.267.335 0 .084.535 0 .956-.293 1.223-.21.115-.502 0-.335-.23.293-.381.377-.649.293-.993zM47.773 18.672c-.08-.443.16-.59.239-.099.278 1.327.754 2.605 1.827 3.833.437.443-.04.836-.437.394-1.073-1.13-1.39-2.703-1.629-4.128zM51.859 22.918c-.052-.459.105-.918.576-1.319.314-.23.419.172.262.401-.314.402-.576.402-.838.918zM40.458 27.285c.043-.3.086-.516.258-.73a1.303 1.303 0 0 1-.301-.216c-.215.473-.517.86-.947 1.42.301-.904.603-1.592 1.248-2.28-.086.301-.172.56-.258.774.086.086.215.172.301.258.086-.086.172-.172.215-.258 0 .13 0 .258-.043.387h.043l-.043.13-.043-.044c-.086.215-.215.344-.43.56zM39.468 28.922c.105-.42.314-.698.733-.977-.105.488-.21.628-.733.977zM41.936 28.5c.07-.23.14-.46.21-.632l.139-.114c0-.058.07-.172.14-.23.139-.114.279-.286.418-.4-.07.687-.28.917-.907 1.375zM42.093 29.73c-.157-.419 0-.712.628-.963 0 .628-.052.795-.628.963zM42.758 29.496c.524-1.18.576-1.72.419-3.195.576 1.376.471 1.77-.419 3.195zM50.22 33.654c.222-1.016.31-1.983.266-3-.089.049-.133.049-.221.098-.045.532-.177 1.16-.443 1.934.133-.629.221-1.257.177-1.886-.089.048-.177.096-.266.096-.044.436-.177.92-.354 1.548a9 9 0 0 0 .133-1.499c-.133 0-.265.048-.398.048a27.222 27.222 0 0 1-.266 2.177c0-.726-.044-1.451-.044-2.128h-.443c0 .725-.088 1.45-.221 2.467-.044-.871-.044-1.694-.089-2.516-.132-.048-.265-.048-.442-.097 0 .775-.089 1.548-.222 2.613-.044-.92-.088-1.79-.088-2.66-.133-.05-.265-.097-.398-.146-.044.726-.177 1.451-.354 2.419 0-.871 0-1.645.044-2.516l-.398-.145c-.045.968-.133 1.838-.177 2.854-.133-1.258-.222-2.128-.133-2.999-.133-.048-.266-.097-.354-.193-.222 1.16-.31 2.176-.222 3.337-.31-1.5-.354-2.37-.044-3.434-.088-.097-.177-.145-.266-.194-.132.387-.354.823-.62 1.306.222-.483.31-.967.443-1.402-.132-.097-.31-.194-.442-.29-.089.628-.354 1.257-.797 2.128.575-1.548.62-3 .664-4.837.133.725.221 1.306.221 1.838.177.096.31.145.487.242.089-.823.133-1.597.133-2.516.221 1.064.31 1.838.177 2.564.133.048.266.145.398.145.044-.097.133-.242.222-.387l-.133.435c.088 0 .221.049.31.049.088-.29.133-.629.265-1.016 0 .387-.044.726-.044 1.113.133 0 .221.048.354.048 0-.242.044-.532.044-.823.089.34.089.581.133.871.133 0 .31.049.443.049v-1.113c.088.435.177.774.22 1.113.178.048.355.048.532.048 0-.387 0-.726.044-1.161.089.435.133.822.222 1.161h.442v-1.741c.177.677.266 1.209.31 1.693.133 0 .266-.049.398-.049 0-.387-.088-.822-.132-1.257.177.435.31.822.354 1.209.088 0 .177-.048.265-.048-.044-.436-.132-.871-.177-1.355.177.484.31.87.399 1.258.088 0 .177 0 .265-.049-.088-.677-.132-1.402-.265-2.224 1.018 2.756 1.018 4.014.088 6.82zM51.9 30.765l.188.456.658-.658c.187-.253.375-.202.516.152l.047-.81c.235-.151.423-.05.61.203.141-.203.141-.455.047-.759l.094-1.012c-.376-.657-.657-1.062-1.08-1.214.235.557.235 1.012.094 1.417-.047-.658-.328-1.113-.798-1.366.188.404.282.81.188 1.214a1.452 1.452 0 0 0-.47-.455l.094.607-.281.202.094 2.023zM56.861 27.123c0 .314 0 .524-.209.524-.21 0-.419-.21-.732-.524h.941zM55.83 27.123c.104.349.21.628.21.837h-.576a6.77 6.77 0 0 1-.315-.697c-.052 0-.052-.07-.052-.14h.733zM55.254 25.48c.157 0 .524.313.786.784h-.681c-.21-.418-.262-.785-.105-.785zM55.167 27.987c.07-.042.349.126.628.377.21.25.28.46.21.502-.07.042-.35-.126-.559-.377-.28-.25-.349-.502-.28-.502z"/>
        <path fill="#FFF" d="M53.557 27.18c.052-.057.314.23.576.631.21.459.314.803.21.86-.053.057-.315-.23-.577-.63-.21-.46-.314-.803-.21-.86zM38.645 25.48c.21.139.35.278.489.348l.349-.349c-.07.488-.21.628-.559.976.07-.209.14-.418.21-.558-.14-.139-.28-.278-.489-.418zM35.37 71.507l-.419.907-.418-.14.21-.767h.627zM20.549 92.284c.559-.23.688.046.86.734.474.459.775.826.775 1.192.99.872.817 1.239-.517 1.101-.43-.138-.688-.458-.688-1.1l-.43-1.927zM20.855 95.78c-.306.475-.23 1.07.153 1.547.23.278.497.357.765.357l-.153-.436.459.317c0-.238-.191-.516-.612-.833l.573.158c0-.317-.267-.595-.726-.833h.382c-.191-.556-.535-.715-.841-.278zM22.543 96.206c.28-.042.489.168.558.419.07.251-.07.46-.348.502-.21.042-.49-.167-.56-.418 0-.252.14-.503.35-.503zM32.065 64.042c0-1.376.688-2.71 1.574-4.042-.64 1.376-1.18 2.709-1.574 4.042zM35.113 55.708c-.536.215-.58-.215-.179-.516.848-.688 1.785-.945 2.856-.945h1.874c.714 0 .625.688-.044.645H38.28c-1.205-.044-2.187.3-3.168.816zM39.41 55.068c.421 0 .765.21.765.419 0 .314-.344.418-.765.418-.42 0-.765-.104-.765-.418 0-.21.345-.419.765-.419zM43.313 45.304c-.115-.099-.402.246-.803.688-.344.393-.574.786-.517.786.058.049.402-.245.746-.688.402-.393.631-.786.574-.786z"/>
        <path fill="#FFF" d="M40.511 48.137c-.22.413-.132.642.31.826 1.765.55 3.486-.046 5.207-1.055l2.163-1.055c.397-.505.309-.642-.22-.459l-1.06.55.265-.917a4.338 4.338 0 0 0-1.192 1.422l-.176-.459a1.75 1.75 0 0 0-.574.964l-.22-.505c-.222.138-.398.321-.53.596l.088-.642c-.177-.137-.442.184-.795.918l.177-.688c-.132-.138-.353.137-.662.825l.706-2.201c-.353.046-.838.871-1.368 2.339-.22.046-.31-.046-.265-.23l.795-1.605c-.398-.046-.84.55-1.369 1.605l.618-1.834-1.147 1.56v-.597c-.265.092-.53.321-.75.642zM40.458 78.417c-.167-.167.126-.335.21-.251l.502.46c.126.126-.167.335-.293.251l-.419-.46z"/>
        <path fill="#FFF" d="M40.395 78.448c-.104-.157.157-.366.262-.261l.524.523c.157.157-.158.366-.262.261l-.524-.523zM41.28 77.637c-.167-.167.126-.377.252-.251l.503.502c.125.125-.21.335-.294.21l-.46-.46zM41.31 77.028c-.197-.246.245-.59.492-.442l.885.884c.246.246-.345.64-.492.443l-.885-.885zM42.194 76.218c-.258-.258.086-.602.301-.386l.947.816c.258.215-.129.602-.344.43l-.904-.86zM43.004 75.384c-.246-.245.05-.59.295-.393l.935.786c.246.246-.148.59-.344.442l-.886-.835z"/>
        <path fill="#FFF" d="M42.988 75.368c-.23-.23.057-.573.286-.401l.919.802c.23.23-.173.63-.345.459l-.86-.86zM40.236 70.15c0-.287-.558-.172-.628.057l-.14 1.032c0 .23.629.115.629-.057l.139-1.032zM38.451 71.144c-.07-.46-.628-.23-.628.057l.14.802c0 .402.698.172.628-.057l-.14-.802zM37.837 71.908c-.104-.401-.628-.286-.628 0l-.104.746c-.105.401.732.229.732 0v-.746zM38.96 71.507c.209 0 .418.14.418.349 0 .21-.21.349-.419.349-.104 0-.314-.14-.314-.35 0-.208.21-.348.314-.348z"/>
        <path fill="#FFF" d="M37.35 72.329c.21 0 .349.21.349.418 0 .28-.14.419-.35.419-.209 0-.349-.14-.349-.419 0-.209.14-.418.35-.418z"/>
        <path fill="#FFF" d="M37.015 72.58c0-.251-.837-.251-.837-.042v.502c0 .252.942.21.942.042l-.105-.502zM46.468 37.808c.314 0 .523.157.523.366 0 .21-.21.419-.523.419a.45.45 0 0 1-.42-.419c0-.209.21-.366.42-.366z"/>
        <path fill="#FFF" d="M47.185 38.77c-.21 0-.314-.209-.314-.46 0-.293.105-.502.314-.502.21 0 .42.21.42.502 0 .251-.21.46-.42.46zM48.113 38.63c.262 0 .471.21.471.419 0 .104-.21.314-.471.314-.21 0-.42-.21-.42-.314 0-.21.21-.419.42-.419zM48.83 39.452c.21 0 .42.21.42.419 0 .314-.21.523-.42.523-.104 0-.314-.21-.314-.523 0-.21.21-.419.315-.419z"/>
        <path fill="#FFF" d="M48.775 39.452h1.592c.516 0 .602.258.258.731.172.86-.904 1.419-.86.043-.087-.258-.388-.387-.99-.387-.259-.086-.259-.344 0-.387zM46.468 50.137c.314 0 .523.14.523.349 0 .209-.21.418-.523.418a.45.45 0 0 1-.42-.418c0-.21.21-.349.42-.349z"/>
        <path fill="#FFF" d="M45.645 50.137c.21 0 .419.21.419.488a.45.45 0 0 1-.419.419c-.28 0-.419-.21-.419-.419 0-.279.14-.488.42-.488zM46.306 50.782c.61-.387 1.22-.645 1.314-.516.094.13-.328.559-.986.989-.657.387-1.22.602-1.361.473-.047-.129.376-.56 1.033-.946zM49.205 49.124c.393-.402.787-.63.836-.574.098.115-.196.517-.59.918-.394.344-.787.63-.836.516-.099-.115.197-.516.59-.86zM46.871 52.86c.145-.334.29-.669.484-.955l-.097-.048c.097-.573.533-1.004 1.114-1.29l.097.048c.193-.191.435-.335.726-.478-.145.239-.242.478-.388.669l.146.095c.338-.334.774-.62 1.258-.764-.29.382-.58.669-.92.955l.291.192c.436-.383.968-.67 1.404-.86-.339.334-.678.716-1.065 1.05l.339.192a3.635 3.635 0 0 1 1.452-.67 8.407 8.407 0 0 0-.678.574c.34-.095.726-.095 1.21-.143-.629.286-1.016.382-1.5.573l.387.239c.484-.287 1.017-.43 1.453-.43-.34.191-.727.43-1.114.621l.339.191a2.49 2.49 0 0 1 1.404-.286 7.182 7.182 0 0 0-1.065.477l.193.143a3.232 3.232 0 0 1 1.307-.286c-.387.143-.677.334-1.016.478l.29.143a2.262 2.262 0 0 1 1.114-.095c-.29.095-.581.143-.872.286l1.017.621-.194.096-1.549-.526c-.097 0-.145.048-.193.096 0-.048.048-.096.096-.144l-.387-.095c-.194.095-.436.239-.678.334.145-.19.242-.334.388-.43l-.388-.143c-.193.096-.435.239-.677.334.096-.143.242-.334.387-.477l-.387-.144c-.29.192-.533.383-.823.526.145-.239.29-.43.484-.621l-.533-.191c-.242.238-.484.43-.726.62.049-.238.194-.525.387-.716l-.484-.19c-.242.238-.532.477-.823.716.146-.287.29-.573.484-.812l-.774-.287a5.05 5.05 0 0 1-.92.812zM42.428 54.247c-.591 1.192-1.182 3.026-1.592 6.741-.227 1.652-.364 3.303-.045 5 .182.917.59 1.238 1 1.192l6.775-1.1c.5-.092 1-.505.773-.964l-.273-.55-.228.78-.363-.643-.273.734-.41-.917-.318 1.1-.409-.87-.227.916-.227-.78-.273.964-.319-.871-.272 1.054-.364-1.009-.273.734-.318-.596-.227.55-.319-.458a1.157 1.157 0 0 0-.954 0l-.137.229-.182-.23c-.5-.137-1.046-.229-1.546-.32l.637-.321c0-.23-.227-.321-.637-.276l.682-.504-.727-.138.682-.412c0-.184-.182-.367-.727-.597l.727-.229v-.183l-.727-.092.772-.367c.091-.184-.136-.321-.636-.505l.636-.183c-.045-.183-.09-.413-.545-.596l.545-.184-.545-.412.682-.276c0-.229-.091-.32-.5-.504l.727-.321c-.045-.138-.227-.367-.682-.505l.682-.229-.546-.367.637-.275-.5-.184.59-.366c.137-.138-.09-.276-.59-.321l.682-.276.045-.275-.636.092.318-.275-.41-.321.956-.23.09-.183-.681-.184.545-.32c-.09-.276-.272-.367-.545-.367zm1.045.963l.137-.046c-.591 3.256-.864 6.375-.41 9.172-.227-4.357.319-8.989 1.137-9.768l.137.32c-.955 3.486-1.046 6.605-.41 9.403-.409-4.77-.045-7.522.773-8.99v.459c-.636 3.348-.682 6.054-.09 8.255l.181-.137c-.409-3.486-.182-6.192.364-8.898l.318.046c-.636 3.532-.636 6.283-.181 8.806l.181-.184c-.363-3.623-.318-6.145.228-8.438l.272.045c-.5 3.486-.545 6.238-.09 8.485l.181-.046c-.363-3.806-.182-6.512.319-8.53l.182.183c-.364 3.027-.319 5.687 0 8.21l.181-.092c-.09-3.302-.272-5.916.137-7.843l.227-.275c-.318 2.431-.318 5.137.091 8.164h.182c-.318-3.577-.227-6.283.136-8.485l.182.138c-.182 2.89-.182 5.503.046 8.393l.182-.046c-.182-3.944-.046-6.65.363-8.256.364-.137.364.322.046.826-.228 2.385-.319 4.77 0 7.384l.273.046c-.273-3.807-.046-6.008.363-8.164.228-.23.455.046.182.596-.318 2.66-.5 4.54-.227 7.568h.318c.364.137.41.275.046.413-2.228.458-4.365.871-6.411 1.009-.41.046-.546-.184-.546-.78-.136-3.256.228-6.237 1-8.943zm7.502 1.88l.273-1.376c.319-.183.455-.092.41.275l-.592 1.147-.09-.046zm-.5-1.468c-.318 2.294-.318 3.67-.545 6.054l.181.413c.046-2.66.41-4.357.774-6.375.136-.367-.228-.459-.41-.092zm-.682-.091c.137-.184.364-.138.318.091-.363 1.973-.59 4.312-.636 6.972h-.136c-.137-2.569-.046-4.862.454-7.063zm-9.457 14.997a5.836 5.836 0 0 1 .318-2.293c.091-.321.41-.505.955-.55l6.093-.918c.318-.046.364.138.318.55-.09.597-.182 1.147-.455 1.606-.227.183-.272-.596-.227-1.789-.455 1.1-.273 2.247-1 2.43-.319-.504.182-1.467.273-2.2-.682.641-.455 1.421-1.046 2.247-.227.046-.182-.734-.046-1.972-.318.917-.59 1.65-.909 1.972-.182-.275-.182-.963-.136-1.697-.273 1.192-.591 2.018-.864 2.155-.091-.688-.046-1.33.045-1.972l-.136-.137c-.182 1.146-.364 1.834-.637 2.155-.227-.642-.273-1.376.091-2.11h-.272c-.182.597-.273 1.101-.546 1.285-.364-.046-.546-.459-.546-1.147-.318 1.284-.773 1.972-1.273 2.385zM52.155 57.709c-.372.277-.511.6.233.553-.512.462-.558.785-.14.923-.93 1.154-.93 1.477-.046.97-1.024 1.291-.884 1.476-.186 1.245-.884 1.061-.745 1.2-.465 1.246-.605.83-.605 1.246-.047 1.2-.465.184-.79.553-.884 1.292-.186.738-2.186 1.569-.512 2.26.512.278.93.97 1.257 2.17.14.645.418.692.976.46.466-.138.93-.184 1.396-.23.884.092.93-.877-.047-1.015.094-.37-.232-.554-.744-.323.419-.692-.093-.508-.279-.6.28-.138.233-.461-.512-.046l-.093-.23c.419-.14.558-.37.605-.647l-1.256.416c.372-.323.558-.554.512-.785l-.884.185c.93-.646 1.302-1.108 1.256-1.338l-.977.276c.698-.553 1.163-1.015 1.116-1.292l-.837.323c0-.276.372-.553 1.07-.738.558-.277.837-.646.744-1.153l-1.256.6c1.024-.923 1.861-1.754 2.094-2.308-.093-.323-1.117.37-2.466 1.477v-.23c1.303-.878 2.28-1.893 3.024-3.046l-2.466 1.892 2.233-2.63c-.14-.324-.79.046-2.047 1.338l.093-.277 1.164-1.246c.883-.508 1.442-1.154 1.814-1.938.232-.6-.558.184-1.768 1.246-.279.277-.605.415-.93.738l2.837-2.953.047-.37c-.28-.276-2.094 1.847-3.629 2.585zm-3.35 11.397c-.51-.323.047-1.061.42-.738l1.395 1.015c.419.323 0 .877-.325.646l-1.49-.923zm.56-.877c-.513-.323.092-.969.418-.692l.744.738c.419.37.14.693-.232.508l-.93-.554zm2.976 2.769c-.372-.185-.558.092-.325.277a8.747 8.747 0 0 0 1.954 1.245c.697.37 1.442.416 2.14.416.511 0 .744-.323.093-.462-1.21-.323-2.42-.692-3.862-1.476zm.373-.046c-.233-.277-.187-.508.14-.692l1.674-.139c.325 0 .605.185.884.554l.79.877c.326.415.047.738-.278.645a19.226 19.226 0 0 1-3.21-1.245z"/>
        <path fill="#FFF" d="M54.274 66.311c.282-.523.705-.904 1.315-1.142 1.596-.238 3.192-.57 4.694-1.141.47-.333.657-.238.61.285-.14 1.475-.328 2.712-.75 3.092v-2.569l-.188.048c-.141 1.284-.329 2.236-.658 2.616l.094-2.378h-.234l-.517 2.33.141-2.045c0-.285-.094-.333-.235-.19-.328 2.378-.75 3.377-1.22 3.71.47-1.522.47-2.569.375-3.472l-.14-.095c-.141 1.237-.329 2.426-.752 3.33-.469-.714.423-1.95.235-3.14h-.094l-.845 2.95c-.281 0-.187-.381.094-1.143l.094-1.664-.14.095c-.235.904-.47 1.57-.799 2.14l.141-2.188-.61 1.57.047-1.284-.658.285zm6.948-1.808c.047-.523.61-.38.376.143l-.282.666h-.14l.046-.809zm-.14 1.95c.046 0 .093.144.093.334 0 .19-.047.333-.094.333s-.094-.143-.094-.333c0-.19.047-.333.094-.333zm.234-.713c.094 0 .14.048.14.19 0 .096-.046.19-.14.19-.094 0-.188-.094-.188-.19 0-.142.094-.19.188-.19zm-.047-2.902c.14 0 .235.19.282.428.047.238.047.476-.094.476-.047.048-.188-.142-.235-.38-.047-.238 0-.476.047-.524zm-.704-1.38c.422.429.47.81.422 1.143-.047.475-.422.808-.422.475-.047-.428 0-.903-.329-1.475-.187-.237.141-.333.329-.142zm-3.427-.855c.047-.476.423-.096.423.19l-.141.76c-.141.144-.188.048-.329-.237l.047-.713zm-1.643 2.473c-.376.238-.376.428.047.571l.188-.047v.047c0 .19.094.333.188.333s.187-.143.187-.333v-.143l.423-.095v.952c-.141.047-.282.047-.47.095 0-.095-.093-.143-.14-.143-.094 0-.188.095-.188.19 0 0 .047.048.047.095-.094.048 0 .048.188.19l3.145-.713c.939 0 1.173-.714.939-1.855.14-.38.047-.523-.282-.476l-.704-.095.422-.285c.564-.286.564-.429.094-.429l-.986-.142.798-.143c.235-.047.329-.333-.047-.476l-.845-.095.658-.142c.422-.333.187-.571-.61-.666.28-.334.234-.571-.095-.571-.14-.333-.563-.571-.422.047l.188 3.14c.093.333-.047.57-.423.714l-2.3.475zm1.784-1.237c.14 0 .234.095.234.238s-.093.238-.234.238c-.094 0-.188-.095-.188-.238s.094-.238.188-.238zm1.878 1c.046 0 .094.047.094.095 0 .094-.048.142-.094.142-.047 0-.094-.048-.094-.142 0-.048.047-.096.094-.096zm-.188-.619c.188-.047.328 0 .375.095.047.143-.093.238-.281.286-.188.047-.329 0-.376-.143-.047-.048.094-.19.282-.238zm-2.16 2.045h.094v-.951l-.234.095.14.856zm.517-.142c.094 0 .14-.048.235-.048v-.904l-.423.095.188.857zm.563-.19c.047-.048.094-.048.14-.096v-.76l-.187.047.047.809zm.422-.19s.094 0 .141-.048c.329-.381.329-.571-.047-.667h-.094v.714zM65.021 20.65c-3.917-.32-5.804.913-6.843 2.192a6.392 6.392 0 0 0-1.463 3.7c.095.229.52-.274 1.133-1.05l-.378-.137c.095-.274.236-.503.425-.777.094-.137.094-.365.33-.502.284-.138.472-.412.472-.503h-.33c1.086-1.279 2.596-1.599 4.295-1.553.472.045.897.091 1.321.137.236.046.472-.046.614-.137.141-.092.189-.228-.047-.228-1.51-.229-3.02-.138-4.484.182 1.086-.685 2.643-.73 4.861-.64.897.046.944-.593.094-.685zm-6.843 24.395c.142.091.189.365.094.685-.094.274-.33.503-.471.457-.189-.046-.236-.366-.142-.64.142-.32.33-.548.52-.502zM54.78 46.37c.047 0 .142.228.142.456 0 .274-.095.457-.142.457-.094 0-.142-.183-.142-.457 0-.228.048-.456.142-.456zm.283 1.599c.142-.869.567-1.645 1.322-2.148.66-.457.802-.32.283.32-.472.594-.755 1.325-1.133 1.965-.141.274-.566.593-.472-.137zm1.982-3.473c-.66.229-1.18.64-1.51 1.234-.236.548-.141.594.283.183.425-.457.944-.731 1.416-1.097.19-.137.378-.457-.189-.32zm-4.058 3.061c-.33.412-.283.549.283.32.897-1.325 1.51-2.193 2.03-2.467l1.604-1.37c1.227-.274 1.935-1.554 2.171-3.701l-.095-.274c-.613 1.508-1.321 2.604-2.265 3.198-.85.594-1.557 1.325-2.218 2.193-.283.274-.283.594-.52.96-.282.365-.754.73-.99 1.141zm-.378-.96c-.283.503-.047.686.236.275 1.085-1.462 1.84-2.467 2.973-3.38 1.039-.777 2.549-2.193 3.162-4.066.378-1.097-.047-1.417-.33-.732-.613 1.645-1.321 3.107-2.454 3.975-1.274 1.005-2.643 2.147-3.587 3.929zm-.141-1.507c-.237.411-.284.731-.095.96.897-.32.614-1.69 2.832-2.787.283-.365.189-.503-.283-.365l-2.077 1.461c.708-1.096 1.416-1.964 2.454-2.192.66-.092 1.275-.366 1.841-.96.236-.502.142-.64-.236-.411-1.274.822-2.36 1.142-3.351 1.873-.897.731-1.51 1.645-1.746 2.695l.66-.274zm-.142-2.65c.378-.776 1.416-1.279 2.879-1.735.99-.32 1.793-1.005 2.501-1.828.755-.457.614-.045.378.457-.283.457-.472.594-.944.868-.566.457-1.416.868-2.077 1.142-.802.274-1.557.731-2.265 1.554-.425.32-.614.182-.472-.457zm2.218-2.603c.708-.411 1.321-.823 1.794-1.508.66-.914.944-.96.755 0-.19.777-.755 1.6-1.935 2.01-.991.366-1.275-.091-.614-.502zm2.974-2.102l.33-1.644c.047-.64.283-1.234.708-1.737l.519-1.37c.142-.548.378-.503.378.183l-.33.868c.282.137.14.41-.048.685-.047.32-.047.685-.378.777-.094 1.233-.236 2.238-.613 2.558-.566.685-.755.594-.566-.32zm-2.266-.228l.755-1.782c.189-.64.52-1.005.944-1.05l1.038-.96c.236-.274.378.091.236.32l-.755 1.188c-.141.959-.519 1.827-1.416 2.832-.189.183-.519.183-.33-.091l.897-1.736-1.133 1.507c-.33.411-.377.092-.236-.228zm-1.322.73c.425-1.096.567-1.69.992-2.055.519-.502.66-.457.33.137-.236.457-.566 1.096-.566 2.239 0 .913-1.18.73-.756-.32zm-.094-1.461c.047.365.094.274.283 0l.425-1.142c.472-.411 1.133-.868 1.746-1.6.284.412.803.046 1.605-1.004.991-.457 1.463-1.188 1.746-2.102.236-.777.095-.913-.424-.41-.756.958-1.322 1.324-1.605 2.009-.897.274-1.605 1.234-2.643 1.69-.283.183-.378.457-.378.823-.424.274-.708.73-.755 1.736zm.094-2.239c.095-.137.284-.183.378-.137.095.091.095.274-.047.411-.094.183-.283.229-.425.137-.047-.091-.047-.274.094-.41zm5.24-7.812a6.067 6.067 0 0 1 2.217-1.644c.897-.366.85.32.237.32-.472 0-1.133.41-2.219 1.735-.283.366-.613.046-.236-.41zm-6.23 9.32c-.142-1.645.236-2.604 1.038-3.152 2.17-1.28 2.926-3.152 3.634-3.107.708-1.188 1.793-2.421 3.067-3.563.945-.64 1.133-.503.614.502-1.369 1.873-2.737 4.112-3.964 4.751-.567.046-.991.366-1.322.869l.85-.412c.425-.045.472.091.188.366-.707.365-1.887 2.147-2.17 1.005-.472.868-1.275.73-1.322 1.599l-.095 1.142c-.188.32-.33.32-.519 0zm8.4-11.97c.425.046.614.183.284.549-1.039.411-2.03 1.187-2.974 2.284.095.411-.094.777-.566 1.05 0 .686-.425 1.006-1.133 1.097l-1.038 1.28c.236.319-.142.822-.897 1.553-.472.502-.66.365-.566-.457.566-1.508 1.652-3.7 2.17-3.7.284 0 .284-.092.378-.595.047-.365.425-.274.33 0-.046.366.048.412.284.138 1.18-1.873 2.454-2.833 3.728-3.198zm-3.162.458c.85-.96 2.313-1.6 5.05-1.554.567.046.472.594-.047.549-.425-.046-.897.136-1.321.228-.52.137-1.086.182-1.558.457-.944.502-1.793 1.325-2.549 2.467-.283.137-.33.045-.188-.274.944-1.645 2.076-2.513 3.256-2.605l.047-.09c-.66-.138-1.463.136-2.643 1.187-.141.137-.188 0-.047-.365zm1.039-1.417c1.038-.64 2.218-1.005 3.586-.822.85.091.85.594.378.548-1.321-.182-2.596-.137-3.87.457-.472.229-.378 0-.094-.183zM65.312 19.627c-.344-.465-.098-.723.492-.671 1.525.31 2.852.516 3.688 1.238.492.361.099.722-.245.464l-1.033-.567c.049.464-.344.258-.935-.258-.393.413-.885.206-1.426-.413l.344 1.032c.05.206-.147.206-.246.052l-.639-.877zm2.115.825c-.197.155.05.516.197.67.196.207.442.104.344-.206-.05-.31-.344-.619-.541-.464zM71.22 21.23c-.135-.09-.45-.227-.045-.317-.449-.272-.27-.634.045-.68 1.212-.044 2.155-.723 3.547.046l.629.724c.404.95.045 1.403-.494.724-.27-.407-.045-.77-.718-1.086.359.68.628 1.358.628 2.128 1.033.995.09 1.221-.18.588l-.404-1.856c.09.905.135 1.584 0 1.584-.314 0-.134-.634-.269-1.403-.09-.317-.18-.905-.36-.95-.762-.272-1.481-.046-2.065 0 .988-.046 1.662 0 1.886.271.314.453.36.95.225 1.403-.225.363-.36.272-.36-.18l-.134-.589c-.045-.317-.404-.362-.898-.317-.315.045-.674.136-1.033-.09zM57.845 56.03a49.118 49.118 0 0 0 5.184 6.943c.233.274.047-.548.233-.228.42.868 1.074 1.69 1.355 1.964.28-.228-.607-1.005-.748-1.919l2.662 3.016c.234-.412-1.307-2.193-2.568-3.747l.187-.182 3.035 3.883.14-.046c-.467-1.28-1.868-2.832-2.802-4.248l.094-.32c.56.685 1.307 1.736 1.914 2.604.888 1.233 1.682 2.33 1.915 2.421 1.121.274-2.662-3.61-4.39-6.852l.047-.183c2.055 3.06 3.876 5.847 5.884 7.126.234.137.42-.137.187-.41-1.821-2.102-3.97-4.386-5.277-6.442l.093-.183c1.962 2.284 2.99 4.888 6.725 7.081.234.137.374.366.607.183.84-.64-3.222-1.6-6.351-6.762l.047-.365c1.167 1.553 1.354 2.01 2.428 3.107 1.495 1.598 3.83 3.471 4.203 3.198.374-.32-3.362-2.833-5.37-5.894l.093-.091c1.588 2.147 3.83 4.75 7.099 6.396.466.228.28.182.84.182 1.448.092-3.222-2.238-5.65-4.842l.046-.228c.7.593 1.588 1.37 2.569 2.147a39.194 39.194 0 0 0 3.362 2.101c.887.457 1.588.731 1.915.594.84-.411-3.222-1.827-4.25-2.878.607.32 1.214.548 1.728.776 1.775.868 3.035 1.462 3.316 1.143.187-.229-.747-.731-2.382-1.325-.187-.183-.047-.229.42-.137 1.868.73 2.942 1.233 3.176 1.096.607-.183-.374-.594-1.495-1.279 1.402.594 2.616 1.142 3.27.96.233-.046-.794-.595-1.682-1.371 1.261.776 4.25 1.827 1.401-.137l.187-.092c1.074.777 2.428 1.097.794-.182h.234c.934.73 1.447 1.279.747-.229.934 1.325 1.868 1.828.607-.091l1.448 1.096c-.514.229-.467.366 0 .64 1.214.776 1.307.64 1.074 0 .14-1.234-.327-2.056-1.168-2.558-.934-.594-.887.091.187 1.736a4.125 4.125 0 0 1-.98-1.051c-.188-.366-.608-.594-1.075-.594-2.195.046-4.343.457-6.398.73-1.588.23-2.802 0-3.362-.365-.56-.456-.748-.64-.467-1.142.186-.41 0-.73-.28-.868l-1.495-2.923c.187.32.42.457.607.73.607.96 1.027 1.736 1.168 1.69-.234-.639-1.028-2.055-1.635-3.654 1.168 2.01 2.195 3.746 2.475 3.518-.14-.777-1.074-2.284-2.008-3.838.28.274.374.366.56.594.374.457.7.868.888.777-.747-1.508-1.541-2.467-2.382-2.741-1.307-.457-2.101-.64-1.915.182l-.653-.73-.7-.092c-.234.091.092.457.56 1.234l-.14.09-.795-1.233c-.233-.137-.56-.274-.607 0l.42.823-.887-.96c-.42-.228-.887-.32-.887-.137l1.308 2.102c-.234-.32-.607-.64-.934-1.097-.514-.685-.934-1.187-1.541-1.279-.607-.045.607.914 1.447 2.878l-2.008-2.832c-.187-.137-.98-.274-1.027 0l2.335 3.29c-1.074-1.188-2.149-2.194-2.756-3.336-.14-.137-.28-.137-.42-.137-.093-.045-.187 0-.28.092l2.849 3.609c-.56-.503-1.121-1.051-1.542-1.553-.607-.823-1.167-1.371-1.634-2.102-.187-.228-.56-.137-.607-.046-.234.32 2.148 2.696 3.176 4.112-1.448-1.325-2.57-2.604-3.597-4.112-.466-.228-.793-.228-.933 0-.14.274 2.895 3.107 4.063 4.888-1.588-1.644-3.13-3.197-4.39-4.888-.187-.228-.748-.228-.748 0 0 .457 2.616 2.787 4.717 5.62-1.541-1.645-3.409-3.838-4.203-4.295-.374-.046.934 1.553 3.923 4.888a39.576 39.576 0 0 1-4.11-4.248c-.373.32 1.261 2.33 3.643 4.888l-3.736-3.838c-.514-.32-.607-.274-.327.183zm15.878-.869c-.327-.457.14-.685.514-.137.747 1.233 1.448 2.284 1.961 3.472.234.548-.093.685-.327.183-.607-1.325-1.354-2.376-2.148-3.518zm-1.447-.457c-.234-.365.373-.594.84.046 1.074 1.462 2.008 2.924 2.755 4.431.42.914 0 1.142-.42.32-.887-1.782-2.055-3.335-3.175-4.797z"/>
        <path fill="#FFF" d="M65.921 23.195c-.046.821.416 1.87 1.294 2.555 0-.137-.416-.776-.693-1.323-.277-.639-.416-1.14-.6-1.232zm2.866 28.473c-.093-1.324-.832-2.282-2.311-3.377.046.32.97 1.095 1.525 2.053.555.913.555 1.141.786 1.324zm-.047-1.37c-.184-.136-.323-.638-.785-1.368-.462-.776-1.248-1.552-1.294-1.78 1.201.867 1.987 2.099 2.08 3.149zm-.184-1.733c-.139-.137-.278-.502-.601-1.05-.37-.593-.97-1.186-1.017-1.369.97.64 1.572 1.552 1.618 2.419zm-.185-1.78c0-.593-.462-1.232-1.11-1.597.047.137.417.502.694.913.231.365.323.593.416.684zm-.693-25.005c-.232.776 0 1.871.739 2.784.046-.183-.231-.867-.416-1.506-.139-.593-.185-1.186-.323-1.278zm-8.181 29.386c-.694.045-.832-.092-.879-.776.324.32.601.456.879.776zm-.925-1.187c.463.456.925.73 1.387 1.232.231.091.462.091.693-.091-.74-.776-1.433-1.232-2.218-2.008.046.274.092.593.138.867zm-.185-1.278c.971.959 1.71 1.552 2.589 2.465.277.136.462.136.6 0-1.062-1.324-2.033-2.328-3.096-3.65-.093.41-.093.82-.093 1.185zm.185-1.46c1.202 1.37 2.357 2.556 3.605 4.061.37.183.647.183.786.046-1.201-1.551-2.727-3.24-4.113-4.928-.093.228-.139.41-.232.593-.046.092-.046.137-.046.228zm.324-1.14c1.571 1.78 3.004 3.376 4.668 5.338.231.137.462.137.647.046-.185-.183-1.294-1.506-1.479-1.734-1.34-1.642-2.126-2.51-3.651-4.335a3.77 3.77 0 0 1-.185.685zm.277-.958c1.664 1.825 2.265 2.646 4.068 4.745.184.274 1.155 1.232 1.34 1.46.23.456 1.017.456.647.137-.324-.365 0-.091-.462-.684-1.48-1.78-3.93-4.7-5.408-6.525-.046.319-.139.593-.185.867zm.231-1.096c.046-.273.093-.502.139-.73 1.386 1.734 4.113 4.974 5.685 6.89.832 1.004.786.959 1.248 1.46 0 .229-.185.137-.509.046-.416-.456-.37-.41-.785-.958-1.941-2.236-4.068-4.837-5.778-6.708zm.139-.958c.092-.32.092-.684.139-1.003 1.479 2.28 3.605 4.7 5.962 6.844-.185-.913-3.143-3.422-4.946-5.795a22.16 22.16 0 0 1-.924-1.734c.046-.274.046-.502.093-.821 1.247 2.51 3.235 4.836 6.008 7.21-.324-.822-3.19-3.104-4.714-5.522-.555-.958-.971-1.734-1.202-2.373v-.41c1.248 2.464 3.42 5.019 6.008 7.209-.277-.821-3.235-3.194-4.668-5.521a20.146 20.146 0 0 1-1.248-2.418v-.457c1.202 2.373 3.883 5.567 6.332 7.666-.277-.776-3.605-3.65-4.991-5.886-.601-1.05-1.017-1.871-1.248-2.51v-.639c1.017 2.373 3.605 5.521 6.147 7.575-.277-.776-3.467-3.377-4.76-5.521-.694-1.141-1.064-2.008-1.295-2.647 0-.228 0-.502.047-.684.878 2.418 3.327 5.338 5.916 7.3-.278-.684-3.236-3.057-4.437-5.064-.786-1.324-1.156-2.19-1.434-2.83 0-.273 0-.501.047-.775.74 2.373 3.05 5.247 5.639 7.255-.185-.685-2.959-2.83-4.16-4.746-.878-1.46-1.156-2.418-1.433-3.057V33.6c.046-.274.046-.594.093-.867.508 2.372 2.727 5.43 5.36 7.528-.184-.593-2.726-2.737-3.789-4.517-1.017-1.688-1.248-2.692-1.571-3.24.785-6.57 3.605-10.449 7.718-11.133l.093.045c-.139.776 0 1.734.462 2.647.092-.183-.139-1.095-.185-1.87v-.685l.37.09c.046.913.37 1.78.785 1.872-.323-.502-.37-1.14-.37-1.689l.509.137c0 .959.324 2.008.786 2.054-.416-.548-.416-1.278-.37-1.871l.092.045c.093.365.232.73.416.913.185-.228.093-.684-.046-1.186.508-.274 1.11-.228 1.756.182.232.274.14.41-.184.41h-.324l.74.32c.046.092.184.183-.232.229l-.277.228.97.09c.324.138.278.23.186.366l-.232.274c.832 0 1.71.182 2.774.73-.047.365-.463.32-1.248-.092.185.457.924.502.878.776-.093.502-1.202.046-1.71.685l1.248.045c.277.183.185.32-.231.32.647.775 1.155 1.004 1.34.456.185-.41.37-.41.555 0 .785.456.924.502.462.593l-.74.137.878.137c.231.091.231.274.093.41-.6.092-.647.183.462.229.462.228.647.456.462.639-.97.045-.924.182.231.273.278.137.37.32.324.457-.6.136-.509.273.23.273.093.137.186.228.047.365-.693.183-.6.274.278.274.046.32.554.274.739.685.74-.137 1.063.365.416.365l-.046.137c1.063.045 1.525.319 1.386.958-.092.274-1.525-.548-.924 1.642l.23.228c.417.092-.045-1.003.648-.912.092.046.185.365.046.912-.138.502-.462.73-.97.411-.462-.32-.74-.639-.694-1.004l.047-.684c-.509.046-.601-.274-.647-.776 0-.091-.185-.045-.14-.182-.831-.137-1.2.137-1.432.73-.046.228-.231.045-.323-.183.046-.137-.278.046-.463-.045-.138 0-.092-.32-.23-.274-.093 0-.093.137-.278.137-.139-.046-.092-.365-.37-.091-.185.182-.23.182-.277-.092.046-.228.231-.684-.277-.045-.185.09-.232.09-.324-.137-.277-.776-.462-.822-.555-.137-.138.274-.277.32-.277-.091-.277-1.187-.323-1.187-.23-.046-.047.502-.186.456-.463-.137-.324-.958-.462.091-.693-.365-.324-.548-.093-1.323-.647-1.551l.323 1.597c0 .228-.37.273-.416-.092-.185-1.05-.878-2.874-.74-2.281l.417 2.19c.046.183-.463.091-.555-.182l-.555-2.738c-.138-.776-.138 1.46.185 2.418 0 .137-.37.137-.323-.045 0-.229-.416-2.83-.555-2.693-.323.32.555 2.92-.139 2.51-.092-.046-.323-2.647-.416-2.692-.046 0 0 2.51-.092 2.464-.74-.913.046-3.377-.462-3.513-.093 0-.324 3.01-.416 2.92.323 2.327 2.218 2.418 2.08 3.103l-1.34-.685c.37.685.924 1.415 1.293 2.19-.415.137.047.685.324.959-.416-.046-.324.228.462.958.185.137.231.273.185.41-.97-.228-1.063-.228.508 1.004-.97-.137-1.016-.045.093.685.185.137.416.41.462.684.046.183-.139.091-.231.091-.185-.09-.462-.273-.555-.319-.277-.046-.092.32 1.202 1.277.324.274.462.502.231.594-1.571-.958-1.479-.73.231.73.416.639.463.912.324 1.004-1.387-1.141-2.311-1.871.092.501.416.411.509.685.185.73-2.403-1.779-1.11-.593.508 1.05.093.091 0 .228-.092.183-2.31-1.689-2.403-1.278.046 1.232.093.228.231.41.139.593-.046.09-.231 0-.324-.046-1.664-1.551-1.525-1.232.37 1.323.277.41.416.776-.046.548-2.08-2.327-2.727-2.829-.046.73.277.456.323.684-.047.547-1.895-2.555-1.94-2.235-.092.502.139.32.139.365 0 .32-1.71-2.054-2.218-2.555-.092.456.277.548.23.639-.047.365-2.08-2.555-2.125-2.236-.092.41.185.32.277.503-.046.366-2.404-2.692-2.404-2.601-.093.32.047.73.047.684-.416.319-.23-.274-.23-.502-.462-.73-1.479-1.78-1.664-1.643.093.638-.185.183-.416.183-.694-.045-1.525-1.962-1.664-1.962-.462-.092l-.832-.137c-.138-.273-.277-.41-.462-.592-1.433-1.37-1.941-1.506-.509.273.047.046-.092.092-.046.137l-1.617-.274c-.185 0-.416-.09-.601-.319-.693-1.186-1.11-1.643-2.265-2.738.093.41.97 1.14 1.664 2.282.185.73-.647.41-.924.273-.509-.684-.694-.775-1.433-1.642-2.08-2.419-4.299-5.156-6.101-7.073zm5.592-19.164c.139.091.324.684.694 1.369.37.73.924 1.414.97 1.643-1.109-.867-1.71-2.054-1.664-3.012zm-.693.73c.185.183.324.776.74 1.597.462.822 1.201 1.643 1.201 1.916-1.201-1.003-1.94-2.372-1.94-3.513zm-.647.821c.231.183.37.867.878 1.78.509.912 1.387 1.87 1.433 2.145-1.433-1.096-2.31-2.647-2.31-3.925zm-.554.822c.046 1.414 1.063 3.148 2.634 4.38-.046-.32-1.11-1.369-1.664-2.418-.6-1.004-.74-1.734-.97-1.962zm-.509.867c.092 1.551 1.202 3.422 3.004 4.836-.092-.365-1.294-1.551-1.94-2.692-.648-1.14-.833-1.916-1.064-2.144zm-.462.867c.138 1.688 1.386 3.741 3.328 5.247-.093-.41-1.48-1.643-2.173-2.92-.74-1.232-.878-2.054-1.155-2.327zm-.462.867c.185 1.87 1.617 4.06 3.697 5.703-.092-.456-1.617-1.825-2.45-3.194-.739-1.323-.924-2.19-1.247-2.51zm-.37.867c.185 2.007 1.756 4.38 4.021 6.16-.139-.502-1.803-1.962-2.68-3.423-.833-1.46-1.017-2.372-1.341-2.737zm-.324.912c.185 2.145 1.895 4.7 4.345 6.616-.185-.547-1.987-2.144-2.958-3.741-.924-1.552-1.063-2.51-1.387-2.875zm-.37.867c.324 2.282 2.265 5.202 4.854 7.255-.185-.593-2.311-2.464-3.328-4.152-.97-1.688-1.156-2.647-1.525-3.103zm6.101-8.989c.14.046.324.548.509 1.05.185.456.462.958.462 1.095-.74-.594-1.063-1.46-.97-2.145zM78.91 34.602c-.509-.502-.832.091-.139.73.6.548 1.248.366 1.063.183l-.924-.913zm-3.744-5.658c-.093 0 .046.548.092.822 0 .273.093.456.278.684.184.228.277.274.23.182-.184-.501-.37-.958-.415-1.368 0-.183-.093-.274-.185-.32zm-.647-.684c-.092 0 .046.639.046.958 0 .274.093.548.277.821.185.228.278.32.231.228-.184-.638-.37-1.14-.37-1.642-.045-.228-.138-.32-.184-.365zm-.693-.685c-.093-.045.046.685.046 1.05s.046.684.277 1.004c.185.273.278.365.231.228-.139-.685-.37-1.278-.37-1.871 0-.274-.046-.365-.184-.41zm-.648-.684c-.092-.091 0 .776 0 1.186-.046.41.047.73.232 1.141.23.32.323.41.277.274-.139-.822-.324-1.506-.324-2.145 0-.32-.092-.41-.185-.456zm-.647-.73c-.092-.046 0 .913-.046 1.369-.046.456.046.821.232 1.232.184.41.323.502.277.365-.139-.913-.324-1.688-.277-2.419 0-.319-.093-.456-.186-.547zm-.693-.685c-.092-.09 0 .959-.046 1.506-.046.457 0 .913.231 1.37.185.455.277.547.277.41-.138-1.004-.323-1.871-.277-2.692.046-.365-.046-.502-.185-.594zm-.6.046c-.047-.091-.047.776-.093 1.186-.046.411 0 .776.185 1.141.138.365.23.456.23.32-.092-.822-.23-1.506-.184-2.145.046-.32-.046-.41-.139-.502zm-.509 0c-.092-.046-.092.639-.139.958-.046.274-.046.548.093.867.138.32.184.365.184.274-.046-.639-.138-1.186-.046-1.688.046-.228-.046-.32-.092-.41z"/>
        <path fill="#E2B700" d="M22.609 9.225a211.14 211.14 0 0 1 4.15 5.237c0 .321-.14.505-.508.505-1.521-2.16-2.674-3.905-3.827-5.558-.23-.322.047-.368.185-.184zM29.57 21.03c.138.368-.139.551-.415.184-.6-.69-.462-1.562.184-2.343.692-.827 1.568-.827 2.351-.23.462.368.323.414-.23.414-1.568 0-2.167.78-1.89 1.975zm1.613-.735c-.645-.23-.83.046-.691.735 9.22 12.954 23.19 31.88 39.65 54.206l-.092.322 1.383.781-.46-1.838-.278.184c-12.678-17.64-27.386-38.404-39.512-54.39z"/>
        <path fill="#0092D0" d="M54.1 23.505c0-.322 1.203-1.151 2.774-2.21.694-.553 1.341-.737 1.942-.737.185.046.462.092.832.046.37.23.231.415-.185.507-.185-.138-.37-.184-.555-.092-.416.092-.462.368-.739.46l-.185-.276c-.555.368-.925 1.381-1.34 1.888l-.093-.507c-.278.046-.462.645-.878.967.046-.368-.047-.552-.185-.552-.694.46-1.202.69-1.387.506zM35.749 47.632c.416 0 .786.138.786.276 0 .184-.37.323-.786.323-.462 0-.832-.139-.832-.323 0-.138.37-.276.832-.276zm3.144-.645c.277-.414.6-.598.693-.506.092.138-.046.552-.277.92-.277.415-.601.645-.694.507-.092-.092.047-.506.278-.92zm-1.017.553c.185-.322.416-.507.508-.415.093.093 0 .415-.185.737-.23.323-.462.507-.555.415-.092-.092 0-.415.232-.737zm-.925.184c.185-.276.37-.414.416-.368.093.092 0 .368-.139.644-.184.23-.37.369-.462.323-.046-.092 0-.369.185-.599zm-15.394-3.269l-.185.506c.232.046.416-.276.647-.414l-.184.829c.277.046.924-.645 1.386-.967l-.323.829c.416 0 .693-.599 1.017-.921l-.185.875c.508-.047.832-.69 1.248-1.06l-.092.83c.37-.047.647-.553 1.017-.875l.185.598c.323.046.508-.414.785-.598l.14.552.693-.69.138.598.786-.276.231.322.647-.322-.046.69.879-.368.092.46.647-.368v.599l.74-.185.046.553 1.11-.46-.37.829.97-.6-.138.646 1.063-.461-.601.967c.694.046.925-.46 1.387-.69l-.324.874c.694-.138 1.295-.69 1.896-1.427.139.23.046.598-.463 1.381.74-.322 1.11-.829 1.387-1.381l-.23.967c.461-.046.924-.415 1.34-1.06l-.047.922c.37-.277.648-.645.832-1.106.463.185.971-.092 1.156-.828.278-.69.093-.921-.508-.69-1.988 1.38-4.623 1.749-8.506.598-2.497-.691-5.085-.783-7.674-.875-1.156-.046-2.127.138-2.589 1.197zm5.871-9.9c.185-.322.555-.598 1.017-.874l.093.414 1.11-.368.092.368 1.201-.645c-.693.875-.832 1.244-.6 1.244.184 0 1.063-1.013 1.34-.737-.6.92-.046.645.971-.184.278.092-.37.736-.277.829.092.092.462-.185 1.201-.691.185-.138.602-.599.694-.368.046.276-.231.414-.37.598-.74.875-.555.737.74-.092.185-.092.462-.322.647-.23-.878 1.15-.508.92.786.138.185-.092.416-.414.647-.184-1.618 1.427-1.34 1.611.74.598-.971 1.105-.74 1.151.786.185.138-.047.323 0 .508-.093-.693.691-.786 1.198-.462 1.013.508-.23 1.155-.506 1.479-.414-.647.645-.6.92.231.783.278.092 0 .414-.832.967-.138.23-.277 0-.416-.553-.092.322-.231.322-.37.138l-.185 1.197-.277-.045v-.691c-.139-.185-.278-.185-.416 0l-.231.92-.416-.23c-.139.323-.324.645-.647.875-.278-.368-.463-.276-.555.046-.185.046-.278-.092-.463-.046-.138.415-.277.507-.508.23-.37.23-.693.46-1.063.83l-.185-.461c-.324.46-.601.737-.786.644l-.324-.322-.508.829-.832.23c0 .23.323.23.878.138.74-.092 2.173-.414 3.097-.69.925-.277 1.942-.415 3.051-.875.879-.415 1.896-1.151 2.913-1.658.231.184.046.645-1.895 2.164l-.925-.276.508.69c-.23.231-.416.323-.647.277l-.832-.414.277.874c-.6 0-.878-.736-1.433-.414l.232.69-1.249-.368.231.829-1.063-.46-.231.46c-.324 0-.509.092-.555.23 2.45.415 5.132-.46 7.906-1.795.138-.046.184.046.184.276-.23 1.105-1.017 2.072-2.265 2.947l.37-1.474c-.832.368-1.757 2.164-2.45 2.394l.74-1.933-2.173 1.795c-.185-.23.092-.736.555-1.381-.648 0-1.757 1.52-1.942 1.427-.462-.23.37-.69.555-1.013-.601-.046-1.017.507-1.526.783-.046-.276.277-.598.832-1.105l-1.803.829c0-.322.694-.599.832-1.059-.832.552-1.571.92-1.756.875l.555-.875-1.572.829.97-1.013-1.664.782.463-.874-1.202.782.508-.966c-.601.506-1.155.828-1.48.828.325-.414.556-.737.51-.967-.555.46-1.11.783-1.341.783l.231-.783c-.462.46-.97.783-1.526.967l.555-.92c.093-.139.046-.323-.139-.185l-1.248 1.013c.278-.506.416-.829.231-.967l-.878.46.093-.506-1.017 1.105c-.14-.046.046-.322.185-.828l-1.064.69c.555-1.105 1.48-1.842 2.728-2.21 1.479-.46 2.635-.506 3.559-.645 1.618-.23 2.635-.368 3.93-.967.6-.23 1.294-.506 2.034-1.105.37-.276.23-.368-.185-.322l-1.664.092v-.737l-.648.875-.138-.875-.555 1.52-.231-1.75-.416 1.888-.231-1.842-.694 2.118-.185-2.21-.416 2.256-.416-2.302-.277 2.302-.462-2.164-.185 2.072-.601-2.118-.047 2.21-.693-2.118-.139 1.888-.462-1.842-.185 1.658-.37-1.52-.23 1.658c-.694-1.289-.972-2.348-.51-2.947.694-.782 1.619-.967 2.543-.828zm5.27-5.018c.139 0 .278.184.37.506.092.322.092.599.046.599-.138.046-.277-.185-.37-.507-.092-.276-.092-.552-.046-.598zm-4.715-.553c.693-1.059 1.248-1.381 1.618-.552.462-1.474.97-1.612 1.618-.323.878 0 1.063 1.336.924 3.316l-.832-2.21v1.427c-.554-2.44-4.114-1.013-3.328-1.658zm15.348-8.011c1.017.092 2.034.46 3.005 1.013.046.138.092.23-.093.138-.37-.276-.693-.415-.97-.415.092.415.046.599-.14.553-.37-.645-.693-.737-.97-.599-.093.046-.139.092-.232.046-.277-.598-.415-.598-.554-.368-.277-.23-.277-.368-.046-.368zm-5.224.276c-.231.138-.231.23-.046.276.323-.276.647-.322 1.063.092 0-.598.23-.552.74.184-.186-.736 0-.92.785.185 0-.599.047-.691.555.322.139.184.277.184.324.092-.277-1.059-.139-1.013.462.092.185.23.277.23.277.092-.046-.736.278-.598.971.415.185.23.278.322.324.092-.139-.599.138-.553.74.184.462-.046 1.109.322 1.94 1.059.094.138.186.184.278.138-.462-.829.093-.507.833 0 .462-.23.508-.368.23-.46-1.571-.553-2.866-1.151-3.79-1.842-1.063-.829-1.526-.599-2.774-1.382-1.063-.46-2.034-.23-2.912.46zm-2.265 1.473c-.555.185-.555.415-.046.507.23.046.416.046.6 0 .324-.046.463 0 .602.276.23.46.508.645.739.506.139-.138-.878-.874-.37-.874h.277c.786.736 1.526 1.15 1.48 1.013l-.324-.83c-.092-.275.324-.137.509.047l1.063.92c.139.185 0-.137-.185-.736-.092-.184.185-.184.37 0 .647.645 1.433 1.75 1.433 1.335v-.414c0-.184.231-.184.37 0 .37.46.878.875.832.69l-.092-.368c-.047-.23.138-.23.416 0l1.11.921c.23.184.415.092.323-.046l-.185-.276c-.139-.23-.047-.276.231-.092l.97.69c.185.138.185-.046-.092-.46h.555c.092.322.324.414.878.644.139.093.185-.092.462-.184l1.341-.414c.416-.138.37-.414 0-.322-1.941.506-3.975-.46-6.148-1.658-2.866-1.52-5.178-1.52-7.12-.875zm19.046 1.06c.092.091 0 .23-.14.414-.138.138-.323.184-.415.138-.046-.092 0-.276.139-.415.185-.138.323-.184.416-.138zm1.479.368c-.324-.23-.462.322.092.138l.786-.69c.37-.645.139.183.37.137.278-.092.693-.92.601-1.243l.647-.322c.37-.322.278-.46-.231-.415-.6.46-1.202.967-1.71 1.658l-.555.737z"/>
    </g>
</svg>
