<?xml version="1.0" encoding="utf-8"?>
<!-- Generator: Adobe Illustrator 25.0.0, SVG Export Plug-In . SVG Version: 6.00 Build 0)  -->
<svg version="1.1" id="Слой_1" xmlns="http://www.w3.org/2000/svg" xmlns:xlink="http://www.w3.org/1999/xlink" x="0px" y="0px"
	 viewBox="0 0 200 140" style="enable-background:new 0 0 200 140;" xml:space="preserve">
<style type="text/css">
	.st0{fill-rule:evenodd;clip-rule:evenodd;fill:#424242;}
	.st1{enable-background:new    ;}
	.st2{fill:#424242;}
	.st3{fill-rule:evenodd;clip-rule:evenodd;fill:#A6835B;}
</style>
<g id="Logo-_x2F_-Hotel-Russo-Balt-Ethnographic-Village-">
	<g id="Combined-Shape" transform="translate(70.000000, 0.000000)">
		<path class="st0" d="M30,0c14.9,0,22,16.7,22,30.2C52,47.3,42.2,60,30,60C17.8,60,8,47.2,8,29.7C8,12.8,17.7,0,30,0z M29.6,1
			c-8.3,0-18,7.8-18,27.3c0,18.4,8.2,30.6,18.9,30.6c10.3,0,17.9-10.9,17.9-27.3C48.4,13.1,39.8,1,29.6,1z M19.1,13.2
			c1.4,0.1,2.8,0.2,4.2,0.3c4,0.3,8.1,0.4,12.2,0.2c1.8-0.1,3.7-0.3,5.5,0.1c1,0.3,1.9,0.7,2.5,1.6c0.5,0.8,0.7,2,0,2.8
			c-0.6,0.6-1.5,0.6-2.3,0.5c-0.5-0.1-1.2-0.5-1.3-1c-0.1-0.6,0.9-0.5,1.1-1c0.2-0.6-0.6-1.1-1.1-1.2c-0.8-0.2-1.6-0.2-2.4-0.2
			c-0.9,0-1.9-0.1-2.8-0.1c-2.4-0.1-4.9-0.3-7.3-0.3c-1.5,0-2.9,0-4.4,0.1L22,15.1l-0.4,0c-0.6,0-1.2,0.1-1.7,0.5
			c-1,0.6-0.7,2-0.7,3c0,1.4,0,2.8,0,4.3c0,1.2,0,2.4,0,3.5c0,0.5-0.1,1.2,0.2,1.6c0.4,0.7,1.2-0.2,1.6-0.4c0.9-0.7,1.9-1.3,2.9-1.8
			c2.1-1.1,4.4-1.7,6.7-1.8c2.3-0.1,4.6,0.1,6.7,0.7c0.9,0.3,1.9,0.6,2.7,1.1c0.1,0,0.3,0.1,0.4,0.2c0,0.1,0,0.3-0.1,0.4
			c-0.1,0.2-0.1,0.5-0.2,0.7c-0.2,0.5-0.5,1-0.8,1.5c-0.1-0.1-0.2-0.3-0.3-0.4c-0.8-1.1-2.1-1.7-3.4-2.1c-2.7-0.8-5.6-0.7-8.3,0
			c-2.8,0.7-5.4,2-7.8,3.5c-0.3,0.2-0.2,0.2-0.2,0.5l0,0.8l0,0l0,0.8l0.2,9c0,0.3,0,0.5,0,0.8c0,0.1,0,0.2,0,0.3
			c0,0.1,0.1,0.2,0.1,0.4c0,0.2,0.1,0.1-0.1,0.2c0,0-0.2,0.1-0.2,0.1c-0.3,0.1-0.4,0.2-0.4,0.5c0,0.7,0,1.4,0,2.1
			c0,0.4,0.2,0.5,0.5,0.5l0.2,0l0.1,0h6.5c0.1,0,0.2,0,0.3,0c0.4-0.1,0.3-0.6,0.3-0.9c3,0.3,6.1,0.2,9-0.8c2.3-0.8,4.6-2.2,6-4.2
			c0.6-0.9,1-2,1.2-3c0.2-1.2,0-2.5-0.5-3.6c-0.2-0.4-0.4-0.7-0.6-1c-0.1-0.1-0.3-0.4-0.4-0.5c0-0.1,0-0.1,0.1-0.2
			c0.1-0.1,0.1-0.1,0.2-0.2c0.5-0.5,0.8-1,1.2-1.6c0.2,0.1,0.3,0.2,0.3,0.3c0.8,0.8,1.4,1.7,1.8,2.7c1.5,3.4,0.6,7.4-1.9,10.1
			c-0.5,0.5-1.1,0.9-1.6,1.4c-0.3,0.2-0.5,0.5-0.9,0.7c-2.4,1.6-5.6,2.1-8.5,2.2c-2.4,0.1-4.9,0-7.3-0.1c-1.8,0-3.7-0.1-5.5-0.3
			c-0.7-0.1-1.3-0.2-1.9-0.4c-0.5-0.2-1.1-0.4-1.5-0.8c-0.4-0.5,0.1-1.3,0.2-1.8c0.2-1,0.3-1.9,0.3-2.9c0-2.7,0-5.4,0-8.2
			c0-2.2,0-4.5,0-6.7c0-0.5,0.1-0.9,0.1-1.4c0.1-1.4,0.2-2.9,0.2-4.4c0-1.3,0.1-2.8-0.2-4.1c-0.2-0.7-0.5-1.5-0.5-2.2
			c0-0.5,0.3-0.7,0.8-0.7C17.7,13,18.4,13.1,19.1,13.2z M30.1,16.6c2.7,0,5.5,0.4,8.1,1.4c2.8,1.1,5.6,3.1,5.9,6.4
			c0.2,1.8-0.4,3.7-1.3,5.3c-0.7,1.3-2,2.3-3.2,3.1c-2.5,1.6-5.5,2.5-8.5,2.8c-1.5,0.1-3.1,0.1-4.6-0.1c-0.5-0.1-1-0.1-1.4,0
			c-0.6,0.2-0.5,0.8-0.4,1.3c0.2,1.1,0.2,2.1,0.2,3.2c0,0.5,0,1,0,1.4c-0.1,0.8,0.2,1.5,0.7,2.1c0.2,0.2,0.5,0.4,0.8,0.5
			c0.2,0.1,0.2,0.2,0.2,0.4l0,0.1l0,0.9h-6.5c-0.2,0-0.4,0-0.6,0c-0.2,0-0.1,0-0.1-0.1c-0.1-0.2,0-0.6,0-0.9l0-0.1v-1.1
			c0,0,0-0.2,0-0.2c0-0.1,0.5-0.2,0.6-0.2c0.3-0.2,0.6-0.5,0.8-0.8c0.6-1,0.6-2.2,0.7-3.3c0.1-1.3,0.1-2.6,0.2-3.9
			c0-1.4,0-2.8,0-4.1c0-0.3,0-0.6,0-1c0-0.1,0-0.3,0-0.5c0-0.1,0-0.1,0.1-0.2c0.3-0.2,0.7-0.4,1.1-0.5c0.4-0.2,0.7-0.3,1.1-0.5
			c0,1.3,0.1,2.6,0.3,3.9c0,0.3,0.1,0.5,0.1,0.8c0,0.1,0.1,0.4,0.1,0.6l0,0.1l0.1,0c0.1,0,0.3,0.1,0.4,0.1c0.2,0,0.5,0.1,0.7,0.1
			c1,0.1,2.1,0.2,3.1,0.2l0.1,0l0,0l0.1,0l-0.1,0c0.8,0,1.7-0.1,2.5-0.2c2.1-0.3,4.1-1,5.9-2.3c1.6-1.2,3.2-2.8,3.5-4.9
			c0.3-1.8-0.3-3.8-1.7-5c-1-0.9-2.1-1.6-3.3-2.1c-1.2-0.6-2.7-0.8-4-0.9c-2.2-0.2-4.5-0.2-6.7,0.2c-0.2,0-1,0.1-1.1,0.2
			c-0.1,0.1,0,0.4,0,0.5c0,0.8-0.1,1.5-0.1,2.3c0,1.1-0.1,2.3-0.1,3.4c0,0.1,0.1,0.5,0,0.6c0,0-0.1,0-0.1,0.1
			c-0.2,0.2-0.5,0.2-0.7,0.4c-0.5,0.3-1.1,0.6-1.6,1c-0.1-1.6-0.2-3.2-0.3-4.8c-0.1-1.3-0.3-2.7-0.8-3.9c-0.1-0.2-0.2-0.3-0.3-0.5
			c-0.1-0.2-0.3-0.3-0.3-0.5c-0.1-0.3,0.3-0.3,0.6-0.3c0.9,0.2,1.7,0.1,2.6,0c1.4-0.2,2.8-0.4,4.2-0.4
			C28.1,16.5,29.1,16.6,30.1,16.6z"/>
	</g>
	<g class="st1">
		<path class="st2" d="M14.6,112.4v0.6H9.6v-7h4.8v0.6h-4.1v2.5H14v0.6h-3.6v2.6H14.6z"/>
		<path class="st2" d="M17.7,106.6h-2.5V106h5.7v0.6h-2.5v6.4h-0.7V106.6z"/>
		<path class="st2" d="M27.9,106v7h-0.7v-3.2h-4.4v3.2h-0.7v-7h0.7v3.1h4.4V106H27.9z"/>
		<path class="st2" d="M36,106v7h-0.6l-4.5-5.7v5.7h-0.7v-7h0.6l4.5,5.7V106H36z"/>
		<path class="st2" d="M39.5,112.6c-0.6-0.3-1-0.7-1.3-1.3c-0.3-0.5-0.5-1.1-0.5-1.8c0-0.7,0.2-1.3,0.5-1.8c0.3-0.5,0.8-1,1.3-1.3
			c0.6-0.3,1.2-0.5,1.9-0.5c0.7,0,1.3,0.2,1.9,0.5c0.6,0.3,1,0.7,1.3,1.3c0.3,0.5,0.5,1.2,0.5,1.8c0,0.7-0.2,1.3-0.5,1.8
			c-0.3,0.5-0.8,1-1.3,1.3c-0.6,0.3-1.2,0.5-1.9,0.5C40.7,113.1,40.1,112.9,39.5,112.6z M42.9,112c0.4-0.2,0.8-0.6,1-1
			s0.4-0.9,0.4-1.5s-0.1-1-0.4-1.5s-0.6-0.8-1-1c-0.4-0.2-0.9-0.4-1.5-0.4c-0.6,0-1.1,0.1-1.5,0.4c-0.4,0.2-0.8,0.6-1.1,1
			c-0.3,0.4-0.4,0.9-0.4,1.5s0.1,1,0.4,1.5c0.3,0.4,0.6,0.8,1.1,1c0.5,0.2,1,0.4,1.5,0.4C41.9,112.4,42.4,112.3,42.9,112z"/>
		<path class="st2" d="M51.6,109.5h0.7v2.7c-0.3,0.3-0.7,0.5-1.2,0.7c-0.4,0.2-0.9,0.2-1.4,0.2c-0.7,0-1.3-0.2-1.9-0.5
			s-1-0.7-1.3-1.3c-0.3-0.5-0.5-1.2-0.5-1.8c0-0.7,0.2-1.3,0.5-1.8c0.3-0.5,0.8-1,1.3-1.3s1.2-0.5,1.9-0.5c0.5,0,1,0.1,1.5,0.3
			s0.8,0.4,1.1,0.8l-0.5,0.5c-0.6-0.5-1.3-0.8-2.1-0.8c-0.6,0-1.1,0.1-1.5,0.4s-0.8,0.6-1.1,1c-0.3,0.4-0.4,0.9-0.4,1.5
			s0.1,1,0.4,1.5c0.3,0.4,0.6,0.8,1.1,1c0.5,0.3,1,0.4,1.5,0.4c0.7,0,1.3-0.2,1.8-0.5V109.5z"/>
		<path class="st2" d="M59.2,113l-1.6-2.2c-0.2,0-0.4,0-0.6,0h-1.9v2.2h-0.7v-7h2.6c0.9,0,1.6,0.2,2.1,0.6c0.5,0.4,0.8,1,0.8,1.8
			c0,0.5-0.1,1-0.4,1.4c-0.3,0.4-0.7,0.6-1.2,0.8L60,113H59.2z M58.6,109.7c0.4-0.3,0.5-0.7,0.5-1.3c0-0.6-0.2-1-0.5-1.3
			c-0.4-0.3-0.9-0.5-1.6-0.5h-1.9v3.5H57C57.7,110.2,58.3,110,58.6,109.7z"/>
		<path class="st2" d="M66.1,111.1h-3.9l-0.8,1.9h-0.8l3.2-7h0.7l3.2,7h-0.8L66.1,111.1z M65.8,110.5l-1.7-3.8l-1.7,3.8H65.8z"/>
		<path class="st2" d="M73.6,106.6c0.5,0.4,0.8,1,0.8,1.8c0,0.7-0.3,1.3-0.8,1.8c-0.5,0.4-1.2,0.6-2.1,0.6h-1.9v2.2h-0.7v-7h2.6
			C72.4,106,73.1,106.2,73.6,106.6z M73,109.7c0.4-0.3,0.5-0.7,0.5-1.3c0-0.6-0.2-1-0.5-1.3c-0.4-0.3-0.9-0.5-1.6-0.5h-1.9v3.5h1.9
			C72.1,110.1,72.7,110,73,109.7z"/>
		<path class="st2" d="M81.8,106v7H81v-3.2h-4.4v3.2h-0.7v-7h0.7v3.1H81V106H81.8z"/>
		<path class="st2" d="M84.1,106h0.7v7h-0.7V106z"/>
		<path class="st2" d="M88.2,112.6c-0.6-0.3-1-0.7-1.3-1.3c-0.3-0.5-0.5-1.2-0.5-1.8c0-0.7,0.2-1.3,0.5-1.8c0.3-0.5,0.8-1,1.3-1.3
			s1.2-0.5,1.9-0.5c0.5,0,1,0.1,1.4,0.3c0.4,0.2,0.8,0.4,1.1,0.8l-0.5,0.5c-0.5-0.6-1.2-0.8-2.1-0.8c-0.6,0-1.1,0.1-1.5,0.4
			c-0.5,0.3-0.8,0.6-1.1,1c-0.3,0.4-0.4,0.9-0.4,1.5s0.1,1,0.4,1.5c0.3,0.4,0.6,0.8,1.1,1c0.5,0.3,1,0.4,1.5,0.4
			c0.8,0,1.5-0.3,2.1-0.8l0.5,0.5c-0.3,0.3-0.7,0.6-1.1,0.8s-0.9,0.3-1.4,0.3C89.4,113.1,88.8,112.9,88.2,112.6z"/>
		<path class="st2" d="M102.7,106l-3.1,7h-0.7l-3.1-7h0.8l2.7,6.1l2.7-6.1H102.7z"/>
		<path class="st2" d="M103.7,106h0.7v7h-0.7V106z"/>
		<path class="st2" d="M106.7,106h0.7v6.4h3.9v0.6h-4.7V106z"/>
		<path class="st2" d="M112.6,106h0.7v6.4h3.9v0.6h-4.7V106z"/>
		<path class="st2" d="M122.9,111.1H119l-0.8,1.9h-0.8l3.2-7h0.7l3.2,7h-0.8L122.9,111.1z M122.7,110.5l-1.7-3.8l-1.7,3.8H122.7z"/>
		<path class="st2" d="M130.5,109.5h0.7v2.7c-0.3,0.3-0.7,0.5-1.2,0.7c-0.4,0.2-0.9,0.2-1.4,0.2c-0.7,0-1.3-0.2-1.9-0.5
			s-1-0.7-1.3-1.3c-0.3-0.5-0.5-1.2-0.5-1.8c0-0.7,0.2-1.3,0.5-1.8c0.3-0.5,0.8-1,1.3-1.3s1.2-0.5,1.9-0.5c0.5,0,1,0.1,1.5,0.3
			s0.8,0.4,1.1,0.8l-0.5,0.5c-0.6-0.5-1.3-0.8-2.1-0.8c-0.6,0-1.1,0.1-1.5,0.4c-0.5,0.2-0.8,0.6-1.1,1c-0.3,0.4-0.4,0.9-0.4,1.5
			s0.1,1,0.4,1.5c0.3,0.4,0.6,0.8,1.1,1c0.5,0.3,1,0.4,1.5,0.4c0.7,0,1.3-0.2,1.8-0.5V109.5z"/>
		<path class="st2" d="M138.3,112.4v0.6h-5v-7h4.8v0.6h-4.1v2.5h3.6v0.6h-3.6v2.6H138.3z"/>
		<path class="st2" d="M148.5,106l-3.1,7h-0.7l-3.1-7h0.8l2.7,6.1l2.7-6.1H148.5z"/>
		<path class="st2" d="M149.5,106h0.7v6.4h3.9v0.6h-4.7V106z"/>
		<path class="st2" d="M159.8,111.1h-3.9L155,113h-0.8l3.2-7h0.7l3.2,7h-0.8L159.8,111.1z M159.5,110.5l-1.7-3.8l-1.7,3.8H159.5z"/>
		<path class="st2" d="M162.6,106h2.8c0.7,0,1.4,0.1,2,0.4c0.6,0.3,1,0.7,1.3,1.2c0.3,0.5,0.5,1.1,0.5,1.8s-0.2,1.3-0.5,1.8
			c-0.3,0.5-0.8,0.9-1.3,1.2c-0.6,0.3-1.2,0.4-2,0.4h-2.8V106z M165.4,112.4c0.6,0,1.1-0.1,1.6-0.4c0.5-0.2,0.8-0.6,1.1-1
			c0.3-0.4,0.4-0.9,0.4-1.5s-0.1-1.1-0.4-1.5c-0.3-0.4-0.6-0.8-1.1-1c-0.5-0.2-1-0.4-1.6-0.4h-2.1v5.7H165.4z"/>
		<path class="st2" d="M170.8,106h0.7v7h-0.7V106z"/>
		<path class="st2" d="M181.1,106v7h-0.7v-5.6l-2.8,4.7h-0.4l-2.8-4.7v5.6h-0.7v-7h0.6l3,5.2l3-5.2H181.1z"/>
		<path class="st2" d="M183.4,106h0.7v7h-0.7V106z"/>
		<path class="st2" d="M191.2,113l-1.6-2.2c-0.2,0-0.4,0-0.6,0h-1.9v2.2h-0.7v-7h2.6c0.9,0,1.6,0.2,2.1,0.6c0.5,0.4,0.8,1,0.8,1.8
			c0,0.5-0.1,1-0.4,1.4c-0.3,0.4-0.7,0.6-1.2,0.8l1.7,2.4H191.2z M190.6,109.7c0.4-0.3,0.5-0.7,0.5-1.3c0-0.6-0.2-1-0.5-1.3
			c-0.4-0.3-0.9-0.5-1.6-0.5h-1.9v3.5h1.9C189.7,110.2,190.2,110,190.6,109.7z"/>
	</g>
	<g id="Group-Copy" transform="translate(68.000000, 127.000000)">
		<g id="STAR" transform="translate(39.000000, 0.000000)">
			<polygon id="Fill-1" class="st3" points="6.5,0.9 5.2,5 0.9,5 4.3,7.5 3,11.6 6.5,9.1 10,11.6 8.7,7.5 12.1,5 7.8,5 			"/>
		</g>
		<g id="STAR_1_" transform="translate(13.000000, 0.000000)">
			<polygon id="Fill-1_1_" class="st3" points="6.5,0.9 5.2,5 0.9,5 4.3,7.5 3,11.6 6.5,9.1 10,11.6 8.7,7.5 12.1,5 7.8,5 			"/>
		</g>
		<g id="STAR_2_" transform="translate(52.000000, 0.000000)">
			<polygon id="Fill-1_2_" class="st3" points="6.5,0.9 5.2,5 0.9,5 4.3,7.5 3,11.6 6.5,9.1 10,11.6 8.7,7.5 12.1,5 7.8,5 			"/>
		</g>
		<g id="STAR_3_" transform="translate(26.000000, 0.000000)">
			<polygon id="Fill-1_3_" class="st3" points="6.5,0.9 5.2,5 0.9,5 4.3,7.5 3,11.6 6.5,9.1 10,11.6 8.7,7.5 12.1,5 7.8,5 			"/>
		</g>
		<g id="STAR_4_">
			<polygon id="Fill-1_4_" class="st3" points="6.5,0.9 5.2,5 0.9,5 4.3,7.5 3,11.6 6.5,9.1 10,11.6 8.7,7.5 12.1,5 7.8,5 			"/>
		</g>
	</g>
	<g class="st1">
		<path class="st2" d="M45.3,94.5c-0.4,0-0.9,0-1.3-0.1c-0.4-0.1-0.8-0.2-1.1-0.4s-0.6-0.5-0.9-0.8c-0.4-0.5-0.8-0.9-1.1-1.4
			c-0.4-0.4-0.7-0.9-1.1-1.5s-0.9-1.3-1.4-2.2c-0.2-0.4-0.6-0.7-1-0.9c-0.4-0.2-0.7-0.3-1-0.4c-0.3-0.1-0.6-0.1-0.9-0.1
			c-0.1,0-0.2,0-0.3,0.1C35.1,86.9,35,87,35,87.1v4.2c0,0.5,0.1,1,0.4,1.3c0.2,0.4,0.7,0.6,1.2,0.7c0.3,0,0.5,0.1,0.6,0.2
			c0.1,0.1,0.2,0.2,0.2,0.3c0,0.1-0.1,0.2-0.2,0.2c-0.1,0-0.3,0.1-0.5,0.1c-0.4,0-0.8,0-1,0c-0.2,0-0.4-0.1-0.6-0.1
			c-0.2,0-0.4,0-0.7,0c-0.4,0-0.8,0-1.1,0c-0.3,0-0.6,0.1-0.9,0.1c-0.3,0-0.7,0-1.1,0c-0.2,0-0.4,0-0.5-0.1c-0.1,0-0.2-0.1-0.2-0.2
			c0-0.2,0.3-0.3,0.8-0.4c0.6-0.1,1.1-0.3,1.3-0.6c0.3-0.3,0.4-0.7,0.4-1.3V81.4c0-0.6,0-1.1-0.1-1.4c-0.1-0.3-0.2-0.5-0.4-0.7
			s-0.5-0.2-1-0.3c-0.3,0-0.5-0.1-0.6-0.2c-0.1-0.1-0.2-0.2-0.2-0.3c0-0.1,0.1-0.2,0.2-0.2c0.1,0,0.3-0.1,0.5-0.1c0.4,0,0.8,0,1,0
			c0.2,0,0.4,0,0.6,0c0.2,0,0.4,0,0.8,0c0.3,0,0.6,0,0.8,0c0.2,0,0.5,0,0.8-0.1c0.3,0,0.7,0,1.1,0c1.8,0,3.1,0.3,4,1
			c0.9,0.7,1.4,1.6,1.4,3c0,0.7-0.1,1.3-0.4,1.9c-0.3,0.5-0.6,1-1.1,1.3c-0.4,0.4-0.9,0.6-1.3,0.9c-0.1,0-0.1,0.1-0.1,0.1
			c0,0.1,0,0.1,0.1,0.2c0.5,0.8,1,1.5,1.4,2.1c0.5,0.7,1,1.3,1.5,2s1.2,1.3,1.9,2c0.4,0.4,0.8,0.6,1.3,0.7c0.4,0.1,0.9,0.1,1.5,0.1
			c0.2,0,0.4,0.1,0.4,0.3c0,0.2-0.1,0.4-0.4,0.5c-0.2,0.1-0.5,0.2-0.8,0.2C45.8,94.5,45.5,94.5,45.3,94.5z M36.3,86.1
			c0.7,0,1.4-0.2,1.9-0.5c0.5-0.3,1-0.8,1.2-1.3s0.4-1.1,0.4-1.7c0-0.7-0.1-1.3-0.3-1.8s-0.5-1-1-1.3S37.4,79,36.4,79
			c-0.5,0-0.8,0.2-1,0.5c-0.2,0.3-0.3,0.9-0.3,1.7c0,0.4,0,0.9,0,1.6c0,0.7,0,1.5,0,2.5c0,0.4,0.1,0.6,0.3,0.7S35.9,86.1,36.3,86.1z
			"/>
		<path class="st2" d="M56,94.3c-1.4,0-2.6-0.3-3.6-0.8s-1.7-1.2-2.2-2.1s-0.7-2-0.7-3.2v-7.4c0-0.6-0.1-1-0.3-1.3
			c-0.2-0.3-0.5-0.4-0.8-0.5c-0.5-0.1-0.8-0.3-0.8-0.5c0-0.1,0.1-0.2,0.2-0.2c0.1,0,0.3-0.1,0.5-0.1c0.4,0,0.7,0,1.1,0
			c0.4,0,0.8,0,1.2,0c0.4,0,0.7,0,1,0c0.3,0,0.6,0,0.9,0c0.2,0,0.4,0,0.5,0.1c0.1,0,0.2,0.1,0.2,0.2c0,0.1-0.1,0.2-0.2,0.3
			c-0.1,0.1-0.3,0.1-0.6,0.2c-0.2,0.1-0.4,0.2-0.6,0.6c-0.2,0.3-0.4,0.7-0.4,1.2v6.7c0,1.3,0.2,2.3,0.6,3.2c0.4,0.8,1,1.4,1.8,1.8
			c0.8,0.4,1.6,0.6,2.6,0.6c1.6,0,2.9-0.6,3.6-1.7c0.8-1.1,1.2-2.7,1.2-4.5c0-0.4,0-0.8,0-1.4c0-0.6,0-1.2,0-1.9c0-0.7,0-1.3,0-1.9
			c0-0.4,0-0.8-0.1-1.2c-0.1-0.4-0.2-0.7-0.3-0.9c-0.1-0.3-0.3-0.4-0.6-0.5c-0.2,0-0.3-0.1-0.5-0.2s-0.3-0.2-0.3-0.3
			c0-0.1,0.1-0.2,0.2-0.2c0.1,0,0.3-0.1,0.5-0.1c0.4,0,0.7,0,0.9,0c0.2,0,0.5,0,0.9,0c0.3,0,0.5,0,0.7,0c0.2,0,0.4,0,0.6,0
			c0.2,0,0.4,0,0.6,0c0.2,0,0.4,0,0.5,0.1c0.1,0,0.2,0.1,0.2,0.2c0,0.2-0.3,0.4-0.8,0.5c-0.4,0.1-0.7,0.3-0.9,0.6
			c-0.2,0.3-0.3,0.7-0.3,1.2c-0.1,1.4-0.1,2.6-0.2,3.8c0,1.1-0.1,2.3-0.1,3.4c0,1.2-0.3,2.3-0.9,3.3s-1.3,1.7-2.2,2.2
			S57.2,94.3,56,94.3z"/>
		<path class="st2" d="M69.7,94.4c-0.7,0-1.3-0.1-1.9-0.3c-0.6-0.2-1.1-0.5-1.5-0.9c-0.1-0.1-0.1-0.1-0.2-0.2
			c-0.1-0.1-0.1-0.2-0.1-0.3c-0.1-0.3-0.1-0.7-0.2-1.2c0-0.5-0.1-0.9-0.1-1.3c0-0.1,0-0.2,0.1-0.3c0.1-0.1,0.2-0.1,0.3-0.1
			c0.1,0,0.2,0,0.2,0.1c0.1,0,0.1,0.1,0.1,0.2c0.3,1.2,0.8,2.1,1.4,2.6c0.6,0.5,1.3,0.8,2,0.8c0.6,0,1.1-0.1,1.5-0.4
			c0.4-0.2,0.8-0.6,1-1c0.2-0.4,0.4-1,0.4-1.5c0-0.7-0.1-1.2-0.3-1.6c-0.2-0.4-0.5-0.8-0.9-1.1s-0.9-0.6-1.5-1
			c-0.6-0.4-1.2-0.8-1.8-1.2c-0.6-0.4-1.1-0.9-1.5-1.4c-0.4-0.5-0.6-1.2-0.6-2c0-0.8,0.2-1.6,0.6-2.2c0.4-0.7,0.9-1.2,1.7-1.6
			c0.7-0.4,1.7-0.6,2.8-0.6c0.6,0,1.1,0.1,1.5,0.2c0.4,0.1,0.8,0.2,1,0.3c0.1,0,0.2,0.1,0.3,0.2c0.1,0.1,0.1,0.2,0.2,0.4
			c0.1,0.3,0.2,0.7,0.3,1.2c0.1,0.4,0.2,0.8,0.2,1.2c0,0.2-0.1,0.3-0.4,0.3c-0.1,0-0.3,0-0.4-0.1c-0.1-0.1-0.2-0.1-0.3-0.2
			c-0.3-0.8-0.7-1.5-1.2-1.9c-0.4-0.4-1-0.7-1.7-0.7c-0.5,0-0.9,0.1-1.3,0.3c-0.4,0.2-0.8,0.5-1,0.9c-0.3,0.4-0.4,0.9-0.4,1.6
			c0,0.5,0.2,0.9,0.5,1.3c0.3,0.4,0.7,0.8,1.2,1.1c0.5,0.4,1.1,0.7,1.7,1.1c0.6,0.3,1.1,0.7,1.6,1.1c0.5,0.4,1,0.9,1.3,1.4
			c0.3,0.6,0.5,1.2,0.5,2c0,0.9-0.2,1.8-0.6,2.5s-1,1.3-1.8,1.6C71.7,94.2,70.8,94.4,69.7,94.4z"/>
		<path class="st2" d="M80.9,94.4c-0.7,0-1.3-0.1-1.9-0.3c-0.6-0.2-1.1-0.5-1.5-0.9c-0.1-0.1-0.1-0.1-0.2-0.2
			c-0.1-0.1-0.1-0.2-0.1-0.3c-0.1-0.3-0.1-0.7-0.2-1.2c0-0.5-0.1-0.9-0.1-1.3c0-0.1,0-0.2,0.1-0.3c0.1-0.1,0.2-0.1,0.3-0.1
			c0.1,0,0.2,0,0.2,0.1c0.1,0,0.1,0.1,0.1,0.2c0.3,1.2,0.8,2.1,1.4,2.6c0.6,0.5,1.3,0.8,2,0.8c0.6,0,1.1-0.1,1.5-0.4
			c0.4-0.2,0.8-0.6,1-1c0.2-0.4,0.4-1,0.4-1.5c0-0.7-0.1-1.2-0.3-1.6c-0.2-0.4-0.5-0.8-0.9-1.1s-0.9-0.6-1.5-1
			c-0.6-0.4-1.2-0.8-1.8-1.2c-0.6-0.4-1.1-0.9-1.5-1.4c-0.4-0.5-0.6-1.2-0.6-2c0-0.8,0.2-1.6,0.6-2.2c0.4-0.7,0.9-1.2,1.7-1.6
			c0.7-0.4,1.7-0.6,2.8-0.6c0.6,0,1.1,0.1,1.5,0.2c0.4,0.1,0.8,0.2,1,0.3c0.1,0,0.2,0.1,0.3,0.2c0.1,0.1,0.1,0.2,0.2,0.4
			c0.1,0.3,0.2,0.7,0.3,1.2c0.1,0.4,0.2,0.8,0.2,1.2c0,0.2-0.1,0.3-0.4,0.3c-0.1,0-0.3,0-0.4-0.1c-0.1-0.1-0.2-0.1-0.3-0.2
			c-0.3-0.8-0.7-1.5-1.2-1.9c-0.4-0.4-1-0.7-1.7-0.7c-0.5,0-0.9,0.1-1.3,0.3c-0.4,0.2-0.8,0.5-1,0.9c-0.3,0.4-0.4,0.9-0.4,1.6
			c0,0.5,0.2,0.9,0.5,1.3c0.3,0.4,0.7,0.8,1.2,1.1c0.5,0.4,1.1,0.7,1.7,1.1c0.6,0.3,1.1,0.7,1.6,1.1c0.5,0.4,1,0.9,1.3,1.4
			c0.3,0.6,0.5,1.2,0.5,2c0,0.9-0.2,1.8-0.6,2.5s-1,1.3-1.8,1.6C82.9,94.2,81.9,94.4,80.9,94.4z"/>
		<path class="st2" d="M96.2,94.3c-1.1,0-2.1-0.2-3-0.6c-1-0.4-1.8-0.9-2.5-1.6c-0.7-0.7-1.3-1.5-1.8-2.5c-0.4-1-0.6-2-0.6-3.2
			c0-1.1,0.2-2.1,0.5-3.1c0.4-1,0.9-1.9,1.6-2.7c0.7-0.8,1.5-1.4,2.6-1.9c1-0.5,2.2-0.7,3.5-0.7c1.1,0,2.1,0.2,3,0.6
			s1.8,0.9,2.5,1.6c0.7,0.7,1.3,1.5,1.8,2.5c0.4,1,0.6,2,0.6,3.2c0,1.1-0.2,2.1-0.5,3.1s-0.9,1.9-1.6,2.7c-0.7,0.8-1.5,1.4-2.6,1.9
			C98.7,94.1,97.5,94.3,96.2,94.3z M96.6,93.4c1.2,0,2.3-0.3,3.1-0.8c0.8-0.5,1.4-1.2,1.8-2.2c0.4-0.9,0.6-2,0.6-3.3
			c0-1.1-0.1-2.1-0.4-3.1c-0.3-1-0.6-1.8-1.1-2.6c-0.5-0.7-1.1-1.3-1.9-1.7c-0.8-0.4-1.6-0.6-2.6-0.6c-1.2,0-2.2,0.3-3,0.8
			c-0.8,0.5-1.4,1.2-1.8,2.1s-0.6,2-0.6,3.3c0,1.1,0.1,2.2,0.4,3.1c0.2,1,0.6,1.8,1.1,2.6c0.5,0.8,1.1,1.3,1.9,1.8
			C94.7,93.2,95.5,93.4,96.6,93.4z"/>
		<path class="st2" d="M106.3,89.9c-0.1,0-0.1,0-0.1-0.1c0-0.3,0-0.6,0.1-0.8c0.1-0.3,0.2-0.4,0.3-0.5c0.8-0.1,1.5-0.2,2.3-0.3
			c0.8-0.1,1.5-0.2,2.3-0.3c0,0,0.1,0,0.1,0c0,0,0.1,0.1,0.1,0.1c0,0.3,0,0.6-0.1,0.9c-0.1,0.3-0.2,0.4-0.4,0.4
			c-0.7,0.1-1.5,0.2-2.2,0.3C107.9,89.7,107.1,89.8,106.3,89.9z"/>
		<path class="st2" d="M113.2,94.1c-0.2,0-0.4,0-0.5-0.1s-0.2-0.1-0.2-0.2c0-0.2,0.3-0.3,0.8-0.4c0.6-0.1,1.1-0.3,1.4-0.6
			c0.3-0.3,0.5-0.7,0.5-1.2V80.8c0-0.6-0.1-1-0.4-1.3c-0.2-0.3-0.7-0.4-1.2-0.5c-0.3,0-0.5-0.1-0.6-0.2c-0.1-0.1-0.2-0.2-0.2-0.3
			c0-0.1,0.1-0.2,0.2-0.2c0.1,0,0.3-0.1,0.5-0.1c0.4,0,0.8,0,1,0s0.5,0,0.7,0c0.2,0,0.5,0,0.8,0c0.3,0,0.6,0,0.8,0
			c0.2,0,0.5,0,0.8-0.1c0.3,0,0.7,0,1.1,0c1.9,0,3.3,0.3,4.2,0.8s1.4,1.5,1.4,2.8c0,0.5-0.1,1-0.3,1.4c-0.2,0.4-0.4,0.7-0.5,0.9
			c-0.3,0.3-0.5,0.5-0.7,0.6c-0.2,0.1-0.5,0.3-0.9,0.4c-0.1,0-0.1,0.1-0.1,0.1c0,0.1,0,0.1,0.1,0.1c0.4,0.1,0.7,0.3,1.1,0.4
			c0.4,0.2,0.8,0.4,1.1,0.7c0.3,0.3,0.6,0.6,0.8,1.1c0.2,0.5,0.3,1,0.3,1.7c0,0.9-0.1,1.6-0.4,2.1c-0.3,0.5-0.6,0.9-1,1.2
			c-0.4,0.3-0.7,0.5-1.1,0.7c-0.5,0.3-1.1,0.5-1.7,0.6c-0.7,0.1-1.4,0.2-2.4,0.2c-0.2,0-0.5,0-0.9,0s-0.9,0-1.3,0
			c-0.4,0-0.8,0-1.1,0c-0.3,0-0.6,0-0.9,0.1S113.6,94.1,113.2,94.1z M118.1,85.1c0.4,0,0.9,0,1.4-0.1s1-0.3,1.5-0.6
			c0.2-0.1,0.4-0.3,0.7-0.7c0.3-0.4,0.4-0.9,0.4-1.6c0-0.5-0.1-0.9-0.3-1.4c-0.2-0.5-0.5-0.9-1-1.2c-0.5-0.3-1.2-0.5-2.2-0.5
			c-0.7,0-1.1,0.1-1.3,0.3c-0.2,0.2-0.3,0.4-0.3,0.8v4.2c0,0.4,0.1,0.7,0.4,0.8S117.9,85.1,118.1,85.1z M118.9,93.1
			c0.7,0,1.4-0.2,2-0.5c0.6-0.3,1.1-0.8,1.5-1.3s0.6-1.2,0.6-1.9c0-0.6-0.1-1.1-0.3-1.5s-0.4-0.7-0.7-1c-0.3-0.3-0.5-0.4-0.7-0.6
			c-0.2-0.1-0.5-0.3-1-0.4c-0.4-0.1-1-0.2-1.8-0.2c-0.5,0-0.9,0.1-1.1,0.3c-0.2,0.2-0.3,0.4-0.3,0.6v4.8c0,0.7,0.2,1.1,0.5,1.4
			C117.8,93,118.3,93.1,118.9,93.1z"/>
		<path class="st2" d="M126.8,94.1c-0.2,0-0.4,0-0.5-0.1s-0.2-0.1-0.2-0.2c0-0.1,0.1-0.2,0.2-0.3s0.3-0.2,0.6-0.3
			c0.4-0.1,0.8-0.3,1.2-0.6c0.4-0.3,0.7-0.7,0.9-1.3c0.4-1,0.9-2,1.2-2.9c0.4-0.9,0.7-1.8,1.1-2.6c0.3-0.9,0.7-1.8,1-2.7
			c0.4-0.9,0.7-2,1.1-3.1c0.1-0.2,0.2-0.4,0.2-0.7c0.1-0.2,0.1-0.5,0.1-0.7c0.1,0,0.3-0.1,0.4-0.1s0.3-0.1,0.4-0.2
			c0.1-0.1,0.2-0.2,0.3-0.4c0.1-0.2,0.1-0.3,0.2-0.4c0,0,0,0,0.1,0c0,0,0,0,0.1,0c0,0.1,0.1,0.1,0.1,0.2c0,0.1,0.1,0.2,0.1,0.3
			c0.4,1.2,0.8,2.5,1.2,3.7s0.8,2.5,1.2,3.7s0.8,2.2,1.1,3.2c0.3,0.9,0.6,1.7,0.8,2.3c0.2,0.6,0.5,1.1,0.7,1.4s0.5,0.5,0.8,0.7
			c0.3,0.1,0.6,0.2,0.9,0.3c0.3,0,0.5,0.1,0.6,0.2c0.1,0.1,0.2,0.2,0.2,0.3c0,0.1-0.1,0.2-0.2,0.2c-0.1,0-0.3,0-0.5,0
			c-0.2,0-0.5,0-0.9,0c-0.4,0-0.8,0-1.2-0.1c-0.4,0-0.8,0-1.2,0c-0.3,0-0.6,0-0.9,0s-0.6,0-0.9,0c-0.3,0-0.5,0-0.7,0
			c-0.2,0-0.4,0-0.5-0.1c-0.1,0-0.2-0.1-0.2-0.2c0-0.1,0.1-0.2,0.2-0.3c0.2-0.1,0.3-0.1,0.6-0.2c0.5-0.1,0.9-0.2,1.1-0.4
			c0.2-0.2,0.3-0.4,0.3-0.7c0-0.2-0.1-0.6-0.2-1c-0.1-0.5-0.2-0.9-0.4-1.5c-0.1-0.5-0.3-1-0.4-1.4c0-0.1-0.1-0.2-0.2-0.2
			c-0.1,0-0.2,0-0.5,0h-4.5c-0.1,0-0.1,0-0.2,0.1c-0.1,0.1-0.1,0.2-0.2,0.3c0,0.2-0.1,0.4-0.2,0.8c-0.1,0.3-0.2,0.7-0.3,1.1
			c-0.1,0.4-0.2,0.7-0.3,1s-0.1,0.5-0.1,0.6c0,0.4,0.1,0.6,0.4,0.9c0.3,0.2,0.6,0.4,1,0.5c0.5,0.1,0.8,0.3,0.8,0.5
			c0,0.1-0.1,0.2-0.2,0.2c-0.1,0-0.3,0.1-0.5,0.1c-0.2,0-0.5,0-0.9,0c-0.4,0-0.8,0-1.3,0c-0.5,0-1,0-1.5,0.1
			C127.6,94.1,127.2,94.1,126.8,94.1z M132.4,87.2h3.7c0.2,0,0.3,0,0.3-0.1c0,0,0-0.1,0-0.1c0,0,0-0.1,0-0.1l-1.9-5.9
			c-0.1-0.3-0.2-0.4-0.2-0.4c0,0-0.1,0.1-0.2,0.4l-2.2,5.9c0,0.1,0,0.2,0,0.2c0,0.1,0,0.1,0.1,0.1C132.1,87.2,132.2,87.2,132.4,87.2
			z"/>
		<path class="st2" d="M143.6,94c-0.1-0.1-0.2-0.1-0.2-0.2c0-0.1,0.1-0.2,0.2-0.3c0.2-0.1,0.3-0.1,0.3-0.1c0.6-0.1,1.1-0.3,1.4-0.6
			c0.3-0.2,0.5-0.6,0.5-1.2V80.6c0-0.4,0-0.7-0.1-0.9c-0.1-0.2-0.2-0.3-0.4-0.4c-0.2-0.1-0.5-0.2-0.9-0.2c-0.5-0.1-0.8-0.3-0.8-0.5
			c0-0.1,0.1-0.2,0.2-0.2c0.1,0,0.3-0.1,0.5-0.1c0.4,0,0.8,0,1,0c0.3,0,0.5,0,0.8,0c0.2,0,0.5,0,0.9,0c0.4,0,0.7,0,1,0
			c0.3,0,0.6,0,0.9,0c0.3,0,0.7,0,1.1,0c0.2,0,0.4,0,0.5,0.1c0.1,0,0.2,0.1,0.2,0.2c0,0.1-0.1,0.2-0.2,0.3c-0.1,0.1-0.3,0.1-0.6,0.2
			c-0.6,0.1-1.1,0.2-1.5,0.4c-0.4,0.2-0.6,0.5-0.6,0.9v11.3c0,0.5,0.1,0.9,0.3,1.1s0.7,0.4,1.5,0.4h3c0.4,0,0.8-0.1,1.1-0.2
			s0.6-0.3,0.7-0.4c0.3-0.3,0.6-0.5,0.7-0.7c0.2-0.2,0.3-0.5,0.5-1c0-0.1,0.1-0.2,0.2-0.4c0.1-0.2,0.2-0.3,0.3-0.3
			c0.1,0,0.2,0,0.2,0.1c0,0.1,0.1,0.2,0.1,0.3c0,0,0,0,0,0.1c0,0,0,0,0,0.1c-0.1,0.4-0.2,0.8-0.3,1.1c-0.1,0.3-0.2,0.7-0.2,1
			s-0.1,0.6-0.1,1c0,0.1,0,0.2-0.1,0.3s-0.1,0.1-0.3,0.1c-0.8,0-1.6,0-2.3,0c-0.7,0-1.4,0-2.1,0c-0.7,0-1.3,0-2,0
			c-0.6,0-1.2,0-1.8,0c-0.4,0-0.9,0-1.4,0c-0.5,0-1.1,0-1.9,0.1C143.8,94.1,143.7,94.1,143.6,94z"/>
		<path class="st2" d="M159,94.1c-0.2,0-0.4,0-0.5-0.1s-0.2-0.1-0.2-0.2c0-0.1,0.1-0.2,0.2-0.3c0.1-0.1,0.3-0.1,0.6-0.2
			c0.6-0.1,1.1-0.3,1.4-0.6c0.3-0.3,0.5-0.7,0.5-1.3v-9.3c0-0.7,0-1.3,0-1.7c0-0.4-0.1-0.7-0.2-0.8c-0.1-0.2-0.2-0.2-0.3-0.3
			c-0.2,0-0.5-0.1-0.7-0.1s-0.6,0-1,0h-1.1c-0.4,0-0.8,0.1-1.1,0.2c-0.4,0.2-0.7,0.4-0.8,0.7c0,0.1-0.1,0.2-0.2,0.3
			c-0.1,0.2-0.2,0.3-0.4,0.4c-0.1,0.1-0.3,0.2-0.4,0.2c-0.1,0-0.1,0-0.1-0.1c0-0.1,0-0.1,0-0.2c0-0.2,0-0.3,0.1-0.5
			c0.2-0.5,0.4-0.9,0.5-1.2c0.1-0.4,0.2-0.8,0.3-1.3c0-0.3,0.1-0.4,0.2-0.5s0.2-0.1,0.2-0.1s0.2,0.1,0.3,0.3
			c0.1,0.2,0.2,0.4,0.3,0.5c0.1,0.2,0.3,0.3,0.7,0.4c0.3,0.1,0.7,0.1,1,0.1h8.4c0.6,0,1,0,1.4-0.1c0.4-0.1,0.7-0.2,0.9-0.3
			c0.2-0.1,0.3-0.2,0.5-0.3c0.1-0.1,0.3-0.2,0.5-0.2c0,0,0.1,0.1,0.1,0.2c0,0.1,0,0.2,0,0.4c0,0.1,0,0.2,0,0.3c0,0.1,0,0.3-0.1,0.3
			c0,0.3-0.1,0.5-0.1,0.6c0,0.1-0.1,0.2-0.1,0.3c0,0.1,0,0.2,0,0.5v0.3c0,0.1,0,0.3-0.1,0.5c-0.1,0.2-0.2,0.3-0.3,0.3
			c-0.1,0-0.2-0.1-0.3-0.3c-0.1-0.2-0.1-0.4-0.2-0.7c-0.1-0.3-0.3-0.6-0.6-0.8s-0.9-0.3-1.6-0.3h-2.4c-0.4,0-0.6,0-0.8,0.1
			c-0.2,0.1-0.3,0.3-0.3,0.7c0,0.4-0.1,1-0.1,1.9v9.4c0,0.6,0.2,1,0.5,1.3c0.3,0.3,0.8,0.5,1.4,0.6c0.3,0,0.5,0.1,0.6,0.2
			c0.1,0.1,0.2,0.2,0.2,0.3c0,0.1-0.1,0.2-0.2,0.2c-0.1,0-0.3,0.1-0.5,0.1c-0.4,0-0.8,0-1.1,0c-0.3,0-0.5,0-0.8-0.1
			c-0.3,0-0.6,0-0.9,0c-0.4,0-0.7,0-1,0c-0.3,0-0.6,0-0.9,0.1S159.4,94.1,159,94.1z"/>
	</g>
</g>
</svg>
