<svg xmlns="http://www.w3.org/2000/svg" width="200" height="141" viewBox="0 0 200 141">
    <g fill="none" fill-rule="evenodd">
        <g>
            <g>
                <path fill="#424242" fill-rule="nonzero" d="M11.79 77.78c-.335.001-.67-.025-1-.08-.296-.053-.58-.158-.84-.31-.276-.153-.52-.356-.72-.6l-.84-1.05c-.27-.34-.55-.73-.85-1.17-.3-.44-.66-1-1.09-1.68-.184-.312-.46-.56-.79-.71-.25-.13-.515-.227-.79-.29-.215-.045-.432-.079-.65-.1-.082-.017-.166.019-.21.09-.05.085-.074.182-.07.28v3.22c-.006.353.092.7.28 1 .224.31.57.51.95.55.158.024.313.067.46.13.081.034.135.112.14.2 0 .08-.05.13-.14.16-.13.018-.26.018-.39 0-.253.013-.507.013-.76 0L4 77.38H2.62l-.71.07h-.85c-.13.018-.26.018-.39 0-.09 0-.14-.08-.14-.16s.2-.25.6-.33c.366-.045.712-.19 1-.42.246-.272.363-.636.32-1v-7.8c.01-.351-.014-.703-.07-1.05-.017-.202-.124-.385-.29-.5-.234-.126-.494-.195-.76-.2-.162-.012-.319-.06-.46-.14-.082-.049-.134-.135-.14-.23.007-.078.063-.143.14-.16.13-.018.26-.018.39 0h1.79c.21.01.42.01.63 0l.61-.05h.87c1.073-.07 2.141.191 3.06.75.717.518 1.117 1.368 1.06 2.25.022.476-.074.95-.28 1.38-.209.384-.49.724-.83 1-.308.256-.643.478-1 .66-.05 0-.07 0-.07.09.014.054.038.104.07.15.37.58.74 1.12 1.09 1.63.353.52.733 1.02 1.14 1.5.46.539.954 1.047 1.48 1.52.278.262.625.439 1 .51.376.072.758.106 1.14.1.18 0 .27.06.27.2.002.179-.105.34-.27.41-.196.093-.405.154-.62.18-.202.026-.406.04-.61.04zm-6.85-6.41c1 .043 1.936-.49 2.41-1.37.224-.404.341-.858.34-1.32.007-.464-.057-.926-.19-1.37-.13-.415-.402-.77-.77-1-.528-.293-1.127-.431-1.73-.4-.31-.041-.614.109-.77.38-.16.425-.238.876-.23 1.33v3.11c0 .3.09.49.26.55.22.065.45.095.68.09zM20 77.65c-.944.032-1.88-.167-2.73-.58-.707-.354-1.282-.925-1.64-1.63-.385-.755-.577-1.593-.56-2.44v-5.62c.04-.356-.056-.713-.27-1-.15-.183-.352-.316-.58-.38-.4-.11-.6-.24-.6-.4 0-.16.05-.13.15-.16.126-.019.254-.019.38 0h3.22c.13-.018.26-.018.39 0 .1 0 .15.08.15.16-.006.09-.065.169-.15.2-.149.066-.302.12-.46.16-.202.093-.372.242-.49.43-.195.254-.295.57-.28.89v5.15c-.03.829.141 1.652.5 2.4.295.598.771 1.087 1.36 1.4.621.307 1.307.458 2 .44 1.087.085 2.138-.414 2.76-1.31.608-1.012.903-2.18.85-3.36v-1.06-1.42-1.45c.002-.302-.028-.604-.09-.9-.04-.251-.121-.495-.24-.72-.077-.215-.251-.382-.47-.45-.137-.035-.271-.082-.4-.14-.14-.07-.21-.14-.21-.22 0-.08.05-.13.15-.16.126-.018.254-.018.38 0h2.42c.147-.01.293-.01.44 0 .126-.019.254-.019.38 0 .1 0 .15.09.15.16s-.2.28-.6.37c-.285.034-.537.201-.68.45-.15.284-.232.599-.24.92-.06 1.05-.1 2-.12 2.87-.02.87 0 1.72-.06 2.57-.01.878-.244 1.738-.68 2.5-.413.7-1.002 1.28-1.71 1.68-.735.428-1.57.652-2.42.65zM30.43 77.69c-.486.005-.97-.072-1.43-.23-.42-.15-.812-.37-1.16-.65-.052-.052-.099-.109-.14-.17-.043-.061-.077-.129-.1-.2-.072-.329-.113-.664-.12-1 0-.39 0-.71-.07-1-.004-.08.039-.154.11-.19.078-.049.168-.073.26-.07.06-.013.12-.013.18 0 .063.024.106.083.11.15.156.76.536 1.457 1.09 2 .726.656 1.785.787 2.65.33.316-.147.589-.375.79-.66.194-.362.29-.769.28-1.18.02-.421-.067-.84-.25-1.22-.17-.318-.41-.595-.7-.81-.357-.273-.731-.523-1.12-.75l-1.41-.93c-.443-.29-.832-.656-1.15-1.08-.315-.432-.477-.956-.46-1.49-.008-.59.137-1.172.42-1.69.296-.513.738-.928 1.27-1.19.666-.322 1.4-.476 2.14-.45.384-.008.768.035 1.14.13.265.074.526.164.78.27.097.039.183.1.25.18.061.084.106.179.13.28.08.25.16.55.24.88.085.303.128.616.13.93 0 .13-.09.2-.27.2-.111-.001-.221-.029-.32-.08-.09-.032-.163-.101-.2-.19-.194-.548-.496-1.052-.89-1.48-.346-.339-.815-.523-1.3-.51-.343.003-.682.07-1 .2-.323.133-.596.363-.78.66-.245.395-.36.856-.33 1.32-.003.366.124.72.36 1 .27.33.587.62.94.86.39.26.81.54 1.26.82.45.28.85.54 1.26.84.398.298.737.668 1 1.09.28.467.42 1.006.4 1.55.014.664-.16 1.32-.5 1.89-.33.547-.814.985-1.39 1.26-.662.284-1.38.414-2.1.38zM38.94 77.69c-.483.003-.963-.074-1.42-.23-.42-.15-.812-.37-1.16-.65-.052-.052-.099-.109-.14-.17-.04-.064-.073-.13-.1-.2-.072-.329-.113-.664-.12-1 0-.39 0-.71-.06-1-.007-.08.037-.156.11-.19.074-.049.161-.073.25-.07.062-.015.128-.015.19 0 .06.027.102.084.11.15.148.763.53 1.462 1.09 2 .722.657 1.779.789 2.64.33.328-.182.598-.452.78-.78.194-.362.29-.769.28-1.18.017-.42-.065-.838-.24-1.22-.174-.319-.417-.595-.71-.81-.356-.275-.73-.526-1.12-.75l-1.4-.93c-.446-.29-.838-.656-1.16-1.08-.31-.434-.472-.957-.46-1.49-.01-.592.139-1.175.43-1.69.316-.46.757-.82 1.27-1.04.663-.32 1.394-.475 2.13-.45.384-.008.768.035 1.14.13.266.072.526.163.78.27.097.039.183.1.25.18.064.083.112.179.14.28l.24.88c.076.304.117.616.12.93 0 .13-.09.2-.27.2-.11.002-.22-.022-.32-.07-.09-.03-.16-.1-.19-.19-.2-.547-.506-1.05-.9-1.48-.345-.341-.815-.525-1.3-.51-.343.003-.682.07-1 .2-.319.135-.587.366-.77.66-.246.38-.365.828-.34 1.28-.003.366.124.72.36 1 .27.33.587.62.94.86.39.26.82.54 1.27.82.45.28.84.54 1.25.84.398.298.737.668 1 1.09.273.47.408 1.007.39 1.55.01.646-.156 1.282-.48 1.84-.333.545-.815.982-1.39 1.26-.662.302-1.383.449-2.11.43zM50.62 77.65c-.79.004-1.574-.142-2.31-.43-.719-.278-1.378-.692-1.94-1.22-.581-.538-1.047-1.187-1.37-1.91-.338-.776-.509-1.614-.5-2.46.027-.82.197-1.628.5-2.39.257-.74.662-1.42 1.19-2 .551-.62 1.235-1.109 2-1.43.851-.37 1.772-.55 2.7-.53.787-.004 1.568.142 2.3.43.671.278 1.285.678 1.81 1.18.567.543 1.023 1.192 1.34 1.91.335.776.502 1.615.49 2.46.003.81-.132 1.615-.4 2.38-.265.737-.669 1.416-1.19 2-.555.616-1.238 1.104-2 1.43-.824.373-1.716.57-2.62.58zm.28-.73c.822.03 1.634-.178 2.34-.6.625-.398 1.114-.977 1.4-1.66.326-.792.486-1.643.47-2.5.005-.803-.096-1.603-.3-2.38-.167-.714-.462-1.391-.87-2-.753-1.163-2.066-1.84-3.45-1.78-.806-.029-1.604.172-2.3.58-.627.389-1.12.961-1.41 1.64-.336.783-.5 1.628-.48 2.48-.007.809.087 1.615.28 2.4.173.71.464 1.386.86 2 .37.552.862 1.011 1.44 1.34.62.335 1.316.5 2.02.48zM58.33 74.28c-.03.003-.06-.007-.081-.029-.022-.021-.032-.051-.029-.081.003-.216.03-.43.08-.64.06-.22.13-.34.21-.35.59-.08 1.17-.17 1.76-.24.59-.07 1.17-.15 1.76-.21.033-.01.067-.01.1 0 .013.025.013.055 0 .08.005.223-.022.445-.08.66-.018.163-.14.296-.3.33l-1.68.25c-.52.1-1.07.17-1.74.23zM63.58 77.48c-.126.018-.254.018-.38 0-.1 0-.15-.08-.15-.16s.2-.25.61-.33c.383-.05.747-.194 1.06-.42.276-.255.41-.628.36-1v-8.23c.035-.355-.06-.71-.27-1-.269-.254-.631-.384-1-.36-.162-.012-.319-.06-.46-.14-.087-.045-.144-.132-.15-.23 0-.07 0-.13.15-.16.126-.018.254-.018.38 0h1.91c.2.012.4.012.6 0l.58-.05h.85c1.101-.07 2.202.14 3.2.61.703.46 1.089 1.275 1 2.11.009.374-.063.746-.21 1.09-.098.245-.237.471-.41.67-.162.167-.34.317-.53.45-.223.133-.458.247-.7.34-.04.005-.07.04-.07.08-.002.045.027.086.07.1.28.093.57.203.87.33.3.138.582.313.84.52.271.23.49.517.64.84.184.419.27.873.25 1.33.024.548-.085 1.094-.32 1.59-.183.353-.442.66-.76.9-.26.19-.535.36-.82.51-.418.211-.861.366-1.32.46-.592.12-1.196.178-1.8.17H64.4c-.17-.02-.46-.02-.82-.02zm3.77-6.88c.363-.005.724-.042 1.08-.11.4-.077.785-.22 1.14-.42.553-.402.862-1.058.82-1.74 0-.372-.068-.742-.2-1.09-.148-.388-.418-.718-.77-.94-.516-.295-1.107-.431-1.7-.39-.347-.045-.7.029-1 .21-.164.163-.248.39-.23.62v3.18c0 .32.11.51.31.58.177.063.362.097.55.1zm.65 6.12c.523.001 1.038-.126 1.5-.37.452-.233.837-.577 1.12-1 .267-.424.4-.92.38-1.42.014-.407-.068-.811-.24-1.18-.14-.282-.325-.54-.55-.76-.172-.163-.364-.304-.57-.42-.236-.131-.488-.232-.75-.3-.434-.115-.881-.17-1.33-.16-.294-.031-.59.055-.82.24-.125.107-.207.257-.23.42v3.65c-.039.375.102.746.38 1 .328.217.717.323 1.11.3zM73.94 77.48c-.13.005-.258-.016-.38-.06-.1 0-.15-.1-.15-.17s.06-.16.16-.23c.14-.086.291-.15.45-.19.315-.1.611-.248.88-.44.317-.264.555-.61.69-1l1-2.2c.28-.68.55-1.36.81-2 .26-.64.52-1.35.8-2.06l.8-2.32c.06-.17.11-.34.16-.51.051-.18.081-.364.09-.55l.33-.11c.116-.041.226-.095.33-.16.112-.08.194-.197.23-.33.022-.106.062-.208.12-.3.031.057.055.117.07.18.01.076.03.15.06.22.29.93.6 1.88.91 2.84l.93 2.79c.3.9.57 1.71.82 2.42s.45 1.29.6 1.73c.121.395.307.766.55 1.1.162.214.37.388.61.51.22.102.452.175.69.22.163.026.32.084.46.17.08.06.13.15.14.25 0 .08 0 .12-.14.15-.13.012-.26.012-.39 0h-.7l-.93-.06h-2.73c-.126.024-.254.024-.38 0-.1 0-.15-.09-.15-.17 0-.08.06-.15.19-.22.132-.064.274-.104.42-.12.31-.03.606-.14.86-.32.168-.127.262-.33.25-.54-.012-.267-.052-.532-.12-.79-.07-.35-.17-.72-.28-1.12-.11-.4-.21-.75-.31-1 0-.1-.07-.16-.14-.18-.12-.015-.24-.015-.36 0h-3.46c-.056.008-.108.033-.15.07-.077.07-.132.16-.16.26 0 .13-.09.32-.18.58l-.26.83c-.08.3-.15.56-.22.79-.043.144-.073.29-.09.44-.001.258.112.504.31.67.217.182.474.309.75.37.41.11.61.24.61.37s0 .13-.15.16c-.126.018-.254.018-.38 0h-1.7c-.39-.004-.781.013-1.17.05-.333.01-.667.004-1-.02zm4.29-5.25h2.84c.17 0 .25 0 .25-.09.005-.026.005-.054 0-.08.005-.033.005-.067 0-.1l-1.43-4.47c-.07-.22-.13-.33-.17-.33-.04 0-.07.1-.14.31L77.88 72c-.003.047-.003.093 0 .14 0 .06 0 .1.11.11l.24-.02zM86.75 77.42c-.09 0-.14-.09-.14-.15-.003-.11.073-.206.18-.23L87 77c.391-.06.763-.207 1.09-.43.272-.207.419-.54.39-.88v-8.5c.011-.22-.02-.44-.09-.65-.064-.143-.183-.255-.33-.31-.224-.088-.46-.146-.7-.17-.4-.08-.6-.2-.6-.37 0-.17 0-.13.15-.16.126-.019.254-.019.38 0H91.65c.126-.018.254-.018.38 0 .1 0 .15.09.15.16-.004.096-.062.182-.15.22-.144.075-.3.126-.46.15-.392.065-.777.165-1.15.3-.258.107-.425.36-.42.64v8.63c-.02.303.072.602.26.84.338.226.747.322 1.15.27h2.27c.297.006.592-.045.87-.15.202-.078.39-.186.56-.32.204-.162.385-.35.54-.56.137-.226.254-.464.35-.71.045-.114.098-.224.16-.33.08-.15.16-.22.25-.22.072-.004.138.041.16.11.04.067.06.143.06.22-.09.32-.16.6-.23.86s-.12.5-.17.73c-.05.23-.07.48-.1.73-.007.076-.027.15-.06.22-.04.065-.114.101-.19.09H88.6l-1.43.07c-.143.01-.286-.01-.42-.06zM98.53 77.48c-.126.018-.254.018-.38 0-.1 0-.15-.08-.15-.16.006-.09.065-.169.15-.2.147-.063.302-.106.46-.13.386-.05.752-.203 1.06-.44.263-.263.395-.63.36-1v-7.13-1.29c-.013-.214-.053-.426-.12-.63-.06-.12-.13-.19-.23-.2-.178-.04-.358-.063-.54-.07h-1.62c-.298-.002-.594.056-.87.17-.267.1-.49.291-.63.54l-.19.27c-.08.11-.17.21-.27.3-.08.074-.182.12-.29.13-.048.001-.09-.033-.1-.08-.01-.053-.01-.107 0-.16.001-.129.032-.255.09-.37.151-.303.278-.617.38-.94.088-.328.152-.662.19-1 0-.21.07-.33.14-.37.056-.012.114-.012.17 0 0 0 .12.07.23.22.083.116.16.236.23.36.12.158.302.26.5.28.256.06.517.09.78.09h6.44c.335.005.67-.019 1-.07.236-.043.467-.11.69-.2.129-.066.25-.146.36-.24.097-.091.227-.138.36-.13 0 0 .06 0 .09.14.01.093.01.187 0 .28.008.086.008.174 0 .26v.25c-.02.162-.054.323-.1.48-.027.085-.047.172-.06.26-.013.113-.013.227 0 .34v.22c-.007.13-.03.257-.07.38 0 .14-.13.21-.22.21s-.16-.07-.21-.2c-.058-.18-.104-.364-.14-.55-.053-.26-.213-.485-.44-.62-.391-.178-.821-.253-1.25-.22h-1.85c-.206-.015-.413.023-.6.11-.13.07-.22.25-.26.54-.04.29 0 .78 0 1.45v7.2c-.033.374.107.742.38 1 .31.234.675.385 1.06.44.158.024.313.067.46.13.085.031.144.11.15.2 0 .08 0 .13-.15.16-.126.018-.254.018-.38 0H99.5c-.35-.01-.64-.01-.97-.01zM122.2 77.78c-.335.001-.67-.025-1-.08-.295-.057-.579-.161-.84-.31-.27-.156-.511-.36-.71-.6l-.84-1.05c-.27-.34-.56-.73-.86-1.17-.3-.44-.66-1-1.08-1.68-.19-.308-.464-.554-.79-.71-.253-.13-.522-.228-.8-.29-.214-.046-.432-.08-.65-.1-.082-.017-.166.019-.21.09-.042.087-.063.183-.06.28v3.22c-.005.352.089.698.27 1 .236.322.602.524 1 .55.158.024.313.067.46.13.085.031.144.11.15.2 0 .08 0 .13-.15.16-.126.018-.254.018-.38 0-.253.013-.507.013-.76 0l-.48-.07h-1.37l-.72.07h-.85c-.126.018-.254.018-.38 0-.1 0-.15-.08-.15-.16s.2-.25.61-.33c.366-.042.713-.188 1-.42.25-.269.368-.636.32-1v-7.8c.007-.351-.013-.702-.06-1.05-.017-.202-.124-.385-.29-.5-.235-.123-.495-.192-.76-.2-.162-.012-.319-.06-.46-.14-.087-.045-.144-.132-.15-.23 0-.07 0-.13.15-.16.126-.018.254-.018.38 0h1.8c.207.011.413.011.62 0l.61-.05h.87c1.076-.07 2.147.192 3.07.75.693.532 1.07 1.38 1 2.25.013.494-.1.983-.33 1.42-.205.384-.484.724-.82 1-.308.256-.643.477-1 .66 0 0-.07 0-.06.09.005.055.026.107.06.15.38.58.74 1.12 1.09 1.63.35.51.73 1 1.14 1.5.463.539.96 1.047 1.49 1.52.278.262.625.439 1 .51.372.072.75.106 1.13.1.19 0 .28.06.28.2.003.182-.11.346-.28.41-.196.093-.405.154-.62.18-.196.022-.393.032-.59.03zm-6.84-6.41c.725.01 1.423-.27 1.939-.78.515-.51.804-1.205.801-1.93.007-.464-.057-.926-.19-1.37-.125-.417-.4-.773-.77-1-.53-.287-1.129-.42-1.73-.38-.31-.039-.612.11-.77.38-.151.427-.226.877-.22 1.33v3.11c0 .3.08.49.25.55.224.066.457.096.69.09zM124.81 77.48c-.13.018-.26.018-.39 0-.1 0-.15-.08-.15-.16s.21-.25.61-.33c.366-.045.712-.19 1-.42.258-.265.38-.634.33-1v-8.23c.032-.332-.06-.663-.26-.93-.285-.232-.634-.372-1-.4-.16-.024-.316-.075-.46-.15-.088-.038-.146-.124-.15-.22 0-.07 0-.13.15-.16.126-.018.254-.018.38 0H132.17c.066-.013.134-.013.2 0 .061.014.11.06.13.12l.18 1c.056.287.086.578.09.87 0 .11 0 .18-.08.22-.05.036-.11.054-.17.05h-.13c-.033-.043-.06-.09-.08-.14-.06-.21-.12-.41-.18-.59-.039-.156-.114-.3-.22-.42-.152-.178-.349-.312-.57-.39-.21-.069-.43-.103-.65-.1h-2.4c-.149.015-.29.07-.41.16-.155.087-.251.252-.25.43v3.88c-.004.103.032.203.1.28.054.098.159.156.27.15h1.81c.258.025.517-.043.73-.19.174-.201.289-.447.33-.71.07-.27.18-.4.33-.4.06.003.117.028.16.07.056.059.085.139.08.22v2.69c.012.073.012.147 0 .22 0 .06-.06.09-.13.09s-.33-.19-.42-.58c-.052-.227-.155-.438-.3-.62-.142-.15-.344-.227-.55-.21h-1.7c-.162-.008-.323.022-.47.09-.1.047-.15.177-.15.39v3.52c-.048.36.057.722.29 1 .266.194.592.286.92.26h1.35c.334.005.669-.015 1-.06.244-.037.479-.122.69-.25.205-.143.381-.322.52-.53.15-.22.32-.51.52-.88.035-.066.079-.126.13-.18.039-.047.1-.07.16-.06.058.014.11.045.15.09.039.048.057.109.05.17-.013.196-.043.39-.09.58-.062.287-.139.57-.23.85-.087.287-.167.517-.24.69l-.1.22c-.031.059-.094.094-.16.09H126.21l-.61.06c-.2-.15-.47-.15-.79-.15zM137.66 77.69c-.483.004-.963-.074-1.42-.23-.424-.15-.82-.37-1.17-.65l-.13-.17c-.043-.061-.077-.129-.1-.2-.072-.329-.113-.664-.12-1 0-.39 0-.71-.07-1-.004-.08.039-.154.11-.19.078-.049.168-.073.26-.07.06-.013.12-.013.18 0 .06.027.102.084.11.15.156.76.536 1.457 1.09 2 .726.656 1.785.787 2.65.33.328-.182.598-.452.78-.78.19-.364.286-.77.28-1.18.02-.421-.067-.84-.25-1.22-.17-.318-.41-.595-.7-.81-.357-.273-.731-.523-1.12-.75l-1.41-.93c-.443-.29-.832-.656-1.15-1.08-.315-.432-.477-.956-.46-1.49-.008-.59.137-1.172.42-1.69.296-.513.738-.928 1.27-1.19.666-.322 1.4-.476 2.14-.45.384-.008.768.035 1.14.13.265.076.525.166.78.27.097.039.183.1.25.18.061.084.106.179.13.28.08.25.16.55.24.88.085.303.128.616.13.93 0 .13-.09.2-.27.2-.114.001-.226-.023-.33-.07-.086-.036-.154-.104-.19-.19-.194-.548-.496-1.052-.89-1.48-.346-.339-.815-.523-1.3-.51-.343.003-.682.07-1 .2-.323.133-.596.363-.78.66-.217.372-.322.8-.3 1.23-.003.366.124.72.36 1 .267.333.584.623.94.86.39.26.81.54 1.26.82.45.28.85.54 1.26.84.398.298.737.668 1 1.09.28.467.42 1.006.4 1.55.014.664-.16 1.32-.5 1.89-.33.547-.814.985-1.39 1.26-.655.357-1.384.556-2.13.58zM149.34 77.65c-.79.005-1.574-.14-2.31-.43-.719-.278-1.378-.692-1.94-1.22-.568-.538-1.024-1.184-1.34-1.9-.335-.776-.502-1.615-.49-2.46-.005-.814.13-1.622.4-2.39.265-.737.67-1.416 1.19-2 .554-.617 1.237-1.105 2-1.43.847-.37 1.765-.551 2.69-.53.79-.005 1.574.14 2.31.43.72.275 1.38.69 1.94 1.22.567.543 1.023 1.192 1.34 1.91.335.776.502 1.615.49 2.46.003.81-.132 1.615-.4 2.38-.268.735-.672 1.413-1.19 2-.557.614-1.239 1.101-2 1.43-.849.365-1.766.546-2.69.53zm.27-.73c.825.03 1.64-.178 2.35-.6.623-.4 1.11-.979 1.4-1.66.322-.793.479-1.644.46-2.5.003-.802-.094-1.602-.29-2.38-.176-.71-.47-1.387-.87-2-.753-1.166-2.063-1.85-3.45-1.8-.81-.03-1.61.171-2.31.58-.622.394-1.113.965-1.41 1.64-.333.783-.493 1.63-.47 2.48-.007.809.087 1.615.28 2.4.173.71.464 1.386.86 2 .367.555.86 1.014 1.44 1.34.613.343 1.307.516 2.01.5zM168.07 77.78c-.335.002-.67-.025-1-.08-.299-.055-.586-.16-.85-.31-.27-.156-.511-.36-.71-.6l-.84-1.05c-.27-.34-.55-.73-.85-1.17-.3-.44-.67-1-1.09-1.68-.19-.308-.464-.554-.79-.71-.253-.13-.522-.228-.8-.29-.214-.046-.432-.08-.65-.1-.082-.017-.166.019-.21.09-.042.087-.063.183-.06.28v3.22c-.005.352.089.698.27 1 .237.32.603.52 1 .55.155.023.306.067.45.13.085.031.144.11.15.2 0 .08-.05.13-.15.16-.126.019-.254.019-.38 0-.253.013-.507.013-.76 0l-.48-.07h-1.37l-.71.07h-.86c-.126.018-.254.018-.38 0-.1 0-.15-.08-.15-.16s.2-.25.61-.33c.366-.042.713-.188 1-.42.25-.269.368-.636.32-1v-7.8c.007-.351-.013-.702-.06-1.05-.017-.202-.124-.385-.29-.5-.235-.123-.495-.192-.76-.2-.162-.012-.319-.06-.46-.14-.087-.045-.144-.132-.15-.23 0-.07.05-.13.15-.16.126-.018.254-.018.38 0h1.8c.207.011.413.011.62 0l.61-.05h.87c1.076-.071 2.148.19 3.07.75.712.521 1.108 1.37 1.05 2.25.013.494-.1.983-.33 1.42-.205.384-.484.724-.82 1-.308.256-.643.477-1 .66 0 0-.07 0-.06.09.01.053.03.104.06.15.38.58.74 1.12 1.09 1.63.356.52.74 1.021 1.15 1.5.456.541.951 1.05 1.48 1.52.278.262.625.439 1 .51.372.072.75.106 1.13.1.19 0 .28.06.28.2.003.182-.11.346-.28.41-.196.093-.405.154-.62.18-.206.023-.413.033-.62.03zm-6.85-6.41c.51.013 1.012-.119 1.45-.38.825-.486 1.331-1.372 1.33-2.33.007-.464-.057-.926-.19-1.37-.125-.417-.4-.773-.77-1-.53-.287-1.129-.42-1.73-.38-.307-.04-.608.11-.76.38-.161.424-.236.876-.22 1.33v3.11c0 .3.08.49.26.55.204.06.417.09.63.09zM171.55 77.48c-.13.018-.26.018-.39 0-.1 0-.15-.08-.15-.16.006-.09.065-.169.15-.2.147-.063.302-.106.46-.13.386-.049.753-.2 1.06-.44.265-.262.4-.628.37-1v-7.13-1.29c-.002-.215-.043-.429-.12-.63-.033-.105-.122-.182-.23-.2-.178-.04-.358-.063-.54-.07h-1.66c-.298-.002-.594.056-.87.17-.265.103-.488.294-.63.54l-.18.27c-.086.107-.18.207-.28.3-.078.077-.18.123-.29.13-.047-.003-.087-.035-.1-.08-.01-.053-.01-.107 0-.16.001-.129.032-.255.09-.37.151-.303.278-.617.38-.94.088-.328.152-.662.19-1 0-.21.07-.33.14-.37.056-.01.114-.01.17 0 0 0 .13.07.23.22.083.116.16.236.23.36.12.158.302.26.5.28.256.059.517.09.78.09h6.45c.335.005.67-.019 1-.07.24-.043.474-.11.7-.2.124-.068.242-.148.35-.24.097-.091.227-.138.36-.13 0 0 .07 0 .09.14.01.093.01.187 0 .28.007.087.007.173 0 .26-.012.084-.028.168-.05.25-.02.162-.054.323-.1.48-.027.085-.047.172-.06.26-.008.113-.008.227 0 .34v.22c-.002.13-.025.258-.07.38-.05.14-.12.21-.22.21s-.16-.07-.2-.2c-.062-.18-.112-.364-.15-.55-.053-.26-.213-.485-.44-.62-.388-.178-.815-.253-1.24-.22h-1.85c-.21-.015-.42.023-.61.11-.13.07-.22.25-.25.54-.049.482-.069.966-.06 1.45v7.2c-.035.376.11.747.39 1 .32.242.7.394 1.1.44.155.023.306.067.45.13.085.031.144.11.15.2 0 .08-.05.13-.15.16-.126.019-.254.019-.38 0H172.44c-.28-.01-.57-.01-.89-.01zM32.21 99.45c-.126.018-.254.018-.38 0-.1 0-.15-.08-.15-.16s.2-.25.61-.33c.372-.026.725-.178 1-.43.203-.292.295-.646.26-1v-8.25c.03-.325-.062-.65-.26-.91-.286-.229-.635-.365-1-.39-.41-.08-.61-.2-.61-.37 0-.17 0-.13.15-.16.126-.018.254-.018.38 0H36c.126-.019.254-.019.38 0 .1 0 .15.09.15.16-.004.096-.062.182-.15.22-.117.076-.245.133-.38.17-.46.08-.73.23-.84.44-.11.273-.162.566-.15.86v3.4c-.004.07-.004.14 0 .21 0 .09 0 .14.08.14.091-.015.177-.053.25-.11.087-.066.167-.14.24-.22L39.22 89c.089-.078.16-.173.21-.28.047-.082.07-.175.07-.27.007-.209-.143-.39-.35-.42-.152-.038-.3-.091-.44-.16-.076-.039-.125-.115-.13-.2 0-.08.05-.13.15-.16.126-.018.254-.018.38 0h3.96c.1-.005.2.016.29.06.065.014.112.073.11.14-.004.093-.057.177-.14.22-.144.075-.3.126-.46.15-.48.092-.953.226-1.41.4-.504.188-.97.462-1.38.81-.43.36-.84.72-1.21 1.07-.37.35-.74.71-1.11 1.08-.37.37-.76.79-1.19 1.27-.067.073-.037.183.09.33l4.43 4.72c.27.3.49.52.65.68.16.157.347.285.55.38.264.11.539.19.82.24.153.035.304.082.45.14.085.025.145.101.15.19 0 .08-.05.13-.15.16-.126.019-.254.019-.38 0h-.92l-.75-.05h-2.36c-.126.019-.254.019-.38 0-.1 0-.15-.09-.15-.16s.17-.24.49-.31c.32-.07.52-.21.52-.37-.005-.081-.037-.159-.09-.22-.059-.083-.122-.164-.19-.24l-3.88-4.28-.23-.21c-.05-.054-.117-.09-.19-.1 0 0-.07 0-.07.15V95.63c0 .52 0 1.15.07 1.88.007.241.048.48.12.71.057.215.179.408.35.55.2.165.443.273.7.31.158.024.313.067.46.13.083.032.138.111.14.2 0 .08 0 .13-.14.16-.13.018-.26.018-.39 0-.253.013-.507.013-.76 0l-.47-.07h-1.34l-.69.07c-.213-.08-.487-.12-.82-.12z" transform="translate(0 1) translate(10 -.5)"/>
                <path fill="#424242" fill-rule="nonzero" d="M44.08 99.45c-.133.004-.265-.016-.39-.06-.1 0-.14-.1-.14-.17.008-.095.065-.178.15-.22.14-.086.291-.15.45-.19.315-.1.611-.248.88-.44.317-.264.555-.61.69-1 .35-.78.66-1.52 1-2.2.34-.68.56-1.36.81-2 .25-.64.52-1.35.8-2.06l.87-2.34c.06-.17.11-.34.16-.51.051-.18.081-.364.09-.55l.33-.11c.118-.04.229-.098.33-.17.114-.075.195-.189.23-.32.022-.106.062-.208.12-.3h.05c.031.057.055.117.07.18l.06.22c.29.93.6 1.88.92 2.84.32.96.62 1.9.92 2.79.3.89.57 1.71.82 2.42s.45 1.29.6 1.73c.121.395.307.766.55 1.1.162.214.37.388.61.51.22.1.452.174.69.22.165.02.322.078.46.17.08.06.13.15.14.25 0 .08 0 .12-.14.15-.13.012-.26.012-.39 0h-.69l-.94-.06h-2.84c-.129.023-.261.023-.39 0-.1 0-.15-.09-.15-.17 0-.08.06-.16.19-.22.132-.064.274-.104.42-.12.31-.03.606-.14.86-.32.16-.12.252-.31.25-.51-.013-.266-.05-.53-.11-.79-.08-.35-.18-.72-.29-1.12-.11-.4-.21-.75-.31-1-.007-.082-.062-.153-.14-.18-.116-.015-.234-.015-.35 0h-3.46c-.059.008-.114.032-.16.07-.074.072-.128.162-.16.26 0 .13-.09.32-.18.58-.09.26-.17.54-.25.83-.08.29-.16.56-.22.79-.05.142-.083.29-.1.44-.002.26.116.508.32.67.214.185.473.313.75.37.4.11.6.24.6.37s0 .13-.15.16c-.126.019-.254.019-.38 0h-1.7c-.39-.004-.781.013-1.17.05-.33.004-.66-.01-.99-.04zm4.28-5.25h2.84c.17 0 .25 0 .25-.09V93.9L50 89.46c-.07-.22-.13-.33-.16-.33s-.08.1-.15.31L48 93.93c-.005.047-.005.093 0 .14-.003.028.006.056.026.077.019.021.046.033.074.033l.26.02zM57.13 99.45c-.126.019-.254.019-.38 0-.1 0-.15-.08-.15-.16.006-.09.065-.169.15-.2.144-.063.295-.107.45-.13.296-.049.563-.205.75-.44.225-.288.36-.636.39-1 .15-1.1.27-2.15.38-3.14.11-.99.2-1.9.27-2.7.07-.8.1-1.45.1-2v-.32c.005-.097.005-.193 0-.29v-.3c-.042-.12-.119-.224-.22-.3-.188-.166-.405-.294-.64-.38-.244-.07-.49-.126-.74-.17-.107-.02-.208-.068-.29-.14-.068-.057-.108-.141-.11-.23 0-.09.06-.15.17-.17.15-.012.3-.012.45 0h1.38l.81.06h.56c.08-.003.157.022.22.07.065.058.11.135.13.22.06.22.12.45.18.7.058.241.132.478.22.71L64 96.56c.036.084.11.144.2.16.087.02.177-.021.22-.1l3.61-7.51c.06-.21.12-.44.18-.7.06-.26.11-.48.15-.67.04-.19.1-.24.18-.24h.66c.388 0 .775-.023 1.16-.07.308-.043.619-.07.93-.08h.24c.04.003.077.02.103.05.027.03.04.07.037.11.003.08-.034.155-.1.2-.116.074-.24.134-.37.18l-.53.2-.55.22c-.128.048-.236.135-.31.25-.085.104-.13.235-.13.37v2.41c0 .75.07 1.47.1 2.16.03.69.08 1.37.13 2 .05.63.09 1.36.13 2.05 0 .328.134.642.37.87.287.233.633.382 1 .43.158.024.313.067.46.13.085.031.144.11.15.2 0 .08 0 .13-.15.16-.126.018-.254.018-.38 0h-.82l-.61-.05h-1.33l-.53.05h-.78c-.126.018-.254.018-.38 0-.1 0-.15-.08-.15-.16.007-.092.065-.173.15-.21.146-.063.301-.104.46-.12.285-.014.55-.148.73-.37.152-.29.22-.614.2-.94v-2.38c0-.7 0-1.41-.08-2.1-.08-.69-.07-1.44-.11-2.26 0-.14 0-.2-.11-.19-.11.01-.12.07-.18.19l-4.21 8.58c-.029.068-.096.112-.17.11-.076.007-.145-.045-.16-.12-.48-1.43-1-2.84-1.53-4.22s-1.16-2.88-1.84-4.48c-.02-.054-.072-.09-.13-.09-.027-.003-.053.005-.074.022-.02.017-.033.041-.036.068-.11.85-.21 1.64-.3 2.35-.09.71-.16 1.42-.21 2.12-.05.7-.08 1.46-.08 2.29.002.326.111.642.31.9.216.28.53.466.88.52.158.024.313.067.46.13.085.031.144.11.15.2 0 .08 0 .13-.15.16-.126.018-.254.018-.38 0h-.75l-.43-.05h-1.06l-.42.05c-.228.048-.458.085-.69.11zM80.2 99.64c-.843.001-1.68-.148-2.47-.44-.784-.28-1.507-.708-2.13-1.26-1.292-1.131-2.024-2.773-2-4.49-.007-.85.185-1.688.56-2.45.37-.768.898-1.45 1.55-2 .678-.571 1.454-1.015 2.29-1.31.86-.31 1.767-.465 2.68-.46.403-.023.807-.023 1.21 0 .336.036.67.09 1 .16.32.06.68.15 1.09.26.153.029.294.106.4.22.084.117.132.256.14.4 0 .28 0 .59.09.91.09.32.06.72.07 1.2.006.088-.042.17-.12.21-.093.04-.197.04-.29 0-.112-.025-.196-.117-.21-.23-.104-.412-.245-.813-.42-1.2-.16-.34-.409-.63-.72-.84-.37-.179-.77-.288-1.18-.32-.458-.111-.928-.165-1.4-.16-.69-.008-1.374.139-2 .43-.595.279-1.126.677-1.56 1.17-.423.502-.76 1.07-1 1.68-.225.601-.34 1.238-.34 1.88.002.747.12 1.49.35 2.2.215.72.554 1.396 1 2 .433.564.974 1.036 1.59 1.39.63.35 1.34.53 2.06.52.771.031 1.533-.179 2.18-.6.607-.45 1.108-1.027 1.47-1.69.064-.147.21-.241.37-.24.17 0 .25.1.25.3-.012.156-.039.31-.08.46-.047.23-.11.458-.19.68-.08.24-.15.45-.23.63-.048.123-.119.235-.21.33-.111.08-.237.138-.37.17-.522.197-1.066.33-1.62.4-.6.067-1.205.097-1.81.09zM87 99.45c-.13.005-.258-.016-.38-.06-.1 0-.15-.1-.15-.17s.2-.22.59-.3c.342-.02.664-.17.9-.42.18-.3.253-.653.21-1v-8.22c.02-.31-.023-.62-.13-.91-.087-.18-.367-.31-.84-.39-.473-.08-.673-.19-.6-.33 0-.082.052-.154.13-.18.128-.047.264-.067.4-.06H90.91c.33 0 .53.08.53.24-.006.09-.065.169-.15.2-.147.063-.302.106-.46.13-.373.03-.726.185-1 .44-.197.242-.297.548-.28.86v3.6c-.008.062.03.121.09.14h6.96c.08 0 .13-.08.13-.22v-3.54c.009-.298-.083-.59-.26-.83-.264-.272-.622-.433-1-.45-.158-.024-.313-.067-.46-.13-.085-.031-.144-.11-.15-.2 0-.16.18-.24.53-.24H98.45c.247-.013.493-.013.74 0 .133-.006.265.014.39.06.08.025.135.097.14.18 0 .14-.21.25-.61.33-.4.08-.73.23-.82.43-.111.269-.162.56-.15.85v8.27c-.03.343.032.689.18 1 .11.2.39.34.85.42.46.08.58.17.58.3-.008.08-.064.146-.14.17-.125.044-.257.064-.39.06h-.77l-.51-.05h-1.25l-.54.05h-.79c-.133.004-.265-.016-.39-.06-.076-.024-.132-.09-.14-.17-.004-.085.049-.163.13-.19l.45-.11c.346-.047.67-.197.93-.43.235-.239.358-.566.34-.9v-3.79c.003-.025-.005-.05-.023-.067-.017-.018-.042-.026-.067-.023h-7c-.06 0-.09.07-.09.2v3.48c-.01.378.143.742.42 1 .272.272.621.453 1 .52.152.027.302.064.45.11.083.026.14.103.14.19 0 .07 0 .13-.15.17-.122.044-.25.065-.38.06h-.82l-.61-.05H88.19l-.57.05c-.07-.02-.34-.02-.62-.02zM101.07 99.45c-.133.004-.265-.016-.39-.06-.076-.024-.132-.09-.14-.17.004-.098.062-.186.15-.23.142-.081.293-.145.45-.19.315-.1.611-.248.88-.44.317-.266.558-.611.7-1 .34-.78.65-1.52.94-2.2.29-.68.56-1.36.81-2 .25-.64.53-1.35.8-2.06l.87-2.34c.062-.167.116-.337.16-.51.05-.18.083-.364.1-.55l.33-.11c.118-.04.229-.098.33-.17.111-.075.19-.19.22-.32.03-.103.071-.204.12-.3.031.057.055.117.07.18l.06.22c.3.93.6 1.88.92 2.84.32.96.62 1.9.92 2.79.3.89.58 1.71.83 2.42s.44 1.29.59 1.73c.126.393.311.764.55 1.1.164.212.372.386.61.51.221.099.453.173.69.22.165.02.322.078.46.17.085.057.14.148.15.25 0 .08 0 .12-.15.15-.13.012-.26.012-.39 0h-.69l-.94-.06h-2.83c-.129.023-.261.023-.39 0-.1 0-.14-.09-.14-.17 0-.08.06-.16.18-.22.132-.064.274-.104.42-.12.31-.03.606-.14.86-.32.162-.12.258-.309.26-.51-.012-.267-.052-.532-.12-.79-.08-.35-.18-.72-.29-1.12-.11-.4-.21-.75-.31-1-.007-.082-.062-.153-.14-.18-.116-.015-.234-.015-.35 0h-3.46c-.059.008-.114.032-.16.07-.07.074-.121.163-.15.26 0 .13-.1.32-.19.58-.09.26-.17.54-.25.83-.08.29-.16.56-.22.79-.043.144-.073.29-.09.44-.006.26.109.506.31.67.217.182.474.309.75.37.4.11.6.24.6.37-.007.078-.063.143-.14.16-.13.018-.26.018-.39 0h-1.69c-.394-.004-.788.013-1.18.05-.3.004-.6-.006-.9-.03zm4.28-5.25h2.84c.17 0 .26 0 .26-.09v-.18L107 89.46c-.07-.22-.13-.33-.16-.33s-.08.1-.15.31L105 93.93c-.005.047-.005.093 0 .14-.003.028.006.056.026.077.019.021.046.033.074.033l.25.02zM115.42 99.45c-.126.018-.254.018-.38 0-.1 0-.15-.08-.15-.16.006-.09.065-.169.15-.2.147-.063.302-.106.46-.13.386-.05.752-.203 1.06-.44.263-.263.395-.63.36-1v-7.13-1.29c-.013-.214-.053-.426-.12-.63-.06-.12-.13-.19-.23-.2-.178-.04-.358-.063-.54-.07h-1.62c-.298-.002-.594.056-.87.17-.267.1-.49.291-.63.54-.059.09-.122.177-.19.26-.077.114-.167.218-.27.31-.08.071-.183.114-.29.12-.046.006-.09-.024-.1-.07-.01-.053-.01-.107 0-.16.001-.129.032-.255.09-.37.151-.303.278-.617.38-.94.083-.33.147-.663.19-1 0-.21.07-.33.14-.37.056-.012.114-.012.17 0 0 0 .12.07.23.22.083.116.16.236.23.36.12.158.302.26.5.28.256.06.517.09.78.09h6.44c.335.005.67-.019 1-.07.236-.043.467-.11.69-.2.129-.066.25-.146.36-.24.097-.091.227-.138.36-.13 0 0 .06 0 .09.14.01.093.01.187 0 .28v.26c0 .11 0 .19-.05.25 0 .22-.07.38-.1.48-.026.082-.046.165-.06.25-.013.116-.013.234 0 .35v.22c-.005.13-.033.259-.08.38 0 .14-.12.21-.22.21s-.15-.07-.2-.2c-.058-.18-.104-.364-.14-.55-.053-.26-.213-.485-.44-.62-.391-.178-.821-.253-1.25-.22h-1.87c-.205-.013-.41.02-.6.1-.14.08-.22.26-.26.55-.04.29 0 .78 0 1.45v7.2c-.033.374.107.742.38 1 .31.234.675.385 1.06.44.158.024.313.067.46.13.085.031.144.11.15.2 0 .08-.05.13-.15.16-.126.018-.254.018-.38 0h-.82l-.61-.05h-1.51l-.7.05c-.32-.01-.57-.01-.9-.01zM124.87 99.45c-.13.018-.26.018-.39 0-.09 0-.14-.08-.14-.16s.2-.25.6-.33c.374-.021.728-.173 1-.43.21-.288.307-.645.27-1v-8.25c.033-.327-.064-.654-.27-.91-.284-.233-.634-.37-1-.39-.4-.08-.6-.2-.6-.37.007-.078.063-.143.14-.16.13-.018.26-.018.39 0H128.69c.13-.018.26-.018.39 0 .1 0 .15.09.15.16-.004.096-.062.182-.15.22-.144.075-.3.126-.46.15-.45.08-.73.23-.83.44-.12.27-.174.565-.16.86v3.63c0 .09 0 .14.08.14.092-.012.18-.05.25-.11.092-.063.175-.137.25-.22l3.67-3.72c.089-.078.16-.173.21-.28.042-.084.066-.176.07-.27.007-.209-.143-.39-.35-.42-.152-.036-.3-.09-.44-.16-.079-.035-.13-.114-.13-.2 0-.08 0-.13.15-.16.126-.02.254-.02.38 0h3.95c.103-.005.206.016.3.06.062.02.105.075.11.14-.004.096-.062.182-.15.22-.144.075-.3.126-.46.15-.48.092-.953.226-1.41.4-.5.19-.963.464-1.37.81-.44.36-.84.72-1.22 1.07-.38.35-.74.71-1.1 1.08-.36.37-.77.79-1.19 1.27-.08.073-.05.183.09.33l4.43 4.72c.27.3.48.52.65.68.159.159.345.287.55.38.26.108.532.189.81.24.156.036.31.082.46.14.085.025.145.101.15.19 0 .08-.05.13-.15.16-.13.018-.26.018-.39 0h-.91l-.75-.05h-2.36c-.13.018-.26.018-.39 0-.078-.014-.137-.08-.14-.16 0-.13.16-.24.49-.31.33-.07.51-.21.51-.37 0-.08-.029-.158-.08-.22L132 98l-3.88-4.28-.23-.21c-.05-.054-.117-.09-.19-.1-.05 0-.08 0-.08.15V95.43c0 .52 0 1.15.06 1.88.017.24.057.478.12.71.064.212.185.402.35.55.204.165.45.272.71.31.155.023.306.067.45.13.085.031.144.11.15.2 0 .08-.05.13-.15.16-.126.019-.254.019-.38 0-.253.013-.507.013-.76 0l-.48-.07h-1.33l-.69.07c-.207.053-.473.08-.8.08z" transform="translate(0 1) translate(10 -.5)"/>
                <path fill="#424242" fill-rule="nonzero" d="M136.73 99.45c-.13.005-.258-.016-.38-.06-.1 0-.15-.1-.15-.17.004-.101.066-.191.16-.23.14-.086.291-.15.45-.19.311-.1.605-.248.87-.44.32-.264.562-.61.7-1 .34-.78.66-1.52.94-2.2.28-.68.56-1.36.82-2l.79-2.06c.28-.72.57-1.5.87-2.34.06-.17.12-.34.17-.51.051-.18.081-.364.09-.55l.33-.11c.118-.04.229-.098.33-.17.114-.075.195-.189.23-.32.022-.106.062-.208.12-.3.023.059.043.119.06.18.017.075.04.149.07.22.29.93.59 1.88.91 2.84l.93 2.79c.3.9.57 1.71.82 2.42s.45 1.29.6 1.73c.121.395.307.766.55 1.1.16.216.369.391.61.51.217.1.445.174.68.22.165.02.322.078.46.17.085.057.14.148.15.25 0 .08-.05.12-.15.15-.126.012-.254.012-.38 0h-.7l-.93-.06H144c-.126.024-.254.024-.38 0-.1 0-.15-.09-.15-.17 0-.08.06-.16.18-.22.133-.062.274-.103.42-.12.31-.028.607-.139.86-.32.165-.117.262-.308.26-.51-.012-.267-.052-.532-.12-.79-.08-.35-.17-.72-.28-1.12-.11-.4-.22-.75-.31-1 0-.1-.07-.16-.14-.18-.12-.015-.24-.015-.36 0h-3.46c-.056.006-.109.03-.15.07-.077.07-.132.16-.16.26l-.18.58c-.09.26-.17.54-.26.83-.09.29-.16.56-.22.79-.043.144-.073.29-.09.44-.006.26.109.506.31.67.217.182.474.309.75.37.4.11.61.24.61.37s0 .13-.15.16c-.126.018-.254.018-.38 0h-1.7c-.39-.004-.781.013-1.17.05-.334.007-.667-.003-1-.03zM141 94.2h2.83c.18 0 .26 0 .26-.09.005-.026.005-.054 0-.08.004-.033.004-.067 0-.1l-1.42-4.47c-.08-.22-.13-.33-.17-.33-.04 0-.07.1-.15.31l-1.66 4.49c-.008.046-.008.094 0 .14 0 .057.043.105.1.11l.21.02zM39.32 118.67c-.15-.03-.292-.087-.42-.17-.231-.143-.43-.334-.58-.56-.13-.133-.254-.273-.37-.42l-.58-.67c-.23-.26-.47-.53-.72-.83l-.76-.87-.71-.82-.59-.68c-.17-.2-.31-.34-.39-.43-.031-.044-.068-.085-.11-.12-.029-.012-.061-.012-.09 0l-.07.08c-.005.05-.005.1 0 .15v4.01c-.003.198.06.392.18.55.148.18.359.299.59.33.086.015.17.038.25.07.052.023.087.073.09.13 0 .05 0 .08-.09.1-.072.017-.148.017-.22 0h-2.1c-.07.011-.14.011-.21 0-.06 0-.09 0-.09-.11-.003-.053.03-.102.08-.12.083-.042.17-.075.26-.1.183-.045.34-.16.44-.32.096-.172.151-.363.16-.56 0-.28.06-.65.09-1.1.03-.45.06-1 .09-1.53s0-1.15 0-1.75c.034-.308-.077-.615-.3-.83-.224-.186-.482-.325-.76-.41l-.19-.09c-.09 0-.13-.09-.13-.16-.007-.06.032-.115.09-.13H34.17c.052-.018.108-.018.16 0l.1.11c.08.1.2.25.38.45l.6.73.74.88.79.94.75.89.61.72.37.44c.039.038.075.078.11.12.032.04.079.065.13.07.06 0 .1-.07.11-.21v-1.68-1.22-1.28c-.013-.164-.097-.314-.23-.41-.138-.11-.298-.189-.47-.23-.1-.011-.197-.035-.29-.07-.09 0-.13-.09-.13-.15s0-.07.13-.1h2.27c.073-.012.147-.012.22 0 .047.017.079.06.08.11 0 .1-.11.18-.34.22-.193.025-.377.093-.54.2-.104.114-.158.266-.15.42v4.81c-.01.17-.01.34 0 .51v.7c.01.1-.018.2-.08.28-.038.06-.1.1-.17.11zM44.83 118.63c-.479 0-.953-.087-1.4-.26-.438-.168-.838-.42-1.18-.74-.348-.32-.627-.708-.82-1.14-.205-.466-.307-.97-.3-1.48-.003-.488.081-.972.25-1.43.156-.454.401-.872.72-1.23.331-.365.737-.655 1.19-.85.517-.224 1.077-.333 1.64-.32.483-.007.962.082 1.41.26.437.165.838.412 1.18.73.348.32.627.708.82 1.14.204.466.306.971.3 1.48 0 .487-.08.97-.24 1.43-.164.452-.411.87-.73 1.23-.334.365-.739.658-1.19.86-.522.22-1.084.329-1.65.32zm.18-.47c.453.02.9-.103 1.28-.35.348-.252.615-.6.77-1 .177-.47.262-.968.25-1.47.004-.468-.05-.935-.16-1.39-.091-.416-.25-.815-.47-1.18-.2-.334-.478-.615-.81-.82-.343-.198-.734-.299-1.13-.29-.442-.012-.878.11-1.25.35-.353.246-.622.596-.77 1-.185.464-.273.96-.26 1.46-.003.474.048.947.15 1.41.093.416.251.814.47 1.18.2.331.474.612.8.82.34.198.728.295 1.12.28h.01zM56.1 118.7c-.24.006-.478-.021-.71-.08-.2-.05-.39-.135-.56-.25-.165-.111-.313-.246-.44-.4l-.49-.64c-.16-.21-.32-.44-.49-.7-.17-.26-.37-.57-.59-.95-.088-.175-.233-.316-.41-.4-.117-.07-.246-.117-.38-.14h-.31c-.048-.002-.093.02-.12.06-.013.053-.013.107 0 .16v2c-.008.205.055.407.18.57.158.17.37.28.6.31.083.01.164.034.24.07.047.027.077.076.08.13.002.045-.027.086-.07.1-.07.016-.14.016-.21 0H49.63c-.07.011-.14.011-.21 0-.049-.014-.082-.06-.08-.11 0-.09.11-.16.32-.2.218-.031.424-.117.6-.25.135-.15.2-.35.18-.55v-4.76c.014-.19.014-.38 0-.57-.017-.115-.088-.215-.19-.27-.133-.073-.28-.117-.43-.13-.09-.002-.176-.03-.25-.08-.046-.032-.075-.084-.08-.14.003-.047.035-.087.08-.1.07-.016.14-.016.21 0h1.23c.13.01.26.01.39 0H52.36c.657-.045 1.311.109 1.88.44.441.304.691.816.66 1.35.008.294-.065.584-.21.84-.123.23-.298.429-.51.58-.187.148-.392.273-.61.37 0 0-.05 0 0 0-.003.03-.003.06 0 .09l.66 1c.21.3.43.6.67.88.257.298.531.582.82.85.175.174.398.292.64.34.238.042.479.062.72.06.11 0 .16.05.16.15.003.121-.063.233-.17.29-.126.075-.265.126-.41.15-.189-.002-.377-.025-.56-.07zm-4-3.9c.285.01.566-.064.81-.21.22-.142.399-.338.52-.57.12-.242.182-.51.18-.78.006-.282-.038-.563-.13-.83-.074-.234-.226-.435-.43-.57-.283-.148-.601-.217-.92-.2-.166-.018-.327.065-.41.21-.098.258-.14.534-.12.81v1.7c-.02.13.039.26.15.33.106.057.221.094.34.11h.01zM58.31 118.52c-.07.011-.14.011-.21 0-.06 0-.09 0-.09-.11.004-.054.04-.1.09-.12.076-.037.157-.064.24-.08.228-.034.444-.123.63-.26.153-.144.23-.35.21-.56V113c.013-.243.013-.487 0-.73 0-.116-.02-.231-.06-.34-.02-.054-.065-.095-.12-.11-.1-.015-.2-.015-.3 0h-.81c-.197 0-.392.044-.57.13-.175.072-.322.198-.42.36l-.13.18c-.05.073-.11.137-.18.19-.05.054-.117.086-.19.09-.029.013-.061.013-.09 0-.011-.036-.011-.074 0-.11.005-.084.029-.166.07-.24.103-.195.186-.4.25-.61.06-.206.1-.417.12-.63.003-.082.035-.16.09-.22.043-.012.087-.012.13 0 0 0 .09 0 .15.13l.15.23c.09.085.206.138.33.15.147.038.298.058.45.06h4c.186.018.374.018.56 0 .128-.02.252-.057.37-.11.089-.043.17-.1.24-.17.062-.06.144-.092.23-.09l.07.07c.005.053.005.107 0 .16.004.043.004.087 0 .13-.004.05-.004.1 0 .15-.023.108-.053.215-.09.32v.23c-.007.09-.007.18 0 .27v.15c.015.086.015.174 0 .26 0 .08-.07.12-.13.12s-.11 0-.15-.12c-.04-.12-.07-.19-.11-.33-.034-.18-.138-.338-.29-.44-.225-.127-.483-.183-.74-.16h-.92c-.117-.004-.234.02-.34.07-.096.084-.154.203-.16.33-.02.276-.02.554 0 .83v4.35c-.018.208.064.412.22.55.185.14.401.233.63.27.08.011.157.035.23.07.052.023.087.073.09.13-.003.047-.035.087-.08.1-.069.018-.141.018-.21 0H59.04l-.73-.15zM64.06 118.52c-.063.012-.127.012-.19 0-.05 0-.08-.06-.08-.11s.1-.15.31-.19c.201-.027.39-.114.54-.25.097-.16.142-.344.13-.53v-5c.012-.182-.023-.364-.1-.53-.138-.135-.318-.22-.51-.24-.21 0-.32-.11-.32-.21.006-.048.036-.09.08-.11.065-.02.135-.02.2 0h2.58c.19 0 .29 0 .29.14.001.055-.03.106-.08.13-.076.037-.157.064-.24.08-.213.038-.413.131-.58.27-.114.14-.171.32-.16.5v2.1c-.016.031-.016.069 0 .1h3.78c.06 0 .09 0 .09-.14v-2.08c.015-.177-.039-.352-.15-.49-.155-.153-.355-.251-.57-.28-.084-.013-.165-.04-.24-.08-.05-.024-.081-.075-.08-.13 0-.09.09-.14.27-.14h2.58c.066-.017.134-.017.2 0 .044.02.074.062.08.11 0 .1-.11.17-.32.21-.194.017-.374.11-.5.26-.076.155-.11.327-.1.5v5c-.014.19.024.38.11.55.137.139.317.227.51.25.21 0 .31.11.31.19s0 .08-.08.11c-.066.011-.134.011-.2 0H69.09c-.066.012-.134.012-.2 0-.043-.02-.07-.063-.07-.11-.008-.052.021-.102.07-.12.076-.036.157-.06.24-.07.206-.037.399-.127.56-.26.129-.137.194-.322.18-.51v-2.12c.006-.04.006-.08 0-.12H66c-.06 0-.09 0-.09.13v2.08c-.002.205.077.403.22.55.17.156.382.26.61.3.083.01.164.034.24.07.049.018.078.068.07.12 0 .047-.027.09-.07.11-.07.013-.14.013-.21 0h-2.19l-.52-.04zM75.18 118.53c-.073.012-.147.012-.22 0-.05-.02-.086-.066-.09-.12.001-.06.036-.114.09-.14.076-.044.157-.081.24-.11.192-.058.375-.146.54-.26.176-.144.314-.33.4-.54.19-.45.38-.87.55-1.28.17-.41.33-.81.48-1.2l.47-1.23c.16-.42.33-.87.5-1.34.06-.17.11-.31.14-.43.013-.1.013-.2 0-.3l.27-.07c.091-.03.178-.07.26-.12.089-.035.16-.103.2-.19l.12-.18c.004.04.004.08 0 .12-.005.05-.005.1 0 .15.16.53.34 1.07.52 1.63.18.56.35 1.09.53 1.62.18.53.34 1 .5 1.46l.39 1.19c.06.2.16.387.29.55.183.149.406.24.64.26.127.06.262.103.4.13.09.014.175.048.25.1.052.037.082.097.08.16 0 0 0 .07-.08.09-.066.012-.134.012-.2 0h-3c-.07.016-.14.016-.21 0-.047-.01-.081-.052-.08-.1 0-.063.04-.119.1-.14.071-.04.15-.067.23-.08.194-.02.38-.089.54-.2.109-.081.163-.216.14-.35-.013-.159-.04-.316-.08-.47 0-.18-.09-.38-.15-.59l-.17-.58c-.005-.043-.031-.08-.07-.1-.063-.014-.127-.014-.19 0h-2c-.033-.01-.067-.01-.1 0-.039.044-.07.095-.09.15 0 .09-.06.2-.1.33-.04.13-.1.28-.14.43-.04.15-.08.29-.12.42-.04.13-.05.22-.06.28-.026.158.026.318.14.43.145.126.321.212.51.25.22.06.33.13.33.22-.001.05-.033.093-.08.11H75.81c-.209.028-.42.041-.63.04zm2.6-3.18h1.76v-.12l-.81-2.61c0-.11-.07-.17-.09-.17-.02 0 0 0-.08.16l-1 2.62c-.004.027-.004.053 0 .08 0 0 0 .06.07.08l.15-.04zM86.69 118.55h-3.58c-.066.016-.134.016-.2 0-.047-.017-.079-.06-.08-.11-.008-.052.021-.102.07-.12.08-.034.164-.058.25-.07.21-.028.407-.114.57-.25.12-.149.178-.34.16-.53v-5c.022-.191-.036-.383-.16-.53-.163-.136-.36-.222-.57-.25-.087-.015-.17-.042-.25-.08-.046-.027-.073-.077-.07-.13.001-.05.033-.093.08-.11.066-.016.134-.016.2 0H86.46c.604-.012 1.206.08 1.78.27.472.15.906.403 1.27.74.328.313.587.69.76 1.11.36.912.36 1.928 0 2.84-.183.456-.455.87-.8 1.22-.35.36-.768.645-1.23.84-.5.157-1.028.211-1.55.16zm-.14-.45c.503.012.997-.127 1.42-.4.408-.27.73-.652.93-1.1.228-.513.34-1.07.33-1.63.006-.473-.072-.944-.23-1.39-.142-.37-.353-.708-.62-1-.25-.28-.557-.5-.9-.65-.337-.15-.701-.229-1.07-.23h-.73c-.164.007-.323.058-.46.15-.11.103-.165.25-.15.4v4.86c-.021.228.051.456.2.63.149.146.336.247.54.29.243.05.492.073.74.07zM94.1 118.63c-.074.002-.141-.042-.17-.11 0-.1-.08-.22-.13-.38l-.15-.39-2.06-5.3c-.064-.184-.162-.353-.29-.5-.133-.138-.303-.236-.49-.28-.083-.026-.163-.06-.24-.1-.056-.024-.091-.08-.09-.14 0-.052.039-.095.09-.1.066-.012.134-.012.2 0H93.57c.07-.011.14-.011.21 0 .06 0 .1.06.1.1-.006.064-.044.12-.1.15-.075.047-.161.075-.25.08-.173.02-.342.068-.5.14-.115.051-.19.164-.19.29-.016.086-.016.174 0 .26.025.065.045.132.06.2l1.53 4.1v.06s.05 0 .07-.07l1.42-3.75c.133-.275.133-.595 0-.87-.115-.204-.326-.336-.56-.35-.088-.007-.174-.034-.25-.08-.06-.027-.098-.085-.1-.15 0 0 0-.07.09-.1.076-.012.154-.012.23 0h2.3c.08-.012.16-.012.24 0 .027.003.051.016.068.036.017.02.025.047.022.074 0 0 0 .09-.09.13l-.25.09c-.244.055-.466.18-.64.36-.174.181-.31.395-.4.63l-1.92 4.66-.17.39-.17.44c-.049.133-.106.264-.17.39-.01.032-.032.06-.06.08l.01.01zM98.62 118.53c-.069.017-.141.017-.21 0-.042-.01-.071-.047-.07-.09 0-.1.1-.17.31-.21.215-.03.418-.117.59-.25.134-.146.2-.343.18-.54v-5c.018-.192-.036-.384-.15-.54-.157-.136-.353-.22-.56-.24-.086-.01-.168-.042-.24-.09-.047-.027-.077-.076-.08-.13.003-.047.035-.087.08-.1.069-.018.141-.018.21 0H103.37c.048.018.082.06.09.11 0 .23.07.45.11.66.037.188.057.379.06.57.018.048.018.102 0 .15-.033.008-.067.008-.1 0-.028.014-.062.014-.09 0l-.07-.1-.14-.4c-.042-.13-.122-.246-.23-.33-.093-.098-.206-.176-.33-.23-.134-.049-.277-.073-.42-.07h-1.23c-.108.003-.212.037-.3.1-.101.061-.163.172-.16.29v2.24c-.004.067.021.133.07.18.04.04.094.062.15.06h1c.16.022.322-.03.44-.14.1-.13.168-.28.2-.44.05-.14.12-.22.21-.22.032-.01.068-.01.1 0 .018.048.018.102 0 .15.004.073.004.147 0 .22V115.59c.017.052.017.108 0 .16-.01.036-.043.061-.08.06-.12 0-.2-.11-.26-.32-.035-.153-.096-.298-.18-.43-.064-.038-.136-.058-.21-.06h-1c-.09-.004-.178.013-.26.05-.06.064-.09.152-.08.24v2.09c-.023.194.035.39.16.54.147.108.329.158.51.14h.87c.176.017.354.017.53 0 .143-.024.28-.078.4-.16.127-.095.238-.21.33-.34.11-.168.21-.341.3-.52.024-.038.05-.075.08-.11.032-.015.068-.015.1 0h.1c.007.04.007.08 0 .12.014.123.014.247 0 .37 0 .16-.08.32-.14.5-.04.153-.091.303-.15.45-.017.046-.04.09-.07.13-.036.013-.074.013-.11 0h-4.43l-.52.03zM111.62 118.67c-.146-.03-.285-.088-.41-.17-.237-.14-.438-.331-.59-.56-.08-.08-.2-.22-.37-.42l-.58-.67-.67-.85-.75-.87-.72-.82-.59-.68c-.17-.2-.3-.34-.39-.43-.031-.044-.068-.085-.11-.12-.029-.012-.061-.012-.09 0l-.06.08c-.01.05-.01.1 0 .15v4.01c-.003.198.06.392.18.55.148.18.359.299.59.33.086.013.17.037.25.07.052.023.087.073.09.13 0 .05 0 .08-.09.1-.072.017-.148.017-.22 0h-2.1c-.07.011-.14.011-.21 0-.06 0-.09 0-.09-.11.004-.054.04-.1.09-.12.079-.044.163-.077.25-.1.184-.043.342-.158.44-.32.096-.172.151-.363.16-.56 0-.28.06-.65.1-1.1.04-.45.06-1 .08-1.53.02-.53 0-1.15 0-1.75.028-.306-.078-.608-.29-.83-.225-.184-.483-.323-.76-.41l-.2-.09c-.09 0-.13-.09-.13-.16-.006-.063.038-.12.1-.13.053-.007.107-.007.16 0H106.54c.049-.015.101-.015.15 0 .038.032.072.069.1.11l.38.45.6.73.74.88.79.94.75.89.61.72.37.44c.041.035.078.076.11.12.032.04.079.065.13.07.07 0 .1-.07.11-.21v-.65V113.56v-1.28c-.009-.165-.094-.317-.23-.41-.138-.11-.298-.189-.47-.23-.1-.011-.197-.035-.29-.07-.09 0-.13-.09-.13-.15s0-.07.13-.1h2.27c.073-.012.147-.012.22 0 .047.017.079.06.08.11 0 .1-.11.18-.34.22-.193.025-.377.093-.54.2-.1.117-.154.266-.15.42v4.81c-.01.17-.01.34 0 .51-.007.143-.007.287 0 .43v.27c0 .06 0 .23-.08.28-.052.074-.14.113-.23.1zM115.32 118.52c-.07.011-.14.011-.21 0-.06 0-.09 0-.09-.11.004-.054.04-.1.09-.12.076-.037.157-.064.24-.08.228-.034.444-.123.63-.26.153-.144.23-.35.21-.56V113v-.73c-.008-.116-.031-.23-.07-.34-.02-.054-.065-.095-.12-.11-.1-.015-.2-.015-.3 0h-.81c-.197 0-.392.044-.57.13-.173.075-.32.2-.42.36l-.12.18c-.056.07-.12.134-.19.19-.05.054-.117.086-.19.09-.029.013-.061.013-.09 0-.011-.036-.011-.074 0-.11 0-.084.021-.166.06-.24.103-.195.186-.4.25-.61.064-.205.107-.416.13-.63-.004-.081.025-.16.08-.22.046-.013.094-.013.14 0 0 0 .08 0 .14.13l.15.23c.09.085.206.138.33.15.147.038.298.058.45.06h4c.186.018.374.018.56 0 .128-.019.253-.056.37-.11.089-.043.17-.1.24-.17.062-.06.144-.092.23-.09l.07.07c.005.053.005.107 0 .16.004.043.004.087 0 .13-.004.05-.004.1 0 .15 0 .13-.06.24-.08.32-.028.074-.048.151-.06.23-.007.09-.007.18 0 .27v.15c.015.086.015.174 0 .26 0 .08-.07.12-.13.12s-.11 0-.14-.12c-.05-.106-.09-.217-.12-.33-.03-.178-.131-.337-.28-.44-.229-.126-.49-.181-.75-.16h-.92c-.117-.004-.234.02-.34.07-.096.084-.154.203-.16.33-.02.276-.02.554 0 .83v4.35c-.018.208.064.412.22.55.185.14.401.233.63.27.08.011.157.035.23.07.052.023.087.073.09.13-.003.047-.035.087-.08.1-.069.018-.141.018-.21 0h-2.42l-.67-.15z" transform="translate(0 1) translate(10 -.5)"/>
                <path fill="#424242" fill-rule="nonzero" d="M124.29 118.63c-.571.019-1.138-.105-1.65-.36-.429-.222-.778-.571-1-1-.232-.466-.348-.98-.34-1.5v-3.27c.01-.203-.039-.404-.14-.58-.09-.124-.221-.213-.37-.25-.24-.06-.35-.14-.35-.24.001-.05.033-.093.08-.11.073-.011.147-.011.22 0h.59c.2.01.4.01.6 0h.57c.177-.01.353-.01.53 0 .073-.012.147-.012.22 0 .053.01.09.056.09.11 0 .06 0 .11-.12.14l-.3.11c-.118.06-.218.15-.29.26-.108.166-.16.362-.15.56v3c-.016.471.076.94.27 1.37.166.335.431.611.76.79.337.172.712.258 1.09.25.621.05 1.225-.222 1.6-.72.376-.596.555-1.296.51-2v-.64-.81-.81c-.007-.208-.027-.415-.06-.62-.032-.154-.086-.302-.16-.44-.07-.106-.171-.186-.29-.23l-.25-.1c-.09 0-.13-.08-.13-.14 0-.06 0-.07.08-.1.08-.012.16-.012.24 0h1.83c.073-.012.147-.012.22 0 .053.01.09.056.09.11 0 .1-.12.17-.34.22-.186.03-.35.14-.45.3-.09.18-.141.378-.15.58 0 .6-.06 1.15-.06 1.65v1.5c.006.537-.132 1.065-.4 1.53-.242.414-.586.758-1 1-.477.295-1.029.448-1.59.44zM135.37 118.7c-.24.007-.478-.02-.71-.08-.2-.048-.39-.133-.56-.25-.168-.111-.32-.246-.45-.4l-.49-.64c-.15-.21-.32-.44-.49-.7l-.59-.95c-.084-.175-.225-.316-.4-.4-.118-.067-.247-.114-.38-.14h-.32c-.046-.005-.09.019-.11.06-.018.052-.018.108 0 .16v2c-.007.203.053.403.17.57.16.172.377.282.61.31.083.013.163.037.24.07.047.027.077.076.08.13-.003.047-.035.087-.08.1-.069.018-.141.018-.21 0h-2.79c-.066.012-.134.012-.2 0-.051-.01-.086-.058-.08-.11 0-.09.1-.16.31-.2.218-.031.424-.117.6-.25.139-.148.208-.348.19-.55v-4.76c.02-.19.02-.38 0-.57-.018-.112-.084-.21-.18-.27-.133-.071-.28-.115-.43-.13-.092-.002-.182-.03-.26-.08-.045-.033-.07-.085-.07-.14-.001-.048.033-.09.08-.1.066-.017.134-.017.2 0h1.23c.133.01.267.01.4 0H131.63c.66-.043 1.317.11 1.89.44.436.307.682.818.65 1.35.006.292-.063.582-.2.84-.129.226-.302.423-.51.58-.19.149-.399.273-.62.37v.09l.66 1c.2.3.43.6.66.88.23.28.52.56.82.85.177.172.399.29.64.34.241.041.485.061.73.06.042-.006.085.007.116.036.031.03.048.071.044.114-.002.12-.066.23-.17.29-.126.075-.265.126-.41.15-.189-.002-.377-.026-.56-.07zm-4-3.9c.281.008.559-.065.8-.21.225-.136.405-.334.52-.57.12-.242.182-.51.18-.78.004-.281-.036-.561-.12-.83-.077-.235-.232-.436-.44-.57-.28-.148-.594-.217-.91-.2-.169-.017-.332.065-.42.21-.089.26-.13.535-.12.81v1.7c-.017.127.036.254.14.33.113.058.234.095.36.11h.01zM137 118.53c-.069.018-.141.018-.21 0-.042-.01-.071-.047-.07-.09 0-.1.1-.17.31-.21.215-.03.418-.117.59-.25.134-.146.2-.343.18-.54v-5c.018-.192-.036-.384-.15-.54-.157-.136-.353-.22-.56-.24-.086-.01-.168-.042-.24-.09-.047-.027-.077-.076-.08-.13.003-.047.035-.087.08-.1.069-.018.141-.018.21 0H141.75c.047.017.079.06.08.11.04.227.08.447.12.66.037.188.057.379.06.57.004.055-.014.108-.05.15-.033.008-.067.008-.1 0-.028.014-.062.014-.09 0l-.07-.1-.14-.4c-.033-.098-.084-.19-.15-.27-.093-.098-.206-.176-.33-.23-.134-.049-.277-.073-.42-.07h-1.23c-.108 0-.213.036-.3.1-.101.061-.163.172-.16.29v2.24c-.003.065.018.13.06.18.045.038.101.06.16.06h1c.16.022.322-.03.44-.14.1-.13.168-.28.2-.44.05-.14.12-.22.21-.22.032-.01.068-.01.1 0 .018.048.018.102 0 .15.004.073.004.147 0 .22V115.65c.017.052.017.108 0 .16 0 0 0 .06-.08.06s-.21-.11-.26-.32c-.035-.153-.096-.298-.18-.43-.087-.095-.211-.147-.34-.14h-1c-.09-.004-.178.013-.26.05-.06.064-.09.152-.08.24v2.09c-.023.194.035.39.16.54.147.108.329.158.51.14h.87c.176.017.354.017.53 0 .143-.024.28-.078.4-.16.125-.098.236-.212.33-.34.09-.14.19-.32.3-.52.024-.038.05-.075.08-.11.032-.015.068-.015.1 0h.1c.007.04.007.08 0 .12.009.123.009.247 0 .37 0 .16-.08.32-.14.5-.04.153-.091.303-.15.45 0 .05 0 .09-.07.13-.036.013-.074.013-.11 0h-4.38l-.47.05zM144.89 118.64c-.295 0-.588-.044-.87-.13-.268-.08-.519-.209-.74-.38l-.1-.1c-.03-.039-.055-.083-.07-.13-.06-.205-.093-.417-.1-.63v-.68c-.005-.046.019-.09.06-.11.052-.015.108-.015.16 0 .04-.012.08-.012.12 0 .04.02.068.057.08.1.104.472.34.906.68 1.25.267.262.626.41 1 .41.227.008.452-.048.65-.16.179-.109.324-.264.42-.45.101-.194.153-.41.15-.63.013-.235-.035-.47-.14-.68-.103-.186-.247-.347-.42-.47-.217-.164-.444-.314-.68-.45-.29-.18-.58-.36-.86-.55-.268-.184-.505-.41-.7-.67-.196-.295-.29-.646-.27-1 .004-.352.1-.697.28-1 .199-.314.483-.563.82-.72.403-.19.845-.283 1.29-.27.242-.001.484.025.72.08.177.043.351.1.52.17.064.019.12.057.16.11.043.058.077.122.1.19 0 .147.04.327.12.54.04.204.06.412.06.62 0 .08-.06.12-.17.12-.062.015-.128.015-.19 0-.05-.02-.09-.06-.11-.11-.114-.347-.298-.667-.54-.94-.22-.21-.516-.321-.82-.31-.205-.001-.409.036-.6.11-.18.078-.33.211-.43.38-.113.205-.168.436-.16.67.003.205.077.403.21.56.155.193.34.358.55.49.23.16.48.32.77.49.284.169.555.36.81.57.232.188.426.418.57.68.147.277.22.587.21.9.015.415-.093.826-.31 1.18-.201.332-.502.59-.86.74-.435.173-.903.245-1.37.21z" transform="translate(0 1) translate(10 -.5)"/>
                <path fill="#C69C6D" d="M89.82 132.78L88.08 129.24 86.33 132.78 82.42 133.35 85.25 136.11 84.58 140 88.08 138.16 91.57 140 90.9 136.11 93.73 133.35zM103.56 132.78L101.81 129.24 100.06 132.78 96.15 133.35 98.98 136.11 98.31 140 101.81 138.16 105.3 140 104.64 136.11 107.47 133.35zM121.2 133.35L117.29 132.78 115.54 129.24 113.79 132.78 109.88 133.35 112.71 136.11 112.04 140 115.54 138.16 119.03 140 118.37 136.11zM76.09 132.78L74.34 129.24 72.59 132.78 68.69 133.35 71.51 136.11 70.85 140 74.34 138.16 77.84 140 77.17 136.11 80 133.35zM62.36 132.78L60.61 129.24 58.86 132.78 54.95 133.35 57.78 136.11 57.11 140 60.61 138.16 64.11 140 63.44 136.11 66.27 133.35z" transform="translate(0 1) translate(10 -.5)"/>
                <path fill="#424242" d="M90.22 0c-11.06 0-19.8 11.65-19.8 27.1 0 16 8.8 27.69 19.74 27.69 10.94 0 19.84-11.58 19.84-27.17C110 15.22 103.61 0 90.22 0zm.41 53.84c-9.63 0-17-11.13-17-27.95C73.65 8.06 82.34 1 89.84 1c9.15 0 16.89 11 16.89 27.94 0 14.95-6.87 24.9-16.1 24.9z" transform="translate(0 1) translate(10 -.5)"/>
                <path fill="#424242" d="M104.18 29.7c-.384-.907-.933-1.734-1.62-2.44-.088-.102-.182-.198-.28-.29-.263.528-.6 1.016-1 1.45l-.2.2c-.09.09-.13.09-.11.2.02.11.26.34.34.45.202.299.379.613.53.94.478 1.044.631 2.208.44 3.34-.158.998-.53 1.95-1.09 2.79-1.382 1.813-3.294 3.151-5.47 3.83-2.638.817-5.421 1.055-8.16.7 0 .3.13.77-.26.84-.093.01-.187.01-.28 0H81.1c-.36 0-.68 0-.69-.43v-2c0-.32.09-.4.4-.5.068-.014.132-.041.19-.08.14-.11.1 0 .06-.18-.04-.18-.08-.22-.09-.34.007-.06.017-.12.03-.18v-.72L80.74 29v-1.4c0-.3 0-.32.2-.48 2.199-1.406 4.59-2.484 7.1-3.2 2.466-.69 5.074-.69 7.54 0 1.201.3 2.28.963 3.09 1.9.089.107.17.22.24.34.305-.43.554-.897.74-1.39.077-.22.14-.443.19-.67 0-.06.08-.28 0-.33-.08-.05-.28-.17-.35-.21-.776-.425-1.598-.76-2.45-1-1.982-.557-4.045-.774-6.1-.64-2.128.092-4.21.648-6.1 1.63-.91.479-1.783 1.027-2.61 1.64-.35.26-1.1 1-1.48.41-.19-.476-.253-.993-.18-1.5v-3.26-3.92c0-.93-.27-2.17.64-2.75.597-.314 1.265-.47 1.94-.45 1.64-.13 3.29-.19 4.93-.19 2.2 0 4.4.18 6.6.24.85 0 1.7 0 2.54.08.738-.002 1.474.062 2.2.19.4.1 1.16.53 1 1.08-.15.4-1.07.35-1 .89.07.54.73.84 1.16.95.694.22 1.453.06 2-.42.554-.77.554-1.81 0-2.58-.55-.754-1.358-1.28-2.27-1.48-1.65-.3-3.337-.34-5-.12-3.667.163-7.34.106-11-.17-1.26-.08-2.52-.17-3.77-.28-.606-.091-1.217-.138-1.83-.14-.42 0-.69.17-.7.62.073.679.214 1.349.42 2 .198 1.24.262 2.497.19 3.75 0 1.34-.1 2.67-.2 4 0 .43-.08.86-.09 1.3V37.1c-.016.893-.127 1.78-.33 2.65-.1.47-.53 1.27-.16 1.69.385.345.849.592 1.35.72.574.184 1.163.318 1.76.4 1.659.2 3.33.293 5 .28 2.21 0 4.43.13 6.64.06 2.7.065 5.364-.628 7.69-2 .27-.2.531-.413.78-.64.491-.392.959-.812 1.4-1.26 2.35-2.493 3.024-6.131 1.72-9.3z" transform="translate(0 1) translate(10 -.5)"/>
                <path fill="#424242" d="M97.74 16.3c-2.337-.876-4.814-1.317-7.31-1.3h-2.64c-1.29 0-2.54.25-3.82.4-.788.125-1.592.125-2.38 0-.21 0-.58 0-.51.27.07.27.21.32.31.47.094.146.174.3.24.46.386 1.154.614 2.355.68 3.57.15 1.46.23 2.92.3 4.38.46-.32.93-.62 1.42-.9.208-.088.406-.199.59-.33 0 0 .11 0 .13-.06.02-.06 0-.47 0-.6 0-1 0-2.07.07-3.11 0-.69.06-1.38.1-2.08.002-.16.029-.318.08-.47.09-.17.77-.19 1-.23 2.013-.328 4.062-.382 6.09-.16 1.237.075 2.453.352 3.6.82 1.095.512 2.106 1.186 3 2 1.193 1.199 1.72 2.907 1.41 4.57-.474 1.836-1.615 3.43-3.2 4.47-1.562 1.142-3.39 1.868-5.31 2.11-.696.098-1.397.152-2.1.16h-.21c-1.157-.001-2.312-.108-3.45-.32-.1 0-.38 0-.45-.1s-.12-.46-.15-.61c-.03-.15-.1-.49-.14-.74-.165-1.2-.265-2.409-.3-3.62l-1 .47c-.348.136-.683.303-1 .5-.11.08-.09 0-.12.17-.015.14-.015.28 0 .42.04 1.56.04 3.12 0 4.68 0 1.19-.06 2.38-.14 3.57.019 1.037-.204 2.064-.65 3-.178.306-.424.566-.72.76-.182.053-.359.12-.53.2-.01.066-.01.134 0 .2v1.06c-.044.332-.044.668 0 1 0 .13 0 .06.12.09.193.02.387.02.58 0h5.86v-.84c0-.27 0-.31-.22-.42-.94-.417-1.493-1.401-1.36-2.42v-1.32c-.006-1.003-.07-2.004-.19-3-.07-.48-.23-1 .35-1.18.424-.1.866-.1 1.29 0 1.391.198 2.8.232 4.2.1 2.75-.188 5.41-1.058 7.74-2.53 1.193-.707 2.2-1.687 2.94-2.86.86-1.475 1.255-3.177 1.13-4.88-.3-2.93-2.76-4.81-5.33-5.82z" transform="translate(0 1) translate(10 -.5)"/>
            </g>
        </g>
    </g>
</svg>
