<svg xmlns="http://www.w3.org/2000/svg" xmlns:xlink="http://www.w3.org/1999/xlink" width="50" height="69" viewBox="0 0 50 69">
    <defs>
        <path id="a" d="M0 .03h49.09v68.01H0z"/>
    </defs>
    <g fill="none" fill-rule="evenodd">
        <g>
            <mask id="b" fill="#fff">
                <use xlink:href="#a"/>
            </mask>
            <path fill="#424242" d="M45.074 35.895c0-21.065-9.604-34.687-20.969-34.687-9.31 0-20.088 8.821-20.088 30.966 0 20.87 9.113 34.687 21.067 34.687 11.464 0 19.99-12.347 19.99-30.966M0 33.667C0 14.497 10.848.03 24.585.03c16.622 0 24.504 18.892 24.504 34.282 0 19.353-10.925 33.727-24.583 33.727C10.927 68.04 0 53.48 0 33.667" mask="url(#b)"/>
        </g>
        <path fill="#424242" d="M41.916 36.903a9.803 9.803 0 0 0-2.02-3.032 2.99 2.99 0 0 0-.35-.358 7.725 7.725 0 0 1-1.3 1.797c-.08.082-.16.163-.242.243-.12.117-.171.117-.139.256.036.15.323.419.415.551.255.37.48.761.668 1.17.594 1.295.765 2.74.542 4.144-.195 1.222-.654 2.445-1.355 3.47-1.567 2.292-4.22 3.861-6.79 4.748-3.265 1.127-6.717 1.195-10.126.876.015.37.164.947-.324 1.038-.11.021-.243 0-.354 0h-7.277c-.45 0-.847.051-.862-.528-.02-.815 0-1.634 0-2.45 0-.394.117-.492.499-.618.07-.023.187-.058.239-.101.167-.14.116.02.07-.228-.026-.142-.1-.265-.116-.414-.011-.104.007-.194.008-.294.004-.295-.015-.593-.023-.887l-.27-10.264-.045-1.746c-.01-.365-.07-.391.247-.59 2.716-1.708 5.71-3.129 8.81-3.974 3.028-.826 6.334-.911 9.36-.01 1.434.428 2.904 1.144 3.843 2.35.106.136.205.278.292.428a7.312 7.312 0 0 0 .918-1.731c.098-.272.177-.55.235-.834.015-.074.101-.339.068-.407-.044-.092-.346-.209-.437-.26a14.674 14.674 0 0 0-3.04-1.287c-2.444-.734-5.031-.915-7.57-.8-2.666.12-5.21.807-7.578 2.034a24.416 24.416 0 0 0-3.24 2.033c-.438.323-1.357 1.28-1.833.508-.323-.523-.227-1.269-.225-1.864.004-1.348.006-2.695.006-4.042 0-1.624 0-3.248-.013-4.872-.009-1.154-.346-2.692.787-3.416.727-.465 1.58-.494 2.41-.56a76.311 76.311 0 0 1 6.12-.234c2.732.003 5.46.219 8.19.295 1.053.03 2.108.053 3.161.102.892.041 1.85.041 2.724.242.503.115 1.44.657 1.188 1.335-.187.504-1.338.44-1.252 1.108.082.637.908 1.04 1.441 1.174.854.216 1.915.178 2.542-.52.795-.886.547-2.284-.046-3.204-.633-.981-1.72-1.538-2.82-1.83-2.039-.542-4.133-.267-6.204-.155-4.55.248-9.125.083-13.67-.204-1.56-.099-3.119-.216-4.675-.354-.741-.066-1.524-.208-2.27-.177-.525.022-.858.211-.866.77-.012.853.34 1.712.514 2.536.317 1.514.267 3.125.237 4.662a91.287 91.287 0 0 1-.244 4.964c-.04.534-.109 1.07-.116 1.604-.034 2.553-.022 5.107-.032 7.66-.012 3.1-.022 6.201-.028 9.302-.002 1.11-.068 2.225-.296 3.313-.124.59-.655 1.582-.204 2.102.385.444 1.135.711 1.676.895.708.24 1.448.383 2.187.489 2.034.291 4.105.323 6.156.357 2.74.046 5.502.161 8.242.073 3.246-.105 6.811-.657 9.553-2.535.352-.24.641-.53.964-.799.616-.513 1.243-.96 1.796-1.555 2.846-3.059 3.787-7.605 2.144-11.495"/>
        <path fill="#424242" d="M33.91 20.256c-2.85-1.124-6.015-1.604-9.07-1.63-1.093-.01-2.184-.04-3.277.003-1.597.063-3.157.302-4.74.494-1.01.122-1.958.169-2.95-.015-.27-.05-.727-.047-.643.335.05.222.27.4.392.586.118.178.21.374.29.572.557 1.382.703 2.958.855 4.427.186 1.81.282 3.628.365 5.445a24.653 24.653 0 0 1 1.76-1.119c.229-.132.546-.236.741-.408.04-.035.135-.041.162-.085.079-.128 0-.583.001-.739.007-1.286.037-2.572.084-3.857.032-.862.072-1.724.122-2.585.007-.125-.031-.426.033-.542.113-.2.955-.236 1.213-.277 2.495-.394 5.047-.49 7.56-.206 1.468.166 3.116.378 4.463 1.028 1.314.633 2.61 1.437 3.68 2.433 1.542 1.434 2.265 3.656 1.89 5.733-.42 2.33-2.139 4.174-3.969 5.55-1.93 1.452-4.203 2.28-6.585 2.617a20.529 20.529 0 0 1-2.617.192l-.258.003a23.52 23.52 0 0 1-4.284-.397c-.124-.024-.47-.034-.553-.117-.128-.126-.156-.58-.194-.76a17.497 17.497 0 0 1-.165-.924c-.228-1.483-.32-2.987-.373-4.486-.414.184-.826.375-1.233.573-.39.19-.886.362-1.23.626-.13.1-.11.047-.148.21-.036.151.01.367.014.525a142.415 142.415 0 0 1 .03 5.81 79.37 79.37 0 0 1-.17 4.424c-.09 1.248-.148 2.61-.8 3.713-.225.379-.52.717-.9.946-.09.054-.606.179-.654.245-.028.04 0 .212 0 .258v1.31c0 .329-.106.865 0 1.176.057.166-.034.073.15.113.215.048.496 0 .716 0h7.279l-.042-1.045c-.014-.333.037-.376-.269-.52a3.12 3.12 0 0 1-.874-.598c-.639-.633-.88-1.52-.818-2.4.038-.542.013-1.09 0-1.635-.03-1.222-.06-2.46-.238-3.671-.086-.589-.282-1.21.44-1.458.503-.174 1.093-.092 1.606-.011 1.7.267 3.498.258 5.211.116 3.387-.28 6.73-1.266 9.589-3.136 1.404-.92 2.802-2.057 3.627-3.546 1.006-1.817 1.623-3.964 1.409-6.052-.376-3.656-3.435-5.985-6.628-7.244"/>
    </g>
</svg>
