<?xml version="1.0" encoding="UTF-8"?>
<svg width="183px" height="139px" viewBox="0 0 183 139" version="1.1" xmlns="http://www.w3.org/2000/svg" xmlns:xlink="http://www.w3.org/1999/xlink">
    <title>Logo / VLADIMIR W</title>
    <g id="Русская-Зима" stroke="none" stroke-width="1" fill="none" fill-rule="evenodd">
        <g id="iPhone-8-/-Rus-Winter" transform="translate(-104.000000, -36.000000)" fill="#FFFFFF">
            <g id="Group" transform="translate(95.000000, 36.000000)">
                <g transform="translate(70.000000, 0.000000)" id="Combined-Shape">
                    <path d="M30.0360427,0 C44.9347433,0 52,16.6676155 52,30.2445007 C52,47.3186128 42.2069829,60 29.9652332,60 C17.7941653,60 8,47.1538542 8,29.6758827 C8,12.7637665 17.7233558,0 30.0360427,0 Z M29.6060823,1.03978735 C21.2619168,1.03978735 11.6001844,8.82161619 11.6001844,28.3583164 C11.6001844,46.7703384 19.7691761,58.9603382 30.4830994,58.9603382 C40.759152,58.9603382 48.401219,48.0673099 48.401219,31.6416836 C48.401219,13.0573683 39.7930809,1.03978735 29.6060823,1.03978735 Z M19.1006227,13.1589559 C20.486226,13.2804338 21.8736031,13.3833091 23.2618671,13.4698293 C27.3074334,13.7215245 31.379607,13.8658496 35.4301146,13.6488625 C37.2737424,13.5502319 39.1376424,13.3096484 40.9517488,13.7841985 C41.931275,14.0403882 42.8992715,14.5289215 43.4624579,15.3898786 C43.9899146,16.1964016 44.2112614,17.4227911 43.5037625,18.1996001 C42.9456441,18.8126076 42.0012141,18.845318 41.240754,18.6561721 C40.7666385,18.5380651 40.031392,18.1852425 39.9581587,17.6265443 C39.8813779,17.0397551 40.905883,17.0965613 41.0722415,16.6545966 C41.2962491,16.0595674 40.4626825,15.584393 40.0147941,15.4832654 C39.236976,15.3074784 38.3846577,15.3076032 37.5906219,15.2711474 C36.652907,15.2281994 35.7143052,15.2079739 34.7762102,15.1821302 C32.3459563,15.1149616 29.9182364,14.925566 27.4869689,14.9226945 C26.0333524,14.9210964 24.577952,14.9630456 23.1264763,15.0524413 L22.0386946,15.1284452 L21.594144,15.1625639 C21.0010126,15.2117244 20.4119031,15.2932456 19.8941517,15.6193506 C18.8849774,16.254706 19.1855124,17.6039467 19.1934946,18.6153465 C19.204771,20.0397462 19.2055312,21.4642706 19.2051511,22.8886702 C19.2048977,24.0704887 19.2028705,25.2521823 19.1994496,26.4338759 C19.1979291,26.956368 19.1122792,27.610201 19.3995106,28.0688954 C19.8237059,28.7463248 20.6414348,27.9069665 21.0319276,27.6236847 C21.9467096,26.9599886 22.9059637,26.3557206 23.915138,25.8407194 C26.0236978,24.7643981 28.2879733,24.1611289 30.6601981,24.0561311 C32.9204191,23.9558775 35.223085,24.1139361 37.398543,24.7582806 C38.3384118,25.0365685 39.25142,25.407619 40.1048786,25.886414 C40.1854605,25.9317341 40.454447,26.0341101 40.4941044,26.1150121 C40.5234991,26.1748147 40.4468449,26.4070334 40.4332879,26.4719548 C40.3817205,26.7204038 40.311148,26.9647329 40.2241043,27.203194 C40.0264506,27.7442886 39.7432736,28.2526728 39.4071356,28.7218545 C39.3298479,28.5905136 39.2417907,28.4655399 39.1471449,28.34581 C38.3110443,27.2884657 37.0027287,26.6602267 35.7268486,26.2856804 C33.0325496,25.4948883 30.0897897,25.5691733 27.3948572,26.2936707 C24.6358139,27.0352724 21.9706561,28.2817625 19.553199,29.7793235 C19.2714158,29.9538621 19.3242501,29.977084 19.3327391,30.2973211 L19.3530905,31.0627845 L19.3530905,31.0627845 L19.3735369,31.8283415 L19.6132554,40.8308118 C19.6202239,41.0892487 19.6378354,41.3500578 19.6340343,41.6087445 C19.6326406,41.6963883 19.6166763,41.7760418 19.6264323,41.8665572 C19.6404961,41.9977732 19.7066341,42.1055177 19.7302005,42.2301168 C19.7708715,42.4467294 19.8161038,42.307523 19.6673567,42.4296251 C19.6212375,42.4673295 19.5172159,42.4980423 19.4550057,42.5183926 C19.1154467,42.6292583 19.0112984,42.7150294 19.0112984,43.0609854 C19.0112984,43.7766185 18.993687,44.4943741 19.0112984,45.2096327 C19.021154,45.6085869 19.2415738,45.6666384 19.5299153,45.6731983 L19.6930711,45.6734093 L19.7780935,45.6729465 L26.2558142,45.6729465 C26.354261,45.6729465 26.4734867,45.6910496 26.5707932,45.6729465 C27.0049979,45.5929184 26.8724685,45.0869064 26.8592916,44.761925 C29.8930229,45.0420857 32.9660315,44.9824079 35.872935,43.9941051 C38.1603967,43.2162972 40.5218519,41.8400893 41.9161976,39.8296495 C42.5402006,38.9299893 42.9488116,37.8580377 43.122012,36.7855868 C43.3209328,35.5547028 43.1688914,34.2873629 42.6401677,33.1516137 C42.4731757,32.7927983 42.2726078,32.4499636 42.0451793,32.1251071 C41.9637105,32.0088729 41.7077743,31.7725341 41.6763524,31.6414429 C41.6472112,31.5199651 41.6935838,31.5195905 41.799886,31.4173394 C41.8727391,31.3470495 41.9445787,31.2761354 42.0154046,31.2039728 C42.4838186,30.7264263 42.8588538,30.2137973 43.1726925,29.6273826 C43.336517,29.7742047 43.4338235,29.8758316 43.4845039,29.9418766 C44.2452173,30.7064505 44.8602245,31.6185956 45.2816324,32.6014051 C46.74465,36.0130226 45.9062688,40.0004426 43.373387,42.6835675 C42.8811532,43.2050609 42.3227815,43.5974605 41.7749259,44.0474155 C41.4874411,44.2833797 41.229731,44.5370724 40.9167793,44.7481916 C38.4763893,46.3950718 35.3029067,46.8796098 32.4131079,46.9716234 C29.9748718,47.0491545 27.5159834,46.9475276 25.0767337,46.907576 C23.2512242,46.8774874 21.4079765,46.8498958 19.5975444,46.5943304 C18.9395856,46.5014429 18.2811199,46.3759699 17.6506552,46.16535 C17.1694444,46.0045448 16.5014762,45.7698291 16.1590031,45.3809252 C15.7572339,44.9248527 16.2303358,44.0537828 16.3404391,43.536784 C16.5439211,42.5823152 16.602457,41.6042499 16.6042308,40.6310538 C16.6089187,37.9112233 16.6180412,35.1913929 16.6288108,32.4715624 C16.6378066,30.2326494 16.6269103,27.9924879 16.657572,25.7536998 C16.6640337,25.2845181 16.7253571,24.8149619 16.7604533,24.3469039 C16.8687827,22.897909 16.9501248,21.4459178 16.9782525,19.9931776 C17.0043529,18.6449357 17.0489517,17.2315228 16.7665349,15.9041307 C16.6128465,15.1812563 16.2986277,14.4271697 16.3092706,13.678951 C16.3162392,13.1891693 16.6129732,13.0233701 17.0799935,13.0038937 C17.7439073,12.976427 18.4411434,13.1012758 19.1006227,13.1589559 Z M30.0815288,16.5697993 C32.8015481,16.593146 35.6178603,17.0145106 38.1556835,18.0003165 C40.9980961,19.1046039 43.7207761,21.1471298 44.0551403,24.3537456 C44.2459522,26.1850273 43.6969563,28.0682462 42.8007994,29.6620656 C42.0665665,30.967734 40.8227417,31.9658999 39.5723285,32.7721733 C37.0280436,34.4125613 34.0523414,35.2770141 31.0372352,35.5228414 C29.5127675,35.6470659 27.9126593,35.6548065 26.398581,35.4208399 C25.9419503,35.3503004 25.4170276,35.2780129 24.9685057,35.4304533 C24.327018,35.6485641 24.5009786,36.1930296 24.5780129,36.7091544 C24.7365159,37.7714926 24.7629965,38.857552 24.7892236,39.9295036 C24.8008801,40.4074246 24.8230528,40.8878427 24.7890969,41.3641408 C24.7341086,42.1353316 24.9491204,42.9131395 25.5180084,43.4688413 C25.742396,43.6880758 26.0104956,43.8613659 26.2959531,43.9934559 C26.5377552,44.1054313 26.5290832,44.1477628 26.5324466,44.3604448 L26.5347847,44.4486545 L26.5720349,45.3660432 L20.0929204,45.3660432 C19.8975473,45.3660432 19.6469325,45.4076179 19.4552337,45.3660432 C19.2921694,45.330711 19.3735115,45.4121124 19.3227044,45.2665388 C19.2412537,45.0327149 19.2994328,44.6536893 19.3177176,44.3688659 L19.3227044,44.2354128 L19.3227044,43.0856805 C19.3227044,43.0461034 19.2971108,42.8955358 19.3227044,42.8599539 C19.3647692,42.8017744 19.8248209,42.6921571 19.904896,42.6447146 C20.242301,42.4439578 20.5055859,42.1475668 20.7050135,41.8153442 C21.2856846,40.848016 21.3383923,39.6530884 21.4177072,38.5584144 C21.5112126,37.2672284 21.5493496,35.9720472 21.5696218,34.6778649 C21.5912877,33.3006581 21.5883736,31.9229519 21.5637936,30.5456203 C21.558092,30.2243844 21.5511234,29.9031485 21.5427612,29.5819127 C21.5390868,29.4438299 21.4982891,29.2543095 21.5295843,29.1210959 C21.5630333,28.9787683 21.545802,29.0248375 21.6613534,28.9374433 C21.9678434,28.705724 22.4099035,28.5542824 22.7563044,28.3883584 C23.1191763,28.2145689 23.4852158,28.0470219 23.8540427,27.8858421 C23.901429,29.20025 23.9832779,30.5197766 24.1858729,31.8209505 C24.2280644,32.0918723 24.2758307,32.3621699 24.3327195,32.6305948 C24.3616074,32.7661805 24.3842584,33.0779712 24.4617906,33.2342608 L24.5054131,33.2979114 L24.560043,33.3293288 C24.6768397,33.3739825 24.9057464,33.3830167 24.9973935,33.4002874 C25.2374921,33.4454827 25.4788577,33.4850598 25.7206034,33.5206417 C26.7404206,33.670585 27.7760755,33.7483658 28.8108434,33.7481161 L28.9253812,33.7473826 L28.9253812,33.7473826 L29.0406792,33.7459937 L28.8945928,33.7477416 C29.7233448,33.744121 30.5512098,33.6914348 31.3698256,33.5774478 C33.4908021,33.2820557 35.5128251,32.5556855 37.231779,31.2819784 C38.8605217,30.0750653 40.3900574,28.4571501 40.7643325,26.4141248 C41.0981899,24.591957 40.4548017,22.6433174 39.082502,21.3852164 C38.1304699,20.5122738 36.9763496,19.8071279 35.8067717,19.251426 C34.6077991,18.6817411 33.1408537,18.4955916 31.8335517,18.3501428 C29.5966437,18.1013192 27.3257797,18.1853424 25.1042025,18.530799 C24.8751269,18.5665057 24.1254365,18.597593 24.0252159,18.7737547 C23.9675669,18.875007 24.0020296,19.1390622 23.9955679,19.2491788 C23.9512225,20.004389 23.9157462,20.7600986 23.8873651,21.5160579 C23.8449203,22.6433174 23.8184397,23.7713261 23.8123581,24.8993347 C23.8115979,25.036169 23.8814102,25.4353105 23.8112178,25.5474247 C23.7872713,25.5857532 23.7025082,25.5913714 23.6671586,25.6220842 C23.493198,25.7730264 23.2110346,25.8642908 23.0072992,25.9799008 C22.4709735,26.2841573 21.9494717,26.6131338 21.4411469,26.9609624 C21.3667733,25.3673927 21.2820103,23.7724497 21.1160318,22.1852473 C20.9810952,20.8966831 20.8510998,19.5151067 20.3543048,18.3029499 C20.2829721,18.1291605 20.2022635,17.9573686 20.0972283,17.8005585 C19.9881386,17.6381302 19.7917519,17.4819444 19.7479133,17.2868058 C19.6727795,16.9519614 20.0792367,16.9485905 20.3199688,16.992787 C21.2032022,17.1543413 22.0471583,17.113266 22.9453424,17.0060209 C24.3548922,16.8377248 25.743663,16.627854 27.1653761,16.5729205 C28.1383139,16.5353411 29.1088444,16.5615593 30.0815288,16.5697993 Z"></path>
                </g>
                <g transform="translate(68.000000, 127.000000)" id="STAR">
                    <g transform="translate(39.000000, 0.000000)">
                        <polygon id="Fill-1" points="6.5 0.866666667 5.16966667 4.95906667 0.866666667 4.95906667 4.34893333 7.48886667 3.0186 11.5812667 6.5 9.05233333 9.98226667 11.5812667 8.65193333 7.48886667 12.1333333 4.95906667 7.83033333 4.95906667"></polygon>
                    </g>
                    <g transform="translate(13.000000, 0.000000)">
                        <polygon id="Fill-1" points="6.5 0.866666667 5.16966667 4.95906667 0.866666667 4.95906667 4.34893333 7.48886667 3.0186 11.5812667 6.5 9.05233333 9.98226667 11.5812667 8.65193333 7.48886667 12.1333333 4.95906667 7.83033333 4.95906667"></polygon>
                    </g>
                    <g transform="translate(52.000000, 0.000000)">
                        <polygon id="Fill-1" points="6.5 0.866666667 5.16966667 4.95906667 0.866666667 4.95906667 4.34893333 7.48886667 3.0186 11.5812667 6.5 9.05233333 9.98226667 11.5812667 8.65193333 7.48886667 12.1333333 4.95906667 7.83033333 4.95906667"></polygon>
                    </g>
                    <g transform="translate(26.000000, 0.000000)">
                        <polygon id="Fill-1" points="6.5 0.866666667 5.16966667 4.95906667 0.866666667 4.95906667 4.34893333 7.48886667 3.0186 11.5812667 6.5 9.05233333 9.98226667 11.5812667 8.65193333 7.48886667 12.1333333 4.95906667 7.83033333 4.95906667"></polygon>
                    </g>
                    <g>
                        <polygon id="Fill-1" points="6.5 0.866666667 5.16966667 4.95906667 0.866666667 4.95906667 4.34893333 7.48886667 3.0186 11.5812667 6.5 9.05233333 9.98226667 11.5812667 8.65193333 7.48886667 12.1333333 4.95906667 7.83033333 4.95906667"></polygon>
                    </g>
                </g>
                <text id="RUSSO-BALT" font-family="EBGaramond-Regular, EB Garamond" font-size="24" font-weight="normal" line-spacing="30">
                    <tspan x="30" y="94">RUSSO-BALT</tspan>
                </text>
                <text id="ETHNOGRAPHIC-VILLAGE" font-family="Montserrat-Regular, Montserrat" font-size="10" font-weight="normal" line-spacing="24">
                    <tspan x="8.5" y="108">ETHNOGRAPHIC VILLAGE VLADIMIR</tspan>
                </text>
            </g>
        </g>
    </g>
</svg>