<svg xmlns="http://www.w3.org/2000/svg" width="200" height="141" viewBox="0 0 200 141">
    <g fill="none" fill-rule="evenodd">
        <g>
            <g>
                <g>
                    <path fill="#FFF" fill-rule="nonzero" d="M13 76.94c-.382.006-.764-.028-1.14-.1-.375-.071-.722-.248-1-.51-.526-.473-1.02-.981-1.48-1.52-.407-.48-.787-.98-1.14-1.5-.35-.51-.72-1.06-1.09-1.63-.032-.046-.056-.096-.07-.15 0 0 0-.07.07-.09.357-.182.692-.404 1-.66.34-.276.621-.616.83-1 .23-.437.343-.926.33-1.42.057-.882-.343-1.732-1.06-2.25-.919-.559-1.987-.82-3.06-.75h-.87l-.61.05c-.21.01-.42.01-.63 0H1.32c-.13-.018-.26-.018-.39 0-.077.017-.133.082-.14.16.006.095.058.181.14.23.141.08.298.128.46.14.266.005.526.074.76.2.166.115.273.298.29.5.056.347.08.699.07 1.05v7.8c.043.364-.074.728-.32 1-.288.23-.634.375-1 .42-.4.08-.6.19-.6.33 0 .08 0 .13.14.16.13.018.26.018.39 0h.85l.71-.07h1.38l.47.07c.253.013.507.013.76 0 .13.018.26.018.39 0 .09 0 .14-.08.14-.16-.005-.088-.059-.166-.14-.2-.158-.034-.319-.047-.48-.04-.38-.04-.726-.24-.95-.55-.188-.3-.286-.647-.28-1v-3.29c-.004-.098.02-.195.07-.28.044-.071.128-.107.21-.09.218.021.435.055.65.1.275.063.54.16.79.29.33.15.606.398.79.71.43.68.79 1.24 1.09 1.68.3.44.58.83.85 1.17l.84 1.05c.2.244.444.447.72.6.26.152.544.257.84.31.33.055.665.081 1 .08.196.012.394.012.59 0 .215-.026.424-.087.62-.18.165-.07.272-.231.27-.41-.03-.19-.12-.25-.3-.25zm-6.6-6c-.442.26-.947.391-1.46.38-.24.008-.48-.022-.71-.09-.17-.06-.26-.25-.26-.55V68.8v-1.23c-.01-.453.064-.904.22-1.33.156-.271.46-.421.77-.38.6-.038 1.2.094 1.73.38.368.23.64.585.77 1 .133.444.197.906.19 1.37.026.482-.078.962-.3 1.39-.228.408-.554.752-.95 1v-.06zM26.36 65.48c-.126-.019-.254-.019-.38 0-.147-.01-.293-.01-.44 0h-2.42c-.126-.018-.254-.018-.38 0-.1 0-.15.08-.15.16s.07.15.21.22c.129.058.263.105.4.14.185.065.337.202.42.38.119.225.2.469.24.72.078.294.125.596.14.9v3.93c.062 1.213-.244 2.416-.88 3.45-.622.896-1.673 1.395-2.76 1.31-.693.018-1.379-.133-2-.44-.583-.302-1.058-.777-1.36-1.36-.359-.748-.53-1.571-.5-2.4v-5.15c-.015-.32.085-.636.28-.89.123-.2.304-.357.52-.45.158-.04.311-.094.46-.16.085-.031.144-.11.15-.2 0-.08-.05-.13-.15-.16-.13-.018-.26-.018-.39 0h-3.22c-.126-.019-.254-.019-.38 0-.1 0-.15.09-.15.16s.2.29.6.4c.228.064.43.197.58.38.214.287.31.644.27 1V73c-.02.846.169 1.684.55 2.44.358.705.933 1.276 1.64 1.63.85.413 1.786.612 2.73.58.853.004 1.692-.22 2.43-.65.713-.411 1.303-1.005 1.71-1.72.436-.762.67-1.622.68-2.5 0-.85 0-1.7.06-2.57.06-.87.06-1.82.12-2.87.008-.321.09-.636.24-.92.143-.249.395-.416.68-.45.4-.09.6-.21.6-.37s-.05-.09-.15-.12zM33 71.46c-.413-.3-.833-.58-1.26-.84-.45-.28-.87-.56-1.26-.82-.353-.24-.67-.53-.94-.86-.236-.28-.363-.634-.36-1-.022-.43.083-.858.3-1.23.184-.297.457-.527.78-.66.318-.13.657-.197 1-.2.485-.013.954.171 1.3.51.394.428.696.932.89 1.48.037.089.11.158.2.19.1.048.21.072.32.07.18 0 .27-.07.27-.2-.002-.314-.045-.627-.13-.93-.08-.33-.16-.63-.24-.88-.024-.101-.069-.196-.13-.28-.067-.08-.153-.141-.25-.18-.254-.106-.515-.196-.78-.27-.372-.095-.756-.138-1.14-.13-.74-.026-1.474.128-2.14.45-.532.262-.974.677-1.27 1.19-.283.518-.428 1.1-.42 1.69-.017.534.145 1.058.46 1.49.318.424.707.79 1.15 1.08l1.41.93c.389.227.763.477 1.12.75.29.215.53.492.7.81.183.38.27.799.25 1.22.023.4-.057.799-.23 1.16-.182.328-.452.598-.78.78-.865.457-1.924.326-2.65-.33-.554-.543-.934-1.24-1.09-2-.004-.067-.047-.126-.11-.15-.06-.013-.12-.013-.18 0-.092-.003-.182.021-.26.07-.071.036-.114.11-.11.19 0 .26 0 .58.07 1 .007.336.048.671.12 1 .023.071.057.139.1.2.041.061.088.118.14.17.348.28.74.5 1.16.65.457.156.937.234 1.42.23.724.015 1.442-.136 2.1-.44.592-.305 1.077-.782 1.39-1.37.34-.57.514-1.226.5-1.89.02-.544-.12-1.083-.4-1.55-.268-.428-.614-.8-1.02-1.1zM41.53 71.46c-.41-.3-.83-.58-1.25-.84-.42-.26-.88-.56-1.27-.82-.353-.24-.67-.53-.94-.86-.236-.28-.363-.634-.36-1-.027-.427.074-.851.29-1.22.183-.294.451-.525.77-.66.318-.13.657-.197 1-.2.485-.015.955.169 1.3.51.394.43.7.933.9 1.48.03.09.1.16.19.19.1.048.21.072.32.07.18 0 .27-.07.27-.2-.003-.314-.044-.626-.12-.93l-.24-.88c-.028-.101-.076-.197-.14-.28-.067-.08-.153-.141-.25-.18-.254-.107-.514-.198-.78-.27-.372-.095-.756-.138-1.14-.13-.736-.025-1.467.13-2.13.45-.534.26-.976.674-1.27 1.19-.291.515-.44 1.098-.43 1.69-.012.533.15 1.056.46 1.49.322.424.714.79 1.16 1.08l1.41.93c.385.226.756.477 1.11.75.293.215.536.491.71.81.175.382.257.8.24 1.22.02.397-.058.792-.23 1.15-.182.328-.452.598-.78.78-.861.459-1.918.327-2.64-.33-.56-.538-.942-1.237-1.09-2-.008-.066-.05-.123-.11-.15-.062-.015-.128-.015-.19 0-.089-.003-.176.021-.25.07-.073.034-.117.11-.11.19 0 .26 0 .58.06 1 .007.336.048.671.12 1 .027.07.06.136.1.2.041.061.088.118.14.17.348.28.74.5 1.16.65.457.156.937.233 1.42.23.728.016 1.45-.135 2.11-.44.59-.308 1.074-.785 1.39-1.37.337-.572.507-1.227.49-1.89.018-.543-.117-1.08-.39-1.55-.265-.427-.607-.8-1.01-1.1zM46.37 76c.561.531 1.22.949 1.94 1.23.736.288 1.52.434 2.31.43.924.016 1.841-.165 2.69-.53.762-.326 1.445-.814 2-1.43.521-.584.925-1.263 1.19-2 .268-.765.403-1.57.4-2.38.03-1.68-.662-3.293-1.9-4.43-.56-.53-1.22-.945-1.94-1.22-.732-.288-1.513-.434-2.3-.43-.928-.02-1.849.16-2.7.53-.765.321-1.449.81-2 1.43-.528.58-.933 1.26-1.19 2-.273.767-.411 1.576-.41 2.39-.009.846.162 1.684.5 2.46.33.74.81 1.405 1.41 1.95zm.41-7.76c.29-.679.783-1.251 1.41-1.64.696-.408 1.494-.609 2.3-.58 1.388-.055 2.701.63 3.45 1.8.408.609.703 1.286.87 2 .204.777.305 1.577.3 2.38.016.857-.144 1.708-.47 2.5-.286.683-.775 1.262-1.4 1.66-.706.422-1.518.63-2.34.6-.698.014-1.388-.155-2-.49-.578-.329-1.07-.788-1.44-1.34-.396-.614-.687-1.29-.86-2-.193-.785-.287-1.591-.28-2.4-.03-.857.128-1.71.46-2.5v.01zM58.33 74.28c.62-.06 1.22-.13 1.78-.21l1.68-.25c.16-.034.282-.167.3-.33.058-.215.085-.437.08-.66.013-.025.013-.055 0-.08-.033-.01-.067-.01-.1 0-.59.06-1.18.13-1.76.21l-1.76.24c-.08 0-.15.13-.21.35-.05.21-.077.424-.08.64.002.042.03.078.07.09zM63.2 77.44c.126.018.254.018.38 0h4.09c.604.008 1.208-.05 1.8-.17.459-.094.902-.249 1.32-.46.285-.15.56-.32.82-.51.318-.24.577-.547.76-.9.235-.496.344-1.042.32-1.59.02-.457-.066-.911-.25-1.33-.15-.323-.369-.61-.64-.84-.258-.207-.54-.382-.84-.52-.3-.133-.59-.243-.87-.33-.043-.014-.072-.055-.07-.1 0-.04.03-.075.07-.08.242-.093.477-.207.7-.34.19-.133.368-.283.53-.45.173-.199.312-.425.41-.67.164-.33.256-.692.27-1.06.089-.835-.297-1.65-1-2.11-.998-.47-2.099-.68-3.2-.61h-.85l-.58.05c-.2.012-.4.012-.6 0h-1.99c-.126-.018-.254-.018-.38 0-.1 0-.15.09-.15.16.006.098.063.185.15.23.141.08.298.128.46.14.369-.024.731.106 1 .36.21.29.305.645.27 1v8.24c.05.372-.084.745-.36 1-.313.226-.677.37-1.06.42-.41.08-.61.19-.61.33s0 .11.1.14zm3.31-10.7c-.018-.23.066-.457.23-.62.3-.181.653-.255 1-.21.593-.041 1.184.095 1.7.39.352.222.622.552.77.94.132.348.2.718.2 1.09.042.682-.267 1.338-.82 1.74-.355.2-.74.343-1.14.42-.356.068-.717.105-1.08.11-.18-.005-.36-.04-.53-.1-.2-.07-.31-.26-.31-.58l-.02-3.18zm0 5c.023-.163.105-.313.23-.42.23-.185.526-.271.82-.24.449-.01.896.045 1.33.16.262.068.514.169.75.3.206.116.398.257.57.42.225.22.41.478.55.76.177.378.259.793.24 1.21.007.505-.14 1-.42 1.42-.283.423-.668.767-1.12 1-.462.244-.977.371-1.5.37-.376.023-.75-.071-1.07-.27-.278-.254-.419-.625-.38-1v-3.71zM73.56 77.42c.122.044.25.065.38.06.333.017.667.017 1 0 .389-.037.78-.054 1.17-.05h1.7c.126.018.254.018.38 0 .1 0 .15-.09.15-.16s-.2-.26-.61-.37c-.276-.061-.533-.188-.75-.37-.198-.166-.311-.412-.31-.67.017-.15.047-.296.09-.44.07-.23.14-.49.22-.79l.26-.83c.09-.26.15-.45.18-.58.028-.1.083-.19.16-.26.042-.037.094-.062.15-.07h3.46c.12-.015.24-.015.36 0 .07 0 .11.08.14.18.1.3.2.65.31 1 .11.35.21.77.28 1.12.068.258.108.523.12.79.002.2-.09.39-.25.51-.254.18-.55.29-.86.32-.146.016-.288.056-.42.12-.13.07-.19.14-.19.22 0 .08 0 .13.15.17.126.024.254.024.38 0h2.84l.93.06h.7c.13.012.26.012.39 0 .09 0 .14-.07.14-.15-.01-.1-.06-.19-.14-.25-.14-.086-.297-.144-.46-.17-.238-.045-.47-.118-.69-.22-.24-.122-.448-.296-.61-.51-.243-.334-.429-.705-.55-1.1-.15-.44-.35-1-.6-1.73s-.52-1.52-.82-2.42l-.93-2.79c-.31-1-.62-1.91-.91-2.84-.03-.07-.05-.144-.06-.22-.015-.063-.039-.123-.07-.18-.058.092-.098.194-.12.3-.036.133-.118.25-.23.33-.104.065-.214.119-.33.16l-.33.11c-.009.186-.039.37-.09.55-.05.17-.1.34-.16.51l-.87 2.34c-.28.71-.54 1.4-.8 2.06-.26.66-.53 1.33-.81 2l-1 2.2c-.135.39-.373.736-.69 1-.269.192-.565.34-.88.44-.159.04-.31.104-.45.19-.1.07-.16.14-.16.23s.01.16.11.2zM77.88 72l1.67-4.49c.07-.21.12-.31.14-.31.02 0 .1.11.17.33L81.29 72c.005.033.005.067 0 .1.005.026.005.054 0 .08 0 .06-.08.09-.25.09h-3.09c-.07 0-.11 0-.11-.11.01-.054.023-.108.04-.16zM86.75 77.42c.122.044.25.065.38.06l1.43-.07h7.28c.076.011.15-.025.19-.09.033-.07.053-.144.06-.22 0-.25.06-.5.1-.73.04-.23.1-.47.17-.73s.14-.54.23-.86c0-.077-.02-.153-.06-.22-.022-.069-.088-.114-.16-.11-.09 0-.17.07-.25.22-.048.107-.088.217-.12.33-.113.259-.25.507-.41.74-.155.21-.336.398-.54.56-.17.134-.358.242-.56.32-.278.105-.573.156-.87.15h-2.27c-.403.052-.812-.044-1.15-.27-.188-.238-.28-.537-.26-.84V67c-.023-.317.176-.607.48-.7.373-.135.758-.235 1.15-.3.16-.024.316-.075.46-.15.088-.038.146-.124.15-.22 0-.07 0-.13-.15-.16-.126-.018-.254-.018-.38 0h-4.34c-.126-.019-.254-.019-.38 0-.1 0-.15.09-.15.16s.2.29.6.37c.24.024.476.082.7.17.147.055.266.167.33.31.07.21.101.43.09.65v8.5c.029.34-.118.673-.39.88-.327.247-.707.415-1.11.49l-.23.09c-.107.024-.183.12-.18.23.02.01.07.06.16.1zM95.24 67.64c.108-.01.21-.056.29-.13.1-.09.19-.19.27-.3l.19-.27c.14-.249.363-.44.63-.54.276-.114.572-.172.87-.17h1.62c.182.007.362.03.54.07.1 0 .17.08.23.2.067.204.107.416.12.63v8.4c.035.37-.097.737-.36 1-.308.237-.674.39-1.06.44-.158.024-.313.067-.46.13-.085.031-.144.11-.15.2 0 .08 0 .13.15.16.126.018.254.018.38 0H102.99c.126.018.254.018.38 0 .1 0 .15-.08.15-.16-.006-.09-.065-.169-.15-.2-.147-.063-.302-.106-.46-.13-.385-.055-.75-.206-1.06-.44-.273-.258-.413-.626-.38-1v-7.2-1.45c0-.3.13-.47.26-.54.187-.087.394-.125.6-.11h1.85c.429-.033.859.042 1.25.22.227.135.387.36.44.62.036.186.082.37.14.55 0 .13.12.2.21.2s.17-.07.22-.21c.04-.123.063-.25.07-.38V67c-.013-.113-.013-.227 0-.34.013-.088.033-.175.06-.26.046-.157.08-.318.1-.48v-.25c.008-.086.008-.174 0-.26.01-.093.01-.187 0-.28 0-.1-.06-.14-.09-.14-.133-.008-.263.039-.36.13-.11.094-.231.174-.36.24-.223.09-.454.157-.69.2-.33.051-.665.075-1 .07h-6.44c-.263 0-.524-.03-.78-.09-.198-.02-.38-.122-.5-.28-.07-.124-.147-.244-.23-.36-.11-.15-.18-.22-.23-.22-.056-.012-.114-.012-.17 0-.07 0-.12.16-.14.37-.038.338-.102.672-.19 1-.102.323-.229.637-.38.94-.058.115-.089.241-.09.37-.01.053-.01.107 0 .16-.021.04-.02.087.003.125.023.038.065.061.11.06.045 0 .086-.026.107-.065zM111.13 77.44c.126.018.254.018.38 0h.85l.72-.07h1.37l.48.07c.253.013.507.013.76 0 .126.018.254.018.38 0 .1 0 .15-.08.15-.16-.006-.09-.065-.169-.15-.2-.147-.063-.302-.106-.46-.13-.398-.026-.764-.228-1-.55-.181-.302-.275-.648-.27-1v-3.24c-.003-.097.018-.193.06-.28.044-.071.128-.107.21-.09.218.02.436.054.65.1.278.062.547.16.8.29.326.156.6.402.79.71.42.68.79 1.24 1.08 1.68.29.44.59.83.86 1.17l.84 1.05c.199.24.44.444.71.6.261.149.545.253.84.31.33.055.665.081 1 .08.196.012.394.012.59 0 .215-.026.424-.087.62-.18.17-.064.283-.228.28-.41 0-.14-.09-.2-.28-.2-.38.006-.758-.028-1.13-.1-.375-.071-.722-.248-1-.51-.53-.473-1.027-.981-1.49-1.52-.413-.493-.793-.993-1.14-1.5-.35-.51-.71-1.06-1.09-1.63-.034-.043-.055-.095-.06-.15 0 0 0-.07.06-.09.357-.183.692-.404 1-.66.336-.276.615-.616.82-1 .23-.437.343-.926.33-1.42.07-.87-.307-1.718-1-2.25-.923-.558-1.994-.82-3.07-.75h-.87l-.61.05c-.207.011-.413.011-.62 0h-1.8c-.126-.018-.254-.018-.38 0-.1 0-.15.09-.15.16.006.098.063.185.15.23.141.08.298.128.46.14.265.008.525.077.76.2.166.115.273.298.29.5.047.348.067.699.06 1.05v7.8c.048.364-.07.731-.32 1-.287.232-.634.378-1 .42-.41.08-.61.19-.61.33s.02.12.15.15zm3.27-8.59v-1.23c-.006-.453.069-.903.22-1.33.158-.27.46-.419.77-.38.601-.04 1.2.093 1.73.38.37.227.645.583.77 1 .133.444.197.906.19 1.37.014.728-.271 1.43-.789 1.942-.518.513-1.223.79-1.951.768-.243.01-.486-.021-.72-.09-.17-.06-.25-.25-.25-.55.02-.73.02-1.36.03-1.88zM124.42 77.44c.13.018.26.018.39 0h.8l.61-.06h6.42c.066.004.129-.031.16-.09l.1-.22c.067-.173.147-.403.24-.69.091-.28.168-.563.23-.85.049-.19.082-.384.1-.58.003-.062-.019-.123-.06-.17-.04-.045-.092-.076-.15-.09-.06-.01-.121.013-.16.06-.047.077-.08.162-.1.25-.2.37-.37.66-.52.88-.139.208-.315.387-.52.53-.211.128-.446.213-.69.25-.331.045-.666.065-1 .06h-1.35c-.328.026-.654-.066-.92-.26-.233-.278-.338-.64-.29-1V72c0-.213.05-.343.15-.39.147-.068.308-.098.47-.09H130c.206-.017.408.06.55.21.145.182.248.393.3.62.09.39.23.58.42.58.19 0 .12 0 .13-.09.012-.073.012-.147 0-.22v-.34-.58-.49-.95-.33c.005-.081-.024-.161-.08-.22-.043-.042-.1-.067-.16-.07-.15 0-.26.13-.33.4-.041.263-.156.509-.33.71-.213.147-.472.215-.73.19H128c-.091-.002-.176-.046-.23-.12-.068-.077-.104-.177-.1-.28v-3.87c-.001-.178.095-.343.25-.43.12-.09.261-.145.41-.16h2.4c.22-.003.44.031.65.1.221.078.418.212.57.39.106.12.181.264.22.42.06.18.12.38.18.59.02.05.047.097.08.14h.13c.06.004.12-.014.17-.05.06 0 .08-.11.08-.22-.004-.292-.034-.583-.09-.87l-.18-1c-.02-.06-.069-.106-.13-.12-.066-.013-.134-.013-.2 0h-7.3c-.126-.018-.254-.018-.38 0-.1 0-.15.09-.15.16.004.096.062.182.15.22.146.08.305.134.47.16.366.028.715.168 1 .4.2.267.292.598.26.93v8.24c.05.366-.072.735-.33 1-.288.23-.634.375-1 .42-.4.08-.61.19-.61.33s0 .09.1.12zM134.84 76.44c.023.071.057.139.1.2.041.061.088.118.14.17.346.282.739.502 1.16.65.457.156.937.234 1.42.23.724.015 1.442-.136 2.1-.44.575-.273 1.058-.707 1.39-1.25.34-.57.514-1.226.5-1.89.02-.544-.12-1.083-.4-1.55-.263-.422-.602-.792-1-1.09-.413-.3-.833-.58-1.26-.84-.45-.28-.87-.56-1.26-.82-.356-.237-.673-.527-.94-.86-.236-.28-.363-.634-.36-1-.022-.43.083-.858.3-1.23.184-.297.457-.527.78-.66.318-.13.657-.197 1-.2.485-.013.954.171 1.3.51.394.428.696.932.89 1.48.037.089.11.158.2.19.1.048.21.072.32.07.18 0 .27-.07.27-.2-.002-.314-.045-.627-.13-.93-.08-.33-.16-.63-.24-.88-.024-.101-.069-.196-.13-.28-.067-.08-.153-.141-.25-.18-.255-.104-.515-.194-.78-.27-.372-.095-.756-.138-1.14-.13-.74-.026-1.474.128-2.14.45-.532.262-.974.677-1.27 1.19-.283.518-.428 1.1-.42 1.69-.017.534.145 1.058.46 1.49.318.424.707.79 1.15 1.08l1.41.93c.389.227.763.477 1.12.75.29.215.53.492.7.81.183.38.27.799.25 1.22.006.41-.09.816-.28 1.18-.182.328-.452.598-.78.78-.865.457-1.924.326-2.65-.33-.554-.543-.934-1.24-1.09-2-.008-.066-.05-.123-.11-.15-.06-.013-.12-.013-.18 0-.092-.003-.182.021-.26.07-.071.036-.114.11-.11.19 0 .26 0 .58.07 1 .026.287.076.571.15.85zM145.09 76c.553.524 1.202.938 1.91 1.22.736.29 1.52.435 2.31.43.924.016 1.841-.165 2.69-.53.761-.329 1.443-.816 2-1.43.518-.587.922-1.265 1.19-2 .268-.765.403-1.57.4-2.38.031-1.65-.633-3.235-1.83-4.37-.56-.53-1.22-.945-1.94-1.22-.736-.29-1.52-.435-2.31-.43-.925-.021-1.843.16-2.69.53-.763.325-1.446.813-2 1.43-.52.584-.925 1.263-1.19 2-.27.768-.405 1.576-.4 2.39-.012.845.155 1.684.49 2.46.325.719.79 1.365 1.37 1.9zm.4-7.76c.297-.675.788-1.246 1.41-1.64.7-.409 1.5-.61 2.31-.58 1.387-.05 2.697.634 3.45 1.8.4.613.694 1.29.87 2 .196.778.293 1.578.29 2.38.019.856-.138 1.707-.46 2.5-.29.681-.777 1.26-1.4 1.66-.71.422-1.525.63-2.35.6-.698.017-1.389-.152-2-.49-.58-.326-1.073-.785-1.44-1.34-.396-.614-.687-1.29-.86-2-.193-.785-.287-1.591-.28-2.4-.03-.857.128-1.71.46-2.5v.01zM169.27 76.94c-.38.006-.758-.028-1.13-.1-.375-.071-.722-.248-1-.51-.529-.47-1.024-.979-1.48-1.52-.41-.479-.794-.98-1.15-1.5-.35-.51-.71-1.06-1.09-1.63-.03-.046-.05-.097-.06-.15 0 0 0-.07.06-.09.357-.183.692-.404 1-.66.336-.276.615-.616.82-1 .23-.437.343-.926.33-1.42.058-.88-.338-1.729-1.05-2.25-.922-.56-1.994-.821-3.07-.75h-.87l-.61.05c-.207.011-.413.011-.62 0h-1.8c-.126-.018-.254-.018-.38 0-.1 0-.15.09-.15.16.006.098.063.185.15.23.141.08.298.128.46.14.265.008.525.077.76.2.166.115.273.298.29.5.047.348.067.699.06 1.05v7.8c.048.364-.07.731-.32 1-.287.232-.634.378-1 .42-.41.08-.61.19-.61.33s0 .13.15.16c.126.018.254.018.38 0h.86l.71-.07h1.37l.48.07c.253.013.507.013.76 0 .126.019.254.019.38 0 .1 0 .15-.08.15-.16-.006-.09-.065-.169-.15-.2-.144-.063-.295-.107-.45-.13-.397-.03-.763-.23-1-.55-.181-.302-.275-.648-.27-1v-3.2c-.003-.097.018-.193.06-.28.044-.071.128-.107.21-.09.218.02.436.054.65.1.278.062.547.16.8.29.326.156.6.402.79.71.42.68.79 1.24 1.09 1.68.3.44.58.83.85 1.17l.84 1.05c.199.24.44.444.71.6.264.15.551.255.85.31.33.055.665.082 1 .08.193.012.387.012.58 0 .215-.026.424-.087.62-.18.17-.064.283-.228.28-.41.04-.19-.05-.25-.24-.25zm-6.6-6c-.438.261-.94.393-1.45.38-.24.01-.48-.021-.71-.09-.18-.06-.26-.25-.26-.55V68.8v-1.23c-.016-.454.059-.906.22-1.33.152-.27.453-.42.76-.38.601-.04 1.2.093 1.73.38.37.227.645.583.77 1 .133.444.197.906.19 1.37.04.963-.437 1.873-1.25 2.39v-.06zM179.82 65.14c0-.1 0-.14-.09-.14-.133-.008-.263.039-.36.13-.108.092-.226.172-.35.24-.226.09-.46.157-.7.2-.33.051-.665.075-1 .07h-6.45c-.263 0-.524-.031-.78-.09-.198-.02-.38-.122-.5-.28-.07-.124-.147-.244-.23-.36-.1-.15-.18-.22-.23-.22-.056-.01-.114-.01-.17 0-.07 0-.12.16-.14.37-.038.338-.102.672-.19 1-.102.323-.229.637-.38.94-.058.115-.089.241-.09.37-.01.053-.01.107 0 .16.013.045.053.077.1.08.11-.007.212-.053.29-.13.1-.093.194-.193.28-.3l.18-.27c.142-.246.365-.437.63-.54.276-.114.572-.172.87-.17h1.62c.182.007.362.03.54.07.108.018.197.095.23.2.077.201.118.415.12.63v8.4c.03.372-.105.738-.37 1-.307.24-.674.391-1.06.44-.158.024-.313.067-.46.13-.085.031-.144.11-.15.2 0 .08.05.13.15.16.13.018.26.018.39 0H176c.126.019.254.019.38 0 .1 0 .15-.08.15-.16-.006-.09-.065-.169-.15-.2-.124-.037-.251-.06-.38-.07-.385-.053-.75-.204-1.06-.44-.28-.253-.425-.624-.39-1v-7.2c-.009-.484.011-.968.06-1.45 0-.29.12-.47.25-.54.19-.087.4-.125.61-.11h1.85c.425-.033.852.042 1.24.22.227.135.387.36.44.62.038.186.088.37.15.55 0 .13.11.2.2.2.09 0 .17-.07.22-.21.045-.122.068-.25.07-.38V67c-.008-.113-.008-.227 0-.34.013-.088.033-.175.06-.26.046-.157.08-.318.1-.48.022-.082.038-.166.05-.25.007-.087.007-.173 0-.26 0-.09-.01-.181-.03-.27zM44.43 87.83c.144.074.295.134.45.18.304.08.578.248.79.48.22.25.386.543.49.86l3.35 9 .21.57c.073.227.133.407.18.54.028.085.111.14.2.13.036.009.074.009.11 0 .035-.024.06-.06.07-.1.092-.172.165-.353.22-.54.08-.22.15-.43.21-.62l.14-.37 3.44-8.35c.158-.37.382-.71.66-1 .306-.318.705-.532 1.14-.61.156-.035.307-.089.45-.16.088-.033.148-.116.15-.21 0-.07 0-.13-.15-.16-.126-.019-.254-.019-.38 0H52.26c-.126-.02-.254-.02-.38 0-.1 0-.15.08-.15.16.008.098.07.183.16.22.134.08.284.128.44.14.363.037.694.226.91.52.24.472.222 1.035-.05 1.49l-2.5 6.59c0 .09-.08.13-.11.11-.044-.015-.08-.048-.1-.09l-2.63-7-.12-.35c-.06-.173-.088-.357-.08-.54.003-.214.132-.407.33-.49.272-.124.563-.202.86-.23.158-.007.312-.052.45-.13.085-.047.142-.133.15-.23 0-.08 0-.13-.15-.16-.126-.019-.254-.019-.38 0H44.81c-.13-.018-.26-.018-.39 0-.077.017-.133.082-.14.16.014.085.07.157.15.19zM63 99.41h3.38c.076.011.15-.025.19-.09.032-.07.055-.144.07-.22.017-.245.05-.49.1-.73 0-.23.09-.47.16-.73s.14-.54.23-.86c0-.077-.02-.153-.06-.22-.022-.069-.088-.114-.16-.11-.09 0-.17.07-.25.22-.064.103-.114.214-.15.33-.12.257-.26.505-.42.74-.155.21-.336.398-.54.56-.165.135-.35.243-.55.32-.278.104-.573.155-.87.15h-2.29c-.407.054-.819-.042-1.16-.27-.185-.24-.274-.539-.25-.84V89c-.028-.315.168-.607.47-.7.377-.136.765-.236 1.16-.3.157-.025.31-.076.45-.15.088-.038.146-.124.15-.22 0-.07 0-.13-.15-.16-.126-.018-.254-.018-.38 0h-4.36c-.126-.019-.254-.019-.38 0-.1 0-.15.09-.15.16s.2.29.6.37c.24.024.476.082.7.17.147.055.266.167.33.31.07.21.101.43.09.65v8.5c.031.339-.112.67-.38.88-.331.221-.707.368-1.1.43l-.23.09c-.106.024-.178.122-.17.23 0 .06 0 .11.13.15.122.044.25.065.38.06l1.41-.09h2.41l1.59.03zM71.17 93.18c-.25.65-.53 1.33-.81 2-.28.67-.6 1.42-1 2.2-.135.39-.373.736-.69 1-.269.192-.565.34-.88.44-.158.042-.31.106-.45.19-.088.044-.146.132-.15.23 0 .07 0 .13.14.17.125.044.257.064.39.06.333.017.667.017 1 0 .424-.064.851-.105 1.28-.12h1.7c.126.019.254.019.38 0 .1 0 .15-.09.15-.16s-.2-.26-.6-.37c-.277-.057-.536-.185-.75-.37-.204-.162-.322-.41-.32-.67.017-.15.05-.298.1-.44.06-.23.13-.49.22-.79.09-.3.17-.57.25-.83.08-.26.15-.45.19-.58.025-.099.077-.189.15-.26.046-.038.101-.062.16-.07H75c.116-.015.234-.015.35 0 .078.027.133.098.14.18.1.3.2.65.31 1 .11.35.21.77.29 1.12.068.258.108.523.12.79-.002.201-.098.39-.26.51-.254.18-.55.29-.86.32-.146.016-.288.056-.42.12-.12.06-.19.14-.19.22 0 .08 0 .13.15.17.129.023.261.023.39 0h2.89l.94.06h.69c.13.012.26.012.39 0 .09 0 .14-.07.14-.15-.01-.1-.06-.19-.14-.25-.138-.092-.295-.15-.46-.17-.238-.046-.47-.12-.69-.22-.24-.122-.448-.296-.61-.51-.243-.334-.429-.705-.55-1.1L77 95.29c-.25-.71-.53-1.52-.83-2.42-.3-.9-.61-1.83-.92-2.79-.31-.96-.63-1.91-.92-2.84l-.07-.24c-.015-.063-.039-.123-.07-.18h-.05c-.053.094-.094.195-.12.3-.035.131-.116.245-.23.32-.101.072-.212.13-.33.17l-.33.11c-.009.186-.039.37-.09.55 0 .17-.1.34-.16.51L72 91.12c-.31.71-.57 1.4-.83 2.06zm2.2-3.74c.07-.21.12-.31.15-.31s.09.11.16.33l1.43 4.47v.18c0 .06-.08.09-.25.09h-3.09c-.028 0-.055-.012-.074-.033-.02-.02-.029-.049-.026-.077-.005-.047-.005-.093 0-.14l1.7-4.51zM82 98.5c-.276.249-.629.397-1 .42l-.46.1c-.093.02-.157.105-.15.2 0 .08.05.14.15.18.126.024.254.024.38 0h.78l.53-.05h2.16l1.45.06h.81c.873.044 1.745-.096 2.56-.41.75-.33 1.429-.803 2-1.39.576-.576 1.04-1.254 1.37-2 .33-.781.498-1.622.49-2.47.006-.77-.126-1.536-.39-2.26-.249-.709-.656-1.352-1.19-1.88-.613-.566-1.344-.99-2.14-1.24-1.028-.322-2.103-.474-3.18-.45h-.58l-.88.05-.93.06H81c-.126-.019-.254-.019-.38 0-.087.022-.148.1-.15.19.002.094.062.177.15.21.15.054.303.094.46.12.366.028.715.168 1 .4.2.267.292.598.26.93v8.24c.017.361-.105.715-.34.99zm1.77-9.5c-.021-.29.085-.574.29-.78.248-.18.544-.28.85-.29h1.35c.635.001 1.263.127 1.85.37.612.25 1.169.617 1.64 1.08.506.495.907 1.087 1.18 1.74.303.746.452 1.545.44 2.35.017.976-.195 1.942-.62 2.82-.4.77-1.006 1.414-1.75 1.86-.756.476-1.636.72-2.53.7-.436.001-.871-.04-1.3-.12-.37-.067-.716-.233-1-.48-.286-.291-.432-.693-.4-1.1V89zM99.64 99.25c-.006-.09-.065-.169-.15-.2-.144-.063-.295-.107-.45-.13-.376-.052-.733-.197-1.04-.42-.277-.225-.423-.574-.39-.93v-8.28c-.034-.334.079-.666.31-.91.292-.219.637-.357 1-.4.16-.024.316-.075.46-.15.086-.04.14-.125.14-.22-.003-.08-.062-.146-.14-.16-.13-.018-.26-.018-.39 0h-4.13c-.13-.018-.26-.018-.39 0-.1 0-.15.09-.15.16s.21.29.61.37c.366.028.715.168 1 .4.204.257.301.583.27.91v8.28c.03.35-.107.695-.37.93-.312.228-.677.373-1.06.42-.41.08-.61.19-.61.33s0 .13.15.16c.126.018.254.018.38 0h.86l.69-.05h1.51l.62.05h.81c.126.019.254.019.38 0 .03-.03.08-.08.08-.16zM114.46 99.43h.82c.126.018.254.018.38 0 .1 0 .15-.08.15-.16-.006-.09-.065-.169-.15-.2-.147-.063-.302-.106-.46-.13-.367-.048-.713-.197-1-.43-.236-.228-.37-.542-.37-.87 0-.69-.08-1.37-.13-2.05-.05-.68-.09-1.35-.13-2-.04-.65-.07-1.41-.1-2.16-.03-.75 0-1.55 0-2.41 0-.133.042-.262.12-.37.08-.113.191-.2.32-.25l.55-.22.53-.2c.13-.046.254-.106.37-.18.066-.045.103-.12.1-.2.003-.04-.01-.08-.037-.11-.026-.03-.063-.047-.103-.05h-.24c-.311.01-.622.037-.93.08-.385.047-.772.07-1.16.07h-.66c-.08 0-.14.08-.18.24 0 .19-.09.42-.15.67-.06.25-.12.49-.18.7l-3.61 7.51c-.043.079-.133.12-.22.1-.09-.016-.164-.076-.2-.16l-2.89-7.34c-.088-.232-.162-.469-.22-.71-.06-.25-.12-.48-.18-.7-.02-.085-.065-.162-.13-.22-.063-.048-.14-.073-.22-.07h-.56l-.82-.06h-1.37c-.15-.012-.3-.012-.45 0-.11 0-.17.08-.17.17.002.089.042.173.11.23.082.072.183.12.29.14.246.043.49.1.73.17.24.083.46.212.65.38.102.073.176.179.21.3.029.098.049.198.06.3.005.097.005.193 0 .29v.32c0 .51 0 1.17-.1 2-.1.83-.16 1.7-.27 2.7-.11 1-.24 2-.38 3.14-.03.364-.165.712-.39 1-.187.235-.454.391-.75.44-.158.025-.312.068-.46.13-.081.034-.135.112-.14.2 0 .08.05.13.14.16.13.018.26.018.39 0 .243.013.487.013.73 0l.42-.05h1.06l.43.05h.75c.126.018.254.018.38 0 .1 0 .15-.08.15-.16-.006-.09-.065-.169-.15-.2-.147-.063-.302-.106-.46-.13-.35-.054-.664-.24-.88-.52-.199-.258-.308-.574-.31-.9 0-.83 0-1.6.08-2.29s.12-1.4.21-2.12c.09-.72.19-1.5.3-2.35.003-.027.016-.051.036-.068.02-.017.047-.025.074-.022.058 0 .11.036.13.09.667 1.6 1.28 3.093 1.84 4.48.54 1.38 1 2.79 1.53 4.22.015.075.084.127.16.12.09 0 .14 0 .16-.11l4.22-8.58c.06-.12.12-.19.18-.19s.1 0 .11.19c0 .82.07 1.57.11 2.26.04.69.06 1.39.08 2.1.02.71 0 1.5 0 2.38.02.326-.048.65-.2.94-.18.222-.445.356-.73.37-.159.015-.314.055-.46.12-.085.037-.143.118-.15.21 0 .08 0 .13.15.16.126.019.254.019.38 0h.78l.53-.05h1.33l.62-.14zM118.48 98.5c-.312.228-.677.373-1.06.42-.41.08-.61.19-.61.33s0 .13.15.16c.126.018.254.018.38 0h.86l.69-.05h1.51l.61.05h.82c.126.019.254.019.38 0 .1 0 .15-.08.15-.16-.006-.09-.065-.169-.15-.2-.144-.063-.295-.107-.45-.13-.385-.051-.753-.195-1.07-.42-.27-.23-.41-.577-.38-.93v-8.28c-.034-.334.079-.666.31-.91.292-.219.637-.357 1-.4.16-.024.316-.075.46-.15.086-.04.14-.125.14-.22-.003-.08-.062-.146-.14-.16-.13-.018-.26-.018-.39 0h-4.11c-.13-.018-.26-.018-.39 0-.1 0-.15.09-.15.16s.21.29.61.37c.366.028.715.168 1 .4.204.257.301.583.27.91v8.28c.013.363-.151.71-.44.93zM123.35 87.61c.006.098.063.185.15.23.15.097.322.152.5.16.266.005.526.074.76.2.169.114.279.297.3.5.044.331.064.666.06 1v7.8c.043.364-.074.728-.32 1-.287.232-.634.378-1 .42-.4.08-.6.19-.6.33 0 .08.05.13.15.16.126.019.254.019.38 0h.85l.72-.07h1.37l.48.07c.25.013.5.013.75 0 .13.018.26.018.39 0 .1 0 .15-.08.15-.16-.006-.09-.065-.169-.15-.2-.147-.063-.302-.106-.46-.13-.38-.04-.726-.24-.95-.55-.181-.302-.275-.648-.27-1v-3.24c-.003-.097.018-.193.06-.28.044-.071.128-.107.21-.09.218.02.436.054.65.1.278.062.547.16.8.29.325.153.597.4.78.71.43.68.79 1.24 1.09 1.68.3.44.59.83.85 1.17l.85 1.05c.197.243.437.447.71.6.261.149.545.253.84.31.33.055.665.081 1 .08.196.012.394.012.59 0 .215-.026.424-.087.62-.18.167-.068.277-.23.28-.41 0-.14-.1-.2-.28-.2-.38.007-.758-.027-1.13-.1-.375-.071-.722-.248-1-.51-.545-.488-1.056-1.013-1.53-1.57-.407-.487-.787-.987-1.14-1.5-.35-.51-.71-1.06-1.09-1.63-.032-.046-.056-.096-.07-.15 0 0 0-.07.07-.09.357-.183.692-.404 1-.66.336-.276.615-.616.82-1 .23-.437.343-.926.33-1.42.058-.88-.338-1.729-1.05-2.25-.923-.557-1.994-.819-3.07-.75h-.87l-.61.05c-.21.011-.42.011-.63 0h-1.79c-.126-.019-.254-.019-.38 0-.12.1-.17.16-.17.23zm3.19 3.21v-1.23c-.006-.453.069-.903.22-1.33.156-.271.46-.421.77-.38.601-.04 1.2.093 1.73.38.368.23.64.585.77 1 .133.444.197.906.19 1.37.014.728-.271 1.43-.789 1.942-.518.513-1.223.79-1.951.768-.243.01-.486-.021-.72-.09-.17-.06-.25-.25-.25-.55l.03-1.88zM26.34 116.86c-.032-.015-.068-.015-.1 0-.032.032-.06.07-.08.11-.11.2-.21.38-.3.52-.094.128-.205.242-.33.34-.12.082-.257.136-.4.16-.176.017-.354.017-.53 0h-.87c-.181.018-.363-.032-.51-.14-.125-.15-.183-.346-.16-.54v-2.09c-.01-.088.02-.176.08-.24.082-.037.17-.054.26-.05h1c.126-.01.25.043.33.14.092.129.157.275.19.43.05.21.14.32.26.32s.06 0 .08-.06c.017-.052.017-.108 0-.16v-.24-.63-.26-.32c.004-.073.004-.147 0-.22.014-.049.014-.101 0-.15-.032-.01-.068-.01-.1 0-.09 0-.16.08-.21.22-.032.16-.1.31-.2.44-.118.11-.28.162-.44.14h-1c-.059 0-.115-.022-.16-.06-.042-.05-.063-.115-.06-.18v-2.24c-.003-.118.059-.229.16-.29.087-.064.192-.1.3-.1h1.23c.143-.003.286.021.42.07.124.054.237.132.33.23.066.08.117.172.15.27l.14.4c.016.038.04.072.07.1.028.014.062.014.09 0 .033.008.067.008.1 0 .036-.042.054-.095.05-.15-.003-.191-.023-.382-.06-.57-.04-.207-.08-.427-.12-.66-.001-.05-.033-.093-.08-.11H21.15c-.069-.018-.141-.018-.21 0-.045.013-.077.053-.08.1.003.054.033.103.08.13.072.048.154.08.24.09.207.02.403.104.56.24.114.156.168.348.15.54v5c.02.197-.046.394-.18.54-.172.133-.375.22-.59.25-.21 0-.31.11-.31.21-.001.043.028.08.07.09.069.018.141.018.21 0h4.85c.036.013.074.013.11 0 0 0 .05-.08.07-.13.059-.147.11-.297.15-.45.06-.18.1-.34.14-.5.026-.122.042-.246.05-.37.007-.04.007-.08 0-.12 0 0-.07-.05-.12-.05zM34.08 111c-.086-.006-.17.027-.23.09-.072.071-.157.129-.25.17-.114.054-.235.091-.36.11-.19.018-.38.018-.57 0h-4c-.152-.003-.303-.023-.45-.06-.124-.012-.24-.065-.33-.15 0-.06-.08-.13-.14-.23-.06-.1-.12-.13-.15-.13-.042-.014-.088-.014-.13 0 0 0-.08.1-.09.22-.025.213-.065.423-.12.63-.067.211-.155.415-.26.61-.039.074-.06.156-.06.24-.011.036-.011.074 0 .11.025.014.055.014.08 0 .075-.006.146-.037.2-.09.065-.058.125-.122.18-.19l.12-.18c.101-.163.252-.289.43-.36.174-.087.366-.131.56-.13h.82c.096-.016.194-.016.29 0 .055.015.1.056.12.11.039.11.062.224.07.34v5.08c.02.21-.057.416-.21.56-.183.135-.396.224-.62.26-.087.015-.17.042-.25.08-.047.022-.078.068-.08.12-.002.05.031.096.08.11.07.011.14.011.21 0h2.95c.069.018.141.018.21 0 .045-.013.077-.053.08-.1-.003-.054-.033-.103-.08-.13-.077-.033-.157-.057-.24-.07-.229-.037-.445-.13-.63-.27-.15-.142-.227-.344-.21-.55V113c-.014-.276-.014-.554 0-.83.006-.127.064-.246.16-.33.107-.049.223-.073.34-.07h.93c.257-.022.515.034.74.16.149.105.252.262.29.44.023.114.06.225.11.33 0 .08.08.12.14.12.06 0 .1 0 .13-.12.014-.086.014-.174 0-.26v-.15c-.006-.09-.006-.18 0-.27.012-.079.032-.156.06-.23 0-.08.05-.19.08-.32.006-.05.006-.1 0-.15.004-.043.004-.087 0-.13.01-.053.01-.107 0-.16.13-.03.11-.03.08-.03zM42.36 118.18c-.195-.018-.376-.107-.51-.25-.092-.168-.133-.359-.12-.55v-5c-.01-.173.024-.345.1-.5.13-.149.313-.242.51-.26.21 0 .31-.11.31-.21-.002-.047-.029-.089-.07-.11-.069-.018-.141-.018-.21 0H39.8c-.18 0-.28 0-.28.14-.001.055.03.106.08.13.075.04.156.067.24.08.217.032.42.13.58.28.107.14.16.314.15.49v2.08c0 .09 0 .14-.1.14H36.7s-.05-.05-.05-.1v-2.1c-.01-.18.043-.356.15-.5.167-.139.367-.232.58-.27.083-.016.164-.043.24-.08.05-.024.081-.075.08-.13 0-.09-.09-.14-.29-.14h-2.58c-.066-.017-.134-.017-.2 0-.041.021-.068.063-.07.11 0 .1.1.17.32.21.19.017.368.102.5.24.081.164.116.348.1.53v5c.017.186-.029.373-.13.53-.15.136-.339.223-.54.25-.2 0-.31.11-.31.19s0 .08.08.11c.066.012.134.012.2 0h2.72c.07.013.14.013.21 0 0 0 .08-.06.08-.11.003-.053-.03-.102-.08-.12-.076-.036-.157-.06-.24-.07-.226-.038-.435-.142-.6-.3-.147-.145-.226-.344-.22-.55v-2.08c0-.08 0-.13.08-.13h3.75c.025-.014.055-.014.08 0v2.24c.016.19-.054.377-.19.51-.16.135-.353.225-.56.26-.083.01-.164.034-.24.07-.045.023-.072.07-.07.12.004.046.03.087.07.11.07.013.14.013.21 0h2.59c.066.012.134.012.2 0 .06 0 .09-.06.09-.11s-.1-.11-.3-.15zM51.39 111.29H49.11c-.08 0-.13.06-.13.1 0 .04.05.11.13.15.094.034.191.057.29.07.172.04.333.118.47.23.136.093.221.245.23.41v4.15c0 .14 0 .21-.11.21-.048-.005-.092-.03-.12-.07-.037-.043-.077-.083-.12-.12l-.37-.44-.61-.72-.74-.89-.8-.94-.74-.88-.6-.73-.38-.45c-.028-.041-.062-.078-.1-.11-.049-.015-.101-.015-.15 0H43.41c-.053-.007-.107-.007-.16 0-.062.01-.106.067-.1.13 0 .07 0 .12.14.16l.19.09c.278.085.536.224.76.41.212.222.318.524.29.83v1.75c0 .56 0 1.07-.08 1.53-.08.46-.07.82-.1 1.1-.009.197-.064.388-.16.56-.098.162-.256.277-.44.32-.087.024-.17.058-.25.1-.05.02-.086.066-.09.12 0 .06 0 .09.09.11.073.011.147.011.22 0h2.02c.072.018.148.018.22 0 .06 0 .09 0 .09-.1-.003-.057-.038-.107-.09-.13-.08-.033-.164-.057-.25-.07-.23-.033-.441-.15-.59-.33-.12-.158-.183-.352-.18-.55v-2.79-1.22c-.01-.05-.01-.1 0-.15 0-.06 0-.08.06-.08.032-.01.068-.01.1 0l.1.12c.09.09.22.23.39.43l.59.68.72.82.76.87.71.83.58.67c.17.2.29.34.37.42.154.227.355.418.59.56.125.082.264.14.41.17.07.001.138-.024.19-.07.058-.08.083-.181.07-.28V118v-.43c-.01-.17-.01-.34 0-.51v-1-1.17-1.13-.94-.57c-.005-.156.052-.307.16-.42.158-.108.34-.177.53-.2.23 0 .34-.12.34-.22.002-.05-.031-.096-.08-.11-.046-.009-.093-.012-.14-.01zM58.62 112.17c-.346-.318-.75-.566-1.19-.73-.448-.178-.927-.267-1.41-.26-.56-.014-1.117.095-1.63.32-.457.192-.867.482-1.2.85-.315.36-.56.778-.72 1.23-.169.458-.253.942-.25 1.43-.007.51.095 1.014.3 1.48.2.428.478.815.82 1.14.343.319.744.57 1.18.74.447.172.921.26 1.4.26.566.011 1.129-.098 1.65-.32.453-.2.858-.493 1.19-.86.319-.36.566-.778.73-1.23.163-.46.247-.943.25-1.43.008-.51-.098-1.016-.31-1.48-.192-.43-.468-.817-.81-1.14zm-.47 4.64c-.294.866-1.138 1.422-2.05 1.35-.397.009-.79-.095-1.13-.3-.323-.209-.594-.49-.79-.82-.219-.366-.377-.764-.47-1.18-.11-.462-.165-.935-.16-1.41-.008-.499.08-.995.26-1.46.151-.403.42-.75.77-1 .75-.433 1.674-.43 2.42.01.328.205.603.487.8.82.22.366.381.764.48 1.18.105.456.159.922.16 1.39-.007.487-.105.969-.29 1.42zM67.64 115.23h-.56c-.18.01-.36.01-.54 0H65c-.046-.01-.094-.01-.14 0-.052.023-.087.073-.09.13.002.062.036.119.09.15.043.034.095.055.15.06.097-.007.193-.007.29 0 .125.02.25.05.37.09.107.032.206.087.29.16.041.042.072.094.09.15.012.066.012.134 0 .2.005.08.005.16 0 .24.005.09.005.18 0 .27v.32c0 .165-.034.329-.1.48-.046.12-.118.23-.21.32-.113.085-.233.159-.36.22-.243.102-.507.146-.77.13-.345 0-.687-.075-1-.22-.328-.151-.618-.373-.85-.65-.24-.3-.43-.638-.56-1-.137-.447-.205-.912-.2-1.38-.004-.408.06-.813.19-1.2.117-.364.3-.703.54-1 .466-.637 1.21-1.01 2-1 .27-.008.54.026.8.1.186.053.364.13.53.23.107.062.205.14.29.23.093.1.173.21.24.33.06.1.11.22.17.34l.09.19c.04.06.108.095.18.09.047-.007.09-.032.12-.07.015-.049.015-.101 0-.15v-.55c0-.22 0-.43-.07-.66.007-.04.007-.08 0-.12-.029-.027-.063-.047-.1-.06-.133-.053-.27-.097-.41-.13l-.62-.12-.65-.09h-.51c-1.082-.012-2.128.393-2.92 1.13-.73.677-1.161 1.615-1.2 2.61-.007.494.1.983.31 1.43.199.437.485.828.84 1.15.355.323.77.575 1.22.74.462.182.954.273 1.45.27.337.004.672-.033 1-.11.269-.06.533-.141.79-.24l.55-.25c.098-.054.202-.098.31-.13.063 0 .12-.035.15-.09.003-.04.003-.08 0-.12 0-.04-.018-.077-.05-.1-.03-.034-.057-.071-.08-.11l-.06-.09c-.009-.03-.009-.06 0-.09V117v-.4-.43c.014-.124.062-.242.14-.34.1-.095.225-.161.36-.19.051-.013.099-.037.14-.07.052-.027.083-.082.08-.14.007-.057-.02-.112-.07-.14-.032-.028-.07-.048-.11-.06zM76.12 118.07c-.241 0-.482-.02-.72-.06-.241-.05-.463-.168-.64-.34-.3-.29-.58-.57-.82-.85s-.46-.58-.67-.88l-.65-1v-.09c.221-.097.43-.221.62-.37.208-.157.381-.354.51-.58.137-.258.206-.548.2-.84.032-.532-.214-1.043-.65-1.35-.573-.33-1.23-.483-1.89-.44H70.46c-.133.01-.267.01-.4 0h-1.23c-.066-.017-.134-.017-.2 0-.047.01-.081.052-.08.1 0 .055.025.107.07.14.078.05.168.078.26.08.15.015.297.059.43.13.096.06.162.158.18.27.02.19.02.38 0 .57v4.76c.02.2-.045.4-.18.55-.176.133-.382.219-.6.25-.21 0-.31.11-.31.2-.006.052.029.1.08.11.066.012.134.012.2 0h2.79c.069.018.141.018.21 0 .045-.013.077-.053.08-.1-.003-.054-.033-.103-.08-.13-.077-.033-.157-.057-.24-.07-.23-.03-.442-.14-.6-.31-.125-.163-.188-.365-.18-.57v-2c-.018-.052-.018-.108 0-.16.02-.041.064-.065.11-.06h.32c.133.026.262.073.38.14.175.084.316.225.4.4l.59.95c.17.26.34.49.49.7l.49.64c.128.156.28.291.45.4.17.117.36.202.56.25.232.06.47.087.71.08.153.014.307.014.46 0 .145-.024.284-.075.41-.15.104-.06.168-.17.17-.29.09-.03.03-.08-.08-.08zM72 114.59c-.241.145-.519.218-.8.21-.133.004-.265-.016-.39-.06-.104-.076-.157-.203-.14-.33v-1-.7c-.01-.275.031-.55.12-.81.086-.147.25-.23.42-.21.316-.017.63.052.91.2.208.134.363.335.44.57.084.269.124.549.12.83.002.27-.06.538-.18.78-.117.215-.29.395-.5.52zM84 118.14c-.141-.027-.28-.07-.41-.13-.133-.076-.251-.174-.35-.29-.127-.164-.222-.35-.28-.55-.11-.34-.25-.74-.4-1.19-.15-.45-.32-.94-.49-1.46-.17-.52-.36-1.07-.54-1.62l-.53-1.63v-.15c.008-.04.008-.08 0-.12l-.11.18c-.046.082-.115.149-.2.19-.086.049-.176.089-.27.12l-.26.07c-.012.101-.032.202-.06.3-.031.148-.078.292-.14.43-.17.47-.33.92-.49 1.34-.16.42-.32.83-.48 1.23-.16.4-.31.79-.48 1.2-.17.41-.35.83-.55 1.28-.08.212-.214.398-.39.54-.165.114-.348.202-.54.26-.083.029-.164.066-.24.11-.054.026-.089.08-.09.14.004.054.04.1.09.12.073.012.147.012.22 0 .206.014.414.014.62 0h1.96c.053-.01.09-.056.09-.11 0-.09-.11-.16-.33-.22-.189-.038-.365-.124-.51-.25-.119-.109-.172-.272-.14-.43 0-.06 0-.15.06-.28.06-.13.07-.27.11-.42.04-.15.09-.29.14-.43.05-.14.08-.24.11-.33.014-.056.041-.107.08-.15.033-.008.067-.008.1 0h2c.063-.014.127-.014.19 0 0 0 .06 0 .08.1l.16.58c.06.21.11.41.16.59.038.154.061.311.07.47.033.132-.018.271-.13.35-.165.11-.353.178-.55.2-.08.014-.158.041-.23.08-.058.023-.097.078-.1.14.004.05.04.091.09.1.069.018.141.018.21 0h2.8c.07.011.14.011.21 0 .05 0 .08 0 .08-.09-.004-.062-.033-.12-.08-.16-.078-.055-.166-.093-.26-.11zm-3-2.79h-1.74s-.06 0-.06-.08v-.08l1-2.62c0-.11.06-.16.07-.16.01 0 .06.06.09.17l.82 2.61v.06c.005.02.005.04 0 .06 0 0-.05.04-.18.04zM89.44 111.77c-.614-.388-1.334-.577-2.06-.54-.143-.01-.287-.01-.43 0H84.84c-.069-.017-.141-.017-.21 0-.045.013-.077.053-.08.1.003.054.033.103.08.13.075.05.16.08.25.09.216.013.413.128.53.31.102.215.147.453.13.69v4.73c.02.2-.045.4-.18.55-.176.133-.382.219-.6.25-.21 0-.32.11-.32.2-.002.05.031.096.08.11.07.012.14.012.21 0h2.79c.066.017.134.017.2 0 .06 0 .08 0 .08-.1-.003-.054-.033-.103-.08-.13-.077-.033-.157-.057-.24-.07-.229-.028-.44-.134-.6-.3-.129-.165-.193-.371-.18-.58v-5.2c-.012-.15.056-.295.18-.38.151-.078.32-.116.49-.11.435-.021.86.134 1.18.43.359.392.524.924.45 1.45.024.504-.079 1.006-.3 1.46-.174.336-.522.545-.9.54h-.48c-.04-.012-.08-.012-.12 0 0 0-.07.07-.07.12 0 .05 0 .1.14.15.121.059.255.086.39.08.5.02.995-.102 1.43-.35.36-.215.648-.532.83-.91.182-.391.274-.818.27-1.25.017-.586-.266-1.14-.75-1.47zM98.68 118.18c-.195-.018-.376-.107-.51-.25-.092-.168-.133-.359-.12-.55v-5c-.01-.173.024-.345.1-.5.128-.147.306-.24.5-.26.22 0 .32-.11.32-.21-.002-.047-.029-.089-.07-.11-.069-.018-.141-.018-.21 0H96.12c-.19 0-.28 0-.28.14-.001.055.03.106.08.13.075.04.156.067.24.08.217.032.42.13.58.28.107.14.16.314.15.49v2.08c0 .09 0 .14-.1.14h-3.78c-.034-.022-.053-.06-.05-.1v-2.1c-.007-.18.05-.357.16-.5.167-.139.367-.232.58-.27.083-.016.164-.043.24-.08.05-.024.081-.075.08-.13 0-.09-.1-.14-.29-.14h-2.59c-.065-.018-.135-.018-.2 0-.041.021-.068.063-.07.11 0 .1.1.17.32.21.19.017.368.102.5.24.081.164.116.348.1.53v5c.017.186-.029.373-.13.53-.15.136-.339.223-.54.25-.2 0-.31.11-.31.19s0 .08.08.11c.066.012.134.012.2 0h2.72c.07.013.14.013.21 0 0 0 .08-.06.08-.11.003-.053-.03-.102-.08-.12-.076-.036-.157-.06-.24-.07-.228-.04-.44-.144-.61-.3-.143-.147-.222-.345-.22-.55v-2.08c0-.08 0-.13.09-.13h3.75c.025-.014.055-.014.08 0v2.24c.01.189-.058.374-.19.51-.16.135-.353.225-.56.26-.083.01-.164.034-.24.07-.045.023-.072.07-.07.12.004.046.03.087.07.11.07.013.14.013.21 0h2.59c.066.012.134.012.2 0 .06 0 .08-.06.08-.11s-.08-.11-.28-.15zM102.66 118.18c-.22-.04-.428-.13-.61-.26-.149-.13-.227-.323-.21-.52v-5c-.017-.192.045-.383.17-.53.178-.128.383-.214.6-.25.083-.016.164-.043.24-.08.05-.029.08-.082.08-.14.001-.048-.033-.09-.08-.1-.07-.013-.14-.013-.21 0H99.91c-.066-.012-.134-.012-.2 0-.047.017-.079.06-.08.11 0 .1.11.18.32.22.21.026.409.113.57.25.12.15.177.34.16.53v5c.016.198-.057.392-.2.53-.184.13-.397.216-.62.25-.21 0-.32.11-.32.2 0 .09 0 .09.09.11.066.012.134.012.2 0H102.76c.065.018.135.018.2 0 .043-.014.072-.055.07-.1.001-.053-.025-.102-.07-.13-.095-.046-.196-.076-.3-.09zM110.22 116.67c-.1 0-.19.059-.23.15-.202.4-.501.744-.87 1-.386.252-.84.378-1.3.36-.415.005-.824-.095-1.19-.29-.35-.2-.656-.469-.9-.79-.25-.342-.439-.724-.56-1.13-.125-.432-.189-.88-.19-1.33.001-.389.069-.774.2-1.14.13-.364.323-.703.57-1 .242-.289.542-.524.88-.69.352-.17.739-.256 1.13-.25.294-.006.587.03.87.11.234.057.455.159.65.3.161.13.291.293.38.48.098.205.175.42.23.64.012.07.062.128.13.15.057.026.123.026.18 0 .057-.028.092-.087.09-.15v-.68l-.06-.59c-.004-.083-.032-.162-.08-.23-.062-.058-.138-.099-.22-.12-.23-.08-.44-.13-.63-.18-.205-.044-.412-.077-.62-.1-.243-.017-.487-.017-.73 0-.576-.003-1.148.095-1.69.29-.499.18-.96.452-1.36.8-.389.33-.703.739-.92 1.2-.22.459-.333.961-.33 1.47-.018 1.03.426 2.013 1.21 2.68.379.327.817.578 1.29.74.486.18 1.001.272 1.52.27.388 0 .776-.03 1.16-.09.342-.05.677-.138 1-.26.074-.028.145-.065.21-.11.05-.06.091-.127.12-.2 0-.13.09-.26.13-.41.04-.15.08-.29.11-.42.006-.1.006-.2 0-.3-.02-.12-.08-.18-.18-.18zM120.75 111.29h-2.31c-.076-.011-.154-.011-.23 0-.06 0-.09.06-.09.1.002.065.04.123.1.15.076.046.162.073.25.08.236.016.449.147.57.35.122.277.122.593 0 .87l-1.42 3.75c0 .06 0 .08-.07.07-.07-.01 0 0 0-.06l-1.53-4.1c-.015-.068-.035-.135-.06-.2-.011-.086-.011-.174 0-.26.006-.124.078-.235.19-.29.161-.073.334-.12.51-.14.085-.007.168-.034.24-.08.06-.027.098-.085.1-.15 0 0 0-.08-.1-.1-.07-.011-.14-.011-.21 0h-2.79c-.066-.012-.134-.012-.2 0-.024.003-.046.014-.06.033-.016.02-.023.043-.02.067-.006.059.026.115.08.14.077.04.157.074.24.1.187.044.357.142.49.28.128.147.226.316.29.5l2.06 5.3.15.39c0 .16.1.28.13.38.033.065.098.107.17.11.029.012.061.012.09 0 .028-.02.05-.048.06-.08.064-.126.121-.257.17-.39l.17-.44.17-.39 1.92-4.66c.094-.233.23-.446.4-.63.174-.18.396-.305.64-.36l.25-.09c.06 0 .09-.08.09-.13.003-.027-.005-.053-.022-.074-.017-.02-.041-.033-.068-.036-.114-.03-.234-.034-.35-.01zM124.33 118.18c-.223-.04-.435-.13-.62-.26-.149-.13-.227-.323-.21-.52v-5c-.017-.192.045-.383.17-.53.18-.125.385-.21.6-.25.083-.016.164-.043.24-.08.05-.029.08-.082.08-.14.001-.048-.033-.09-.08-.1-.07-.013-.14-.013-.21 0H121.57c-.066-.012-.134-.012-.2 0-.047.017-.079.06-.08.11 0 .1.11.18.32.22.21.026.409.113.57.25.124.147.182.339.16.53v5c.016.198-.057.392-.2.53-.181.13-.39.215-.61.25-.22 0-.32.11-.32.2-.006.052.029.1.08.11.066.012.134.012.2 0h2.88c.065.02.135.02.2 0 .043-.014.072-.055.07-.1.001-.053-.025-.102-.07-.13-.074-.043-.156-.074-.24-.09zM131 116.58c-.05 0-.1 0-.15.11l-.12.23c-.071.158-.151.311-.24.46-.098.13-.209.25-.33.36-.097.084-.209.148-.33.19-.16.062-.33.093-.5.09h-1.28c-.215.025-.431-.028-.61-.15-.113-.137-.167-.313-.15-.49v-5.08c-.018-.185.082-.36.25-.44.214-.088.435-.158.66-.21.084-.013.165-.04.24-.08.048-.03.075-.084.07-.14.006-.046-.024-.09-.07-.1-.066-.013-.134-.013-.2 0H125.42c-.07-.011-.14-.011-.21 0-.047.017-.079.06-.08.11 0 .1.11.18.32.22.143.03.283.07.42.12.091.035.166.103.21.19.02.13.02.26 0 .39v5.07c.018.192-.056.381-.2.51-.188.127-.398.215-.62.26-.055.005-.107.026-.15.06-.047.027-.077.076-.08.13 0 0 0 .07.07.1.066.017.134.017.2 0h5.34c.05.003.1-.02.13-.06.006-.046.006-.094 0-.14.009-.151.029-.302.06-.45 0-.14.06-.29.1-.44.04-.15.1-.33.15-.53-.005-.02-.005-.04 0-.06.004-.02.004-.04 0-.06.008-.046.008-.094 0-.14-.023-.018-.05-.029-.08-.03zM137.45 116.58s-.1 0-.14.11c-.044.075-.084.151-.12.23-.07.16-.154.314-.25.46-.095.13-.202.25-.32.36-.1.085-.215.15-.34.19-.159.063-.329.094-.5.09h-1.27c-.215.027-.432-.027-.61-.15-.113-.137-.167-.313-.15-.49v-5.08c-.017-.182.078-.356.24-.44.214-.088.435-.158.66-.21.084-.013.165-.04.24-.08.05-.029.08-.082.08-.14.006-.046-.024-.09-.07-.1-.066-.012-.134-.012-.2 0h-2.83c-.066-.012-.134-.012-.2 0-.049.014-.082.06-.08.11 0 .1.1.18.32.22.143.03.283.07.42.12.089.035.16.103.2.19.046.125.066.257.06.39v5.07c.02.195-.058.386-.21.51-.186.13-.397.219-.62.26-.051.008-.1.028-.14.06-.052.023-.087.073-.09.13 0 0 0 .07.08.1.066.017.134.017.2 0h5.34c.048.006.096-.017.12-.06.023-.044.04-.091.05-.14.009-.151.029-.302.06-.45.025-.148.058-.295.1-.44 0-.15.09-.33.14-.53v-.06-.06c.008-.046.008-.094 0-.14-.018-.027-.047-.045-.079-.051-.032-.006-.065.002-.091.021zM145.13 118.14c-.139-.025-.273-.069-.4-.13-.138-.073-.26-.171-.36-.29-.127-.164-.222-.35-.28-.55-.11-.34-.24-.74-.4-1.19-.16-.45-.32-.94-.49-1.46-.17-.52-.36-1.07-.53-1.62l-.53-1.63v-.15l-.05-.12h-.05l-.12.18c-.043.085-.113.152-.2.19-.085.05-.176.09-.27.12l-.26.07c-.008.101-.025.202-.05.3-.04.147-.09.29-.15.43-.17.47-.33.92-.49 1.34l-.47 1.23-.49 1.2c-.17.41-.35.83-.55 1.28-.08.212-.214.398-.39.54-.165.114-.348.202-.54.26-.083.029-.164.066-.24.11-.054.026-.089.08-.09.14.004.054.04.1.09.12.073.012.147.012.22 0 .206.014.414.014.62 0h1.97c.047-.017.079-.06.08-.11 0-.09-.11-.16-.33-.22-.189-.038-.365-.124-.51-.25-.119-.109-.172-.272-.14-.43 0-.06 0-.15.06-.28.06-.13.07-.27.12-.42.05-.15.08-.29.13-.43.044-.107.08-.218.11-.33.02-.055.051-.106.09-.15.03-.01.06-.01.09 0h2c.06-.014.12-.014.18 0 .044.015.075.054.08.1 0 .18.11.37.16.58.05.21.11.41.16.59.036.155.062.312.08.47.023.134-.031.269-.14.35-.165.11-.353.178-.55.2-.08.016-.157.043-.23.08-.058.023-.097.078-.1.14.004.05.04.091.09.1.069.018.141.018.21 0h2.94c.07.012.14.012.21 0 .05 0 .08 0 .08-.09-.004-.062-.033-.12-.08-.16-.086-.06-.186-.097-.29-.11zm-3-2.79h-1.73s-.06 0-.06-.08v-.08l1-2.62c0-.11.06-.16.08-.16.02 0 0 .06.08.17l.82 2.61v.06c.005.02.005.04 0 .06 0 0-.05.04-.15.04h-.04zM152.5 115.23h-.56c-.183.01-.367.01-.55 0h-1.49c-.046-.011-.094-.011-.14 0-.052.023-.087.073-.09.13.002.062.036.119.09.15.042.035.095.056.15.06h.29l.37.09c.104.032.2.087.28.16.047.039.082.091.1.15.011.066.011.134 0 .2v.51c-.005.077-.005.153 0 .23.003.164-.028.328-.09.48-.046.123-.121.233-.22.32-.107.088-.225.162-.35.22-.247.103-.513.147-.78.13-.345 0-.687-.075-1-.22-.323-.154-.61-.376-.84-.65-.244-.298-.433-.636-.56-1-.137-.447-.205-.912-.2-1.38-.004-.408.06-.813.19-1.2.118-.361.297-.7.53-1 .231-.297.525-.54.86-.71.35-.175.738-.264 1.13-.26.27-.008.54.026.8.1.185.055.363.132.53.23.107.062.205.14.29.23.093.1.173.21.24.33.061.11.115.223.16.34 0 .07.07.13.1.19.04.06.108.095.18.09.045-.005.086-.031.11-.07.037-.041.055-.095.05-.15v-.55c0-.22-.05-.43-.08-.66.007-.04.007-.08 0-.12l-.1-.06c-.134-.052-.27-.095-.41-.13l-.62-.12-.66-.09h-.51c-1.08-.014-2.123.39-2.91 1.13-.369.348-.665.766-.87 1.23-.2.471-.302.978-.3 1.49-.005.493.097.98.3 1.43.206.432.49.823.84 1.15.358.32.771.57 1.22.74.466.18.96.272 1.46.27.337.004.672-.033 1-.11.266-.06.527-.14.78-.24.23-.09.41-.18.56-.25.094-.055.195-.099.3-.13.063 0 .12-.035.15-.09.007-.04.007-.08 0-.12-.004-.038-.022-.074-.05-.1-.03-.034-.057-.071-.08-.11l-.06-.09c-.009-.03-.009-.06 0-.09V117v-.4c0-.13 0-.26.05-.43.01-.123.056-.241.13-.34.103-.097.231-.163.37-.19.05-.015.098-.039.14-.07.049-.03.079-.083.08-.14.003-.058-.028-.113-.08-.14-.06-.06-.148-.082-.23-.06zM159 116.86c-.032-.015-.068-.015-.1 0l-.09.11c-.088.178-.184.352-.29.52-.094.128-.205.242-.33.34-.12.082-.257.136-.4.16-.18.017-.36.017-.54 0h-.86c-.181.018-.363-.032-.51-.14-.125-.15-.183-.346-.16-.54v-2.09c0-.12 0-.2.08-.24.067-.006.135 0 .2.02h1c.126-.006.247.045.33.14.093.127.155.274.18.43.06.21.15.32.27.32.036-.002.068-.026.08-.06.012-.053.012-.107 0-.16v-.24-.34-.29V114.22 114c.018-.048.018-.102 0-.15-.032-.012-.068-.012-.1 0-.08 0-.15.08-.2.22-.036.159-.104.308-.2.44-.118.11-.28.162-.44.14h-1c-.059 0-.115-.022-.16-.06-.042-.05-.063-.115-.06-.18v-2.24c-.003-.116.054-.225.15-.29.091-.063.2-.098.31-.1h1.23c.14-.004.28.02.41.07.127.05.24.128.33.23.07.079.124.17.16.27l.14.4c.012.04.037.075.07.1.025.013.055.013.08 0 .036.01.074.01.11 0 .036-.042.054-.095.05-.15-.003-.191-.023-.382-.06-.57-.04-.207-.08-.427-.12-.66-.001-.05-.033-.093-.08-.11h-4.71c-.07-.016-.14-.016-.21 0-.043.014-.072.055-.07.1-.001.053.025.102.07.13.076.047.161.077.25.09.207.02.403.104.56.24.114.156.168.348.15.54v5c.02.197-.046.394-.18.54-.173.131-.376.217-.59.25-.21 0-.32.11-.32.21 0 .1 0 .07.08.09.069.018.141.018.21 0h4.84c.035.015.075.015.11 0 .032-.04.06-.083.08-.13l.15-.45c.05-.18.1-.34.14-.5.009-.123.009-.247 0-.37.012-.04.012-.08 0-.12.022-.044.004-.098-.04-.12z" transform="translate(0 1) translate(0 -.5) translate(10)"/>
                    <path d="M89.82 132.78L88.07 129.24 86.33 132.78 82.42 133.35 85.25 136.11 84.58 140 88.07 138.16 91.57 140 90.9 136.11 93.73 133.35zM103.55 132.78L101.81 129.24 100.06 132.78 96.15 133.35 98.98 136.11 98.31 140 101.81 138.16 105.3 140 104.64 136.11 107.46 133.35zM121.19 133.35L117.28 132.78 115.54 129.24 113.79 132.78 109.88 133.35 112.71 136.11 112.04 140 115.54 138.16 119.03 140 118.37 136.11zM76.09 132.78L74.34 129.24 72.59 132.78 68.68 133.35 71.51 136.11 70.85 140 74.34 138.16 77.84 140 77.17 136.11 80 133.35zM62.36 132.78L60.61 129.24 58.86 132.78 54.95 133.35 57.78 136.11 57.11 140 60.61 138.16 64.11 140 63.44 136.11 66.27 133.35z" transform="translate(0 1) translate(0 -.5) translate(10)"/>
                    <path fill="#FFF" d="M90.33 0c-11.06 0-19.8 11.65-19.8 27.1 0 16 8.8 27.69 19.74 27.69 10.94 0 19.8-11.58 19.8-27.17 0-12.4-6.35-27.62-19.74-27.62zm.4 53.84c-9.63 0-17-11.13-17-27.95C73.76 8.06 82.45 1 90 1c9.15 0 16.89 11 16.89 27.94-.05 14.95-6.89 24.9-16.16 24.9z" transform="translate(0 1) translate(0 -.5) translate(10)"/>
                    <path fill="#FFF" d="M104.29 29.7c-.384-.907-.933-1.734-1.62-2.44-.089-.104-.186-.201-.29-.29-.263.528-.6 1.017-1 1.45l-.2.2c-.09.09-.14.09-.11.2.03.11.26.34.33.45.885 1.239 1.244 2.777 1 4.28-.158.998-.53 1.95-1.09 2.79-1.382 1.813-3.294 3.151-5.47 3.83-2.638.817-5.421 1.055-8.16.7 0 .3.13.77-.26.84-.096.01-.194.01-.29 0h-5.92c-.36 0-.68 0-.69-.43v-2c0-.32.09-.4.4-.5.068-.014.132-.041.19-.08.14-.11.1 0 .06-.18-.04-.18-.08-.22-.1-.34-.02-.12 0-.15 0-.23v-.72L80.85 29v-1.4c0-.3-.06-.32.2-.48 2.196-1.403 4.585-2.481 7.09-3.2 2.47-.691 5.08-.691 7.55 0 1.2.303 2.278.966 3.09 1.9.089.107.17.22.24.34.305-.43.554-.897.74-1.39.07-.22.14-.45.19-.67 0-.06.08-.28 0-.33-.08-.05-.28-.17-.35-.21-.776-.425-1.598-.76-2.45-1-1.982-.557-4.045-.774-6.1-.64-2.107.079-4.17.615-6.05 1.57-.912.477-1.785 1.025-2.61 1.64-.36.26-1.1 1-1.48.41-.19-.476-.253-.993-.18-1.5v-3.26-3.92c0-.93-.28-2.17.64-2.75.597-.314 1.265-.47 1.94-.45 1.64-.13 3.28-.19 4.93-.19 2.2 0 4.4.18 6.6.24.84 0 1.69 0 2.54.08.738-.002 1.474.062 2.2.19.4.1 1.16.53 1 1.08-.15.4-1.07.35-1 .89.07.54.74.84 1.17.95.694.222 1.454.062 2-.42.554-.77.554-1.81 0-2.58-.552-.757-1.364-1.284-2.28-1.48-1.65-.301-3.337-.342-5-.12-3.667.163-7.34.106-11-.17-1.25-.08-2.51-.17-3.76-.28-.606-.091-1.217-.138-1.83-.14-.42 0-.69.17-.7.62.069.68.21 1.35.42 2 .198 1.24.262 2.497.19 3.75 0 1.34-.1 2.67-.2 4 0 .43-.09.86-.09 1.3v13.66c.01.896-.07 1.79-.24 2.67-.1.47-.53 1.27-.16 1.69.385.345.849.592 1.35.72.574.184 1.163.318 1.76.4 1.659.2 3.33.293 5 .28 2.2 0 4.43.13 6.64.06 2.7.063 5.363-.63 7.69-2 .27-.2.531-.413.78-.64.439-.383.856-.79 1.25-1.22 2.35-2.493 3.024-6.131 1.72-9.3z" transform="translate(0 1) translate(0 -.5) translate(10)"/>
                    <path fill="#FFF" d="M97.84 16.3c-2.334-.875-4.808-1.316-7.3-1.3H87.9c-1.29 0-2.55.25-3.82.4-.788.125-1.592.125-2.38 0-.22 0-.58 0-.52.27.06.27.22.32.32.47.094.144.172.298.23.46.394 1.152.626 2.354.69 3.57.15 1.46.23 2.92.3 4.38.46-.32.93-.62 1.41-.9.211-.088.413-.199.6-.33 0 0 .11 0 .13-.06.02-.06 0-.47 0-.6 0-1 0-2.07.07-3.11 0-.69.06-1.38.1-2.08-.031-.142-.031-.288 0-.43.09-.17.77-.19 1-.23 2.013-.328 4.062-.382 6.09-.16 1.237.075 2.453.352 3.6.82 1.095.512 2.106 1.186 3 2 1.206 1.176 1.759 2.869 1.48 4.53-.464 1.846-1.607 3.449-3.2 4.49-1.562 1.142-3.39 1.868-5.31 2.11-.7.098-1.404.152-2.11.16h-.2c-1.157-.001-2.312-.108-3.45-.32-.1 0-.38 0-.45-.1s-.13-.46-.16-.61c-.03-.15-.09-.49-.13-.74-.17-1.2-.27-2.409-.3-3.62l-1 .47c-.35.132-.685.3-1 .5-.11.08-.09 0-.12.17-.015.14-.015.28 0 .42v4.68c0 1.19 0 2.38-.13 3.57.014 1.036-.209 2.062-.65 3-.178.306-.424.566-.72.76-.182.051-.36.118-.53.2-.01.066-.01.134 0 .2v1.06c-.05.331-.05.669 0 1 0 .13 0 .06.12.09.193.02.387.02.58 0h5.86v-.84c0-.27 0-.31-.22-.42-.94-.417-1.493-1.401-1.36-2.42v-1.32c-.006-1.003-.07-2.004-.19-3-.07-.48-.23-1 .35-1.18.424-.1.866-.1 1.29 0 1.391.198 2.8.232 4.2.1 2.746-.19 5.403-1.06 7.73-2.53 1.199-.711 2.21-1.699 2.95-2.88.86-1.475 1.255-3.177 1.13-4.88-.3-2.93-2.76-4.81-5.34-5.82z" transform="translate(0 1) translate(0 -.5) translate(10)"/>
                </g>
            </g>
        </g>
    </g>
</svg>
