<?xml version="1.0" encoding="UTF-8"?>
<svg width="140px" height="139px" viewBox="0 0 140 139" version="1.1" xmlns="http://www.w3.org/2000/svg" xmlns:xlink="http://www.w3.org/1999/xlink">
    <!-- Generator: Sketch 55.2 (78181) - https://sketchapp.com -->
    <title>RB Logo Moscow G Copy</title>
    <desc>Created with Sketch.</desc>
    <defs>
        <polygon id="path-1" points="0 0.0263048017 43.1985971 0.0263048017 43.1985971 59.874714 0 59.874714"></polygon>
    </defs>
    <g id="New" stroke="none" stroke-width="1" fill="none" fill-rule="evenodd">
        <g id="Desktop-/-Home" transform="translate(-651.000000, -80.000000)">
            <g id="Logo-/-RB-H&amp;R-WHITE" transform="translate(634.000000, 80.000000)">
                <polygon id="Star-Copy-5" fill="#FFFFFF" fill-rule="evenodd" points="87.5 136.75 83.6793959 138.75861 84.4090663 134.504305 81.3181326 131.49139 85.5896979 130.870695 87.5 127 89.4103021 130.870695 93.6818674 131.49139 90.5909337 134.504305 91.3206041 138.75861"></polygon>
                <polygon id="Star-Copy-6" fill="#FFFFFF" fill-rule="evenodd" points="102.5 136.75 98.6793959 138.75861 99.4090663 134.504305 96.3181326 131.49139 100.589698 130.870695 102.5 127 104.410302 130.870695 108.681867 131.49139 105.590934 134.504305 106.320604 138.75861"></polygon>
                <polygon id="Star-Copy-7" fill="#FFFFFF" fill-rule="evenodd" points="117.5 136.75 113.679396 138.75861 114.409066 134.504305 111.318133 131.49139 115.589698 130.870695 117.5 127 119.410302 130.870695 123.681867 131.49139 120.590934 134.504305 121.320604 138.75861"></polygon>
                <polygon id="Star-Copy-8" fill="#FFFFFF" fill-rule="evenodd" points="72.5 136.75 68.6793959 138.75861 69.4090663 134.504305 66.3181326 131.49139 70.5896979 130.870695 72.5 127 74.4103021 130.870695 78.6818674 131.49139 75.5909337 134.504305 76.3206041 138.75861"></polygon>
                <polygon id="Star-Copy-9" fill="#FFFFFF" fill-rule="evenodd" points="57.5 136.75 53.6793959 138.75861 54.4090663 134.504305 51.3181326 131.49139 55.5896979 130.870695 57.5 127 59.4103021 130.870695 63.6818674 131.49139 60.5909337 134.504305 61.3206041 138.75861"></polygon>
                <g id="Group-2" stroke-width="1" fill-rule="evenodd" transform="translate(65.000000, 0.000000)">
                    <g id="Group-13">
                        <mask id="mask-2" fill="white">
                            <use xlink:href="#path-1"></use>
                        </mask>
                        <g id="Clip-12"></g>
                        <path d="M39.6653612,31.5880334 C39.6653612,13.0506639 31.2140042,1.0634405 21.2125428,1.0634405 C13.0203507,1.0634405 3.53458873,8.82561169 3.53458873,28.3129603 C3.53458873,46.6784718 11.5547975,58.8376785 22.0735866,58.8376785 C32.1624802,58.8376785 39.6653612,47.972167 39.6653612,31.5880334 M-2.50521921e-05,29.6271983 C-2.50521921e-05,12.7578038 9.546238,0.0262797495 21.6346722,0.0262797495 C36.2620209,0.0262797495 43.1985971,16.6517912 43.1985971,30.19438 C43.1985971,47.2253612 33.5839415,59.874714 21.5651524,59.874714 C9.61575783,59.874714 -2.50521921e-05,47.0610188 -2.50521921e-05,29.6271983" id="Fill-11" fill="#FFFFFF" mask="url(#mask-2)"></path>
                    </g>
                    <path d="M36.8858956,32.4748935 C36.4692777,31.4888392 35.861261,30.5736827 35.1091942,29.8065846 C35.0590898,29.7403215 34.9628894,29.6383591 34.8009269,29.4910522 C34.4906555,30.0794029 34.1198831,30.5937244 33.6567933,31.0728476 C33.5867724,31.1452484 33.5157495,31.2163967 33.4437244,31.2869186 C33.3386305,31.3895073 33.292785,31.3898831 33.321595,31.511762 C33.3526597,31.643286 33.6056868,31.880405 33.6862296,31.997023 C33.9110731,32.322952 34.1093612,32.6669186 34.2744551,33.0269186 C34.7971691,34.1664175 34.9474823,35.4379415 34.7508225,36.6728894 C34.5795908,37.748881 34.1756242,38.8243716 33.558714,39.7270021 C32.1802171,41.7440793 29.8456033,43.1248309 27.584142,43.9052067 C24.7102797,44.8967724 21.6722004,44.9566472 18.672952,44.6755616 C18.6859791,45.0016159 18.8170021,45.5092985 18.3877328,45.5895908 C18.2915324,45.6077537 18.1736618,45.5895908 18.076334,45.5895908 L16.2075658,45.5895908 L11.6722422,45.5895908 C11.276167,45.5895908 10.9265637,45.6341837 10.9141628,45.1247474 C10.8967516,44.4071273 10.9141628,43.6870021 10.9141628,42.9690063 C10.9141628,42.6219081 11.0171273,42.5358539 11.3528267,42.4246221 C11.4143299,42.4042046 11.5171691,42.3733904 11.5627641,42.3355616 C11.7098205,42.2130564 11.6651023,42.3527223 11.6248935,42.1353946 C11.601595,42.0103841 11.5362088,41.9022839 11.5223048,41.7706347 C11.5126597,41.6798205 11.5284426,41.599904 11.5298205,41.5119708 C11.5335783,41.2524301 11.516167,40.9907599 11.5092777,40.7314697 C11.430238,37.7206973 11.3511983,34.7099248 11.2722839,31.6992777 C11.2587557,31.1872109 11.2453528,30.6751441 11.2319499,30.1632025 C11.2235574,29.8419081 11.1713236,29.8186096 11.449904,29.6434948 C13.8398831,28.1409896 16.4747474,26.8903841 19.2024301,26.146334 C21.8667307,25.4194447 24.7760418,25.3449144 27.4397161,26.1383173 C28.7010939,26.5141002 29.9945386,27.1444134 30.8211357,28.2052484 C30.9147056,28.3253737 31.001762,28.4507599 31.0781712,28.5825344 C31.4104885,28.1118038 31.6904468,27.6017411 31.8858539,27.0588601 C31.9719081,26.8196117 32.0416785,26.574476 32.0926597,26.3252067 C32.1060626,26.260071 32.1818455,26.0270856 32.152785,25.9670856 C32.1135783,25.8859165 31.8476493,25.7832025 31.7679833,25.7377328 C30.9242255,25.257357 30.021595,24.8850814 29.0924092,24.6058747 C26.9416785,23.9594029 24.6651858,23.8008225 22.4306555,23.9014071 C20.0853946,24.0067516 17.8468559,24.6120125 15.762263,25.6918873 C14.7645595,26.2085887 13.8162088,26.8148518 12.9118246,27.480739 C12.5257704,27.7649562 11.7173361,28.6070856 11.2979624,27.9274196 C11.0139958,27.4672109 11.0986722,26.8112192 11.1001754,26.2870021 C11.1035574,25.1014071 11.1055616,23.9158121 11.1058121,22.7300919 C11.1061879,21.3009896 11.1054363,19.871762 11.0942881,18.4426597 C11.0863967,17.4279207 10.7892777,16.0742255 11.7869812,15.4367724 C12.4268142,15.0277954 13.1768768,15.0022422 13.9071482,14.9442463 C15.6980042,14.8020752 17.4971273,14.7358121 19.2934948,14.7378163 C21.6971273,14.7406973 24.0972526,14.9307182 26.4998831,14.9981086 C27.4273152,15.0240376 28.3552484,15.0443299 29.2823048,15.0874196 C30.0673152,15.1239958 30.9099457,15.1238706 31.6789228,15.300238 C32.1217203,15.4016994 32.9458121,15.8784426 32.7243507,16.4754363 C32.5598831,16.9188601 31.547023,16.8618664 31.6229311,17.4505929 C31.6953319,18.0111357 32.4222213,18.3651232 32.8909478,18.48362 C33.6427641,18.6733904 34.5764593,18.640572 35.1282338,18.0255407 C35.827691,17.246167 35.6088601,16.0157286 35.0873987,15.2065428 C34.5306138,14.3427432 33.57362,13.8525971 32.6052276,13.5955616 C30.8117411,13.1194447 28.9690271,13.3608225 27.1463549,13.4597787 C23.1418873,13.6774823 19.116,13.5326806 15.1164175,13.2801545 C13.7439332,13.1933486 12.3723257,13.0901336 11.0024718,12.9682547 C10.3504885,12.9103841 9.66117745,12.7851232 9.00481002,12.8126806 C8.54309812,12.8322213 8.24973695,12.9985678 8.2428476,13.4899666 C8.23232568,14.2406555 8.54297286,14.9972317 8.69491441,15.7224927 C8.97412109,17.0542672 8.93002923,18.4723466 8.90422547,19.8250397 C8.87641754,21.2825762 8.796,22.7393612 8.68890188,24.1931399 C8.65420459,24.6627432 8.59357829,25.1338497 8.58718998,25.6045804 C8.55687683,27.8507599 8.56764927,30.0983173 8.55875574,32.3446221 C8.54810856,35.0734322 8.53908977,37.8022422 8.53445511,40.5310522 C8.53270146,41.5074614 8.4748309,42.4887557 8.2736618,43.4463758 C8.16481002,43.9650814 7.69708559,44.8390271 8.0942881,45.2966054 C8.43286848,45.6867933 9.09324426,45.9222839 9.56898539,46.08362 C10.1922839,46.2949353 10.8432651,46.4208225 11.4937453,46.5140167 C13.2835992,46.7704259 15.1058956,46.7981086 16.9106555,46.8282965 C19.3221795,46.86838 21.753119,46.9703424 24.1636409,46.8925553 C27.0205929,46.800238 30.1580042,46.3141002 32.5706555,44.6617829 C32.8800501,44.4499666 33.1348309,44.1954363 33.419048,43.9586931 C33.9606764,43.5072526 34.5127015,43.1135574 34.9993403,42.5903424 C37.5034322,39.8983591 38.3322839,35.8977745 36.8858956,32.4748935" id="Fill-14" fill="#FFFFFF"></path>
                    <path d="M29.8409436,17.8255992 C27.3319666,16.8365386 24.547666,16.4137829 21.8585637,16.3903591 C20.8969353,16.3820919 19.9374363,16.3557871 18.9755574,16.3934906 C17.5700042,16.4486054 16.1970188,16.6591691 14.8034906,16.8280209 C13.9155157,16.93562 13.0811524,16.9768309 12.2079582,16.8147432 C11.9699624,16.7704008 11.5681253,16.7737829 11.642405,17.1097328 C11.6857453,17.3055157 11.8798998,17.4622171 11.9877495,17.6251816 C12.0915908,17.7825094 12.171382,17.9548685 12.241904,18.1292317 C12.7330522,19.3453904 12.8615699,20.7315282 12.9949729,22.0243466 C13.1590647,23.6167891 13.2428643,25.2169979 13.3163925,26.8158288 C13.8189395,26.4668518 14.3345136,26.1367891 14.8647432,25.8315282 C15.0661628,25.7155365 15.345119,25.6239708 15.5171023,25.4725303 C15.5520501,25.4417161 15.6358497,25.4360793 15.659524,25.3976242 C15.7289186,25.2851399 15.6598998,24.8846806 15.6606514,24.7473946 C15.6666639,23.6156618 15.6928434,22.483929 15.7348058,21.3529478 C15.7628643,20.5944927 15.7979374,19.8362881 15.8417787,19.0785846 C15.848167,18.9681044 15.814096,18.7031775 15.8710898,18.6015908 C15.9701712,18.4248476 16.7113403,18.3936576 16.9378121,18.357833 C19.1341378,18.0112359 21.37919,17.9269353 23.5906722,18.1765804 C24.8831148,18.3225094 26.3333862,18.5092735 27.5187307,19.0808392 C28.6750146,19.6383758 29.8160167,20.3458497 30.7572276,21.2216743 C32.113929,22.483929 32.7500042,24.4390021 32.4199415,26.2671858 C32.0499207,28.3169562 30.5377704,29.9402129 28.9275407,31.1511106 C27.2281253,32.429023 25.2290856,33.1577912 23.1322171,33.4541587 C22.3229061,33.5685219 21.5044509,33.621382 20.685119,33.6250146 C20.7332192,33.6243883 20.7814447,33.623762 20.8295449,33.623261 C20.7536367,33.6241378 20.6772276,33.6253904 20.6023215,33.6253904 C19.5793152,33.6256409 18.5554322,33.5476033 17.5472067,33.3971649 C17.3082088,33.3614656 17.0695866,33.3217578 16.8322171,33.2764134 C16.7234906,33.25562 16.419357,33.2467265 16.3458288,33.1736994 C16.3508392,33.174952 16.3587307,33.1768309 16.371382,33.1797119 C16.3587307,33.1768309 16.350714,33.174952 16.3458288,33.1736994 C16.2333445,33.0622171 16.2084175,32.6628852 16.1750981,32.5041795 C16.1188559,32.2348685 16.0716326,31.9636785 16.0299207,31.6918622 C15.8296284,30.3863925 15.7487098,29.0625094 15.7018622,27.743762 C15.3372276,27.9054739 14.9753486,28.0735741 14.6166013,28.2479374 C14.2741378,28.4144092 13.8371023,28.5663507 13.534096,28.7988351 C13.419858,28.8865177 13.4368935,28.8402965 13.4038246,28.9830939 C13.3728852,29.1167474 13.4132192,29.3068935 13.4168518,29.4454322 C13.425119,29.7677286 13.4320084,30.0900251 13.4376451,30.4123215 C13.4619457,31.7942004 13.4648267,33.1764551 13.4434071,34.5582088 C13.4233653,35.8566639 13.3856618,37.1561211 13.2932192,38.4515699 C13.2148058,39.549858 13.1626973,40.7487307 12.5886263,41.7192526 C12.3914656,42.052572 12.1311733,42.3499415 11.7976033,42.5513612 C11.7184384,42.5989603 11.2636159,42.7089395 11.2220292,42.7673111 C11.1967265,42.8030104 11.2220292,42.9540752 11.2220292,42.9937829 L11.2220292,44.1473111 C11.2220292,44.4361628 11.1280835,44.9081461 11.2220292,45.1818413 C11.2722589,45.3278956 11.1918413,45.2462255 11.3530522,45.2816743 C11.542572,45.3233862 11.7903382,45.2816743 11.9834906,45.2816743 L14.2333027,45.2816743 L18.3889603,45.2816743 C18.37681,44.9749102 18.3645344,44.6681461 18.3521336,44.3612568 C18.3404843,44.0688977 18.384952,44.0309436 18.1160167,43.9045553 C17.8338038,43.7720292 17.5687516,43.598167 17.3469144,43.3782088 C16.7844927,42.8206722 16.5719248,42.0402965 16.6262881,41.2665595 C16.659858,40.7886889 16.6379374,40.3066848 16.6264134,39.8271858 C16.6004843,38.7516952 16.5743048,37.6620501 16.4176033,36.5962046 C16.3414447,36.0783758 16.1694614,35.5321127 16.8036576,35.3132818 C17.2470814,35.1603382 17.7660376,35.2328643 18.2174781,35.3036367 C19.7143466,35.5383758 21.2962672,35.5306096 22.8034071,35.4059749 C25.7842422,35.1593361 28.7261211,34.2920292 31.2414864,32.6462255 C32.4776868,31.8372902 33.7073737,30.8358288 34.433261,29.5258497 C35.3192317,27.9267683 35.8619875,26.0373319 35.6733445,24.2000042 C35.3427808,20.9828017 32.651048,18.9335324 29.8409436,17.8255992" id="Fill-16" fill="#FFFFFF"></path>
                </g>
                <path d="M31.816,89.504 C31.0799963,89.504 30.4440027,89.408001 29.908,89.216 C29.3719973,89.023999 28.904002,88.6880024 28.504,88.208 C27.7679963,87.2959954 27.1600024,86.5160032 26.68,85.868 C26.1999976,85.2199968 25.5920037,84.296006 24.856,83.096 C24.6159988,82.695998 24.2720022,82.3840011 23.824,82.16 C23.2959974,81.9039987 22.6640037,81.7360004 21.928,81.656 L21.88,81.656 C21.671999,81.656 21.568,81.8159984 21.568,82.136 L21.568,86.36 C21.568,87.5440059 22.104,88.232 23.176,88.424 C23.4480014,88.4720002 23.6479994,88.5279997 23.776,88.592 C23.9040006,88.6560003 23.968,88.7439994 23.968,88.856 C23.968,89.0320009 23.7360023,89.12 23.272,89.12 C22.7599974,89.12 22.2960021,89.0880003 21.88,89.024 C21.5919986,88.9759998 21.2720018,88.952 20.92,88.952 C20.6319986,88.952 20.3400015,88.9639999 20.044,88.988 C19.7479985,89.0120001 19.5360006,89.024 19.408,89.024 C18.7679968,89.0880003 18.2320022,89.12 17.8,89.12 C17.3359977,89.12 17.104,89.0320009 17.104,88.856 C17.104,88.7439994 17.1679994,88.6560003 17.296,88.592 C17.4240006,88.5279997 17.6239986,88.4720002 17.896,88.424 C18.5200031,88.3119994 18.9679986,88.1240013 19.24,87.86 C19.5120014,87.5959987 19.648,87.1760029 19.648,86.6 L19.648,76.376 C19.648,75.7039966 19.6200003,75.2280014 19.564,74.948 C19.5079997,74.6679986 19.380001,74.4640006 19.18,74.336 C18.979999,74.2079994 18.6480023,74.1200002 18.184,74.072 C17.9279987,74.0559999 17.7320007,74.0000005 17.596,73.904 C17.4599993,73.8079995 17.392,73.7040006 17.392,73.592 C17.392,73.4159991 17.6239977,73.328 18.088,73.328 C18.7760034,73.328 19.223999,73.3359999 19.432,73.352 L20.44,73.352 C20.6800012,73.352 21.0399976,73.3360002 21.52,73.304 C22.3840043,73.2559998 22.9439987,73.232 23.2,73.232 C24.9600088,73.232 26.2999954,73.5639967 27.22,74.228 C28.1400046,74.8920033 28.6,75.8719935 28.6,77.168 C28.6,78.8960086 27.6560094,80.2399952 25.768,81.2 C25.7199998,81.2160001 25.696,81.2559997 25.696,81.32 C25.696,81.3680002 25.7199998,81.4319996 25.768,81.512 C26.776005,83.0320076 27.5879969,84.1999959 28.204,85.016 C28.8200031,85.8320041 29.631995,86.6959954 30.64,87.608 C31.0240019,87.9440017 31.415998,88.1599995 31.816,88.256 C32.216002,88.3520005 32.7439967,88.4 33.4,88.4 C33.6400012,88.4 33.76,88.4879991 33.76,88.664 C33.76,88.9680015 33.5480021,89.1839994 33.124,89.312 C32.6999979,89.4400006 32.2640022,89.504 31.816,89.504 Z M22.84,81.104 C23.5440035,81.104 24.1719972,80.9400016 24.724,80.612 C25.2760028,80.2839984 25.6999985,79.8480027 25.996,79.304 C26.2920015,78.7599973 26.44,78.1760031 26.44,77.552 C26.44,76.4159943 26.2000024,75.5320032 25.72,74.9 C25.2399976,74.2679968 24.304007,73.952 22.912,73.952 C22.4159975,73.952 22.0840008,74.1079984 21.916,74.42 C21.7479992,74.7320016 21.6480002,75.3199957 21.616,76.184 C21.5839998,77.2720054 21.568,78.6319918 21.568,80.264 C21.568,80.6320018 21.663999,80.8639995 21.856,80.96 C22.048001,81.0560005 22.3759977,81.104 22.84,81.104 Z M42.568,89.336 C40.4719895,89.336 38.8720055,88.7920054 37.768,87.704 C36.6639945,86.6159946 36.112,85.1280094 36.112,83.24 L36.112,75.872 C36.112,75.3439974 36.008001,74.9400014 35.8,74.66 C35.591999,74.3799986 35.3280016,74.2000004 35.008,74.12 C34.4799974,73.9759993 34.216,73.800001 34.216,73.592 C34.216,73.4159991 34.4479977,73.328 34.912,73.328 L35.944,73.352 C36.4560026,73.3840002 36.8799983,73.4 37.216,73.4 L38.368,73.376 C38.560001,73.3599999 38.8159984,73.352 39.136,73.352 C39.6000023,73.352 39.832,73.4399991 39.832,73.616 C39.832,73.7120005 39.7760006,73.7919997 39.664,73.856 C39.5519994,73.9200003 39.3440015,73.9999995 39.04,74.096 C38.8159989,74.1600003 38.5920011,74.3559984 38.368,74.684 C38.1439989,75.0120016 38.032,75.3919978 38.032,75.824 L38.032,82.568 C38.032,84.4240093 38.4879954,85.8159954 39.4,86.744 C40.3120046,87.6720046 41.5359923,88.136 43.072,88.136 C44.672008,88.136 45.867996,87.5800056 46.66,86.468 C47.452004,85.3559944 47.848,83.8320097 47.848,81.896 C47.848,80.9199951 47.8160003,79.2000123 47.752,76.736 C47.7359999,76.0639966 47.6480008,75.4840024 47.488,74.996 C47.3279992,74.5079976 47.0880016,74.2160005 46.768,74.12 C46.2399974,73.9759993 45.976,73.8160009 45.976,73.64 C45.976,73.4639991 46.2079977,73.376 46.672,73.376 L48.472,73.4 C48.7760015,73.4 49.1519978,73.3840002 49.6,73.352 L50.416,73.328 C50.8800023,73.328 51.112,73.4159991 51.112,73.592 C51.112,73.800001 50.8480026,73.9599994 50.32,74.072 C49.5679962,74.2160007 49.1680002,74.8159947 49.12,75.872 C49.0559997,76.8480049 49.0120001,77.8439949 48.988,78.86 C48.9639999,79.8760051 48.9440001,80.5599982 48.928,80.912 C48.928,81.3760023 48.9120002,82.0719954 48.88,83 C48.8479998,84.2160061 48.5520028,85.3079952 47.992,86.276 C47.4319972,87.2440048 46.6800047,87.9959973 45.736,88.532 C44.7919953,89.0680027 43.7360058,89.336 42.568,89.336 Z M56.248,89.384 C54.9039933,89.384 53.7760046,89.0000038 52.864,88.232 C52.6879991,88.0559991 52.5840002,87.8960007 52.552,87.752 C52.4879997,87.4639986 52.4160004,86.8000052 52.336,85.76 L52.312,85.232 C52.312,85.1199994 52.3559996,85.0360003 52.444,84.98 C52.5320004,84.9239997 52.6479993,84.896 52.792,84.896 C53.000001,84.896 53.1279998,84.9839991 53.176,85.16 C53.4640014,86.3280058 53.9159969,87.1919972 54.532,87.752 C55.1480031,88.3120028 55.8319962,88.592 56.584,88.592 C57.4160042,88.592 58.1039973,88.3240027 58.648,87.788 C59.1920027,87.2519973 59.464,86.5440044 59.464,85.664 C59.464,85.0399969 59.364001,84.524002 59.164,84.116 C58.963999,83.707998 58.6880018,83.3640014 58.336,83.084 C57.9839982,82.8039986 57.4560035,82.4480022 56.752,82.016 L56.272,81.728 C55.4879961,81.2479976 54.8720022,80.8320018 54.424,80.48 C53.9759978,80.1279982 53.5920016,79.6960026 53.272,79.184 C52.9519984,78.6719974 52.792,78.0880033 52.792,77.432 C52.792,76.1519936 53.2239957,75.1040041 54.088,74.288 C54.9520043,73.4719959 56.1919919,73.064 57.808,73.064 C58.6240041,73.064 59.4639957,73.2399982 60.328,73.592 C60.4400006,73.6400002 60.5439995,73.7199994 60.64,73.832 C60.7360005,73.9440006 60.7999998,74.064 60.832,74.192 C60.9920008,74.7520028 61.1119996,75.2039983 61.192,75.548 C61.2720004,75.8920017 61.312,76.2319983 61.312,76.568 C61.312,76.7440009 61.1920012,76.832 60.952,76.832 C60.8079993,76.832 60.6680007,76.8000003 60.532,76.736 C60.3959993,76.6719997 60.312,76.5920005 60.28,76.496 C59.9279982,75.6159956 59.5240023,74.9600022 59.068,74.528 C58.6119977,74.0959978 58.0560033,73.88 57.4,73.88 C56.599996,73.88 55.9400026,74.0999978 55.42,74.54 C54.8999974,74.9800022 54.64,75.6719953 54.64,76.616 C54.64,77.064 54.7839986,77.4799981 55.072,77.864 C55.3600014,78.2480019 55.7239978,78.5999984 56.164,78.92 C56.6040022,79.2400016 57.2159961,79.6399976 58,80.12 C58.7520038,80.5840023 59.3599977,80.9999982 59.824,81.368 C60.2880023,81.7360018 60.6799984,82.1919973 61,82.736 C61.3200016,83.2800027 61.48,83.9279962 61.48,84.68 C61.48,86.1040071 61.0000048,87.2439957 60.04,88.1 C59.0799952,88.9560043 57.8160078,89.384 56.248,89.384 Z M67.408,89.384 C66.0639933,89.384 64.9360046,89.0000038 64.024,88.232 C63.8479991,88.0559991 63.7440002,87.8960007 63.712,87.752 C63.6479997,87.4639986 63.5760004,86.8000052 63.496,85.76 L63.472,85.232 C63.472,85.1199994 63.5159996,85.0360003 63.604,84.98 C63.6920004,84.9239997 63.8079993,84.896 63.952,84.896 C64.160001,84.896 64.2879998,84.9839991 64.336,85.16 C64.6240014,86.3280058 65.0759969,87.1919972 65.692,87.752 C66.3080031,88.3120028 66.9919962,88.592 67.744,88.592 C68.5760042,88.592 69.2639973,88.3240027 69.808,87.788 C70.3520027,87.2519973 70.624,86.5440044 70.624,85.664 C70.624,85.0399969 70.524001,84.524002 70.324,84.116 C70.123999,83.707998 69.8480018,83.3640014 69.496,83.084 C69.1439982,82.8039986 68.6160035,82.4480022 67.912,82.016 L67.432,81.728 C66.6479961,81.2479976 66.0320022,80.8320018 65.584,80.48 C65.1359978,80.1279982 64.7520016,79.6960026 64.432,79.184 C64.1119984,78.6719974 63.952,78.0880033 63.952,77.432 C63.952,76.1519936 64.3839957,75.1040041 65.248,74.288 C66.1120043,73.4719959 67.3519919,73.064 68.968,73.064 C69.7840041,73.064 70.6239957,73.2399982 71.488,73.592 C71.6000006,73.6400002 71.7039995,73.7199994 71.8,73.832 C71.8960005,73.9440006 71.9599998,74.064 71.992,74.192 C72.1520008,74.7520028 72.2719996,75.2039983 72.352,75.548 C72.4320004,75.8920017 72.472,76.2319983 72.472,76.568 C72.472,76.7440009 72.3520012,76.832 72.112,76.832 C71.9679993,76.832 71.8280007,76.8000003 71.692,76.736 C71.5559993,76.6719997 71.472,76.5920005 71.44,76.496 C71.0879982,75.6159956 70.6840023,74.9600022 70.228,74.528 C69.7719977,74.0959978 69.2160033,73.88 68.56,73.88 C67.759996,73.88 67.1000026,74.0999978 66.58,74.54 C66.0599974,74.9800022 65.8,75.6719953 65.8,76.616 C65.8,77.064 65.9439986,77.4799981 66.232,77.864 C66.5200014,78.2480019 66.8839978,78.5999984 67.324,78.92 C67.7640022,79.2400016 68.3759961,79.6399976 69.16,80.12 C69.9120038,80.5840023 70.5199977,80.9999982 70.984,81.368 C71.4480023,81.7360018 71.8399984,82.1919973 72.16,82.736 C72.4800016,83.2800027 72.64,83.9279962 72.64,84.68 C72.64,86.1040071 72.1600048,87.2439957 71.2,88.1 C70.2399952,88.9560043 68.9760078,89.384 67.408,89.384 Z M82.72,89.336 C81.311993,89.336 79.9960061,89.0040033 78.772,88.34 C77.5479939,87.6759967 76.5720036,86.744006 75.844,85.544 C75.1159964,84.343994 74.752,82.9760077 74.752,81.44 C74.752,79.9679926 75.0719968,78.5920064 75.712,77.312 C76.3520032,76.0319936 77.2879938,75.0040039 78.52,74.228 C79.752,73.4519961 81.2239914,73.064 82.936,73.064 C84.344007,73.064 85.6599939,73.3959967 86.884,74.06 C88.1080061,74.7240033 89.0839964,75.655994 89.812,76.856 C90.5400036,78.056006 90.904,79.4239923 90.904,80.96 C90.904,82.4320074 90.5840032,83.8079936 89.944,85.088 C89.3039968,86.3680064 88.3680062,87.3959961 87.136,88.172 C85.9039938,88.9480039 84.4320086,89.336 82.72,89.336 Z M83.08,88.376 C84.872009,88.376 86.2399953,87.8200056 87.184,86.708 C88.1280047,85.5959944 88.6,84.072 88.6,82.136 C88.6,80.6159924 88.3680023,79.2480061 87.904,78.032 C87.4399977,76.8159939 86.7560045,75.8520036 85.852,75.14 C84.9479955,74.4279964 83.8480065,74.072 82.552,74.072 C80.7759911,74.072 79.4160047,74.6199945 78.472,75.716 C77.5279953,76.8120055 77.056,78.3199904 77.056,80.24 C77.056,81.7600076 77.2839977,83.1359938 77.74,84.368 C78.1960023,85.6000062 78.8759955,86.5759964 79.78,87.296 C80.6840045,88.0160036 81.7839935,88.376 83.08,88.376 Z M92.824,84.92 C92.7279995,84.92 92.68,84.8720005 92.68,84.776 C92.68,84.4879986 92.7159996,84.2040014 92.788,83.924 C92.8600004,83.6439986 92.9519994,83.4960001 93.064,83.48 C95.1120102,83.1919986 96.6479949,82.9920006 97.672,82.88 C97.8000006,82.88 97.864,82.9279995 97.864,83.024 C97.864,83.3760018 97.8240004,83.6759988 97.744,83.924 C97.6639996,84.1720012 97.5360009,84.3039999 97.36,84.32 L96.736,84.416 C95.0879918,84.6720013 93.7840048,84.8399996 92.824,84.92 Z M99.712,89.12 C99.2479977,89.12 99.016,89.0320009 99.016,88.856 C99.016,88.7439994 99.0799994,88.6560003 99.208,88.592 C99.3360006,88.5279997 99.5359986,88.4720002 99.808,88.424 C100.448003,88.3119994 100.919998,88.1200014 101.224,87.848 C101.528002,87.5759986 101.68,87.1680027 101.68,86.624 L101.68,75.824 C101.68,75.2479971 101.556001,74.8240014 101.308,74.552 C101.059999,74.2799986 100.648003,74.1200002 100.072,74.072 C99.8159987,74.0559999 99.6200007,74.0000005 99.484,73.904 C99.3479993,73.8079995 99.28,73.7040006 99.28,73.592 C99.28,73.4159991 99.5119977,73.328 99.976,73.328 C100.696004,73.328 101.175999,73.3359999 101.416,73.352 L102.472,73.352 C102.712001,73.352 103.055998,73.3360002 103.504,73.304 C104.320004,73.2559998 104.863999,73.232 105.136,73.232 C107.05601,73.232 108.463996,73.5079972 109.36,74.06 C110.256004,74.6120028 110.704,75.5279936 110.704,76.808 C110.704,77.3040025 110.620001,77.7599979 110.452,78.176 C110.283999,78.5920021 110.096001,78.903999 109.888,79.112 C109.631999,79.3680013 109.396001,79.5639993 109.18,79.7 C108.963999,79.8360007 108.664002,79.9839992 108.28,80.144 C108.216,80.1760002 108.184,80.2199997 108.184,80.276 C108.184,80.3320003 108.216,80.3679999 108.28,80.384 C108.952003,80.6080011 109.516,80.8479987 109.972,81.104 C110.428002,81.3600013 110.827998,81.7479974 111.172,82.268 C111.516,82.7880026 111.688,83.4799957 111.688,84.344 C111.688,85.1600041 111.560001,85.8279974 111.304,86.348 C111.047999,86.8680026 110.748002,87.2599987 110.404,87.524 C110.059998,87.7880013 109.656002,88.0399988 109.192,88.28 C108.103995,88.8240027 106.744008,89.096 105.112,89.096 L104.392,89.072 C103.959998,89.0239998 103.440003,89 102.832,89 C102.431998,89 101.944003,89.0159998 101.368,89.048 C100.919998,89.0960002 100.368003,89.12 99.712,89.12 Z M104.656,80.096 C105.760006,80.096 106.727996,79.8640023 107.56,79.4 C107.816001,79.2559993 108.059999,78.9920019 108.292,78.608 C108.524001,78.2239981 108.64,77.728003 108.64,77.12 C108.64,76.2559957 108.388003,75.5120031 107.884,74.888 C107.379997,74.2639969 106.464007,73.952 105.136,73.952 C104.511997,73.952 104.092001,74.0359992 103.876,74.204 C103.659999,74.3720008 103.552,74.6479981 103.552,75.032 L103.552,79.208 C103.552,79.800003 103.919996,80.096 104.656,80.096 Z M105.448,88.112 C106.152004,88.112 106.807997,87.9520016 107.416,87.632 C108.024003,87.3119984 108.511998,86.8720028 108.88,86.312 C109.248002,85.7519972 109.432,85.1360034 109.432,84.464 C109.432,83.6479959 109.252002,82.9920025 108.892,82.496 C108.531998,81.9999975 108.120002,81.6240013 107.656,81.368 C106.935996,80.967998 106.024006,80.768 104.92,80.768 C104.455998,80.768 104.112001,80.8599991 103.888,81.044 C103.663999,81.2280009 103.552,81.423999 103.552,81.632 L103.552,86.408 C103.552,87.0480032 103.703998,87.4919988 104.008,87.74 C104.312002,87.9880012 104.791997,88.112 105.448,88.112 Z M113.296,89.12 C113.087999,89.12 112.920001,89.0920003 112.792,89.036 C112.663999,88.9799997 112.6,88.9040005 112.6,88.808 C112.6,88.599999 112.863997,88.4160008 113.392,88.256 C113.856002,88.1119993 114.255998,87.9080013 114.592,87.644 C114.928002,87.3799987 115.215999,86.9680028 115.456,86.408 C116.304004,84.4559902 117.043997,82.684008 117.676,81.092 C118.308003,79.499992 119.063996,77.5120119 119.944,75.128 C120.120001,74.6319975 120.232,74.1680022 120.28,73.736 C120.328,73.7199999 120.443999,73.6840003 120.628,73.628 C120.812001,73.5719997 120.983999,73.4880006 121.144,73.376 C121.272001,73.2799995 121.372,73.136001 121.444,72.944 C121.516,72.751999 121.568,72.6240003 121.6,72.56 C121.616,72.544 121.636,72.54 121.66,72.548 C121.684,72.556 121.704,72.5679999 121.72,72.584 C121.752,72.6640004 121.78,72.7519995 121.804,72.848 C121.828,72.9440005 121.856,73.0319996 121.888,73.112 C123.072006,76.8400186 124.495992,81.1119759 126.16,85.928 C126.464002,86.8080044 126.799998,87.4039984 127.168,87.716 C127.536002,88.0280016 128.007997,88.2319995 128.584,88.328 C128.840001,88.3760002 129.035999,88.4519995 129.172,88.556 C129.308001,88.6600005 129.376,88.7679994 129.376,88.88 C129.376,89.0400008 129.144002,89.12 128.68,89.12 L127.384,89.072 C126.487996,89.0079997 125.808002,88.976 125.344,88.976 L122.824,89 C122.359998,89 122.128,88.904001 122.128,88.712 C122.128,88.6159995 122.203999,88.5240004 122.356,88.436 C122.508001,88.3479996 122.695999,88.2880002 122.92,88.256 C123.896005,88.0959992 124.384,87.7360028 124.384,87.176 C124.384,86.6639974 124.072003,85.3680104 123.448,83.288 C123.416,83.1759994 123.356,83.1040002 123.268,83.072 C123.18,83.0399998 123.024001,83.024 122.8,83.024 L118.264,83.024 C118.087999,83.024 117.952,83.1679986 117.856,83.456 C117.679999,83.9680026 117.472001,84.6359959 117.232,85.46 C116.991999,86.2840041 116.872,86.7679993 116.872,86.912 C116.872,87.2480017 117.003999,87.5359988 117.268,87.776 C117.532001,88.0160012 117.863998,88.1839995 118.264,88.28 C118.552001,88.3600004 118.755999,88.4319997 118.876,88.496 C118.996001,88.5600003 119.056,88.6479994 119.056,88.76 C119.056,88.9360009 118.824002,89.024 118.36,89.024 C118.071999,89.024 117.832001,89.0160001 117.64,89 L116.176,88.976 C115.903999,88.976 115.604002,88.9879999 115.276,89.012 C114.947998,89.0360001 114.704001,89.048 114.544,89.048 C114.095998,89.0960002 113.680002,89.12 113.296,89.12 Z M122.632,82.232 C122.728,82.232 122.808,82.2240001 122.872,82.208 C122.936,82.1919999 122.968,82.1600002 122.968,82.112 L122.92,81.872 L121.048,76.016 C120.952,75.7279986 120.88,75.584 120.832,75.584 C120.8,75.584 120.736,75.7199986 120.64,75.992 L118.456,81.872 L118.408,82.064 C118.408,82.1440004 118.444,82.1919999 118.516,82.208 C118.588,82.2240001 118.719999,82.232 118.912,82.232 L122.632,82.232 Z M130.576,89.12 C130.367999,89.12 130.204001,89.0920003 130.084,89.036 C129.963999,88.9799997 129.904,88.9120004 129.904,88.832 C129.904,88.639999 130.079998,88.5040004 130.432,88.424 C131.088003,88.2959994 131.575998,88.1040013 131.896,87.848 C132.216002,87.5919987 132.376,87.2080026 132.376,86.696 L132.376,75.56 C132.376,75.1759981 132.336,74.8920009 132.256,74.708 C132.176,74.5239991 132.044001,74.3920004 131.86,74.312 C131.675999,74.2319996 131.360002,74.1520004 130.912,74.072 C130.383997,73.9759995 130.12,73.8160011 130.12,73.592 C130.12,73.4159991 130.351998,73.328 130.816,73.328 C131.296002,73.328 131.791997,73.3439998 132.304,73.376 L133.504,73.4 L134.944,73.376 C135.552003,73.3439998 136.079998,73.328 136.528,73.328 C136.992002,73.328 137.224,73.4159991 137.224,73.592 C137.224,73.8160011 136.960003,73.9759995 136.432,74.072 C135.679996,74.2160007 135.136002,74.3679992 134.8,74.528 C134.463998,74.6880008 134.296,74.9759979 134.296,75.392 L134.296,86.696 C134.296,87.2240026 134.415999,87.5999989 134.656,87.824 C134.896001,88.0480011 135.391996,88.16 136.144,88.16 L139.12,88.16 C139.520002,88.16 139.887998,88.0960006 140.224,87.968 C140.560002,87.8399994 140.815999,87.6960008 140.992,87.536 C141.312002,87.2639986 141.547999,87.0200011 141.7,86.804 C141.852001,86.5879989 142.031999,86.2640022 142.24,85.832 C142.304,85.6719992 142.384,85.5120008 142.48,85.352 C142.576,85.1919992 142.672,85.112 142.768,85.112 C142.864,85.112 142.936,85.1559996 142.984,85.244 C143.032,85.3320004 143.056,85.4319994 143.056,85.544 L143.032,85.664 C142.823999,86.4320038 142.676,87.019998 142.588,87.428 C142.5,87.836002 142.432,88.2639978 142.384,88.712 C142.352,88.9840014 142.240001,89.12 142.048,89.12 C140.335991,89.12 138.760007,89.0960002 137.32,89.048 C135.687992,89.0159998 134.520004,89 133.816,89 C133.319998,89 132.712004,89.0159998 131.992,89.048 C131.271996,89.0800002 130.800001,89.1039999 130.576,89.12 Z M145.528,89.12 C145.063998,89.12 144.832,89.0320009 144.832,88.856 C144.832,88.7439994 144.895999,88.6560003 145.024,88.592 C145.152001,88.5279997 145.351999,88.4720002 145.624,88.424 C146.248003,88.3119994 146.715998,88.1120014 147.028,87.824 C147.340002,87.5359986 147.496,87.1120028 147.496,86.552 L147.496,77.24 C147.496,76.1679946 147.46,75.4440019 147.388,75.068 C147.316,74.6919981 147.184001,74.4880002 146.992,74.456 C146.783999,74.4079998 146.54,74.38 146.26,74.372 C145.979999,74.364 145.656002,74.36 145.288,74.36 L144.16,74.36 C143.743998,74.36 143.352002,74.4399992 142.984,74.6 C142.615998,74.7600008 142.352001,74.9919985 142.192,75.296 C142.096,75.488001 141.948001,75.687999 141.748,75.896 C141.547999,76.104001 141.368001,76.208 141.208,76.208 C141.095999,76.208 141.04,76.104001 141.04,75.896 C141.04,75.7359992 141.08,75.5760008 141.16,75.416 C141.384001,74.9839978 141.544,74.5880018 141.64,74.228 C141.736,73.8679982 141.824,73.4240026 141.904,72.896 C141.952,72.5279982 142.087999,72.344 142.312,72.344 C142.36,72.344 142.451999,72.4319991 142.588,72.608 C142.724001,72.7840009 142.832,72.9519992 142.912,73.112 C143.008,73.2720008 143.219998,73.3919996 143.548,73.472 C143.876002,73.5520004 144.223998,73.592 144.592,73.592 L153.04,73.592 C154.032005,73.592 154.791997,73.4720012 155.32,73.232 C155.416,73.1839998 155.555999,73.0920007 155.74,72.956 C155.924001,72.8199993 156.095999,72.752 156.256,72.752 C156.304,72.752 156.344,72.8119994 156.376,72.932 C156.408,73.0520006 156.424,73.1759994 156.424,73.304 C156.424,73.3680003 156.392,73.5919981 156.328,73.976 L156.184,74.696 C156.12,74.888001 156.088,75.1199986 156.088,75.392 L156.088,75.68 C156.088,75.8400008 156.052,76.0079991 155.98,76.184 C155.908,76.3600009 155.816001,76.448 155.704,76.448 C155.591999,76.448 155.504,76.3720008 155.44,76.22 C155.376,76.0679992 155.312,75.8160018 155.248,75.464 C155.184,75.1119982 154.984002,74.840001 154.648,74.648 C154.311998,74.455999 153.776004,74.36 153.04,74.36 L150.616,74.36 C150.215998,74.36 149.940001,74.4079995 149.788,74.504 C149.635999,74.6000005 149.536,74.8279982 149.488,75.188 C149.44,75.5480018 149.416,76.1919954 149.416,77.12 L149.416,86.552 C149.416,87.1120028 149.575998,87.5359986 149.896,87.824 C150.216002,88.1120014 150.687997,88.3119994 151.312,88.424 C151.584001,88.4720002 151.783999,88.5279997 151.912,88.592 C152.04,88.6560003 152.104,88.7439994 152.104,88.856 C152.104,89.0320009 151.872002,89.12 151.408,89.12 C150.815997,89.12 150.304002,89.0960002 149.872,89.048 C149.359997,89.0159998 148.936002,89 148.6,89 C148.199998,89 147.712003,89.0159998 147.136,89.048 C146.655998,89.0960002 146.120003,89.12 145.528,89.12 Z" id="RUSSO-BALT" fill="#FFFFFF" fill-rule="nonzero"></path>
                <path d="M32.322,108.06 C32.2179995,108.06 32.1340003,108.046 32.07,108.018 C32.0059997,107.99 31.974,107.952 31.974,107.904 C31.974,107.856 32.0019997,107.818 32.058,107.79 C32.1140003,107.762 32.2139993,107.736 32.358,107.712 C32.6540015,107.656 32.8499995,107.566001 32.946,107.442 C33.0420005,107.317999 33.09,107.108001 33.09,106.812 L33.09,101.388 C33.09,101.179999 33.0780001,101.026 33.054,100.926 C33.0299999,100.825999 32.974,100.744 32.886,100.68 C32.7979996,100.616 32.654001,100.568 32.454,100.536 C32.3179993,100.512 32.2180003,100.484 32.154,100.452 C32.0899997,100.42 32.058,100.376 32.058,100.32 C32.058,100.215999 32.1739988,100.164 32.406,100.164 C32.6460012,100.164 32.8859988,100.172 33.126,100.188 L33.642,100.2 L34.182,100.188 C34.4380013,100.172 34.6819988,100.164 34.914,100.164 C35.1460012,100.164 35.262,100.215999 35.262,100.32 C35.262,100.376 35.2300003,100.42 35.166,100.452 C35.1019997,100.484 35.0020007,100.512 34.866,100.536 C34.5699985,100.592 34.3600006,100.687999 34.236,100.824 C34.1119994,100.960001 34.05,101.147999 34.05,101.388 L34.05,103.752 C34.05,103.824 34.1059994,103.86 34.218,103.86 L38.67,103.86 C38.7260003,103.86 38.754,103.812 38.754,103.716 L38.754,101.376 C38.754,101.143999 38.6940006,100.958001 38.574,100.818 C38.4539994,100.677999 38.2500014,100.584 37.962,100.536 C37.8259993,100.512 37.7260003,100.484 37.662,100.452 C37.5979997,100.42 37.566,100.376 37.566,100.32 C37.566,100.272 37.5979997,100.234 37.662,100.206 C37.7260003,100.178 37.8099995,100.164 37.914,100.164 C38.1380011,100.164 38.3939986,100.172 38.682,100.188 L39.306,100.2 L39.726,100.188 C39.934001,100.172 40.1579988,100.164 40.398,100.164 C40.6300012,100.164 40.746,100.215999 40.746,100.32 C40.746,100.376 40.7140003,100.42 40.65,100.452 C40.5859997,100.484 40.4860007,100.512 40.35,100.536 C40.0779986,100.584 39.9040004,100.669999 39.828,100.794 C39.7519996,100.918001 39.714,101.111999 39.714,101.376 L39.714,106.8 C39.714,107.112002 39.7539996,107.329999 39.834,107.454 C39.9140004,107.578001 40.0979986,107.664 40.386,107.712 C40.5300007,107.736 40.6299997,107.762 40.686,107.79 C40.7420003,107.818 40.77,107.856 40.77,107.904 C40.77,107.952 40.7380003,107.99 40.674,108.018 C40.6099997,108.046 40.5260005,108.06 40.422,108.06 C40.1259985,108.06 39.8860009,108.048 39.702,108.024 C39.493999,108.008 39.3180007,108 39.174,108 C39.0139992,108 38.830001,108.008 38.622,108.024 C38.429999,108.048 38.1860015,108.06 37.89,108.06 C37.7859995,108.06 37.7020003,108.046 37.638,108.018 C37.5739997,107.99 37.542,107.952 37.542,107.904 C37.542,107.856 37.5699997,107.818 37.626,107.79 C37.6820003,107.762 37.7819993,107.736 37.926,107.712 C38.4780028,107.607999 38.754,107.316002 38.754,106.836 L38.754,104.436 C38.754,104.404 38.75,104.376 38.742,104.352 C38.734,104.328 38.7180001,104.316 38.694,104.316 L34.11,104.316 C34.0859999,104.316 34.07,104.328 34.062,104.352 C34.054,104.376 34.05,104.408 34.05,104.448 L34.05,106.728 C34.05,106.976001 34.1399991,107.189999 34.32,107.37 C34.5000009,107.550001 34.7299986,107.664 35.01,107.712 C35.1540007,107.736 35.2539997,107.762 35.31,107.79 C35.3660003,107.818 35.394,107.856 35.394,107.904 C35.394,107.952 35.3620003,107.99 35.298,108.018 C35.2339997,108.046 35.1500005,108.06 35.046,108.06 C34.7499985,108.06 34.4940011,108.048 34.278,108.024 C34.0219987,108.008 33.8100008,108 33.642,108 C33.4819992,108 33.2900011,108.008 33.066,108.024 C32.873999,108.048 32.6260015,108.06 32.322,108.06 Z M45.774,108.168 C45.0699965,108.168 44.4120031,108.002002 43.8,107.67 C43.1879969,107.337998 42.7000018,106.872003 42.336,106.272 C41.9719982,105.671997 41.79,104.988004 41.79,104.22 C41.79,103.483996 41.9499984,102.796003 42.27,102.156 C42.5900016,101.515997 43.0579969,101.002002 43.674,100.614 C44.29,100.225998 45.0259957,100.032 45.882,100.032 C46.5860035,100.032 47.2439969,100.197998 47.856,100.53 C48.4680031,100.862002 48.9559982,101.327997 49.32,101.928 C49.6840018,102.528003 49.866,103.211996 49.866,103.98 C49.866,104.716004 49.7060016,105.403997 49.386,106.044 C49.0659984,106.684003 48.5980031,107.197998 47.982,107.586 C47.3659969,107.974002 46.6300043,108.168 45.774,108.168 Z M45.954,107.688 C46.8500045,107.688 47.5339976,107.410003 48.006,106.854 C48.4780024,106.297997 48.714,105.536 48.714,104.568 C48.714,103.807996 48.5980012,103.124003 48.366,102.516 C48.1339988,101.907997 47.7920023,101.426002 47.34,101.07 C46.8879977,100.713998 46.3380032,100.536 45.69,100.536 C44.8019956,100.536 44.1220024,100.809997 43.65,101.358 C43.1779976,101.906003 42.942,102.659995 42.942,103.62 C42.942,104.380004 43.0559989,105.067997 43.284,105.684 C43.5120011,106.300003 43.8519977,106.787998 44.304,107.148 C44.7560023,107.508002 45.3059968,107.688 45.954,107.688 Z M52.734,108.06 C52.5019988,108.06 52.386,108.016 52.386,107.928 C52.386,107.872 52.4179997,107.828 52.482,107.796 C52.5460003,107.764 52.6459993,107.736 52.782,107.712 C53.0940016,107.656 53.3279992,107.556001 53.484,107.412 C53.6400008,107.267999 53.718,107.056001 53.718,106.776 L53.718,102.12 C53.718,101.583997 53.7000002,101.222001 53.664,101.034 C53.6279998,100.845999 53.5620005,100.744 53.466,100.728 C53.3619995,100.704 53.2400007,100.69 53.1,100.686 C52.9599993,100.682 52.7980009,100.68 52.614,100.68 L52.05,100.68 C51.841999,100.68 51.6460009,100.72 51.462,100.8 C51.2779991,100.88 51.1460004,100.995999 51.066,101.148 C51.0179998,101.244 50.9440005,101.343999 50.844,101.448 C50.7439995,101.552001 50.6540004,101.604 50.574,101.604 C50.5179997,101.604 50.49,101.552001 50.49,101.448 C50.49,101.368 50.5099998,101.288 50.55,101.208 C50.6620006,100.991999 50.7419998,100.794001 50.79,100.614 C50.8380002,100.433999 50.8819998,100.212001 50.922,99.948 C50.9460001,99.7639991 51.0139994,99.672 51.126,99.672 C51.1500001,99.672 51.1959997,99.7159996 51.264,99.804 C51.3320003,99.8920004 51.3859998,99.9759996 51.426,100.056 C51.4740002,100.136 51.5799992,100.196 51.744,100.236 C51.9080008,100.276 52.0819991,100.296 52.266,100.296 L56.49,100.296 C56.9860025,100.296 57.3659987,100.236001 57.63,100.116 C57.6780002,100.092 57.7479995,100.046 57.84,99.978 C57.9320005,99.9099997 58.0179996,99.876 58.098,99.876 C58.1220001,99.876 58.1419999,99.9059997 58.158,99.966 C58.1740001,100.026 58.182,100.088 58.182,100.152 C58.182,100.184 58.1660002,100.295999 58.134,100.488 L58.062,100.848 C58.0299998,100.944 58.014,101.059999 58.014,101.196 L58.014,101.34 C58.014,101.42 57.9960002,101.504 57.96,101.592 C57.9239998,101.68 57.8780003,101.724 57.822,101.724 C57.7659997,101.724 57.7220002,101.686 57.69,101.61 C57.6579998,101.534 57.6260002,101.408001 57.594,101.232 C57.5619998,101.055999 57.4620008,100.92 57.294,100.824 C57.1259992,100.728 56.8580018,100.68 56.49,100.68 L55.278,100.68 C55.077999,100.68 54.9400004,100.704 54.864,100.752 C54.7879996,100.8 54.7380001,100.913999 54.714,101.094 C54.6899999,101.274001 54.678,101.595998 54.678,102.06 L54.678,106.776 C54.678,107.056001 54.7579992,107.267999 54.918,107.412 C55.0780008,107.556001 55.3139984,107.656 55.626,107.712 C55.7620007,107.736 55.8619997,107.764 55.926,107.796 C55.99,107.828 56.022,107.872 56.022,107.928 C56.022,108.016 55.9060012,108.06 55.674,108.06 C55.3779985,108.06 55.1220011,108.048 54.906,108.024 C54.6499987,108.008 54.4380008,108 54.27,108 C54.069999,108 53.8260014,108.008 53.538,108.024 C53.2979988,108.048 53.0300015,108.06 52.734,108.06 Z M58.998,108.06 C58.7659988,108.06 58.65,108.016 58.65,107.928 C58.65,107.872 58.6819997,107.828 58.746,107.796 C58.8100003,107.764 58.9099993,107.736 59.046,107.712 C59.3580016,107.656 59.5839993,107.562001 59.724,107.43 C59.8640007,107.297999 59.934,107.092001 59.934,106.812 L59.934,101.412 C59.934,101.131999 59.8760006,100.930001 59.76,100.806 C59.6439994,100.681999 59.4340015,100.592 59.13,100.536 C58.8659987,100.488 58.734,100.408001 58.734,100.296 C58.734,100.208 58.8499988,100.164 59.082,100.164 C59.3860015,100.164 59.7539978,100.172 60.186,100.188 L61.206,100.2 L62.85,100.188 L63.87,100.164 C64.0060007,100.164 64.078,100.2 64.086,100.272 C64.1020001,100.336 64.1359997,100.511999 64.188,100.8 C64.2400003,101.088001 64.266,101.323999 64.266,101.508 C64.266,101.628001 64.2100006,101.688 64.098,101.688 C64.0579998,101.688 64.0300001,101.68 64.014,101.664 C63.9979999,101.648 63.9820001,101.616 63.966,101.568 C63.9499999,101.528 63.9180002,101.424001 63.87,101.256 C63.8219998,101.087999 63.7660003,100.972 63.702,100.908 C63.509999,100.691999 63.2420017,100.584 62.898,100.584 L61.326,100.584 C61.2459996,100.584 61.1540005,100.622 61.05,100.698 C60.9459995,100.774 60.894,100.863999 60.894,100.968 L60.894,103.512 C60.894,103.584 60.9159998,103.646 60.96,103.698 C61.0040002,103.75 61.0539997,103.776 61.11,103.776 L62.298,103.776 C62.5220011,103.776 62.6779996,103.736 62.766,103.656 C62.8540004,103.576 62.9299997,103.420001 62.994,103.188 C63.0420002,103.011999 63.1139995,102.924 63.21,102.924 C63.2420002,102.924 63.2759998,102.942 63.312,102.978 C63.3480002,103.014 63.366,103.06 63.366,103.116 L63.354,103.428 L63.33,103.956 L63.342,104.592 L63.354,104.88 C63.354,105.016001 63.3180004,105.084 63.246,105.084 C63.1259994,105.084 63.0340003,104.956001 62.97,104.7 C62.9219998,104.507999 62.8560004,104.37 62.772,104.286 C62.6879996,104.202 62.5700008,104.16 62.418,104.16 L61.302,104.16 C61.15,104.16 61.0440003,104.18 60.984,104.22 C60.9239997,104.26 60.894,104.343999 60.894,104.472 L60.894,106.776 C60.894,107.072001 60.9559994,107.279999 61.08,107.4 C61.2040006,107.520001 61.4059986,107.58 61.686,107.58 L62.574,107.58 C62.8380013,107.58 63.0559991,107.564 63.228,107.532 C63.4000009,107.5 63.5459994,107.448 63.666,107.376 C63.7860006,107.296 63.8959995,107.186001 63.996,107.046 C64.0960005,106.905999 64.2139993,106.708001 64.35,106.452 C64.4060003,106.347999 64.4619997,106.296 64.518,106.296 C64.6220005,106.296 64.674,106.351999 64.674,106.464 C64.674,106.568001 64.6300004,106.785998 64.542,107.118 C64.4539996,107.450002 64.3740004,107.695999 64.302,107.856 C64.294,107.872 64.2820001,107.9 64.266,107.94 C64.2499999,107.98 64.2320001,108.01 64.212,108.03 C64.1919999,108.05 64.1660002,108.06 64.134,108.06 C63.9739992,108.06 63.2700062,108.048 62.022,108.024 C61.4699972,108 60.9220027,107.988 60.378,107.988 C60.1539989,107.988 59.946001,108 59.754,108.024 C59.345998,108.048 59.0940005,108.06 58.998,108.06 Z M65.634,108.06 C65.5299995,108.06 65.4480003,108.046 65.388,108.018 C65.3279997,107.99 65.298,107.956 65.298,107.916 C65.298,107.82 65.3859991,107.752 65.562,107.712 C65.8900016,107.648 66.1339992,107.552001 66.294,107.424 C66.4540008,107.295999 66.534,107.104001 66.534,106.848 L66.534,101.28 C66.534,101.087999 66.5140002,100.946 66.474,100.854 C66.4339998,100.762 66.3680005,100.696 66.276,100.656 C66.1839995,100.616 66.0260011,100.576 65.802,100.536 C65.5379987,100.488 65.406,100.408001 65.406,100.296 C65.406,100.208 65.5219988,100.164 65.754,100.164 C65.9940012,100.164 66.2419987,100.172 66.498,100.188 L67.098,100.2 L67.818,100.188 C68.1220015,100.172 68.3859989,100.164 68.61,100.164 C68.8420012,100.164 68.958,100.208 68.958,100.296 C68.958,100.408001 68.8260013,100.488 68.562,100.536 C68.1859981,100.608 67.9140008,100.684 67.746,100.764 C67.5779992,100.844 67.494,100.987999 67.494,101.196 L67.494,106.848 C67.494,107.112001 67.5539994,107.299999 67.674,107.412 C67.7940006,107.524001 68.0419981,107.58 68.418,107.58 L69.906,107.58 C70.106001,107.58 70.2899992,107.548 70.458,107.484 C70.6260008,107.42 70.7539996,107.348 70.842,107.268 C71.0020008,107.131999 71.1199996,107.010001 71.196,106.902 C71.2720004,106.793999 71.3619995,106.632001 71.466,106.416 C71.4980002,106.336 71.5379998,106.256 71.586,106.176 C71.6340002,106.096 71.6819998,106.056 71.73,106.056 C71.7780002,106.056 71.8139999,106.078 71.838,106.122 C71.8620001,106.166 71.874,106.216 71.874,106.272 L71.862,106.332 C71.7579995,106.716002 71.6840002,107.009999 71.64,107.214 C71.5959998,107.418001 71.5620001,107.631999 71.538,107.856 C71.5219999,107.992001 71.4660005,108.06 71.37,108.06 C70.5139957,108.06 69.7260036,108.048 69.006,108.024 C68.1899959,108.008 67.6060018,108 67.254,108 C67.0059988,108 66.7020018,108.008 66.342,108.024 C65.9819982,108.04 65.7460006,108.052 65.634,108.06 Z M74.43,108.192 C73.7579966,108.192 73.1940023,108.000002 72.738,107.616 C72.6499996,107.528 72.5980001,107.448 72.582,107.376 C72.5499998,107.231999 72.5140002,106.900003 72.474,106.38 L72.462,106.116 C72.462,106.06 72.4839998,106.018 72.528,105.99 C72.5720002,105.962 72.6299996,105.948 72.702,105.948 C72.8060005,105.948 72.8699999,105.992 72.894,106.08 C73.0380007,106.664003 73.2639985,107.095999 73.572,107.376 C73.8800015,107.656001 74.2219981,107.796 74.598,107.796 C75.0140021,107.796 75.3579986,107.662001 75.63,107.394 C75.9020014,107.125999 76.038,106.772002 76.038,106.332 C76.038,106.019998 75.9880005,105.762001 75.888,105.558 C75.7879995,105.353999 75.6500009,105.182001 75.474,105.042 C75.2979991,104.901999 75.0340018,104.724001 74.682,104.508 L74.442,104.364 C74.049998,104.123999 73.7420011,103.916001 73.518,103.74 C73.2939989,103.563999 73.1020008,103.348001 72.942,103.092 C72.7819992,102.835999 72.702,102.544002 72.702,102.216 C72.702,101.575997 72.9179978,101.052002 73.35,100.644 C73.7820022,100.235998 74.401996,100.032 75.21,100.032 C75.618002,100.032 76.0379978,100.119999 76.47,100.296 C76.5260003,100.32 76.5779998,100.36 76.626,100.416 C76.6740002,100.472 76.7059999,100.532 76.722,100.596 C76.8020004,100.876001 76.8619998,101.101999 76.902,101.274 C76.9420002,101.446001 76.962,101.615999 76.962,101.784 C76.962,101.872 76.9020006,101.916 76.782,101.916 C76.7099996,101.916 76.6400003,101.9 76.572,101.868 C76.5039997,101.836 76.462,101.796 76.446,101.748 C76.2699991,101.307998 76.0680011,100.980001 75.84,100.764 C75.6119989,100.547999 75.3340016,100.44 75.006,100.44 C74.605998,100.44 74.2760013,100.549999 74.016,100.77 C73.7559987,100.990001 73.626,101.335998 73.626,101.808 C73.626,102.032 73.6979993,102.239999 73.842,102.432 C73.9860007,102.624001 74.1679989,102.799999 74.388,102.96 C74.6080011,103.120001 74.913998,103.319999 75.306,103.56 C75.6820019,103.792001 75.9859988,103.999999 76.218,104.184 C76.4500012,104.368001 76.6459992,104.595999 76.806,104.868 C76.9660008,105.140001 77.046,105.463998 77.046,105.84 C77.046,106.552004 76.8060024,107.121998 76.326,107.55 C75.8459976,107.978002 75.2140039,108.192 74.43,108.192 Z M82.506,108.18 C82.097998,108.18 81.7360016,108.106001 81.42,107.958 C81.1039984,107.809999 80.8580009,107.608001 80.682,107.352 C80.5059991,107.095999 80.418,106.804002 80.418,106.476 C80.418,105.875997 80.5959982,105.368002 80.952,104.952 C81.3080018,104.535998 81.7979969,104.184001 82.422,103.896 L82.662,103.788 L82.482,103.596 C82.4419998,103.548 82.3500007,103.450001 82.206,103.302 C82.0619993,103.153999 81.9420005,102.986001 81.846,102.798 C81.7499995,102.609999 81.702,102.408001 81.702,102.192 C81.702,101.919999 81.7819992,101.680001 81.942,101.472 C82.1020008,101.263999 82.3099987,101.102001 82.566,100.986 C82.8220013,100.869999 83.0899986,100.812 83.37,100.812 C83.6900016,100.812 83.9659988,100.887999 84.198,101.04 C84.4300012,101.192001 84.6039994,101.379999 84.72,101.604 C84.8360006,101.828001 84.894,102.051999 84.894,102.276 C84.902,102.860003 84.4820042,103.307998 83.634,103.62 L83.466,103.68 L83.622,103.848 C83.7260005,103.968001 83.8219996,104.07 83.91,104.154 C83.9980004,104.238 84.0739997,104.316 84.138,104.388 C84.3700012,104.620001 84.5639992,104.823999 84.72,105 C84.8760008,105.176001 85.0299992,105.371999 85.182,105.588 L85.326,105.804 L85.542,105.576 C85.8300014,105.263998 86.1219985,104.908002 86.418,104.508 C86.7140015,104.107998 86.862,103.864 86.862,103.776 C86.862,103.72 86.8300003,103.654 86.766,103.578 C86.7019997,103.502 86.6220005,103.456 86.526,103.44 C86.5019999,103.432 86.4720002,103.412 86.436,103.38 C86.3999998,103.348 86.382,103.324 86.382,103.308 C86.382,103.26 86.4119997,103.226 86.472,103.206 C86.5320003,103.186 86.5899997,103.176 86.646,103.176 L86.91,103.2 C87.318002,103.224 87.5140001,103.236 87.498,103.236 C87.6340007,103.236 87.8459986,103.204 88.134,103.14 C88.3580011,103.084 88.5299994,103.056 88.65,103.056 C88.6740001,103.056 88.7039998,103.068 88.74,103.092 C88.7760002,103.116 88.794,103.14 88.794,103.164 C88.794,103.212 88.7580004,103.26 88.686,103.308 C88.6139996,103.356 88.5500003,103.384 88.494,103.392 C88.1659984,103.416 87.8740013,103.539999 87.618,103.764 C87.5539997,103.82 87.2320029,104.153997 86.652,104.766 C86.0719971,105.378003 85.678001,105.795999 85.47,106.02 L85.674,106.308 C85.9540014,106.708002 86.2159988,107.009999 86.46,107.214 C86.7040012,107.418001 86.9699986,107.52 87.258,107.52 C87.6340019,107.52 87.9459988,107.448001 88.194,107.304 C88.2580003,107.264 88.3259996,107.244 88.398,107.244 C88.4540003,107.244 88.4919999,107.254 88.512,107.274 C88.5320001,107.294 88.542,107.332 88.542,107.388 C88.542,107.46 88.4560009,107.559999 88.284,107.688 C88.1119991,107.816001 87.9060012,107.93 87.666,108.03 C87.4259988,108.13 87.202001,108.18 86.994,108.18 C86.6979985,108.18 86.452001,108.132 86.256,108.036 C86.059999,107.94 85.8840008,107.800001 85.728,107.616 C85.5719992,107.431999 85.3780012,107.156002 85.146,106.788 L84.99,106.536 L84.918,106.608 L84.666,106.884 C84.3939986,107.188002 84.1640009,107.423999 83.976,107.592 C83.7879991,107.760001 83.5740012,107.899999 83.334,108.012 C83.0939988,108.124001 82.8180016,108.18 82.506,108.18 Z M83.466,103.416 C83.674001,103.32 83.8359994,103.160001 83.952,102.936 C84.0680006,102.711999 84.126,102.472001 84.126,102.216 C84.126,101.919999 84.0560007,101.664001 83.916,101.448 C83.7759993,101.231999 83.5740013,101.124 83.31,101.124 C83.0699988,101.124 82.8580009,101.197999 82.674,101.346 C82.4899991,101.494001 82.398,101.675999 82.398,101.892 C82.398,102.140001 82.4419996,102.353999 82.53,102.534 C82.6180004,102.714001 82.8139985,102.963998 83.118,103.284 L83.31,103.488 L83.466,103.416 Z M82.818,107.4 C83.1940019,107.4 83.5299985,107.320001 83.826,107.16 C84.1220015,106.999999 84.4259984,106.756002 84.738,106.428 L84.846,106.32 L84.702,106.092 C84.5739994,105.891999 84.4180009,105.688001 84.234,105.48 C84.0499991,105.271999 83.8180014,105.024001 83.538,104.736 L82.986,104.148 L82.842,103.992 L82.59,104.088 C82.0859975,104.280001 81.7520008,104.547998 81.588,104.892 C81.4239992,105.236002 81.342,105.631998 81.342,106.08 C81.342,106.456002 81.4799986,106.769999 81.756,107.022 C82.0320014,107.274001 82.3859978,107.4 82.818,107.4 Z M99.078,108.252 C98.7099982,108.252 98.3920013,108.204 98.124,108.108 C97.8559987,108.012 97.622001,107.844001 97.422,107.604 C97.0539982,107.147998 96.7500012,106.758002 96.51,106.434 C96.2699988,106.109998 95.9660018,105.648003 95.598,105.048 C95.4779994,104.847999 95.3060011,104.692001 95.082,104.58 C94.8179987,104.451999 94.5020018,104.368 94.134,104.328 L94.11,104.328 C94.0059995,104.328 93.954,104.407999 93.954,104.568 L93.954,106.68 C93.954,107.272003 94.222,107.616 94.758,107.712 C94.8940007,107.736 94.9939997,107.764 95.058,107.796 C95.1220003,107.828 95.154,107.872 95.154,107.928 C95.154,108.016 95.0380012,108.06 94.806,108.06 C94.5499987,108.06 94.318001,108.044 94.11,108.012 C93.9659993,107.988 93.8060009,107.976 93.63,107.976 C93.4859993,107.976 93.3400007,107.982 93.192,107.994 C93.0439993,108.006 92.9380003,108.012 92.874,108.012 C92.5539984,108.044 92.2860011,108.06 92.07,108.06 C91.8379988,108.06 91.722,108.016 91.722,107.928 C91.722,107.872 91.7539997,107.828 91.818,107.796 C91.8820003,107.764 91.9819993,107.736 92.118,107.712 C92.4300016,107.656 92.6539993,107.562001 92.79,107.43 C92.9260007,107.297999 92.994,107.088001 92.994,106.8 L92.994,101.688 C92.994,101.351998 92.9800001,101.114001 92.952,100.974 C92.9239999,100.833999 92.8600005,100.732 92.76,100.668 C92.6599995,100.604 92.4940012,100.56 92.262,100.536 C92.1339994,100.528 92.0360003,100.5 91.968,100.452 C91.8999997,100.404 91.866,100.352 91.866,100.296 C91.866,100.208 91.9819988,100.164 92.214,100.164 C92.5580017,100.164 92.7819995,100.168 92.886,100.176 L93.39,100.176 C93.5100006,100.176 93.6899988,100.168 93.93,100.152 C94.3620022,100.128 94.6419994,100.116 94.77,100.116 C95.6500044,100.116 96.3199977,100.281998 96.78,100.614 C97.2400023,100.946002 97.47,101.435997 97.47,102.084 C97.47,102.948004 96.9980047,103.619998 96.054,104.1 C96.0299999,104.108 96.018,104.128 96.018,104.16 C96.018,104.184 96.0299999,104.216 96.054,104.256 C96.5580025,105.016004 96.9639985,105.599998 97.272,106.008 C97.5800015,106.416002 97.9859975,106.847998 98.49,107.304 C98.682001,107.472001 98.877999,107.58 99.078,107.628 C99.278001,107.676 99.5419984,107.7 99.87,107.7 C99.9900006,107.7 100.05,107.744 100.05,107.832 C100.05,107.984001 99.9440011,108.092 99.732,108.156 C99.5199989,108.22 99.3020011,108.252 99.078,108.252 Z M94.59,104.052 C94.9420018,104.052 95.2559986,103.970001 95.532,103.806 C95.8080014,103.641999 96.0199993,103.424001 96.168,103.152 C96.3160007,102.879999 96.39,102.588002 96.39,102.276 C96.39,101.707997 96.2700012,101.266002 96.03,100.95 C95.7899988,100.633998 95.3220035,100.476 94.626,100.476 C94.3779988,100.476 94.2120004,100.553999 94.128,100.71 C94.0439996,100.866001 93.9940001,101.159998 93.978,101.592 C93.9619999,102.136003 93.954,102.815996 93.954,103.632 C93.954,103.816001 94.0019995,103.932 94.098,103.98 C94.1940005,104.028 94.3579988,104.052 94.59,104.052 Z M100.782,108.06 C100.549999,108.06 100.434,108.016 100.434,107.928 C100.434,107.872 100.466,107.828 100.53,107.796 C100.594,107.764 100.693999,107.736 100.83,107.712 C101.142002,107.656 101.367999,107.562001 101.508,107.43 C101.648001,107.297999 101.718,107.092001 101.718,106.812 L101.718,101.412 C101.718,101.131999 101.660001,100.930001 101.544,100.806 C101.427999,100.681999 101.218002,100.592 100.914,100.536 C100.649999,100.488 100.518,100.408001 100.518,100.296 C100.518,100.208 100.633999,100.164 100.866,100.164 C101.170002,100.164 101.537998,100.172 101.97,100.188 L102.99,100.2 L104.634,100.188 L105.654,100.164 C105.790001,100.164 105.862,100.2 105.87,100.272 C105.886,100.336 105.92,100.511999 105.972,100.8 C106.024,101.088001 106.05,101.323999 106.05,101.508 C106.05,101.628001 105.994001,101.688 105.882,101.688 C105.842,101.688 105.814,101.68 105.798,101.664 C105.782,101.648 105.766,101.616 105.75,101.568 C105.734,101.528 105.702,101.424001 105.654,101.256 C105.606,101.087999 105.55,100.972 105.486,100.908 C105.293999,100.691999 105.026002,100.584 104.682,100.584 L103.11,100.584 C103.03,100.584 102.938001,100.622 102.834,100.698 C102.729999,100.774 102.678,100.863999 102.678,100.968 L102.678,103.512 C102.678,103.584 102.7,103.646 102.744,103.698 C102.788,103.75 102.838,103.776 102.894,103.776 L104.082,103.776 C104.306001,103.776 104.462,103.736 104.55,103.656 C104.638,103.576 104.714,103.420001 104.778,103.188 C104.826,103.011999 104.898,102.924 104.994,102.924 C105.026,102.924 105.06,102.942 105.096,102.978 C105.132,103.014 105.15,103.06 105.15,103.116 L105.138,103.428 L105.114,103.956 L105.126,104.592 L105.138,104.88 C105.138,105.016001 105.102,105.084 105.03,105.084 C104.909999,105.084 104.818,104.956001 104.754,104.7 C104.706,104.507999 104.64,104.37 104.556,104.286 C104.472,104.202 104.354001,104.16 104.202,104.16 L103.086,104.16 C102.934,104.16 102.828,104.18 102.768,104.22 C102.708,104.26 102.678,104.343999 102.678,104.472 L102.678,106.776 C102.678,107.072001 102.739999,107.279999 102.864,107.4 C102.988001,107.520001 103.189999,107.58 103.47,107.58 L104.358,107.58 C104.622001,107.58 104.839999,107.564 105.012,107.532 C105.184001,107.5 105.329999,107.448 105.45,107.376 C105.570001,107.296 105.68,107.186001 105.78,107.046 C105.88,106.905999 105.997999,106.708001 106.134,106.452 C106.19,106.347999 106.246,106.296 106.302,106.296 C106.406001,106.296 106.458,106.351999 106.458,106.464 C106.458,106.568001 106.414,106.785998 106.326,107.118 C106.238,107.450002 106.158,107.695999 106.086,107.856 C106.078,107.872 106.066,107.9 106.05,107.94 C106.034,107.98 106.016,108.01 105.996,108.03 C105.976,108.05 105.95,108.06 105.918,108.06 C105.757999,108.06 105.054006,108.048 103.806,108.024 C103.253997,108 102.706003,107.988 102.162,107.988 C101.937999,107.988 101.730001,108 101.538,108.024 C101.129998,108.048 100.878,108.06 100.782,108.06 Z M109.206,108.192 C108.533997,108.192 107.970002,108.000002 107.514,107.616 C107.426,107.528 107.374,107.448 107.358,107.376 C107.326,107.231999 107.29,106.900003 107.25,106.38 L107.238,106.116 C107.238,106.06 107.26,106.018 107.304,105.99 C107.348,105.962 107.406,105.948 107.478,105.948 C107.582001,105.948 107.646,105.992 107.67,106.08 C107.814001,106.664003 108.039998,107.095999 108.348,107.376 C108.656002,107.656001 108.997998,107.796 109.374,107.796 C109.790002,107.796 110.133999,107.662001 110.406,107.394 C110.678001,107.125999 110.814,106.772002 110.814,106.332 C110.814,106.019998 110.764,105.762001 110.664,105.558 C110.563999,105.353999 110.426001,105.182001 110.25,105.042 C110.073999,104.901999 109.810002,104.724001 109.458,104.508 L109.218,104.364 C108.825998,104.123999 108.518001,103.916001 108.294,103.74 C108.069999,103.563999 107.878001,103.348001 107.718,103.092 C107.557999,102.835999 107.478,102.544002 107.478,102.216 C107.478,101.575997 107.693998,101.052002 108.126,100.644 C108.558002,100.235998 109.177996,100.032 109.986,100.032 C110.394002,100.032 110.813998,100.119999 111.246,100.296 C111.302,100.32 111.354,100.36 111.402,100.416 C111.45,100.472 111.482,100.532 111.498,100.596 C111.578,100.876001 111.638,101.101999 111.678,101.274 C111.718,101.446001 111.738,101.615999 111.738,101.784 C111.738,101.872 111.678001,101.916 111.558,101.916 C111.486,101.916 111.416,101.9 111.348,101.868 C111.28,101.836 111.238,101.796 111.222,101.748 C111.045999,101.307998 110.844001,100.980001 110.616,100.764 C110.387999,100.547999 110.110002,100.44 109.782,100.44 C109.381998,100.44 109.052001,100.549999 108.792,100.77 C108.531999,100.990001 108.402,101.335998 108.402,101.808 C108.402,102.032 108.473999,102.239999 108.618,102.432 C108.762001,102.624001 108.943999,102.799999 109.164,102.96 C109.384001,103.120001 109.689998,103.319999 110.082,103.56 C110.458002,103.792001 110.761999,103.999999 110.994,104.184 C111.226001,104.368001 111.421999,104.595999 111.582,104.868 C111.742001,105.140001 111.822,105.463998 111.822,105.84 C111.822,106.552004 111.582002,107.121998 111.102,107.55 C110.621998,107.978002 109.990004,108.192 109.206,108.192 Z M116.862,108.168 C116.157996,108.168 115.500003,108.002002 114.888,107.67 C114.275997,107.337998 113.788002,106.872003 113.424,106.272 C113.059998,105.671997 112.878,104.988004 112.878,104.22 C112.878,103.483996 113.037998,102.796003 113.358,102.156 C113.678002,101.515997 114.145997,101.002002 114.762,100.614 C115.378,100.225998 116.113996,100.032 116.97,100.032 C117.674004,100.032 118.331997,100.197998 118.944,100.53 C119.556003,100.862002 120.043998,101.327997 120.408,101.928 C120.772002,102.528003 120.954,103.211996 120.954,103.98 C120.954,104.716004 120.794002,105.403997 120.474,106.044 C120.153998,106.684003 119.686003,107.197998 119.07,107.586 C118.453997,107.974002 117.718004,108.168 116.862,108.168 Z M117.042,107.688 C117.938004,107.688 118.621998,107.410003 119.094,106.854 C119.566002,106.297997 119.802,105.536 119.802,104.568 C119.802,103.807996 119.686001,103.124003 119.454,102.516 C119.221999,101.907997 118.880002,101.426002 118.428,101.07 C117.975998,100.713998 117.426003,100.536 116.778,100.536 C115.889996,100.536 115.210002,100.809997 114.738,101.358 C114.265998,101.906003 114.03,102.659995 114.03,103.62 C114.03,104.380004 114.143999,105.067997 114.372,105.684 C114.600001,106.300003 114.939998,106.787998 115.392,107.148 C115.844002,107.508002 116.393997,107.688 117.042,107.688 Z M129.138,108.252 C128.769998,108.252 128.452001,108.204 128.184,108.108 C127.915999,108.012 127.682001,107.844001 127.482,107.604 C127.113998,107.147998 126.810001,106.758002 126.57,106.434 C126.329999,106.109998 126.026002,105.648003 125.658,105.048 C125.537999,104.847999 125.366001,104.692001 125.142,104.58 C124.877999,104.451999 124.562002,104.368 124.194,104.328 L124.17,104.328 C124.065999,104.328 124.014,104.407999 124.014,104.568 L124.014,106.68 C124.014,107.272003 124.282,107.616 124.818,107.712 C124.954001,107.736 125.054,107.764 125.118,107.796 C125.182,107.828 125.214,107.872 125.214,107.928 C125.214,108.016 125.098001,108.06 124.866,108.06 C124.609999,108.06 124.378001,108.044 124.17,108.012 C124.025999,107.988 123.866001,107.976 123.69,107.976 C123.545999,107.976 123.400001,107.982 123.252,107.994 C123.103999,108.006 122.998,108.012 122.934,108.012 C122.613998,108.044 122.346001,108.06 122.13,108.06 C121.897999,108.06 121.782,108.016 121.782,107.928 C121.782,107.872 121.814,107.828 121.878,107.796 C121.942,107.764 122.041999,107.736 122.178,107.712 C122.490002,107.656 122.713999,107.562001 122.85,107.43 C122.986001,107.297999 123.054,107.088001 123.054,106.8 L123.054,101.688 C123.054,101.351998 123.04,101.114001 123.012,100.974 C122.984,100.833999 122.92,100.732 122.82,100.668 C122.719999,100.604 122.554001,100.56 122.322,100.536 C122.193999,100.528 122.096,100.5 122.028,100.452 C121.96,100.404 121.926,100.352 121.926,100.296 C121.926,100.208 122.041999,100.164 122.274,100.164 C122.618002,100.164 122.841999,100.168 122.946,100.176 L123.45,100.176 C123.570001,100.176 123.749999,100.168 123.99,100.152 C124.422002,100.128 124.701999,100.116 124.83,100.116 C125.710004,100.116 126.379998,100.281998 126.84,100.614 C127.300002,100.946002 127.53,101.435997 127.53,102.084 C127.53,102.948004 127.058005,103.619998 126.114,104.1 C126.09,104.108 126.078,104.128 126.078,104.16 C126.078,104.184 126.09,104.216 126.114,104.256 C126.618003,105.016004 127.023998,105.599998 127.332,106.008 C127.640002,106.416002 128.045997,106.847998 128.55,107.304 C128.742001,107.472001 128.937999,107.58 129.138,107.628 C129.338001,107.676 129.601998,107.7 129.93,107.7 C130.050001,107.7 130.11,107.744 130.11,107.832 C130.11,107.984001 130.004001,108.092 129.792,108.156 C129.579999,108.22 129.362001,108.252 129.138,108.252 Z M124.65,104.052 C125.002002,104.052 125.315999,103.970001 125.592,103.806 C125.868001,103.641999 126.079999,103.424001 126.228,103.152 C126.376001,102.879999 126.45,102.588002 126.45,102.276 C126.45,101.707997 126.330001,101.266002 126.09,100.95 C125.849999,100.633998 125.382003,100.476 124.686,100.476 C124.437999,100.476 124.272,100.553999 124.188,100.71 C124.104,100.866001 124.054,101.159998 124.038,101.592 C124.022,102.136003 124.014,102.815996 124.014,103.632 C124.014,103.816001 124.062,103.932 124.158,103.98 C124.254,104.028 124.417999,104.052 124.65,104.052 Z M131.418,108.06 C131.185999,108.06 131.07,108.016 131.07,107.928 C131.07,107.872 131.102,107.828 131.166,107.796 C131.23,107.764 131.329999,107.736 131.466,107.712 C131.778002,107.656 132.011999,107.556001 132.168,107.412 C132.324001,107.267999 132.402,107.056001 132.402,106.776 L132.402,102.12 C132.402,101.583997 132.384,101.222001 132.348,101.034 C132.312,100.845999 132.246,100.744 132.15,100.728 C132.045999,100.704 131.924001,100.69 131.784,100.686 C131.643999,100.682 131.482001,100.68 131.298,100.68 L130.734,100.68 C130.525999,100.68 130.330001,100.72 130.146,100.8 C129.961999,100.88 129.83,100.995999 129.75,101.148 C129.702,101.244 129.628,101.343999 129.528,101.448 C129.427999,101.552001 129.338,101.604 129.258,101.604 C129.202,101.604 129.174,101.552001 129.174,101.448 C129.174,101.368 129.194,101.288 129.234,101.208 C129.346001,100.991999 129.426,100.794001 129.474,100.614 C129.522,100.433999 129.566,100.212001 129.606,99.948 C129.63,99.7639991 129.697999,99.672 129.81,99.672 C129.834,99.672 129.88,99.7159996 129.948,99.804 C130.016,99.8920004 130.07,99.9759996 130.11,100.056 C130.158,100.136 130.263999,100.196 130.428,100.236 C130.592001,100.276 130.765999,100.296 130.95,100.296 L135.174,100.296 C135.670002,100.296 136.049999,100.236001 136.314,100.116 C136.362,100.092 136.432,100.046 136.524,99.978 C136.616,99.9099997 136.702,99.876 136.782,99.876 C136.806,99.876 136.826,99.9059997 136.842,99.966 C136.858,100.026 136.866,100.088 136.866,100.152 C136.866,100.184 136.85,100.295999 136.818,100.488 L136.746,100.848 C136.714,100.944 136.698,101.059999 136.698,101.196 L136.698,101.34 C136.698,101.42 136.68,101.504 136.644,101.592 C136.608,101.68 136.562,101.724 136.506,101.724 C136.45,101.724 136.406,101.686 136.374,101.61 C136.342,101.534 136.31,101.408001 136.278,101.232 C136.246,101.055999 136.146001,100.92 135.978,100.824 C135.809999,100.728 135.542002,100.68 135.174,100.68 L133.962,100.68 C133.761999,100.68 133.624,100.704 133.548,100.752 C133.472,100.8 133.422,100.913999 133.398,101.094 C133.374,101.274001 133.362,101.595998 133.362,102.06 L133.362,106.776 C133.362,107.056001 133.441999,107.267999 133.602,107.412 C133.762001,107.556001 133.997998,107.656 134.31,107.712 C134.446001,107.736 134.546,107.764 134.61,107.796 C134.674,107.828 134.706,107.872 134.706,107.928 C134.706,108.016 134.590001,108.06 134.358,108.06 C134.061999,108.06 133.806001,108.048 133.59,108.024 C133.333999,108.008 133.122001,108 132.954,108 C132.753999,108 132.510001,108.008 132.222,108.024 C131.981999,108.048 131.714001,108.06 131.418,108.06 Z M139.338,108.192 C138.665997,108.192 138.102002,108.000002 137.646,107.616 C137.558,107.528 137.506,107.448 137.49,107.376 C137.458,107.231999 137.422,106.900003 137.382,106.38 L137.37,106.116 C137.37,106.06 137.392,106.018 137.436,105.99 C137.48,105.962 137.538,105.948 137.61,105.948 C137.714001,105.948 137.778,105.992 137.802,106.08 C137.946001,106.664003 138.171998,107.095999 138.48,107.376 C138.788002,107.656001 139.129998,107.796 139.506,107.796 C139.922002,107.796 140.265999,107.662001 140.538,107.394 C140.810001,107.125999 140.946,106.772002 140.946,106.332 C140.946,106.019998 140.896001,105.762001 140.796,105.558 C140.695999,105.353999 140.558001,105.182001 140.382,105.042 C140.205999,104.901999 139.942002,104.724001 139.59,104.508 L139.35,104.364 C138.957998,104.123999 138.650001,103.916001 138.426,103.74 C138.201999,103.563999 138.010001,103.348001 137.85,103.092 C137.689999,102.835999 137.61,102.544002 137.61,102.216 C137.61,101.575997 137.825998,101.052002 138.258,100.644 C138.690002,100.235998 139.309996,100.032 140.118,100.032 C140.526002,100.032 140.945998,100.119999 141.378,100.296 C141.434,100.32 141.486,100.36 141.534,100.416 C141.582,100.472 141.614,100.532 141.63,100.596 C141.71,100.876001 141.77,101.101999 141.81,101.274 C141.85,101.446001 141.87,101.615999 141.87,101.784 C141.87,101.872 141.810001,101.916 141.69,101.916 C141.618,101.916 141.548,101.9 141.48,101.868 C141.412,101.836 141.37,101.796 141.354,101.748 C141.177999,101.307998 140.976001,100.980001 140.748,100.764 C140.519999,100.547999 140.242002,100.44 139.914,100.44 C139.513998,100.44 139.184001,100.549999 138.924,100.77 C138.663999,100.990001 138.534,101.335998 138.534,101.808 C138.534,102.032 138.605999,102.239999 138.75,102.432 C138.894001,102.624001 139.075999,102.799999 139.296,102.96 C139.516001,103.120001 139.821998,103.319999 140.214,103.56 C140.590002,103.792001 140.893999,103.999999 141.126,104.184 C141.358001,104.368001 141.553999,104.595999 141.714,104.868 C141.874001,105.140001 141.954,105.463998 141.954,105.84 C141.954,106.552004 141.714002,107.121998 141.234,107.55 C140.753998,107.978002 140.122004,108.192 139.338,108.192 Z" id="HOTELS&amp;RESORTS" fill="#FFFFFF" fill-rule="nonzero"></path>
            </g>
        </g>
    </g>
</svg>