<svg xmlns="http://www.w3.org/2000/svg" xmlns:xlink="http://www.w3.org/1999/xlink" width="140" height="139" viewBox="0 0 140 139">
    <defs>
        <path id="a" d="M0 .026h43.199v59.849H0z"/>
    </defs>
    <g fill="none" fill-rule="evenodd">
        <path fill="#424242" fill-rule="nonzero" d="M14.816 89.504c-.736 0-1.372-.096-1.908-.288-.536-.192-1.004-.528-1.404-1.008a73.461 73.461 0 0 1-1.824-2.34c-.48-.648-1.088-1.572-1.824-2.772-.24-.4-.584-.712-1.032-.936-.528-.256-1.16-.424-1.896-.504H4.88c-.208 0-.312.16-.312.48v4.224c0 1.184.536 1.872 1.608 2.064.272.048.472.104.6.168.128.064.192.152.192.264 0 .176-.232.264-.696.264-.512 0-.976-.032-1.392-.096a5.864 5.864 0 0 0-.96-.072c-.288 0-.58.012-.876.036a8.982 8.982 0 0 1-.636.036c-.64.064-1.176.096-1.608.096-.464 0-.696-.088-.696-.264 0-.112.064-.2.192-.264s.328-.12.6-.168c.624-.112 1.072-.3 1.344-.564.272-.264.408-.684.408-1.26V76.376c0-.672-.028-1.148-.084-1.428-.056-.28-.184-.484-.384-.612s-.532-.216-.996-.264c-.256-.016-.452-.072-.588-.168-.136-.096-.204-.2-.204-.312 0-.176.232-.264.696-.264.688 0 1.136.008 1.344.024H3.44c.24 0 .6-.016 1.08-.048a39.82 39.82 0 0 1 1.68-.072c1.76 0 3.1.332 4.02.996.92.664 1.38 1.644 1.38 2.94 0 1.728-.944 3.072-2.832 4.032-.048.016-.072.056-.072.12a.41.41 0 0 0 .072.192c1.008 1.52 1.82 2.688 2.436 3.504.616.816 1.428 1.68 2.436 2.592.384.336.776.552 1.176.648.4.096.928.144 1.584.144.24 0 .36.088.36.264 0 .304-.212.52-.636.648-.424.128-.86.192-1.308.192zm-8.976-8.4c.704 0 1.332-.164 1.884-.492a3.383 3.383 0 0 0 1.272-1.308 3.61 3.61 0 0 0 .444-1.752c0-1.136-.24-2.02-.72-2.652-.48-.632-1.416-.948-2.808-.948-.496 0-.828.156-.996.468-.168.312-.268.9-.3 1.764a143.094 143.094 0 0 0-.048 4.08c0 .368.096.6.288.696.192.096.52.144.984.144zm19.728 8.232c-2.096 0-3.696-.544-4.8-1.632-1.104-1.088-1.656-2.576-1.656-4.464v-7.368c0-.528-.104-.932-.312-1.212a1.384 1.384 0 0 0-.792-.54c-.528-.144-.792-.32-.792-.528 0-.176.232-.264.696-.264l1.032.024c.512.032.936.048 1.272.048l1.152-.024c.192-.016.448-.024.768-.024.464 0 .696.088.696.264 0 .096-.056.176-.168.24-.112.064-.32.144-.624.24-.224.064-.448.26-.672.588a1.972 1.972 0 0 0-.336 1.14v6.744c0 1.856.456 3.248 1.368 4.176.912.928 2.136 1.392 3.672 1.392 1.6 0 2.796-.556 3.588-1.668.792-1.112 1.188-2.636 1.188-4.572 0-.976-.032-2.696-.096-5.16-.016-.672-.104-1.252-.264-1.74-.16-.488-.4-.78-.72-.876-.528-.144-.792-.304-.792-.48s.232-.264.696-.264l1.8.024c.304 0 .68-.016 1.128-.048l.816-.024c.464 0 .696.088.696.264 0 .208-.264.368-.792.48-.752.144-1.152.744-1.2 1.8a71.463 71.463 0 0 0-.132 2.988c-.024 1.016-.044 1.7-.06 2.052 0 .464-.016 1.16-.048 2.088-.032 1.216-.328 2.308-.888 3.276a5.988 5.988 0 0 1-2.256 2.256c-.944.536-2 .804-3.168.804zm13.68.048c-1.344 0-2.472-.384-3.384-1.152-.176-.176-.28-.336-.312-.48-.064-.288-.136-.952-.216-1.992l-.024-.528c0-.112.044-.196.132-.252a.64.64 0 0 1 .348-.084c.208 0 .336.088.384.264.288 1.168.74 2.032 1.356 2.592.616.56 1.3.84 2.052.84.832 0 1.52-.268 2.064-.804s.816-1.244.816-2.124c0-.624-.1-1.14-.3-1.548a2.975 2.975 0 0 0-.828-1.032c-.352-.28-.88-.636-1.584-1.068l-.48-.288c-.784-.48-1.4-.896-1.848-1.248a5 5 0 0 1-1.152-1.296c-.32-.512-.48-1.096-.48-1.752 0-1.28.432-2.328 1.296-3.144.864-.816 2.104-1.224 3.72-1.224.816 0 1.656.176 2.52.528a.863.863 0 0 1 .312.24c.096.112.16.232.192.36.16.56.28 1.012.36 1.356.08.344.12.684.12 1.02 0 .176-.12.264-.36.264a.976.976 0 0 1-.42-.096c-.136-.064-.22-.144-.252-.24-.352-.88-.756-1.536-1.212-1.968-.456-.432-1.012-.648-1.668-.648-.8 0-1.46.22-1.98.66-.52.44-.78 1.132-.78 2.076 0 .448.144.864.432 1.248.288.384.652.736 1.092 1.056.44.32 1.052.72 1.836 1.2.752.464 1.36.88 1.824 1.248.464.368.856.824 1.176 1.368.32.544.48 1.192.48 1.944 0 1.424-.48 2.564-1.44 3.42-.96.856-2.224 1.284-3.792 1.284zm11.16 0c-1.344 0-2.472-.384-3.384-1.152-.176-.176-.28-.336-.312-.48-.064-.288-.136-.952-.216-1.992l-.024-.528c0-.112.044-.196.132-.252a.64.64 0 0 1 .348-.084c.208 0 .336.088.384.264.288 1.168.74 2.032 1.356 2.592.616.56 1.3.84 2.052.84.832 0 1.52-.268 2.064-.804s.816-1.244.816-2.124c0-.624-.1-1.14-.3-1.548a2.975 2.975 0 0 0-.828-1.032c-.352-.28-.88-.636-1.584-1.068l-.48-.288c-.784-.48-1.4-.896-1.848-1.248a5 5 0 0 1-1.152-1.296c-.32-.512-.48-1.096-.48-1.752 0-1.28.432-2.328 1.296-3.144.864-.816 2.104-1.224 3.72-1.224.816 0 1.656.176 2.52.528a.863.863 0 0 1 .312.24c.096.112.16.232.192.36.16.56.28 1.012.36 1.356.08.344.12.684.12 1.02 0 .176-.12.264-.36.264a.976.976 0 0 1-.42-.096c-.136-.064-.22-.144-.252-.24-.352-.88-.756-1.536-1.212-1.968-.456-.432-1.012-.648-1.668-.648-.8 0-1.46.22-1.98.66-.52.44-.78 1.132-.78 2.076 0 .448.144.864.432 1.248.288.384.652.736 1.092 1.056.44.32 1.052.72 1.836 1.2.752.464 1.36.88 1.824 1.248.464.368.856.824 1.176 1.368.32.544.48 1.192.48 1.944 0 1.424-.48 2.564-1.44 3.42-.96.856-2.224 1.284-3.792 1.284zm15.312-.048a8.152 8.152 0 0 1-3.948-.996 7.62 7.62 0 0 1-2.928-2.796c-.728-1.2-1.092-2.568-1.092-4.104 0-1.472.32-2.848.96-4.128a7.608 7.608 0 0 1 2.808-3.084c1.232-.776 2.704-1.164 4.416-1.164 1.408 0 2.724.332 3.948.996a7.62 7.62 0 0 1 2.928 2.796c.728 1.2 1.092 2.568 1.092 4.104 0 1.472-.32 2.848-.96 4.128a7.608 7.608 0 0 1-2.808 3.084c-1.232.776-2.704 1.164-4.416 1.164zm.36-.96c1.792 0 3.16-.556 4.104-1.668.944-1.112 1.416-2.636 1.416-4.572 0-1.52-.232-2.888-.696-4.104-.464-1.216-1.148-2.18-2.052-2.892-.904-.712-2.004-1.068-3.3-1.068-1.776 0-3.136.548-4.08 1.644-.944 1.096-1.416 2.604-1.416 4.524 0 1.52.228 2.896.684 4.128.456 1.232 1.136 2.208 2.04 2.928.904.72 2.004 1.08 3.3 1.08zm9.744-3.456c-.096 0-.144-.048-.144-.144 0-.288.036-.572.108-.852.072-.28.164-.428.276-.444 2.048-.288 3.584-.488 4.608-.6.128 0 .192.048.192.144 0 .352-.04.652-.12.9-.08.248-.208.38-.384.396l-.624.096c-1.648.256-2.952.424-3.912.504zm6.888 4.2c-.464 0-.696-.088-.696-.264 0-.112.064-.2.192-.264s.328-.12.6-.168c.64-.112 1.112-.304 1.416-.576.304-.272.456-.68.456-1.224v-10.8c0-.576-.124-1-.372-1.272s-.66-.432-1.236-.48c-.256-.016-.452-.072-.588-.168-.136-.096-.204-.2-.204-.312 0-.176.232-.264.696-.264.72 0 1.2.008 1.44.024h1.056c.24 0 .584-.016 1.032-.048.816-.048 1.36-.072 1.632-.072 1.92 0 3.328.276 4.224.828.896.552 1.344 1.468 1.344 2.748 0 .496-.084.952-.252 1.368-.168.416-.356.728-.564.936a4.21 4.21 0 0 1-.708.588 6.276 6.276 0 0 1-.9.444c-.064.032-.096.076-.096.132 0 .056.032.092.096.108.672.224 1.236.464 1.692.72.456.256.856.644 1.2 1.164.344.52.516 1.212.516 2.076 0 .816-.128 1.484-.384 2.004s-.556.912-.9 1.176a8.107 8.107 0 0 1-1.212.756c-1.088.544-2.448.816-4.08.816l-.72-.024a14.41 14.41 0 0 0-1.56-.072c-.4 0-.888.016-1.464.048-.448.048-1 .072-1.656.072zm4.944-9.024c1.104 0 2.072-.232 2.904-.696.256-.144.5-.408.732-.792.232-.384.348-.88.348-1.488 0-.864-.252-1.608-.756-2.232-.504-.624-1.42-.936-2.748-.936-.624 0-1.044.084-1.26.252-.216.168-.324.444-.324.828v4.176c0 .592.368.888 1.104.888zm.792 8.016c.704 0 1.36-.16 1.968-.48a3.885 3.885 0 0 0 1.464-1.32c.368-.56.552-1.176.552-1.848 0-.816-.18-1.472-.54-1.968-.36-.496-.772-.872-1.236-1.128-.72-.4-1.632-.6-2.736-.6-.464 0-.808.092-1.032.276-.224.184-.336.38-.336.588v4.776c0 .64.152 1.084.456 1.332.304.248.784.372 1.44.372zm7.848 1.008c-.208 0-.376-.028-.504-.084-.128-.056-.192-.132-.192-.228 0-.208.264-.392.792-.552a3.692 3.692 0 0 0 1.2-.612c.336-.264.624-.676.864-1.236a182.06 182.06 0 0 0 2.22-5.316c.632-1.592 1.388-3.58 2.268-5.964.176-.496.288-.96.336-1.392.048-.016.164-.052.348-.108.184-.056.356-.14.516-.252a.93.93 0 0 0 .3-.432c.072-.192.124-.32.156-.384.016-.016.036-.02.06-.012a.15.15 0 0 1 .06.036c.032.08.06.168.084.264.024.096.052.184.084.264 1.184 3.728 2.608 8 4.272 12.816.304.88.64 1.476 1.008 1.788.368.312.84.516 1.416.612.256.048.452.124.588.228.136.104.204.212.204.324 0 .16-.232.24-.696.24l-1.296-.048a31.068 31.068 0 0 0-2.04-.096l-2.52.024c-.464 0-.696-.096-.696-.288 0-.096.076-.188.228-.276a1.56 1.56 0 0 1 .564-.18c.976-.16 1.464-.52 1.464-1.08 0-.512-.312-1.808-.936-3.888-.032-.112-.092-.184-.18-.216s-.244-.048-.468-.048h-4.536c-.176 0-.312.144-.408.432-.176.512-.384 1.18-.624 2.004-.24.824-.36 1.308-.36 1.452 0 .336.132.624.396.864s.596.408.996.504c.288.08.492.152.612.216s.18.152.18.264c0 .176-.232.264-.696.264a8.93 8.93 0 0 1-.72-.024l-1.464-.024c-.272 0-.572.012-.9.036-.328.024-.572.036-.732.036-.448.048-.864.072-1.248.072zm9.336-6.888c.096 0 .176-.008.24-.024s.096-.048.096-.096l-.048-.24-1.872-5.856c-.096-.288-.168-.432-.216-.432-.032 0-.096.136-.192.408l-2.184 5.88-.048.192c0 .08.036.128.108.144.072.016.204.024.396.024h3.72zm7.944 6.888c-.208 0-.372-.028-.492-.084-.12-.056-.18-.124-.18-.204 0-.192.176-.328.528-.408.656-.128 1.144-.32 1.464-.576.32-.256.48-.64.48-1.152V75.56c0-.384-.04-.668-.12-.852a.738.738 0 0 0-.396-.396c-.184-.08-.5-.16-.948-.24-.528-.096-.792-.256-.792-.48 0-.176.232-.264.696-.264.48 0 .976.016 1.488.048l1.2.024 1.44-.024a30.672 30.672 0 0 1 1.584-.048c.464 0 .696.088.696.264 0 .224-.264.384-.792.48-.752.144-1.296.296-1.632.456-.336.16-.504.448-.504.864v11.304c0 .528.12.904.36 1.128.24.224.736.336 1.488.336h2.976c.4 0 .768-.064 1.104-.192.336-.128.592-.272.768-.432.32-.272.556-.516.708-.732.152-.216.332-.54.54-.972.064-.16.144-.32.24-.48.096-.16.192-.24.288-.24.096 0 .168.044.216.132a.616.616 0 0 1 .072.3l-.024.12a37.764 37.764 0 0 0-.444 1.764c-.088.408-.156.836-.204 1.284-.032.272-.144.408-.336.408-1.712 0-3.288-.024-4.728-.072-1.632-.032-2.8-.048-3.504-.048-.496 0-1.104.016-1.824.048s-1.192.056-1.416.072zm14.952 0c-.464 0-.696-.088-.696-.264 0-.112.064-.2.192-.264s.328-.12.6-.168c.624-.112 1.092-.312 1.404-.6.312-.288.468-.712.468-1.272V77.24c0-1.072-.036-1.796-.108-2.172-.072-.376-.204-.58-.396-.612a3.766 3.766 0 0 0-.732-.084 34.51 34.51 0 0 0-.972-.012h-1.128c-.416 0-.808.08-1.176.24-.368.16-.632.392-.792.696a2.507 2.507 0 0 1-.444.6c-.2.208-.38.312-.54.312-.112 0-.168-.104-.168-.312 0-.16.04-.32.12-.48.224-.432.384-.828.48-1.188.096-.36.184-.804.264-1.332.048-.368.184-.552.408-.552.048 0 .14.088.276.264.136.176.244.344.324.504.096.16.308.28.636.36.328.08.676.12 1.044.12h8.448c.992 0 1.752-.12 2.28-.36.096-.048.236-.14.42-.276s.356-.204.516-.204c.048 0 .088.06.12.18s.048.244.048.372c0 .064-.032.288-.096.672l-.144.72a2.215 2.215 0 0 0-.096.696v.288c0 .16-.036.328-.108.504-.072.176-.164.264-.276.264-.112 0-.2-.076-.264-.228-.064-.152-.128-.404-.192-.756s-.264-.624-.6-.816c-.336-.192-.872-.288-1.608-.288h-2.424c-.4 0-.676.048-.828.144-.152.096-.252.324-.3.684-.048.36-.072 1.004-.072 1.932v9.432c0 .56.16.984.48 1.272.32.288.792.488 1.416.6.272.048.472.104.6.168.128.064.192.152.192.264 0 .176-.232.264-.696.264-.592 0-1.104-.024-1.536-.072A21.086 21.086 0 0 0 131.6 89c-.4 0-.888.016-1.464.048-.48.048-1.016.072-1.608.072z"/>
        <path fill="#C69C6D" d="M70.5 136.75l-3.82 2.009.73-4.255-3.092-3.013 4.272-.62L70.5 127l1.91 3.87 4.272.621-3.091 3.013.73 4.255zM85.5 136.75l-3.82 2.009.73-4.255-3.092-3.013 4.272-.62L85.5 127l1.91 3.87 4.272.621-3.091 3.013.73 4.255zM100.5 136.75l-3.82 2.009.73-4.255-3.092-3.013 4.272-.62L100.5 127l1.91 3.87 4.272.621-3.091 3.013.73 4.255zM55.5 136.75l-3.82 2.009.73-4.255-3.092-3.013 4.272-.62L55.5 127l1.91 3.87 4.272.621-3.091 3.013.73 4.255zM40.5 136.75l-3.82 2.009.73-4.255-3.092-3.013 4.272-.62L40.5 127l1.91 3.87 4.272.621-3.091 3.013.73 4.255z"/>
        <g transform="translate(48)">
            <mask id="b" fill="#fff">
                <use xlink:href="#a"/>
            </mask>
            <path fill="#424242" d="M39.665 31.588c0-18.537-8.451-30.525-18.452-30.525-8.193 0-17.678 7.763-17.678 27.25 0 18.365 8.02 30.525 18.539 30.525 10.088 0 17.591-10.866 17.591-27.25M0 29.628C0 12.757 9.546.025 21.635.025c14.627 0 21.564 16.626 21.564 30.168 0 17.031-9.615 29.68-21.634 29.68C9.615 59.875 0 47.062 0 29.628" mask="url(#b)"/>
        </g>
        <path fill="#424242" d="M84.886 32.475a8.627 8.627 0 0 0-1.777-2.668 2.631 2.631 0 0 0-.308-.316 6.798 6.798 0 0 1-1.144 1.582c-.07.072-.141.143-.213.214-.105.103-.151.103-.122.225.03.131.284.368.364.485.225.326.423.67.588 1.03a6.346 6.346 0 0 1 .477 3.646c-.171 1.076-.575 2.151-1.192 3.054-1.379 2.017-3.713 3.398-5.975 4.178-2.874.992-5.912 1.052-8.911.77.013.327.144.834-.285.915-.096.018-.214 0-.312 0h-6.404c-.396 0-.745.044-.758-.465-.017-.718 0-1.438 0-2.156 0-.347.103-.433.439-.544.061-.02.164-.052.21-.09.147-.122.102.018.062-.2-.023-.125-.089-.233-.103-.364-.01-.091.006-.171.008-.259.004-.26-.014-.521-.02-.78l-.238-9.033-.04-1.536c-.008-.321-.06-.344.218-.52 2.39-1.502 5.025-2.753 7.752-3.497 2.665-.727 5.574-.801 8.238-.008 1.261.376 2.555 1.006 3.381 2.067.094.12.18.246.257.378.332-.471.612-.981.808-1.524.086-.24.156-.485.207-.734.013-.065.089-.298.06-.358-.04-.081-.305-.184-.385-.23a12.913 12.913 0 0 0-2.676-1.131c-2.15-.647-4.427-.805-6.661-.705-2.346.106-4.584.711-6.669 1.79a21.486 21.486 0 0 0-2.85 1.79c-.386.284-1.195 1.126-1.614.446-.284-.46-.2-1.116-.198-1.64.004-1.186.006-2.371.006-3.557 0-1.429 0-2.858-.012-4.287-.008-1.015-.305-2.369.693-3.006.64-.41 1.39-.435 2.12-.493 1.791-.142 3.59-.208 5.386-.206 2.404.003 4.804.193 7.207.26.927.026 1.855.046 2.782.09.785.036 1.628.036 2.397.212.443.102 1.267.578 1.045 1.175-.164.444-1.177.387-1.101.976.072.56.8.914 1.268 1.033.752.19 1.685.157 2.237-.458.7-.78.48-2.01-.04-2.82-.557-.863-1.514-1.353-2.483-1.61-1.793-.477-3.636-.235-5.459-.136-4.004.217-8.03.073-12.03-.18-1.372-.087-2.744-.19-4.114-.312-.652-.058-1.34-.183-1.997-.155-.462.02-.755.186-.762.677-.01.75.3 1.507.452 2.232.28 1.332.235 2.75.21 4.103a80.333 80.333 0 0 1-.216 4.368c-.035.47-.095.94-.102 1.412-.03 2.246-.02 4.493-.028 6.74a3715.5 3715.5 0 0 0-.025 8.186c-.001.976-.06 1.958-.26 2.915-.11.52-.577 1.393-.18 1.85.339.39 1 .626 1.475.788.623.21 1.274.337 1.925.43 1.79.256 3.612.284 5.417.314 2.411.04 4.842.142 7.253.065 2.857-.093 5.994-.579 8.407-2.231.31-.212.564-.467.848-.703.542-.452 1.094-.845 1.58-1.369 2.504-2.692 3.333-6.692 1.887-10.115"/>
        <path fill="#424242" d="M77.84 17.826c-2.508-.99-5.292-1.412-7.981-1.436-.962-.008-1.922-.034-2.883.003-1.406.056-2.779.266-4.173.435-.887.108-1.722.149-2.595-.013-.238-.045-.64-.041-.566.295.044.196.238.352.346.515.104.158.183.33.254.504.491 1.216.62 2.603.753 3.895.164 1.593.248 3.193.321 4.792a21.695 21.695 0 0 1 1.549-.984c.201-.116.48-.208.652-.36.035-.03.119-.036.143-.074.069-.113 0-.513 0-.65.007-1.132.033-2.264.075-3.395.028-.759.063-1.517.107-2.274.006-.11-.028-.376.03-.477.098-.177.84-.208 1.066-.244 2.196-.347 4.441-.431 6.653-.181 1.292.146 2.742.332 3.928.904 1.156.557 2.297 1.265 3.238 2.14 1.357 1.263 1.993 3.218 1.663 5.046-.37 2.05-1.882 3.673-3.492 4.884-1.7 1.278-3.699 2.007-5.796 2.303a18.065 18.065 0 0 1-2.302.17l-.228.001a20.697 20.697 0 0 1-3.77-.349c-.109-.02-.413-.03-.486-.102-.113-.112-.138-.511-.17-.67-.057-.27-.104-.54-.146-.812-.2-1.306-.281-2.63-.328-3.948-.365.161-.727.33-1.085.504-.343.166-.78.318-1.083.55-.114.089-.097.042-.13.185-.031.134.01.324.013.462a125.325 125.325 0 0 1 .027 5.113 69.846 69.846 0 0 1-.15 3.894c-.08 1.098-.131 2.297-.705 3.267-.198.334-.458.63-.791.832-.08.048-.534.158-.576.216-.025.036 0 .187 0 .227v1.153c0 .29-.094.761 0 1.035.05.146-.03.064.131.1.19.041.437 0 .63 0h6.406l-.037-.92c-.012-.293.033-.331-.236-.457a2.745 2.745 0 0 1-.77-.527c-.562-.557-.774-1.338-.72-2.111.034-.478.012-.96 0-1.44-.026-1.075-.052-2.165-.208-3.23-.077-.519-.249-1.065.386-1.284.443-.153.962-.08 1.413-.01 1.497.235 3.08.228 4.586.103 2.981-.247 5.923-1.114 8.438-2.76 1.237-.809 2.466-1.81 3.192-3.12.886-1.6 1.429-3.489 1.24-5.326-.33-3.217-3.022-5.266-5.832-6.374"/>
        <path fill="#424242" fill-rule="nonzero" d="M15.322 108.06a.636.636 0 0 1-.252-.042c-.064-.028-.096-.066-.096-.114s.028-.086.084-.114c.056-.028.156-.054.3-.078.296-.056.492-.146.588-.27.096-.124.144-.334.144-.63v-5.424c0-.208-.012-.362-.036-.462a.418.418 0 0 0-.168-.246c-.088-.064-.232-.112-.432-.144a1.167 1.167 0 0 1-.3-.084c-.064-.032-.096-.076-.096-.132 0-.104.116-.156.348-.156.24 0 .48.008.72.024l.516.012.54-.012c.256-.016.5-.024.732-.024.232 0 .348.052.348.156 0 .056-.032.1-.096.132s-.164.06-.3.084c-.296.056-.506.152-.63.288-.124.136-.186.324-.186.564v2.364c0 .072.056.108.168.108h4.452c.056 0 .084-.048.084-.144v-2.34c0-.232-.06-.418-.18-.558-.12-.14-.324-.234-.612-.282a1.167 1.167 0 0 1-.3-.084c-.064-.032-.096-.076-.096-.132 0-.048.032-.086.096-.114a.636.636 0 0 1 .252-.042c.224 0 .48.008.768.024l.624.012.42-.012a8.79 8.79 0 0 1 .672-.024c.232 0 .348.052.348.156 0 .056-.032.1-.096.132s-.164.06-.3.084c-.272.048-.446.134-.522.258-.076.124-.114.318-.114.582v5.424c0 .312.04.53.12.654.08.124.264.21.552.258.144.024.244.05.3.078.056.028.084.066.084.114s-.032.086-.096.114a.636.636 0 0 1-.252.042c-.296 0-.536-.012-.72-.036a7.063 7.063 0 0 0-.528-.024c-.16 0-.344.008-.552.024a6.094 6.094 0 0 1-.732.036.636.636 0 0 1-.252-.042c-.064-.028-.096-.066-.096-.114s.028-.086.084-.114c.056-.028.156-.054.3-.078.552-.104.828-.396.828-.876v-2.4a.266.266 0 0 0-.012-.084c-.008-.024-.024-.036-.048-.036H17.11c-.024 0-.04.012-.048.036a.312.312 0 0 0-.012.096v2.28c0 .248.09.462.27.642.18.18.41.294.69.342.144.024.244.05.3.078.056.028.084.066.084.114s-.032.086-.096.114a.636.636 0 0 1-.252.042c-.296 0-.552-.012-.768-.036a10.543 10.543 0 0 0-.636-.024c-.16 0-.352.008-.576.024-.192.024-.44.036-.744.036zm13.452.108a4.076 4.076 0 0 1-1.974-.498 3.81 3.81 0 0 1-1.464-1.398c-.364-.6-.546-1.284-.546-2.052 0-.736.16-1.424.48-2.064.32-.64.788-1.154 1.404-1.542.616-.388 1.352-.582 2.208-.582.704 0 1.362.166 1.974.498a3.81 3.81 0 0 1 1.464 1.398c.364.6.546 1.284.546 2.052 0 .736-.16 1.424-.48 2.064a3.804 3.804 0 0 1-1.404 1.542c-.616.388-1.352.582-2.208.582zm.18-.48c.896 0 1.58-.278 2.052-.834.472-.556.708-1.318.708-2.286 0-.76-.116-1.444-.348-2.052-.232-.608-.574-1.09-1.026-1.446-.452-.356-1.002-.534-1.65-.534-.888 0-1.568.274-2.04.822-.472.548-.708 1.302-.708 2.262 0 .76.114 1.448.342 2.064.228.616.568 1.104 1.02 1.464.452.36 1.002.54 1.65.54zm6.78.372c-.232 0-.348-.044-.348-.132 0-.056.032-.1.096-.132s.164-.06.3-.084c.312-.056.546-.156.702-.3.156-.144.234-.356.234-.636v-4.656c0-.536-.018-.898-.054-1.086-.036-.188-.102-.29-.198-.306a1.883 1.883 0 0 0-.366-.042c-.14-.004-.302-.006-.486-.006h-.564c-.208 0-.404.04-.588.12a.776.776 0 0 0-.396.348 1.253 1.253 0 0 1-.222.3c-.1.104-.19.156-.27.156-.056 0-.084-.052-.084-.156 0-.08.02-.16.06-.24.112-.216.192-.414.24-.594a6.31 6.31 0 0 0 .132-.666c.024-.184.092-.276.204-.276.024 0 .07.044.138.132.068.088.122.172.162.252.048.08.154.14.318.18.164.04.338.06.522.06h4.224c.496 0 .876-.06 1.14-.18.048-.024.118-.07.21-.138a.443.443 0 0 1 .258-.102c.024 0 .044.03.06.09s.024.122.024.186c0 .032-.016.144-.048.336l-.072.36a1.108 1.108 0 0 0-.048.348v.144c0 .08-.018.164-.054.252-.036.088-.082.132-.138.132-.056 0-.1-.038-.132-.114a1.993 1.993 0 0 1-.096-.378.574.574 0 0 0-.3-.408c-.168-.096-.436-.144-.804-.144h-1.212c-.2 0-.338.024-.414.072-.076.048-.126.162-.15.342-.024.18-.036.502-.036.966v4.716c0 .28.08.492.24.636.16.144.396.244.708.3.136.024.236.052.3.084.064.032.096.076.096.132 0 .088-.116.132-.348.132-.296 0-.552-.012-.768-.036a10.543 10.543 0 0 0-.636-.024c-.2 0-.444.008-.732.024-.24.024-.508.036-.804.036zm6.264 0c-.232 0-.348-.044-.348-.132 0-.056.032-.1.096-.132s.164-.06.3-.084c.312-.056.538-.15.678-.282.14-.132.21-.338.21-.618v-5.4c0-.28-.058-.482-.174-.606-.116-.124-.326-.214-.63-.27-.264-.048-.396-.128-.396-.24 0-.088.116-.132.348-.132.304 0 .672.008 1.104.024l1.02.012 1.644-.012 1.02-.024c.136 0 .208.036.216.108.016.064.05.24.102.528.052.288.078.524.078.708 0 .12-.056.18-.168.18-.04 0-.068-.008-.084-.024a.26.26 0 0 1-.048-.096 4.573 4.573 0 0 1-.096-.312c-.048-.168-.104-.284-.168-.348-.192-.216-.46-.324-.804-.324h-1.572a.49.49 0 0 0-.276.114c-.104.076-.156.166-.156.27v2.544c0 .072.022.134.066.186.044.052.094.078.15.078h1.188c.224 0 .38-.04.468-.12.088-.08.164-.236.228-.468.048-.176.12-.264.216-.264.032 0 .066.018.102.054a.187.187 0 0 1 .054.138l-.012.312-.024.528.012.636.012.288c0 .136-.036.204-.108.204-.12 0-.212-.128-.276-.384-.048-.192-.114-.33-.198-.414a.479.479 0 0 0-.354-.126h-1.116c-.152 0-.258.02-.318.06-.06.04-.09.124-.09.252v2.304c0 .296.062.504.186.624s.326.18.606.18h.888c.264 0 .482-.016.654-.048.172-.032.318-.084.438-.156.12-.08.23-.19.33-.33s.218-.338.354-.594c.056-.104.112-.156.168-.156.104 0 .156.056.156.168 0 .104-.044.322-.132.654a5.153 5.153 0 0 1-.276.822.267.267 0 0 1-.054.09.106.106 0 0 1-.078.03c-.16 0-.864-.012-2.112-.036-.552-.024-1.1-.036-1.644-.036-.224 0-.432.012-.624.036-.408.024-.66.036-.756.036zm6.636 0a.592.592 0 0 1-.246-.042c-.06-.028-.09-.062-.09-.102 0-.096.088-.164.264-.204.328-.064.572-.16.732-.288.16-.128.24-.32.24-.576v-5.568c0-.192-.02-.334-.06-.426a.37.37 0 0 0-.198-.198c-.092-.04-.25-.08-.474-.12-.264-.048-.396-.128-.396-.24 0-.088.116-.132.348-.132.24 0 .488.008.744.024l.6.012.72-.012c.304-.016.568-.024.792-.024.232 0 .348.044.348.132 0 .112-.132.192-.396.24-.376.072-.648.148-.816.228-.168.08-.252.224-.252.432v5.652c0 .264.06.452.18.564.12.112.368.168.744.168h1.488c.2 0 .384-.032.552-.096.168-.064.296-.136.384-.216.16-.136.278-.258.354-.366a3.61 3.61 0 0 0 .27-.486c.032-.08.072-.16.12-.24.048-.08.096-.12.144-.12.048 0 .084.022.108.066a.308.308 0 0 1 .036.15l-.012.06c-.104.384-.178.678-.222.882a6.155 6.155 0 0 0-.102.642c-.016.136-.072.204-.168.204a71.35 71.35 0 0 1-2.364-.036c-.816-.016-1.4-.024-1.752-.024a33.878 33.878 0 0 0-1.62.06zm8.796.132c-.672 0-1.236-.192-1.692-.576a.529.529 0 0 1-.156-.24c-.032-.144-.068-.476-.108-.996l-.012-.264a.14.14 0 0 1 .066-.126.32.32 0 0 1 .174-.042c.104 0 .168.044.192.132.144.584.37 1.016.678 1.296.308.28.65.42 1.026.42.416 0 .76-.134 1.032-.402s.408-.622.408-1.062c0-.312-.05-.57-.15-.774a1.487 1.487 0 0 0-.414-.516 8.416 8.416 0 0 0-.792-.534l-.24-.144c-.392-.24-.7-.448-.924-.624a2.5 2.5 0 0 1-.576-.648 1.618 1.618 0 0 1-.24-.876c0-.64.216-1.164.648-1.572.432-.408 1.052-.612 1.86-.612.408 0 .828.088 1.26.264a.432.432 0 0 1 .156.12.44.44 0 0 1 .096.18c.08.28.14.506.18.678.04.172.06.342.06.51 0 .088-.06.132-.18.132a.488.488 0 0 1-.21-.048c-.068-.032-.11-.072-.126-.12-.176-.44-.378-.768-.606-.984a1.168 1.168 0 0 0-.834-.324c-.4 0-.73.11-.99.33-.26.22-.39.566-.39 1.038 0 .224.072.432.216.624.144.192.326.368.546.528.22.16.526.36.918.6.376.232.68.44.912.624.232.184.428.412.588.684.16.272.24.596.24.972 0 .712-.24 1.282-.72 1.71-.48.428-1.112.642-1.896.642zm8.076-.012c-.408 0-.77-.074-1.086-.222a1.795 1.795 0 0 1-.738-.606 1.51 1.51 0 0 1-.264-.876c0-.6.178-1.108.534-1.524.356-.416.846-.768 1.47-1.056l.24-.108-.18-.192a6.82 6.82 0 0 0-.276-.294 2.064 2.064 0 0 1-.36-.504 1.314 1.314 0 0 1-.144-.606c0-.272.08-.512.24-.72.16-.208.368-.37.624-.486.256-.116.524-.174.804-.174a1.477 1.477 0 0 1 1.35.792c.116.224.174.448.174.672.008.584-.412 1.032-1.26 1.344l-.168.06.156.168c.104.12.2.222.288.306.088.084.164.162.228.234.232.232.426.436.582.612.156.176.31.372.462.588l.144.216.216-.228c.288-.312.58-.668.876-1.068.296-.4.444-.644.444-.732 0-.056-.032-.122-.096-.198a.389.389 0 0 0-.24-.138.288.288 0 0 1-.09-.06c-.036-.032-.054-.056-.054-.072 0-.048.03-.082.09-.102a.55.55 0 0 1 .174-.03l.264.024.588.036c.136 0 .348-.032.636-.096a2.31 2.31 0 0 1 .516-.084c.024 0 .054.012.09.036.036.024.054.048.054.072 0 .048-.036.096-.108.144a.484.484 0 0 1-.192.084c-.328.024-.62.148-.876.372-.064.056-.386.39-.966 1.002s-.974 1.03-1.182 1.254l.204.288c.28.4.542.702.786.906.244.204.51.306.798.306.376 0 .688-.072.936-.216a.379.379 0 0 1 .204-.06c.056 0 .094.01.114.03.02.02.03.058.03.114 0 .072-.086.172-.258.3a2.9 2.9 0 0 1-.618.342c-.24.1-.464.15-.672.15-.296 0-.542-.048-.738-.144a1.635 1.635 0 0 1-.528-.42 7.672 7.672 0 0 1-.582-.828l-.156-.252-.072.072-.252.276c-.272.304-.502.54-.69.708a2.618 2.618 0 0 1-.642.42c-.24.112-.516.168-.828.168zm.96-4.764c.208-.096.37-.256.486-.48.116-.224.174-.464.174-.72 0-.296-.07-.552-.21-.768a.679.679 0 0 0-.606-.324.986.986 0 0 0-.636.222.676.676 0 0 0-.276.546c0 .248.044.462.132.642.088.18.284.43.588.75l.192.204.156-.072zm-.648 3.984c.376 0 .712-.08 1.008-.24.296-.16.6-.404.912-.732l.108-.108-.144-.228a4.993 4.993 0 0 0-.468-.612 22.205 22.205 0 0 0-.696-.744l-.552-.588-.144-.156-.252.096c-.504.192-.838.46-1.002.804a2.73 2.73 0 0 0-.246 1.188c0 .376.138.69.414.942.276.252.63.378 1.062.378zm16.26.852c-.368 0-.686-.048-.954-.144a1.618 1.618 0 0 1-.702-.504 36.73 36.73 0 0 1-.912-1.17c-.24-.324-.544-.786-.912-1.386-.12-.2-.292-.356-.516-.468a2.88 2.88 0 0 0-.948-.252h-.024c-.104 0-.156.08-.156.24v2.112c0 .592.268.936.804 1.032.136.024.236.052.3.084.064.032.096.076.096.132 0 .088-.116.132-.348.132-.256 0-.488-.016-.696-.048a2.932 2.932 0 0 0-.48-.036c-.144 0-.29.006-.438.018a4.491 4.491 0 0 1-.318.018c-.32.032-.588.048-.804.048-.232 0-.348-.044-.348-.132 0-.056.032-.1.096-.132s.164-.06.3-.084c.312-.056.536-.15.672-.282.136-.132.204-.342.204-.63v-5.112a4.15 4.15 0 0 0-.042-.714.447.447 0 0 0-.192-.306c-.1-.064-.266-.108-.498-.132a.57.57 0 0 1-.294-.084c-.068-.048-.102-.1-.102-.156 0-.088.116-.132.348-.132.344 0 .568.004.672.012h.504c.12 0 .3-.008.54-.024.432-.024.712-.036.84-.036.88 0 1.55.166 2.01.498.46.332.69.822.69 1.47 0 .864-.472 1.536-1.416 2.016-.024.008-.036.028-.036.06 0 .024.012.056.036.096a37.2 37.2 0 0 0 1.218 1.752c.308.408.714.84 1.218 1.296.192.168.388.276.588.324.2.048.464.072.792.072.12 0 .18.044.18.132 0 .152-.106.26-.318.324a2.25 2.25 0 0 1-.654.096zm-4.488-4.2c.352 0 .666-.082.942-.246.276-.164.488-.382.636-.654.148-.272.222-.564.222-.876 0-.568-.12-1.01-.36-1.326-.24-.316-.708-.474-1.404-.474-.248 0-.414.078-.498.234-.084.156-.134.45-.15.882a71.547 71.547 0 0 0-.024 2.04c0 .184.048.3.144.348.096.048.26.072.492.072zm6.192 4.008c-.232 0-.348-.044-.348-.132 0-.056.032-.1.096-.132s.164-.06.3-.084c.312-.056.538-.15.678-.282.14-.132.21-.338.21-.618v-5.4c0-.28-.058-.482-.174-.606-.116-.124-.326-.214-.63-.27-.264-.048-.396-.128-.396-.24 0-.088.116-.132.348-.132.304 0 .672.008 1.104.024l1.02.012 1.644-.012 1.02-.024c.136 0 .208.036.216.108.016.064.05.24.102.528.052.288.078.524.078.708 0 .12-.056.18-.168.18-.04 0-.068-.008-.084-.024a.26.26 0 0 1-.048-.096 4.573 4.573 0 0 1-.096-.312c-.048-.168-.104-.284-.168-.348-.192-.216-.46-.324-.804-.324H86.11a.49.49 0 0 0-.276.114c-.104.076-.156.166-.156.27v2.544c0 .072.022.134.066.186.044.052.094.078.15.078h1.188c.224 0 .38-.04.468-.12.088-.08.164-.236.228-.468.048-.176.12-.264.216-.264.032 0 .066.018.102.054a.187.187 0 0 1 .054.138l-.012.312-.024.528.012.636.012.288c0 .136-.036.204-.108.204-.12 0-.212-.128-.276-.384-.048-.192-.114-.33-.198-.414a.479.479 0 0 0-.354-.126h-1.116c-.152 0-.258.02-.318.06-.06.04-.09.124-.09.252v2.304c0 .296.062.504.186.624s.326.18.606.18h.888c.264 0 .482-.016.654-.048.172-.032.318-.084.438-.156.12-.08.23-.19.33-.33s.218-.338.354-.594c.056-.104.112-.156.168-.156.104 0 .156.056.156.168 0 .104-.044.322-.132.654a5.153 5.153 0 0 1-.276.822.267.267 0 0 1-.054.09.106.106 0 0 1-.078.03c-.16 0-.864-.012-2.112-.036-.552-.024-1.1-.036-1.644-.036-.224 0-.432.012-.624.036-.408.024-.66.036-.756.036zm8.424.132c-.672 0-1.236-.192-1.692-.576a.529.529 0 0 1-.156-.24c-.032-.144-.068-.476-.108-.996l-.012-.264a.14.14 0 0 1 .066-.126.32.32 0 0 1 .174-.042c.104 0 .168.044.192.132.144.584.37 1.016.678 1.296.308.28.65.42 1.026.42.416 0 .76-.134 1.032-.402s.408-.622.408-1.062c0-.312-.05-.57-.15-.774a1.487 1.487 0 0 0-.414-.516 8.416 8.416 0 0 0-.792-.534l-.24-.144c-.392-.24-.7-.448-.924-.624a2.5 2.5 0 0 1-.576-.648 1.618 1.618 0 0 1-.24-.876c0-.64.216-1.164.648-1.572.432-.408 1.052-.612 1.86-.612.408 0 .828.088 1.26.264a.432.432 0 0 1 .156.12.44.44 0 0 1 .096.18c.08.28.14.506.18.678.04.172.06.342.06.51 0 .088-.06.132-.18.132a.488.488 0 0 1-.21-.048c-.068-.032-.11-.072-.126-.12-.176-.44-.378-.768-.606-.984a1.168 1.168 0 0 0-.834-.324c-.4 0-.73.11-.99.33-.26.22-.39.566-.39 1.038 0 .224.072.432.216.624.144.192.326.368.546.528.22.16.526.36.918.6.376.232.68.44.912.624.232.184.428.412.588.684.16.272.24.596.24.972 0 .712-.24 1.282-.72 1.71-.48.428-1.112.642-1.896.642zm7.656-.024a4.076 4.076 0 0 1-1.974-.498 3.81 3.81 0 0 1-1.464-1.398c-.364-.6-.546-1.284-.546-2.052 0-.736.16-1.424.48-2.064.32-.64.788-1.154 1.404-1.542.616-.388 1.352-.582 2.208-.582.704 0 1.362.166 1.974.498a3.81 3.81 0 0 1 1.464 1.398c.364.6.546 1.284.546 2.052 0 .736-.16 1.424-.48 2.064a3.804 3.804 0 0 1-1.404 1.542c-.616.388-1.352.582-2.208.582zm.18-.48c.896 0 1.58-.278 2.052-.834.472-.556.708-1.318.708-2.286 0-.76-.116-1.444-.348-2.052-.232-.608-.574-1.09-1.026-1.446-.452-.356-1.002-.534-1.65-.534-.888 0-1.568.274-2.04.822-.472.548-.708 1.302-.708 2.262 0 .76.114 1.448.342 2.064.228.616.568 1.104 1.02 1.464.452.36 1.002.54 1.65.54zm12.096.564c-.368 0-.686-.048-.954-.144a1.618 1.618 0 0 1-.702-.504 36.73 36.73 0 0 1-.912-1.17c-.24-.324-.544-.786-.912-1.386-.12-.2-.292-.356-.516-.468a2.88 2.88 0 0 0-.948-.252h-.024c-.104 0-.156.08-.156.24v2.112c0 .592.268.936.804 1.032.136.024.236.052.3.084.064.032.096.076.096.132 0 .088-.116.132-.348.132-.256 0-.488-.016-.696-.048a2.932 2.932 0 0 0-.48-.036c-.144 0-.29.006-.438.018a4.491 4.491 0 0 1-.318.018c-.32.032-.588.048-.804.048-.232 0-.348-.044-.348-.132 0-.056.032-.1.096-.132s.164-.06.3-.084c.312-.056.536-.15.672-.282.136-.132.204-.342.204-.63v-5.112a4.15 4.15 0 0 0-.042-.714.447.447 0 0 0-.192-.306c-.1-.064-.266-.108-.498-.132a.57.57 0 0 1-.294-.084c-.068-.048-.102-.1-.102-.156 0-.088.116-.132.348-.132.344 0 .568.004.672.012h.504c.12 0 .3-.008.54-.024.432-.024.712-.036.84-.036.88 0 1.55.166 2.01.498.46.332.69.822.69 1.47 0 .864-.472 1.536-1.416 2.016-.024.008-.036.028-.036.06 0 .024.012.056.036.096a37.2 37.2 0 0 0 1.218 1.752c.308.408.714.84 1.218 1.296.192.168.388.276.588.324.2.048.464.072.792.072.12 0 .18.044.18.132 0 .152-.106.26-.318.324a2.25 2.25 0 0 1-.654.096zm-4.488-4.2c.352 0 .666-.082.942-.246.276-.164.488-.382.636-.654.148-.272.222-.564.222-.876 0-.568-.12-1.01-.36-1.326-.24-.316-.708-.474-1.404-.474-.248 0-.414.078-.498.234-.084.156-.134.45-.15.882a71.547 71.547 0 0 0-.024 2.04c0 .184.048.3.144.348.096.048.26.072.492.072zm6.768 4.008c-.232 0-.348-.044-.348-.132 0-.056.032-.1.096-.132s.164-.06.3-.084c.312-.056.546-.156.702-.3.156-.144.234-.356.234-.636v-4.656c0-.536-.018-.898-.054-1.086-.036-.188-.102-.29-.198-.306a1.883 1.883 0 0 0-.366-.042c-.14-.004-.302-.006-.486-.006h-.564c-.208 0-.404.04-.588.12a.776.776 0 0 0-.396.348 1.253 1.253 0 0 1-.222.3c-.1.104-.19.156-.27.156-.056 0-.084-.052-.084-.156 0-.08.02-.16.06-.24.112-.216.192-.414.24-.594a6.31 6.31 0 0 0 .132-.666c.024-.184.092-.276.204-.276.024 0 .07.044.138.132.068.088.122.172.162.252.048.08.154.14.318.18.164.04.338.06.522.06h4.224c.496 0 .876-.06 1.14-.18.048-.024.118-.07.21-.138a.443.443 0 0 1 .258-.102c.024 0 .044.03.06.09s.024.122.024.186c0 .032-.016.144-.048.336l-.072.36a1.108 1.108 0 0 0-.048.348v.144c0 .08-.018.164-.054.252-.036.088-.082.132-.138.132-.056 0-.1-.038-.132-.114a1.993 1.993 0 0 1-.096-.378.574.574 0 0 0-.3-.408c-.168-.096-.436-.144-.804-.144h-1.212c-.2 0-.338.024-.414.072-.076.048-.126.162-.15.342-.024.18-.036.502-.036.966v4.716c0 .28.08.492.24.636.16.144.396.244.708.3.136.024.236.052.3.084.064.032.096.076.096.132 0 .088-.116.132-.348.132-.296 0-.552-.012-.768-.036a10.543 10.543 0 0 0-.636-.024c-.2 0-.444.008-.732.024-.24.024-.508.036-.804.036zm7.92.132c-.672 0-1.236-.192-1.692-.576a.529.529 0 0 1-.156-.24c-.032-.144-.068-.476-.108-.996l-.012-.264a.14.14 0 0 1 .066-.126.32.32 0 0 1 .174-.042c.104 0 .168.044.192.132.144.584.37 1.016.678 1.296.308.28.65.42 1.026.42.416 0 .76-.134 1.032-.402s.408-.622.408-1.062c0-.312-.05-.57-.15-.774a1.487 1.487 0 0 0-.414-.516 8.416 8.416 0 0 0-.792-.534l-.24-.144c-.392-.24-.7-.448-.924-.624a2.5 2.5 0 0 1-.576-.648 1.618 1.618 0 0 1-.24-.876c0-.64.216-1.164.648-1.572.432-.408 1.052-.612 1.86-.612.408 0 .828.088 1.26.264a.432.432 0 0 1 .156.12.44.44 0 0 1 .096.18c.08.28.14.506.18.678.04.172.06.342.06.51 0 .088-.06.132-.18.132a.488.488 0 0 1-.21-.048c-.068-.032-.11-.072-.126-.12-.176-.44-.378-.768-.606-.984a1.168 1.168 0 0 0-.834-.324c-.4 0-.73.11-.99.33-.26.22-.39.566-.39 1.038 0 .224.072.432.216.624.144.192.326.368.546.528.22.16.526.36.918.6.376.232.68.44.912.624.232.184.428.412.588.684.16.272.24.596.24.972 0 .712-.24 1.282-.72 1.71-.48.428-1.112.642-1.896.642z"/>
    </g>
</svg>
