<?xml version="1.0" encoding="UTF-8"?>
<svg width="169px" height="140px" viewBox="0 0 169 140" version="1.1" xmlns="http://www.w3.org/2000/svg" xmlns:xlink="http://www.w3.org/1999/xlink">
    <!-- Generator: Sketch 56.2 (81672) - https://sketch.com -->
    <title>RB Logo Moscow G</title>
    <desc>Created with Sketch.</desc>
    <defs>
        <polygon id="path-1" points="0 0.0263048017 43.1985971 0.0263048017 43.1985971 59.874714 0 59.874714"></polygon>
    </defs>
    <g id="Выбор-номера" stroke="none" stroke-width="1" fill="none" fill-rule="evenodd">
        <g id="Desktop-/-Select-room" transform="translate(-636.000000, -60.000000)">
            <g id="Logo-/-RB-Moscow-G" transform="translate(634.000000, 60.000000)">
                <path d="M13.348,89.378 C12.7959972,89.378 12.319002,89.3060007 11.917,89.162 C11.514998,89.0179993 11.1640015,88.7660018 10.864,88.406 C10.3119972,87.7219966 9.8560018,87.1370024 9.496,86.651 C9.1359982,86.1649976 8.68000276,85.4720045 8.128,84.572 C7.9479991,84.2719985 7.69000168,84.0380008 7.354,83.87 C6.95799802,83.677999 6.48400276,83.5520003 5.932,83.492 L5.896,83.492 C5.73999922,83.492 5.662,83.6119988 5.662,83.852 L5.662,87.02 C5.662,87.9080044 6.06399598,88.4239993 6.868,88.568 C7.07200102,88.6040002 7.22199952,88.6459998 7.318,88.694 C7.41400048,88.7420002 7.462,88.8079996 7.462,88.892 C7.462,89.0240007 7.28800174,89.09 6.94,89.09 C6.55599808,89.09 6.20800156,89.0660002 5.896,89.018 C5.67999892,88.9819998 5.44000132,88.964 5.176,88.964 C4.95999892,88.964 4.74100111,88.9729999 4.519,88.991 C4.29699889,89.0090001 4.13800048,89.018 4.042,89.018 C3.5619976,89.0660002 3.16000162,89.09 2.836,89.09 C2.48799826,89.09 2.314,89.0240007 2.314,88.892 C2.314,88.8079996 2.36199952,88.7420002 2.458,88.694 C2.55400048,88.6459998 2.70399898,88.6040002 2.908,88.568 C3.37600234,88.4839996 3.71199898,88.343001 3.916,88.145 C4.12000102,87.946999 4.222,87.6320022 4.222,87.2 L4.222,79.532 C4.222,79.0279975 4.20100021,78.6710011 4.159,78.461 C4.11699979,78.2509989 4.02100075,78.0980005 3.871,78.002 C3.72099925,77.9059995 3.47200174,77.8400002 3.124,77.804 C2.93199904,77.7919999 2.78500051,77.7500004 2.683,77.678 C2.58099949,77.6059996 2.53,77.5280004 2.53,77.444 C2.53,77.3119993 2.70399826,77.246 3.052,77.246 C3.56800258,77.246 3.90399922,77.2519999 4.06,77.264 L4.816,77.264 C4.9960009,77.264 5.2659982,77.2520001 5.626,77.228 C6.27400324,77.1919998 6.69399904,77.174 6.886,77.174 C8.2060066,77.174 9.21099655,77.4229975 9.901,77.921 C10.5910034,78.4190025 10.936,79.1539951 10.936,80.126 C10.936,81.4220065 10.2280071,82.4299964 8.812,83.15 C8.77599982,83.1620001 8.758,83.1919998 8.758,83.24 C8.758,83.2760002 8.77599982,83.3239997 8.812,83.384 C9.56800378,84.5240057 10.1769977,85.3999969 10.639,86.012 C11.1010023,86.6240031 11.7099962,87.2719966 12.466,87.956 C12.7540014,88.2080013 13.0479985,88.3699996 13.348,88.442 C13.6480015,88.5140004 14.0439975,88.55 14.536,88.55 C14.7160009,88.55 14.806,88.6159993 14.806,88.748 C14.806,88.9760011 14.6470016,89.1379995 14.329,89.234 C14.0109984,89.3300005 13.6840017,89.378 13.348,89.378 Z M6.616,83.078 C7.14400264,83.078 7.61499793,82.9550012 8.029,82.709 C8.44300207,82.4629988 8.76099889,82.136002 8.983,81.728 C9.20500111,81.319998 9.316,80.8820023 9.316,80.414 C9.316,79.5619957 9.1360018,78.8990024 8.776,78.425 C8.4159982,77.9509976 7.71400522,77.714 6.67,77.714 C6.29799814,77.714 6.04900063,77.8309988 5.923,78.065 C5.79699937,78.2990012 5.72200012,78.7399968 5.698,79.388 C5.67399988,80.2040041 5.662,81.2239939 5.662,82.448 C5.662,82.7240014 5.73399928,82.8979996 5.878,82.97 C6.02200072,83.0420004 6.26799826,83.078 6.616,83.078 Z M21.412,89.252 C19.8399921,89.252 18.6400041,88.8440041 17.812,88.028 C16.9839959,87.2119959 16.57,86.0960071 16.57,84.68 L16.57,79.154 C16.57,78.757998 16.4920008,78.455001 16.336,78.245 C16.1799992,78.034999 15.9820012,77.9000003 15.742,77.84 C15.345998,77.7319995 15.148,77.6000008 15.148,77.444 C15.148,77.3119993 15.3219983,77.246 15.67,77.246 L16.444,77.264 C16.8280019,77.2880001 17.1459987,77.3 17.398,77.3 L18.262,77.282 C18.4060007,77.2699999 18.5979988,77.264 18.838,77.264 C19.1860017,77.264 19.36,77.3299993 19.36,77.462 C19.36,77.5340004 19.3180004,77.5939998 19.234,77.642 C19.1499996,77.6900002 18.9940011,77.7499996 18.766,77.822 C18.5979992,77.8700002 18.4300008,78.0169988 18.262,78.263 C18.0939992,78.5090012 18.01,78.7939984 18.01,79.118 L18.01,84.176 C18.01,85.568007 18.3519966,86.6119965 19.036,87.308 C19.7200034,88.0040035 20.6379942,88.352 21.79,88.352 C22.990006,88.352 23.886997,87.9350042 24.481,87.101 C25.075003,86.2669958 25.372,85.1240073 25.372,83.672 C25.372,82.9399963 25.3480002,81.6500092 25.3,79.802 C25.2879999,79.2979975 25.2220006,78.8630018 25.102,78.497 C24.9819994,78.1309982 24.8020012,77.9120004 24.562,77.84 C24.165998,77.7319995 23.968,77.6120007 23.968,77.48 C23.968,77.3479993 24.1419983,77.282 24.49,77.282 L25.84,77.3 C26.0680011,77.3 26.3499983,77.2880001 26.686,77.264 L27.298,77.246 C27.6460017,77.246 27.82,77.3119993 27.82,77.444 C27.82,77.6000008 27.622002,77.7199996 27.226,77.804 C26.6619972,77.9120005 26.3620002,78.361996 26.326,79.154 C26.2779998,79.8860037 26.2450001,80.6329962 26.227,81.395 C26.2089999,82.1570038 26.1940001,82.6699987 26.182,82.934 C26.182,83.2820017 26.1700001,83.8039965 26.146,84.5 C26.1219999,85.4120046 25.9000021,86.2309964 25.48,86.957 C25.0599979,87.6830036 24.4960035,88.246998 23.788,88.649 C23.0799965,89.051002 22.2880044,89.252 21.412,89.252 Z M31.672,89.288 C30.663995,89.288 29.8180034,89.0000029 29.134,88.424 C29.0019993,88.2919993 28.9240001,88.1720005 28.9,88.064 C28.8519998,87.8479989 28.7980003,87.3500039 28.738,86.57 L28.72,86.174 C28.72,86.0899996 28.7529997,86.0270002 28.819,85.985 C28.8850003,85.9429998 28.9719995,85.922 29.08,85.922 C29.2360008,85.922 29.3319998,85.9879993 29.368,86.12 C29.5840011,86.9960044 29.9229977,87.6439979 30.385,88.064 C30.8470023,88.4840021 31.3599972,88.694 31.924,88.694 C32.5480031,88.694 33.063998,88.493002 33.472,88.091 C33.880002,87.688998 34.084,87.1580033 34.084,86.498 C34.084,86.0299977 34.0090007,85.6430015 33.859,85.337 C33.7089992,85.0309985 33.5020013,84.7730011 33.238,84.563 C32.9739987,84.3529989 32.5780026,84.0860016 32.05,83.762 L31.69,83.546 C31.1019971,83.1859982 30.6400017,82.8740013 30.304,82.61 C29.9679983,82.3459987 29.6800012,82.0220019 29.44,81.638 C29.1999988,81.2539981 29.08,80.8160025 29.08,80.324 C29.08,79.3639952 29.4039968,78.5780031 30.052,77.966 C30.7000032,77.3539969 31.6299939,77.048 32.842,77.048 C33.4540031,77.048 34.0839968,77.1799987 34.732,77.444 C34.8160004,77.4800002 34.8939996,77.5399996 34.966,77.624 C35.0380004,77.7080004 35.0859999,77.7979995 35.11,77.894 C35.2300006,78.3140021 35.3199997,78.6529987 35.38,78.911 C35.4400003,79.1690013 35.47,79.4239987 35.47,79.676 C35.47,79.8080007 35.3800009,79.874 35.2,79.874 C35.0919995,79.874 34.9870005,79.8500002 34.885,79.802 C34.7829995,79.7539998 34.72,79.6940004 34.696,79.622 C34.4319987,78.9619967 34.1290017,78.4700016 33.787,78.146 C33.4449983,77.8219984 33.0280025,77.66 32.536,77.66 C31.935997,77.66 31.4410019,77.8249984 31.051,78.155 C30.660998,78.4850017 30.466,79.0039965 30.466,79.712 C30.466,80.048 30.5739989,80.3599986 30.79,80.648 C31.0060011,80.9360014 31.2789983,81.1999988 31.609,81.44 C31.9390016,81.6800012 32.3979971,81.9799982 32.986,82.34 C33.5500028,82.6880017 34.0059983,82.9999986 34.354,83.276 C34.7020017,83.5520014 34.9959988,83.893998 35.236,84.302 C35.4760012,84.710002 35.596,85.1959972 35.596,85.76 C35.596,86.8280053 35.2360036,87.6829968 34.516,88.325 C33.7959964,88.9670032 32.8480059,89.288 31.672,89.288 Z M40.042,89.288 C39.033995,89.288 38.1880034,89.0000029 37.504,88.424 C37.3719993,88.2919993 37.2940001,88.1720005 37.27,88.064 C37.2219998,87.8479989 37.1680003,87.3500039 37.108,86.57 L37.09,86.174 C37.09,86.0899996 37.1229997,86.0270002 37.189,85.985 C37.2550003,85.9429998 37.3419995,85.922 37.45,85.922 C37.6060008,85.922 37.7019998,85.9879993 37.738,86.12 C37.9540011,86.9960044 38.2929977,87.6439979 38.755,88.064 C39.2170023,88.4840021 39.7299972,88.694 40.294,88.694 C40.9180031,88.694 41.433998,88.493002 41.842,88.091 C42.250002,87.688998 42.454,87.1580033 42.454,86.498 C42.454,86.0299977 42.3790008,85.6430015 42.229,85.337 C42.0789992,85.0309985 41.8720013,84.7730011 41.608,84.563 C41.3439987,84.3529989 40.9480026,84.0860016 40.42,83.762 L40.06,83.546 C39.4719971,83.1859982 39.0100017,82.8740013 38.674,82.61 C38.3379983,82.3459987 38.0500012,82.0220019 37.81,81.638 C37.5699988,81.2539981 37.45,80.8160025 37.45,80.324 C37.45,79.3639952 37.7739968,78.5780031 38.422,77.966 C39.0700032,77.3539969 39.9999939,77.048 41.212,77.048 C41.8240031,77.048 42.4539968,77.1799987 43.102,77.444 C43.1860004,77.4800002 43.2639996,77.5399996 43.336,77.624 C43.4080004,77.7080004 43.4559999,77.7979995 43.48,77.894 C43.6000006,78.3140021 43.6899997,78.6529987 43.75,78.911 C43.8100003,79.1690013 43.84,79.4239987 43.84,79.676 C43.84,79.8080007 43.7500009,79.874 43.57,79.874 C43.4619995,79.874 43.3570005,79.8500002 43.255,79.802 C43.1529995,79.7539998 43.09,79.6940004 43.066,79.622 C42.8019987,78.9619967 42.4990017,78.4700016 42.157,78.146 C41.8149983,77.8219984 41.3980025,77.66 40.906,77.66 C40.305997,77.66 39.8110019,77.8249984 39.421,78.155 C39.0309981,78.4850017 38.836,79.0039965 38.836,79.712 C38.836,80.048 38.9439989,80.3599986 39.16,80.648 C39.3760011,80.9360014 39.6489983,81.1999988 39.979,81.44 C40.3090016,81.6800012 40.7679971,81.9799982 41.356,82.34 C41.9200028,82.6880017 42.3759983,82.9999986 42.724,83.276 C43.0720017,83.5520014 43.3659988,83.893998 43.606,84.302 C43.8460012,84.710002 43.966,85.1959972 43.966,85.76 C43.966,86.8280053 43.6060036,87.6829968 42.886,88.325 C42.1659964,88.9670032 41.2180059,89.288 40.042,89.288 Z M51.526,89.252 C50.4699947,89.252 49.4830046,89.0030025 48.565,88.505 C47.6469954,88.0069975 46.9150027,87.3080045 46.369,86.408 C45.8229973,85.5079955 45.55,84.4820058 45.55,83.33 C45.55,82.2259945 45.7899976,81.1940048 46.27,80.234 C46.7500024,79.2739952 47.4519954,78.5030029 48.376,77.921 C49.3000046,77.3389971 50.4039936,77.048 51.688,77.048 C52.7440053,77.048 53.7309954,77.2969975 54.649,77.795 C55.5670046,78.2930025 56.2989973,78.9919955 56.845,79.892 C57.3910027,80.7920045 57.664,81.8179942 57.664,82.97 C57.664,84.0740055 57.4240024,85.1059952 56.944,86.066 C56.4639976,87.0260048 55.7620046,87.7969971 54.838,88.379 C53.9139954,88.9610029 52.8100064,89.252 51.526,89.252 Z M51.796,88.532 C53.1400067,88.532 54.1659965,88.1150042 54.874,87.281 C55.5820035,86.4469958 55.936,85.304 55.936,83.852 C55.936,82.7119943 55.7620017,81.6860046 55.414,80.774 C55.0659983,79.8619954 54.5530034,79.1390027 53.875,78.605 C53.1969966,78.0709973 52.3720049,77.804 51.4,77.804 C50.0679933,77.804 49.0480035,78.2149959 48.34,79.037 C47.6319965,79.8590041 47.278,80.9899928 47.278,82.43 C47.278,83.5700057 47.4489983,84.6019954 47.791,85.526 C48.1330017,86.4500046 48.6429966,87.1819973 49.321,87.722 C49.9990034,88.2620027 50.8239951,88.532 51.796,88.532 Z M59.104,85.94 C59.0319996,85.94 58.996,85.9040004 58.996,85.832 C58.996,85.6159989 59.0229997,85.4030011 59.077,85.193 C59.1310003,84.9829989 59.1999996,84.8720001 59.284,84.86 C60.8200077,84.6439989 61.9719962,84.4940004 62.74,84.41 C62.8360005,84.41 62.884,84.4459996 62.884,84.518 C62.884,84.7820013 62.8540003,85.0069991 62.794,85.193 C62.7339997,85.3790009 62.6380007,85.4779999 62.506,85.49 L62.038,85.562 C60.8019938,85.754001 59.8240036,85.8799997 59.104,85.94 Z M64.27,89.09 C63.9219983,89.09 63.748,89.0240007 63.748,88.892 C63.748,88.8079996 63.7959995,88.7420002 63.892,88.694 C63.9880005,88.6459998 64.137999,88.6040002 64.342,88.568 C64.8220024,88.4839996 65.1759989,88.340001 65.404,88.136 C65.6320011,87.931999 65.746,87.626002 65.746,87.218 L65.746,79.118 C65.746,78.6859978 65.6530009,78.368001 65.467,78.164 C65.2809991,77.959999 64.9720022,77.8400002 64.54,77.804 C64.347999,77.7919999 64.2010005,77.7500004 64.099,77.678 C63.9969995,77.6059996 63.946,77.5280004 63.946,77.444 C63.946,77.3119993 64.1199983,77.246 64.468,77.246 C65.0080027,77.246 65.3679991,77.2519999 65.548,77.264 L66.34,77.264 C66.5200009,77.264 66.7779983,77.2520001 67.114,77.228 C67.7260031,77.1919998 68.133999,77.174 68.338,77.174 C69.7780072,77.174 70.8339966,77.3809979 71.506,77.795 C72.1780034,78.2090021 72.514,78.8959952 72.514,79.856 C72.514,80.2280019 72.4510006,80.5699984 72.325,80.882 C72.1989994,81.1940016 72.0580008,81.4279992 71.902,81.584 C71.709999,81.776001 71.5330008,81.9229995 71.371,82.025 C71.2089992,82.1270005 70.9840014,82.2379994 70.696,82.358 C70.6479998,82.3820001 70.624,82.4149998 70.624,82.457 C70.624,82.4990002 70.6479998,82.5259999 70.696,82.538 C71.2000025,82.7060008 71.6229983,82.885999 71.965,83.078 C72.3070017,83.270001 72.6069987,83.560998 72.865,83.951 C73.1230013,84.341002 73.252,84.8599968 73.252,85.508 C73.252,86.1200031 73.156001,86.620998 72.964,87.011 C72.771999,87.4010019 72.5470013,87.694999 72.289,87.893 C72.0309987,88.091001 71.7280017,88.2799991 71.38,88.46 C70.5639959,88.868002 69.5440061,89.072 68.32,89.072 L67.78,89.054 C67.4559984,89.0179998 67.0660023,89 66.61,89 C66.3099985,89 65.9440022,89.0119999 65.512,89.036 C65.1759983,89.0720002 64.7620025,89.09 64.27,89.09 Z M67.978,82.322 C68.8060041,82.322 69.5319969,82.1480017 70.156,81.8 C70.348001,81.6919995 70.5309991,81.4940014 70.705,81.206 C70.8790009,80.9179986 70.966,80.5460023 70.966,80.09 C70.966,79.4419968 70.7770019,78.8840023 70.399,78.416 C70.0209981,77.9479977 69.334005,77.714 68.338,77.714 C67.8699977,77.714 67.5550008,77.7769994 67.393,77.903 C67.2309992,78.0290006 67.15,78.2359986 67.15,78.524 L67.15,81.656 C67.15,82.1000022 67.4259972,82.322 67.978,82.322 Z M68.572,88.334 C69.1000026,88.334 69.5919977,88.2140012 70.048,87.974 C70.5040023,87.7339988 70.8699986,87.4040021 71.146,86.984 C71.4220014,86.5639979 71.56,86.1020025 71.56,85.598 C71.56,84.9859969 71.4250014,84.4940019 71.155,84.122 C70.8849986,83.7499981 70.5760017,83.468001 70.228,83.276 C69.6879973,82.9759985 69.0040041,82.826 68.176,82.826 C67.8279983,82.826 67.5700008,82.8949993 67.402,83.033 C67.2339992,83.1710007 67.15,83.3179992 67.15,83.474 L67.15,87.056 C67.15,87.5360024 67.2639989,87.8689991 67.492,88.055 C67.7200011,88.2410009 68.0799975,88.334 68.572,88.334 Z M74.458,89.09 C74.3019992,89.09 74.1760005,89.0690002 74.08,89.027 C73.9839995,88.9849998 73.936,88.9280004 73.936,88.856 C73.936,88.6999992 74.133998,88.5620006 74.53,88.442 C74.8780017,88.3339995 75.1779987,88.181001 75.43,87.983 C75.6820013,87.784999 75.8979991,87.4760021 76.078,87.056 C76.7140032,85.5919927 77.2689976,84.263006 77.743,83.069 C78.2170024,81.874994 78.7839967,80.3840089 79.444,78.596 C79.5760007,78.2239981 79.6599998,77.8760016 79.696,77.552 C79.7320002,77.5399999 79.8189993,77.5130002 79.957,77.471 C80.0950007,77.4289998 80.2239994,77.3660004 80.344,77.282 C80.4400005,77.2099996 80.5149997,77.1020007 80.569,76.958 C80.6230003,76.8139993 80.6619999,76.7180002 80.686,76.67 C80.6980001,76.658 80.7129999,76.655 80.731,76.661 C80.7490001,76.667 80.7639999,76.6759999 80.776,76.688 C80.8000001,76.7480003 80.8209999,76.8139996 80.839,76.886 C80.8570001,76.9580004 80.8779999,77.0239997 80.902,77.084 C81.7900044,79.880014 82.8579938,83.0839819 84.106,86.696 C84.3340011,87.3560033 84.5859986,87.8029988 84.862,88.037 C85.1380014,88.2710012 85.4919978,88.4239996 85.924,88.496 C86.116001,88.5320002 86.2629995,88.5889996 86.365,88.667 C86.4670005,88.7450004 86.518,88.8259996 86.518,88.91 C86.518,89.0300006 86.3440017,89.09 85.996,89.09 L85.024,89.054 C84.3519966,89.0059998 83.8420017,88.982 83.494,88.982 L81.604,89 C81.2559983,89 81.082,88.9280007 81.082,88.784 C81.082,88.7119996 81.1389994,88.6430003 81.253,88.577 C81.3670006,88.5109997 81.5079992,88.4660001 81.676,88.442 C82.4080037,88.3219994 82.774,88.0520021 82.774,87.632 C82.774,87.2479981 82.5400023,86.2760078 82.072,84.716 C82.0479999,84.6319996 82.0030003,84.5780001 81.937,84.554 C81.8709997,84.5299999 81.7540008,84.518 81.586,84.518 L78.184,84.518 C78.0519993,84.518 77.9500004,84.6259989 77.878,84.842 C77.7459993,85.2260019 77.5900009,85.7269969 77.41,86.345 C77.2299991,86.9630031 77.14,87.3259995 77.14,87.434 C77.14,87.6860013 77.238999,87.9019991 77.437,88.082 C77.635001,88.2620009 77.8839985,88.3879996 78.184,88.46 C78.4000011,88.5200003 78.5529996,88.5739998 78.643,88.622 C78.7330005,88.6700002 78.778,88.7359996 78.778,88.82 C78.778,88.9520007 78.6040017,89.018 78.256,89.018 C78.0399989,89.018 77.8600007,89.0120001 77.716,89 L76.618,88.982 C76.413999,88.982 76.1890012,88.9909999 75.943,89.009 C75.6969988,89.0270001 75.5140006,89.036 75.394,89.036 C75.0579983,89.0720002 74.7460014,89.09 74.458,89.09 Z M81.46,83.924 C81.5320004,83.924 81.5919998,83.9180001 81.64,83.906 C81.6880002,83.8939999 81.712,83.8700002 81.712,83.834 L81.676,83.654 L80.272,79.262 C80.1999996,79.0459989 80.1460002,78.938 80.11,78.938 C80.0859999,78.938 80.0380004,79.039999 79.966,79.244 L78.328,83.654 L78.292,83.798 C78.292,83.8580003 78.3189997,83.8939999 78.373,83.906 C78.4270003,83.9180001 78.5259993,83.924 78.67,83.924 L81.46,83.924 Z M87.418,89.09 C87.2619992,89.09 87.1390005,89.0690002 87.049,89.027 C86.9589996,88.9849998 86.914,88.9340003 86.914,88.874 C86.914,88.7299993 87.0459987,88.6280003 87.31,88.568 C87.8020025,88.4719995 88.1679988,88.328001 88.408,88.136 C88.6480012,87.943999 88.768,87.6560019 88.768,87.272 L88.768,78.92 C88.768,78.6319986 88.7380003,78.4190007 88.678,78.281 C88.6179997,78.1429993 88.5190007,78.0440003 88.381,77.984 C88.2429993,77.9239997 88.0060017,77.8640003 87.67,77.804 C87.273998,77.7319996 87.076,77.6120008 87.076,77.444 C87.076,77.3119993 87.2499983,77.246 87.598,77.246 C87.9580018,77.246 88.3299981,77.2579999 88.714,77.282 L89.614,77.3 L90.694,77.282 C91.1500023,77.2579999 91.5459983,77.246 91.882,77.246 C92.2300017,77.246 92.404,77.3119993 92.404,77.444 C92.404,77.6120008 92.206002,77.7319996 91.81,77.804 C91.2459972,77.9120005 90.8380013,78.0259994 90.586,78.146 C90.3339987,78.2660006 90.208,78.4819984 90.208,78.794 L90.208,87.272 C90.208,87.668002 90.2979991,87.9499992 90.478,88.118 C90.6580009,88.2860008 91.0299972,88.37 91.594,88.37 L93.826,88.37 C94.1260015,88.37 94.4019987,88.3220005 94.654,88.226 C94.9060013,88.1299995 95.0979993,88.0220006 95.23,87.902 C95.4700012,87.697999 95.6469994,87.5150008 95.761,87.353 C95.8750006,87.1909992 96.0099992,86.9480016 96.166,86.624 C96.2140002,86.5039994 96.2739996,86.3840006 96.346,86.264 C96.4180004,86.1439994 96.4899996,86.084 96.562,86.084 C96.6340004,86.084 96.6879998,86.1169997 96.724,86.183 C96.7600002,86.2490003 96.778,86.3239996 96.778,86.408 L96.76,86.498 C96.6039992,87.0740029 96.4930003,87.5149985 96.427,87.821 C96.3609997,88.1270015 96.3100002,88.4479983 96.274,88.784 C96.2499999,88.988001 96.1660007,89.09 96.022,89.09 C94.7379936,89.09 93.5560054,89.0720002 92.476,89.036 C91.2519939,89.0119999 90.3760026,89 89.848,89 C89.4759981,89 89.0200027,89.0119999 88.48,89.036 C87.9399973,89.0600001 87.5860008,89.0779999 87.418,89.09 Z M98.632,89.09 C98.2839983,89.09 98.11,89.0240007 98.11,88.892 C98.11,88.8079996 98.1579995,88.7420002 98.254,88.694 C98.3500005,88.6459998 98.499999,88.6040002 98.704,88.568 C99.1720023,88.4839996 99.5229988,88.3340011 99.757,88.118 C99.9910012,87.9019989 100.108,87.5840021 100.108,87.164 L100.108,80.18 C100.108,79.375996 100.081,78.8330014 100.027,78.551 C99.9729997,78.2689986 99.8740007,78.1160001 99.73,78.092 C99.5739992,78.0559998 99.391001,78.035 99.181,78.029 C98.9709989,78.023 98.7280014,78.02 98.452,78.02 L97.606,78.02 C97.2939984,78.02 97.0000014,78.0799994 96.724,78.2 C96.4479986,78.3200006 96.2500006,78.4939989 96.13,78.722 C96.0579996,78.8660007 95.9470007,79.0159992 95.797,79.172 C95.6469992,79.3280008 95.5120006,79.406 95.392,79.406 C95.3079996,79.406 95.266,79.3280008 95.266,79.172 C95.266,79.0519994 95.2959997,78.9320006 95.356,78.812 C95.5240008,78.4879984 95.6439996,78.1910013 95.716,77.921 C95.7880004,77.6509986 95.8539997,77.318002 95.914,76.922 C95.9500002,76.6459986 96.0519992,76.508 96.22,76.508 C96.2560002,76.508 96.3249995,76.5739993 96.427,76.706 C96.5290005,76.8380007 96.6099997,76.9639994 96.67,77.084 C96.7420004,77.2040006 96.9009988,77.2939997 97.147,77.354 C97.3930012,77.4140003 97.6539986,77.444 97.93,77.444 L104.266,77.444 C105.010004,77.444 105.579998,77.3540009 105.976,77.174 C106.048,77.1379998 106.152999,77.0690005 106.291,76.967 C106.429001,76.8649995 106.557999,76.814 106.678,76.814 C106.714,76.814 106.744,76.8589995 106.768,76.949 C106.792,77.0390005 106.804,77.1319995 106.804,77.228 C106.804,77.2760002 106.78,77.4439986 106.732,77.732 L106.624,78.272 C106.576,78.4160007 106.552,78.589999 106.552,78.794 L106.552,79.01 C106.552,79.1300006 106.525,79.2559993 106.471,79.388 C106.417,79.5200007 106.348,79.586 106.264,79.586 C106.18,79.586 106.114,79.5290006 106.066,79.415 C106.018,79.3009994 105.97,79.1120013 105.922,78.848 C105.874,78.5839987 105.724001,78.3800007 105.472,78.236 C105.219999,78.0919993 104.818003,78.02 104.266,78.02 L102.448,78.02 C102.147998,78.02 101.941001,78.0559996 101.827,78.128 C101.712999,78.2000004 101.638,78.3709986 101.602,78.641 C101.566,78.9110013 101.548,79.3939965 101.548,80.09 L101.548,87.164 C101.548,87.5840021 101.667999,87.9019989 101.908,88.118 C102.148001,88.3340011 102.501998,88.4839996 102.97,88.568 C103.174001,88.6040002 103.324,88.6459998 103.42,88.694 C103.516,88.7420002 103.564,88.8079996 103.564,88.892 C103.564,89.0240007 103.390002,89.09 103.042,89.09 C102.597998,89.09 102.214002,89.0720002 101.89,89.036 C101.505998,89.0119999 101.188001,89 100.936,89 C100.635998,89 100.270002,89.0119999 99.838,89.036 C99.4779982,89.0720002 99.0760022,89.09 98.632,89.09 Z M111.628,89.09 C111.471999,89.09 111.346,89.0690002 111.25,89.027 C111.154,88.9849998 111.106,88.9280004 111.106,88.856 C111.106,88.7839996 111.148,88.7270002 111.232,88.685 C111.316,88.6429998 111.465999,88.6040002 111.682,88.568 C112.126002,88.4839996 112.419999,88.3490009 112.564,88.163 C112.708001,87.9769991 112.78,87.6620022 112.78,87.218 L112.78,79.082 C112.78,78.7699984 112.762,78.5390007 112.726,78.389 C112.69,78.2389993 112.606,78.1160005 112.474,78.02 C112.341999,77.9239995 112.126002,77.8520002 111.826,77.804 C111.621999,77.7679998 111.472,77.7260002 111.376,77.678 C111.28,77.6299998 111.232,77.5640004 111.232,77.48 C111.232,77.3239992 111.405998,77.246 111.754,77.246 C112.114002,77.246 112.473998,77.2579999 112.834,77.282 L113.608,77.3 L114.418,77.282 C114.802002,77.2579999 115.167998,77.246 115.516,77.246 C115.864002,77.246 116.038,77.3239992 116.038,77.48 C116.038,77.5640004 115.99,77.6299998 115.894,77.678 C115.798,77.7260002 115.648001,77.7679998 115.444,77.804 C114.999998,77.8880004 114.685001,78.031999 114.499,78.236 C114.312999,78.440001 114.22,78.7219982 114.22,79.082 L114.22,82.628 C114.22,82.7360005 114.303999,82.79 114.472,82.79 L121.15,82.79 C121.234,82.79 121.276,82.7180007 121.276,82.574 L121.276,79.064 C121.276,78.7159983 121.186001,78.437001 121.006,78.227 C120.825999,78.016999 120.520002,77.8760004 120.088,77.804 C119.883999,77.7679998 119.734,77.7260002 119.638,77.678 C119.542,77.6299998 119.494,77.5640004 119.494,77.48 C119.494,77.4079996 119.542,77.3510002 119.638,77.309 C119.734,77.2669998 119.859999,77.246 120.016,77.246 C120.352002,77.246 120.735998,77.2579999 121.168,77.282 L122.104,77.3 L122.734,77.282 C123.046002,77.2579999 123.381998,77.246 123.742,77.246 C124.090002,77.246 124.264,77.3239992 124.264,77.48 C124.264,77.5640004 124.216,77.6299998 124.12,77.678 C124.024,77.7260002 123.874001,77.7679998 123.67,77.804 C123.261998,77.8760004 123.001001,78.0049991 122.887,78.191 C122.772999,78.3770009 122.716,78.667998 122.716,79.064 L122.716,87.2 C122.716,87.6680023 122.775999,87.9949991 122.896,88.181 C123.016001,88.3670009 123.291998,88.4959996 123.724,88.568 C123.940001,88.6040002 124.09,88.6429998 124.174,88.685 C124.258,88.7270002 124.3,88.7839996 124.3,88.856 C124.3,88.9280004 124.252,88.9849998 124.156,89.027 C124.06,89.0690002 123.934001,89.09 123.778,89.09 C123.333998,89.09 122.974001,89.0720002 122.698,89.036 C122.385998,89.0119999 122.122001,89 121.906,89 C121.665999,89 121.390002,89.0119999 121.078,89.036 C120.789999,89.0720002 120.424002,89.09 119.98,89.09 C119.823999,89.09 119.698,89.0690002 119.602,89.027 C119.506,88.9849998 119.458,88.9280004 119.458,88.856 C119.458,88.7839996 119.5,88.7270002 119.584,88.685 C119.668,88.6429998 119.817999,88.6040002 120.034,88.568 C120.862004,88.4119992 121.276,87.9740036 121.276,87.254 L121.276,83.654 C121.276,83.6059998 121.27,83.5640002 121.258,83.528 C121.246,83.4919998 121.222,83.474 121.186,83.474 L114.31,83.474 C114.274,83.474 114.25,83.4919998 114.238,83.528 C114.226,83.5640002 114.22,83.6119997 114.22,83.672 L114.22,87.092 C114.22,87.4640019 114.354999,87.7849987 114.625,88.055 C114.895001,88.3250014 115.239998,88.4959996 115.66,88.568 C115.876001,88.6040002 116.026,88.6429998 116.11,88.685 C116.194,88.7270002 116.236,88.7839996 116.236,88.856 C116.236,88.9280004 116.188,88.9849998 116.092,89.027 C115.996,89.0690002 115.870001,89.09 115.714,89.09 C115.269998,89.09 114.886002,89.0720002 114.562,89.036 C114.177998,89.0119999 113.860001,89 113.608,89 C113.367999,89 113.080002,89.0119999 112.744,89.036 C112.455999,89.0720002 112.084002,89.09 111.628,89.09 Z M131.806,89.252 C130.749995,89.252 129.763005,89.0030025 128.845,88.505 C127.926995,88.0069975 127.195003,87.3080045 126.649,86.408 C126.102997,85.5079955 125.83,84.4820058 125.83,83.33 C125.83,82.2259945 126.069998,81.1940048 126.55,80.234 C127.030002,79.2739952 127.731995,78.5030029 128.656,77.921 C129.580005,77.3389971 130.683994,77.048 131.968,77.048 C133.024005,77.048 134.010995,77.2969975 134.929,77.795 C135.847005,78.2930025 136.578997,78.9919955 137.125,79.892 C137.671003,80.7920045 137.944,81.8179942 137.944,82.97 C137.944,84.0740055 137.704002,85.1059952 137.224,86.066 C136.743998,87.0260048 136.042005,87.7969971 135.118,88.379 C134.193995,88.9610029 133.090006,89.252 131.806,89.252 Z M132.076,88.532 C133.420007,88.532 134.445996,88.1150042 135.154,87.281 C135.862004,86.4469958 136.216,85.304 136.216,83.852 C136.216,82.7119943 136.042002,81.6860046 135.694,80.774 C135.345998,79.8619954 134.833003,79.1390027 134.155,78.605 C133.476997,78.0709973 132.652005,77.804 131.68,77.804 C130.347993,77.804 129.328004,78.2149959 128.62,79.037 C127.911996,79.8590041 127.558,80.9899928 127.558,82.43 C127.558,83.5700057 127.728998,84.6019954 128.071,85.526 C128.413002,86.4500046 128.922997,87.1819973 129.601,87.722 C130.279003,88.2620027 131.103995,88.532 132.076,88.532 Z M142.246,89.09 C141.897998,89.09 141.724,89.0240007 141.724,88.892 C141.724,88.8079996 141.772,88.7420002 141.868,88.694 C141.964,88.6459998 142.113999,88.6040002 142.318,88.568 C142.786002,88.4839996 143.136999,88.3340011 143.371,88.118 C143.605001,87.9019989 143.722,87.5840021 143.722,87.164 L143.722,80.18 C143.722,79.375996 143.695,78.8330014 143.641,78.551 C143.587,78.2689986 143.488001,78.1160001 143.344,78.092 C143.187999,78.0559998 143.005001,78.035 142.795,78.029 C142.584999,78.023 142.342001,78.02 142.066,78.02 L141.22,78.02 C140.907998,78.02 140.614001,78.0799994 140.338,78.2 C140.061999,78.3200006 139.864001,78.4939989 139.744,78.722 C139.672,78.8660007 139.561001,79.0159992 139.411,79.172 C139.260999,79.3280008 139.126001,79.406 139.006,79.406 C138.922,79.406 138.88,79.3280008 138.88,79.172 C138.88,79.0519994 138.91,78.9320006 138.97,78.812 C139.138001,78.4879984 139.258,78.1910013 139.33,77.921 C139.402,77.6509986 139.468,77.318002 139.528,76.922 C139.564,76.6459986 139.665999,76.508 139.834,76.508 C139.87,76.508 139.938999,76.5739993 140.041,76.706 C140.143001,76.8380007 140.224,76.9639994 140.284,77.084 C140.356,77.2040006 140.514999,77.2939997 140.761,77.354 C141.007001,77.4140003 141.267999,77.444 141.544,77.444 L147.88,77.444 C148.624004,77.444 149.193998,77.3540009 149.59,77.174 C149.662,77.1379998 149.766999,77.0690005 149.905,76.967 C150.043001,76.8649995 150.171999,76.814 150.292,76.814 C150.328,76.814 150.358,76.8589995 150.382,76.949 C150.406,77.0390005 150.418,77.1319995 150.418,77.228 C150.418,77.2760002 150.394,77.4439986 150.346,77.732 L150.238,78.272 C150.19,78.4160007 150.166,78.589999 150.166,78.794 L150.166,79.01 C150.166,79.1300006 150.139,79.2559993 150.085,79.388 C150.031,79.5200007 149.962,79.586 149.878,79.586 C149.794,79.586 149.728,79.5290006 149.68,79.415 C149.632,79.3009994 149.584,79.1120013 149.536,78.848 C149.488,78.5839987 149.338001,78.3800007 149.086,78.236 C148.833999,78.0919993 148.432003,78.02 147.88,78.02 L146.062,78.02 C145.761999,78.02 145.555001,78.0559996 145.441,78.128 C145.326999,78.2000004 145.252,78.3709986 145.216,78.641 C145.18,78.9110013 145.162,79.3939965 145.162,80.09 L145.162,87.164 C145.162,87.5840021 145.281999,87.9019989 145.522,88.118 C145.762001,88.3340011 146.115998,88.4839996 146.584,88.568 C146.788001,88.6040002 146.938,88.6459998 147.034,88.694 C147.13,88.7420002 147.178,88.8079996 147.178,88.892 C147.178,89.0240007 147.004002,89.09 146.656,89.09 C146.211998,89.09 145.828002,89.0720002 145.504,89.036 C145.119998,89.0119999 144.802001,89 144.55,89 C144.249999,89 143.884002,89.0119999 143.452,89.036 C143.091998,89.0720002 142.690002,89.09 142.246,89.09 Z M151.642,89.09 C151.293998,89.09 151.12,89.0240007 151.12,88.892 C151.12,88.8079996 151.168,88.7420002 151.264,88.694 C151.36,88.6459998 151.509999,88.6040002 151.714,88.568 C152.182002,88.4839996 152.520999,88.343001 152.731,88.145 C152.941001,87.946999 153.046,87.6380021 153.046,87.218 L153.046,79.118 C153.046,78.6979979 152.959001,78.3950009 152.785,78.209 C152.610999,78.0229991 152.296002,77.8880004 151.84,77.804 C151.443998,77.7319996 151.246,77.6120008 151.246,77.444 C151.246,77.3119993 151.419998,77.246 151.768,77.246 C152.224002,77.246 152.775997,77.2579999 153.424,77.282 L154.954,77.3 L157.42,77.282 L158.95,77.246 C159.154001,77.246 159.262,77.2999995 159.274,77.408 C159.298,77.5040005 159.349,77.7679978 159.427,78.2 C159.505,78.6320022 159.544,78.9859986 159.544,79.262 C159.544,79.4420009 159.460001,79.532 159.292,79.532 C159.232,79.532 159.19,79.5200001 159.166,79.496 C159.142,79.4719999 159.118,79.4240004 159.094,79.352 C159.07,79.2919997 159.022,79.1360013 158.95,78.884 C158.878,78.6319987 158.794,78.4580005 158.698,78.362 C158.409999,78.0379984 158.008003,77.876 157.492,77.876 L155.134,77.876 C155.013999,77.876 154.876001,77.9329994 154.72,78.047 C154.563999,78.1610006 154.486,78.2959992 154.486,78.452 L154.486,82.268 C154.486,82.3760005 154.519,82.4689996 154.585,82.547 C154.651,82.6250004 154.726,82.664 154.81,82.664 L156.592,82.664 C156.928002,82.664 157.161999,82.6040006 157.294,82.484 C157.426001,82.3639994 157.54,82.1300017 157.636,81.782 C157.708,81.5179987 157.815999,81.386 157.96,81.386 C158.008,81.386 158.059,81.4129997 158.113,81.467 C158.167,81.5210003 158.194,81.5899996 158.194,81.674 L158.176,82.142 L158.14,82.934 L158.158,83.888 L158.176,84.32 C158.176,84.524001 158.122001,84.626 158.014,84.626 C157.833999,84.626 157.696,84.4340019 157.6,84.05 C157.528,83.7619986 157.429001,83.5550006 157.303,83.429 C157.176999,83.3029994 157.000001,83.24 156.772,83.24 L155.098,83.24 C154.869999,83.24 154.711,83.2699997 154.621,83.33 C154.531,83.3900003 154.486,83.515999 154.486,83.708 L154.486,87.164 C154.486,87.6080022 154.578999,87.9199991 154.765,88.1 C154.951001,88.2800009 155.253998,88.37 155.674,88.37 L157.006,88.37 C157.402002,88.37 157.728999,88.3460002 157.987,88.298 C158.245001,88.2499998 158.463999,88.1720005 158.644,88.064 C158.824001,87.9439994 158.988999,87.7790011 159.139,87.569 C159.289001,87.358999 159.465999,87.0620019 159.67,86.678 C159.754,86.5219992 159.838,86.444 159.922,86.444 C160.078001,86.444 160.156,86.5279992 160.156,86.696 C160.156,86.8520008 160.090001,87.1789975 159.958,87.677 C159.825999,88.1750025 159.706001,88.5439988 159.598,88.784 C159.586,88.8080001 159.568,88.8499997 159.544,88.91 C159.52,88.9700003 159.493,89.0149999 159.463,89.045 C159.433,89.0750001 159.394,89.09 159.346,89.09 C159.105999,89.09 158.050009,89.0720002 156.178,89.036 C155.349996,88.9999998 154.528004,88.982 153.712,88.982 C153.375998,88.982 153.064001,88.9999998 152.776,89.036 C152.163997,89.0720002 151.786001,89.09 151.642,89.09 Z M161.596,89.09 C161.439999,89.09 161.317,89.0690002 161.227,89.027 C161.137,88.9849998 161.092,88.9340003 161.092,88.874 C161.092,88.7299993 161.223999,88.6280003 161.488,88.568 C161.980002,88.4719995 162.345999,88.328001 162.586,88.136 C162.826001,87.943999 162.946,87.6560019 162.946,87.272 L162.946,78.92 C162.946,78.6319986 162.916,78.4190007 162.856,78.281 C162.796,78.1429993 162.697001,78.0440003 162.559,77.984 C162.420999,77.9239997 162.184002,77.8640003 161.848,77.804 C161.451998,77.7319996 161.254,77.6120008 161.254,77.444 C161.254,77.3119993 161.427998,77.246 161.776,77.246 C162.136002,77.246 162.507998,77.2579999 162.892,77.282 L163.792,77.3 L164.872,77.282 C165.328002,77.2579999 165.723998,77.246 166.06,77.246 C166.408002,77.246 166.582,77.3119993 166.582,77.444 C166.582,77.6120008 166.384002,77.7319996 165.988,77.804 C165.423997,77.9120005 165.016001,78.0259994 164.764,78.146 C164.511999,78.2660006 164.386,78.4819984 164.386,78.794 L164.386,87.272 C164.386,87.668002 164.475999,87.9499992 164.656,88.118 C164.836001,88.2860008 165.207997,88.37 165.772,88.37 L168.004,88.37 C168.304001,88.37 168.579999,88.3220005 168.832,88.226 C169.084001,88.1299995 169.275999,88.0220006 169.408,87.902 C169.648001,87.697999 169.824999,87.5150008 169.939,87.353 C170.053001,87.1909992 170.187999,86.9480016 170.344,86.624 C170.392,86.5039994 170.452,86.3840006 170.524,86.264 C170.596,86.1439994 170.668,86.084 170.74,86.084 C170.812,86.084 170.866,86.1169997 170.902,86.183 C170.938,86.2490003 170.956,86.3239996 170.956,86.408 L170.938,86.498 C170.781999,87.0740029 170.671,87.5149985 170.605,87.821 C170.539,88.1270015 170.488,88.4479983 170.452,88.784 C170.428,88.988001 170.344001,89.09 170.2,89.09 C168.915994,89.09 167.734005,89.0720002 166.654,89.036 C165.429994,89.0119999 164.554003,89 164.026,89 C163.653998,89 163.198003,89.0119999 162.658,89.036 C162.117997,89.0600001 161.764001,89.0779999 161.596,89.09 Z M47.017,112.09 C46.6689983,112.09 46.495,112.024001 46.495,111.892 C46.495,111.808 46.5429995,111.742 46.639,111.694 C46.7350005,111.646 46.884999,111.604 47.089,111.568 C47.7130031,111.459999 48.0849994,110.992004 48.205,110.164 C48.6970025,106.467982 48.943,103.912007 48.943,102.496 C48.943,102.219999 48.9370001,102.022001 48.925,101.902 C48.9129999,101.769999 48.8920001,101.659 48.862,101.569 C48.8319998,101.479 48.7630005,101.392 48.655,101.308 C48.462999,101.139999 48.2740009,101.026 48.088,100.966 C47.9019991,100.906 47.6410017,100.84 47.305,100.768 C47.1849994,100.744 47.0890004,100.699 47.017,100.633 C46.9449996,100.567 46.909,100.492 46.909,100.408 C46.909,100.324 46.9599995,100.27 47.062,100.246 C47.1640005,100.222 47.316999,100.21 47.521,100.21 C47.6770008,100.21 48.1269963,100.234 48.871,100.282 C49.6150037,100.33 50.0649992,100.354 50.221,100.354 C50.3890008,100.354 50.5029997,100.449999 50.563,100.642 L50.689,101.11 C50.7970005,101.542002 50.8869996,101.847999 50.959,102.028 L53.803,109.246 C53.8390002,109.354001 53.9169994,109.408 54.037,109.408 C54.1210004,109.408 54.1809998,109.372 54.217,109.3 L57.763,101.92 C57.9070007,101.379997 58.0149996,100.930002 58.087,100.57 C58.1230002,100.413999 58.1829996,100.336 58.267,100.336 L58.915,100.336 C59.0950009,100.336 59.5269966,100.306 60.211,100.246 C60.5230016,100.21 60.774999,100.192 60.967,100.192 C61.2190013,100.192 61.345,100.251999 61.345,100.372 C61.345,100.456 61.3120003,100.522 61.246,100.57 C61.1799997,100.618 61.0570009,100.678 60.877,100.75 C60.7689995,100.786 60.6250009,100.84 60.445,100.912 L59.815,101.164 C59.6829993,101.224 59.5780004,101.307999 59.5,101.416 C59.4219996,101.524001 59.383,101.643999 59.383,101.776 C59.383,102.832005 59.4039998,103.821995 59.446,104.746 C59.4880002,105.670005 59.5509996,106.749994 59.635,107.986 C59.7070004,108.970005 59.7549999,109.737997 59.779,110.29 C59.7910001,110.662002 59.9049989,110.946999 60.121,111.145 C60.3370011,111.343001 60.6729977,111.484 61.129,111.568 C61.333001,111.604 61.4829995,111.646 61.579,111.694 C61.6750005,111.742 61.723,111.808 61.723,111.892 C61.723,112.024001 61.5490017,112.09 61.201,112.09 C60.7569978,112.09 60.3730016,112.072 60.049,112.036 C59.6649981,112.012 59.3470013,112 59.095,112 C58.890999,112 58.6210017,112.012 58.285,112.036 C58.0209987,112.072 57.6610023,112.09 57.205,112.09 C56.8569983,112.09 56.683,112.024001 56.683,111.892 C56.683,111.723999 56.880998,111.616 57.277,111.568 C57.6250017,111.52 57.8649993,111.400001 57.997,111.208 C58.1290007,111.015999 58.195,110.704002 58.195,110.272 C58.195,109.047994 58.1740002,107.917005 58.132,106.879 C58.0899998,105.840995 58.0630001,105.226001 58.051,105.034 C58.0269999,104.733998 58.0030001,104.272003 57.979,103.648 C57.9669999,103.527999 57.9310003,103.468 57.871,103.468 C57.8229998,103.468 57.7630004,103.527999 57.691,103.648 L53.551,112.09 C53.5389999,112.162 53.4850005,112.198 53.389,112.198 C53.3169996,112.198 53.2630002,112.156 53.227,112.072 C52.3989959,109.611988 51.2950069,106.762016 49.915,103.522 C49.8909999,103.462 49.8490003,103.432 49.789,103.432 C49.7289997,103.432 49.6930001,103.462 49.681,103.522 C49.4649989,105.118008 49.3150004,106.347996 49.231,107.212 C49.1469996,108.076004 49.105,109.059994 49.105,110.164 C49.105,110.500002 49.2099989,110.799999 49.42,111.064 C49.630001,111.328001 49.9149982,111.496 50.275,111.568 C50.479001,111.604 50.6289995,111.646 50.725,111.694 C50.8210005,111.742 50.869,111.808 50.869,111.892 C50.869,112.024001 50.6950017,112.09 50.347,112.09 C49.9029978,112.09 49.5610012,112.072 49.321,112.036 C49.0809988,112.012 48.859001,112 48.655,112 C48.4749991,112 48.2650012,112.012 48.025,112.036 C47.5569977,112.072 47.221001,112.09 47.017,112.09 Z M69.157,112.252 C68.1009947,112.252 67.1140046,112.003002 66.196,111.505 C65.2779954,111.006998 64.5460027,110.308005 64,109.408 C63.4539973,108.507995 63.181,107.482006 63.181,106.33 C63.181,105.225994 63.4209976,104.194005 63.901,103.234 C64.3810024,102.273995 65.0829954,101.503003 66.007,100.921 C66.9310046,100.338997 68.0349936,100.048 69.319,100.048 C70.3750053,100.048 71.3619954,100.296998 72.28,100.795 C73.1980046,101.293002 73.9299973,101.991996 74.476,102.892 C75.0220027,103.792004 75.295,104.817994 75.295,105.97 C75.295,107.074006 75.0550024,108.105995 74.575,109.066 C74.0949976,110.026005 73.3930046,110.796997 72.469,111.379 C71.5449954,111.961003 70.4410064,112.252 69.157,112.252 Z M69.427,111.532 C70.7710067,111.532 71.7969965,111.115004 72.505,110.281 C73.2130035,109.446996 73.567,108.304 73.567,106.852 C73.567,105.711994 73.3930017,104.686005 73.045,103.774 C72.6969983,102.861995 72.1840034,102.139003 71.506,101.605 C70.8279966,101.070997 70.0030049,100.804 69.031,100.804 C67.6989933,100.804 66.6790035,101.214996 65.971,102.037 C65.2629965,102.859004 64.909,103.989993 64.909,105.43 C64.909,106.570006 65.0799983,107.601995 65.422,108.526 C65.7640017,109.450005 66.2739966,110.181997 66.952,110.722 C67.6300034,111.262003 68.4549951,111.532 69.427,111.532 Z M79.777,112.288 C78.768995,112.288 77.9230034,112.000003 77.239,111.424 C77.1069993,111.291999 77.0290001,111.172001 77.005,111.064 C76.9569998,110.847999 76.9030003,110.350004 76.843,109.57 L76.825,109.174 C76.825,109.09 76.8579997,109.027 76.924,108.985 C76.9900003,108.943 77.0769995,108.922 77.185,108.922 C77.3410008,108.922 77.4369998,108.987999 77.473,109.12 C77.6890011,109.996004 78.0279977,110.643998 78.49,111.064 C78.9520023,111.484002 79.4649972,111.694 80.029,111.694 C80.6530031,111.694 81.168998,111.493002 81.577,111.091 C81.985002,110.688998 82.189,110.158003 82.189,109.498 C82.189,109.029998 82.1140007,108.643002 81.964,108.337 C81.8139992,108.030998 81.6070013,107.773001 81.343,107.563 C81.0789987,107.352999 80.6830026,107.086002 80.155,106.762 L79.795,106.546 C79.2069971,106.185998 78.7450017,105.874001 78.409,105.61 C78.0729983,105.345999 77.7850012,105.022002 77.545,104.638 C77.3049988,104.253998 77.185,103.816002 77.185,103.324 C77.185,102.363995 77.5089968,101.578003 78.157,100.966 C78.8050032,100.353997 79.7349939,100.048 80.947,100.048 C81.5590031,100.048 82.1889968,100.179999 82.837,100.444 C82.9210004,100.48 82.9989996,100.54 83.071,100.624 C83.1430004,100.708 83.1909999,100.798 83.215,100.894 C83.3350006,101.314002 83.4249997,101.652999 83.485,101.911 C83.5450003,102.169001 83.575,102.423999 83.575,102.676 C83.575,102.808001 83.4850009,102.874 83.305,102.874 C83.1969995,102.874 83.0920005,102.85 82.99,102.802 C82.8879995,102.754 82.825,102.694 82.801,102.622 C82.5369987,101.961997 82.2340017,101.470002 81.892,101.146 C81.5499983,100.821998 81.1330025,100.66 80.641,100.66 C80.040997,100.66 79.5460019,100.824998 79.156,101.155 C78.765998,101.485002 78.571,102.003996 78.571,102.712 C78.571,103.048 78.6789989,103.359999 78.895,103.648 C79.1110011,103.936001 79.3839983,104.199999 79.714,104.44 C80.0440016,104.680001 80.5029971,104.979998 81.091,105.34 C81.6550028,105.688002 82.1109983,105.999999 82.459,106.276 C82.8070017,106.552001 83.1009988,106.893998 83.341,107.302 C83.5810012,107.710002 83.701,108.195997 83.701,108.76 C83.701,109.828005 83.3410036,110.682997 82.621,111.325 C81.9009964,111.967003 80.9530059,112.288 79.777,112.288 Z M91.801,112.27 C90.6729944,112.27 89.611005,112.015003 88.615,111.505 C87.618995,110.994997 86.818003,110.278005 86.212,109.354 C85.605997,108.429995 85.303,107.374006 85.303,106.186 C85.303,105.045994 85.6209968,104.011005 86.257,103.081 C86.8930032,102.150995 87.7449947,101.416003 88.813,100.876 C89.8810053,100.335997 91.0269939,100.066 92.251,100.066 C92.8750031,100.066 93.381998,100.099 93.772,100.165 C94.162002,100.231 94.7229963,100.353999 95.455,100.534 C95.6230008,100.582 95.7459996,100.654 95.824,100.75 C95.9020004,100.846 95.9529999,100.977999 95.977,101.146 C96.0730005,102.082005 96.1269999,102.771998 96.139,103.216 C96.1510001,103.288 96.1240003,103.351 96.058,103.405 C95.9919997,103.459 95.9170004,103.486 95.833,103.486 C95.6769992,103.486 95.5750002,103.402001 95.527,103.234 C95.3949993,102.717997 95.2480008,102.307002 95.086,102.001 C94.9239992,101.694998 94.6990014,101.440001 94.411,101.236 C94.1109985,101.043999 93.7480021,100.894001 93.322,100.786 C92.8959979,100.677999 92.4370025,100.624 91.945,100.624 C91.0329954,100.624 90.2110037,100.863998 89.479,101.344 C88.7469963,101.824002 88.1710021,102.456996 87.751,103.243 C87.3309979,104.029004 87.121,104.865996 87.121,105.754 C87.121,106.750005 87.3309979,107.706995 87.751,108.625 C88.1710021,109.543005 88.7559963,110.286997 89.506,110.857 C90.2560038,111.427003 91.1109952,111.712 92.071,111.712 C92.8990041,111.712 93.5979971,111.523002 94.168,111.145 C94.7380028,110.766998 95.2329979,110.206004 95.653,109.462 C95.6890002,109.39 95.7429996,109.333 95.815,109.291 C95.8870004,109.249 95.9529997,109.228 96.013,109.228 C96.0850004,109.228 96.1449998,109.252 96.193,109.3 C96.2410002,109.348 96.265,109.42 96.265,109.516 C96.265,109.660001 96.2110005,109.920998 96.103,110.299 C95.9949995,110.677002 95.8870005,110.997999 95.779,111.262 C95.6829995,111.430001 95.6110002,111.538 95.563,111.586 C95.5149998,111.634 95.395001,111.688 95.203,111.748 C94.7829979,111.916001 94.2670031,112.045 93.655,112.135 C93.0429969,112.225 92.4250031,112.27 91.801,112.27 Z M104.041,112.252 C102.984995,112.252 101.998005,112.003002 101.08,111.505 C100.161995,111.006998 99.4300027,110.308005 98.884,109.408 C98.3379973,108.507995 98.065,107.482006 98.065,106.33 C98.065,105.225994 98.3049976,104.194005 98.785,103.234 C99.2650024,102.273995 99.9669954,101.503003 100.891,100.921 C101.815005,100.338997 102.918994,100.048 104.203,100.048 C105.259005,100.048 106.245995,100.296998 107.164,100.795 C108.082005,101.293002 108.813997,101.991996 109.36,102.892 C109.906003,103.792004 110.179,104.817994 110.179,105.97 C110.179,107.074006 109.939002,108.105995 109.459,109.066 C108.978998,110.026005 108.277005,110.796997 107.353,111.379 C106.428995,111.961003 105.325006,112.252 104.041,112.252 Z M104.311,111.532 C105.655007,111.532 106.680996,111.115004 107.389,110.281 C108.097004,109.446996 108.451,108.304 108.451,106.852 C108.451,105.711994 108.277002,104.686005 107.929,103.774 C107.580998,102.861995 107.068003,102.139003 106.39,101.605 C105.711997,101.070997 104.887005,100.804 103.915,100.804 C102.582993,100.804 101.563004,101.214996 100.855,102.037 C100.146996,102.859004 99.793,103.989993 99.793,105.43 C99.793,106.570006 99.9639983,107.601995 100.306,108.526 C100.648002,109.450005 101.157997,110.181997 101.836,110.722 C102.514003,111.262003 103.338995,111.532 104.311,111.532 Z M116.389,112.288 C116.353,112.288 116.269001,112.120002 116.137,111.784 L112.249,102.028 C111.960999,101.403997 111.529003,101.008001 110.953,100.84 C110.748999,100.768 110.599,100.702 110.503,100.642 C110.407,100.582 110.359,100.516 110.359,100.444 C110.359,100.311999 110.532998,100.246 110.881,100.246 L111.637,100.264 C111.997002,100.288 112.278999,100.3 112.483,100.3 L113.563,100.282 C113.719001,100.27 113.916999,100.264 114.157,100.264 C114.505002,100.264 114.679,100.329999 114.679,100.462 C114.679,100.546 114.634,100.612 114.544,100.66 C114.454,100.708 114.301001,100.762 114.085,100.822 C113.844999,100.882 113.725,101.079998 113.725,101.416 C113.725,101.572001 113.746,101.727999 113.788,101.884 C113.83,102.040001 113.857,102.142 113.869,102.19 C114.409003,103.582007 114.882998,104.766995 115.291,105.745 C115.699002,106.723005 116.208997,107.895993 116.821,109.264 C116.869,109.384001 116.917,109.444 116.965,109.444 C117.013,109.444 117.055,109.390001 117.091,109.282 L118.495,105.808 C118.567,105.627999 118.603,105.49 118.603,105.394 C118.603,105.298 118.555,105.124001 118.459,104.872 L117.433,102.316 C117.288999,101.955998 117.055002,101.644001 116.731,101.38 C116.406998,101.115999 116.071002,100.936 115.723,100.84 C115.518999,100.78 115.369,100.717 115.273,100.651 C115.177,100.585 115.129,100.516 115.129,100.444 C115.129,100.311999 115.302998,100.246 115.651,100.246 L116.425,100.264 C116.809002,100.288 117.114999,100.3 117.343,100.3 L118.171,100.282 C118.315001,100.27 118.500999,100.264 118.729,100.264 C119.077002,100.264 119.251,100.329999 119.251,100.462 C119.251,100.522 119.224,100.576 119.17,100.624 C119.116,100.672 119.035001,100.726 118.927,100.786 C118.650999,100.906001 118.513,101.049999 118.513,101.218 C118.513,101.242 118.525,101.29 118.549,101.362 C118.633,101.602001 118.755999,101.928998 118.918,102.343 C119.080001,102.757002 119.226999,103.107999 119.359,103.396 C119.371,103.42 119.392,103.465 119.422,103.531 C119.452,103.597 119.485,103.63 119.521,103.63 C119.557,103.63 119.611,103.552001 119.683,103.396 C119.923001,102.855997 120.162999,102.178004 120.403,101.362 C120.415,101.326 120.421,101.284 120.421,101.236 C120.421,101.127999 120.388,101.041 120.322,100.975 C120.256,100.909 120.163001,100.84 120.043,100.768 C120.031,100.756 119.995,100.732 119.935,100.696 C119.875,100.66 119.83,100.624 119.8,100.588 C119.77,100.552 119.755,100.51 119.755,100.462 C119.755,100.329999 119.928998,100.264 120.277,100.264 L120.853,100.282 C120.925,100.294 121.044999,100.3 121.213,100.3 L121.735,100.282 C121.951001,100.258 122.130999,100.246 122.275,100.246 C122.623002,100.246 122.797,100.311999 122.797,100.444 C122.797,100.600001 122.599002,100.72 122.203,100.804 C121.842998,100.888 121.591001,100.983999 121.447,101.092 C121.302999,101.200001 121.147001,101.391999 120.979,101.668 C120.883,101.836001 120.736001,102.147998 120.538,102.604 C120.339999,103.060002 120.169001,103.485998 120.025,103.882 C119.977,103.990001 119.941,104.115999 119.917,104.26 C119.893,104.404001 119.893,104.506 119.917,104.566 L121.771,109.336 C121.795,109.384 121.813,109.408 121.825,109.408 C121.861,109.408 121.909,109.348001 121.969,109.228 C122.425002,108.015994 123.156995,105.694017 124.165,102.262 C124.237,102.045999 124.273,101.830001 124.273,101.614 C124.273,101.193998 124.093002,100.936 123.733,100.84 C123.336998,100.731999 123.139,100.612001 123.139,100.48 C123.139,100.347999 123.312998,100.282 123.661,100.282 L124.957,100.3 C125.185001,100.3 125.490998,100.288 125.875,100.264 L126.577,100.246 C126.925002,100.246 127.099,100.311999 127.099,100.444 C127.099,100.600001 126.901002,100.72 126.505,100.804 C125.868997,100.948001 125.377002,101.475995 125.029,102.388 L121.843,111.802 C121.819,111.874 121.78,111.960999 121.726,112.063 C121.672,112.165001 121.615,112.216 121.555,112.216 C121.507,112.216 121.453,112.18 121.393,112.108 C121.333,112.036 121.285,111.958 121.249,111.874 C120.804998,110.877995 120.337002,109.720007 119.845,108.4 L119.035,106.312 C118.999,106.24 118.975,106.204 118.963,106.204 C118.939,106.204 118.897,106.275999 118.837,106.42 C118.428998,107.392005 118.084001,108.237996 117.802,108.958 C117.519999,109.678004 117.181002,110.601994 116.785,111.73 C116.737,111.874001 116.677,112.002999 116.605,112.117 C116.533,112.231001 116.461,112.288 116.389,112.288 Z" id="RUSSO-BALTHOTELMOSCOW" fill="#424242" fill-rule="nonzero"></path>
                <polygon id="Star" fill="#C69C6D" fill-rule="evenodd" points="87.5 137.75 83.6793959 139.75861 84.4090663 135.504305 81.3181326 132.49139 85.5896979 131.870695 87.5 128 89.4103021 131.870695 93.6818674 132.49139 90.5909337 135.504305 91.3206041 139.75861"></polygon>
                <polygon id="Star-Copy" fill="#C69C6D" fill-rule="evenodd" points="102.5 137.75 98.6793959 139.75861 99.4090663 135.504305 96.3181326 132.49139 100.589698 131.870695 102.5 128 104.410302 131.870695 108.681867 132.49139 105.590934 135.504305 106.320604 139.75861"></polygon>
                <polygon id="Star-Copy-3" fill="#C69C6D" fill-rule="evenodd" points="117.5 137.75 113.679396 139.75861 114.409066 135.504305 111.318133 132.49139 115.589698 131.870695 117.5 128 119.410302 131.870695 123.681867 132.49139 120.590934 135.504305 121.320604 139.75861"></polygon>
                <polygon id="Star-Copy-2" fill="#C69C6D" fill-rule="evenodd" points="72.5 137.75 68.6793959 139.75861 69.4090663 135.504305 66.3181326 132.49139 70.5896979 131.870695 72.5 128 74.4103021 131.870695 78.6818674 132.49139 75.5909337 135.504305 76.3206041 139.75861"></polygon>
                <polygon id="Star-Copy-4" fill="#C69C6D" fill-rule="evenodd" points="57.5 137.75 53.6793959 139.75861 54.4090663 135.504305 51.3181326 132.49139 55.5896979 131.870695 57.5 128 59.4103021 131.870695 63.6818674 132.49139 60.5909337 135.504305 61.3206041 139.75861"></polygon>
                <g id="Group-2" stroke-width="1" fill-rule="evenodd" transform="translate(65.000000, 0.000000)">
                    <g id="Group-13">
                        <mask id="mask-2" fill="white">
                            <use xlink:href="#path-1"></use>
                        </mask>
                        <g id="Clip-12"></g>
                        <path d="M39.6653612,31.5880334 C39.6653612,13.0506639 31.2140042,1.0634405 21.2125428,1.0634405 C13.0203507,1.0634405 3.53458873,8.82561169 3.53458873,28.3129603 C3.53458873,46.6784718 11.5547975,58.8376785 22.0735866,58.8376785 C32.1624802,58.8376785 39.6653612,47.972167 39.6653612,31.5880334 M-2.50521921e-05,29.6271983 C-2.50521921e-05,12.7578038 9.546238,0.0262797495 21.6346722,0.0262797495 C36.2620209,0.0262797495 43.1985971,16.6517912 43.1985971,30.19438 C43.1985971,47.2253612 33.5839415,59.874714 21.5651524,59.874714 C9.61575783,59.874714 -2.50521921e-05,47.0610188 -2.50521921e-05,29.6271983" id="Fill-11" fill="#424242" mask="url(#mask-2)"></path>
                    </g>
                    <path d="M36.8858956,32.4748935 C36.4692777,31.4888392 35.861261,30.5736827 35.1091942,29.8065846 C35.0590898,29.7403215 34.9628894,29.6383591 34.8009269,29.4910522 C34.4906555,30.0794029 34.1198831,30.5937244 33.6567933,31.0728476 C33.5867724,31.1452484 33.5157495,31.2163967 33.4437244,31.2869186 C33.3386305,31.3895073 33.292785,31.3898831 33.321595,31.511762 C33.3526597,31.643286 33.6056868,31.880405 33.6862296,31.997023 C33.9110731,32.322952 34.1093612,32.6669186 34.2744551,33.0269186 C34.7971691,34.1664175 34.9474823,35.4379415 34.7508225,36.6728894 C34.5795908,37.748881 34.1756242,38.8243716 33.558714,39.7270021 C32.1802171,41.7440793 29.8456033,43.1248309 27.584142,43.9052067 C24.7102797,44.8967724 21.6722004,44.9566472 18.672952,44.6755616 C18.6859791,45.0016159 18.8170021,45.5092985 18.3877328,45.5895908 C18.2915324,45.6077537 18.1736618,45.5895908 18.076334,45.5895908 L16.2075658,45.5895908 L11.6722422,45.5895908 C11.276167,45.5895908 10.9265637,45.6341837 10.9141628,45.1247474 C10.8967516,44.4071273 10.9141628,43.6870021 10.9141628,42.9690063 C10.9141628,42.6219081 11.0171273,42.5358539 11.3528267,42.4246221 C11.4143299,42.4042046 11.5171691,42.3733904 11.5627641,42.3355616 C11.7098205,42.2130564 11.6651023,42.3527223 11.6248935,42.1353946 C11.601595,42.0103841 11.5362088,41.9022839 11.5223048,41.7706347 C11.5126597,41.6798205 11.5284426,41.599904 11.5298205,41.5119708 C11.5335783,41.2524301 11.516167,40.9907599 11.5092777,40.7314697 C11.430238,37.7206973 11.3511983,34.7099248 11.2722839,31.6992777 C11.2587557,31.1872109 11.2453528,30.6751441 11.2319499,30.1632025 C11.2235574,29.8419081 11.1713236,29.8186096 11.449904,29.6434948 C13.8398831,28.1409896 16.4747474,26.8903841 19.2024301,26.146334 C21.8667307,25.4194447 24.7760418,25.3449144 27.4397161,26.1383173 C28.7010939,26.5141002 29.9945386,27.1444134 30.8211357,28.2052484 C30.9147056,28.3253737 31.001762,28.4507599 31.0781712,28.5825344 C31.4104885,28.1118038 31.6904468,27.6017411 31.8858539,27.0588601 C31.9719081,26.8196117 32.0416785,26.574476 32.0926597,26.3252067 C32.1060626,26.260071 32.1818455,26.0270856 32.152785,25.9670856 C32.1135783,25.8859165 31.8476493,25.7832025 31.7679833,25.7377328 C30.9242255,25.257357 30.021595,24.8850814 29.0924092,24.6058747 C26.9416785,23.9594029 24.6651858,23.8008225 22.4306555,23.9014071 C20.0853946,24.0067516 17.8468559,24.6120125 15.762263,25.6918873 C14.7645595,26.2085887 13.8162088,26.8148518 12.9118246,27.480739 C12.5257704,27.7649562 11.7173361,28.6070856 11.2979624,27.9274196 C11.0139958,27.4672109 11.0986722,26.8112192 11.1001754,26.2870021 C11.1035574,25.1014071 11.1055616,23.9158121 11.1058121,22.7300919 C11.1061879,21.3009896 11.1054363,19.871762 11.0942881,18.4426597 C11.0863967,17.4279207 10.7892777,16.0742255 11.7869812,15.4367724 C12.4268142,15.0277954 13.1768768,15.0022422 13.9071482,14.9442463 C15.6980042,14.8020752 17.4971273,14.7358121 19.2934948,14.7378163 C21.6971273,14.7406973 24.0972526,14.9307182 26.4998831,14.9981086 C27.4273152,15.0240376 28.3552484,15.0443299 29.2823048,15.0874196 C30.0673152,15.1239958 30.9099457,15.1238706 31.6789228,15.300238 C32.1217203,15.4016994 32.9458121,15.8784426 32.7243507,16.4754363 C32.5598831,16.9188601 31.547023,16.8618664 31.6229311,17.4505929 C31.6953319,18.0111357 32.4222213,18.3651232 32.8909478,18.48362 C33.6427641,18.6733904 34.5764593,18.640572 35.1282338,18.0255407 C35.827691,17.246167 35.6088601,16.0157286 35.0873987,15.2065428 C34.5306138,14.3427432 33.57362,13.8525971 32.6052276,13.5955616 C30.8117411,13.1194447 28.9690271,13.3608225 27.1463549,13.4597787 C23.1418873,13.6774823 19.116,13.5326806 15.1164175,13.2801545 C13.7439332,13.1933486 12.3723257,13.0901336 11.0024718,12.9682547 C10.3504885,12.9103841 9.66117745,12.7851232 9.00481002,12.8126806 C8.54309812,12.8322213 8.24973695,12.9985678 8.2428476,13.4899666 C8.23232568,14.2406555 8.54297286,14.9972317 8.69491441,15.7224927 C8.97412109,17.0542672 8.93002923,18.4723466 8.90422547,19.8250397 C8.87641754,21.2825762 8.796,22.7393612 8.68890188,24.1931399 C8.65420459,24.6627432 8.59357829,25.1338497 8.58718998,25.6045804 C8.55687683,27.8507599 8.56764927,30.0983173 8.55875574,32.3446221 C8.54810856,35.0734322 8.53908977,37.8022422 8.53445511,40.5310522 C8.53270146,41.5074614 8.4748309,42.4887557 8.2736618,43.4463758 C8.16481002,43.9650814 7.69708559,44.8390271 8.0942881,45.2966054 C8.43286848,45.6867933 9.09324426,45.9222839 9.56898539,46.08362 C10.1922839,46.2949353 10.8432651,46.4208225 11.4937453,46.5140167 C13.2835992,46.7704259 15.1058956,46.7981086 16.9106555,46.8282965 C19.3221795,46.86838 21.753119,46.9703424 24.1636409,46.8925553 C27.0205929,46.800238 30.1580042,46.3141002 32.5706555,44.6617829 C32.8800501,44.4499666 33.1348309,44.1954363 33.419048,43.9586931 C33.9606764,43.5072526 34.5127015,43.1135574 34.9993403,42.5903424 C37.5034322,39.8983591 38.3322839,35.8977745 36.8858956,32.4748935" id="Fill-14" fill="#424242"></path>
                    <path d="M29.8409436,17.8255992 C27.3319666,16.8365386 24.547666,16.4137829 21.8585637,16.3903591 C20.8969353,16.3820919 19.9374363,16.3557871 18.9755574,16.3934906 C17.5700042,16.4486054 16.1970188,16.6591691 14.8034906,16.8280209 C13.9155157,16.93562 13.0811524,16.9768309 12.2079582,16.8147432 C11.9699624,16.7704008 11.5681253,16.7737829 11.642405,17.1097328 C11.6857453,17.3055157 11.8798998,17.4622171 11.9877495,17.6251816 C12.0915908,17.7825094 12.171382,17.9548685 12.241904,18.1292317 C12.7330522,19.3453904 12.8615699,20.7315282 12.9949729,22.0243466 C13.1590647,23.6167891 13.2428643,25.2169979 13.3163925,26.8158288 C13.8189395,26.4668518 14.3345136,26.1367891 14.8647432,25.8315282 C15.0661628,25.7155365 15.345119,25.6239708 15.5171023,25.4725303 C15.5520501,25.4417161 15.6358497,25.4360793 15.659524,25.3976242 C15.7289186,25.2851399 15.6598998,24.8846806 15.6606514,24.7473946 C15.6666639,23.6156618 15.6928434,22.483929 15.7348058,21.3529478 C15.7628643,20.5944927 15.7979374,19.8362881 15.8417787,19.0785846 C15.848167,18.9681044 15.814096,18.7031775 15.8710898,18.6015908 C15.9701712,18.4248476 16.7113403,18.3936576 16.9378121,18.357833 C19.1341378,18.0112359 21.37919,17.9269353 23.5906722,18.1765804 C24.8831148,18.3225094 26.3333862,18.5092735 27.5187307,19.0808392 C28.6750146,19.6383758 29.8160167,20.3458497 30.7572276,21.2216743 C32.113929,22.483929 32.7500042,24.4390021 32.4199415,26.2671858 C32.0499207,28.3169562 30.5377704,29.9402129 28.9275407,31.1511106 C27.2281253,32.429023 25.2290856,33.1577912 23.1322171,33.4541587 C22.3229061,33.5685219 21.5044509,33.621382 20.685119,33.6250146 C20.7332192,33.6243883 20.7814447,33.623762 20.8295449,33.623261 C20.7536367,33.6241378 20.6772276,33.6253904 20.6023215,33.6253904 C19.5793152,33.6256409 18.5554322,33.5476033 17.5472067,33.3971649 C17.3082088,33.3614656 17.0695866,33.3217578 16.8322171,33.2764134 C16.7234906,33.25562 16.419357,33.2467265 16.3458288,33.1736994 C16.3508392,33.174952 16.3587307,33.1768309 16.371382,33.1797119 C16.3587307,33.1768309 16.350714,33.174952 16.3458288,33.1736994 C16.2333445,33.0622171 16.2084175,32.6628852 16.1750981,32.5041795 C16.1188559,32.2348685 16.0716326,31.9636785 16.0299207,31.6918622 C15.8296284,30.3863925 15.7487098,29.0625094 15.7018622,27.743762 C15.3372276,27.9054739 14.9753486,28.0735741 14.6166013,28.2479374 C14.2741378,28.4144092 13.8371023,28.5663507 13.534096,28.7988351 C13.419858,28.8865177 13.4368935,28.8402965 13.4038246,28.9830939 C13.3728852,29.1167474 13.4132192,29.3068935 13.4168518,29.4454322 C13.425119,29.7677286 13.4320084,30.0900251 13.4376451,30.4123215 C13.4619457,31.7942004 13.4648267,33.1764551 13.4434071,34.5582088 C13.4233653,35.8566639 13.3856618,37.1561211 13.2932192,38.4515699 C13.2148058,39.549858 13.1626973,40.7487307 12.5886263,41.7192526 C12.3914656,42.052572 12.1311733,42.3499415 11.7976033,42.5513612 C11.7184384,42.5989603 11.2636159,42.7089395 11.2220292,42.7673111 C11.1967265,42.8030104 11.2220292,42.9540752 11.2220292,42.9937829 L11.2220292,44.1473111 C11.2220292,44.4361628 11.1280835,44.9081461 11.2220292,45.1818413 C11.2722589,45.3278956 11.1918413,45.2462255 11.3530522,45.2816743 C11.542572,45.3233862 11.7903382,45.2816743 11.9834906,45.2816743 L14.2333027,45.2816743 L18.3889603,45.2816743 C18.37681,44.9749102 18.3645344,44.6681461 18.3521336,44.3612568 C18.3404843,44.0688977 18.384952,44.0309436 18.1160167,43.9045553 C17.8338038,43.7720292 17.5687516,43.598167 17.3469144,43.3782088 C16.7844927,42.8206722 16.5719248,42.0402965 16.6262881,41.2665595 C16.659858,40.7886889 16.6379374,40.3066848 16.6264134,39.8271858 C16.6004843,38.7516952 16.5743048,37.6620501 16.4176033,36.5962046 C16.3414447,36.0783758 16.1694614,35.5321127 16.8036576,35.3132818 C17.2470814,35.1603382 17.7660376,35.2328643 18.2174781,35.3036367 C19.7143466,35.5383758 21.2962672,35.5306096 22.8034071,35.4059749 C25.7842422,35.1593361 28.7261211,34.2920292 31.2414864,32.6462255 C32.4776868,31.8372902 33.7073737,30.8358288 34.433261,29.5258497 C35.3192317,27.9267683 35.8619875,26.0373319 35.6733445,24.2000042 C35.3427808,20.9828017 32.651048,18.9335324 29.8409436,17.8255992" id="Fill-16" fill="#424242"></path>
                </g>
            </g>
        </g>
    </g>
</svg>