<?xml version="1.0" encoding="UTF-8"?>
<svg width="177px" height="141px" viewBox="0 0 177 141" version="1.1" xmlns="http://www.w3.org/2000/svg" xmlns:xlink="http://www.w3.org/1999/xlink">
    <!-- Generator: Sketch 56.2 (81672) - https://sketch.com -->
    <title>Logo / RB Logo Moscow W</title>
    <desc>Created with Sketch.</desc>
    <defs>
        <polygon id="path-1" points="0 0.0263048017 43.1985971 0.0263048017 43.1985971 59.874714 0 59.874714"></polygon>
    </defs>
    <g id="Logo-/-RB-Logo-Moscow-W" stroke="none" stroke-width="1" fill="none" fill-rule="evenodd">
        <path d="M15.348,89.378 C14.7959972,89.378 14.319002,89.3060007 13.917,89.162 C13.514998,89.0179993 13.1640015,88.7660018 12.864,88.406 C12.3119972,87.7219966 11.8560018,87.1370024 11.496,86.651 C11.1359982,86.1649976 10.6800028,85.4720045 10.128,84.572 C9.9479991,84.2719985 9.69000168,84.0380008 9.354,83.87 C8.95799802,83.677999 8.48400276,83.5520003 7.932,83.492 L7.896,83.492 C7.73999922,83.492 7.662,83.6119988 7.662,83.852 L7.662,87.02 C7.662,87.9080044 8.06399598,88.4239993 8.868,88.568 C9.07200102,88.6040002 9.22199952,88.6459998 9.318,88.694 C9.41400048,88.7420002 9.462,88.8079996 9.462,88.892 C9.462,89.0240007 9.28800174,89.09 8.94,89.09 C8.55599808,89.09 8.20800156,89.0660002 7.896,89.018 C7.67999892,88.9819998 7.44000132,88.964 7.176,88.964 C6.95999892,88.964 6.74100111,88.9729999 6.519,88.991 C6.29699889,89.0090001 6.13800048,89.018 6.042,89.018 C5.5619976,89.0660002 5.16000162,89.09 4.836,89.09 C4.48799826,89.09 4.314,89.0240007 4.314,88.892 C4.314,88.8079996 4.36199952,88.7420002 4.458,88.694 C4.55400048,88.6459998 4.70399898,88.6040002 4.908,88.568 C5.37600234,88.4839996 5.71199898,88.343001 5.916,88.145 C6.12000102,87.946999 6.222,87.6320022 6.222,87.2 L6.222,79.532 C6.222,79.0279975 6.20100021,78.6710011 6.159,78.461 C6.11699979,78.2509989 6.02100075,78.0980005 5.871,78.002 C5.72099925,77.9059995 5.47200174,77.8400002 5.124,77.804 C4.93199904,77.7919999 4.78500051,77.7500004 4.683,77.678 C4.58099949,77.6059996 4.53,77.5280004 4.53,77.444 C4.53,77.3119993 4.70399826,77.246 5.052,77.246 C5.56800258,77.246 5.90399922,77.2519999 6.06,77.264 L6.816,77.264 C6.9960009,77.264 7.2659982,77.2520001 7.626,77.228 C8.27400324,77.1919998 8.69399904,77.174 8.886,77.174 C10.2060066,77.174 11.2109965,77.4229975 11.901,77.921 C12.5910034,78.4190025 12.936,79.1539951 12.936,80.126 C12.936,81.4220065 12.2280071,82.4299964 10.812,83.15 C10.7759998,83.1620001 10.758,83.1919998 10.758,83.24 C10.758,83.2760002 10.7759998,83.3239997 10.812,83.384 C11.5680038,84.5240057 12.1769977,85.3999969 12.639,86.012 C13.1010023,86.6240031 13.7099962,87.2719966 14.466,87.956 C14.7540014,88.2080013 15.0479985,88.3699996 15.348,88.442 C15.6480015,88.5140004 16.0439975,88.55 16.536,88.55 C16.7160009,88.55 16.806,88.6159993 16.806,88.748 C16.806,88.9760011 16.6470016,89.1379995 16.329,89.234 C16.0109984,89.3300005 15.6840017,89.378 15.348,89.378 Z M8.616,83.078 C9.14400264,83.078 9.61499793,82.9550012 10.029,82.709 C10.4430021,82.4629988 10.7609989,82.136002 10.983,81.728 C11.2050011,81.319998 11.316,80.8820023 11.316,80.414 C11.316,79.5619957 11.1360018,78.8990024 10.776,78.425 C10.4159982,77.9509976 9.71400522,77.714 8.67,77.714 C8.29799814,77.714 8.04900063,77.8309988 7.923,78.065 C7.79699937,78.2990012 7.72200012,78.7399968 7.698,79.388 C7.67399988,80.2040041 7.662,81.2239939 7.662,82.448 C7.662,82.7240014 7.73399928,82.8979996 7.878,82.97 C8.02200072,83.0420004 8.26799826,83.078 8.616,83.078 Z M23.412,89.252 C21.8399921,89.252 20.6400041,88.8440041 19.812,88.028 C18.9839959,87.2119959 18.57,86.0960071 18.57,84.68 L18.57,79.154 C18.57,78.757998 18.4920008,78.455001 18.336,78.245 C18.1799992,78.034999 17.9820012,77.9000003 17.742,77.84 C17.345998,77.7319995 17.148,77.6000008 17.148,77.444 C17.148,77.3119993 17.3219983,77.246 17.67,77.246 L18.444,77.264 C18.8280019,77.2880001 19.1459987,77.3 19.398,77.3 L20.262,77.282 C20.4060007,77.2699999 20.5979988,77.264 20.838,77.264 C21.1860017,77.264 21.36,77.3299993 21.36,77.462 C21.36,77.5340004 21.3180004,77.5939998 21.234,77.642 C21.1499996,77.6900002 20.9940011,77.7499996 20.766,77.822 C20.5979992,77.8700002 20.4300008,78.0169988 20.262,78.263 C20.0939992,78.5090012 20.01,78.7939984 20.01,79.118 L20.01,84.176 C20.01,85.568007 20.3519966,86.6119965 21.036,87.308 C21.7200034,88.0040035 22.6379942,88.352 23.79,88.352 C24.990006,88.352 25.886997,87.9350042 26.481,87.101 C27.075003,86.2669958 27.372,85.1240073 27.372,83.672 C27.372,82.9399963 27.3480002,81.6500092 27.3,79.802 C27.2879999,79.2979975 27.2220006,78.8630018 27.102,78.497 C26.9819994,78.1309982 26.8020012,77.9120004 26.562,77.84 C26.165998,77.7319995 25.968,77.6120007 25.968,77.48 C25.968,77.3479993 26.1419983,77.282 26.49,77.282 L27.84,77.3 C28.0680011,77.3 28.3499983,77.2880001 28.686,77.264 L29.298,77.246 C29.6460017,77.246 29.82,77.3119993 29.82,77.444 C29.82,77.6000008 29.622002,77.7199996 29.226,77.804 C28.6619972,77.9120005 28.3620002,78.361996 28.326,79.154 C28.2779998,79.8860037 28.2450001,80.6329962 28.227,81.395 C28.2089999,82.1570038 28.1940001,82.6699987 28.182,82.934 C28.182,83.2820017 28.1700001,83.8039965 28.146,84.5 C28.1219999,85.4120046 27.9000021,86.2309964 27.48,86.957 C27.0599979,87.6830036 26.4960035,88.246998 25.788,88.649 C25.0799965,89.051002 24.2880044,89.252 23.412,89.252 Z M33.672,89.288 C32.663995,89.288 31.8180034,89.0000029 31.134,88.424 C31.0019993,88.2919993 30.9240001,88.1720005 30.9,88.064 C30.8519998,87.8479989 30.7980003,87.3500039 30.738,86.57 L30.72,86.174 C30.72,86.0899996 30.7529997,86.0270002 30.819,85.985 C30.8850003,85.9429998 30.9719995,85.922 31.08,85.922 C31.2360008,85.922 31.3319998,85.9879993 31.368,86.12 C31.5840011,86.9960044 31.9229977,87.6439979 32.385,88.064 C32.8470023,88.4840021 33.3599972,88.694 33.924,88.694 C34.5480031,88.694 35.063998,88.493002 35.472,88.091 C35.880002,87.688998 36.084,87.1580033 36.084,86.498 C36.084,86.0299977 36.0090007,85.6430015 35.859,85.337 C35.7089992,85.0309985 35.5020013,84.7730011 35.238,84.563 C34.9739987,84.3529989 34.5780026,84.0860016 34.05,83.762 L33.69,83.546 C33.1019971,83.1859982 32.6400017,82.8740013 32.304,82.61 C31.9679983,82.3459987 31.6800012,82.0220019 31.44,81.638 C31.1999988,81.2539981 31.08,80.8160025 31.08,80.324 C31.08,79.3639952 31.4039968,78.5780031 32.052,77.966 C32.7000032,77.3539969 33.6299939,77.048 34.842,77.048 C35.4540031,77.048 36.0839968,77.1799987 36.732,77.444 C36.8160004,77.4800002 36.8939996,77.5399996 36.966,77.624 C37.0380004,77.7080004 37.0859999,77.7979995 37.11,77.894 C37.2300006,78.3140021 37.3199997,78.6529987 37.38,78.911 C37.4400003,79.1690013 37.47,79.4239987 37.47,79.676 C37.47,79.8080007 37.3800009,79.874 37.2,79.874 C37.0919995,79.874 36.9870005,79.8500002 36.885,79.802 C36.7829995,79.7539998 36.72,79.6940004 36.696,79.622 C36.4319987,78.9619967 36.1290017,78.4700016 35.787,78.146 C35.4449983,77.8219984 35.0280025,77.66 34.536,77.66 C33.935997,77.66 33.4410019,77.8249984 33.051,78.155 C32.660998,78.4850017 32.466,79.0039965 32.466,79.712 C32.466,80.048 32.5739989,80.3599986 32.79,80.648 C33.0060011,80.9360014 33.2789983,81.1999988 33.609,81.44 C33.9390016,81.6800012 34.3979971,81.9799982 34.986,82.34 C35.5500028,82.6880017 36.0059983,82.9999986 36.354,83.276 C36.7020017,83.5520014 36.9959988,83.893998 37.236,84.302 C37.4760012,84.710002 37.596,85.1959972 37.596,85.76 C37.596,86.8280053 37.2360036,87.6829968 36.516,88.325 C35.7959964,88.9670032 34.8480059,89.288 33.672,89.288 Z M42.042,89.288 C41.033995,89.288 40.1880034,89.0000029 39.504,88.424 C39.3719993,88.2919993 39.2940001,88.1720005 39.27,88.064 C39.2219998,87.8479989 39.1680003,87.3500039 39.108,86.57 L39.09,86.174 C39.09,86.0899996 39.1229997,86.0270002 39.189,85.985 C39.2550003,85.9429998 39.3419995,85.922 39.45,85.922 C39.6060008,85.922 39.7019998,85.9879993 39.738,86.12 C39.9540011,86.9960044 40.2929977,87.6439979 40.755,88.064 C41.2170023,88.4840021 41.7299972,88.694 42.294,88.694 C42.9180031,88.694 43.433998,88.493002 43.842,88.091 C44.250002,87.688998 44.454,87.1580033 44.454,86.498 C44.454,86.0299977 44.3790008,85.6430015 44.229,85.337 C44.0789992,85.0309985 43.8720013,84.7730011 43.608,84.563 C43.3439987,84.3529989 42.9480026,84.0860016 42.42,83.762 L42.06,83.546 C41.4719971,83.1859982 41.0100017,82.8740013 40.674,82.61 C40.3379983,82.3459987 40.0500012,82.0220019 39.81,81.638 C39.5699988,81.2539981 39.45,80.8160025 39.45,80.324 C39.45,79.3639952 39.7739968,78.5780031 40.422,77.966 C41.0700032,77.3539969 41.9999939,77.048 43.212,77.048 C43.8240031,77.048 44.4539968,77.1799987 45.102,77.444 C45.1860004,77.4800002 45.2639996,77.5399996 45.336,77.624 C45.4080004,77.7080004 45.4559999,77.7979995 45.48,77.894 C45.6000006,78.3140021 45.6899997,78.6529987 45.75,78.911 C45.8100003,79.1690013 45.84,79.4239987 45.84,79.676 C45.84,79.8080007 45.7500009,79.874 45.57,79.874 C45.4619995,79.874 45.3570005,79.8500002 45.255,79.802 C45.1529995,79.7539998 45.09,79.6940004 45.066,79.622 C44.8019987,78.9619967 44.4990017,78.4700016 44.157,78.146 C43.8149983,77.8219984 43.3980025,77.66 42.906,77.66 C42.305997,77.66 41.8110019,77.8249984 41.421,78.155 C41.0309981,78.4850017 40.836,79.0039965 40.836,79.712 C40.836,80.048 40.9439989,80.3599986 41.16,80.648 C41.3760011,80.9360014 41.6489983,81.1999988 41.979,81.44 C42.3090016,81.6800012 42.7679971,81.9799982 43.356,82.34 C43.9200028,82.6880017 44.3759983,82.9999986 44.724,83.276 C45.0720017,83.5520014 45.3659988,83.893998 45.606,84.302 C45.8460012,84.710002 45.966,85.1959972 45.966,85.76 C45.966,86.8280053 45.6060036,87.6829968 44.886,88.325 C44.1659964,88.9670032 43.2180059,89.288 42.042,89.288 Z M53.526,89.252 C52.4699947,89.252 51.4830046,89.0030025 50.565,88.505 C49.6469954,88.0069975 48.9150027,87.3080045 48.369,86.408 C47.8229973,85.5079955 47.55,84.4820058 47.55,83.33 C47.55,82.2259945 47.7899976,81.1940048 48.27,80.234 C48.7500024,79.2739952 49.4519954,78.5030029 50.376,77.921 C51.3000046,77.3389971 52.4039936,77.048 53.688,77.048 C54.7440053,77.048 55.7309954,77.2969975 56.649,77.795 C57.5670046,78.2930025 58.2989973,78.9919955 58.845,79.892 C59.3910027,80.7920045 59.664,81.8179942 59.664,82.97 C59.664,84.0740055 59.4240024,85.1059952 58.944,86.066 C58.4639976,87.0260048 57.7620046,87.7969971 56.838,88.379 C55.9139954,88.9610029 54.8100064,89.252 53.526,89.252 Z M53.796,88.532 C55.1400067,88.532 56.1659965,88.1150042 56.874,87.281 C57.5820035,86.4469958 57.936,85.304 57.936,83.852 C57.936,82.7119943 57.7620017,81.6860046 57.414,80.774 C57.0659983,79.8619954 56.5530034,79.1390027 55.875,78.605 C55.1969966,78.0709973 54.3720049,77.804 53.4,77.804 C52.0679933,77.804 51.0480035,78.2149959 50.34,79.037 C49.6319965,79.8590041 49.278,80.9899928 49.278,82.43 C49.278,83.5700057 49.4489983,84.6019954 49.791,85.526 C50.1330017,86.4500046 50.6429966,87.1819973 51.321,87.722 C51.9990034,88.2620027 52.8239951,88.532 53.796,88.532 Z M61.104,85.94 C61.0319996,85.94 60.996,85.9040004 60.996,85.832 C60.996,85.6159989 61.0229997,85.4030011 61.077,85.193 C61.1310003,84.9829989 61.1999996,84.8720001 61.284,84.86 C62.8200077,84.6439989 63.9719962,84.4940004 64.74,84.41 C64.8360005,84.41 64.884,84.4459996 64.884,84.518 C64.884,84.7820013 64.8540003,85.0069991 64.794,85.193 C64.7339997,85.3790009 64.6380007,85.4779999 64.506,85.49 L64.038,85.562 C62.8019938,85.754001 61.8240036,85.8799997 61.104,85.94 Z M66.27,89.09 C65.9219983,89.09 65.748,89.0240007 65.748,88.892 C65.748,88.8079996 65.7959995,88.7420002 65.892,88.694 C65.9880005,88.6459998 66.137999,88.6040002 66.342,88.568 C66.8220024,88.4839996 67.1759989,88.340001 67.404,88.136 C67.6320011,87.931999 67.746,87.626002 67.746,87.218 L67.746,79.118 C67.746,78.6859978 67.6530009,78.368001 67.467,78.164 C67.2809991,77.959999 66.9720022,77.8400002 66.54,77.804 C66.347999,77.7919999 66.2010005,77.7500004 66.099,77.678 C65.9969995,77.6059996 65.946,77.5280004 65.946,77.444 C65.946,77.3119993 66.1199983,77.246 66.468,77.246 C67.0080027,77.246 67.3679991,77.2519999 67.548,77.264 L68.34,77.264 C68.5200009,77.264 68.7779983,77.2520001 69.114,77.228 C69.7260031,77.1919998 70.133999,77.174 70.338,77.174 C71.7780072,77.174 72.8339966,77.3809979 73.506,77.795 C74.1780034,78.2090021 74.514,78.8959952 74.514,79.856 C74.514,80.2280019 74.4510006,80.5699984 74.325,80.882 C74.1989994,81.1940016 74.0580008,81.4279992 73.902,81.584 C73.709999,81.776001 73.5330008,81.9229995 73.371,82.025 C73.2089992,82.1270005 72.9840014,82.2379994 72.696,82.358 C72.6479998,82.3820001 72.624,82.4149998 72.624,82.457 C72.624,82.4990002 72.6479998,82.5259999 72.696,82.538 C73.2000025,82.7060008 73.6229983,82.885999 73.965,83.078 C74.3070017,83.270001 74.6069987,83.560998 74.865,83.951 C75.1230013,84.341002 75.252,84.8599968 75.252,85.508 C75.252,86.1200031 75.156001,86.620998 74.964,87.011 C74.771999,87.4010019 74.5470013,87.694999 74.289,87.893 C74.0309987,88.091001 73.7280017,88.2799991 73.38,88.46 C72.5639959,88.868002 71.5440061,89.072 70.32,89.072 L69.78,89.054 C69.4559984,89.0179998 69.0660023,89 68.61,89 C68.3099985,89 67.9440022,89.0119999 67.512,89.036 C67.1759983,89.0720002 66.7620025,89.09 66.27,89.09 Z M69.978,82.322 C70.8060041,82.322 71.5319969,82.1480017 72.156,81.8 C72.348001,81.6919995 72.5309991,81.4940014 72.705,81.206 C72.8790009,80.9179986 72.966,80.5460023 72.966,80.09 C72.966,79.4419968 72.7770019,78.8840023 72.399,78.416 C72.0209981,77.9479977 71.334005,77.714 70.338,77.714 C69.8699977,77.714 69.5550008,77.7769994 69.393,77.903 C69.2309992,78.0290006 69.15,78.2359986 69.15,78.524 L69.15,81.656 C69.15,82.1000022 69.4259972,82.322 69.978,82.322 Z M70.572,88.334 C71.1000026,88.334 71.5919977,88.2140012 72.048,87.974 C72.5040023,87.7339988 72.8699986,87.4040021 73.146,86.984 C73.4220014,86.5639979 73.56,86.1020025 73.56,85.598 C73.56,84.9859969 73.4250014,84.4940019 73.155,84.122 C72.8849986,83.7499981 72.5760017,83.468001 72.228,83.276 C71.6879973,82.9759985 71.0040041,82.826 70.176,82.826 C69.8279983,82.826 69.5700008,82.8949993 69.402,83.033 C69.2339992,83.1710007 69.15,83.3179992 69.15,83.474 L69.15,87.056 C69.15,87.5360024 69.2639989,87.8689991 69.492,88.055 C69.7200011,88.2410009 70.0799975,88.334 70.572,88.334 Z M76.458,89.09 C76.3019992,89.09 76.1760005,89.0690002 76.08,89.027 C75.9839995,88.9849998 75.936,88.9280004 75.936,88.856 C75.936,88.6999992 76.133998,88.5620006 76.53,88.442 C76.8780017,88.3339995 77.1779987,88.181001 77.43,87.983 C77.6820013,87.784999 77.8979991,87.4760021 78.078,87.056 C78.7140032,85.5919927 79.2689976,84.263006 79.743,83.069 C80.2170024,81.874994 80.7839967,80.3840089 81.444,78.596 C81.5760007,78.2239981 81.6599998,77.8760016 81.696,77.552 C81.7320002,77.5399999 81.8189993,77.5130002 81.957,77.471 C82.0950007,77.4289998 82.2239994,77.3660004 82.344,77.282 C82.4400005,77.2099996 82.5149997,77.1020007 82.569,76.958 C82.6230003,76.8139993 82.6619999,76.7180002 82.686,76.67 C82.6980001,76.658 82.7129999,76.655 82.731,76.661 C82.7490001,76.667 82.7639999,76.6759999 82.776,76.688 C82.8000001,76.7480003 82.8209999,76.8139996 82.839,76.886 C82.8570001,76.9580004 82.8779999,77.0239997 82.902,77.084 C83.7900044,79.880014 84.8579938,83.0839819 86.106,86.696 C86.3340011,87.3560033 86.5859986,87.8029988 86.862,88.037 C87.1380014,88.2710012 87.4919978,88.4239996 87.924,88.496 C88.116001,88.5320002 88.2629995,88.5889996 88.365,88.667 C88.4670005,88.7450004 88.518,88.8259996 88.518,88.91 C88.518,89.0300006 88.3440017,89.09 87.996,89.09 L87.024,89.054 C86.3519966,89.0059998 85.8420017,88.982 85.494,88.982 L83.604,89 C83.2559983,89 83.082,88.9280007 83.082,88.784 C83.082,88.7119996 83.1389994,88.6430003 83.253,88.577 C83.3670006,88.5109997 83.5079992,88.4660001 83.676,88.442 C84.4080037,88.3219994 84.774,88.0520021 84.774,87.632 C84.774,87.2479981 84.5400023,86.2760078 84.072,84.716 C84.0479999,84.6319996 84.0030003,84.5780001 83.937,84.554 C83.8709997,84.5299999 83.7540008,84.518 83.586,84.518 L80.184,84.518 C80.0519993,84.518 79.9500004,84.6259989 79.878,84.842 C79.7459993,85.2260019 79.5900009,85.7269969 79.41,86.345 C79.2299991,86.9630031 79.14,87.3259995 79.14,87.434 C79.14,87.6860013 79.238999,87.9019991 79.437,88.082 C79.635001,88.2620009 79.8839985,88.3879996 80.184,88.46 C80.4000011,88.5200003 80.5529996,88.5739998 80.643,88.622 C80.7330005,88.6700002 80.778,88.7359996 80.778,88.82 C80.778,88.9520007 80.6040017,89.018 80.256,89.018 C80.0399989,89.018 79.8600007,89.0120001 79.716,89 L78.618,88.982 C78.413999,88.982 78.1890012,88.9909999 77.943,89.009 C77.6969988,89.0270001 77.5140006,89.036 77.394,89.036 C77.0579983,89.0720002 76.7460014,89.09 76.458,89.09 Z M83.46,83.924 C83.5320004,83.924 83.5919998,83.9180001 83.64,83.906 C83.6880002,83.8939999 83.712,83.8700002 83.712,83.834 L83.676,83.654 L82.272,79.262 C82.1999996,79.0459989 82.1460002,78.938 82.11,78.938 C82.0859999,78.938 82.0380004,79.039999 81.966,79.244 L80.328,83.654 L80.292,83.798 C80.292,83.8580003 80.3189997,83.8939999 80.373,83.906 C80.4270003,83.9180001 80.5259993,83.924 80.67,83.924 L83.46,83.924 Z M89.418,89.09 C89.2619992,89.09 89.1390005,89.0690002 89.049,89.027 C88.9589996,88.9849998 88.914,88.9340003 88.914,88.874 C88.914,88.7299993 89.0459987,88.6280003 89.31,88.568 C89.8020025,88.4719995 90.1679988,88.328001 90.408,88.136 C90.6480012,87.943999 90.768,87.6560019 90.768,87.272 L90.768,78.92 C90.768,78.6319986 90.7380003,78.4190007 90.678,78.281 C90.6179997,78.1429993 90.5190007,78.0440003 90.381,77.984 C90.2429993,77.9239997 90.0060017,77.8640003 89.67,77.804 C89.273998,77.7319996 89.076,77.6120008 89.076,77.444 C89.076,77.3119993 89.2499983,77.246 89.598,77.246 C89.9580018,77.246 90.3299981,77.2579999 90.714,77.282 L91.614,77.3 L92.694,77.282 C93.1500023,77.2579999 93.5459983,77.246 93.882,77.246 C94.2300017,77.246 94.404,77.3119993 94.404,77.444 C94.404,77.6120008 94.206002,77.7319996 93.81,77.804 C93.2459972,77.9120005 92.8380013,78.0259994 92.586,78.146 C92.3339987,78.2660006 92.208,78.4819984 92.208,78.794 L92.208,87.272 C92.208,87.668002 92.2979991,87.9499992 92.478,88.118 C92.6580009,88.2860008 93.0299972,88.37 93.594,88.37 L95.826,88.37 C96.1260015,88.37 96.4019987,88.3220005 96.654,88.226 C96.9060013,88.1299995 97.0979993,88.0220006 97.23,87.902 C97.4700012,87.697999 97.6469994,87.5150008 97.761,87.353 C97.8750006,87.1909992 98.0099992,86.9480016 98.166,86.624 C98.2140002,86.5039994 98.2739996,86.3840006 98.346,86.264 C98.4180004,86.1439994 98.4899996,86.084 98.562,86.084 C98.6340004,86.084 98.6879998,86.1169997 98.724,86.183 C98.7600002,86.2490003 98.778,86.3239996 98.778,86.408 L98.76,86.498 C98.6039992,87.0740029 98.4930003,87.5149985 98.427,87.821 C98.3609997,88.1270015 98.3100002,88.4479983 98.274,88.784 C98.2499999,88.988001 98.1660007,89.09 98.022,89.09 C96.7379936,89.09 95.5560054,89.0720002 94.476,89.036 C93.2519939,89.0119999 92.3760026,89 91.848,89 C91.4759981,89 91.0200027,89.0119999 90.48,89.036 C89.9399973,89.0600001 89.5860008,89.0779999 89.418,89.09 Z M100.632,89.09 C100.283998,89.09 100.11,89.0240007 100.11,88.892 C100.11,88.8079996 100.158,88.7420002 100.254,88.694 C100.35,88.6459998 100.499999,88.6040002 100.704,88.568 C101.172002,88.4839996 101.522999,88.3340011 101.757,88.118 C101.991001,87.9019989 102.108,87.5840021 102.108,87.164 L102.108,80.18 C102.108,79.375996 102.081,78.8330014 102.027,78.551 C101.973,78.2689986 101.874001,78.1160001 101.73,78.092 C101.573999,78.0559998 101.391001,78.035 101.181,78.029 C100.970999,78.023 100.728001,78.02 100.452,78.02 L99.606,78.02 C99.2939984,78.02 99.0000014,78.0799994 98.724,78.2 C98.4479986,78.3200006 98.2500006,78.4939989 98.13,78.722 C98.0579996,78.8660007 97.9470007,79.0159992 97.797,79.172 C97.6469992,79.3280008 97.5120006,79.406 97.392,79.406 C97.3079996,79.406 97.266,79.3280008 97.266,79.172 C97.266,79.0519994 97.2959997,78.9320006 97.356,78.812 C97.5240008,78.4879984 97.6439996,78.1910013 97.716,77.921 C97.7880004,77.6509986 97.8539997,77.318002 97.914,76.922 C97.9500002,76.6459986 98.0519992,76.508 98.22,76.508 C98.2560002,76.508 98.3249995,76.5739993 98.427,76.706 C98.5290005,76.8380007 98.6099997,76.9639994 98.67,77.084 C98.7420004,77.2040006 98.9009988,77.2939997 99.147,77.354 C99.3930012,77.4140003 99.6539986,77.444 99.93,77.444 L106.266,77.444 C107.010004,77.444 107.579998,77.3540009 107.976,77.174 C108.048,77.1379998 108.152999,77.0690005 108.291,76.967 C108.429001,76.8649995 108.557999,76.814 108.678,76.814 C108.714,76.814 108.744,76.8589995 108.768,76.949 C108.792,77.0390005 108.804,77.1319995 108.804,77.228 C108.804,77.2760002 108.78,77.4439986 108.732,77.732 L108.624,78.272 C108.576,78.4160007 108.552,78.589999 108.552,78.794 L108.552,79.01 C108.552,79.1300006 108.525,79.2559993 108.471,79.388 C108.417,79.5200007 108.348,79.586 108.264,79.586 C108.18,79.586 108.114,79.5290006 108.066,79.415 C108.018,79.3009994 107.97,79.1120013 107.922,78.848 C107.874,78.5839987 107.724001,78.3800007 107.472,78.236 C107.219999,78.0919993 106.818003,78.02 106.266,78.02 L104.448,78.02 C104.147998,78.02 103.941001,78.0559996 103.827,78.128 C103.712999,78.2000004 103.638,78.3709986 103.602,78.641 C103.566,78.9110013 103.548,79.3939965 103.548,80.09 L103.548,87.164 C103.548,87.5840021 103.667999,87.9019989 103.908,88.118 C104.148001,88.3340011 104.501998,88.4839996 104.97,88.568 C105.174001,88.6040002 105.324,88.6459998 105.42,88.694 C105.516,88.7420002 105.564,88.8079996 105.564,88.892 C105.564,89.0240007 105.390002,89.09 105.042,89.09 C104.597998,89.09 104.214002,89.0720002 103.89,89.036 C103.505998,89.0119999 103.188001,89 102.936,89 C102.635998,89 102.270002,89.0119999 101.838,89.036 C101.477998,89.0720002 101.076002,89.09 100.632,89.09 Z M113.628,89.09 C113.471999,89.09 113.346,89.0690002 113.25,89.027 C113.154,88.9849998 113.106,88.9280004 113.106,88.856 C113.106,88.7839996 113.148,88.7270002 113.232,88.685 C113.316,88.6429998 113.465999,88.6040002 113.682,88.568 C114.126002,88.4839996 114.419999,88.3490009 114.564,88.163 C114.708001,87.9769991 114.78,87.6620022 114.78,87.218 L114.78,79.082 C114.78,78.7699984 114.762,78.5390007 114.726,78.389 C114.69,78.2389993 114.606,78.1160005 114.474,78.02 C114.341999,77.9239995 114.126002,77.8520002 113.826,77.804 C113.621999,77.7679998 113.472,77.7260002 113.376,77.678 C113.28,77.6299998 113.232,77.5640004 113.232,77.48 C113.232,77.3239992 113.405998,77.246 113.754,77.246 C114.114002,77.246 114.473998,77.2579999 114.834,77.282 L115.608,77.3 L116.418,77.282 C116.802002,77.2579999 117.167998,77.246 117.516,77.246 C117.864002,77.246 118.038,77.3239992 118.038,77.48 C118.038,77.5640004 117.99,77.6299998 117.894,77.678 C117.798,77.7260002 117.648001,77.7679998 117.444,77.804 C116.999998,77.8880004 116.685001,78.031999 116.499,78.236 C116.312999,78.440001 116.22,78.7219982 116.22,79.082 L116.22,82.628 C116.22,82.7360005 116.303999,82.79 116.472,82.79 L123.15,82.79 C123.234,82.79 123.276,82.7180007 123.276,82.574 L123.276,79.064 C123.276,78.7159983 123.186001,78.437001 123.006,78.227 C122.825999,78.016999 122.520002,77.8760004 122.088,77.804 C121.883999,77.7679998 121.734,77.7260002 121.638,77.678 C121.542,77.6299998 121.494,77.5640004 121.494,77.48 C121.494,77.4079996 121.542,77.3510002 121.638,77.309 C121.734,77.2669998 121.859999,77.246 122.016,77.246 C122.352002,77.246 122.735998,77.2579999 123.168,77.282 L124.104,77.3 L124.734,77.282 C125.046002,77.2579999 125.381998,77.246 125.742,77.246 C126.090002,77.246 126.264,77.3239992 126.264,77.48 C126.264,77.5640004 126.216,77.6299998 126.12,77.678 C126.024,77.7260002 125.874001,77.7679998 125.67,77.804 C125.261998,77.8760004 125.001001,78.0049991 124.887,78.191 C124.772999,78.3770009 124.716,78.667998 124.716,79.064 L124.716,87.2 C124.716,87.6680023 124.775999,87.9949991 124.896,88.181 C125.016001,88.3670009 125.291998,88.4959996 125.724,88.568 C125.940001,88.6040002 126.09,88.6429998 126.174,88.685 C126.258,88.7270002 126.3,88.7839996 126.3,88.856 C126.3,88.9280004 126.252,88.9849998 126.156,89.027 C126.06,89.0690002 125.934001,89.09 125.778,89.09 C125.333998,89.09 124.974001,89.0720002 124.698,89.036 C124.385998,89.0119999 124.122001,89 123.906,89 C123.665999,89 123.390002,89.0119999 123.078,89.036 C122.789999,89.0720002 122.424002,89.09 121.98,89.09 C121.823999,89.09 121.698,89.0690002 121.602,89.027 C121.506,88.9849998 121.458,88.9280004 121.458,88.856 C121.458,88.7839996 121.5,88.7270002 121.584,88.685 C121.668,88.6429998 121.817999,88.6040002 122.034,88.568 C122.862004,88.4119992 123.276,87.9740036 123.276,87.254 L123.276,83.654 C123.276,83.6059998 123.27,83.5640002 123.258,83.528 C123.246,83.4919998 123.222,83.474 123.186,83.474 L116.31,83.474 C116.274,83.474 116.25,83.4919998 116.238,83.528 C116.226,83.5640002 116.22,83.6119997 116.22,83.672 L116.22,87.092 C116.22,87.4640019 116.354999,87.7849987 116.625,88.055 C116.895001,88.3250014 117.239998,88.4959996 117.66,88.568 C117.876001,88.6040002 118.026,88.6429998 118.11,88.685 C118.194,88.7270002 118.236,88.7839996 118.236,88.856 C118.236,88.9280004 118.188,88.9849998 118.092,89.027 C117.996,89.0690002 117.870001,89.09 117.714,89.09 C117.269998,89.09 116.886002,89.0720002 116.562,89.036 C116.177998,89.0119999 115.860001,89 115.608,89 C115.367999,89 115.080002,89.0119999 114.744,89.036 C114.455999,89.0720002 114.084002,89.09 113.628,89.09 Z M133.806,89.252 C132.749995,89.252 131.763005,89.0030025 130.845,88.505 C129.926995,88.0069975 129.195003,87.3080045 128.649,86.408 C128.102997,85.5079955 127.83,84.4820058 127.83,83.33 C127.83,82.2259945 128.069998,81.1940048 128.55,80.234 C129.030002,79.2739952 129.731995,78.5030029 130.656,77.921 C131.580005,77.3389971 132.683994,77.048 133.968,77.048 C135.024005,77.048 136.010995,77.2969975 136.929,77.795 C137.847005,78.2930025 138.578997,78.9919955 139.125,79.892 C139.671003,80.7920045 139.944,81.8179942 139.944,82.97 C139.944,84.0740055 139.704002,85.1059952 139.224,86.066 C138.743998,87.0260048 138.042005,87.7969971 137.118,88.379 C136.193995,88.9610029 135.090006,89.252 133.806,89.252 Z M134.076,88.532 C135.420007,88.532 136.445996,88.1150042 137.154,87.281 C137.862004,86.4469958 138.216,85.304 138.216,83.852 C138.216,82.7119943 138.042002,81.6860046 137.694,80.774 C137.345998,79.8619954 136.833003,79.1390027 136.155,78.605 C135.476997,78.0709973 134.652005,77.804 133.68,77.804 C132.347993,77.804 131.328004,78.2149959 130.62,79.037 C129.911996,79.8590041 129.558,80.9899928 129.558,82.43 C129.558,83.5700057 129.728998,84.6019954 130.071,85.526 C130.413002,86.4500046 130.922997,87.1819973 131.601,87.722 C132.279003,88.2620027 133.103995,88.532 134.076,88.532 Z M144.246,89.09 C143.897998,89.09 143.724,89.0240007 143.724,88.892 C143.724,88.8079996 143.772,88.7420002 143.868,88.694 C143.964,88.6459998 144.113999,88.6040002 144.318,88.568 C144.786002,88.4839996 145.136999,88.3340011 145.371,88.118 C145.605001,87.9019989 145.722,87.5840021 145.722,87.164 L145.722,80.18 C145.722,79.375996 145.695,78.8330014 145.641,78.551 C145.587,78.2689986 145.488001,78.1160001 145.344,78.092 C145.187999,78.0559998 145.005001,78.035 144.795,78.029 C144.584999,78.023 144.342001,78.02 144.066,78.02 L143.22,78.02 C142.907998,78.02 142.614001,78.0799994 142.338,78.2 C142.061999,78.3200006 141.864001,78.4939989 141.744,78.722 C141.672,78.8660007 141.561001,79.0159992 141.411,79.172 C141.260999,79.3280008 141.126001,79.406 141.006,79.406 C140.922,79.406 140.88,79.3280008 140.88,79.172 C140.88,79.0519994 140.91,78.9320006 140.97,78.812 C141.138001,78.4879984 141.258,78.1910013 141.33,77.921 C141.402,77.6509986 141.468,77.318002 141.528,76.922 C141.564,76.6459986 141.665999,76.508 141.834,76.508 C141.87,76.508 141.938999,76.5739993 142.041,76.706 C142.143001,76.8380007 142.224,76.9639994 142.284,77.084 C142.356,77.2040006 142.514999,77.2939997 142.761,77.354 C143.007001,77.4140003 143.267999,77.444 143.544,77.444 L149.88,77.444 C150.624004,77.444 151.193998,77.3540009 151.59,77.174 C151.662,77.1379998 151.766999,77.0690005 151.905,76.967 C152.043001,76.8649995 152.171999,76.814 152.292,76.814 C152.328,76.814 152.358,76.8589995 152.382,76.949 C152.406,77.0390005 152.418,77.1319995 152.418,77.228 C152.418,77.2760002 152.394,77.4439986 152.346,77.732 L152.238,78.272 C152.19,78.4160007 152.166,78.589999 152.166,78.794 L152.166,79.01 C152.166,79.1300006 152.139,79.2559993 152.085,79.388 C152.031,79.5200007 151.962,79.586 151.878,79.586 C151.794,79.586 151.728,79.5290006 151.68,79.415 C151.632,79.3009994 151.584,79.1120013 151.536,78.848 C151.488,78.5839987 151.338001,78.3800007 151.086,78.236 C150.833999,78.0919993 150.432003,78.02 149.88,78.02 L148.062,78.02 C147.761999,78.02 147.555001,78.0559996 147.441,78.128 C147.326999,78.2000004 147.252,78.3709986 147.216,78.641 C147.18,78.9110013 147.162,79.3939965 147.162,80.09 L147.162,87.164 C147.162,87.5840021 147.281999,87.9019989 147.522,88.118 C147.762001,88.3340011 148.115998,88.4839996 148.584,88.568 C148.788001,88.6040002 148.938,88.6459998 149.034,88.694 C149.13,88.7420002 149.178,88.8079996 149.178,88.892 C149.178,89.0240007 149.004002,89.09 148.656,89.09 C148.211998,89.09 147.828002,89.0720002 147.504,89.036 C147.119998,89.0119999 146.802001,89 146.55,89 C146.249999,89 145.884002,89.0119999 145.452,89.036 C145.091998,89.0720002 144.690002,89.09 144.246,89.09 Z M153.642,89.09 C153.293998,89.09 153.12,89.0240007 153.12,88.892 C153.12,88.8079996 153.168,88.7420002 153.264,88.694 C153.36,88.6459998 153.509999,88.6040002 153.714,88.568 C154.182002,88.4839996 154.520999,88.343001 154.731,88.145 C154.941001,87.946999 155.046,87.6380021 155.046,87.218 L155.046,79.118 C155.046,78.6979979 154.959001,78.3950009 154.785,78.209 C154.610999,78.0229991 154.296002,77.8880004 153.84,77.804 C153.443998,77.7319996 153.246,77.6120008 153.246,77.444 C153.246,77.3119993 153.419998,77.246 153.768,77.246 C154.224002,77.246 154.775997,77.2579999 155.424,77.282 L156.954,77.3 L159.42,77.282 L160.95,77.246 C161.154001,77.246 161.262,77.2999995 161.274,77.408 C161.298,77.5040005 161.349,77.7679978 161.427,78.2 C161.505,78.6320022 161.544,78.9859986 161.544,79.262 C161.544,79.4420009 161.460001,79.532 161.292,79.532 C161.232,79.532 161.19,79.5200001 161.166,79.496 C161.142,79.4719999 161.118,79.4240004 161.094,79.352 C161.07,79.2919997 161.022,79.1360013 160.95,78.884 C160.878,78.6319987 160.794,78.4580005 160.698,78.362 C160.409999,78.0379984 160.008003,77.876 159.492,77.876 L157.134,77.876 C157.013999,77.876 156.876001,77.9329994 156.72,78.047 C156.563999,78.1610006 156.486,78.2959992 156.486,78.452 L156.486,82.268 C156.486,82.3760005 156.519,82.4689996 156.585,82.547 C156.651,82.6250004 156.726,82.664 156.81,82.664 L158.592,82.664 C158.928002,82.664 159.161999,82.6040006 159.294,82.484 C159.426001,82.3639994 159.54,82.1300017 159.636,81.782 C159.708,81.5179987 159.815999,81.386 159.96,81.386 C160.008,81.386 160.059,81.4129997 160.113,81.467 C160.167,81.5210003 160.194,81.5899996 160.194,81.674 L160.176,82.142 L160.14,82.934 L160.158,83.888 L160.176,84.32 C160.176,84.524001 160.122001,84.626 160.014,84.626 C159.833999,84.626 159.696,84.4340019 159.6,84.05 C159.528,83.7619986 159.429001,83.5550006 159.303,83.429 C159.176999,83.3029994 159.000001,83.24 158.772,83.24 L157.098,83.24 C156.869999,83.24 156.711,83.2699997 156.621,83.33 C156.531,83.3900003 156.486,83.515999 156.486,83.708 L156.486,87.164 C156.486,87.6080022 156.578999,87.9199991 156.765,88.1 C156.951001,88.2800009 157.253998,88.37 157.674,88.37 L159.006,88.37 C159.402002,88.37 159.728999,88.3460002 159.987,88.298 C160.245001,88.2499998 160.463999,88.1720005 160.644,88.064 C160.824001,87.9439994 160.988999,87.7790011 161.139,87.569 C161.289001,87.358999 161.465999,87.0620019 161.67,86.678 C161.754,86.5219992 161.838,86.444 161.922,86.444 C162.078001,86.444 162.156,86.5279992 162.156,86.696 C162.156,86.8520008 162.090001,87.1789975 161.958,87.677 C161.825999,88.1750025 161.706001,88.5439988 161.598,88.784 C161.586,88.8080001 161.568,88.8499997 161.544,88.91 C161.52,88.9700003 161.493,89.0149999 161.463,89.045 C161.433,89.0750001 161.394,89.09 161.346,89.09 C161.105999,89.09 160.050009,89.0720002 158.178,89.036 C157.349996,88.9999998 156.528004,88.982 155.712,88.982 C155.375998,88.982 155.064001,88.9999998 154.776,89.036 C154.163997,89.0720002 153.786001,89.09 153.642,89.09 Z M163.596,89.09 C163.439999,89.09 163.317,89.0690002 163.227,89.027 C163.137,88.9849998 163.092,88.9340003 163.092,88.874 C163.092,88.7299993 163.223999,88.6280003 163.488,88.568 C163.980002,88.4719995 164.345999,88.328001 164.586,88.136 C164.826001,87.943999 164.946,87.6560019 164.946,87.272 L164.946,78.92 C164.946,78.6319986 164.916,78.4190007 164.856,78.281 C164.796,78.1429993 164.697001,78.0440003 164.559,77.984 C164.420999,77.9239997 164.184002,77.8640003 163.848,77.804 C163.451998,77.7319996 163.254,77.6120008 163.254,77.444 C163.254,77.3119993 163.427998,77.246 163.776,77.246 C164.136002,77.246 164.507998,77.2579999 164.892,77.282 L165.792,77.3 L166.872,77.282 C167.328002,77.2579999 167.723998,77.246 168.06,77.246 C168.408002,77.246 168.582,77.3119993 168.582,77.444 C168.582,77.6120008 168.384002,77.7319996 167.988,77.804 C167.423997,77.9120005 167.016001,78.0259994 166.764,78.146 C166.511999,78.2660006 166.386,78.4819984 166.386,78.794 L166.386,87.272 C166.386,87.668002 166.475999,87.9499992 166.656,88.118 C166.836001,88.2860008 167.207997,88.37 167.772,88.37 L170.004,88.37 C170.304001,88.37 170.579999,88.3220005 170.832,88.226 C171.084001,88.1299995 171.275999,88.0220006 171.408,87.902 C171.648001,87.697999 171.824999,87.5150008 171.939,87.353 C172.053001,87.1909992 172.187999,86.9480016 172.344,86.624 C172.392,86.5039994 172.452,86.3840006 172.524,86.264 C172.596,86.1439994 172.668,86.084 172.74,86.084 C172.812,86.084 172.866,86.1169997 172.902,86.183 C172.938,86.2490003 172.956,86.3239996 172.956,86.408 L172.938,86.498 C172.781999,87.0740029 172.671,87.5149985 172.605,87.821 C172.539,88.1270015 172.488,88.4479983 172.452,88.784 C172.428,88.988001 172.344001,89.09 172.2,89.09 C170.915994,89.09 169.734005,89.0720002 168.654,89.036 C167.429994,89.0119999 166.554003,89 166.026,89 C165.653998,89 165.198003,89.0119999 164.658,89.036 C164.117997,89.0600001 163.764001,89.0779999 163.596,89.09 Z M49.017,112.09 C48.6689983,112.09 48.495,112.024001 48.495,111.892 C48.495,111.808 48.5429995,111.742 48.639,111.694 C48.7350005,111.646 48.884999,111.604 49.089,111.568 C49.7130031,111.459999 50.0849994,110.992004 50.205,110.164 C50.6970025,106.467982 50.943,103.912007 50.943,102.496 C50.943,102.219999 50.9370001,102.022001 50.925,101.902 C50.9129999,101.769999 50.8920001,101.659 50.862,101.569 C50.8319998,101.479 50.7630005,101.392 50.655,101.308 C50.462999,101.139999 50.2740009,101.026 50.088,100.966 C49.9019991,100.906 49.6410017,100.84 49.305,100.768 C49.1849994,100.744 49.0890004,100.699 49.017,100.633 C48.9449996,100.567 48.909,100.492 48.909,100.408 C48.909,100.324 48.9599995,100.27 49.062,100.246 C49.1640005,100.222 49.316999,100.21 49.521,100.21 C49.6770008,100.21 50.1269963,100.234 50.871,100.282 C51.6150037,100.33 52.0649992,100.354 52.221,100.354 C52.3890008,100.354 52.5029997,100.449999 52.563,100.642 L52.689,101.11 C52.7970005,101.542002 52.8869996,101.847999 52.959,102.028 L55.803,109.246 C55.8390002,109.354001 55.9169994,109.408 56.037,109.408 C56.1210004,109.408 56.1809998,109.372 56.217,109.3 L59.763,101.92 C59.9070007,101.379997 60.0149996,100.930002 60.087,100.57 C60.1230002,100.413999 60.1829996,100.336 60.267,100.336 L60.915,100.336 C61.0950009,100.336 61.5269966,100.306 62.211,100.246 C62.5230016,100.21 62.774999,100.192 62.967,100.192 C63.2190013,100.192 63.345,100.251999 63.345,100.372 C63.345,100.456 63.3120003,100.522 63.246,100.57 C63.1799997,100.618 63.0570009,100.678 62.877,100.75 C62.7689995,100.786 62.6250009,100.84 62.445,100.912 L61.815,101.164 C61.6829993,101.224 61.5780004,101.307999 61.5,101.416 C61.4219996,101.524001 61.383,101.643999 61.383,101.776 C61.383,102.832005 61.4039998,103.821995 61.446,104.746 C61.4880002,105.670005 61.5509996,106.749994 61.635,107.986 C61.7070004,108.970005 61.7549999,109.737997 61.779,110.29 C61.7910001,110.662002 61.9049989,110.946999 62.121,111.145 C62.3370011,111.343001 62.6729977,111.484 63.129,111.568 C63.333001,111.604 63.4829995,111.646 63.579,111.694 C63.6750005,111.742 63.723,111.808 63.723,111.892 C63.723,112.024001 63.5490017,112.09 63.201,112.09 C62.7569978,112.09 62.3730016,112.072 62.049,112.036 C61.6649981,112.012 61.3470013,112 61.095,112 C60.890999,112 60.6210017,112.012 60.285,112.036 C60.0209987,112.072 59.6610023,112.09 59.205,112.09 C58.8569983,112.09 58.683,112.024001 58.683,111.892 C58.683,111.723999 58.880998,111.616 59.277,111.568 C59.6250017,111.52 59.8649993,111.400001 59.997,111.208 C60.1290007,111.015999 60.195,110.704002 60.195,110.272 C60.195,109.047994 60.1740002,107.917005 60.132,106.879 C60.0899998,105.840995 60.0630001,105.226001 60.051,105.034 C60.0269999,104.733998 60.0030001,104.272003 59.979,103.648 C59.9669999,103.527999 59.9310003,103.468 59.871,103.468 C59.8229998,103.468 59.7630004,103.527999 59.691,103.648 L55.551,112.09 C55.5389999,112.162 55.4850005,112.198 55.389,112.198 C55.3169996,112.198 55.2630002,112.156 55.227,112.072 C54.3989959,109.611988 53.2950069,106.762016 51.915,103.522 C51.8909999,103.462 51.8490003,103.432 51.789,103.432 C51.7289997,103.432 51.6930001,103.462 51.681,103.522 C51.4649989,105.118008 51.3150004,106.347996 51.231,107.212 C51.1469996,108.076004 51.105,109.059994 51.105,110.164 C51.105,110.500002 51.2099989,110.799999 51.42,111.064 C51.630001,111.328001 51.9149982,111.496 52.275,111.568 C52.479001,111.604 52.6289995,111.646 52.725,111.694 C52.8210005,111.742 52.869,111.808 52.869,111.892 C52.869,112.024001 52.6950017,112.09 52.347,112.09 C51.9029978,112.09 51.5610012,112.072 51.321,112.036 C51.0809988,112.012 50.859001,112 50.655,112 C50.4749991,112 50.2650012,112.012 50.025,112.036 C49.5569977,112.072 49.221001,112.09 49.017,112.09 Z M71.157,112.252 C70.1009947,112.252 69.1140046,112.003002 68.196,111.505 C67.2779954,111.006998 66.5460027,110.308005 66,109.408 C65.4539973,108.507995 65.181,107.482006 65.181,106.33 C65.181,105.225994 65.4209976,104.194005 65.901,103.234 C66.3810024,102.273995 67.0829954,101.503003 68.007,100.921 C68.9310046,100.338997 70.0349936,100.048 71.319,100.048 C72.3750053,100.048 73.3619954,100.296998 74.28,100.795 C75.1980046,101.293002 75.9299973,101.991996 76.476,102.892 C77.0220027,103.792004 77.295,104.817994 77.295,105.97 C77.295,107.074006 77.0550024,108.105995 76.575,109.066 C76.0949976,110.026005 75.3930046,110.796997 74.469,111.379 C73.5449954,111.961003 72.4410064,112.252 71.157,112.252 Z M71.427,111.532 C72.7710067,111.532 73.7969965,111.115004 74.505,110.281 C75.2130035,109.446996 75.567,108.304 75.567,106.852 C75.567,105.711994 75.3930017,104.686005 75.045,103.774 C74.6969983,102.861995 74.1840034,102.139003 73.506,101.605 C72.8279966,101.070997 72.0030049,100.804 71.031,100.804 C69.6989933,100.804 68.6790035,101.214996 67.971,102.037 C67.2629965,102.859004 66.909,103.989993 66.909,105.43 C66.909,106.570006 67.0799983,107.601995 67.422,108.526 C67.7640017,109.450005 68.2739966,110.181997 68.952,110.722 C69.6300034,111.262003 70.4549951,111.532 71.427,111.532 Z M81.777,112.288 C80.768995,112.288 79.9230034,112.000003 79.239,111.424 C79.1069993,111.291999 79.0290001,111.172001 79.005,111.064 C78.9569998,110.847999 78.9030003,110.350004 78.843,109.57 L78.825,109.174 C78.825,109.09 78.8579997,109.027 78.924,108.985 C78.9900003,108.943 79.0769995,108.922 79.185,108.922 C79.3410008,108.922 79.4369998,108.987999 79.473,109.12 C79.6890011,109.996004 80.0279977,110.643998 80.49,111.064 C80.9520023,111.484002 81.4649972,111.694 82.029,111.694 C82.6530031,111.694 83.168998,111.493002 83.577,111.091 C83.985002,110.688998 84.189,110.158003 84.189,109.498 C84.189,109.029998 84.1140007,108.643002 83.964,108.337 C83.8139992,108.030998 83.6070013,107.773001 83.343,107.563 C83.0789987,107.352999 82.6830026,107.086002 82.155,106.762 L81.795,106.546 C81.2069971,106.185998 80.7450017,105.874001 80.409,105.61 C80.0729983,105.345999 79.7850012,105.022002 79.545,104.638 C79.3049988,104.253998 79.185,103.816002 79.185,103.324 C79.185,102.363995 79.5089968,101.578003 80.157,100.966 C80.8050032,100.353997 81.7349939,100.048 82.947,100.048 C83.5590031,100.048 84.1889968,100.179999 84.837,100.444 C84.9210004,100.48 84.9989996,100.54 85.071,100.624 C85.1430004,100.708 85.1909999,100.798 85.215,100.894 C85.3350006,101.314002 85.4249997,101.652999 85.485,101.911 C85.5450003,102.169001 85.575,102.423999 85.575,102.676 C85.575,102.808001 85.4850009,102.874 85.305,102.874 C85.1969995,102.874 85.0920005,102.85 84.99,102.802 C84.8879995,102.754 84.825,102.694 84.801,102.622 C84.5369987,101.961997 84.2340017,101.470002 83.892,101.146 C83.5499983,100.821998 83.1330025,100.66 82.641,100.66 C82.040997,100.66 81.5460019,100.824998 81.156,101.155 C80.765998,101.485002 80.571,102.003996 80.571,102.712 C80.571,103.048 80.6789989,103.359999 80.895,103.648 C81.1110011,103.936001 81.3839983,104.199999 81.714,104.44 C82.0440016,104.680001 82.5029971,104.979998 83.091,105.34 C83.6550028,105.688002 84.1109983,105.999999 84.459,106.276 C84.8070017,106.552001 85.1009988,106.893998 85.341,107.302 C85.5810012,107.710002 85.701,108.195997 85.701,108.76 C85.701,109.828005 85.3410036,110.682997 84.621,111.325 C83.9009964,111.967003 82.9530059,112.288 81.777,112.288 Z M93.801,112.27 C92.6729944,112.27 91.611005,112.015003 90.615,111.505 C89.618995,110.994997 88.818003,110.278005 88.212,109.354 C87.605997,108.429995 87.303,107.374006 87.303,106.186 C87.303,105.045994 87.6209968,104.011005 88.257,103.081 C88.8930032,102.150995 89.7449947,101.416003 90.813,100.876 C91.8810053,100.335997 93.0269939,100.066 94.251,100.066 C94.8750031,100.066 95.381998,100.099 95.772,100.165 C96.162002,100.231 96.7229963,100.353999 97.455,100.534 C97.6230008,100.582 97.7459996,100.654 97.824,100.75 C97.9020004,100.846 97.9529999,100.977999 97.977,101.146 C98.0730005,102.082005 98.1269999,102.771998 98.139,103.216 C98.1510001,103.288 98.1240003,103.351 98.058,103.405 C97.9919997,103.459 97.9170004,103.486 97.833,103.486 C97.6769992,103.486 97.5750002,103.402001 97.527,103.234 C97.3949993,102.717997 97.2480008,102.307002 97.086,102.001 C96.9239992,101.694998 96.6990014,101.440001 96.411,101.236 C96.1109985,101.043999 95.7480021,100.894001 95.322,100.786 C94.8959979,100.677999 94.4370025,100.624 93.945,100.624 C93.0329954,100.624 92.2110037,100.863998 91.479,101.344 C90.7469963,101.824002 90.1710021,102.456996 89.751,103.243 C89.3309979,104.029004 89.121,104.865996 89.121,105.754 C89.121,106.750005 89.3309979,107.706995 89.751,108.625 C90.1710021,109.543005 90.7559963,110.286997 91.506,110.857 C92.2560038,111.427003 93.1109952,111.712 94.071,111.712 C94.8990041,111.712 95.5979971,111.523002 96.168,111.145 C96.7380028,110.766998 97.2329979,110.206004 97.653,109.462 C97.6890002,109.39 97.7429996,109.333 97.815,109.291 C97.8870004,109.249 97.9529997,109.228 98.013,109.228 C98.0850004,109.228 98.1449998,109.252 98.193,109.3 C98.2410002,109.348 98.265,109.42 98.265,109.516 C98.265,109.660001 98.2110005,109.920998 98.103,110.299 C97.9949995,110.677002 97.8870005,110.997999 97.779,111.262 C97.6829995,111.430001 97.6110002,111.538 97.563,111.586 C97.5149998,111.634 97.395001,111.688 97.203,111.748 C96.7829979,111.916001 96.2670031,112.045 95.655,112.135 C95.0429969,112.225 94.4250031,112.27 93.801,112.27 Z M106.041,112.252 C104.984995,112.252 103.998005,112.003002 103.08,111.505 C102.161995,111.006998 101.430003,110.308005 100.884,109.408 C100.337997,108.507995 100.065,107.482006 100.065,106.33 C100.065,105.225994 100.304998,104.194005 100.785,103.234 C101.265002,102.273995 101.966995,101.503003 102.891,100.921 C103.815005,100.338997 104.918994,100.048 106.203,100.048 C107.259005,100.048 108.245995,100.296998 109.164,100.795 C110.082005,101.293002 110.813997,101.991996 111.36,102.892 C111.906003,103.792004 112.179,104.817994 112.179,105.97 C112.179,107.074006 111.939002,108.105995 111.459,109.066 C110.978998,110.026005 110.277005,110.796997 109.353,111.379 C108.428995,111.961003 107.325006,112.252 106.041,112.252 Z M106.311,111.532 C107.655007,111.532 108.680996,111.115004 109.389,110.281 C110.097004,109.446996 110.451,108.304 110.451,106.852 C110.451,105.711994 110.277002,104.686005 109.929,103.774 C109.580998,102.861995 109.068003,102.139003 108.39,101.605 C107.711997,101.070997 106.887005,100.804 105.915,100.804 C104.582993,100.804 103.563004,101.214996 102.855,102.037 C102.146996,102.859004 101.793,103.989993 101.793,105.43 C101.793,106.570006 101.963998,107.601995 102.306,108.526 C102.648002,109.450005 103.157997,110.181997 103.836,110.722 C104.514003,111.262003 105.338995,111.532 106.311,111.532 Z M118.389,112.288 C118.353,112.288 118.269001,112.120002 118.137,111.784 L114.249,102.028 C113.960999,101.403997 113.529003,101.008001 112.953,100.84 C112.748999,100.768 112.599,100.702 112.503,100.642 C112.407,100.582 112.359,100.516 112.359,100.444 C112.359,100.311999 112.532998,100.246 112.881,100.246 L113.637,100.264 C113.997002,100.288 114.278999,100.3 114.483,100.3 L115.563,100.282 C115.719001,100.27 115.916999,100.264 116.157,100.264 C116.505002,100.264 116.679,100.329999 116.679,100.462 C116.679,100.546 116.634,100.612 116.544,100.66 C116.454,100.708 116.301001,100.762 116.085,100.822 C115.844999,100.882 115.725,101.079998 115.725,101.416 C115.725,101.572001 115.746,101.727999 115.788,101.884 C115.83,102.040001 115.857,102.142 115.869,102.19 C116.409003,103.582007 116.882998,104.766995 117.291,105.745 C117.699002,106.723005 118.208997,107.895993 118.821,109.264 C118.869,109.384001 118.917,109.444 118.965,109.444 C119.013,109.444 119.055,109.390001 119.091,109.282 L120.495,105.808 C120.567,105.627999 120.603,105.49 120.603,105.394 C120.603,105.298 120.555,105.124001 120.459,104.872 L119.433,102.316 C119.288999,101.955998 119.055002,101.644001 118.731,101.38 C118.406998,101.115999 118.071002,100.936 117.723,100.84 C117.518999,100.78 117.369,100.717 117.273,100.651 C117.177,100.585 117.129,100.516 117.129,100.444 C117.129,100.311999 117.302998,100.246 117.651,100.246 L118.425,100.264 C118.809002,100.288 119.114999,100.3 119.343,100.3 L120.171,100.282 C120.315001,100.27 120.500999,100.264 120.729,100.264 C121.077002,100.264 121.251,100.329999 121.251,100.462 C121.251,100.522 121.224,100.576 121.17,100.624 C121.116,100.672 121.035001,100.726 120.927,100.786 C120.650999,100.906001 120.513,101.049999 120.513,101.218 C120.513,101.242 120.525,101.29 120.549,101.362 C120.633,101.602001 120.755999,101.928998 120.918,102.343 C121.080001,102.757002 121.226999,103.107999 121.359,103.396 C121.371,103.42 121.392,103.465 121.422,103.531 C121.452,103.597 121.485,103.63 121.521,103.63 C121.557,103.63 121.611,103.552001 121.683,103.396 C121.923001,102.855997 122.162999,102.178004 122.403,101.362 C122.415,101.326 122.421,101.284 122.421,101.236 C122.421,101.127999 122.388,101.041 122.322,100.975 C122.256,100.909 122.163001,100.84 122.043,100.768 C122.031,100.756 121.995,100.732 121.935,100.696 C121.875,100.66 121.83,100.624 121.8,100.588 C121.77,100.552 121.755,100.51 121.755,100.462 C121.755,100.329999 121.928998,100.264 122.277,100.264 L122.853,100.282 C122.925,100.294 123.044999,100.3 123.213,100.3 L123.735,100.282 C123.951001,100.258 124.130999,100.246 124.275,100.246 C124.623002,100.246 124.797,100.311999 124.797,100.444 C124.797,100.600001 124.599002,100.72 124.203,100.804 C123.842998,100.888 123.591001,100.983999 123.447,101.092 C123.302999,101.200001 123.147001,101.391999 122.979,101.668 C122.883,101.836001 122.736001,102.147998 122.538,102.604 C122.339999,103.060002 122.169001,103.485998 122.025,103.882 C121.977,103.990001 121.941,104.115999 121.917,104.26 C121.893,104.404001 121.893,104.506 121.917,104.566 L123.771,109.336 C123.795,109.384 123.813,109.408 123.825,109.408 C123.861,109.408 123.909,109.348001 123.969,109.228 C124.425002,108.015994 125.156995,105.694017 126.165,102.262 C126.237,102.045999 126.273,101.830001 126.273,101.614 C126.273,101.193998 126.093002,100.936 125.733,100.84 C125.336998,100.731999 125.139,100.612001 125.139,100.48 C125.139,100.347999 125.312998,100.282 125.661,100.282 L126.957,100.3 C127.185001,100.3 127.490998,100.288 127.875,100.264 L128.577,100.246 C128.925002,100.246 129.099,100.311999 129.099,100.444 C129.099,100.600001 128.901002,100.72 128.505,100.804 C127.868997,100.948001 127.377002,101.475995 127.029,102.388 L123.843,111.802 C123.819,111.874 123.78,111.960999 123.726,112.063 C123.672,112.165001 123.615,112.216 123.555,112.216 C123.507,112.216 123.453,112.18 123.393,112.108 C123.333,112.036 123.285,111.958 123.249,111.874 C122.804998,110.877995 122.337002,109.720007 121.845,108.4 L121.035,106.312 C120.999,106.24 120.975,106.204 120.963,106.204 C120.939,106.204 120.897,106.275999 120.837,106.42 C120.428998,107.392005 120.084001,108.237996 119.802,108.958 C119.519999,109.678004 119.181002,110.601994 118.785,111.73 C118.737,111.874001 118.677,112.002999 118.605,112.117 C118.533,112.231001 118.461,112.288 118.389,112.288 Z" id="RUSSO-BALTHOTELMOSCOW" fill="#FFFFFF" fill-rule="nonzero"></path>
        <polygon id="Star" fill="#FFFFFF" points="89.5 137.75 85.6793959 139.75861 86.4090663 135.504305 83.3181326 132.49139 87.5896979 131.870695 89.5 128 91.4103021 131.870695 95.6818674 132.49139 92.5909337 135.504305 93.3206041 139.75861"></polygon>
        <polygon id="Star-Copy" fill="#FFFFFF" points="104.5 137.75 100.679396 139.75861 101.409066 135.504305 98.3181326 132.49139 102.589698 131.870695 104.5 128 106.410302 131.870695 110.681867 132.49139 107.590934 135.504305 108.320604 139.75861"></polygon>
        <polygon id="Star-Copy-3" fill="#FFFFFF" points="119.5 137.75 115.679396 139.75861 116.409066 135.504305 113.318133 132.49139 117.589698 131.870695 119.5 128 121.410302 131.870695 125.681867 132.49139 122.590934 135.504305 123.320604 139.75861"></polygon>
        <polygon id="Star-Copy-2" fill="#FFFFFF" points="74.5 137.75 70.6793959 139.75861 71.4090663 135.504305 68.3181326 132.49139 72.5896979 131.870695 74.5 128 76.4103021 131.870695 80.6818674 132.49139 77.5909337 135.504305 78.3206041 139.75861"></polygon>
        <polygon id="Star-Copy-4" fill="#FFFFFF" points="59.5 137.75 55.6793959 139.75861 56.4090663 135.504305 53.3181326 132.49139 57.5896979 131.870695 59.5 128 61.4103021 131.870695 65.6818674 132.49139 62.5909337 135.504305 63.3206041 139.75861"></polygon>
        <g id="Group-2" transform="translate(67.000000, 0.000000)">
            <g id="Group-13">
                <mask id="mask-2" fill="white">
                    <use xlink:href="#path-1"></use>
                </mask>
                <g id="Clip-12"></g>
                <path d="M39.6653612,31.5880334 C39.6653612,13.0506639 31.2140042,1.0634405 21.2125428,1.0634405 C13.0203507,1.0634405 3.53458873,8.82561169 3.53458873,28.3129603 C3.53458873,46.6784718 11.5547975,58.8376785 22.0735866,58.8376785 C32.1624802,58.8376785 39.6653612,47.972167 39.6653612,31.5880334 M-2.50521921e-05,29.6271983 C-2.50521921e-05,12.7578038 9.546238,0.0262797495 21.6346722,0.0262797495 C36.2620209,0.0262797495 43.1985971,16.6517912 43.1985971,30.19438 C43.1985971,47.2253612 33.5839415,59.874714 21.5651524,59.874714 C9.61575783,59.874714 -2.50521921e-05,47.0610188 -2.50521921e-05,29.6271983" id="Fill-11" fill="#FFFFFF" mask="url(#mask-2)"></path>
            </g>
            <path d="M36.8858956,32.4748935 C36.4692777,31.4888392 35.861261,30.5736827 35.1091942,29.8065846 C35.0590898,29.7403215 34.9628894,29.6383591 34.8009269,29.4910522 C34.4906555,30.0794029 34.1198831,30.5937244 33.6567933,31.0728476 C33.5867724,31.1452484 33.5157495,31.2163967 33.4437244,31.2869186 C33.3386305,31.3895073 33.292785,31.3898831 33.321595,31.511762 C33.3526597,31.643286 33.6056868,31.880405 33.6862296,31.997023 C33.9110731,32.322952 34.1093612,32.6669186 34.2744551,33.0269186 C34.7971691,34.1664175 34.9474823,35.4379415 34.7508225,36.6728894 C34.5795908,37.748881 34.1756242,38.8243716 33.558714,39.7270021 C32.1802171,41.7440793 29.8456033,43.1248309 27.584142,43.9052067 C24.7102797,44.8967724 21.6722004,44.9566472 18.672952,44.6755616 C18.6859791,45.0016159 18.8170021,45.5092985 18.3877328,45.5895908 C18.2915324,45.6077537 18.1736618,45.5895908 18.076334,45.5895908 L16.2075658,45.5895908 L11.6722422,45.5895908 C11.276167,45.5895908 10.9265637,45.6341837 10.9141628,45.1247474 C10.8967516,44.4071273 10.9141628,43.6870021 10.9141628,42.9690063 C10.9141628,42.6219081 11.0171273,42.5358539 11.3528267,42.4246221 C11.4143299,42.4042046 11.5171691,42.3733904 11.5627641,42.3355616 C11.7098205,42.2130564 11.6651023,42.3527223 11.6248935,42.1353946 C11.601595,42.0103841 11.5362088,41.9022839 11.5223048,41.7706347 C11.5126597,41.6798205 11.5284426,41.599904 11.5298205,41.5119708 C11.5335783,41.2524301 11.516167,40.9907599 11.5092777,40.7314697 C11.430238,37.7206973 11.3511983,34.7099248 11.2722839,31.6992777 C11.2587557,31.1872109 11.2453528,30.6751441 11.2319499,30.1632025 C11.2235574,29.8419081 11.1713236,29.8186096 11.449904,29.6434948 C13.8398831,28.1409896 16.4747474,26.8903841 19.2024301,26.146334 C21.8667307,25.4194447 24.7760418,25.3449144 27.4397161,26.1383173 C28.7010939,26.5141002 29.9945386,27.1444134 30.8211357,28.2052484 C30.9147056,28.3253737 31.001762,28.4507599 31.0781712,28.5825344 C31.4104885,28.1118038 31.6904468,27.6017411 31.8858539,27.0588601 C31.9719081,26.8196117 32.0416785,26.574476 32.0926597,26.3252067 C32.1060626,26.260071 32.1818455,26.0270856 32.152785,25.9670856 C32.1135783,25.8859165 31.8476493,25.7832025 31.7679833,25.7377328 C30.9242255,25.257357 30.021595,24.8850814 29.0924092,24.6058747 C26.9416785,23.9594029 24.6651858,23.8008225 22.4306555,23.9014071 C20.0853946,24.0067516 17.8468559,24.6120125 15.762263,25.6918873 C14.7645595,26.2085887 13.8162088,26.8148518 12.9118246,27.480739 C12.5257704,27.7649562 11.7173361,28.6070856 11.2979624,27.9274196 C11.0139958,27.4672109 11.0986722,26.8112192 11.1001754,26.2870021 C11.1035574,25.1014071 11.1055616,23.9158121 11.1058121,22.7300919 C11.1061879,21.3009896 11.1054363,19.871762 11.0942881,18.4426597 C11.0863967,17.4279207 10.7892777,16.0742255 11.7869812,15.4367724 C12.4268142,15.0277954 13.1768768,15.0022422 13.9071482,14.9442463 C15.6980042,14.8020752 17.4971273,14.7358121 19.2934948,14.7378163 C21.6971273,14.7406973 24.0972526,14.9307182 26.4998831,14.9981086 C27.4273152,15.0240376 28.3552484,15.0443299 29.2823048,15.0874196 C30.0673152,15.1239958 30.9099457,15.1238706 31.6789228,15.300238 C32.1217203,15.4016994 32.9458121,15.8784426 32.7243507,16.4754363 C32.5598831,16.9188601 31.547023,16.8618664 31.6229311,17.4505929 C31.6953319,18.0111357 32.4222213,18.3651232 32.8909478,18.48362 C33.6427641,18.6733904 34.5764593,18.640572 35.1282338,18.0255407 C35.827691,17.246167 35.6088601,16.0157286 35.0873987,15.2065428 C34.5306138,14.3427432 33.57362,13.8525971 32.6052276,13.5955616 C30.8117411,13.1194447 28.9690271,13.3608225 27.1463549,13.4597787 C23.1418873,13.6774823 19.116,13.5326806 15.1164175,13.2801545 C13.7439332,13.1933486 12.3723257,13.0901336 11.0024718,12.9682547 C10.3504885,12.9103841 9.66117745,12.7851232 9.00481002,12.8126806 C8.54309812,12.8322213 8.24973695,12.9985678 8.2428476,13.4899666 C8.23232568,14.2406555 8.54297286,14.9972317 8.69491441,15.7224927 C8.97412109,17.0542672 8.93002923,18.4723466 8.90422547,19.8250397 C8.87641754,21.2825762 8.796,22.7393612 8.68890188,24.1931399 C8.65420459,24.6627432 8.59357829,25.1338497 8.58718998,25.6045804 C8.55687683,27.8507599 8.56764927,30.0983173 8.55875574,32.3446221 C8.54810856,35.0734322 8.53908977,37.8022422 8.53445511,40.5310522 C8.53270146,41.5074614 8.4748309,42.4887557 8.2736618,43.4463758 C8.16481002,43.9650814 7.69708559,44.8390271 8.0942881,45.2966054 C8.43286848,45.6867933 9.09324426,45.9222839 9.56898539,46.08362 C10.1922839,46.2949353 10.8432651,46.4208225 11.4937453,46.5140167 C13.2835992,46.7704259 15.1058956,46.7981086 16.9106555,46.8282965 C19.3221795,46.86838 21.753119,46.9703424 24.1636409,46.8925553 C27.0205929,46.800238 30.1580042,46.3141002 32.5706555,44.6617829 C32.8800501,44.4499666 33.1348309,44.1954363 33.419048,43.9586931 C33.9606764,43.5072526 34.5127015,43.1135574 34.9993403,42.5903424 C37.5034322,39.8983591 38.3322839,35.8977745 36.8858956,32.4748935" id="Fill-14" fill="#FFFFFF"></path>
            <path d="M29.8409436,17.8255992 C27.3319666,16.8365386 24.547666,16.4137829 21.8585637,16.3903591 C20.8969353,16.3820919 19.9374363,16.3557871 18.9755574,16.3934906 C17.5700042,16.4486054 16.1970188,16.6591691 14.8034906,16.8280209 C13.9155157,16.93562 13.0811524,16.9768309 12.2079582,16.8147432 C11.9699624,16.7704008 11.5681253,16.7737829 11.642405,17.1097328 C11.6857453,17.3055157 11.8798998,17.4622171 11.9877495,17.6251816 C12.0915908,17.7825094 12.171382,17.9548685 12.241904,18.1292317 C12.7330522,19.3453904 12.8615699,20.7315282 12.9949729,22.0243466 C13.1590647,23.6167891 13.2428643,25.2169979 13.3163925,26.8158288 C13.8189395,26.4668518 14.3345136,26.1367891 14.8647432,25.8315282 C15.0661628,25.7155365 15.345119,25.6239708 15.5171023,25.4725303 C15.5520501,25.4417161 15.6358497,25.4360793 15.659524,25.3976242 C15.7289186,25.2851399 15.6598998,24.8846806 15.6606514,24.7473946 C15.6666639,23.6156618 15.6928434,22.483929 15.7348058,21.3529478 C15.7628643,20.5944927 15.7979374,19.8362881 15.8417787,19.0785846 C15.848167,18.9681044 15.814096,18.7031775 15.8710898,18.6015908 C15.9701712,18.4248476 16.7113403,18.3936576 16.9378121,18.357833 C19.1341378,18.0112359 21.37919,17.9269353 23.5906722,18.1765804 C24.8831148,18.3225094 26.3333862,18.5092735 27.5187307,19.0808392 C28.6750146,19.6383758 29.8160167,20.3458497 30.7572276,21.2216743 C32.113929,22.483929 32.7500042,24.4390021 32.4199415,26.2671858 C32.0499207,28.3169562 30.5377704,29.9402129 28.9275407,31.1511106 C27.2281253,32.429023 25.2290856,33.1577912 23.1322171,33.4541587 C22.3229061,33.5685219 21.5044509,33.621382 20.685119,33.6250146 C20.7332192,33.6243883 20.7814447,33.623762 20.8295449,33.623261 C20.7536367,33.6241378 20.6772276,33.6253904 20.6023215,33.6253904 C19.5793152,33.6256409 18.5554322,33.5476033 17.5472067,33.3971649 C17.3082088,33.3614656 17.0695866,33.3217578 16.8322171,33.2764134 C16.7234906,33.25562 16.419357,33.2467265 16.3458288,33.1736994 C16.3508392,33.174952 16.3587307,33.1768309 16.371382,33.1797119 C16.3587307,33.1768309 16.350714,33.174952 16.3458288,33.1736994 C16.2333445,33.0622171 16.2084175,32.6628852 16.1750981,32.5041795 C16.1188559,32.2348685 16.0716326,31.9636785 16.0299207,31.6918622 C15.8296284,30.3863925 15.7487098,29.0625094 15.7018622,27.743762 C15.3372276,27.9054739 14.9753486,28.0735741 14.6166013,28.2479374 C14.2741378,28.4144092 13.8371023,28.5663507 13.534096,28.7988351 C13.419858,28.8865177 13.4368935,28.8402965 13.4038246,28.9830939 C13.3728852,29.1167474 13.4132192,29.3068935 13.4168518,29.4454322 C13.425119,29.7677286 13.4320084,30.0900251 13.4376451,30.4123215 C13.4619457,31.7942004 13.4648267,33.1764551 13.4434071,34.5582088 C13.4233653,35.8566639 13.3856618,37.1561211 13.2932192,38.4515699 C13.2148058,39.549858 13.1626973,40.7487307 12.5886263,41.7192526 C12.3914656,42.052572 12.1311733,42.3499415 11.7976033,42.5513612 C11.7184384,42.5989603 11.2636159,42.7089395 11.2220292,42.7673111 C11.1967265,42.8030104 11.2220292,42.9540752 11.2220292,42.9937829 L11.2220292,44.1473111 C11.2220292,44.4361628 11.1280835,44.9081461 11.2220292,45.1818413 C11.2722589,45.3278956 11.1918413,45.2462255 11.3530522,45.2816743 C11.542572,45.3233862 11.7903382,45.2816743 11.9834906,45.2816743 L14.2333027,45.2816743 L18.3889603,45.2816743 C18.37681,44.9749102 18.3645344,44.6681461 18.3521336,44.3612568 C18.3404843,44.0688977 18.384952,44.0309436 18.1160167,43.9045553 C17.8338038,43.7720292 17.5687516,43.598167 17.3469144,43.3782088 C16.7844927,42.8206722 16.5719248,42.0402965 16.6262881,41.2665595 C16.659858,40.7886889 16.6379374,40.3066848 16.6264134,39.8271858 C16.6004843,38.7516952 16.5743048,37.6620501 16.4176033,36.5962046 C16.3414447,36.0783758 16.1694614,35.5321127 16.8036576,35.3132818 C17.2470814,35.1603382 17.7660376,35.2328643 18.2174781,35.3036367 C19.7143466,35.5383758 21.2962672,35.5306096 22.8034071,35.4059749 C25.7842422,35.1593361 28.7261211,34.2920292 31.2414864,32.6462255 C32.4776868,31.8372902 33.7073737,30.8358288 34.433261,29.5258497 C35.3192317,27.9267683 35.8619875,26.0373319 35.6733445,24.2000042 C35.3427808,20.9828017 32.651048,18.9335324 29.8409436,17.8255992" id="Fill-16" fill="#FFFFFF"></path>
        </g>
    </g>
</svg>