<svg xmlns="http://www.w3.org/2000/svg" xmlns:xlink="http://www.w3.org/1999/xlink" width="207" height="135" viewBox="0 0 207 135">
    <defs>
        <path id="a" d="M0 .026h43.199v59.849H0z"/>
    </defs>
    <g fill="none" fill-rule="evenodd">
        <g transform="translate(82)">
            <mask id="b" fill="#fff">
                <use xlink:href="#a"/>
            </mask>
            <path fill="#424242" d="M39.665 31.588c0-18.537-8.451-30.525-18.452-30.525-8.193 0-17.678 7.763-17.678 27.25 0 18.365 8.02 30.525 18.539 30.525 10.088 0 17.591-10.866 17.591-27.25M0 29.628C0 12.757 9.546.025 21.635.025c14.627 0 21.564 16.626 21.564 30.168 0 17.031-9.615 29.68-21.634 29.68C9.615 59.875 0 47.062 0 29.628" mask="url(#b)"/>
        </g>
        <path fill="#424242" d="M119.282 32.601a8.59 8.59 0 0 0-1.797-2.66 2.64 2.64 0 0 0-.312-.314 6.78 6.78 0 0 1-1.158 1.577c-.07.072-.142.143-.215.213-.106.103-.153.103-.124.224.032.132.288.368.37.484a6.242 6.242 0 0 1 1.077 4.66 7.493 7.493 0 0 1-1.207 3.045c-1.394 2.01-3.756 3.386-6.043 4.164-2.907.988-5.98 1.048-9.014.768.013.325.146.83-.288.91-.098.019-.217 0-.315 0h-6.478c-.4 0-.754.045-.767-.462-.017-.716 0-1.433 0-2.149 0-.346.104-.432.444-.543.062-.02.166-.05.212-.088.15-.122.104.017.063-.2-.023-.124-.09-.232-.104-.363-.01-.091.007-.17.008-.258.004-.259-.014-.52-.02-.778l-.24-9.003-.041-1.53c-.009-.32-.062-.344.22-.519 2.418-1.497 5.083-2.744 7.842-3.485 2.695-.725 5.638-.8 8.332-.008 1.276.374 2.584 1.002 3.42 2.06.095.12.183.245.26.376.336-.47.62-.978.817-1.519.087-.238.158-.483.21-.731.013-.065.09-.297.06-.357-.04-.08-.309-.183-.39-.229a13.167 13.167 0 0 0-2.705-1.128c-2.176-.644-4.479-.802-6.739-.702a16.312 16.312 0 0 0-6.745 1.785 21.784 21.784 0 0 0-2.883 1.783c-.39.283-1.208 1.122-1.632.445-.288-.459-.202-1.113-.2-1.635.003-1.182.005-2.364.005-3.545 0-1.425 0-2.85-.012-4.274-.007-1.011-.308-2.36.701-2.996.647-.407 1.406-.433 2.145-.49a68.929 68.929 0 0 1 5.448-.206c2.431.003 4.859.192 7.29.26.937.025 1.876.045 2.814.088.794.037 1.646.036 2.424.212.448.101 1.281.577 1.057 1.172-.166.442-1.19.385-1.114.972.073.558.809.911 1.283 1.03.76.188 1.705.156 2.263-.457.707-.777.486-2.004-.042-2.81-.563-.861-1.53-1.35-2.51-1.606-1.814-.474-3.678-.234-5.522-.135-4.05.217-8.123.073-12.168-.18-1.388-.086-2.776-.189-4.161-.31-.66-.058-1.357-.183-2.021-.155-.467.02-.764.185-.77.675-.011.748.303 1.502.457 2.225.282 1.328.237 2.74.211 4.09a78.907 78.907 0 0 1-.218 4.353c-.035.468-.096.938-.102 1.407-.031 2.238-.02 4.479-.03 6.718-.01 2.72-.02 5.44-.024 8.16-.002.972-.06 1.95-.264 2.905-.11.517-.583 1.388-.181 1.844.342.389 1.01.624 1.492.784.63.211 1.289.336 1.947.43 1.81.255 3.653.282 5.479.313 2.439.04 4.898.141 7.336.064 2.89-.092 6.063-.577 8.504-2.224.313-.21.57-.465.858-.7.548-.45 1.106-.843 1.598-1.364 2.533-2.684 3.372-6.671 1.909-10.083"/>
        <path fill="#424242" d="M112.018 17.456c-2.557-.992-5.395-1.416-8.135-1.44-.98-.008-1.958-.034-2.939.004-1.432.055-2.831.266-4.251.435-.905.108-1.756.15-2.646-.013-.242-.044-.652-.04-.576.296.044.196.242.353.352.517.106.157.187.33.259.505.5 1.22.631 2.609.767 3.905.168 1.596.253 3.2.328 4.804.512-.35 1.038-.681 1.578-.987.205-.116.49-.208.665-.36.035-.031.12-.037.145-.075.07-.113 0-.514.001-.652a105.4 105.4 0 0 1 .076-3.403c.028-.76.064-1.52.109-2.28.006-.111-.028-.377.03-.478.1-.178.856-.209 1.087-.245 2.238-.347 4.526-.432 6.78-.182 1.317.147 2.795.334 4.003.907 1.179.559 2.341 1.268 3.3 2.146 1.383 1.266 2.032 3.226 1.695 5.059-.377 2.055-1.918 3.682-3.559 4.896-1.732 1.281-3.77 2.012-5.906 2.309a18.71 18.71 0 0 1-2.347.17l-.232.002a21.436 21.436 0 0 1-3.842-.35c-.11-.021-.42-.03-.496-.103-.114-.112-.14-.512-.174-.672-.057-.27-.105-.541-.148-.814-.204-1.309-.286-2.636-.334-3.958-.371.162-.74.33-1.106.505-.349.167-.794.32-1.103.553-.117.088-.1.041-.133.184-.031.134.01.325.013.464a123.597 123.597 0 0 1 .027 5.126 68.889 68.889 0 0 1-.153 3.903c-.08 1.101-.133 2.303-.718 3.276-.2.334-.466.632-.806.834-.08.048-.544.158-.586.217-.026.035 0 .187 0 .227v1.156c0 .29-.096.763 0 1.037.05.147-.031.065.133.1.193.042.446 0 .643 0h6.528l-.038-.922c-.012-.293.034-.331-.24-.458a2.8 2.8 0 0 1-.784-.528c-.574-.559-.79-1.341-.735-2.117.034-.479.012-.962 0-1.443-.026-1.078-.053-2.17-.212-3.24-.078-.518-.253-1.066.393-1.285.452-.154.98-.08 1.44-.01 1.526.235 3.139.228 4.675.103 3.038-.248 6.036-1.117 8.6-2.767 1.26-.811 2.512-1.815 3.252-3.128.903-1.604 1.456-3.498 1.264-5.34-.337-3.225-3.08-5.28-5.944-6.39"/>
        <path fill="#424242" fill-rule="nonzero" d="M18.05 87.42c-.613 0-1.143-.08-1.59-.24a2.696 2.696 0 0 1-1.17-.84c-.613-.76-1.12-1.41-1.52-1.95-.4-.54-.907-1.31-1.52-2.31a2.038 2.038 0 0 0-.86-.78c-.44-.213-.967-.353-1.58-.42h-.04c-.173 0-.26.133-.26.4v3.52c0 .987.447 1.56 1.34 1.72.227.04.393.087.5.14.107.053.16.127.16.22 0 .147-.193.22-.58.22-.427 0-.813-.027-1.16-.08-.24-.04-.507-.06-.8-.06-.24 0-.483.01-.73.03-.247.02-.423.03-.53.03-.533.053-.98.08-1.34.08-.387 0-.58-.073-.58-.22 0-.093.053-.167.16-.22.107-.053.273-.1.5-.14.52-.093.893-.25 1.12-.47.227-.22.34-.57.34-1.05v-8.52c0-.56-.023-.957-.07-1.19-.047-.233-.153-.403-.32-.51-.167-.107-.443-.18-.83-.22-.213-.013-.377-.06-.49-.14-.113-.08-.17-.167-.17-.26 0-.147.193-.22.58-.22.573 0 .947.007 1.12.02h.84c.2 0 .5-.013.9-.04.72-.04 1.187-.06 1.4-.06 1.467 0 2.583.277 3.35.83.767.553 1.15 1.37 1.15 2.45 0 1.44-.787 2.56-2.36 3.36-.04.013-.06.047-.06.1 0 .04.02.093.06.16.84 1.267 1.517 2.24 2.03 2.92.513.68 1.19 1.4 2.03 2.16.32.28.647.46.98.54.333.08.773.12 1.32.12.2 0 .3.073.3.22 0 .253-.177.433-.53.54-.353.107-.717.16-1.09.16zm-7.48-7c.587 0 1.11-.137 1.57-.41a2.82 2.82 0 0 0 1.06-1.09c.247-.453.37-.94.37-1.46 0-.947-.2-1.683-.6-2.21-.4-.527-1.18-.79-2.34-.79-.413 0-.69.13-.83.39s-.223.75-.25 1.47c-.027.907-.04 2.04-.04 3.4 0 .307.08.5.24.58.16.08.433.12.82.12zm16.44 6.86c-1.747 0-3.08-.453-4-1.36-.92-.907-1.38-2.147-1.38-3.72v-6.14c0-.44-.087-.777-.26-1.01a1.153 1.153 0 0 0-.66-.45c-.44-.12-.66-.267-.66-.44 0-.147.193-.22.58-.22l.86.02c.427.027.78.04 1.06.04l.96-.02c.16-.013.373-.02.64-.02.387 0 .58.073.58.22 0 .08-.047.147-.14.2a3.04 3.04 0 0 1-.52.2c-.187.053-.373.217-.56.49-.187.273-.28.59-.28.95v5.62c0 1.547.38 2.707 1.14 3.48.76.773 1.78 1.16 3.06 1.16 1.333 0 2.33-.463 2.99-1.39.66-.927.99-2.197.99-3.81 0-.813-.027-2.247-.08-4.3-.013-.56-.087-1.043-.22-1.45-.133-.407-.333-.65-.6-.73-.44-.12-.66-.253-.66-.4 0-.147.193-.22.58-.22l1.5.02c.253 0 .567-.013.94-.04l.68-.02c.387 0 .58.073.58.22 0 .173-.22.307-.66.4-.627.12-.96.62-1 1.5-.053.813-.09 1.643-.11 2.49a96.56 96.56 0 0 1-.05 1.71c0 .387-.013.967-.04 1.74-.027 1.013-.273 1.923-.74 2.73a4.99 4.99 0 0 1-1.88 1.88c-.787.447-1.667.67-2.64.67zm11.4.04c-1.12 0-2.06-.32-2.82-.96-.147-.147-.233-.28-.26-.4-.053-.24-.113-.793-.18-1.66l-.02-.44c0-.093.037-.163.11-.21a.534.534 0 0 1 .29-.07c.173 0 .28.073.32.22.24.973.617 1.693 1.13 2.16.513.467 1.083.7 1.71.7.693 0 1.267-.223 1.72-.67.453-.447.68-1.037.68-1.77 0-.52-.083-.95-.25-1.29a2.479 2.479 0 0 0-.69-.86c-.293-.233-.733-.53-1.32-.89l-.4-.24a16.63 16.63 0 0 1-1.54-1.04 4.166 4.166 0 0 1-.96-1.08 2.697 2.697 0 0 1-.4-1.46c0-1.067.36-1.94 1.08-2.62.72-.68 1.753-1.02 3.1-1.02.68 0 1.38.147 2.1.44a.72.72 0 0 1 .26.2c.08.093.133.193.16.3.133.467.233.843.3 1.13.067.287.1.57.1.85 0 .147-.1.22-.3.22a.813.813 0 0 1-.35-.08c-.113-.053-.183-.12-.21-.2-.293-.733-.63-1.28-1.01-1.64-.38-.36-.843-.54-1.39-.54-.667 0-1.217.183-1.65.55-.433.367-.65.943-.65 1.73 0 .373.12.72.36 1.04.24.32.543.613.91.88s.877.6 1.53 1c.627.387 1.133.733 1.52 1.04.387.307.713.687.98 1.14.267.453.4.993.4 1.62 0 1.187-.4 2.137-1.2 2.85-.8.713-1.853 1.07-3.16 1.07zm9.3 0c-1.12 0-2.06-.32-2.82-.96-.147-.147-.233-.28-.26-.4-.053-.24-.113-.793-.18-1.66l-.02-.44c0-.093.037-.163.11-.21a.534.534 0 0 1 .29-.07c.173 0 .28.073.32.22.24.973.617 1.693 1.13 2.16.513.467 1.083.7 1.71.7.693 0 1.267-.223 1.72-.67.453-.447.68-1.037.68-1.77 0-.52-.083-.95-.25-1.29a2.479 2.479 0 0 0-.69-.86c-.293-.233-.733-.53-1.32-.89l-.4-.24a16.63 16.63 0 0 1-1.54-1.04 4.166 4.166 0 0 1-.96-1.08 2.697 2.697 0 0 1-.4-1.46c0-1.067.36-1.94 1.08-2.62.72-.68 1.753-1.02 3.1-1.02.68 0 1.38.147 2.1.44a.72.72 0 0 1 .26.2c.08.093.133.193.16.3.133.467.233.843.3 1.13.067.287.1.57.1.85 0 .147-.1.22-.3.22a.813.813 0 0 1-.35-.08c-.113-.053-.183-.12-.21-.2-.293-.733-.63-1.28-1.01-1.64-.38-.36-.843-.54-1.39-.54-.667 0-1.217.183-1.65.55-.433.367-.65.943-.65 1.73 0 .373.12.72.36 1.04.24.32.543.613.91.88s.877.6 1.53 1c.627.387 1.133.733 1.52 1.04.387.307.713.687.98 1.14.267.453.4.993.4 1.62 0 1.187-.4 2.137-1.2 2.85-.8.713-1.853 1.07-3.16 1.07zm12.76-.04a6.793 6.793 0 0 1-3.29-.83 6.35 6.35 0 0 1-2.44-2.33c-.607-1-.91-2.14-.91-3.42 0-1.227.267-2.373.8-3.44a6.34 6.34 0 0 1 2.34-2.57c1.027-.647 2.253-.97 3.68-.97 1.173 0 2.27.277 3.29.83a6.35 6.35 0 0 1 2.44 2.33c.607 1 .91 2.14.91 3.42a7.586 7.586 0 0 1-.8 3.44 6.34 6.34 0 0 1-2.34 2.57c-1.027.647-2.253.97-3.68.97zm.3-.8c1.493 0 2.633-.463 3.42-1.39.787-.927 1.18-2.197 1.18-3.81 0-1.267-.193-2.407-.58-3.42-.387-1.013-.957-1.817-1.71-2.41-.753-.593-1.67-.89-2.75-.89-1.48 0-2.613.457-3.4 1.37-.787.913-1.18 2.17-1.18 3.77 0 1.267.19 2.413.57 3.44.38 1.027.947 1.84 1.7 2.44.753.6 1.67.9 2.75.9zm8.12-2.88c-.08 0-.12-.04-.12-.12 0-.24.03-.477.09-.71.06-.233.137-.357.23-.37 1.707-.24 2.987-.407 3.84-.5.107 0 .16.04.16.12 0 .293-.033.543-.1.75-.067.207-.173.317-.32.33l-.52.08c-1.373.213-2.46.353-3.26.42zm5.74 3.5c-.387 0-.58-.073-.58-.22 0-.093.053-.167.16-.22.107-.053.273-.1.5-.14.533-.093.927-.253 1.18-.48.253-.227.38-.567.38-1.02v-9c0-.48-.103-.833-.31-1.06-.207-.227-.55-.36-1.03-.4-.213-.013-.377-.06-.49-.14-.113-.08-.17-.167-.17-.26 0-.147.193-.22.58-.22.6 0 1 .007 1.2.02h.88c.2 0 .487-.013.86-.04.68-.04 1.133-.06 1.36-.06 1.6 0 2.773.23 3.52.69.747.46 1.12 1.223 1.12 2.29 0 .413-.07.793-.21 1.14-.14.347-.297.607-.47.78-.213.213-.41.377-.59.49a5.23 5.23 0 0 1-.75.37c-.053.027-.08.063-.08.11s.027.077.08.09c.56.187 1.03.387 1.41.6.38.213.713.537 1 .97.287.433.43 1.01.43 1.73 0 .68-.107 1.237-.32 1.67-.213.433-.463.76-.75.98-.287.22-.623.43-1.01.63-.907.453-2.04.68-3.4.68l-.6-.02c-.36-.04-.793-.06-1.3-.06-.333 0-.74.013-1.22.04-.373.04-.833.06-1.38.06zm4.12-7.52c.92 0 1.727-.193 2.42-.58.213-.12.417-.34.61-.66s.29-.733.29-1.24c0-.72-.21-1.34-.63-1.86-.42-.52-1.183-.78-2.29-.78-.52 0-.87.07-1.05.21-.18.14-.27.37-.27.69v3.48c0 .493.307.74.92.74zm.66 6.68c.587 0 1.133-.133 1.64-.4a3.237 3.237 0 0 0 1.22-1.1c.307-.467.46-.98.46-1.54 0-.68-.15-1.227-.45-1.64a3.178 3.178 0 0 0-1.03-.94c-.6-.333-1.36-.5-2.28-.5-.387 0-.673.077-.86.23-.187.153-.28.317-.28.49v3.98c0 .533.127.903.38 1.11.253.207.653.31 1.2.31zm6.54.84a1.06 1.06 0 0 1-.42-.07c-.107-.047-.16-.11-.16-.19 0-.173.22-.327.66-.46.387-.12.72-.29 1-.51.28-.22.52-.563.72-1.03a151.716 151.716 0 0 0 1.85-4.43 225.353 225.353 0 0 0 1.89-4.97c.147-.413.24-.8.28-1.16l.29-.09c.153-.047.297-.117.43-.21.107-.08.19-.2.25-.36.06-.16.103-.267.13-.32.013-.013.03-.017.05-.01.02.007.037.017.05.03.027.067.05.14.07.22.02.08.043.153.07.22a453.473 453.473 0 0 0 3.56 10.68c.253.733.533 1.23.84 1.49.307.26.7.43 1.18.51.213.04.377.103.49.19.113.087.17.177.17.27 0 .133-.193.2-.58.2l-1.08-.04a25.89 25.89 0 0 0-1.7-.08l-2.1.02c-.387 0-.58-.08-.58-.24 0-.08.063-.157.19-.23a1.3 1.3 0 0 1 .47-.15c.813-.133 1.22-.433 1.22-.9 0-.427-.26-1.507-.78-3.24-.027-.093-.077-.153-.15-.18a1.293 1.293 0 0 0-.39-.04h-3.78c-.147 0-.26.12-.34.36-.147.427-.32.983-.52 1.67-.2.687-.3 1.09-.3 1.21 0 .28.11.52.33.72.22.2.497.34.83.42.24.067.41.127.51.18.1.053.15.127.15.22 0 .147-.193.22-.58.22-.24 0-.44-.007-.6-.02l-1.22-.02c-.227 0-.477.01-.75.03a9.21 9.21 0 0 1-.61.03c-.373.04-.72.06-1.04.06zm7.78-5.74c.08 0 .147-.007.2-.02.053-.013.08-.04.08-.08l-.04-.2-1.56-4.88c-.08-.24-.14-.36-.18-.36-.027 0-.08.113-.16.34l-1.82 4.9-.04.16c0 .067.03.107.09.12.06.013.17.02.33.02h3.1zm6.62 5.74a.986.986 0 0 1-.41-.07c-.1-.047-.15-.103-.15-.17 0-.16.147-.273.44-.34.547-.107.953-.267 1.22-.48.267-.213.4-.533.4-.96V75.8c0-.32-.033-.557-.1-.71a.615.615 0 0 0-.33-.33c-.153-.067-.417-.133-.79-.2-.44-.08-.66-.213-.66-.4 0-.147.193-.22.58-.22.4 0 .813.013 1.24.04l1 .02 1.2-.02c.507-.027.947-.04 1.32-.04.387 0 .58.073.58.22 0 .187-.22.32-.66.4-.627.12-1.08.247-1.36.38s-.42.373-.42.72v9.42c0 .44.1.753.3.94.2.187.613.28 1.24.28h2.48c.333 0 .64-.053.92-.16.28-.107.493-.227.64-.36.267-.227.463-.43.59-.61.127-.18.277-.45.45-.81.053-.133.12-.267.2-.4.08-.133.16-.2.24-.2.08 0 .14.037.18.11.04.073.06.157.06.25l-.02.1c-.173.64-.297 1.13-.37 1.47-.073.34-.13.697-.17 1.07-.027.227-.12.34-.28.34-1.427 0-2.74-.02-3.94-.06-1.36-.027-2.333-.04-2.92-.04-.413 0-.92.013-1.52.04-.6.027-.993.047-1.18.06zm12.46 0c-.387 0-.58-.073-.58-.22 0-.093.053-.167.16-.22.107-.053.273-.1.5-.14.52-.093.91-.26 1.17-.5.26-.24.39-.593.39-1.06V77.2c0-.893-.03-1.497-.09-1.81-.06-.313-.17-.483-.33-.51a3.138 3.138 0 0 0-.61-.07c-.233-.007-.503-.01-.81-.01h-.94c-.347 0-.673.067-.98.2-.307.133-.527.327-.66.58-.08.16-.203.327-.37.5-.167.173-.317.26-.45.26-.093 0-.14-.087-.14-.26 0-.133.033-.267.1-.4.187-.36.32-.69.4-.99.08-.3.153-.67.22-1.11.04-.307.153-.46.34-.46.04 0 .117.073.23.22.113.147.203.287.27.42.08.133.257.233.53.3.273.067.563.1.87.1h7.04c.827 0 1.46-.1 1.9-.3.08-.04.197-.117.35-.23.153-.113.297-.17.43-.17.04 0 .073.05.1.15.027.1.04.203.04.31 0 .053-.027.24-.08.56l-.12.6c-.053.16-.08.353-.08.58v.24c0 .133-.03.273-.09.42-.06.147-.137.22-.23.22s-.167-.063-.22-.19a3.322 3.322 0 0 1-.16-.63c-.053-.293-.22-.52-.5-.68-.28-.16-.727-.24-1.34-.24h-2.02c-.333 0-.563.04-.69.12-.127.08-.21.27-.25.57-.04.3-.06.837-.06 1.61v7.86c0 .467.133.82.4 1.06.267.24.66.407 1.18.5.227.04.393.087.5.14.107.053.16.127.16.22 0 .147-.193.22-.58.22-.493 0-.92-.02-1.28-.06-.427-.027-.78-.04-1.06-.04-.333 0-.74.013-1.22.04-.4.04-.847.06-1.34.06zm25.86.32c-.613 0-1.143-.08-1.59-.24a2.696 2.696 0 0 1-1.17-.84c-.613-.76-1.12-1.41-1.52-1.95-.4-.54-.907-1.31-1.52-2.31a2.038 2.038 0 0 0-.86-.78c-.44-.213-.967-.353-1.58-.42h-.04c-.173 0-.26.133-.26.4v3.52c0 .987.447 1.56 1.34 1.72.227.04.393.087.5.14.107.053.16.127.16.22 0 .147-.193.22-.58.22-.427 0-.813-.027-1.16-.08-.24-.04-.507-.06-.8-.06-.24 0-.483.01-.73.03-.247.02-.423.03-.53.03-.533.053-.98.08-1.34.08-.387 0-.58-.073-.58-.22 0-.093.053-.167.16-.22.107-.053.273-.1.5-.14.52-.093.893-.25 1.12-.47.227-.22.34-.57.34-1.05v-8.52c0-.56-.023-.957-.07-1.19-.047-.233-.153-.403-.32-.51-.167-.107-.443-.18-.83-.22-.213-.013-.377-.06-.49-.14-.113-.08-.17-.167-.17-.26 0-.147.193-.22.58-.22.573 0 .947.007 1.12.02h.84c.2 0 .5-.013.9-.04.72-.04 1.187-.06 1.4-.06 1.467 0 2.583.277 3.35.83.767.553 1.15 1.37 1.15 2.45 0 1.44-.787 2.56-2.36 3.36-.04.013-.06.047-.06.1 0 .04.02.093.06.16.84 1.267 1.517 2.24 2.03 2.92.513.68 1.19 1.4 2.03 2.16.32.28.647.46.98.54.333.08.773.12 1.32.12.2 0 .3.073.3.22 0 .253-.177.433-.53.54-.353.107-.717.16-1.09.16zm-7.48-7c.587 0 1.11-.137 1.57-.41a2.82 2.82 0 0 0 1.06-1.09c.247-.453.37-.94.37-1.46 0-.947-.2-1.683-.6-2.21-.4-.527-1.18-.79-2.34-.79-.413 0-.69.13-.83.39s-.223.75-.25 1.47c-.027.907-.04 2.04-.04 3.4 0 .307.08.5.24.58.16.08.433.12.82.12zm10.32 6.68c-.387 0-.58-.073-.58-.22 0-.093.053-.167.16-.22.107-.053.273-.1.5-.14.52-.093.897-.25 1.13-.47.233-.22.35-.563.35-1.03v-9c0-.467-.097-.803-.29-1.01-.193-.207-.543-.357-1.05-.45-.44-.08-.66-.213-.66-.4 0-.147.193-.22.58-.22.507 0 1.12.013 1.84.04l1.7.02 2.74-.02 1.7-.04c.227 0 .347.06.36.18.027.107.083.4.17.88.087.48.13.873.13 1.18 0 .2-.093.3-.28.3-.067 0-.113-.013-.14-.04a.434.434 0 0 1-.08-.16 7.621 7.621 0 0 1-.16-.52c-.08-.28-.173-.473-.28-.58-.32-.36-.767-.54-1.34-.54h-2.62c-.133 0-.287.063-.46.19-.173.127-.26.277-.26.45v4.24c0 .12.037.223.11.31.073.087.157.13.25.13h1.98c.373 0 .633-.067.78-.2.147-.133.273-.393.38-.78.08-.293.2-.44.36-.44.053 0 .11.03.17.09.06.06.09.137.09.23l-.02.52-.04.88.02 1.06.02.48c0 .227-.06.34-.18.34-.2 0-.353-.213-.46-.64-.08-.32-.19-.55-.33-.69-.14-.14-.337-.21-.59-.21h-1.86c-.253 0-.43.033-.53.1-.1.067-.15.207-.15.42v3.84c0 .493.103.84.31 1.04.207.2.543.3 1.01.3h1.48c.44 0 .803-.027 1.09-.08.287-.053.53-.14.73-.26.2-.133.383-.317.55-.55a9.19 9.19 0 0 0 .59-.99c.093-.173.187-.26.28-.26.173 0 .26.093.26.28 0 .173-.073.537-.22 1.09-.147.553-.28.963-.4 1.23a2.115 2.115 0 0 0-.06.14.445.445 0 0 1-.09.15.176.176 0 0 1-.13.05c-.267 0-1.44-.02-3.52-.06-.92-.04-1.833-.06-2.74-.06-.373 0-.72.02-1.04.06-.68.04-1.1.06-1.26.06zm14.04.22c-1.12 0-2.06-.32-2.82-.96-.147-.147-.233-.28-.26-.4-.053-.24-.113-.793-.18-1.66l-.02-.44c0-.093.037-.163.11-.21a.534.534 0 0 1 .29-.07c.173 0 .28.073.32.22.24.973.617 1.693 1.13 2.16.513.467 1.083.7 1.71.7.693 0 1.267-.223 1.72-.67.453-.447.68-1.037.68-1.77 0-.52-.083-.95-.25-1.29a2.479 2.479 0 0 0-.69-.86c-.293-.233-.733-.53-1.32-.89l-.4-.24a16.63 16.63 0 0 1-1.54-1.04 4.166 4.166 0 0 1-.96-1.08 2.697 2.697 0 0 1-.4-1.46c0-1.067.36-1.94 1.08-2.62.72-.68 1.753-1.02 3.1-1.02.68 0 1.38.147 2.1.44a.72.72 0 0 1 .26.2c.08.093.133.193.16.3.133.467.233.843.3 1.13.067.287.1.57.1.85 0 .147-.1.22-.3.22a.813.813 0 0 1-.35-.08c-.113-.053-.183-.12-.21-.2-.293-.733-.63-1.28-1.01-1.64-.38-.36-.843-.54-1.39-.54-.667 0-1.217.183-1.65.55-.433.367-.65.943-.65 1.73 0 .373.12.72.36 1.04.24.32.543.613.91.88s.877.6 1.53 1c.627.387 1.133.733 1.52 1.04.387.307.713.687.98 1.14.267.453.4.993.4 1.62 0 1.187-.4 2.137-1.2 2.85-.8.713-1.853 1.07-3.16 1.07zm12.76-.04a6.793 6.793 0 0 1-3.29-.83 6.35 6.35 0 0 1-2.44-2.33c-.607-1-.91-2.14-.91-3.42 0-1.227.267-2.373.8-3.44a6.34 6.34 0 0 1 2.34-2.57c1.027-.647 2.253-.97 3.68-.97 1.173 0 2.27.277 3.29.83a6.35 6.35 0 0 1 2.44 2.33c.607 1 .91 2.14.91 3.42a7.586 7.586 0 0 1-.8 3.44 6.34 6.34 0 0 1-2.34 2.57c-1.027.647-2.253.97-3.68.97zm.3-.8c1.493 0 2.633-.463 3.42-1.39.787-.927 1.18-2.197 1.18-3.81 0-1.267-.193-2.407-.58-3.42-.387-1.013-.957-1.817-1.71-2.41-.753-.593-1.67-.89-2.75-.89-1.48 0-2.613.457-3.4 1.37-.787.913-1.18 2.17-1.18 3.77 0 1.267.19 2.413.57 3.44.38 1.027.947 1.84 1.7 2.44.753.6 1.67.9 2.75.9zm20.16.94c-.613 0-1.143-.08-1.59-.24a2.696 2.696 0 0 1-1.17-.84c-.613-.76-1.12-1.41-1.52-1.95-.4-.54-.907-1.31-1.52-2.31a2.038 2.038 0 0 0-.86-.78c-.44-.213-.967-.353-1.58-.42h-.04c-.173 0-.26.133-.26.4v3.52c0 .987.447 1.56 1.34 1.72.227.04.393.087.5.14.107.053.16.127.16.22 0 .147-.193.22-.58.22-.427 0-.813-.027-1.16-.08-.24-.04-.507-.06-.8-.06-.24 0-.483.01-.73.03-.247.02-.423.03-.53.03-.533.053-.98.08-1.34.08-.387 0-.58-.073-.58-.22 0-.093.053-.167.16-.22.107-.053.273-.1.5-.14.52-.093.893-.25 1.12-.47.227-.22.34-.57.34-1.05v-8.52c0-.56-.023-.957-.07-1.19-.047-.233-.153-.403-.32-.51-.167-.107-.443-.18-.83-.22-.213-.013-.377-.06-.49-.14-.113-.08-.17-.167-.17-.26 0-.147.193-.22.58-.22.573 0 .947.007 1.12.02h.84c.2 0 .5-.013.9-.04.72-.04 1.187-.06 1.4-.06 1.467 0 2.583.277 3.35.83.767.553 1.15 1.37 1.15 2.45 0 1.44-.787 2.56-2.36 3.36-.04.013-.06.047-.06.1 0 .04.02.093.06.16.84 1.267 1.517 2.24 2.03 2.92.513.68 1.19 1.4 2.03 2.16.32.28.647.46.98.54.333.08.773.12 1.32.12.2 0 .3.073.3.22 0 .253-.177.433-.53.54-.353.107-.717.16-1.09.16zm-7.48-7c.587 0 1.11-.137 1.57-.41a2.82 2.82 0 0 0 1.06-1.09c.247-.453.37-.94.37-1.46 0-.947-.2-1.683-.6-2.21-.4-.527-1.18-.79-2.34-.79-.413 0-.69.13-.83.39s-.223.75-.25 1.47c-.027.907-.04 2.04-.04 3.4 0 .307.08.5.24.58.16.08.433.12.82.12zm11.28 6.68c-.387 0-.58-.073-.58-.22 0-.093.053-.167.16-.22.107-.053.273-.1.5-.14.52-.093.91-.26 1.17-.5.26-.24.39-.593.39-1.06V77.2c0-.893-.03-1.497-.09-1.81-.06-.313-.17-.483-.33-.51a3.138 3.138 0 0 0-.61-.07c-.233-.007-.503-.01-.81-.01h-.94c-.347 0-.673.067-.98.2-.307.133-.527.327-.66.58-.08.16-.203.327-.37.5-.167.173-.317.26-.45.26-.093 0-.14-.087-.14-.26 0-.133.033-.267.1-.4.187-.36.32-.69.4-.99.08-.3.153-.67.22-1.11.04-.307.153-.46.34-.46.04 0 .117.073.23.22.113.147.203.287.27.42.08.133.257.233.53.3.273.067.563.1.87.1h7.04c.827 0 1.46-.1 1.9-.3.08-.04.197-.117.35-.23.153-.113.297-.17.43-.17.04 0 .073.05.1.15.027.1.04.203.04.31 0 .053-.027.24-.08.56l-.12.6c-.053.16-.08.353-.08.58v.24c0 .133-.03.273-.09.42-.06.147-.137.22-.23.22s-.167-.063-.22-.19a3.322 3.322 0 0 1-.16-.63c-.053-.293-.22-.52-.5-.68-.28-.16-.727-.24-1.34-.24h-2.02c-.333 0-.563.04-.69.12-.127.08-.21.27-.25.57-.04.3-.06.837-.06 1.61v7.86c0 .467.133.82.4 1.06.267.24.66.407 1.18.5.227.04.393.087.5.14.107.053.16.127.16.22 0 .147-.193.22-.58.22-.493 0-.92-.02-1.28-.06-.427-.027-.78-.04-1.06-.04-.333 0-.74.013-1.22.04-.4.04-.847.06-1.34.06zM64.26 111.216c-.096 0-.162-.042-.198-.126-.036-.084-.162-.45-.378-1.098l-3.294-8.838c-.264-.708-.684-1.146-1.26-1.314a2.422 2.422 0 0 1-.45-.198c-.096-.06-.144-.126-.144-.198 0-.132.174-.198.522-.198l.882.018c.552.024.99.036 1.314.036l1.224-.018a8.79 8.79 0 0 1 .612-.018c.348 0 .522.066.522.198 0 .084-.051.162-.153.234-.102.072-.249.114-.441.126-.78.084-1.17.318-1.17.702 0 .228.03.426.09.594.06.168.096.264.108.288l2.592 6.84c.024.06.054.09.09.09s.072-.036.108-.108l2.466-6.48c.12-.312.18-.594.18-.846 0-.324-.093-.573-.279-.747-.186-.174-.435-.279-.747-.315a1.111 1.111 0 0 1-.432-.135c-.108-.066-.162-.141-.162-.225 0-.132.174-.198.522-.198l1.782.018c.288 0 .696-.012 1.224-.036l.828-.018c.348 0 .522.066.522.198 0 .156-.198.276-.594.36a2.271 2.271 0 0 0-1.071.585 3.023 3.023 0 0 0-.693.981l-3.384 8.208-.126.342a9.532 9.532 0 0 1-.432 1.17c-.036.084-.096.126-.18.126zm7.362-.126a.888.888 0 0 1-.369-.063c-.09-.042-.135-.093-.135-.153 0-.144.132-.246.396-.306.492-.096.858-.24 1.098-.432.24-.192.36-.48.36-.864v-8.352c0-.288-.03-.501-.09-.639a.554.554 0 0 0-.297-.297c-.138-.06-.375-.12-.711-.18-.396-.072-.594-.192-.594-.36 0-.132.174-.198.522-.198.36 0 .732.012 1.116.036l.9.018 1.08-.018c.456-.024.852-.036 1.188-.036.348 0 .522.066.522.198 0 .168-.198.288-.594.36-.564.108-.972.222-1.224.342-.252.12-.378.336-.378.648v8.478c0 .396.09.678.27.846.18.168.552.252 1.116.252h2.232c.3 0 .576-.048.828-.144a1.82 1.82 0 0 0 .576-.324c.24-.204.417-.387.531-.549.114-.162.249-.405.405-.729.048-.12.108-.24.18-.36s.144-.18.216-.18c.072 0 .126.033.162.099a.462.462 0 0 1 .054.225l-.018.09a28.323 28.323 0 0 0-.333 1.323 9.233 9.233 0 0 0-.153.963c-.024.204-.108.306-.252.306-1.284 0-2.466-.018-3.546-.054-1.224-.024-2.1-.036-2.628-.036a50.817 50.817 0 0 0-2.43.09zm10.008 0a.954.954 0 0 1-.378-.063c-.096-.042-.144-.099-.144-.171 0-.156.198-.294.594-.414.348-.108.648-.261.9-.459s.468-.507.648-.927a136.544 136.544 0 0 0 1.665-3.987 202.817 202.817 0 0 0 1.701-4.473 4.69 4.69 0 0 0 .252-1.044l.261-.081c.138-.042.267-.105.387-.189a.698.698 0 0 0 .225-.324c.054-.144.093-.24.117-.288.012-.012.027-.015.045-.009a.113.113 0 0 1 .045.027c.024.06.045.126.063.198.018.072.039.138.063.198.888 2.796 1.956 6 3.204 9.612.228.66.48 1.107.756 1.341.276.234.63.387 1.062.459.192.036.339.093.441.171.102.078.153.159.153.243 0 .12-.174.18-.522.18l-.972-.036a23.3 23.3 0 0 0-1.53-.072l-1.89.018c-.348 0-.522-.072-.522-.216 0-.072.057-.141.171-.207a1.17 1.17 0 0 1 .423-.135c.732-.12 1.098-.39 1.098-.81 0-.384-.234-1.356-.702-2.916-.024-.084-.069-.138-.135-.162a1.164 1.164 0 0 0-.351-.036h-3.402c-.132 0-.234.108-.306.324-.132.384-.288.885-.468 1.503-.18.618-.27.981-.27 1.089 0 .252.099.468.297.648.198.18.447.306.747.378.216.06.369.114.459.162.09.048.135.114.135.198 0 .132-.174.198-.522.198-.216 0-.396-.006-.54-.018l-1.098-.018a9.31 9.31 0 0 0-.675.027 8.29 8.29 0 0 1-.549.027 8.824 8.824 0 0 1-.936.054zm7.002-5.166a.757.757 0 0 0 .18-.018c.048-.012.072-.036.072-.072l-.036-.18-1.404-4.392c-.072-.216-.126-.324-.162-.324-.024 0-.072.102-.144.306l-1.638 4.41-.036.144c0 .06.027.096.081.108.054.012.153.018.297.018h2.79zm10.818 5.166c-1.32-.06-2.292-.09-2.916-.09-.204 0-.474.012-.81.036a8.419 8.419 0 0 1-1.08.054c-.348 0-.522-.078-.522-.234 0-.096.036-.156.108-.18a4.9 4.9 0 0 1 .486-.108c.456-.084.771-.222.945-.414.174-.192.261-.504.261-.936v-8.1c0-.42-.087-.723-.261-.909-.174-.186-.489-.321-.945-.405-.228-.036-.384-.075-.468-.117a.215.215 0 0 1-.126-.207c0-.156.174-.234.522-.234l1.026.018c.18.012.504.018.972.018.492 0 1.11-.03 1.854-.09.252-.012.483-.024.693-.036a9.56 9.56 0 0 1 .531-.018c1.56 0 2.85.249 3.87.747s1.767 1.176 2.241 2.034c.474.858.711 1.833.711 2.925a6.122 6.122 0 0 1-.846 3.141 6.304 6.304 0 0 1-2.286 2.295 6.074 6.074 0 0 1-3.132.846l-.828-.036zm.612-.594c.924 0 1.749-.228 2.475-.684.726-.456 1.29-1.089 1.692-1.899.402-.81.603-1.731.603-2.763 0-1.104-.24-2.07-.72-2.898-.48-.828-1.107-1.461-1.881-1.899a4.849 4.849 0 0 0-2.421-.657c-.636 0-1.113.018-1.431.054-.318.036-.567.132-.747.288-.18.156-.27.408-.27.756v8.028c0 .66.243 1.104.729 1.332.486.228 1.143.342 1.971.342zm7.974.594c-.348 0-.522-.066-.522-.198 0-.084.048-.15.144-.198a1.75 1.75 0 0 1 .45-.126c.48-.084.834-.225 1.062-.423.228-.198.342-.501.342-.909V101.1c0-.42-.087-.72-.261-.9-.174-.18-.489-.312-.945-.396-.396-.072-.594-.192-.594-.36 0-.132.174-.198.522-.198.336 0 .72.012 1.152.036l.954.018.864-.018c.384-.024.75-.036 1.098-.036.348 0 .522.066.522.198 0 .168-.198.288-.594.36-.468.084-.798.219-.99.405-.192.186-.288.483-.288.891v8.136c0 .408.117.711.351.909.234.198.591.339 1.071.423.204.036.354.078.45.126.096.048.144.114.144.198 0 .132-.174.198-.522.198-.444 0-.828-.018-1.152-.054a15.815 15.815 0 0 0-.954-.036c-.3 0-.666.012-1.098.036-.36.036-.762.054-1.206.054zm6.12 0c-.348 0-.522-.066-.522-.198 0-.084.048-.15.144-.198a1.75 1.75 0 0 1 .45-.126c.624-.108.996-.576 1.116-1.404.492-3.696.738-6.252.738-7.668 0-.276-.006-.474-.018-.594a1.496 1.496 0 0 0-.063-.333.577.577 0 0 0-.207-.261 1.644 1.644 0 0 0-.567-.342 8.49 8.49 0 0 0-.783-.198.586.586 0 0 1-.288-.135.299.299 0 0 1-.108-.225c0-.084.051-.138.153-.162.102-.024.255-.036.459-.036.156 0 .606.024 1.35.072.744.048 1.194.072 1.35.072.168 0 .282.096.342.288l.126.468c.108.432.198.738.27.918l2.844 7.218c.036.108.114.162.234.162a.186.186 0 0 0 .18-.108l3.546-7.38c.144-.54.252-.99.324-1.35.036-.156.096-.234.18-.234h.648c.18 0 .612-.03 1.296-.09.312-.036.564-.054.756-.054.252 0 .378.06.378.18 0 .084-.033.15-.099.198a1.9 1.9 0 0 1-.369.18c-.108.036-.252.09-.432.162l-.63.252a.775.775 0 0 0-.315.252.6.6 0 0 0-.117.36c0 1.056.021 2.046.063 2.97.042.924.105 2.004.189 3.24.072.984.12 1.752.144 2.304.012.372.126.657.342.855.216.198.552.339 1.008.423.204.036.354.078.45.126.096.048.144.114.144.198 0 .132-.174.198-.522.198-.444 0-.828-.018-1.152-.054a15.815 15.815 0 0 0-.954-.036c-.204 0-.474.012-.81.036a8.419 8.419 0 0 1-1.08.054c-.348 0-.522-.066-.522-.198 0-.168.198-.276.594-.324.348-.048.588-.168.72-.36.132-.192.198-.504.198-.936 0-1.224-.021-2.355-.063-3.393a140.512 140.512 0 0 0-.081-1.845c-.024-.3-.048-.762-.072-1.386-.012-.12-.048-.18-.108-.18-.048 0-.108.06-.18.18l-4.14 8.442c-.012.072-.066.108-.162.108-.072 0-.126-.042-.162-.126-.828-2.46-1.932-5.31-3.312-8.55-.024-.06-.066-.09-.126-.09s-.096.03-.108.09a106.162 106.162 0 0 0-.45 3.69 30.813 30.813 0 0 0-.126 2.952c0 .336.105.636.315.9.21.264.495.432.855.504.204.036.354.078.45.126.096.048.144.114.144.198 0 .132-.174.198-.522.198-.444 0-.786-.018-1.026-.054a6.726 6.726 0 0 0-.666-.036c-.18 0-.39.012-.63.036-.468.036-.804.054-1.008.054zm16.218 0c-.348 0-.522-.066-.522-.198 0-.084.048-.15.144-.198a1.75 1.75 0 0 1 .45-.126c.48-.084.834-.225 1.062-.423.228-.198.342-.501.342-.909V101.1c0-.42-.087-.72-.261-.9-.174-.18-.489-.312-.945-.396-.396-.072-.594-.192-.594-.36 0-.132.174-.198.522-.198.336 0 .72.012 1.152.036l.954.018.864-.018c.384-.024.75-.036 1.098-.036.348 0 .522.066.522.198 0 .168-.198.288-.594.36-.468.084-.798.219-.99.405-.192.186-.288.483-.288.891v8.136c0 .408.117.711.351.909.234.198.591.339 1.071.423.204.036.354.078.45.126.096.048.144.114.144.198 0 .132-.174.198-.522.198-.444 0-.828-.018-1.152-.054a15.815 15.815 0 0 0-.954-.036c-.3 0-.666.012-1.098.036-.36.036-.762.054-1.206.054zm16.722.288c-.552 0-1.029-.072-1.431-.216a2.427 2.427 0 0 1-1.053-.756 55.096 55.096 0 0 1-1.368-1.755c-.36-.486-.816-1.179-1.368-2.079-.18-.3-.438-.534-.774-.702-.396-.192-.87-.318-1.422-.378h-.036c-.156 0-.234.12-.234.36v3.168c0 .888.402 1.404 1.206 1.548.204.036.354.078.45.126.096.048.144.114.144.198 0 .132-.174.198-.522.198-.384 0-.732-.024-1.044-.072a4.398 4.398 0 0 0-.72-.054c-.216 0-.435.009-.657.027a6.737 6.737 0 0 1-.477.027c-.48.048-.882.072-1.206.072-.348 0-.522-.066-.522-.198 0-.084.048-.15.144-.198a1.75 1.75 0 0 1 .45-.126c.468-.084.804-.225 1.008-.423.204-.198.306-.513.306-.945v-7.668c0-.504-.021-.861-.063-1.071-.042-.21-.138-.363-.288-.459-.15-.096-.399-.162-.747-.198-.192-.012-.339-.054-.441-.126-.102-.072-.153-.15-.153-.234 0-.132.174-.198.522-.198.516 0 .852.006 1.008.018h.756c.18 0 .45-.012.81-.036a29.865 29.865 0 0 1 1.26-.054c1.32 0 2.325.249 3.015.747s1.035 1.233 1.035 2.205c0 1.296-.708 2.304-2.124 3.024-.036.012-.054.042-.054.09 0 .036.018.084.054.144.756 1.14 1.365 2.016 1.827 2.628.462.612 1.071 1.26 1.827 1.944.288.252.582.414.882.486.3.072.696.108 1.188.108.18 0 .27.066.27.198 0 .228-.159.39-.477.486a3.376 3.376 0 0 1-.981.144zm-6.732-6.3c.528 0 .999-.123 1.413-.369.414-.246.732-.573.954-.981.222-.408.333-.846.333-1.314 0-.852-.18-1.515-.54-1.989-.36-.474-1.062-.711-2.106-.711-.372 0-.621.117-.747.351-.126.234-.201.675-.225 1.323a107.32 107.32 0 0 0-.036 3.06c0 .276.072.45.216.522.144.072.39.108.738.108z"/>
    </g>
</svg>
