<?xml version="1.0" encoding="UTF-8"?>
<svg width="200px" height="140px" viewBox="0 0 200 140" version="1.1" xmlns="http://www.w3.org/2000/svg" xmlns:xlink="http://www.w3.org/1999/xlink">
    <title>Logo / VLADIMIR W Copy</title>
    <g id="Logo-/-VLADIMIR-W-Copy" stroke="none" stroke-width="1" fill="none" fill-rule="evenodd">
        <g id="Combined-Shape" transform="translate(70.000000, 0.000000)" fill="#FFFFFF">
            <path d="M30.0360427,0 C44.9347433,0 52,16.6676155 52,30.2445007 C52,47.3186128 42.2069829,60 29.9652332,60 C17.7941653,60 8,47.1538542 8,29.6758827 C8,12.7637665 17.7233558,0 30.0360427,0 Z M29.6060823,1.03978735 C21.2619168,1.03978735 11.6001844,8.82161619 11.6001844,28.3583164 C11.6001844,46.7703384 19.7691761,58.9603382 30.4830994,58.9603382 C40.759152,58.9603382 48.401219,48.0673099 48.401219,31.6416836 C48.401219,13.0573683 39.7930809,1.03978735 29.6060823,1.03978735 Z M19.1006227,13.1589559 C20.486226,13.2804338 21.8736031,13.3833091 23.2618671,13.4698293 C27.3074334,13.7215245 31.379607,13.8658496 35.4301146,13.6488625 C37.2737424,13.5502319 39.1376424,13.3096484 40.9517488,13.7841985 C41.931275,14.0403882 42.8992715,14.5289215 43.4624579,15.3898786 C43.9899146,16.1964016 44.2112614,17.4227911 43.5037625,18.1996001 C42.9456441,18.8126076 42.0012141,18.845318 41.240754,18.6561721 C40.7666385,18.5380651 40.031392,18.1852425 39.9581587,17.6265443 C39.8813779,17.0397551 40.905883,17.0965613 41.0722415,16.6545966 C41.2962491,16.0595674 40.4626825,15.584393 40.0147941,15.4832654 C39.236976,15.3074784 38.3846577,15.3076032 37.5906219,15.2711474 C36.652907,15.2281994 35.7143052,15.2079739 34.7762102,15.1821302 C32.3459563,15.1149616 29.9182364,14.925566 27.4869689,14.9226945 C26.0333524,14.9210964 24.577952,14.9630456 23.1264763,15.0524413 L22.0386946,15.1284452 L21.594144,15.1625639 C21.0010126,15.2117244 20.4119031,15.2932456 19.8941517,15.6193506 C18.8849774,16.254706 19.1855124,17.6039467 19.1934946,18.6153465 C19.204771,20.0397462 19.2055312,21.4642706 19.2051511,22.8886702 C19.2048977,24.0704887 19.2028705,25.2521823 19.1994496,26.4338759 C19.1979291,26.956368 19.1122792,27.610201 19.3995106,28.0688954 C19.8237059,28.7463248 20.6414348,27.9069665 21.0319276,27.6236847 C21.9467096,26.9599886 22.9059637,26.3557206 23.915138,25.8407194 C26.0236978,24.7643981 28.2879733,24.1611289 30.6601981,24.0561311 C32.9204191,23.9558775 35.223085,24.1139361 37.398543,24.7582806 C38.3384118,25.0365685 39.25142,25.407619 40.1048786,25.886414 C40.1854605,25.9317341 40.454447,26.0341101 40.4941044,26.1150121 C40.5234991,26.1748147 40.4468449,26.4070334 40.4332879,26.4719548 C40.3817205,26.7204038 40.311148,26.9647329 40.2241043,27.203194 C40.0264506,27.7442886 39.7432736,28.2526728 39.4071356,28.7218545 C39.3298479,28.5905136 39.2417907,28.4655399 39.1471449,28.34581 C38.3110443,27.2884657 37.0027287,26.6602267 35.7268486,26.2856804 C33.0325496,25.4948883 30.0897897,25.5691733 27.3948572,26.2936707 C24.6358139,27.0352724 21.9706561,28.2817625 19.553199,29.7793235 C19.2714158,29.9538621 19.3242501,29.977084 19.3327391,30.2973211 L19.3530905,31.0627845 L19.3530905,31.0627845 L19.3735369,31.8283415 L19.6132554,40.8308118 C19.6202239,41.0892487 19.6378354,41.3500578 19.6340343,41.6087445 C19.6326406,41.6963883 19.6166763,41.7760418 19.6264323,41.8665572 C19.6404961,41.9977732 19.7066341,42.1055177 19.7302005,42.2301168 C19.7708715,42.4467294 19.8161038,42.307523 19.6673567,42.4296251 C19.6212375,42.4673295 19.5172159,42.4980423 19.4550057,42.5183926 C19.1154467,42.6292583 19.0112984,42.7150294 19.0112984,43.0609854 C19.0112984,43.7766185 18.993687,44.4943741 19.0112984,45.2096327 C19.021154,45.6085869 19.2415738,45.6666384 19.5299153,45.6731983 L19.6930711,45.6734093 L19.7780935,45.6729465 L26.2558142,45.6729465 C26.354261,45.6729465 26.4734867,45.6910496 26.5707932,45.6729465 C27.0049979,45.5929184 26.8724685,45.0869064 26.8592916,44.761925 C29.8930229,45.0420857 32.9660315,44.9824079 35.872935,43.9941051 C38.1603967,43.2162972 40.5218519,41.8400893 41.9161976,39.8296495 C42.5402006,38.9299893 42.9488116,37.8580377 43.122012,36.7855868 C43.3209328,35.5547028 43.1688914,34.2873629 42.6401677,33.1516137 C42.4731757,32.7927983 42.2726078,32.4499636 42.0451793,32.1251071 C41.9637105,32.0088729 41.7077743,31.7725341 41.6763524,31.6414429 C41.6472112,31.5199651 41.6935838,31.5195905 41.799886,31.4173394 C41.8727391,31.3470495 41.9445787,31.2761354 42.0154046,31.2039728 C42.4838186,30.7264263 42.8588538,30.2137973 43.1726925,29.6273826 C43.336517,29.7742047 43.4338235,29.8758316 43.4845039,29.9418766 C44.2452173,30.7064505 44.8602245,31.6185956 45.2816324,32.6014051 C46.74465,36.0130226 45.9062688,40.0004426 43.373387,42.6835675 C42.8811532,43.2050609 42.3227815,43.5974605 41.7749259,44.0474155 C41.4874411,44.2833797 41.229731,44.5370724 40.9167793,44.7481916 C38.4763893,46.3950718 35.3029067,46.8796098 32.4131079,46.9716234 C29.9748718,47.0491545 27.5159834,46.9475276 25.0767337,46.907576 C23.2512242,46.8774874 21.4079765,46.8498958 19.5975444,46.5943304 C18.9395856,46.5014429 18.2811199,46.3759699 17.6506552,46.16535 C17.1694444,46.0045448 16.5014762,45.7698291 16.1590031,45.3809252 C15.7572339,44.9248527 16.2303358,44.0537828 16.3404391,43.536784 C16.5439211,42.5823152 16.602457,41.6042499 16.6042308,40.6310538 C16.6089187,37.9112233 16.6180412,35.1913929 16.6288108,32.4715624 C16.6378066,30.2326494 16.6269103,27.9924879 16.657572,25.7536998 C16.6640337,25.2845181 16.7253571,24.8149619 16.7604533,24.3469039 C16.8687827,22.897909 16.9501248,21.4459178 16.9782525,19.9931776 C17.0043529,18.6449357 17.0489517,17.2315228 16.7665349,15.9041307 C16.6128465,15.1812563 16.2986277,14.4271697 16.3092706,13.678951 C16.3162392,13.1891693 16.6129732,13.0233701 17.0799935,13.0038937 C17.7439073,12.976427 18.4411434,13.1012758 19.1006227,13.1589559 Z M30.0815288,16.5697993 C32.8015481,16.593146 35.6178603,17.0145106 38.1556835,18.0003165 C40.9980961,19.1046039 43.7207761,21.1471298 44.0551403,24.3537456 C44.2459522,26.1850273 43.6969563,28.0682462 42.8007994,29.6620656 C42.0665665,30.967734 40.8227417,31.9658999 39.5723285,32.7721733 C37.0280436,34.4125613 34.0523414,35.2770141 31.0372352,35.5228414 C29.5127675,35.6470659 27.9126593,35.6548065 26.398581,35.4208399 C25.9419503,35.3503004 25.4170276,35.2780129 24.9685057,35.4304533 C24.327018,35.6485641 24.5009786,36.1930296 24.5780129,36.7091544 C24.7365159,37.7714926 24.7629965,38.857552 24.7892236,39.9295036 C24.8008801,40.4074246 24.8230528,40.8878427 24.7890969,41.3641408 C24.7341086,42.1353316 24.9491204,42.9131395 25.5180084,43.4688413 C25.742396,43.6880758 26.0104956,43.8613659 26.2959531,43.9934559 C26.5377552,44.1054313 26.5290832,44.1477628 26.5324466,44.3604448 L26.5347847,44.4486545 L26.5720349,45.3660432 L20.0929204,45.3660432 C19.8975473,45.3660432 19.6469325,45.4076179 19.4552337,45.3660432 C19.2921694,45.330711 19.3735115,45.4121124 19.3227044,45.2665388 C19.2412537,45.0327149 19.2994328,44.6536893 19.3177176,44.3688659 L19.3227044,44.2354128 L19.3227044,43.0856805 C19.3227044,43.0461034 19.2971108,42.8955358 19.3227044,42.8599539 C19.3647692,42.8017744 19.8248209,42.6921571 19.904896,42.6447146 C20.242301,42.4439578 20.5055859,42.1475668 20.7050135,41.8153442 C21.2856846,40.848016 21.3383923,39.6530884 21.4177072,38.5584144 C21.5112126,37.2672284 21.5493496,35.9720472 21.5696218,34.6778649 C21.5912877,33.3006581 21.5883736,31.9229519 21.5637936,30.5456203 C21.558092,30.2243844 21.5511234,29.9031485 21.5427612,29.5819127 C21.5390868,29.4438299 21.4982891,29.2543095 21.5295843,29.1210959 C21.5630333,28.9787683 21.545802,29.0248375 21.6613534,28.9374433 C21.9678434,28.705724 22.4099035,28.5542824 22.7563044,28.3883584 C23.1191763,28.2145689 23.4852158,28.0470219 23.8540427,27.8858421 C23.901429,29.20025 23.9832779,30.5197766 24.1858729,31.8209505 C24.2280644,32.0918723 24.2758307,32.3621699 24.3327195,32.6305948 C24.3616074,32.7661805 24.3842584,33.0779712 24.4617906,33.2342608 L24.5054131,33.2979114 L24.560043,33.3293288 C24.6768397,33.3739825 24.9057464,33.3830167 24.9973935,33.4002874 C25.2374921,33.4454827 25.4788577,33.4850598 25.7206034,33.5206417 C26.7404206,33.670585 27.7760755,33.7483658 28.8108434,33.7481161 L28.9253812,33.7473826 L28.9253812,33.7473826 L29.0406792,33.7459937 L28.8945928,33.7477416 C29.7233448,33.744121 30.5512098,33.6914348 31.3698256,33.5774478 C33.4908021,33.2820557 35.5128251,32.5556855 37.231779,31.2819784 C38.8605217,30.0750653 40.3900574,28.4571501 40.7643325,26.4141248 C41.0981899,24.591957 40.4548017,22.6433174 39.082502,21.3852164 C38.1304699,20.5122738 36.9763496,19.8071279 35.8067717,19.251426 C34.6077991,18.6817411 33.1408537,18.4955916 31.8335517,18.3501428 C29.5966437,18.1013192 27.3257797,18.1853424 25.1042025,18.530799 C24.8751269,18.5665057 24.1254365,18.597593 24.0252159,18.7737547 C23.9675669,18.875007 24.0020296,19.1390622 23.9955679,19.2491788 C23.9512225,20.004389 23.9157462,20.7600986 23.8873651,21.5160579 C23.8449203,22.6433174 23.8184397,23.7713261 23.8123581,24.8993347 C23.8115979,25.036169 23.8814102,25.4353105 23.8112178,25.5474247 C23.7872713,25.5857532 23.7025082,25.5913714 23.6671586,25.6220842 C23.493198,25.7730264 23.2110346,25.8642908 23.0072992,25.9799008 C22.4709735,26.2841573 21.9494717,26.6131338 21.4411469,26.9609624 C21.3667733,25.3673927 21.2820103,23.7724497 21.1160318,22.1852473 C20.9810952,20.8966831 20.8510998,19.5151067 20.3543048,18.3029499 C20.2829721,18.1291605 20.2022635,17.9573686 20.0972283,17.8005585 C19.9881386,17.6381302 19.7917519,17.4819444 19.7479133,17.2868058 C19.6727795,16.9519614 20.0792367,16.9485905 20.3199688,16.992787 C21.2032022,17.1543413 22.0471583,17.113266 22.9453424,17.0060209 C24.3548922,16.8377248 25.743663,16.627854 27.1653761,16.5729205 C28.1383139,16.5353411 29.1088444,16.5615593 30.0815288,16.5697993 Z"></path>
        </g>
        <g id="Group" transform="translate(68.000000, 127.000000)" fill="#FFFFFF">
            <g transform="translate(39.000000, 0.000000)" id="STAR">
                <polygon id="Fill-1" points="6.5 0.866666667 5.16966667 4.95906667 0.866666667 4.95906667 4.34893333 7.48886667 3.0186 11.5812667 6.5 9.05233333 9.98226667 11.5812667 8.65193333 7.48886667 12.1333333 4.95906667 7.83033333 4.95906667"></polygon>
            </g>
            <g transform="translate(13.000000, 0.000000)" id="STAR">
                <polygon id="Fill-1" points="6.5 0.866666667 5.16966667 4.95906667 0.866666667 4.95906667 4.34893333 7.48886667 3.0186 11.5812667 6.5 9.05233333 9.98226667 11.5812667 8.65193333 7.48886667 12.1333333 4.95906667 7.83033333 4.95906667"></polygon>
            </g>
            <g transform="translate(52.000000, 0.000000)" id="STAR">
                <polygon id="Fill-1" points="6.5 0.866666667 5.16966667 4.95906667 0.866666667 4.95906667 4.34893333 7.48886667 3.0186 11.5812667 6.5 9.05233333 9.98226667 11.5812667 8.65193333 7.48886667 12.1333333 4.95906667 7.83033333 4.95906667"></polygon>
            </g>
            <g transform="translate(26.000000, 0.000000)" id="STAR">
                <polygon id="Fill-1" points="6.5 0.866666667 5.16966667 4.95906667 0.866666667 4.95906667 4.34893333 7.48886667 3.0186 11.5812667 6.5 9.05233333 9.98226667 11.5812667 8.65193333 7.48886667 12.1333333 4.95906667 7.83033333 4.95906667"></polygon>
            </g>
            <g id="STAR">
                <polygon id="Fill-1" points="6.5 0.866666667 5.16966667 4.95906667 0.866666667 4.95906667 4.34893333 7.48886667 3.0186 11.5812667 6.5 9.05233333 9.98226667 11.5812667 8.65193333 7.48886667 12.1333333 4.95906667 7.83033333 4.95906667"></polygon>
            </g>
        </g>
        <path d="M45.316,94.504 C45.524,94.504 45.78,94.484 46.084,94.444 C46.388,94.404 46.66,94.324 46.9,94.204 C47.14,94.084 47.26,93.904 47.26,93.664 C47.26,93.488 47.14,93.4 46.9,93.4 C46.34,93.4 45.844,93.36 45.412,93.28 C44.98,93.2 44.556,92.976 44.14,92.608 C43.388,91.92 42.74,91.256 42.196,90.616 C41.652,89.976 41.152,89.32 40.696,88.648 C40.24,87.976 39.764,87.264 39.268,86.512 C39.22,86.432 39.192,86.364 39.184,86.308 C39.176,86.252 39.204,86.216 39.268,86.2 C39.716,85.976 40.156,85.688 40.588,85.336 C41.02,84.984 41.38,84.548 41.668,84.028 C41.956,83.508 42.1,82.888 42.1,82.168 C42.1,80.856 41.64,79.872 40.72,79.216 C39.8,78.56 38.46,78.232 36.7,78.232 C36.236,78.232 35.856,78.24 35.56,78.256 C35.264,78.272 34.996,78.292 34.756,78.316 C34.516,78.34 34.244,78.352 33.94,78.352 C33.62,78.352 33.364,78.348 33.172,78.34 C32.98,78.332 32.776,78.328 32.56,78.328 L32.56,78.328 L31.588,78.328 C31.38,78.328 31.212,78.348 31.084,78.388 C30.956,78.428 30.892,78.496 30.892,78.592 C30.892,78.704 30.956,78.804 31.084,78.892 C31.212,78.98 31.412,79.04 31.684,79.072 C32.148,79.12 32.48,79.208 32.68,79.336 C32.88,79.464 33.008,79.684 33.064,79.996 C33.12,80.308 33.148,80.768 33.148,81.376 L33.148,81.376 L33.148,91.6 C33.148,92.192 33.008,92.616 32.728,92.872 C32.448,93.128 32.004,93.312 31.396,93.424 C30.868,93.52 30.604,93.664 30.604,93.856 C30.604,93.952 30.668,94.02 30.796,94.06 C30.924,94.1 31.092,94.12 31.3,94.12 C31.732,94.12 32.104,94.104 32.416,94.072 C32.728,94.04 33.04,94.012 33.352,93.988 C33.664,93.964 34.02,93.952 34.42,93.952 C34.724,93.952 34.968,93.964 35.152,93.988 C35.336,94.012 35.544,94.04 35.776,94.072 C36.008,94.104 36.34,94.12 36.772,94.12 C36.98,94.12 37.148,94.1 37.276,94.06 C37.404,94.02 37.468,93.952 37.468,93.856 C37.468,93.744 37.404,93.656 37.276,93.592 C37.148,93.528 36.948,93.472 36.676,93.424 C36.084,93.312 35.668,93.068 35.428,92.692 C35.188,92.316 35.068,91.872 35.068,91.36 L35.068,91.36 L35.068,87.136 C35.068,86.992 35.096,86.872 35.152,86.776 C35.208,86.68 35.3,86.64 35.428,86.656 C35.652,86.672 35.936,86.716 36.28,86.788 C36.624,86.86 36.972,86.984 37.324,87.16 C37.772,87.384 38.116,87.696 38.356,88.096 C38.916,88.992 39.392,89.728 39.784,90.304 C40.176,90.88 40.548,91.388 40.9,91.828 C41.252,92.268 41.62,92.728 42.004,93.208 C42.292,93.544 42.604,93.808 42.94,94 C43.276,94.192 43.644,94.324 44.044,94.396 C44.444,94.468 44.868,94.504 45.316,94.504 Z M36.34,86.104 C35.94,86.104 35.628,86.064 35.404,85.984 C35.18,85.904 35.068,85.664 35.068,85.264 C35.068,84.304 35.072,83.484 35.08,82.804 C35.088,82.124 35.1,81.584 35.116,81.184 C35.148,80.352 35.244,79.772 35.404,79.444 C35.564,79.116 35.9,78.952 36.412,78.952 C37.42,78.952 38.176,79.116 38.68,79.444 C39.184,79.772 39.52,80.208 39.688,80.752 C39.856,81.296 39.94,81.896 39.94,82.552 C39.94,83.16 39.792,83.736 39.496,84.28 C39.2,84.824 38.784,85.264 38.248,85.6 C37.712,85.936 37.076,86.104 36.34,86.104 Z M56.068,94.336 C57.252,94.336 58.312,94.068 59.248,93.532 C60.184,92.996 60.932,92.248 61.492,91.288 C62.052,90.328 62.348,89.232 62.38,88 C62.412,86.896 62.44,85.776 62.464,84.64 C62.488,83.504 62.54,82.248 62.62,80.872 C62.652,80.392 62.756,79.992 62.932,79.672 C63.108,79.352 63.404,79.152 63.82,79.072 C64.348,78.96 64.612,78.8 64.612,78.592 C64.612,78.496 64.548,78.428 64.42,78.388 C64.292,78.348 64.124,78.328 63.916,78.328 C63.74,78.328 63.548,78.336 63.34,78.352 C63.132,78.368 62.916,78.38 62.692,78.388 C62.468,78.396 62.228,78.4 61.972,78.4 C61.62,78.4 61.324,78.396 61.084,78.388 C60.844,78.38 60.54,78.376 60.172,78.376 C59.964,78.376 59.796,78.396 59.668,78.436 C59.54,78.476 59.476,78.544 59.476,78.64 C59.476,78.752 59.568,78.848 59.752,78.928 C59.936,79.008 60.108,79.072 60.268,79.12 C60.492,79.184 60.676,79.348 60.82,79.612 C60.964,79.876 61.072,80.192 61.144,80.56 C61.216,80.928 61.252,81.32 61.252,81.736 C61.268,82.344 61.284,82.98 61.3,83.644 C61.316,84.308 61.328,84.928 61.336,85.504 C61.344,86.08 61.348,86.544 61.348,86.896 C61.348,88.768 60.964,90.276 60.196,91.42 C59.428,92.564 58.22,93.136 56.572,93.136 C55.596,93.136 54.728,92.94 53.968,92.548 C53.208,92.156 52.612,91.548 52.18,90.724 C51.748,89.9 51.532,88.848 51.532,87.568 L51.532,87.568 L51.532,80.824 C51.532,80.344 51.652,79.952 51.892,79.648 C52.132,79.344 52.348,79.16 52.54,79.096 C52.812,79.016 53.012,78.944 53.14,78.88 C53.268,78.816 53.332,78.728 53.332,78.616 C53.332,78.52 53.268,78.452 53.14,78.412 C53.012,78.372 52.844,78.352 52.636,78.352 C52.38,78.352 52.088,78.36 51.76,78.376 C51.432,78.392 51.084,78.4 50.716,78.4 C50.268,78.4 49.864,78.388 49.504,78.364 C49.144,78.34 48.78,78.328 48.412,78.328 C48.204,78.328 48.036,78.348 47.908,78.388 C47.78,78.428 47.716,78.496 47.716,78.592 C47.716,78.8 47.98,78.976 48.508,79.12 C48.78,79.184 49.032,79.348 49.264,79.612 C49.496,79.876 49.612,80.296 49.612,80.872 L49.612,80.872 L49.612,88.24 C49.612,89.456 49.852,90.524 50.332,91.444 C50.812,92.364 51.532,93.076 52.492,93.58 C53.452,94.084 54.644,94.336 56.068,94.336 Z M69.748,94.384 C70.804,94.384 71.724,94.192 72.508,93.808 C73.292,93.424 73.9,92.876 74.332,92.164 C74.764,91.452 74.98,90.624 74.98,89.68 C74.98,88.88 74.808,88.204 74.464,87.652 C74.12,87.1 73.68,86.624 73.144,86.224 C72.608,85.824 72.06,85.456 71.5,85.12 C70.908,84.752 70.356,84.392 69.844,84.04 C69.332,83.688 68.92,83.316 68.608,82.924 C68.296,82.532 68.14,82.096 68.14,81.616 C68.14,80.944 68.272,80.408 68.536,80.008 C68.8,79.608 69.14,79.32 69.556,79.144 C69.972,78.968 70.42,78.88 70.9,78.88 C71.588,78.88 72.156,79.104 72.604,79.552 C73.052,80 73.444,80.648 73.78,81.496 C73.812,81.592 73.896,81.672 74.032,81.736 C74.168,81.8 74.308,81.832 74.452,81.832 C74.692,81.832 74.812,81.744 74.812,81.568 C74.812,81.184 74.756,80.776 74.644,80.344 C74.532,79.912 74.428,79.528 74.332,79.192 C74.3,79.064 74.24,78.944 74.152,78.832 C74.064,78.72 73.956,78.64 73.828,78.592 C73.572,78.48 73.232,78.364 72.808,78.244 C72.384,78.124 71.884,78.064 71.308,78.064 C70.188,78.064 69.256,78.26 68.512,78.652 C67.768,79.044 67.212,79.568 66.844,80.224 C66.476,80.88 66.292,81.616 66.292,82.432 C66.292,83.2 66.492,83.852 66.892,84.388 C67.292,84.924 67.796,85.396 68.404,85.804 C69.012,86.212 69.628,86.616 70.252,87.016 C70.828,87.368 71.316,87.696 71.716,88 C72.116,88.304 72.424,88.66 72.64,89.068 C72.856,89.476 72.964,90.008 72.964,90.664 C72.964,91.256 72.84,91.772 72.592,92.212 C72.344,92.652 72.004,92.992 71.572,93.232 C71.14,93.472 70.644,93.592 70.084,93.592 C69.396,93.592 68.736,93.328 68.104,92.8 C67.472,92.272 66.996,91.392 66.676,90.16 C66.66,90.064 66.612,89.996 66.532,89.956 C66.452,89.916 66.372,89.896 66.292,89.896 C66.164,89.896 66.052,89.924 65.956,89.98 C65.86,90.036 65.812,90.12 65.812,90.232 C65.844,90.568 65.872,90.992 65.896,91.504 C65.92,92.016 65.972,92.432 66.052,92.752 C66.084,92.848 66.128,92.936 66.184,93.016 C66.24,93.096 66.3,93.168 66.364,93.232 C66.812,93.6 67.32,93.884 67.888,94.084 C68.456,94.284 69.076,94.384 69.748,94.384 Z M80.908,94.384 C81.964,94.384 82.884,94.192 83.668,93.808 C84.452,93.424 85.06,92.876 85.492,92.164 C85.924,91.452 86.14,90.624 86.14,89.68 C86.14,88.88 85.968,88.204 85.624,87.652 C85.28,87.1 84.84,86.624 84.304,86.224 C83.768,85.824 83.22,85.456 82.66,85.12 C82.068,84.752 81.516,84.392 81.004,84.04 C80.492,83.688 80.08,83.316 79.768,82.924 C79.456,82.532 79.3,82.096 79.3,81.616 C79.3,80.944 79.432,80.408 79.696,80.008 C79.96,79.608 80.3,79.32 80.716,79.144 C81.132,78.968 81.58,78.88 82.06,78.88 C82.748,78.88 83.316,79.104 83.764,79.552 C84.212,80 84.604,80.648 84.94,81.496 C84.972,81.592 85.056,81.672 85.192,81.736 C85.328,81.8 85.468,81.832 85.612,81.832 C85.852,81.832 85.972,81.744 85.972,81.568 C85.972,81.184 85.916,80.776 85.804,80.344 C85.692,79.912 85.588,79.528 85.492,79.192 C85.46,79.064 85.4,78.944 85.312,78.832 C85.224,78.72 85.116,78.64 84.988,78.592 C84.732,78.48 84.392,78.364 83.968,78.244 C83.544,78.124 83.044,78.064 82.468,78.064 C81.348,78.064 80.416,78.26 79.672,78.652 C78.928,79.044 78.372,79.568 78.004,80.224 C77.636,80.88 77.452,81.616 77.452,82.432 C77.452,83.2 77.652,83.852 78.052,84.388 C78.452,84.924 78.956,85.396 79.564,85.804 C80.172,86.212 80.788,86.616 81.412,87.016 C81.988,87.368 82.476,87.696 82.876,88 C83.276,88.304 83.584,88.66 83.8,89.068 C84.016,89.476 84.124,90.008 84.124,90.664 C84.124,91.256 84,91.772 83.752,92.212 C83.504,92.652 83.164,92.992 82.732,93.232 C82.3,93.472 81.804,93.592 81.244,93.592 C80.556,93.592 79.896,93.328 79.264,92.8 C78.632,92.272 78.156,91.392 77.836,90.16 C77.82,90.064 77.772,89.996 77.692,89.956 C77.612,89.916 77.532,89.896 77.452,89.896 C77.324,89.896 77.212,89.924 77.116,89.98 C77.02,90.036 76.972,90.12 76.972,90.232 C77.004,90.568 77.032,90.992 77.056,91.504 C77.08,92.016 77.132,92.432 77.212,92.752 C77.244,92.848 77.288,92.936 77.344,93.016 C77.4,93.096 77.46,93.168 77.524,93.232 C77.972,93.6 78.48,93.884 79.048,94.084 C79.616,94.284 80.236,94.384 80.908,94.384 Z M96.22,94.336 C97.548,94.336 98.724,94.104 99.748,93.64 C100.772,93.176 101.628,92.552 102.316,91.768 C103.004,90.984 103.524,90.088 103.876,89.08 C104.228,88.072 104.404,87.032 104.404,85.96 C104.404,84.776 104.188,83.7 103.756,82.732 C103.324,81.764 102.74,80.932 102.004,80.236 C101.268,79.54 100.42,79.004 99.46,78.628 C98.5,78.252 97.492,78.064 96.436,78.064 C95.108,78.064 93.932,78.296 92.908,78.76 C91.884,79.224 91.028,79.848 90.34,80.632 C89.652,81.416 89.132,82.308 88.78,83.308 C88.428,84.308 88.252,85.352 88.252,86.44 C88.252,87.624 88.468,88.7 88.9,89.668 C89.332,90.636 89.916,91.468 90.652,92.164 C91.388,92.86 92.236,93.396 93.196,93.772 C94.156,94.148 95.164,94.336 96.22,94.336 Z M96.58,93.376 C95.572,93.376 94.692,93.164 93.94,92.74 C93.188,92.316 92.56,91.728 92.056,90.976 C91.552,90.224 91.176,89.36 90.928,88.384 C90.68,87.408 90.556,86.36 90.556,85.24 C90.556,83.992 90.764,82.908 91.18,81.988 C91.596,81.068 92.212,80.352 93.028,79.84 C93.844,79.328 94.852,79.072 96.052,79.072 C97.06,79.072 97.94,79.28 98.692,79.696 C99.444,80.112 100.072,80.692 100.576,81.436 C101.08,82.18 101.46,83.04 101.716,84.016 C101.972,84.992 102.1,86.032 102.1,87.136 C102.1,88.384 101.896,89.476 101.488,90.412 C101.08,91.348 100.468,92.076 99.652,92.596 C98.836,93.116 97.812,93.376 96.58,93.376 Z M106.324,89.92 C107.14,89.84 107.92,89.748 108.664,89.644 C109.408,89.54 110.14,89.432 110.86,89.32 C111.052,89.288 111.184,89.14 111.256,88.876 C111.328,88.612 111.364,88.328 111.364,88.024 C111.364,87.976 111.344,87.94 111.304,87.916 C111.264,87.892 111.22,87.88 111.172,87.88 C110.404,87.96 109.636,88.052 108.868,88.156 C108.1,88.26 107.332,88.368 106.564,88.48 C106.452,88.496 106.36,88.648 106.288,88.936 C106.216,89.224 106.18,89.504 106.18,89.776 C106.18,89.872 106.228,89.92 106.324,89.92 Z M113.212,94.12 C113.676,94.12 114.064,94.108 114.376,94.084 C114.688,94.06 114.988,94.04 115.276,94.024 C115.564,94.008 115.916,94 116.332,94 C116.812,94 117.26,94.016 117.676,94.048 C118.092,94.08 118.404,94.096 118.612,94.096 C119.524,94.096 120.308,94.024 120.964,93.88 C121.62,93.736 122.196,93.536 122.692,93.28 C123.028,93.104 123.388,92.88 123.772,92.608 C124.156,92.336 124.488,91.944 124.768,91.432 C125.048,90.92 125.188,90.224 125.188,89.344 C125.188,88.64 125.08,88.06 124.864,87.604 C124.648,87.148 124.368,86.78 124.024,86.5 C123.68,86.22 123.312,85.992 122.92,85.816 C122.528,85.64 122.148,85.496 121.78,85.384 C121.716,85.352 121.684,85.308 121.684,85.252 C121.684,85.196 121.716,85.16 121.78,85.144 C122.18,84.984 122.484,84.836 122.692,84.7 C122.9,84.564 123.132,84.368 123.388,84.112 C123.564,83.936 123.744,83.644 123.928,83.236 C124.112,82.828 124.204,82.352 124.204,81.808 C124.204,80.496 123.744,79.572 122.824,79.036 C121.904,78.5 120.508,78.232 118.636,78.232 C118.172,78.232 117.8,78.24 117.52,78.256 C117.24,78.272 116.988,78.292 116.764,78.316 C116.54,78.34 116.276,78.352 115.972,78.352 C115.652,78.352 115.384,78.348 115.168,78.34 C114.952,78.332 114.724,78.328 114.484,78.328 L114.484,78.328 L113.476,78.328 C113.268,78.328 113.1,78.348 112.972,78.388 C112.844,78.428 112.78,78.496 112.78,78.592 C112.78,78.704 112.844,78.804 112.972,78.892 C113.1,78.98 113.3,79.04 113.572,79.072 C114.164,79.12 114.58,79.28 114.82,79.552 C115.06,79.824 115.18,80.248 115.18,80.824 L115.18,80.824 L115.18,91.624 C115.18,92.2 115.02,92.616 114.7,92.872 C114.38,93.128 113.916,93.312 113.308,93.424 C112.78,93.52 112.516,93.664 112.516,93.856 C112.516,93.952 112.58,94.02 112.708,94.06 C112.836,94.1 113.004,94.12 113.212,94.12 Z M118.156,85.096 C117.964,85.096 117.732,85.052 117.46,84.964 C117.188,84.876 117.052,84.624 117.052,84.208 L117.052,84.208 L117.052,80.032 C117.052,79.664 117.152,79.392 117.352,79.216 C117.552,79.04 117.98,78.952 118.636,78.952 C119.628,78.952 120.372,79.12 120.868,79.456 C121.364,79.792 121.7,80.204 121.876,80.692 C122.052,81.18 122.14,81.656 122.14,82.12 C122.14,82.808 122.004,83.336 121.732,83.704 C121.46,84.072 121.236,84.304 121.06,84.4 C120.564,84.672 120.064,84.856 119.56,84.952 C119.056,85.048 118.588,85.096 118.156,85.096 Z M118.948,93.112 C118.34,93.112 117.872,92.996 117.544,92.764 C117.216,92.532 117.052,92.08 117.052,91.408 L117.052,91.408 L117.052,86.632 C117.052,86.472 117.152,86.288 117.352,86.08 C117.552,85.872 117.908,85.768 118.42,85.768 C119.14,85.768 119.724,85.836 120.172,85.972 C120.62,86.108 120.948,86.24 121.156,86.368 C121.38,86.48 121.628,86.664 121.9,86.92 C122.172,87.176 122.412,87.508 122.62,87.916 C122.828,88.324 122.932,88.84 122.932,89.464 C122.932,90.152 122.748,90.772 122.38,91.324 C122.012,91.876 121.524,92.312 120.916,92.632 C120.308,92.952 119.652,93.112 118.948,93.112 Z M142.18,94.12 C142.388,94.12 142.556,94.104 142.684,94.072 C142.812,94.04 142.876,93.976 142.876,93.88 C142.876,93.768 142.812,93.66 142.684,93.556 C142.556,93.452 142.356,93.376 142.084,93.328 C141.764,93.264 141.464,93.168 141.184,93.04 C140.904,92.912 140.636,92.688 140.38,92.368 C140.124,92.048 139.884,91.568 139.66,90.928 C139.468,90.352 139.208,89.596 138.88,88.66 C138.552,87.724 138.192,86.668 137.8,85.492 C137.408,84.316 137.004,83.096 136.588,81.832 C136.172,80.568 135.772,79.328 135.388,78.112 C135.356,78.016 135.328,77.92 135.304,77.824 C135.28,77.728 135.252,77.648 135.22,77.584 C135.204,77.552 135.184,77.536 135.16,77.536 C135.136,77.536 135.116,77.544 135.1,77.56 C135.052,77.624 135,77.752 134.944,77.944 C134.888,78.136 134.788,78.28 134.644,78.376 C134.5,78.472 134.356,78.544 134.212,78.592 L134.212,78.592 L133.78,78.736 C133.764,78.992 133.724,79.232 133.66,79.456 C133.596,79.68 133.524,79.904 133.444,80.128 C133.044,81.232 132.664,82.252 132.304,83.188 C131.944,84.124 131.596,85.024 131.26,85.888 C130.924,86.752 130.568,87.632 130.192,88.528 C129.816,89.424 129.404,90.384 128.956,91.408 C128.7,92 128.396,92.424 128.044,92.68 C127.692,92.936 127.308,93.128 126.892,93.256 C126.636,93.336 126.44,93.42 126.304,93.508 C126.168,93.596 126.1,93.696 126.1,93.808 C126.1,93.904 126.164,93.98 126.292,94.036 C126.42,94.092 126.588,94.12 126.796,94.12 C127.196,94.12 127.644,94.096 128.14,94.048 C128.636,94 129.148,93.976 129.676,93.976 C130.124,93.976 130.548,93.984 130.948,94 C131.348,94.016 131.652,94.024 131.86,94.024 C132.068,94.024 132.236,94.004 132.364,93.964 C132.492,93.924 132.556,93.856 132.556,93.76 C132.556,93.584 132.292,93.424 131.764,93.28 C131.38,93.184 131.052,93.02 130.78,92.788 C130.508,92.556 130.372,92.264 130.372,91.912 C130.372,91.832 130.412,91.64 130.492,91.336 C130.572,91.032 130.668,90.688 130.78,90.304 C130.892,89.92 131.004,89.556 131.116,89.212 C131.228,88.868 131.308,88.616 131.356,88.456 C131.42,88.28 131.488,88.164 131.56,88.108 C131.632,88.052 131.7,88.024 131.764,88.024 L131.764,88.024 L136.3,88.024 C136.524,88.024 136.68,88.036 136.768,88.06 C136.856,88.084 136.916,88.16 136.948,88.288 C137.076,88.688 137.212,89.148 137.356,89.668 C137.5,90.188 137.624,90.676 137.728,91.132 C137.832,91.588 137.884,91.936 137.884,92.176 C137.884,92.432 137.772,92.656 137.548,92.848 C137.324,93.04 136.948,93.176 136.42,93.256 C136.212,93.288 136.028,93.344 135.868,93.424 C135.708,93.504 135.628,93.6 135.628,93.712 C135.628,93.808 135.692,93.88 135.82,93.928 C135.948,93.976 136.116,94 136.324,94 C136.516,94 136.748,93.996 137.02,93.988 C137.292,93.98 137.588,93.976 137.908,93.976 L137.908,93.976 L138.844,93.976 C139.212,93.976 139.612,93.988 140.044,94.012 C140.476,94.036 140.884,94.06 141.268,94.084 C141.652,94.108 141.956,94.12 142.18,94.12 Z M136.132,87.232 L132.412,87.232 C132.252,87.232 132.128,87.224 132.04,87.208 C131.952,87.192 131.908,87.144 131.908,87.064 C131.908,87.032 131.924,86.968 131.956,86.872 L131.956,86.872 L134.14,80.992 C134.236,80.72 134.3,80.584 134.332,80.584 C134.38,80.584 134.452,80.728 134.548,81.016 L134.548,81.016 L136.42,86.872 C136.436,86.92 136.448,86.964 136.456,87.004 C136.464,87.044 136.468,87.08 136.468,87.112 C136.468,87.192 136.356,87.232 136.132,87.232 L136.132,87.232 Z M144.076,94.12 C144.076,94.12 144.264,94.108 144.64,94.084 C145.016,94.06 145.456,94.04 145.96,94.024 C146.464,94.008 146.916,94 147.316,94 C147.924,94 148.54,94.008 149.164,94.024 C149.788,94.04 150.44,94.052 151.12,94.06 C151.8,94.068 152.508,94.08 153.244,94.096 C153.98,94.112 154.748,94.12 155.548,94.12 C155.676,94.12 155.76,94.08 155.8,94 C155.84,93.92 155.868,93.824 155.884,93.712 C155.916,93.376 155.96,93.056 156.016,92.752 C156.072,92.448 156.144,92.128 156.232,91.792 C156.32,91.456 156.42,91.08 156.532,90.664 C156.532,90.648 156.536,90.628 156.544,90.604 L156.553,90.571 L156.553,90.571 L156.556,90.544 C156.556,90.448 156.532,90.352 156.484,90.256 C156.436,90.16 156.364,90.112 156.268,90.112 C156.156,90.112 156.048,90.208 155.944,90.4 C155.84,90.592 155.772,90.736 155.74,90.832 C155.532,91.264 155.352,91.588 155.2,91.804 C155.048,92.02 154.812,92.264 154.492,92.536 C154.332,92.68 154.088,92.82 153.76,92.956 C153.432,93.092 153.052,93.16 152.62,93.16 L152.62,93.16 L149.644,93.16 C148.86,93.16 148.356,93.04 148.132,92.8 C147.908,92.56 147.796,92.192 147.796,91.696 L147.796,91.696 L147.796,80.392 C147.796,79.928 148.004,79.62 148.42,79.468 C148.836,79.316 149.34,79.184 149.932,79.072 C150.204,79.024 150.404,78.96 150.532,78.88 C150.66,78.8 150.724,78.704 150.724,78.592 C150.724,78.496 150.66,78.428 150.532,78.388 C150.404,78.348 150.236,78.328 150.028,78.328 C149.596,78.328 149.228,78.336 148.924,78.352 C148.62,78.368 148.324,78.38 148.036,78.388 C147.748,78.396 147.404,78.4 147.004,78.4 L146.79952,78.39952 C146.53584,78.39824 146.308,78.3944 146.116,78.388 C145.876,78.38 145.624,78.368 145.36,78.352 C145.096,78.336 144.748,78.328 144.316,78.328 C144.108,78.328 143.94,78.348 143.812,78.388 C143.684,78.428 143.62,78.496 143.62,78.592 C143.62,78.816 143.884,78.976 144.412,79.072 C144.812,79.136 145.116,79.212 145.324,79.3 C145.532,79.388 145.676,79.524 145.756,79.708 C145.836,79.892 145.876,80.176 145.876,80.56 L145.876,80.56 L145.876,91.696 C145.876,92.224 145.708,92.612 145.372,92.86 C145.036,93.108 144.556,93.296 143.932,93.424 C143.884,93.44 143.784,93.476 143.632,93.532 C143.48,93.588 143.404,93.688 143.404,93.832 C143.404,93.912 143.464,93.98 143.584,94.036 C143.704,94.092 143.868,94.12 144.076,94.12 Z M164.908,94.12 C165.116,94.12 165.284,94.1 165.412,94.06 C165.54,94.02 165.604,93.952 165.604,93.856 C165.604,93.744 165.54,93.656 165.412,93.592 C165.284,93.528 165.084,93.472 164.812,93.424 C164.22,93.312 163.756,93.116 163.42,92.836 C163.084,92.556 162.916,92.128 162.916,91.552 L162.916,91.552 L162.916,82.12 C162.916,81.24 162.94,80.608 162.988,80.224 C163.036,79.84 163.148,79.6 163.324,79.504 C163.5,79.408 163.764,79.36 164.116,79.36 L164.116,79.36 L166.54,79.36 C167.308,79.36 167.852,79.46 168.172,79.66 C168.492,79.86 168.684,80.128 168.748,80.464 C168.812,80.768 168.876,81.008 168.94,81.184 C169.004,81.36 169.092,81.448 169.204,81.448 C169.332,81.448 169.428,81.356 169.492,81.172 C169.556,80.988 169.588,80.824 169.588,80.68 L169.588,80.68 L169.588,80.392 C169.588,80.184 169.596,80.032 169.612,79.936 C169.628,79.84 169.656,79.728 169.696,79.6 C169.736,79.472 169.78,79.264 169.828,78.976 C169.836,78.936 169.845,78.888 169.855,78.832 L169.888,78.64 C169.912,78.496 169.924,78.384 169.924,78.304 C169.924,78.176 169.908,78.052 169.876,77.932 C169.844,77.812 169.804,77.752 169.756,77.752 C169.564,77.752 169.408,77.808 169.288,77.92 C169.168,78.032 169.012,78.136 168.82,78.232 C168.564,78.344 168.26,78.432 167.908,78.496 C167.556,78.56 167.1,78.592 166.54,78.592 L166.54,78.592 L158.092,78.592 C157.756,78.592 157.416,78.552 157.072,78.472 C156.728,78.392 156.508,78.272 156.412,78.112 C156.348,77.984 156.248,77.824 156.112,77.632 C155.976,77.44 155.876,77.344 155.812,77.344 C155.748,77.344 155.672,77.368 155.584,77.416 C155.496,77.464 155.436,77.624 155.404,77.896 C155.34,78.392 155.256,78.82 155.152,79.18 C155.048,79.54 154.884,79.952 154.66,80.416 C154.58,80.576 154.54,80.736 154.54,80.896 C154.54,80.976 154.552,81.048 154.576,81.112 C154.6,81.176 154.644,81.208 154.708,81.208 C154.836,81.208 154.964,81.152 155.092,81.04 C155.22,80.928 155.34,80.796 155.452,80.644 C155.564,80.492 155.644,80.376 155.692,80.296 C155.868,79.976 156.144,79.74 156.52,79.588 C156.896,79.436 157.276,79.36 157.66,79.36 L157.66,79.36 L158.788,79.36 C159.204,79.36 159.536,79.364 159.784,79.372 C160.032,79.38 160.268,79.408 160.492,79.456 C160.62,79.472 160.72,79.56 160.792,79.72 C160.864,79.88 160.916,80.156 160.948,80.548 C160.98,80.94 160.996,81.504 160.996,82.24 L160.996,91.552 C160.996,92.128 160.836,92.556 160.516,92.836 C160.196,93.116 159.732,93.312 159.124,93.424 C158.852,93.472 158.652,93.528 158.524,93.592 C158.396,93.656 158.332,93.744 158.332,93.856 C158.332,93.952 158.396,94.02 158.524,94.06 C158.652,94.1 158.82,94.12 159.028,94.12 C159.46,94.12 159.832,94.108 160.144,94.084 C160.456,94.06 160.76,94.04 161.056,94.024 C161.352,94.008 161.7,94 162.1,94 C162.468,94 162.78,94.008 163.036,94.024 C163.292,94.04 163.56,94.06 163.84,94.084 C164.12,94.108 164.476,94.12 164.908,94.12 Z" id="RUSSO-BALT" fill="#FFFFFF" fill-rule="nonzero"></path>
        <path d="M14.59,114 L14.59,113.36 L10.38,113.36 L10.38,110.76 L14,110.76 L14,110.13 L10.38,110.13 L10.38,107.64 L14.44,107.64 L14.44,107 L9.64,107 L9.64,114 L14.59,114 Z M18.43,114 L18.43,107.64 L20.89,107.64 L20.89,107 L15.23,107 L15.23,107.64 L17.69,107.64 L17.69,114 L18.43,114 Z M22.81,114 L22.81,110.77 L27.19,110.77 L27.19,114 L27.92,114 L27.92,107 L27.19,107 L27.19,110.12 L22.81,110.12 L22.81,107 L22.07,107 L22.07,114 L22.81,114 Z M30.94,114 L30.94,108.32 L35.44,114 L36.05,114 L36.05,107 L35.32,107 L35.32,112.68 L30.81,107 L30.2,107 L30.2,114 L30.94,114 Z M41.39,114.06 C42.0833333,114.06 42.7083333,113.906667 43.265,113.6 C43.8216667,113.293333 44.26,112.868333 44.58,112.325 C44.9,111.781667 45.06,111.173333 45.06,110.5 C45.06,109.826667 44.9,109.218333 44.58,108.675 C44.26,108.131667 43.8216667,107.706667 43.265,107.4 C42.7083333,107.093333 42.0833333,106.94 41.39,106.94 C40.6966667,106.94 40.0683333,107.095 39.505,107.405 C38.9416667,107.715 38.5016667,108.14 38.185,108.68 C37.8683333,109.22 37.71,109.826667 37.71,110.5 C37.71,111.173333 37.8683333,111.78 38.185,112.32 C38.5016667,112.86 38.9416667,113.285 39.505,113.595 C40.0683333,113.905 40.6966667,114.06 41.39,114.06 Z M41.39,113.4 C40.8366667,113.4 40.335,113.275 39.885,113.025 C39.435,112.775 39.0816667,112.428333 38.825,111.985 C38.5683333,111.541667 38.44,111.046667 38.44,110.5 C38.44,109.953333 38.5683333,109.458333 38.825,109.015 C39.0816667,108.571667 39.435,108.225 39.885,107.975 C40.335,107.725 40.8366667,107.6 41.39,107.6 C41.9433333,107.6 42.4433333,107.725 42.89,107.975 C43.3366667,108.225 43.6866667,108.571667 43.94,109.015 C44.1933333,109.458333 44.32,109.953333 44.32,110.5 C44.32,111.046667 44.1933333,111.541667 43.94,111.985 C43.6866667,112.428333 43.3366667,112.775 42.89,113.025 C42.4433333,113.275 41.9433333,113.4 41.39,113.4 Z M49.79,114.06 C50.2833333,114.06 50.7533333,113.983333 51.2,113.83 C51.6466667,113.676667 52.0333333,113.456667 52.36,113.17 L52.36,113.17 L52.36,110.5 L51.65,110.5 L51.65,112.86 C51.15,113.22 50.54,113.4 49.82,113.4 C49.2533333,113.4 48.7433333,113.273333 48.29,113.02 C47.8366667,112.766667 47.48,112.42 47.22,111.98 C46.96,111.54 46.83,111.046667 46.83,110.5 C46.83,109.953333 46.96,109.458333 47.22,109.015 C47.48,108.571667 47.8383333,108.225 48.295,107.975 C48.7516667,107.725 49.2633333,107.6 49.83,107.6 C50.6833333,107.6 51.3866667,107.873333 51.94,108.42 L51.94,108.42 L52.4,107.95 C52.0933333,107.616667 51.7166667,107.365 51.27,107.195 C50.8233333,107.025 50.3333333,106.94 49.8,106.94 C49.0933333,106.94 48.46,107.093333 47.9,107.4 C47.34,107.706667 46.9,108.131667 46.58,108.675 C46.26,109.218333 46.1,109.826667 46.1,110.5 C46.1,111.173333 46.26,111.781667 46.58,112.325 C46.9,112.868333 47.34,113.293333 47.9,113.6 C48.46,113.906667 49.09,114.06 49.79,114.06 Z M55.19,114 L55.19,111.78 L57.07,111.78 C57.2633333,111.78 57.45,111.77 57.63,111.75 L57.63,111.75 L59.23,114 L60.04,114 L58.33,111.6 C58.8433333,111.433333 59.2383333,111.161667 59.515,110.785 C59.7916667,110.408333 59.93,109.946667 59.93,109.4 C59.93,108.653333 59.6766667,108.066667 59.17,107.64 C58.6633333,107.213333 57.9633333,107 57.07,107 L57.07,107 L54.45,107 L54.45,114 L55.19,114 Z M57.05,111.15 L55.19,111.15 L55.19,107.64 L57.05,107.64 C57.7433333,107.64 58.2733333,107.791667 58.64,108.095 C59.0066667,108.398333 59.19,108.833333 59.19,109.4 C59.19,109.953333 59.0066667,110.383333 58.64,110.69 C58.2733333,110.996667 57.7433333,111.15 57.05,111.15 L57.05,111.15 Z M61.33,114 L62.17,112.13 L66.07,112.13 L66.91,114 L67.69,114 L64.49,107 L63.76,107 L60.56,114 L61.33,114 Z M65.8,111.53 L62.44,111.53 L64.12,107.77 L65.8,111.53 Z M69.59,114 L69.59,111.79 L71.47,111.79 C72.3633333,111.79 73.0633333,111.578333 73.57,111.155 C74.0766667,110.731667 74.33,110.146667 74.33,109.4 C74.33,108.653333 74.0766667,108.066667 73.57,107.64 C73.0633333,107.213333 72.3633333,107 71.47,107 L71.47,107 L68.85,107 L68.85,114 L69.59,114 Z M71.45,111.14 L69.59,111.14 L69.59,107.64 L71.45,107.64 C72.1433333,107.64 72.6733333,107.791667 73.04,108.095 C73.4066667,108.398333 73.59,108.833333 73.59,109.4 C73.59,109.953333 73.4066667,110.381667 73.04,110.685 C72.6733333,110.988333 72.1433333,111.14 71.45,111.14 L71.45,111.14 Z M76.67,114 L76.67,110.77 L81.05,110.77 L81.05,114 L81.78,114 L81.78,107 L81.05,107 L81.05,110.12 L76.67,110.12 L76.67,107 L75.93,107 L75.93,114 L76.67,114 Z M84.8,114 L84.8,107 L84.06,107 L84.06,114 L84.8,114 Z M90.12,114.06 C90.64,114.06 91.1216667,113.971667 91.565,113.795 C92.0083333,113.618333 92.3833333,113.363333 92.69,113.03 L92.69,113.03 L92.22,112.56 C91.68,113.12 90.99,113.4 90.15,113.4 C89.5966667,113.4 89.0933333,113.273333 88.64,113.02 C88.1866667,112.766667 87.8316667,112.42 87.575,111.98 C87.3183333,111.54 87.19,111.046667 87.19,110.5 C87.19,109.953333 87.3183333,109.46 87.575,109.02 C87.8316667,108.58 88.1866667,108.233333 88.64,107.98 C89.0933333,107.726667 89.5966667,107.6 90.15,107.6 C90.9833333,107.6 91.6733333,107.876667 92.22,108.43 L92.22,108.43 L92.69,107.96 C92.3833333,107.626667 92.01,107.373333 91.57,107.2 C91.13,107.026667 90.65,106.94 90.13,106.94 C89.4366667,106.94 88.81,107.093333 88.25,107.4 C87.69,107.706667 87.2516667,108.131667 86.935,108.675 C86.6183333,109.218333 86.46,109.826667 86.46,110.5 C86.46,111.173333 86.6183333,111.781667 86.935,112.325 C87.2516667,112.868333 87.6883333,113.293333 88.245,113.6 C88.8016667,113.906667 89.4266667,114.06 90.12,114.06 Z M99.61,114 L102.71,107 L101.96,107 L99.26,113.08 L96.58,107 L95.78,107 L98.88,114 L99.61,114 Z M104.46,114 L104.46,107 L103.72,107 L103.72,114 L104.46,114 Z M111.4,114 L111.4,113.36 L107.48,113.36 L107.48,107 L106.74,107 L106.74,114 L111.4,114 Z M117.29,114 L117.29,113.36 L113.37,113.36 L113.37,107 L112.63,107 L112.63,114 L117.29,114 Z M118.19,114 L119.03,112.13 L122.93,112.13 L123.77,114 L124.55,114 L121.35,107 L120.62,107 L117.42,114 L118.19,114 Z M122.66,111.53 L119.3,111.53 L120.98,107.77 L122.66,111.53 Z M128.68,114.06 C129.173333,114.06 129.643333,113.983333 130.09,113.83 C130.536667,113.676667 130.923333,113.456667 131.25,113.17 L131.25,113.17 L131.25,110.5 L130.54,110.5 L130.54,112.86 C130.04,113.22 129.43,113.4 128.71,113.4 C128.143333,113.4 127.633333,113.273333 127.18,113.02 C126.726667,112.766667 126.37,112.42 126.11,111.98 C125.85,111.54 125.72,111.046667 125.72,110.5 C125.72,109.953333 125.85,109.458333 126.11,109.015 C126.37,108.571667 126.728333,108.225 127.185,107.975 C127.641667,107.725 128.153333,107.6 128.72,107.6 C129.573333,107.6 130.276667,107.873333 130.83,108.42 L130.83,108.42 L131.29,107.95 C130.983333,107.616667 130.606667,107.365 130.16,107.195 C129.713333,107.025 129.223333,106.94 128.69,106.94 C127.983333,106.94 127.35,107.093333 126.79,107.4 C126.23,107.706667 125.79,108.131667 125.47,108.675 C125.15,109.218333 124.99,109.826667 124.99,110.5 C124.99,111.173333 125.15,111.781667 125.47,112.325 C125.79,112.868333 126.23,113.293333 126.79,113.6 C127.35,113.906667 127.98,114.06 128.68,114.06 Z M138.29,114 L138.29,113.36 L134.08,113.36 L134.08,110.76 L137.7,110.76 L137.7,110.13 L134.08,110.13 L134.08,107.64 L138.14,107.64 L138.14,107 L133.34,107 L133.34,114 L138.29,114 Z M145.37,114 L148.47,107 L147.72,107 L145.02,113.08 L142.34,107 L141.54,107 L144.64,114 L145.37,114 Z M154.14,114 L154.14,113.36 L150.22,113.36 L150.22,107 L149.48,107 L149.48,114 L154.14,114 Z M155.04,114 L155.88,112.13 L159.78,112.13 L160.62,114 L161.4,114 L158.2,107 L157.47,107 L154.27,114 L155.04,114 Z M159.51,111.53 L156.15,111.53 L157.83,107.77 L159.51,111.53 Z M165.41,114 C166.15,114 166.803333,113.851667 167.37,113.555 C167.936667,113.258333 168.376667,112.845 168.69,112.315 C169.003333,111.785 169.16,111.18 169.16,110.5 C169.16,109.82 169.003333,109.215 168.69,108.685 C168.376667,108.155 167.936667,107.741667 167.37,107.445 C166.803333,107.148333 166.15,107 165.41,107 L165.41,107 L162.56,107 L162.56,114 L165.41,114 Z M165.37,113.36 L163.3,113.36 L163.3,107.64 L165.37,107.64 C165.983333,107.64 166.52,107.761667 166.98,108.005 C167.44,108.248333 167.796667,108.585 168.05,109.015 C168.303333,109.445 168.43,109.94 168.43,110.5 C168.43,111.06 168.303333,111.555 168.05,111.985 C167.796667,112.415 167.44,112.751667 166.98,112.995 C166.52,113.238333 165.983333,113.36 165.37,113.36 L165.37,113.36 Z M171.56,114 L171.56,107 L170.82,107 L170.82,114 L171.56,114 Z M174.55,114 L174.55,108.43 L177.3,113.11 L177.65,113.11 L180.4,108.4 L180.4,114 L181.11,114 L181.11,107 L180.5,107 L177.49,112.19 L174.45,107 L173.84,107 L173.84,114 L174.55,114 Z M184.13,114 L184.13,107 L183.39,107 L183.39,114 L184.13,114 Z M187.15,114 L187.15,111.78 L189.03,111.78 C189.223333,111.78 189.41,111.77 189.59,111.75 L189.59,111.75 L191.19,114 L192,114 L190.29,111.6 C190.803333,111.433333 191.198333,111.161667 191.475,110.785 C191.751667,110.408333 191.89,109.946667 191.89,109.4 C191.89,108.653333 191.636667,108.066667 191.13,107.64 C190.623333,107.213333 189.923333,107 189.03,107 L189.03,107 L186.41,107 L186.41,114 L187.15,114 Z M189.01,111.15 L187.15,111.15 L187.15,107.64 L189.01,107.64 C189.703333,107.64 190.233333,107.791667 190.6,108.095 C190.966667,108.398333 191.15,108.833333 191.15,109.4 C191.15,109.953333 190.966667,110.383333 190.6,110.69 C190.233333,110.996667 189.703333,111.15 189.01,111.15 L189.01,111.15 Z" id="ETHNOGRAPHICVILLAGEVLADIMIR" fill="#FFFFFF" fill-rule="nonzero"></path>
    </g>
</svg>