<svg xmlns="http://www.w3.org/2000/svg" xmlns:xlink="http://www.w3.org/1999/xlink" width="177" height="141" viewBox="0 0 177 141">
    <defs>
        <path id="a" d="M0 .026h43.199v59.849H0z"/>
    </defs>
    <g fill="none" fill-rule="evenodd">
        <path fill="#FFF" fill-rule="nonzero" d="M15.348 89.378c-.552 0-1.029-.072-1.431-.216a2.427 2.427 0 0 1-1.053-.756 55.096 55.096 0 0 1-1.368-1.755c-.36-.486-.816-1.179-1.368-2.079-.18-.3-.438-.534-.774-.702-.396-.192-.87-.318-1.422-.378h-.036c-.156 0-.234.12-.234.36v3.168c0 .888.402 1.404 1.206 1.548.204.036.354.078.45.126.096.048.144.114.144.198 0 .132-.174.198-.522.198-.384 0-.732-.024-1.044-.072a4.398 4.398 0 0 0-.72-.054c-.216 0-.435.009-.657.027a6.736 6.736 0 0 1-.477.027c-.48.048-.882.072-1.206.072-.348 0-.522-.066-.522-.198 0-.084.048-.15.144-.198a1.75 1.75 0 0 1 .45-.126c.468-.084.804-.225 1.008-.423.204-.198.306-.513.306-.945v-7.668c0-.504-.021-.861-.063-1.071-.042-.21-.138-.363-.288-.459-.15-.096-.399-.162-.747-.198-.192-.012-.339-.054-.441-.126-.102-.072-.153-.15-.153-.234 0-.132.174-.198.522-.198.516 0 .852.006 1.008.018h.756c.18 0 .45-.012.81-.036a29.865 29.865 0 0 1 1.26-.054c1.32 0 2.325.249 3.015.747s1.035 1.233 1.035 2.205c0 1.296-.708 2.304-2.124 3.024-.036.012-.054.042-.054.09 0 .036.018.084.054.144.756 1.14 1.365 2.016 1.827 2.628.462.612 1.071 1.26 1.827 1.944.288.252.582.414.882.486.3.072.696.108 1.188.108.18 0 .27.066.27.198 0 .228-.159.39-.477.486a3.376 3.376 0 0 1-.981.144zm-6.732-6.3c.528 0 .999-.123 1.413-.369.414-.246.732-.573.954-.981.222-.408.333-.846.333-1.314 0-.852-.18-1.515-.54-1.989-.36-.474-1.062-.711-2.106-.711-.372 0-.621.117-.747.351-.126.234-.201.675-.225 1.323a107.32 107.32 0 0 0-.036 3.06c0 .276.072.45.216.522.144.072.39.108.738.108zm14.796 6.174c-1.572 0-2.772-.408-3.6-1.224-.828-.816-1.242-1.932-1.242-3.348v-5.526c0-.396-.078-.699-.234-.909a1.038 1.038 0 0 0-.594-.405c-.396-.108-.594-.24-.594-.396 0-.132.174-.198.522-.198l.774.018c.384.024.702.036.954.036l.864-.018c.144-.012.336-.018.576-.018.348 0 .522.066.522.198 0 .072-.042.132-.126.18-.084.048-.24.108-.468.18-.168.048-.336.195-.504.441a1.48 1.48 0 0 0-.252.855v5.058c0 1.392.342 2.436 1.026 3.132.684.696 1.602 1.044 2.754 1.044 1.2 0 2.097-.417 2.691-1.251.594-.834.891-1.977.891-3.429 0-.732-.024-2.022-.072-3.87-.012-.504-.078-.939-.198-1.305-.12-.366-.3-.585-.54-.657-.396-.108-.594-.228-.594-.36 0-.132.174-.198.522-.198l1.35.018c.228 0 .51-.012.846-.036l.612-.018c.348 0 .522.066.522.198 0 .156-.198.276-.594.36-.564.108-.864.558-.9 1.35a53.597 53.597 0 0 0-.099 2.241 86.903 86.903 0 0 1-.045 1.539c0 .348-.012.87-.036 1.566-.024.912-.246 1.731-.666 2.457a4.491 4.491 0 0 1-1.692 1.692c-.708.402-1.5.603-2.376.603zm10.26.036c-1.008 0-1.854-.288-2.538-.864-.132-.132-.21-.252-.234-.36-.048-.216-.102-.714-.162-1.494l-.018-.396a.21.21 0 0 1 .099-.189.48.48 0 0 1 .261-.063c.156 0 .252.066.288.198.216.876.555 1.524 1.017 1.944.462.42.975.63 1.539.63.624 0 1.14-.201 1.548-.603.408-.402.612-.933.612-1.593 0-.468-.075-.855-.225-1.161a2.23 2.23 0 0 0-.621-.774c-.264-.21-.66-.477-1.188-.801l-.36-.216c-.588-.36-1.05-.672-1.386-.936a3.75 3.75 0 0 1-.864-.972 2.427 2.427 0 0 1-.36-1.314c0-.96.324-1.746.972-2.358.648-.612 1.578-.918 2.79-.918.612 0 1.242.132 1.89.396a.647.647 0 0 1 .234.18c.072.084.12.174.144.27.12.42.21.759.27 1.017.06.258.09.513.09.765 0 .132-.09.198-.27.198a.732.732 0 0 1-.315-.072c-.102-.048-.165-.108-.189-.18-.264-.66-.567-1.152-.909-1.476a1.752 1.752 0 0 0-1.251-.486c-.6 0-1.095.165-1.485.495-.39.33-.585.849-.585 1.557 0 .336.108.648.324.936.216.288.489.552.819.792.33.24.789.54 1.377.9.564.348 1.02.66 1.368.936.348.276.642.618.882 1.026.24.408.36.894.36 1.458 0 1.068-.36 1.923-1.08 2.565-.72.642-1.668.963-2.844.963zm8.37 0c-1.008 0-1.854-.288-2.538-.864-.132-.132-.21-.252-.234-.36-.048-.216-.102-.714-.162-1.494l-.018-.396a.21.21 0 0 1 .099-.189.48.48 0 0 1 .261-.063c.156 0 .252.066.288.198.216.876.555 1.524 1.017 1.944.462.42.975.63 1.539.63.624 0 1.14-.201 1.548-.603.408-.402.612-.933.612-1.593 0-.468-.075-.855-.225-1.161a2.23 2.23 0 0 0-.621-.774c-.264-.21-.66-.477-1.188-.801l-.36-.216c-.588-.36-1.05-.672-1.386-.936a3.75 3.75 0 0 1-.864-.972 2.427 2.427 0 0 1-.36-1.314c0-.96.324-1.746.972-2.358.648-.612 1.578-.918 2.79-.918.612 0 1.242.132 1.89.396a.647.647 0 0 1 .234.18c.072.084.12.174.144.27.12.42.21.759.27 1.017.06.258.09.513.09.765 0 .132-.09.198-.27.198a.732.732 0 0 1-.315-.072c-.102-.048-.165-.108-.189-.18-.264-.66-.567-1.152-.909-1.476a1.752 1.752 0 0 0-1.251-.486c-.6 0-1.095.165-1.485.495-.39.33-.585.849-.585 1.557 0 .336.108.648.324.936.216.288.489.552.819.792.33.24.789.54 1.377.9.564.348 1.02.66 1.368.936.348.276.642.618.882 1.026.24.408.36.894.36 1.458 0 1.068-.36 1.923-1.08 2.565-.72.642-1.668.963-2.844.963zm11.484-.036a6.114 6.114 0 0 1-2.961-.747 5.714 5.714 0 0 1-2.196-2.097c-.546-.9-.819-1.926-.819-3.078 0-1.104.24-2.136.72-3.096a5.706 5.706 0 0 1 2.106-2.313c.924-.582 2.028-.873 3.312-.873 1.056 0 2.043.249 2.961.747a5.714 5.714 0 0 1 2.196 2.097c.546.9.819 1.926.819 3.078 0 1.104-.24 2.136-.72 3.096a5.706 5.706 0 0 1-2.106 2.313c-.924.582-2.028.873-3.312.873zm.27-.72c1.344 0 2.37-.417 3.078-1.251.708-.834 1.062-1.977 1.062-3.429 0-1.14-.174-2.166-.522-3.078-.348-.912-.861-1.635-1.539-2.169-.678-.534-1.503-.801-2.475-.801-1.332 0-2.352.411-3.06 1.233-.708.822-1.062 1.953-1.062 3.393 0 1.14.171 2.172.513 3.096.342.924.852 1.656 1.53 2.196.678.54 1.503.81 2.475.81zm7.308-2.592c-.072 0-.108-.036-.108-.108 0-.216.027-.429.081-.639.054-.21.123-.321.207-.333 1.536-.216 2.688-.366 3.456-.45.096 0 .144.036.144.108 0 .264-.03.489-.09.675-.06.186-.156.285-.288.297l-.468.072c-1.236.192-2.214.318-2.934.378zm5.166 3.15c-.348 0-.522-.066-.522-.198 0-.084.048-.15.144-.198a1.75 1.75 0 0 1 .45-.126c.48-.084.834-.228 1.062-.432.228-.204.342-.51.342-.918v-8.1c0-.432-.093-.75-.279-.954-.186-.204-.495-.324-.927-.36-.192-.012-.339-.054-.441-.126-.102-.072-.153-.15-.153-.234 0-.132.174-.198.522-.198.54 0 .9.006 1.08.018h.792c.18 0 .438-.012.774-.036.612-.036 1.02-.054 1.224-.054 1.44 0 2.496.207 3.168.621.672.414 1.008 1.101 1.008 2.061 0 .372-.063.714-.189 1.026-.126.312-.267.546-.423.702a3.157 3.157 0 0 1-.531.441 4.707 4.707 0 0 1-.675.333c-.048.024-.072.057-.072.099s.024.069.072.081c.504.168.927.348 1.269.54.342.192.642.483.9.873s.387.909.387 1.557c0 .612-.096 1.113-.288 1.503-.192.39-.417.684-.675.882a6.08 6.08 0 0 1-.909.567c-.816.408-1.836.612-3.06.612l-.54-.018A10.807 10.807 0 0 0 68.61 89c-.3 0-.666.012-1.098.036-.336.036-.75.054-1.242.054zm3.708-6.768c.828 0 1.554-.174 2.178-.522.192-.108.375-.306.549-.594.174-.288.261-.66.261-1.116 0-.648-.189-1.206-.567-1.674-.378-.468-1.065-.702-2.061-.702-.468 0-.783.063-.945.189-.162.126-.243.333-.243.621v3.132c0 .444.276.666.828.666zm.594 6.012c.528 0 1.02-.12 1.476-.36.456-.24.822-.57 1.098-.99.276-.42.414-.882.414-1.386 0-.612-.135-1.104-.405-1.476a2.86 2.86 0 0 0-.927-.846c-.54-.3-1.224-.45-2.052-.45-.348 0-.606.069-.774.207-.168.138-.252.285-.252.441v3.582c0 .48.114.813.342.999.228.186.588.279 1.08.279zm5.886.756a.954.954 0 0 1-.378-.063c-.096-.042-.144-.099-.144-.171 0-.156.198-.294.594-.414.348-.108.648-.261.9-.459s.468-.507.648-.927a136.545 136.545 0 0 0 1.665-3.987 202.818 202.818 0 0 0 1.701-4.473 4.69 4.69 0 0 0 .252-1.044l.261-.081c.138-.042.267-.105.387-.189a.698.698 0 0 0 .225-.324c.054-.144.093-.24.117-.288.012-.012.027-.015.045-.009a.113.113 0 0 1 .045.027c.024.06.045.126.063.198.018.072.039.138.063.198.888 2.796 1.956 6 3.204 9.612.228.66.48 1.107.756 1.341.276.234.63.387 1.062.459.192.036.339.093.441.171.102.078.153.159.153.243 0 .12-.174.18-.522.18l-.972-.036a23.3 23.3 0 0 0-1.53-.072l-1.89.018c-.348 0-.522-.072-.522-.216 0-.072.057-.141.171-.207a1.17 1.17 0 0 1 .423-.135c.732-.12 1.098-.39 1.098-.81 0-.384-.234-1.356-.702-2.916-.024-.084-.069-.138-.135-.162a1.164 1.164 0 0 0-.351-.036h-3.402c-.132 0-.234.108-.306.324-.132.384-.288.885-.468 1.503-.18.618-.27.981-.27 1.089 0 .252.099.468.297.648.198.18.447.306.747.378.216.06.369.114.459.162.09.048.135.114.135.198 0 .132-.174.198-.522.198-.216 0-.396-.006-.54-.018l-1.098-.018a9.31 9.31 0 0 0-.675.027 8.29 8.29 0 0 1-.549.027 8.824 8.824 0 0 1-.936.054zm7.002-5.166a.757.757 0 0 0 .18-.018c.048-.012.072-.036.072-.072l-.036-.18-1.404-4.392c-.072-.216-.126-.324-.162-.324-.024 0-.072.102-.144.306l-1.638 4.41-.036.144c0 .06.027.096.081.108.054.012.153.018.297.018h2.79zm5.958 5.166a.888.888 0 0 1-.369-.063c-.09-.042-.135-.093-.135-.153 0-.144.132-.246.396-.306.492-.096.858-.24 1.098-.432.24-.192.36-.48.36-.864V78.92c0-.288-.03-.501-.09-.639a.554.554 0 0 0-.297-.297c-.138-.06-.375-.12-.711-.18-.396-.072-.594-.192-.594-.36 0-.132.174-.198.522-.198.36 0 .732.012 1.116.036l.9.018 1.08-.018c.456-.024.852-.036 1.188-.036.348 0 .522.066.522.198 0 .168-.198.288-.594.36-.564.108-.972.222-1.224.342-.252.12-.378.336-.378.648v8.478c0 .396.09.678.27.846.18.168.552.252 1.116.252h2.232c.3 0 .576-.048.828-.144a1.82 1.82 0 0 0 .576-.324c.24-.204.417-.387.531-.549.114-.162.249-.405.405-.729.048-.12.108-.24.18-.36s.144-.18.216-.18c.072 0 .126.033.162.099a.462.462 0 0 1 .054.225l-.018.09a28.323 28.323 0 0 0-.333 1.323 9.233 9.233 0 0 0-.153.963c-.024.204-.108.306-.252.306-1.284 0-2.466-.018-3.546-.054-1.224-.024-2.1-.036-2.628-.036a50.817 50.817 0 0 0-2.43.09zm11.214 0c-.348 0-.522-.066-.522-.198 0-.084.048-.15.144-.198a1.75 1.75 0 0 1 .45-.126c.468-.084.819-.234 1.053-.45.234-.216.351-.534.351-.954V80.18c0-.804-.027-1.347-.081-1.629-.054-.282-.153-.435-.297-.459a2.824 2.824 0 0 0-.549-.063c-.21-.006-.453-.009-.729-.009h-.846c-.312 0-.606.06-.882.18s-.474.294-.594.522a1.88 1.88 0 0 1-.333.45c-.15.156-.285.234-.405.234-.084 0-.126-.078-.126-.234 0-.12.03-.24.09-.36.168-.324.288-.621.36-.891.072-.27.138-.603.198-.999.036-.276.138-.414.306-.414.036 0 .105.066.207.198s.183.258.243.378c.072.12.231.21.477.27.246.06.507.09.783.09h6.336c.744 0 1.314-.09 1.71-.27.072-.036.177-.105.315-.207s.267-.153.387-.153c.036 0 .066.045.09.135.024.09.036.183.036.279 0 .048-.024.216-.072.504l-.108.54a1.661 1.661 0 0 0-.072.522v.216c0 .12-.027.246-.081.378-.054.132-.123.198-.207.198-.084 0-.15-.057-.198-.171a2.99 2.99 0 0 1-.144-.567.86.86 0 0 0-.45-.612c-.252-.144-.654-.216-1.206-.216h-1.818c-.3 0-.507.036-.621.108-.114.072-.189.243-.225.513-.036.27-.054.753-.054 1.449v7.074c0 .42.12.738.36.954.24.216.594.366 1.062.45.204.036.354.078.45.126.096.048.144.114.144.198 0 .132-.174.198-.522.198-.444 0-.828-.018-1.152-.054a15.815 15.815 0 0 0-.954-.036c-.3 0-.666.012-1.098.036-.36.036-.762.054-1.206.054zm12.996 0a.954.954 0 0 1-.378-.063c-.096-.042-.144-.099-.144-.171 0-.072.042-.129.126-.171.084-.042.234-.081.45-.117.444-.084.738-.219.882-.405.144-.186.216-.501.216-.945v-8.136c0-.312-.018-.543-.054-.693a.627.627 0 0 0-.252-.369c-.132-.096-.348-.168-.648-.216a1.75 1.75 0 0 1-.45-.126c-.096-.048-.144-.114-.144-.198 0-.156.174-.234.522-.234.36 0 .72.012 1.08.036l.774.018.81-.018c.384-.024.75-.036 1.098-.036.348 0 .522.078.522.234 0 .084-.048.15-.144.198a1.75 1.75 0 0 1-.45.126c-.444.084-.759.228-.945.432-.186.204-.279.486-.279.846v3.546c0 .108.084.162.252.162h6.678c.084 0 .126-.072.126-.216v-3.51c0-.348-.09-.627-.27-.837-.18-.21-.486-.351-.918-.423a1.75 1.75 0 0 1-.45-.126c-.096-.048-.144-.114-.144-.198 0-.072.048-.129.144-.171a.954.954 0 0 1 .378-.063c.336 0 .72.012 1.152.036l.936.018.63-.018c.312-.024.648-.036 1.008-.036.348 0 .522.078.522.234 0 .084-.048.15-.144.198a1.75 1.75 0 0 1-.45.126c-.408.072-.669.201-.783.387-.114.186-.171.477-.171.873V87.2c0 .468.06.795.18.981.12.186.396.315.828.387.216.036.366.075.45.117.084.042.126.099.126.171 0 .072-.048.129-.144.171a.954.954 0 0 1-.378.063c-.444 0-.804-.018-1.08-.054a10.595 10.595 0 0 0-.792-.036c-.24 0-.516.012-.828.036a9.142 9.142 0 0 1-1.098.054.954.954 0 0 1-.378-.063c-.096-.042-.144-.099-.144-.171 0-.072.042-.129.126-.171.084-.042.234-.081.45-.117.828-.156 1.242-.594 1.242-1.314v-3.6a.399.399 0 0 0-.018-.126c-.012-.036-.036-.054-.072-.054h-6.876c-.036 0-.06.018-.072.054a.468.468 0 0 0-.018.144v3.42c0 .372.135.693.405.963s.615.441 1.035.513c.216.036.366.075.45.117.084.042.126.099.126.171 0 .072-.048.129-.144.171a.954.954 0 0 1-.378.063c-.444 0-.828-.018-1.152-.054a15.815 15.815 0 0 0-.954-.036c-.24 0-.528.012-.864.036-.288.036-.66.054-1.116.054zm20.178.162a6.114 6.114 0 0 1-2.961-.747 5.714 5.714 0 0 1-2.196-2.097c-.546-.9-.819-1.926-.819-3.078 0-1.104.24-2.136.72-3.096a5.706 5.706 0 0 1 2.106-2.313c.924-.582 2.028-.873 3.312-.873 1.056 0 2.043.249 2.961.747a5.714 5.714 0 0 1 2.196 2.097c.546.9.819 1.926.819 3.078 0 1.104-.24 2.136-.72 3.096a5.706 5.706 0 0 1-2.106 2.313c-.924.582-2.028.873-3.312.873zm.27-.72c1.344 0 2.37-.417 3.078-1.251.708-.834 1.062-1.977 1.062-3.429 0-1.14-.174-2.166-.522-3.078-.348-.912-.861-1.635-1.539-2.169-.678-.534-1.503-.801-2.475-.801-1.332 0-2.352.411-3.06 1.233-.708.822-1.062 1.953-1.062 3.393 0 1.14.171 2.172.513 3.096.342.924.852 1.656 1.53 2.196.678.54 1.503.81 2.475.81zm10.17.558c-.348 0-.522-.066-.522-.198 0-.084.048-.15.144-.198a1.75 1.75 0 0 1 .45-.126c.468-.084.819-.234 1.053-.45.234-.216.351-.534.351-.954V80.18c0-.804-.027-1.347-.081-1.629-.054-.282-.153-.435-.297-.459a2.824 2.824 0 0 0-.549-.063c-.21-.006-.453-.009-.729-.009h-.846c-.312 0-.606.06-.882.18s-.474.294-.594.522a1.88 1.88 0 0 1-.333.45c-.15.156-.285.234-.405.234-.084 0-.126-.078-.126-.234 0-.12.03-.24.09-.36.168-.324.288-.621.36-.891.072-.27.138-.603.198-.999.036-.276.138-.414.306-.414.036 0 .105.066.207.198s.183.258.243.378c.072.12.231.21.477.27.246.06.507.09.783.09h6.336c.744 0 1.314-.09 1.71-.27.072-.036.177-.105.315-.207s.267-.153.387-.153c.036 0 .066.045.09.135.024.09.036.183.036.279 0 .048-.024.216-.072.504l-.108.54a1.661 1.661 0 0 0-.072.522v.216c0 .12-.027.246-.081.378-.054.132-.123.198-.207.198-.084 0-.15-.057-.198-.171a2.99 2.99 0 0 1-.144-.567.86.86 0 0 0-.45-.612c-.252-.144-.654-.216-1.206-.216h-1.818c-.3 0-.507.036-.621.108-.114.072-.189.243-.225.513-.036.27-.054.753-.054 1.449v7.074c0 .42.12.738.36.954.24.216.594.366 1.062.45.204.036.354.078.45.126.096.048.144.114.144.198 0 .132-.174.198-.522.198-.444 0-.828-.018-1.152-.054a15.815 15.815 0 0 0-.954-.036c-.3 0-.666.012-1.098.036-.36.036-.762.054-1.206.054zm9.396 0c-.348 0-.522-.066-.522-.198 0-.084.048-.15.144-.198a1.75 1.75 0 0 1 .45-.126c.468-.084.807-.225 1.017-.423.21-.198.315-.507.315-.927v-8.1c0-.42-.087-.723-.261-.909-.174-.186-.489-.321-.945-.405-.396-.072-.594-.192-.594-.36 0-.132.174-.198.522-.198.456 0 1.008.012 1.656.036l1.53.018 2.466-.018 1.53-.036c.204 0 .312.054.324.162.024.096.075.36.153.792.078.432.117.786.117 1.062 0 .18-.084.27-.252.27-.06 0-.102-.012-.126-.036a.39.39 0 0 1-.072-.144 6.86 6.86 0 0 1-.144-.468c-.072-.252-.156-.426-.252-.522-.288-.324-.69-.486-1.206-.486h-2.358c-.12 0-.258.057-.414.171-.156.114-.234.249-.234.405v3.816c0 .108.033.201.099.279.066.078.141.117.225.117h1.782c.336 0 .57-.06.702-.18s.246-.354.342-.702c.072-.264.18-.396.324-.396.048 0 .099.027.153.081a.28.28 0 0 1 .081.207l-.018.468-.036.792.018.954.018.432c0 .204-.054.306-.162.306-.18 0-.318-.192-.414-.576-.072-.288-.171-.495-.297-.621-.126-.126-.303-.189-.531-.189h-1.674c-.228 0-.387.03-.477.09-.09.06-.135.186-.135.378v3.456c0 .444.093.756.279.936.186.18.489.27.909.27h1.332c.396 0 .723-.024.981-.072a1.97 1.97 0 0 0 .657-.234c.18-.12.345-.285.495-.495.15-.21.327-.507.531-.891.084-.156.168-.234.252-.234.156 0 .234.084.234.252 0 .156-.066.483-.198.981s-.252.867-.36 1.107c-.012.024-.03.066-.054.126a.4.4 0 0 1-.081.135.158.158 0 0 1-.117.045c-.24 0-1.296-.018-3.168-.054a56.767 56.767 0 0 0-2.466-.054c-.336 0-.648.018-.936.054-.612.036-.99.054-1.134.054zm9.954 0a.888.888 0 0 1-.369-.063c-.09-.042-.135-.093-.135-.153 0-.144.132-.246.396-.306.492-.096.858-.24 1.098-.432.24-.192.36-.48.36-.864V78.92c0-.288-.03-.501-.09-.639a.554.554 0 0 0-.297-.297c-.138-.06-.375-.12-.711-.18-.396-.072-.594-.192-.594-.36 0-.132.174-.198.522-.198.36 0 .732.012 1.116.036l.9.018 1.08-.018c.456-.024.852-.036 1.188-.036.348 0 .522.066.522.198 0 .168-.198.288-.594.36-.564.108-.972.222-1.224.342-.252.12-.378.336-.378.648v8.478c0 .396.09.678.27.846.18.168.552.252 1.116.252h2.232c.3 0 .576-.048.828-.144a1.82 1.82 0 0 0 .576-.324c.24-.204.417-.387.531-.549.114-.162.249-.405.405-.729.048-.12.108-.24.18-.36s.144-.18.216-.18c.072 0 .126.033.162.099a.462.462 0 0 1 .054.225l-.018.09a28.323 28.323 0 0 0-.333 1.323 9.233 9.233 0 0 0-.153.963c-.024.204-.108.306-.252.306-1.284 0-2.466-.018-3.546-.054-1.224-.024-2.1-.036-2.628-.036a50.817 50.817 0 0 0-2.43.09zm-114.579 23c-.348 0-.522-.066-.522-.198 0-.084.048-.15.144-.198a1.75 1.75 0 0 1 .45-.126c.624-.108.996-.576 1.116-1.404.492-3.696.738-6.252.738-7.668 0-.276-.006-.474-.018-.594a1.496 1.496 0 0 0-.063-.333.577.577 0 0 0-.207-.261 1.644 1.644 0 0 0-.567-.342 8.49 8.49 0 0 0-.783-.198.586.586 0 0 1-.288-.135.299.299 0 0 1-.108-.225c0-.084.051-.138.153-.162.102-.024.255-.036.459-.036.156 0 .606.024 1.35.072.744.048 1.194.072 1.35.072.168 0 .282.096.342.288l.126.468c.108.432.198.738.27.918l2.844 7.218c.036.108.114.162.234.162a.186.186 0 0 0 .18-.108l3.546-7.38c.144-.54.252-.99.324-1.35.036-.156.096-.234.18-.234h.648c.18 0 .612-.03 1.296-.09.312-.036.564-.054.756-.054.252 0 .378.06.378.18 0 .084-.033.15-.099.198a1.9 1.9 0 0 1-.369.18 8.28 8.28 0 0 0-.432.162l-.63.252a.775.775 0 0 0-.315.252.6.6 0 0 0-.117.36c0 1.056.021 2.046.063 2.97.042.924.105 2.004.189 3.24.072.984.12 1.752.144 2.304.012.372.126.657.342.855.216.198.552.339 1.008.423.204.036.354.078.45.126.096.048.144.114.144.198 0 .132-.174.198-.522.198-.444 0-.828-.018-1.152-.054a15.815 15.815 0 0 0-.954-.036c-.204 0-.474.012-.81.036a8.419 8.419 0 0 1-1.08.054c-.348 0-.522-.066-.522-.198 0-.168.198-.276.594-.324.348-.048.588-.168.72-.36.132-.192.198-.504.198-.936 0-1.224-.021-2.355-.063-3.393a140.513 140.513 0 0 0-.081-1.845c-.024-.3-.048-.762-.072-1.386-.012-.12-.048-.18-.108-.18-.048 0-.108.06-.18.18l-4.14 8.442c-.012.072-.066.108-.162.108-.072 0-.126-.042-.162-.126-.828-2.46-1.932-5.31-3.312-8.55-.024-.06-.066-.09-.126-.09s-.096.03-.108.09a106.162 106.162 0 0 0-.45 3.69 30.813 30.813 0 0 0-.126 2.952c0 .336.105.636.315.9.21.264.495.432.855.504.204.036.354.078.45.126.096.048.144.114.144.198 0 .132-.174.198-.522.198-.444 0-.786-.018-1.026-.054a6.726 6.726 0 0 0-.666-.036c-.18 0-.39.012-.63.036-.468.036-.804.054-1.008.054zm22.14.162a6.114 6.114 0 0 1-2.961-.747A5.714 5.714 0 0 1 66 109.408c-.546-.9-.819-1.926-.819-3.078 0-1.104.24-2.136.72-3.096a5.706 5.706 0 0 1 2.106-2.313c.924-.582 2.028-.873 3.312-.873 1.056 0 2.043.249 2.961.747a5.714 5.714 0 0 1 2.196 2.097c.546.9.819 1.926.819 3.078 0 1.104-.24 2.136-.72 3.096a5.706 5.706 0 0 1-2.106 2.313c-.924.582-2.028.873-3.312.873zm.27-.72c1.344 0 2.37-.417 3.078-1.251.708-.834 1.062-1.977 1.062-3.429 0-1.14-.174-2.166-.522-3.078-.348-.912-.861-1.635-1.539-2.169-.678-.534-1.503-.801-2.475-.801-1.332 0-2.352.411-3.06 1.233-.708.822-1.062 1.953-1.062 3.393 0 1.14.171 2.172.513 3.096.342.924.852 1.656 1.53 2.196.678.54 1.503.81 2.475.81zm10.35.756c-1.008 0-1.854-.288-2.538-.864-.132-.132-.21-.252-.234-.36-.048-.216-.102-.714-.162-1.494l-.018-.396a.21.21 0 0 1 .099-.189.48.48 0 0 1 .261-.063c.156 0 .252.066.288.198.216.876.555 1.524 1.017 1.944.462.42.975.63 1.539.63.624 0 1.14-.201 1.548-.603.408-.402.612-.933.612-1.593 0-.468-.075-.855-.225-1.161a2.23 2.23 0 0 0-.621-.774c-.264-.21-.66-.477-1.188-.801l-.36-.216c-.588-.36-1.05-.672-1.386-.936a3.75 3.75 0 0 1-.864-.972 2.427 2.427 0 0 1-.36-1.314c0-.96.324-1.746.972-2.358.648-.612 1.578-.918 2.79-.918.612 0 1.242.132 1.89.396a.647.647 0 0 1 .234.18c.072.084.12.174.144.27.12.42.21.759.27 1.017.06.258.09.513.09.765 0 .132-.09.198-.27.198a.732.732 0 0 1-.315-.072c-.102-.048-.165-.108-.189-.18-.264-.66-.567-1.152-.909-1.476a1.752 1.752 0 0 0-1.251-.486c-.6 0-1.095.165-1.485.495-.39.33-.585.849-.585 1.557 0 .336.108.648.324.936.216.288.489.552.819.792.33.24.789.54 1.377.9.564.348 1.02.66 1.368.936.348.276.642.618.882 1.026.24.408.36.894.36 1.458 0 1.068-.36 1.923-1.08 2.565-.72.642-1.668.963-2.844.963zm12.024-.018a6.893 6.893 0 0 1-3.186-.765 6.204 6.204 0 0 1-2.403-2.151c-.606-.924-.909-1.98-.909-3.168 0-1.14.318-2.175.954-3.105.636-.93 1.488-1.665 2.556-2.205a7.513 7.513 0 0 1 3.438-.81c.624 0 1.131.033 1.521.099.39.066.951.189 1.683.369.168.048.291.12.369.216a.796.796 0 0 1 .153.396c.096.936.15 1.626.162 2.07.012.072-.015.135-.081.189a.346.346 0 0 1-.225.081c-.156 0-.258-.084-.306-.252-.132-.516-.279-.927-.441-1.233a2.172 2.172 0 0 0-.675-.765 3.693 3.693 0 0 0-1.089-.45 5.59 5.59 0 0 0-1.377-.162c-.912 0-1.734.24-2.466.72a5.113 5.113 0 0 0-1.728 1.899 5.25 5.25 0 0 0-.63 2.511c0 .996.21 1.953.63 2.871.42.918 1.005 1.662 1.755 2.232.75.57 1.605.855 2.565.855.828 0 1.527-.189 2.097-.567.57-.378 1.065-.939 1.485-1.683a.404.404 0 0 1 .162-.171.4.4 0 0 1 .198-.063c.072 0 .132.024.18.072.048.048.072.12.072.216 0 .144-.054.405-.162.783a9.413 9.413 0 0 1-.324.963 1.791 1.791 0 0 1-.216.324c-.048.048-.168.102-.36.162-.42.168-.936.297-1.548.387-.612.09-1.23.135-1.854.135zm12.24-.018a6.114 6.114 0 0 1-2.961-.747 5.714 5.714 0 0 1-2.196-2.097c-.546-.9-.819-1.926-.819-3.078 0-1.104.24-2.136.72-3.096a5.706 5.706 0 0 1 2.106-2.313c.924-.582 2.028-.873 3.312-.873 1.056 0 2.043.249 2.961.747a5.714 5.714 0 0 1 2.196 2.097c.546.9.819 1.926.819 3.078 0 1.104-.24 2.136-.72 3.096a5.706 5.706 0 0 1-2.106 2.313c-.924.582-2.028.873-3.312.873zm.27-.72c1.344 0 2.37-.417 3.078-1.251.708-.834 1.062-1.977 1.062-3.429 0-1.14-.174-2.166-.522-3.078-.348-.912-.861-1.635-1.539-2.169-.678-.534-1.503-.801-2.475-.801-1.332 0-2.352.411-3.06 1.233-.708.822-1.062 1.953-1.062 3.393 0 1.14.171 2.172.513 3.096.342.924.852 1.656 1.53 2.196.678.54 1.503.81 2.475.81zm12.078.756c-.036 0-.12-.168-.252-.504l-3.888-9.756c-.288-.624-.72-1.02-1.296-1.188a2.422 2.422 0 0 1-.45-.198c-.096-.06-.144-.126-.144-.198 0-.132.174-.198.522-.198l.756.018c.36.024.642.036.846.036l1.08-.018a8.01 8.01 0 0 1 .594-.018c.348 0 .522.066.522.198 0 .084-.045.15-.135.198-.09.048-.243.102-.459.162-.24.06-.36.258-.36.594 0 .156.021.312.063.468l.081.306c.54 1.392 1.014 2.577 1.422 3.555.408.978.918 2.151 1.53 3.519.048.12.096.18.144.18.048 0 .09-.054.126-.162l1.404-3.474c.072-.18.108-.318.108-.414 0-.096-.048-.27-.144-.522l-1.026-2.556a2.3 2.3 0 0 0-.702-.936 2.76 2.76 0 0 0-1.008-.54 1.649 1.649 0 0 1-.45-.189c-.096-.066-.144-.135-.144-.207 0-.132.174-.198.522-.198l.774.018c.384.024.69.036.918.036l.828-.018a6.98 6.98 0 0 1 .558-.018c.348 0 .522.066.522.198 0 .06-.027.114-.081.162a1.403 1.403 0 0 1-.243.162c-.276.12-.414.264-.414.432a.59.59 0 0 0 .036.144 30.594 30.594 0 0 0 .81 2.034l.063.135c.03.066.063.099.099.099.036 0 .09-.078.162-.234.24-.54.48-1.218.72-2.034a.399.399 0 0 0 .018-.126.353.353 0 0 0-.099-.261 1.46 1.46 0 0 0-.279-.207.765.765 0 0 0-.108-.072.53.53 0 0 1-.135-.108.19.19 0 0 1-.045-.126c0-.132.174-.198.522-.198l.576.018c.072.012.192.018.36.018l.522-.018c.216-.024.396-.036.54-.036.348 0 .522.066.522.198 0 .156-.198.276-.594.36-.36.084-.612.18-.756.288-.144.108-.3.3-.468.576-.096.168-.243.48-.441.936-.198.456-.369.882-.513 1.278a1.564 1.564 0 0 0-.108.378c-.024.144-.024.246 0 .306l1.854 4.77c.024.048.042.072.054.072.036 0 .084-.06.144-.18.456-1.212 1.188-3.534 2.196-6.966.072-.216.108-.432.108-.648 0-.42-.18-.678-.54-.774-.396-.108-.594-.228-.594-.36 0-.132.174-.198.522-.198l1.296.018c.228 0 .534-.012.918-.036l.702-.018c.348 0 .522.066.522.198 0 .156-.198.276-.594.36-.636.144-1.128.672-1.476 1.584l-3.186 9.414a1.789 1.789 0 0 1-.117.261c-.054.102-.111.153-.171.153-.048 0-.102-.036-.162-.108a.946.946 0 0 1-.144-.234 60.624 60.624 0 0 1-1.404-3.474l-.81-2.088c-.036-.072-.06-.108-.072-.108-.024 0-.066.072-.126.216-.408.972-.753 1.818-1.035 2.538-.282.72-.621 1.644-1.017 2.772a1.77 1.77 0 0 1-.18.387c-.072.114-.144.171-.216.171z"/>
        <path fill="#FFF" d="M89.5 137.75l-3.82 2.009.73-4.255-3.092-3.013 4.272-.62L89.5 128l1.91 3.87 4.272.621-3.091 3.013.73 4.255zM104.5 137.75l-3.82 2.009.73-4.255-3.092-3.013 4.272-.62L104.5 128l1.91 3.87 4.272.621-3.091 3.013.73 4.255zM119.5 137.75l-3.82 2.009.73-4.255-3.092-3.013 4.272-.62L119.5 128l1.91 3.87 4.272.621-3.091 3.013.73 4.255zM74.5 137.75l-3.82 2.009.73-4.255-3.092-3.013 4.272-.62L74.5 128l1.91 3.87 4.272.621-3.091 3.013.73 4.255zM59.5 137.75l-3.82 2.009.73-4.255-3.092-3.013 4.272-.62L59.5 128l1.91 3.87 4.272.621-3.091 3.013.73 4.255z"/>
        <g transform="translate(67)">
            <mask id="b" fill="#fff">
                <use xlink:href="#a"/>
            </mask>
            <path fill="#FFF" d="M39.665 31.588c0-18.537-8.451-30.525-18.452-30.525-8.193 0-17.678 7.763-17.678 27.25 0 18.365 8.02 30.525 18.539 30.525 10.088 0 17.591-10.866 17.591-27.25M0 29.628C0 12.757 9.546.025 21.635.025c14.627 0 21.564 16.626 21.564 30.168 0 17.031-9.615 29.68-21.634 29.68C9.615 59.875 0 47.062 0 29.628" mask="url(#b)"/>
        </g>
        <path fill="#FFF" d="M103.886 32.475a8.627 8.627 0 0 0-1.777-2.668 2.631 2.631 0 0 0-.308-.316 6.798 6.798 0 0 1-1.144 1.582c-.07.072-.141.143-.213.214-.105.103-.151.103-.122.225.03.131.284.368.364.485.225.326.423.67.588 1.03a6.346 6.346 0 0 1 .477 3.646c-.171 1.076-.575 2.151-1.192 3.054-1.379 2.017-3.713 3.398-5.975 4.178-2.874.992-5.912 1.052-8.911.77.013.327.144.834-.285.915-.096.018-.214 0-.312 0h-6.404c-.396 0-.745.044-.758-.465-.017-.718 0-1.438 0-2.156 0-.347.103-.433.439-.544.061-.02.164-.052.21-.09.147-.122.102.018.062-.2-.023-.125-.089-.233-.103-.364-.01-.091.006-.171.008-.259.004-.26-.014-.521-.02-.78l-.238-9.033-.04-1.536c-.008-.321-.06-.344.218-.52 2.39-1.502 5.025-2.753 7.752-3.497 2.665-.727 5.574-.801 8.238-.008 1.261.376 2.555 1.006 3.381 2.067.094.12.18.246.257.378.332-.471.612-.981.808-1.524.086-.24.156-.485.207-.734.013-.065.089-.298.06-.358-.04-.081-.305-.184-.385-.23a12.913 12.913 0 0 0-2.676-1.131c-2.15-.647-4.427-.805-6.661-.705-2.346.106-4.584.711-6.669 1.79a21.486 21.486 0 0 0-2.85 1.79c-.386.284-1.195 1.126-1.614.446-.284-.46-.2-1.116-.198-1.64.004-1.186.006-2.371.006-3.557 0-1.429 0-2.858-.012-4.287-.008-1.015-.305-2.369.693-3.006.64-.41 1.39-.435 2.12-.493 1.791-.142 3.59-.208 5.386-.206 2.404.003 4.804.193 7.207.26.927.026 1.855.046 2.782.09.785.036 1.628.036 2.397.212.443.102 1.267.578 1.045 1.175-.164.444-1.177.387-1.101.976.072.56.8.914 1.268 1.033.752.19 1.685.157 2.237-.458.7-.78.48-2.01-.04-2.82-.557-.863-1.514-1.353-2.483-1.61-1.793-.477-3.636-.235-5.459-.136-4.004.217-8.03.073-12.03-.18-1.372-.087-2.744-.19-4.114-.312-.652-.058-1.34-.183-1.997-.155-.462.02-.755.186-.762.677-.01.75.3 1.507.452 2.232.28 1.332.235 2.75.21 4.103a80.333 80.333 0 0 1-.216 4.368c-.035.47-.095.94-.102 1.412-.03 2.246-.02 4.493-.028 6.74a3715.5 3715.5 0 0 0-.025 8.186c-.001.976-.06 1.958-.26 2.915-.11.52-.577 1.393-.18 1.85.339.39 1 .626 1.475.788.623.21 1.274.337 1.925.43 1.79.256 3.612.284 5.417.314 2.411.04 4.842.142 7.253.065 2.857-.093 5.994-.579 8.407-2.231.31-.212.564-.467.848-.703.542-.452 1.094-.845 1.58-1.369 2.504-2.692 3.333-6.692 1.887-10.115"/>
        <path fill="#FFF" d="M96.84 17.826c-2.508-.99-5.292-1.412-7.981-1.436-.962-.008-1.922-.034-2.883.003-1.406.056-2.779.266-4.173.435-.887.108-1.722.149-2.595-.013-.238-.045-.64-.041-.566.295.044.196.238.352.346.515.104.158.183.33.254.504.491 1.216.62 2.603.753 3.895.164 1.593.248 3.193.321 4.792a21.695 21.695 0 0 1 1.549-.984c.201-.116.48-.208.652-.36.035-.03.119-.036.143-.074.069-.113 0-.513 0-.65.007-1.132.033-2.264.075-3.395.028-.759.063-1.517.107-2.274.006-.11-.028-.376.03-.477.098-.177.84-.208 1.066-.244 2.196-.347 4.441-.431 6.653-.181 1.292.146 2.742.332 3.928.904 1.156.557 2.297 1.265 3.238 2.14 1.357 1.263 1.993 3.218 1.663 5.046-.37 2.05-1.882 3.673-3.492 4.884-1.7 1.278-3.699 2.007-5.796 2.303a18.065 18.065 0 0 1-2.302.17l-.228.001a20.697 20.697 0 0 1-3.77-.349c-.109-.02-.413-.03-.486-.102-.113-.112-.138-.511-.17-.67-.057-.27-.104-.54-.146-.812-.2-1.306-.281-2.63-.328-3.948-.365.161-.727.33-1.085.504-.343.166-.78.318-1.083.55-.114.089-.097.042-.13.185-.031.134.01.324.013.462a125.325 125.325 0 0 1 .027 5.113 69.846 69.846 0 0 1-.15 3.894c-.08 1.098-.131 2.297-.705 3.267-.198.334-.458.63-.791.832-.08.048-.534.158-.576.216-.025.036 0 .187 0 .227v1.153c0 .29-.094.761 0 1.035.05.146-.03.064.131.1.19.041.437 0 .63 0h6.406l-.037-.92c-.012-.293.033-.331-.236-.457a2.745 2.745 0 0 1-.77-.527c-.562-.557-.774-1.338-.72-2.111.034-.478.012-.96 0-1.44-.026-1.075-.052-2.165-.208-3.23-.077-.519-.249-1.065.386-1.284.443-.153.962-.08 1.413-.01 1.497.235 3.08.228 4.586.103 2.981-.247 5.923-1.114 8.438-2.76 1.237-.809 2.466-1.81 3.192-3.12.886-1.6 1.429-3.489 1.24-5.326-.33-3.217-3.022-5.266-5.832-6.374"/>
    </g>
</svg>
