<?xml version="1.0" standalone="no"?>
<!DOCTYPE svg PUBLIC "-//W3C//DTD SVG 1.1//EN" "http://www.w3.org/Graphics/SVG/1.1/DTD/svg11.dtd" >
<svg xmlns="http://www.w3.org/2000/svg" xmlns:xlink="http://www.w3.org/1999/xlink" version="1.1">
<metadata>
Created by FontForge 20190801 at Fri May 14 16:58:03 2004
 By Jimmy Wärting
Copyright (c) 1990-1998 ParaType. All Rights Reserved. ITC Garamond is a registered trade mark of International Typeface Corporation.
</metadata>
<defs>
<font id="GaramondNarrowC-Italic" horiz-adv-x="486" >
  <font-face 
    font-family="GaramondNarrowC"
    font-weight="400"
    font-style="italic"
    font-stretch="semi-condensed"
    units-per-em="1000"
    panose-1="0 0 5 6 0 0 0 0 0 0"
    ascent="720"
    descent="-280"
    x-height="522"
    cap-height="700"
    bbox="-320 -280 919 892.627"
    underline-thickness="50"
    underline-position="-100"
    slope="-13.3"
    stemh="27"
    stemv="65"
    unicode-range="U+0020-2122"
  />
<missing-glyph horiz-adv-x="233" 
 />
    <glyph glyph-name=".notdef" horiz-adv-x="233" 
 />
    <glyph glyph-name="space" unicode=" " horiz-adv-x="233" 
 />
    <glyph glyph-name="space" unicode="&#xa0;" horiz-adv-x="233" 
 />
    <glyph glyph-name="exclam" unicode="!" horiz-adv-x="223" 
d="M95 246c23 90 44 190 97 420c10 44 25 56 49 56c49 0 30 -62 25 -76c-21 -64 -41 -113 -79 -215c-45 -125 -55 -170 -79 -238l-6 -17c-1 -4 -5 -12 -14 -12c-3 0 -8 3 -8 13c0 8 2 18 15 69zM58 102c25 0 38 -23 38 -53c0 -43 -22 -70 -51 -70c-26 0 -36 27 -36 53
c0 35 19 70 49 70z" />
    <glyph glyph-name="quotedbl" unicode="&#x22;" horiz-adv-x="375" 
d="M141 448l-1 164c0 9 -1 17 -1 26c0 58 23 83 44 83c14 0 31 -9 31 -51c0 -19 -3 -36 -8 -58l-35 -164c-2 -11 -5 -21 -17 -21s-13 10 -13 21zM293 448l-1 164c0 9 -1 17 -1 26c0 58 23 83 44 83c14 0 31 -9 31 -51c0 -19 -3 -36 -8 -58l-35 -164c-2 -11 -5 -21 -17 -21
s-13 10 -13 21z" />
    <glyph glyph-name="numbersign" unicode="#" horiz-adv-x="472" 
d="M277 249h-32l43 122h-91l-43 -122h-32l43 122h-108l19 55h108l32 90h-108l20 55h108l45 129h32l-45 -129h91l45 129h32l-45 -129h108l-19 -55h-108l-32 -90h108l-20 -55h-108zM308 426l32 90h-92l-32 -90h92z" />
    <glyph glyph-name="dollar" unicode="$" horiz-adv-x="403" 
d="M352 721h18l-17 -71c19 -4 53 -15 53 -33c0 -4 -1 -8 -6 -37c-6 -36 -9 -66 -20 -66c-12 0 -9 16 -10 28c-4 42 -5 61 -25 75l-58 -238c39 -55 57 -80 57 -139c0 -81 -51 -165 -136 -177l-20 -84h-17l19 81c-5 -1 -10 -1 -15 -1c-11 0 -22 1 -33 4l-21 -84h-17l21 89
c-16 4 -64 21 -64 40c0 9 1 17 2 37l2 40c1 17 -1 37 11 37c10 0 10 -14 12 -28c3 -26 4 -76 44 -97l68 273c-48 52 -55 104 -55 131c0 64 43 137 124 152l17 68h18l-16 -65c7 1 13 1 20 1c9 0 19 -1 28 -3zM272 395l57 232c-11 3 -22 5 -33 5c-5 0 -10 0 -15 -1l-47 -192
c12 -14 24 -29 38 -44zM196 85l55 223c-12 14 -24 29 -38 45l-64 -264c10 -4 19 -6 29 -6c6 0 12 1 18 2zM264 289l-48 -200c75 33 73 104 73 122c0 28 -7 52 -25 78zM221 458l42 169c-49 -17 -67 -62 -67 -95c0 -22 8 -50 25 -74z" />
    <glyph glyph-name="percent" unicode="%" horiz-adv-x="633" 
d="M187 370c-72 0 -103 56 -103 121c0 107 89 208 181 208c67 0 102 -51 102 -121c0 -108 -91 -208 -180 -208zM191 392c65 0 132 86 132 195c0 77 -39 90 -65 90c-76 0 -130 -110 -130 -204c0 -65 35 -81 63 -81zM384 0c-56 0 -102 37 -102 121c0 108 85 208 181 208
c66 0 101 -51 101 -121c0 -108 -90 -208 -180 -208zM388 22c65 0 133 87 133 195c0 77 -41 90 -66 90c-62 0 -129 -86 -129 -194c0 -80 40 -91 62 -91zM623 703h28l-622 -713h-31z" />
    <glyph glyph-name="ampersand" unicode="&#x26;" horiz-adv-x="693" 
d="M696 341l4 18c1 4 2 11 9 11c9 0 7 -9 7 -13l-1 -9c-6 -58 -51 -126 -115 -126c-18 0 -40 4 -59 21c2 -11 3 -21 3 -32c0 -106 -95 -232 -246 -232c-152 0 -258 128 -258 311c0 241 197 431 323 431c54 0 92 -34 92 -90c0 -67 -49 -155 -175 -234c120 37 264 141 264 235
c0 34 -10 12 -10 56c0 12 5 32 23 32s34 -13 34 -53c0 -46 -18 -81 -47 -118c-82 -106 -249 -197 -435 -210c-6 -196 103 -318 220 -318c113 0 188 109 188 187c0 79 -84 120 -129 120c-30 0 -73 -18 -80 -65c0 -2 -1 -3 0 -5s2 -4 4 -4c9 0 7 6 19 6s34 -7 34 -37
c0 -36 -27 -46 -43 -46c-22 0 -42 21 -42 56c0 46 42 135 144 135c49 0 78 -20 109 -41l48 -33c15 -10 28 -17 43 -17c22 0 61 15 72 64zM109 368c183 -3 283 157 283 243c0 21 -5 77 -59 77c-107 0 -211 -168 -224 -320z" />
    <glyph glyph-name="quotesingle" unicode="'" horiz-adv-x="151" 
d="M69 448l-1 164c0 9 -1 17 -1 26c0 58 23 83 44 83c14 0 31 -9 31 -52c0 -18 -3 -35 -8 -57l-35 -164c-2 -11 -5 -21 -17 -21s-13 10 -13 21z" />
    <glyph glyph-name="parenleft" unicode="(" horiz-adv-x="383" 
d="M210 -245l-8 5c-83 52 -149 159 -149 305c0 214 108 498 370 638l15 8c22 11 30 4 30 -4c0 -7 -6 -9 -9 -11l-6 -3c-106 -53 -169 -141 -203 -202c-71 -126 -130 -344 -130 -479c0 -99 41 -192 108 -237c9 -6 13 -8 13 -17c0 -7 -5 -10 -10 -10c-6 0 -14 3 -21 7z" />
    <glyph glyph-name="parenright" unicode=")" horiz-adv-x="327" 
d="M117 710l8 -5c83 -52 149 -159 149 -305c0 -214 -108 -498 -370 -638l-15 -8c-22 -11 -30 -4 -30 4c0 7 6 9 9 11l6 3c106 53 169 141 203 202c71 126 130 344 130 479c0 99 -41 192 -108 237c-9 6 -13 8 -13 17c0 7 5 10 10 10c6 0 14 -3 21 -7z" />
    <glyph glyph-name="asterisk" unicode="*" horiz-adv-x="318" 
d="M208 596c5 -10 11 -11 21 -13c30 -7 62 -12 62 -40c0 -19 -12 -33 -30 -33c-28 0 -37 23 -49 54c-4 10 -6 15 -16 18c-5 -10 -3 -15 0 -25c6 -20 9 -32 9 -42c0 -27 -17 -36 -32 -36c-19 0 -30 15 -30 30c0 14 8 26 17 38c16 22 22 26 18 38c-10 1 -15 -4 -22 -12
c-12 -15 -29 -36 -52 -36c-16 0 -31 12 -31 32c0 17 13 32 39 32c8 0 15 -2 23 -3c7 -1 14 -2 21 -2c8 0 11 1 15 6c-5 11 -13 12 -35 17c-36 8 -47 23 -47 40c0 19 16 29 31 29c25 0 36 -23 45 -45c6 -16 10 -26 19 -27c2 2 3 4 3 8c0 16 -13 40 -13 61c0 18 10 34 32 34
c16 0 30 -9 30 -29c0 -23 -17 -42 -23 -49c-13 -15 -13 -23 -11 -28c12 -1 19 9 34 26c9 10 23 22 40 22c19 0 31 -16 31 -31c0 -25 -27 -33 -41 -33c-7 0 -24 3 -28 4c-9 2 -17 5 -30 -5z" />
    <glyph glyph-name="plus" unicode="+" horiz-adv-x="652" 
d="M44 322v55h255v255h55v-255h254v-55h-254v-255h-55v255h-255z" />
    <glyph glyph-name="comma" unicode="," horiz-adv-x="243" 
d="M61 106c34 0 48 -36 48 -70c0 -75 -45 -171 -121 -223c-15 -11 -21 -11 -23 -11c-7 0 -8 8 -8 11c0 9 9 15 15 19c63 45 99 127 99 154c0 13 -5 16 -11 16c-5 0 -11 -2 -16 -2c-14 0 -37 12 -37 45c0 39 26 61 54 61z" />
    <glyph glyph-name="hyphenminus" horiz-adv-x="349" 
d="M77 266h231l-19 -62h-232z" />
    <glyph glyph-name="period" unicode="." horiz-adv-x="242" 
d="M64 102c26 0 44 -23 44 -53c0 -35 -22 -70 -57 -70c-27 0 -42 27 -42 53c0 29 18 70 55 70z" />
    <glyph glyph-name="slash" unicode="/" horiz-adv-x="371" 
d="M-90 -251l-33 22l552 945l33 -22z" />
    <glyph glyph-name="zero" unicode="0" horiz-adv-x="524" 
d="M189 -21c-108 0 -148 142 -148 254c0 233 147 489 297 489c145 0 146 -240 146 -254c0 -238 -148 -489 -295 -489zM339 695c-124 0 -234 -322 -234 -541c0 -125 47 -148 81 -148c125 0 234 327 234 534c0 112 -31 155 -81 155z" />
    <glyph glyph-name="one" unicode="1" horiz-adv-x="524" 
d="M388 645l-126 -505c-7 -29 -14 -53 -14 -78c0 -17 5 -23 48 -30c22 -4 31 -4 31 -16c0 -17 -13 -16 -17 -16c-33 0 -60 9 -105 9c-29 0 -58 -3 -86 -7c-7 -1 -15 -2 -23 -2c-5 0 -13 0 -13 11c0 15 12 18 16 19l17 3c46 8 53 16 70 86l112 455c2 10 4 19 6 29
c1 4 2 9 3 13c1 3 1 7 0 10c-1 2 -3 4 -5 5s-4 0 -6 0c-12 -2 -25 -7 -47 -17l-25 -11c-5 -2 -24 -12 -24 6c0 6 4 13 8 15l10 5c70 35 114 55 152 81l19 13c2 2 4 3 7 3c7 0 12 -4 12 -11c0 -10 -9 -26 -20 -70z" />
    <glyph glyph-name="two" unicode="2" horiz-adv-x="524" 
d="M290 0h-292c-6 0 -11 0 -11 9c0 22 41 63 201 217c104 100 206 189 206 329c0 102 -63 126 -104 126c-44 0 -102 -32 -141 -114l-11 -23c-4 -8 -9 -9 -12 -9s-7 2 -7 12c0 7 6 22 10 30l7 15c38 80 104 129 178 129c93 0 153 -76 153 -179c0 -102 -54 -160 -112 -210
c-80 -69 -163 -127 -275 -251h205c55 0 67 33 77 56l7 17c1 3 4 11 12 11c10 0 10 -8 10 -12c0 -15 -8 -30 -25 -91l-11 -40c-5 -19 -10 -22 -65 -22z" />
    <glyph glyph-name="three" unicode="3" horiz-adv-x="463" 
d="M125 609l6 10c26 43 75 102 155 102c69 0 118 -48 118 -118c0 -109 -100 -165 -204 -223c5 1 18 2 26 2c74 0 159 -50 159 -169c0 -155 -158 -320 -310 -320c-90 0 -109 49 -109 74c0 20 16 31 32 31c25 0 35 -21 44 -37c16 -27 26 -38 55 -38c95 0 208 108 208 279
c0 74 -27 154 -102 154c-63 0 -93 -41 -113 -41c-5 0 -11 5 -11 14c0 18 27 24 80 53c102 56 168 111 168 213c0 82 -47 88 -63 88c-58 0 -98 -53 -118 -84c-3 -5 -9 -13 -15 -13c-4 0 -9 4 -9 11c0 3 2 10 3 12z" />
    <glyph glyph-name="four" unicode="4" horiz-adv-x="523" 
d="M286 151h-313l13 53l439 496h63l-119 -496h107l-13 -53h-106l-66 -276h-70zM299 204l102 425l-372 -425h270z" />
    <glyph glyph-name="five" unicode="5" horiz-adv-x="524" 
d="M106 413l71 253c5 18 7 31 30 34l271 35c14 2 9 -12 8 -17l-15 -54c-3 -12 -7 -17 -20 -19l-243 -34c-20 -3 -25 -7 -31 -30l-33 -120c14 2 27 3 41 3c181 0 234 -120 234 -239c0 -180 -148 -352 -445 -352h-7c-11 0 -14 7 -14 12c0 4 1 13 12 14l17 1
c263 15 365 158 365 309s-112 167 -185 167c-15 0 -29 -1 -45 -1c-7 0 -15 1 -15 12c0 7 2 20 4 26z" />
    <glyph glyph-name="six" unicode="6" horiz-adv-x="522" 
d="M303 483c105 0 160 -113 160 -213c0 -145 -92 -291 -230 -291c-122 0 -202 118 -202 277c0 146 57 454 484 564c28 7 48 9 48 -6c0 -19 -27 -19 -58 -27c-289 -77 -402 -333 -402 -556c0 -173 69 -225 120 -225c80 0 168 106 168 274c0 108 -50 171 -108 171
c-48 0 -44 -28 -68 -28c-3 0 -7 4 -7 9c0 16 40 51 95 51z" />
    <glyph glyph-name="seven" unicode="7" horiz-adv-x="522" 
d="M143 700h327c22 0 45 9 45 -9c0 -48 -79 -112 -381 -816h-35l322 701c10 22 8 32 -21 31l-287 -6c-17 0 -22 6 -20 25l9 69c2 14 -1 14 10 14c9 0 5 -9 31 -9z" />
    <glyph glyph-name="eight" unicode="8" horiz-adv-x="524" 
d="M317 389c94 -58 127 -111 127 -190c0 -123 -96 -220 -219 -220c-133 0 -208 98 -208 193c0 105 81 155 196 197c-80 53 -98 105 -98 154c0 121 100 198 212 198c127 0 180 -85 180 -159c0 -99 -80 -134 -190 -173zM236 351c-57 -18 -150 -66 -150 -195
c0 -105 61 -150 131 -150c86 0 155 76 155 173c0 95 -97 152 -136 172zM292 406c126 33 146 124 146 169c0 54 -33 119 -117 119c-78 0 -137 -60 -137 -145c0 -39 15 -89 108 -143z" />
    <glyph glyph-name="nine" unicode="9" horiz-adv-x="522" 
d="M219 217c-105 0 -160 113 -160 213c0 145 92 291 230 291c122 0 202 -118 202 -277c0 -146 -57 -454 -484 -564c-28 -7 -48 -9 -48 6c0 19 27 19 58 27c289 77 402 333 402 556c0 173 -69 225 -120 225c-80 0 -168 -106 -168 -274c0 -108 50 -171 108 -171
c48 0 44 28 68 28c3 0 7 -4 7 -9c0 -16 -40 -51 -95 -51z" />
    <glyph glyph-name="colon" unicode=":" horiz-adv-x="264" 
d="M63 102c28 0 43 -22 43 -53c0 -39 -23 -70 -54 -70c-29 0 -43 22 -43 53c0 44 26 70 54 70zM149 445c29 0 45 -19 45 -52c0 -31 -19 -71 -55 -71c-29 0 -43 22 -43 53c0 30 18 70 53 70z" />
    <glyph glyph-name="semicolon" unicode=";" horiz-adv-x="264" 
d="M149 445c29 0 45 -19 45 -52c0 -31 -19 -71 -55 -71c-29 0 -43 22 -43 53c0 30 18 70 53 70zM61 106c34 0 48 -36 48 -70c0 -75 -45 -171 -121 -223c-15 -11 -21 -11 -23 -11c-7 0 -8 8 -8 11c0 9 9 15 15 19c63 45 99 127 99 154c0 13 -5 16 -11 16c-5 0 -11 -2 -16 -2
c-14 0 -37 12 -37 45c0 39 26 61 54 61z" />
    <glyph glyph-name="less" unicode="&#x3c;" horiz-adv-x="652" 
d="M74 346l500 316l25 -40l-432 -276l432 -276l-25 -40z" />
    <glyph glyph-name="equal" unicode="=" horiz-adv-x="610" 
d="M23 412v55h564v-55h-564zM23 233v55h564v-55h-564z" />
    <glyph glyph-name="greater" unicode="&#x3e;" horiz-adv-x="652" 
d="M599 346l-500 -316l-25 40l433 276l-433 276l25 40z" />
    <glyph glyph-name="question" unicode="?" horiz-adv-x="329" 
d="M135 637l8 28c6 19 16 56 89 56c84 0 132 -75 132 -160c0 -123 -104 -180 -192 -244c-36 -26 -47 -41 -68 -117l-7 -26c-1 -4 -4 -11 -12 -11c-12 0 -7 17 -6 25l2 11c10 53 14 56 25 122c6 37 9 56 61 89c64 41 159 95 159 193c0 65 -34 81 -59 81
c-33 0 -56 -28 -70 -46c-13 -17 -33 -46 -49 -46c-7 0 -25 3 -13 45zM58 102c36 0 39 -42 39 -53c0 -24 -13 -70 -52 -70c-26 0 -36 27 -36 53c0 29 16 70 49 70z" />
    <glyph glyph-name="at" unicode="@" horiz-adv-x="817" 
d="M606 61l12 -38c-24 -10 -90 -37 -190 -37c-245 0 -367 174 -367 351c0 220 171 377 387 377c201 0 333 -143 333 -314c0 -107 -62 -254 -197 -254c-77 0 -109 67 -109 120c0 27 9 61 22 88c-64 -90 -152 -208 -241 -208c-46 0 -73 39 -73 89c0 145 162 312 305 312
c26 0 43 -7 58 -15c3 -1 5 -1 9 -1c2 0 2 2 3 4c6 11 12 21 32 21h37c22 0 17 -15 15 -20c-6 -16 -11 -26 -16 -40l-35 -103c-25 -74 -45 -121 -45 -157c0 -24 13 -56 53 -56c65 0 140 80 140 214c0 165 -117 280 -284 280c-193 0 -343 -140 -343 -332
c0 -185 126 -316 326 -316c74 0 131 19 168 35zM273 250c0 -34 18 -43 35 -43c51 0 234 217 234 280c0 6 -1 39 -48 39c-97 0 -221 -174 -221 -276z" />
    <glyph glyph-name="A" unicode="A" horiz-adv-x="512" 
d="M165 268l-61 -104c-7 -12 -41 -69 -41 -92c0 -20 15 -33 38 -37l23 -4c7 -1 18 -3 18 -15c0 -17 -15 -16 -18 -16c-33 0 -62 6 -91 6c-30 0 -61 -6 -94 -6c-5 0 -14 0 -14 14c0 13 9 13 17 14c51 7 82 75 110 121l300 496c46 76 46 76 53 76c5 0 11 0 11 -13
c0 -21 0 -45 1 -81l18 -529c2 -55 6 -63 34 -67l14 -2c5 -1 14 -4 14 -14c0 -16 -10 -15 -14 -15c-29 0 -54 7 -80 7c-33 0 -67 -7 -103 -7c-11 0 -13 8 -13 15s6 14 12 15l19 2c29 3 47 8 45 78l-5 158h-193zM348 585l-163 -280h172z" />
    <glyph glyph-name="B" unicode="B" horiz-adv-x="533" 
d="M47 112l110 461c5 21 13 57 13 69c0 25 -21 27 -31 28l-15 2c-6 1 -12 6 -12 16c0 7 3 12 17 12c28 0 55 -5 82 -5c52 0 62 5 163 5c46 0 148 -7 148 -133c0 -99 -80 -173 -185 -185v-3c107 -5 145 -89 145 -161c0 -45 -10 -218 -237 -218c-53 0 -105 6 -157 6
c-40 0 -80 -6 -120 -6c-10 0 -19 0 -19 14c0 19 15 15 34 17c45 2 51 25 64 81zM187 396h64c164 0 199 101 199 169c0 99 -74 102 -115 102c-30 0 -45 -1 -85 -6zM179 363l-55 -231c-3 -12 -8 -45 -8 -58c0 -34 18 -41 84 -41c171 0 209 124 209 198
c0 133 -106 139 -173 135z" />
    <glyph glyph-name="C" unicode="C" horiz-adv-x="551" 
d="M480 160l-12 -49c-16 -65 -9 -75 -34 -91c-36 -24 -116 -41 -165 -41c-137 0 -240 109 -240 265c0 247 244 477 499 477c10 0 54 -1 54 -28c0 -8 -4 -16 -15 -77l-7 -40c-5 -29 -7 -42 -20 -42c-17 0 -13 19 -13 52v33c0 57 1 68 -30 68c-149 0 -392 -175 -392 -444
c0 -164 95 -235 171 -235c117 0 160 115 185 179c2 4 5 15 13 15c2 0 11 0 11 -13c0 -7 -2 -15 -5 -29z" />
    <glyph glyph-name="D" unicode="D" horiz-adv-x="633" 
d="M47 112l110 461c7 30 13 51 13 69c0 30 -24 27 -45 28c-11 2 -21 5 -21 18s12 12 17 12c32 0 61 -5 90 -5c44 0 90 5 136 5c214 0 257 -154 257 -269c0 -157 -93 -431 -404 -431c-44 0 -88 6 -132 6c-33 0 -66 -6 -100 -6c-10 0 -19 0 -19 14c0 19 15 15 34 17
c45 2 51 25 64 81zM243 631l-117 -499c-4 -19 -8 -33 -8 -55c0 -33 12 -49 75 -49c283 0 335 304 335 431c0 183 -105 209 -189 209c-85 0 -89 -5 -96 -37z" />
    <glyph glyph-name="E" unicode="E" 
d="M48 112l109 461c7 30 13 50 13 68c0 27 -20 28 -30 29l-15 2c-7 1 -11 5 -12 8c-1 2 0 5 0 8c1 6 2 12 16 12c125 -3 102 -10 360 0c15 1 16 -5 16 -11s-3 -10 -10 -35c-3 -11 -6 -23 -9 -34c-2 -10 -4 -19 -6 -29l-5 -21c-4 -17 -5 -35 -18 -35c-3 0 -11 2 -11 16l-1 30
c-3 84 -48 85 -109 85h-22c-14 0 -52 -3 -63 -4l-66 -276h111c46 0 55 23 77 63l12 22c4 6 5 12 14 12c8 0 10 -7 10 -10c0 -6 -2 -14 -7 -29c-26 -76 -38 -142 -45 -182c-3 -16 -4 -33 -16 -33c-6 0 -10 4 -10 14l1 36c2 79 -24 74 -72 74h-83l-51 -219
c-10 -44 -11 -58 -11 -69c0 -37 28 -33 84 -33c167 0 175 67 199 119c2 5 6 12 13 12c3 0 10 -1 10 -12c0 -13 -3 -17 -6 -27l-14 -53c-19 -70 -6 -71 -48 -71c-53 0 -106 0 -160 2c-36 1 -72 4 -108 4c-38 0 -75 -6 -116 -6c-5 0 -20 -2 -20 14c0 15 13 15 19 16l32 3
c30 3 40 46 48 79z" />
    <glyph glyph-name="F" unicode="F" 
d="M48 112l109 461c7 30 13 50 13 68c0 46 -49 15 -57 39c-1 2 0 5 0 8c1 6 2 12 16 12c75 -2 85 -13 323 -1c22 1 53 7 53 -10c0 -6 -4 -10 -10 -35c-3 -11 -6 -23 -9 -34l-9 -39l-7 -31c-2 -7 -4 -15 -13 -15c-4 0 -11 4 -11 16l-1 30c-3 78 -44 85 -95 85h-14
c-13 0 -68 -1 -85 -4l-66 -276h111c44 0 56 19 89 85c3 5 6 12 14 12c2 0 10 -1 10 -10c0 -7 -2 -14 -7 -28c-37 -105 -36 -154 -49 -203c-1 -4 -4 -13 -12 -13c-15 0 -12 20 -11 36l2 29c4 65 -39 59 -72 59h-83l-54 -233c-5 -21 -12 -41 -12 -62c0 -8 0 -25 35 -26l27 -1
c5 0 15 -1 15 -14c0 -6 -3 -17 -17 -17c-35 0 -69 6 -102 6s-65 -6 -100 -6c-5 0 -20 -2 -20 14c0 19 19 16 35 17c42 2 51 25 64 81z" />
    <glyph glyph-name="G" unicode="G" horiz-adv-x="611" 
d="M413 75l34 154c2 10 4 19 4 31c0 27 -17 30 -30 31l-20 2c-20 2 -20 6 -20 15c0 5 -1 14 16 14c33 0 65 -4 97 -4c31 0 63 3 94 6h7c8 -2 9 -8 9 -15c0 -16 -12 -14 -27 -16l-18 -3c-27 -5 -34 -40 -42 -75l-35 -160c-5 -21 -6 -33 -17 -42c-26 -21 -129 -34 -165 -34
c-170 0 -271 120 -271 285c0 287 279 457 495 457c19 0 102 -4 102 -27c0 -5 -2 -10 -7 -26c-6 -19 -12 -35 -25 -83c-7 -25 -10 -55 -25 -55s-12 25 -10 40l3 24c10 78 5 95 -55 95c-171 0 -402 -150 -402 -433c0 -177 115 -249 213 -249c81 0 87 32 95 68z" />
    <glyph glyph-name="H" unicode="H" horiz-adv-x="635" 
d="M47 112l110 461c8 35 14 53 14 69c0 28 -22 27 -39 29c-10 1 -20 4 -20 17c0 12 11 12 15 12c29 0 57 -5 85 -5c30 0 61 5 93 5c5 0 13 0 13 -11c0 -16 -11 -16 -22 -18l-13 -2c-26 -4 -32 -10 -45 -64l-52 -218h295l44 186c10 43 14 55 14 69c0 28 -23 27 -39 29
c-10 1 -20 4 -20 17c0 12 13 12 16 12c29 0 57 -5 84 -5c30 0 60 5 93 5c5 0 13 0 13 -11c0 -16 -14 -17 -22 -18l-13 -2c-26 -4 -32 -10 -45 -64l-115 -485c-5 -20 -12 -41 -12 -62c0 -15 3 -25 44 -27c16 0 25 1 25 -14c0 -6 -3 -17 -17 -17c-32 0 -64 6 -95 6
c-33 0 -66 -6 -100 -6c-10 0 -19 0 -19 14c0 15 10 15 19 16l32 3c30 3 40 46 48 79l57 242h-294l-56 -234c-5 -20 -12 -42 -12 -62c0 -15 3 -25 44 -27c16 0 25 1 25 -14c0 -6 -3 -17 -17 -17c-32 0 -64 6 -95 6c-33 0 -66 -6 -100 -6c-10 0 -19 0 -19 14c0 15 10 15 18 16
l32 3c35 3 42 53 48 79z" />
    <glyph glyph-name="I" unicode="I" horiz-adv-x="267" 
d="M48 112l109 461c7 30 13 51 13 69c0 27 -20 27 -38 29c-10 1 -20 4 -20 17c0 12 12 12 17 12c29 0 56 -5 83 -5c30 0 60 5 93 5c5 0 13 0 13 -11c0 -16 -14 -17 -22 -18l-13 -2c-26 -4 -32 -10 -45 -64l-115 -485c-5 -20 -12 -41 -12 -62c0 -15 3 -25 44 -27
c16 0 25 1 25 -14c0 -6 -3 -17 -17 -17c-32 0 -64 6 -95 6c-33 0 -66 -6 -100 -6c-10 0 -19 0 -19 14c0 15 10 15 18 16l32 4c32 4 40 41 49 78z" />
    <glyph glyph-name="J" unicode="J" horiz-adv-x="274" 
d="M48 86l116 487c7 30 13 50 13 69c0 17 -5 23 -32 27l-22 3c-9 1 -12 9 -12 16c0 14 12 12 19 12c32 0 60 -5 88 -5c29 0 58 5 90 5c5 0 17 2 17 -11c0 -16 -14 -17 -22 -18l-13 -2c-26 -4 -32 -10 -45 -64l-118 -494c-22 -91 -46 -195 -113 -278
c-19 -23 -59 -69 -113 -69c-46 0 -88 30 -88 74c0 34 23 48 40 48c28 0 36 -27 48 -63c4 -13 10 -28 28 -28c23 0 61 26 88 146c19 85 -1 11 31 145z" />
    <glyph glyph-name="K" unicode="K" horiz-adv-x="551" 
d="M165 300l-43 -180c-4 -16 -12 -52 -12 -62c0 -22 18 -25 45 -27c21 -1 24 -1 24 -14c0 -15 -10 -17 -17 -17c-32 0 -63 6 -94 6c-33 0 -66 -6 -100 -6c-10 0 -19 0 -19 14c0 9 3 16 19 17l31 2c32 2 40 47 48 79l110 461c9 37 13 54 13 69c0 29 -25 27 -39 29
c-16 2 -19 8 -19 17c0 12 10 12 17 12c28 0 55 -5 82 -5c31 0 61 5 94 5c4 0 13 0 13 -11c0 -14 -14 -17 -22 -18l-14 -2c-23 -3 -32 -12 -44 -64l-62 -260l122 114c174 163 174 186 174 193c0 17 -21 18 -29 18h-11c-5 0 -20 0 -20 17c0 12 12 13 20 13c32 0 65 -5 97 -5
c27 0 53 5 81 5c15 0 16 -7 16 -12c0 -7 -1 -14 -14 -17c-36 -8 -58 -3 -193 -132l-122 -117c1 -3 3 -6 4 -9c1 -1 1 -3 2 -4c3 -6 3 -8 5 -13l114 -297c28 -74 47 -67 80 -70c4 0 14 -1 14 -14c0 -6 -1 -15 -17 -15c-18 0 -36 3 -53 3c-24 0 -44 -5 -53 -2
c-19 6 -31 46 -37 62l-116 309c-44 -41 -56 -53 -75 -72z" />
    <glyph glyph-name="L" unicode="L" horiz-adv-x="422" 
d="M47 112l110 461c6 24 12 55 12 69c0 28 -20 27 -38 29c-16 2 -19 8 -19 17c0 12 10 12 17 12c28 0 55 -5 82 -5c33 0 66 5 100 5c5 0 14 0 14 -11c0 -15 -12 -17 -22 -18l-21 -2c-32 -3 -37 -32 -45 -64l-115 -483c-13 -53 -13 -70 -13 -74c0 -9 1 -17 24 -17h64
c97 0 128 16 167 108l6 14c2 6 7 10 11 10c3 0 12 0 12 -13c0 -6 -1 -23 -33 -135c-3 -10 -6 -15 -30 -15c-52 0 -105 1 -157 3c-35 1 -70 3 -105 3c-33 0 -66 -6 -100 -6c-10 0 -19 0 -19 14c0 11 5 16 20 17l22 2c42 4 46 36 56 79z" />
    <glyph glyph-name="M" unicode="M" horiz-adv-x="692" 
d="M64 212l98 337c9 32 24 85 24 103c0 16 -9 19 -32 19h-20c-20 0 -19 9 -19 14c0 9 3 15 23 15c22 0 45 -2 67 -2c19 0 37 3 58 2c19 -1 19 -2 22 -73l21 -478l273 519c16 30 18 32 27 32c22 0 43 -3 64 -3c19 0 39 3 59 3c4 0 14 -1 14 -13c0 -13 -8 -15 -14 -16l-20 -2
c-30 -3 -37 0 -53 -83l-75 -396c-14 -75 -21 -100 -21 -127c0 -16 3 -29 23 -32l23 -4c14 -2 16 -6 16 -14c0 -5 0 -13 -15 -13c-32 0 -62 6 -93 6c-35 0 -71 -6 -108 -6c-6 0 -14 1 -14 13c0 14 9 15 16 16l25 3c32 4 51 19 72 131l91 478h-3l-253 -476
c-74 -139 -76 -156 -90 -156c-9 0 -12 7 -12 24v44c0 22 -3 128 -5 168l-17 383l-4 1l-118 -415c-8 -26 -28 -107 -28 -140s19 -38 44 -43l14 -3c6 -1 9 -7 9 -13c0 -14 -13 -15 -19 -15c-27 0 -52 6 -77 6c-30 0 -60 -6 -90 -6c-14 0 -14 7 -14 12c0 8 0 15 14 16l15 1
c48 3 56 24 102 183z" />
    <glyph glyph-name="N" unicode="N" horiz-adv-x="615" 
d="M86 280l60 240c25 99 28 117 28 127c0 19 -15 19 -25 20l-18 1c-4 0 -16 1 -16 15c0 17 16 17 20 17c20 0 38 -1 56 -1c17 0 35 1 54 1c12 0 9 0 28 -55l172 -494l90 362c3 13 25 95 25 121c0 24 -6 31 -36 33l-15 1c-4 0 -16 1 -16 15c0 16 14 17 19 17
c26 0 51 -5 75 -5c23 0 45 5 69 5c16 0 18 -8 18 -15c0 -8 -1 -17 -19 -18l-13 -1c-48 -4 -48 -24 -96 -222l-78 -318c-28 -112 -23 -136 -39 -136s-13 27 -64 172l-164 463c-15 -50 -25 -90 -39 -147l-45 -188c-40 -167 -44 -208 -44 -221c0 -30 17 -32 35 -35l17 -3
c6 -1 14 0 14 -13c0 -17 -14 -18 -23 -18c-25 0 -47 6 -69 6c-26 0 -53 -6 -81 -6c-7 0 -21 1 -21 15c0 17 19 14 29 16l18 4c31 7 42 39 94 245z" />
    <glyph glyph-name="O" unicode="O" horiz-adv-x="638" 
d="M29 309c0 225 170 412 331 412c135 0 249 -134 249 -320c0 -228 -174 -422 -336 -422c-130 0 -244 133 -244 330zM105 254c0 -123 54 -245 173 -245c179 0 255 279 255 454c0 145 -73 228 -172 228c-153 0 -256 -240 -256 -437z" />
    <glyph glyph-name="P" unicode="P" horiz-adv-x="506" 
d="M166 304l-44 -184c-4 -16 -12 -52 -12 -62c0 -23 22 -26 35 -26l26 -1c6 0 16 -2 16 -14c0 -16 -13 -17 -17 -17c-34 0 -68 6 -102 6c-33 0 -66 -6 -100 -6c-10 0 -19 0 -19 14c0 15 10 15 18 16l32 3c30 3 38 38 48 79l110 461c6 24 12 55 12 69c0 28 -20 27 -38 29
c-16 2 -19 8 -19 17c0 12 10 12 14 12c42 0 84 -4 125 -4c43 0 86 4 130 4c30 0 148 1 148 -147c0 -79 -50 -249 -312 -249h-51zM252 665l-79 -331h52c183 0 228 156 228 228c0 103 -72 108 -128 108c-22 0 -50 -2 -73 -5z" />
    <glyph glyph-name="Q" unicode="Q" horiz-adv-x="639" 
d="M249 -19c-153 25 -219 192 -219 328c0 225 170 412 331 412c137 0 249 -134 249 -320c0 -132 -61 -352 -311 -429c-62 -19 -104 -28 -153 -67c52 -3 87 -20 116 -34c63 -30 105 -48 141 -48c46 0 78 21 110 64c12 15 21 39 33 39c3 0 9 -1 9 -13c0 -18 -19 -46 -24 -53
c-54 -82 -123 -115 -170 -115c-59 0 -109 38 -147 68c-52 41 -79 65 -100 65c-14 0 -32 -17 -57 -35c-45 -32 -60 -37 -69 -37c-15 0 -23 10 -23 19c0 35 65 78 132 81c66 51 119 68 152 75zM106 254c0 -123 54 -245 173 -245c179 0 255 279 255 454c0 145 -73 228 -172 228
c-153 0 -256 -240 -256 -437z" />
    <glyph glyph-name="R" unicode="R" horiz-adv-x="518" 
d="M167 305l-44 -185c-5 -20 -12 -41 -12 -62c0 -15 3 -25 44 -27c16 0 25 1 25 -14c0 -6 -3 -17 -17 -17c-32 0 -63 6 -94 6c-33 0 -65 -6 -100 -6c-5 0 -20 -2 -20 14c0 14 14 17 19 17l32 2c29 2 41 47 48 79l109 461c7 30 13 51 13 69c0 26 -19 27 -28 28l-17 2
c-7 1 -13 6 -13 14c0 14 13 14 17 14c37 0 72 -5 107 -5c47 0 95 5 143 5c45 0 142 -8 142 -130c0 -85 -59 -190 -207 -234v-3c9 -3 12 -9 21 -35l67 -204c20 -61 28 -60 52 -62l15 -1c18 -1 17 -10 17 -16c0 -8 -3 -15 -19 -15c-17 0 -34 2 -50 2c-14 0 -28 -2 -43 -2
c-28 0 -28 18 -35 40l-68 218c-5 16 -17 50 -26 53c-2 1 -5 0 -8 0c-29 -4 -46 -6 -70 -6zM253 668l-79 -332c190 -5 271 130 271 228c0 103 -74 110 -111 110c-27 0 -54 -1 -81 -6z" />
    <glyph glyph-name="S" unicode="S" horiz-adv-x="403" 
d="M20 165l2 -19c10 -91 37 -137 116 -137c74 0 135 66 135 158c0 75 -40 113 -88 170c-59 70 -91 118 -91 191c0 112 86 193 202 193c49 0 90 -16 112 -31c9 -6 10 -9 10 -18c0 -10 -3 -20 -8 -46l-8 -43c-4 -22 -4 -39 -16 -39c-6 0 -12 4 -12 16v19c0 40 -6 112 -93 112
c-70 0 -123 -53 -123 -125c0 -47 19 -86 73 -147c56 -63 111 -117 111 -215c0 -150 -115 -225 -206 -225c-32 0 -147 24 -147 63c0 18 3 29 6 95l1 24c0 7 0 20 12 20c11 0 11 -10 12 -16z" />
    <glyph glyph-name="T" unicode="T" horiz-adv-x="503" 
d="M163 112l130 547c1 5 5 11 -9 11h-72c-86 0 -121 -79 -132 -106c-3 -8 -7 -18 -17 -18c-5 0 -10 3 -10 14c0 10 4 19 10 38l13 43c22 71 22 110 40 110c11 0 12 -12 12 -19v-7c0 -25 26 -25 36 -25h344c28 0 37 5 45 23c7 15 9 23 19 23c12 0 10 -12 9 -20
c-6 -31 -15 -62 -24 -98l-16 -62c-2 -10 -5 -17 -14 -17c-14 0 -11 15 -11 29v37c0 30 6 55 -59 55h-78c-4 0 -10 1 -13 -12l-128 -538c-5 -20 -12 -41 -12 -62c0 -15 3 -25 44 -27c16 0 25 1 25 -14c0 -6 -3 -17 -17 -17c-32 0 -63 6 -94 6c-33 0 -65 -6 -100 -6
c-5 0 -20 -2 -20 14c0 14 14 17 19 17l32 2c29 2 40 47 48 79z" />
    <glyph glyph-name="U" unicode="U" horiz-adv-x="568" 
d="M62 282l78 294c3 10 12 50 12 61c0 14 -10 28 -29 29l-15 1c-16 1 -16 9 -16 15c0 17 11 18 20 18c33 0 64 -5 95 -5c30 0 61 5 93 5c3 0 15 0 15 -14c0 -6 -3 -16 -16 -17l-18 -2c-44 -5 -46 -6 -70 -96l-84 -320c-20 -75 -23 -109 -23 -126c0 -79 62 -116 128 -116
c159 0 186 141 206 223l58 233c30 121 34 147 34 168c0 16 -1 33 -45 36l-14 1c-5 0 -15 1 -15 14c0 15 13 16 18 16c28 0 55 -5 82 -5c26 0 52 5 79 5c4 0 12 -1 12 -12c0 -17 -13 -17 -23 -19l-20 -3c-44 -7 -53 -88 -84 -210l-63 -251c-24 -95 -58 -226 -223 -226
c-93 0 -197 46 -197 161c0 30 5 67 25 142z" />
    <glyph glyph-name="V" unicode="V" 
d="M128 87l-39 465c-5 65 -2 111 -34 116l-21 3c-7 1 -19 1 -19 15c0 13 10 14 17 14c30 0 60 -6 89 -6c31 0 61 6 93 6c6 0 16 -1 16 -13c0 -17 -13 -17 -21 -18l-20 -2c-17 -2 -32 -3 -32 -37c0 -13 1 -28 3 -47l37 -471l172 321c66 123 93 174 93 202c0 24 -17 28 -31 30
l-22 3c-6 1 -16 2 -16 15c0 16 14 17 19 17c30 0 57 -6 85 -6c29 0 59 6 88 6c8 0 16 -1 16 -13c0 -14 -10 -16 -15 -17l-17 -3c-40 -7 -53 -29 -119 -149l-258 -472c-28 -51 -29 -66 -44 -66c-21 0 -14 34 -20 107z" />
    <glyph glyph-name="W" unicode="W" horiz-adv-x="735" 
d="M226 109l132 229l-26 226c-5 39 -3 97 -36 104l-15 3c-7 1 -14 0 -14 15c0 14 11 14 14 14c26 0 52 -5 77 -5c26 0 51 5 78 5c3 0 14 0 14 -13c0 -6 -2 -14 -12 -15l-12 -1c-14 -1 -30 -6 -30 -37c0 -11 3 -42 4 -52l16 -147l62 107c45 77 50 101 50 109
c0 14 -9 17 -15 18l-16 2c-6 1 -15 2 -15 13c0 15 13 16 18 16c25 0 50 -5 74 -5c19 0 38 5 58 5c15 0 17 -7 17 -13c0 -15 -8 -18 -15 -19l-12 -2c-38 -6 -49 -12 -104 -108l-96 -169l34 -271l230 411c47 83 55 106 55 119c0 21 -13 23 -25 24l-12 1c-9 1 -12 6 -12 14
c0 13 12 13 18 13c23 0 44 -5 66 -5s44 5 68 5c3 0 14 1 14 -13c0 -15 -11 -14 -18 -15l-16 -3c-30 -6 -42 -34 -129 -188l-235 -417c-37 -66 -40 -84 -53 -84c-15 0 -11 22 -23 134l-20 181l-124 -215c-28 -48 -20 -39 -38 -69l-14 -24c-2 -3 -5 -7 -12 -7c-6 0 -8 5 -8 8
l-2 13c-3 17 -12 90 -14 109l-48 430c-15 137 -19 127 -51 130l-11 1c-8 1 -13 6 -13 13c0 15 12 16 18 16c28 0 56 -5 82 -5c27 0 53 5 83 5c5 0 16 1 16 -14c0 -13 -8 -15 -11 -15l-16 -2c-17 -2 -34 -2 -34 -36c0 -17 3 -46 6 -68z" />
    <glyph glyph-name="X" unicode="X" horiz-adv-x="561" 
d="M314 406l105 132c69 87 70 105 70 111c0 21 -23 21 -42 21c-26 2 -27 6 -27 15c0 7 1 15 22 15c30 0 58 -5 87 -5c28 0 57 5 86 5c6 0 17 -2 17 -12c0 -5 -1 -14 -11 -15h-10c-51 2 -92 -59 -133 -109l-153 -186l91 -232c30 -77 31 -112 85 -116l14 -1c9 -1 14 -7 14 -14
c0 -3 0 -15 -17 -15c-37 0 -71 6 -106 6c-34 0 -68 -6 -104 -6c-4 0 -18 0 -18 15c0 18 14 15 34 17c33 2 46 5 46 26c0 15 -6 35 -30 98l-61 159l-144 -185c-45 -57 -45 -75 -45 -82c0 -12 5 -15 42 -17c14 -1 27 -1 27 -15c0 -16 -16 -16 -20 -16c-33 0 -64 6 -95 6
c-27 0 -54 -6 -85 -6c-4 0 -12 0 -12 13s11 16 18 17l19 4c27 6 65 41 88 70l196 242l-83 215c-22 57 -33 107 -77 110l-13 1c-6 0 -13 1 -13 14c0 6 1 14 17 14c30 0 59 -5 88 -5c33 0 65 5 101 5c6 0 16 0 16 -14c0 -15 -11 -15 -21 -15l-25 -1c-22 -1 -24 -11 -24 -18
c0 -9 2 -22 17 -63z" />
    <glyph glyph-name="Y" unicode="Y" horiz-adv-x="462" 
d="M255 304l-44 -184c-4 -16 -12 -52 -12 -62c0 -22 21 -25 36 -26l19 -1c6 0 14 -1 14 -14c0 -15 -10 -17 -17 -17c-32 0 -63 6 -94 6c-33 0 -66 -6 -100 -6c-10 0 -19 0 -19 14c0 15 10 15 18 16l24 3c46 6 48 44 56 79l47 201l-69 234c-29 99 -34 119 -69 123l-17 2
c-4 0 -11 2 -11 14c0 14 10 14 14 14c34 0 65 -5 96 -5c29 0 58 5 92 5c9 0 20 -1 20 -17c0 -15 -12 -15 -27 -16l-24 -2c-9 -1 -23 -4 -23 -23c0 -9 3 -17 9 -37l76 -265l125 169c87 117 87 139 87 145c0 11 -9 12 -27 14l-19 2c-4 0 -16 1 -16 14c0 5 1 16 21 16
c30 0 57 -5 85 -5c19 0 38 5 59 5c2 0 12 0 12 -11c0 -6 -3 -15 -13 -17l-17 -3c-30 -5 -40 -20 -116 -124z" />
    <glyph glyph-name="Z" unicode="Z" horiz-adv-x="471" 
d="M-39 50l461 609c1 1 3 4 3 5v2c-1 2 -4 3 -6 3h-129c-52 0 -131 2 -173 -89l-11 -24c-4 -9 -6 -17 -14 -17c-4 0 -10 2 -10 12c0 8 3 15 8 39l14 67c6 27 6 39 18 42c20 6 96 -8 226 -4l168 5c9 0 14 -5 14 -14c0 -13 -11 -25 -16 -31l-465 -617c-2 -2 -4 -4 -4 -7
c0 -5 5 -5 11 -5h174c87 0 140 30 167 105l11 31c3 9 4 16 15 16c13 0 12 -10 12 -15c0 -10 -1 -15 -14 -81l-11 -57c-7 -36 -21 -25 -81 -25h-363c-12 0 -25 0 -25 14c0 9 6 17 20 36z" />
    <glyph glyph-name="bracketleft" unicode="[" horiz-adv-x="285" 
d="M-24 -181l198 829c15 62 18 73 45 73h121c11 0 14 -9 14 -16c0 -14 -11 -16 -18 -17c-6 -1 -12 0 -18 0c-11 1 -22 1 -33 1c-49 0 -50 -23 -55 -46l-195 -819c-10 -44 3 -46 28 -46c13 0 26 0 39 1h12c11 -1 15 -6 15 -17c0 -15 -8 -16 -19 -16h-124c-12 0 -21 4 -21 18
c0 7 1 14 11 55z" />
    <glyph glyph-name="backslash" unicode="\" horiz-adv-x="232" 
d="M144 -245l-91 955l43 6l91 -955z" />
    <glyph glyph-name="bracketright" unicode="]" horiz-adv-x="237" 
d="M261 648l-197 -829c-16 -69 -23 -73 -46 -73h-121c-11 0 -14 9 -14 16c0 14 11 16 18 17c6 1 12 0 18 0c11 -1 22 -1 33 -1c49 0 50 23 55 46l195 819c10 44 -3 46 -28 46c-13 0 -25 0 -38 -1h-12c-10 1 -16 6 -16 17c0 15 9 16 20 16h123c12 0 21 -4 21 -18
c0 -7 -1 -14 -11 -55z" />
    <glyph glyph-name="asciicircum" unicode="^" horiz-adv-x="388" 
d="M216 631l-118 -198h-53l171 288l171 -288h-53z" />
    <glyph glyph-name="underscore" unicode="_" horiz-adv-x="457" 
d="M-15 -249v47h455v-47h-455z" />
    <glyph glyph-name="grave" unicode="`" horiz-adv-x="198" 
d="M230 593l-134 66c-17 8 -20 24 -20 32c0 20 16 37 34 37c9 0 16 -5 22 -10l114 -101c13 -12 22 -19 22 -26c0 -4 -3 -10 -10 -10c-6 0 -11 4 -28 12z" />
    <glyph glyph-name="a" unicode="a" horiz-adv-x="516" 
d="M349 215l19 64h-4c-98 -185 -200 -300 -272 -300c-27 0 -79 19 -79 115c0 144 145 414 331 414c22 0 39 -4 56 -17c3 -3 9 -8 15 -8c7 0 10 9 13 17l3 9c3 9 4 13 18 13h32c6 0 12 0 12 -9c0 -6 -2 -17 -4 -22l-56 -198c-13 -44 -51 -188 -51 -216c0 -18 7 -19 11 -19
c26 0 82 100 84 104s6 10 12 10c4 0 7 -4 7 -11c0 -3 -1 -10 -10 -29c-34 -75 -111 -153 -154 -153c-20 0 -25 17 -25 37c0 45 26 146 42 199zM85 98c0 -34 9 -57 42 -57c20 0 66 13 147 132c32 47 130 199 130 255c0 19 -9 56 -53 56c-112 0 -266 -233 -266 -386z" />
    <glyph glyph-name="b" unicode="b" horiz-adv-x="485" 
d="M211 622l-91 -356l2 -1c64 135 163 257 242 257c44 0 96 -38 96 -155c0 -203 -153 -388 -317 -388c-73 0 -118 48 -118 132c0 49 16 106 23 134l79 303c6 22 21 81 21 103c0 10 -1 18 -28 18h-14c-8 0 -15 4 -15 13c0 19 13 19 22 19l27 1c22 1 55 12 73 25
c8 5 13 11 19 11c11 0 6 -16 4 -23c-10 -34 -17 -61 -25 -93zM80 72c0 -60 40 -71 63 -71c122 0 245 223 245 372c0 77 -35 95 -56 95c-100 0 -252 -309 -252 -396z" />
    <glyph glyph-name="c" unicode="c" horiz-adv-x="394" 
d="M316 456l-13 19c-7 10 -14 17 -28 17c-61 0 -178 -140 -178 -320c0 -104 50 -138 92 -138c77 0 139 98 154 122c2 3 4 6 7 7h3c3 -1 6 -4 6 -8c0 -3 -1 -8 -6 -18c-26 -54 -101 -158 -192 -158c-76 0 -136 75 -136 184c0 202 156 359 281 359c38 0 91 -20 91 -59
c0 -16 -6 -39 -35 -39c-28 0 -37 19 -46 32z" />
    <glyph glyph-name="d" unicode="d" horiz-adv-x="503" 
d="M416 481l35 138c4 15 10 45 -27 45h-18c-3 0 -13 0 -13 12c0 14 10 16 15 16l17 1c26 2 73 12 96 34c5 5 10 11 17 11c4 0 8 -3 8 -9c0 -4 -2 -10 -6 -25l-124 -456c-40 -148 -43 -170 -43 -182c0 -14 6 -15 9 -15c19 0 42 33 70 79l15 25c2 4 8 12 12 12c3 0 7 -1 7 -9
c0 -6 -3 -17 -25 -55c-46 -79 -102 -124 -131 -124c-28 0 -29 31 -29 48c0 34 18 109 29 145l26 89h-2c-36 -68 -153 -282 -254 -282c-35 0 -87 15 -87 130c0 192 172 413 337 413c23 0 48 -6 66 -41zM85 97c0 -19 1 -58 42 -58c101 0 271 329 271 403c0 32 -17 54 -46 54
c-123 0 -267 -223 -267 -399z" />
    <glyph glyph-name="e" unicode="e" horiz-adv-x="416" 
d="M319 122l12 19c3 4 7 11 11 11c3 0 8 -2 8 -9s-4 -16 -21 -43c-41 -66 -106 -121 -173 -121c-79 0 -131 73 -131 182c0 180 137 361 272 361c94 0 106 -84 106 -115c0 -136 -142 -184 -303 -201c-2 -14 -3 -27 -3 -41c0 -91 45 -130 93 -130c55 0 107 51 129 87zM104 230
c227 23 234 163 234 205c0 15 -4 64 -49 64c-74 0 -159 -109 -185 -269z" />
    <glyph glyph-name="f" unicode="f" horiz-adv-x="250" 
d="M202 485l-105 -471c-45 -201 -98 -282 -184 -282c-45 0 -82 33 -82 69c0 22 13 38 30 38c15 0 31 -8 40 -42c5 -17 6 -41 28 -41c54 0 73 134 93 223l115 506h-67c-8 0 -6 3 -5 10l2 12c1 3 3 7 10 7h68c28 147 122 224 196 224c37 0 59 -22 59 -48c0 -15 -7 -35 -30 -35
c-26 0 -39 22 -46 34c-2 3 -9 15 -22 15c-51 0 -80 -124 -94 -190h78c4 0 11 -1 10 -9l-2 -14c0 -3 -3 -6 -6 -6h-86z" />
    <glyph glyph-name="g" unicode="g" horiz-adv-x="409" 
d="M421 448h-70c22 -30 30 -70 30 -105c0 -109 -84 -200 -179 -200c-36 0 -72 15 -97 45c-15 -14 -24 -26 -24 -46c0 -44 55 -60 134 -90c57 -22 145 -60 145 -149c0 -69 -60 -171 -201 -171c-106 0 -222 60 -222 158c0 81 63 111 161 138c-38 22 -57 44 -57 82s18 67 50 96
c-33 44 -39 88 -39 124c0 117 79 192 175 192c68 0 61 -32 104 -38c4 -1 8 0 13 0l85 3c4 0 8 -4 7 -9l-3 -18c-1 -4 -2 -12 -12 -12zM239 500c-60 0 -123 -86 -123 -209c0 -96 44 -124 74 -124c65 0 127 102 127 218c0 83 -39 115 -78 115zM125 13
c-79 -22 -126 -57 -126 -123c0 -91 91 -135 162 -135c77 0 140 51 140 119c0 86 -92 110 -176 139z" />
    <glyph glyph-name="h" unicode="h" horiz-adv-x="477" 
d="M0 30l140 538c10 39 15 57 15 74c0 16 -5 29 -34 29h-13c-3 0 -13 0 -13 12c0 6 4 15 16 16l14 1c23 2 52 5 84 20c20 10 24 18 32 18c10 0 9 -10 9 -14c0 -14 -6 -28 -18 -71l-116 -430c52 108 165 299 250 299c41 0 86 -46 86 -157c0 -185 -132 -386 -243 -386
c-4 0 -60 0 -60 50c0 20 10 40 32 40c17 0 27 -11 32 -21c6 -13 10 -35 34 -35c65 0 136 271 136 367c0 76 -31 85 -46 85c-84 0 -217 -259 -275 -443c-7 -22 -8 -22 -19 -22h-38c-2 0 -9 0 -9 8c0 5 3 18 4 22z" />
    <glyph glyph-name="i" unicode="i" horiz-adv-x="250" 
d="M183 349l-54 -171c-26 -81 -27 -100 -27 -109c0 -12 3 -17 13 -17c22 0 63 60 79 91c4 8 11 23 21 23c6 0 6 -6 6 -8c0 -7 -3 -15 -6 -21l-10 -20c-26 -52 -99 -138 -141 -138c-14 0 -35 8 -35 53c0 15 2 55 46 190l54 166c10 32 16 47 16 57s-2 15 -11 15
c-20 0 -70 -72 -78 -84c-9 -13 -12 -20 -19 -20c-3 0 -7 1 -7 9c0 6 3 14 10 25c28 46 92 132 144 132c24 0 31 -18 31 -42c0 -28 -11 -65 -32 -131zM236 722c13 0 37 -5 37 -44c0 -44 -27 -78 -54 -78c-22 0 -37 18 -37 44c0 34 19 78 54 78z" />
    <glyph glyph-name="j" unicode="j" horiz-adv-x="230" 
d="M30 -10l88 338c23 90 26 108 26 113c0 13 -7 16 -12 16c-17 0 -70 -73 -78 -85c-3 -5 -9 -15 -15 -15c-2 0 -8 1 -8 11s7 18 11 25c10 16 86 129 144 129c26 0 29 -25 29 -39c0 -27 -10 -59 -19 -94l-102 -398c-25 -97 -64 -259 -186 -259c-42 0 -72 25 -72 60
c0 31 20 42 33 42c20 0 29 -21 40 -45c5 -12 12 -27 29 -27c13 0 32 9 47 55c11 35 16 61 45 173zM237 720c18 0 35 -14 35 -42c0 -43 -27 -76 -54 -76c-15 0 -36 13 -36 42c0 47 31 76 55 76z" />
    <glyph glyph-name="k" unicode="k" horiz-adv-x="459" 
d="M0 28l130 510c19 75 23 93 23 105c0 10 -2 29 -32 31c-13 1 -27 -3 -27 12c0 7 5 16 13 16l18 1c27 1 46 -2 78 13c22 10 28 22 36 22c3 0 8 -2 8 -10c0 -13 -6 -23 -14 -53l-110 -411l2 -1c74 160 170 259 240 259c37 0 80 -30 80 -102c0 -73 -45 -189 -250 -212v-3
c31 -14 41 -38 68 -112c14 -37 31 -82 71 -82c20 0 35 18 35 42c0 11 -2 22 -18 30c-6 3 -19 8 -19 28c0 14 10 29 25 29c18 0 40 -18 40 -58c0 -43 -28 -103 -90 -103c-80 0 -117 89 -145 176c-4 11 -14 42 -36 42c-21 0 -27 -46 -35 -77l-26 -101c-3 -11 -3 -19 -26 -19
h-32c-7 0 -11 2 -11 10c0 5 2 10 4 18zM128 223c120 -9 249 80 249 199c0 28 -14 49 -38 49c-81 0 -179 -174 -211 -248z" />
    <glyph glyph-name="l" unicode="l" horiz-adv-x="222" 
d="M15 83l130 498c4 15 14 53 14 69c0 14 -4 24 -32 24h-16c-5 0 -14 1 -14 13c0 9 8 15 14 15l23 2c27 2 53 4 73 16l22 13c5 3 8 5 12 5c5 0 11 -3 4 -31c-9 -40 -11 -33 -31 -108l-125 -476c-5 -21 -12 -43 -12 -62c0 -4 0 -16 11 -16c26 0 78 87 87 106c2 4 5 11 11 11
c4 0 8 -4 8 -8s0 -10 -16 -39c-19 -37 -87 -136 -132 -136c-13 0 -37 7 -37 61c0 14 2 29 6 43z" />
    <glyph glyph-name="m" unicode="m" horiz-adv-x="750" 
d="M28 24l49 163c11 37 61 206 61 254c0 5 0 16 -10 16c-23 0 -75 -75 -88 -96c-2 -3 -6 -11 -11 -11c-4 0 -9 2 -9 11c0 6 3 15 23 43c27 38 88 118 137 118c14 0 27 -8 27 -43c0 -39 -11 -88 -39 -190l-12 -44l1 -1c57 116 159 278 233 278c21 0 55 -18 55 -84
c0 -35 -9 -81 -30 -157l-12 -44h1c112 246 202 285 246 285c36 0 60 -32 60 -79c0 -27 -7 -49 -29 -117l-60 -190c-11 -34 -17 -50 -17 -76c0 -5 0 -20 11 -20c25 0 81 86 91 107c3 7 8 17 16 17c3 0 8 -2 8 -8s-1 -19 -20 -51c-32 -52 -96 -126 -142 -126
c-17 0 -39 8 -39 51c0 39 20 95 32 132l60 190c9 29 18 53 18 77c0 31 -16 37 -30 37c-84 0 -211 -275 -249 -393l-19 -59c-5 -15 -9 -14 -17 -14h-38c-6 0 -12 -1 -12 8c0 7 3 13 5 20l38 123c23 75 64 234 64 280c0 19 -4 37 -25 37c-58 0 -192 -213 -251 -410l-14 -47
c-4 -12 -9 -11 -14 -11h-40c-18 0 -12 15 -9 24z" />
    <glyph glyph-name="n" unicode="n" horiz-adv-x="519" 
d="M27 16l84 298c14 50 24 87 24 120c0 14 -1 25 -13 25c-23 0 -73 -77 -85 -98c-3 -5 -7 -13 -12 -13c-3 0 -8 2 -8 10c0 5 2 10 8 23c28 57 99 141 143 141c36 0 36 -43 36 -49c0 -61 -17 -120 -35 -179l-21 -69h4c63 146 172 297 268 297c36 0 63 -25 63 -67
c0 -31 -13 -63 -25 -101l-70 -223c-16 -50 -17 -62 -17 -68c0 -15 7 -18 14 -18c19 0 79 81 95 108c2 3 5 10 11 10c3 0 8 -2 8 -9c0 -8 -4 -16 -13 -32c-50 -84 -113 -143 -146 -143c-18 0 -40 10 -40 54c0 24 7 58 34 143l65 203c5 16 13 43 13 61c0 12 -2 32 -30 32
c-106 0 -239 -295 -274 -408l-13 -42c-6 -19 -11 -22 -19 -22h-44c-11 0 -6 12 -5 16z" />
    <glyph glyph-name="o" unicode="o" horiz-adv-x="467" 
d="M282 522c88 0 160 -84 160 -222c0 -168 -135 -321 -258 -321c-96 0 -159 97 -159 218c0 170 125 325 257 325zM283 495c-110 0 -193 -184 -193 -339c0 -78 21 -150 90 -150c126 0 197 227 197 352c0 116 -53 137 -94 137z" />
    <glyph glyph-name="p" unicode="p" horiz-adv-x="502" 
d="M-24 -162l169 629c-12 -4 -41 -15 -57 -21l-15 -6c-14 -6 -20 3 -20 10c0 11 9 16 16 19l28 11c17 7 44 17 56 21l28 103c3 11 3 18 18 18h43c10 0 8 -9 7 -14l-27 -96c22 5 51 10 90 10c42 0 165 -5 165 -172c0 -196 -148 -371 -281 -371c-32 0 -76 12 -103 51l-36 -133
c-7 -24 -17 -71 -17 -91c0 -36 32 -40 53 -44l17 -3c4 -1 12 -2 12 -14c0 -8 -3 -13 -18 -13c-36 0 -72 7 -107 7c-34 0 -68 -7 -106 -7c-8 0 -16 0 -16 12c0 15 10 17 17 18l26 4c34 5 44 19 58 72zM215 484l-90 -334c-11 -40 -13 -59 -13 -70c0 -48 35 -77 78 -77
c128 0 218 216 218 368c0 47 -9 124 -112 124c-28 0 -57 -4 -81 -11z" />
    <glyph glyph-name="q" unicode="q" 
d="M260 -149l102 390l-3 1c-101 -201 -199 -263 -251 -263c-26 0 -95 10 -95 128c0 206 194 415 334 415c8 0 29 -1 62 -10c15 -4 21 -8 32 -8c19 0 31 13 41 25c3 4 5 7 11 7c9 0 10 -7 10 -10c0 -4 -3 -10 -10 -32c-2 -6 -3 -11 -5 -16l-3 -9c-5 -17 -7 -24 -11 -41
l-142 -556c-13 -50 -15 -66 -15 -78s4 -22 34 -28l21 -4c8 -1 19 -2 19 -14c0 -17 -13 -16 -17 -16c-34 0 -65 9 -96 9c-38 0 -76 -9 -117 -9c-6 0 -16 0 -16 11c0 21 22 20 37 21c58 2 65 39 78 87zM85 105c0 -58 25 -75 53 -75c112 0 271 343 271 408c0 53 -44 62 -61 62
c-137 0 -263 -267 -263 -395z" />
    <glyph glyph-name="r" unicode="r" horiz-adv-x="359" 
d="M36 29l29 113c19 72 65 265 65 298c0 22 -10 22 -12 22c-10 0 -35 -13 -79 -98c-2 -5 -5 -9 -11 -9c-3 0 -8 1 -8 10c0 6 2 10 4 15c16 36 83 142 135 142c30 0 31 -36 31 -57c0 -20 -5 -72 -40 -211l-12 -48h1c115 299 183 316 204 316c27 0 56 -12 56 -54
c0 -40 -19 -71 -47 -71c-26 0 -30 20 -32 31l-2 12c-1 6 -4 14 -13 14c-47 0 -157 -262 -191 -375l-16 -54c-8 -26 -13 -25 -25 -25h-31c-16 0 -9 18 -6 29z" />
    <glyph glyph-name="s" unicode="s" horiz-adv-x="333" 
d="M159 210l-32 37c-29 34 -56 68 -56 125c0 81 61 150 148 150c47 0 117 -13 117 -62c0 -35 -10 -57 -22 -57c-10 0 -22 16 -41 38c-21 25 -46 54 -80 54c-31 0 -66 -24 -66 -75c0 -44 26 -72 55 -106l28 -33c29 -35 72 -85 72 -145c0 -71 -63 -157 -161 -157
c-59 0 -136 41 -136 76c0 20 7 78 27 78c11 0 18 -14 23 -24l17 -34c26 -53 57 -69 86 -69c43 0 82 33 82 92c0 46 -29 75 -61 112z" />
    <glyph glyph-name="t" unicode="t" horiz-adv-x="264" 
d="M143 505l33 119c2 9 6 14 16 14l42 1c5 0 9 -2 7 -10l-34 -124h89c5 0 6 -3 5 -7l-5 -18c-1 -3 0 -6 -7 -6h-90l-66 -242c-32 -118 -36 -151 -36 -164c0 -5 0 -22 13 -22c26 0 76 87 87 107c2 3 7 13 14 13c3 0 7 -3 7 -11s-5 -17 -9 -25c-26 -48 -88 -151 -146 -151
c-27 0 -35 29 -35 57c0 41 15 92 43 199l63 239h-73c-4 0 -6 4 -5 7l6 19c2 5 2 5 8 5h73z" />
    <glyph glyph-name="u" unicode="u" horiz-adv-x="516" 
d="M480 480l-82 -284c-29 -101 -31 -125 -31 -133c0 -21 8 -22 11 -22c30 0 83 83 96 105c4 6 9 16 15 16c3 0 7 -3 7 -9c0 -5 -3 -12 -11 -26c-37 -63 -105 -148 -161 -148c-20 0 -30 10 -30 36c0 32 40 177 50 209l17 53h-3c-69 -152 -200 -298 -286 -298
c-9 0 -45 2 -45 57c0 39 16 88 27 124l61 193c21 65 22 71 23 89v7c-1 8 -5 11 -11 11c-26 0 -69 -73 -85 -101c-2 -4 -6 -10 -12 -10c-3 0 -7 4 -7 10c0 2 1 6 7 20c41 89 110 143 144 143c15 0 28 -9 32 -28c2 -9 1 -17 0 -26c-3 -31 -7 -40 -27 -108l-70 -234
c-3 -9 -13 -45 -13 -66c0 -25 14 -27 22 -27c13 0 36 7 85 55c65 64 153 187 199 351l12 43c3 10 5 19 20 19h36c11 0 15 -4 10 -21z" />
    <glyph glyph-name="v" unicode="v" horiz-adv-x="444" 
d="M63 197l55 162c5 15 25 69 25 88c0 8 -3 18 -12 18c-13 0 -33 -13 -70 -68l-17 -25c-4 -6 -7 -13 -13 -13c-3 0 -7 1 -7 9c0 9 7 20 13 28c67 95 99 126 143 126c8 0 34 0 34 -41c0 -20 -5 -53 -40 -155l-43 -126c-17 -51 -28 -86 -28 -127c0 -32 16 -54 48 -54
c112 0 240 245 240 346c0 22 -6 40 -15 54s-20 24 -20 52c0 37 20 51 38 51c31 0 43 -44 43 -82c0 -169 -168 -461 -321 -461c-51 0 -81 37 -81 92c0 38 10 73 28 126z" />
    <glyph glyph-name="w" unicode="w" horiz-adv-x="671" 
d="M73 192l52 159c13 38 27 69 27 96c0 9 -4 18 -12 18c-23 0 -63 -55 -93 -100c-8 -12 -12 -16 -15 -16s-8 2 -8 8c0 3 1 8 10 24c18 32 84 141 153 141c7 0 37 -1 37 -55c0 -35 -16 -74 -28 -112l-44 -136c-20 -61 -36 -96 -36 -141c0 -35 13 -56 37 -56
c111 0 200 312 218 372l25 83c4 12 4 18 7 21c4 4 9 3 13 3h37c5 0 16 1 16 -8c0 -2 0 -6 -4 -18l-53 -180c-28 -94 -42 -182 -42 -222c0 -41 14 -51 29 -51c71 0 219 185 219 338c0 26 -7 39 -14 52c-13 24 -22 37 -22 59c0 36 19 51 36 51c24 0 46 -35 46 -94
c0 -153 -150 -449 -299 -449c-50 0 -59 38 -59 77c0 37 7 73 23 150l-2 1c-25 -75 -108 -228 -202 -228c-75 0 -76 77 -76 102c0 41 15 84 24 111z" />
    <glyph glyph-name="x" unicode="x" horiz-adv-x="483" 
d="M222 246l-30 125c-8 33 -23 86 -56 86c-17 0 -42 -14 -50 -95c-1 -9 -1 -22 -10 -22c-10 0 -10 14 -10 23c0 10 2 19 4 29c22 119 79 130 100 130c55 0 76 -77 102 -204c80 140 122 204 173 204c25 0 51 -14 51 -58c0 -46 -29 -71 -52 -71c-21 0 -30 19 -30 33
c0 11 3 10 3 25c0 12 -7 15 -11 15c-28 0 -110 -147 -127 -178l37 -155c8 -34 17 -91 45 -91c27 0 37 46 43 77l3 16c2 13 2 27 12 27c15 0 7 -39 5 -52c-22 -115 -74 -131 -92 -131c-63 0 -81 140 -102 234c-44 -86 -132 -234 -208 -234c-27 0 -55 13 -55 60
c0 49 30 77 55 77c26 0 32 -26 32 -40c0 -5 -1 -13 -3 -18c-2 -7 -4 -12 -4 -19c0 -9 5 -10 9 -10c48 0 135 155 166 217z" />
    <glyph glyph-name="y" unicode="y" horiz-adv-x="425" 
d="M194 10c65 90 168 261 168 356c0 11 -2 22 -5 33c-9 29 -23 40 -23 69c0 24 10 54 39 54c33 0 44 -44 44 -83c0 -91 -28 -174 -198 -438c-73 -113 -163 -269 -261 -269c-39 0 -69 33 -69 61c0 13 6 42 32 42c19 0 29 -16 41 -32c11 -16 17 -29 37 -29c28 0 55 33 68 50
c58 76 71 132 71 286c0 182 -14 353 -47 353c-10 0 -36 -10 -70 -105c-2 -5 -5 -14 -12 -14c-4 0 -9 3 -9 10c0 4 1 11 10 34c36 94 80 134 109 134c80 0 83 -234 83 -353c0 -47 -4 -110 -8 -159z" />
    <glyph glyph-name="z" unicode="z" horiz-adv-x="440" 
d="M85 75v-3c24 6 38 9 57 10h10c41 -1 55 -6 84 -14c35 -10 52 -12 62 -12c49 0 65 40 65 67c0 15 -6 22 -6 33c0 9 5 10 8 10c9 0 18 -26 18 -54c0 -67 -49 -142 -129 -142c-19 0 -37 7 -55 14c-68 28 -96 61 -121 61c-31 0 -61 -66 -89 -66c-10 0 -19 12 -19 27
c0 16 8 31 31 43c16 9 36 14 52 17c162 231 268 322 314 359l-1 2c-26 -14 -49 -17 -73 -17c-43 0 -65 7 -93 16c-17 5 -37 13 -61 13c-36 0 -61 -24 -61 -66v-14v-4c0 -4 0 -14 -8 -14c-13 0 -12 25 -12 38c0 64 39 143 110 143c34 0 67 -20 90 -33c33 -19 62 -38 104 -38
c8 0 16 0 22 4c34 21 34 73 73 73c16 0 20 -12 20 -21c0 -24 -21 -36 -38 -49l-17 -13c-18 -14 -37 -29 -63 -58c-22 -24 -42 -50 -62 -75c-31 -39 -62 -78 -96 -115c-34 -38 -38 -39 -116 -122z" />
    <glyph glyph-name="braceleft" unicode="{" horiz-adv-x="308" 
d="M67 214l9 40c92 7 107 132 124 208l16 70c14 63 48 175 167 192l-7 -28c-70 -14 -84 -94 -107 -201l-21 -96c-12 -57 -43 -146 -145 -162l-1 -6c36 -6 78 -28 78 -93c0 -23 -4 -45 -10 -69l-25 -97c-22 -87 -29 -116 -29 -140c0 -26 11 -56 40 -60l-6 -28
c-49 2 -89 44 -89 108c0 37 11 76 31 154l16 62c3 13 12 64 12 79c0 33 -21 64 -53 67z" />
    <glyph glyph-name="bar" unicode="|" horiz-adv-x="102" 
d="M25 773h52v-1053h-52v1053z" />
    <glyph glyph-name="braceright" unicode="}" horiz-adv-x="308" 
d="M241 254l-9 -40c-92 -7 -107 -132 -124 -208l-16 -70c-14 -63 -48 -175 -167 -192l7 28c70 14 84 94 107 201l21 96c12 57 43 146 145 162l1 6c-36 6 -78 28 -78 93c0 23 4 45 10 69l25 97c22 87 29 116 29 140c0 26 -11 56 -40 60l6 28c49 -2 89 -44 89 -108
c0 -28 -6 -56 -13 -83c-6 -24 -12 -47 -18 -71l-16 -62c-3 -13 -12 -64 -12 -79c0 -33 21 -64 53 -67z" />
    <glyph glyph-name="asciitilde" unicode="~" horiz-adv-x="343" 
d="M56 566l-27 12c15 43 52 116 124 116c41 0 66 -18 94 -37l22 -15c16 -11 31 -20 53 -20c37 0 61 52 69 78l27 -11c-12 -39 -45 -120 -113 -120c-39 0 -65 19 -86 33l-30 20c-17 11 -34 21 -55 21c-39 0 -61 -42 -78 -77z" />
    <glyph glyph-name="afii10051" unicode="&#x402;" horiz-adv-x="658" 
d="M162 112l131 547c3 12 -6 11 -9 11h-72c-87 0 -118 -73 -133 -106c-4 -9 -7 -18 -16 -18c-5 0 -9 4 -10 7c-1 2 0 5 0 7c2 13 2 16 9 38c35 108 35 153 54 153c6 0 11 -5 12 -20c1 -17 -1 -31 36 -31h343c26 0 35 3 46 23c8 16 8 23 18 23c4 0 9 -3 10 -6
c1 -2 0 -4 0 -14c0 -9 -3 -17 -24 -98l-16 -62c-4 -15 -10 -17 -15 -17c-4 0 -10 1 -11 14c-1 5 0 10 0 15c1 12 1 25 1 37c0 59 -27 55 -59 55h-79c-4 0 -10 1 -13 -12l-68 -284c0 -2 1 -4 4 -4c7 0 15 9 44 25c32 18 68 36 133 36c98 0 139 -78 139 -176
c0 -168 -124 -276 -215 -276c-44 0 -99 30 -99 63c0 23 21 122 42 122c5 0 12 -2 12 -18c0 -6 -2 -13 -3 -19c-3 -14 -4 -27 -4 -41c0 -71 39 -77 58 -77c59 0 127 92 127 238c0 120 -68 133 -110 133c-63 0 -133 -26 -148 -91l-66 -278c-1 -4 -3 -9 -10 -11
c-3 -1 -5 0 -8 0c-14 2 -29 4 -43 4c-22 0 -44 -4 -67 -4c-10 0 -19 0 -19 14c0 15 10 15 18 16l32 3c35 3 42 53 48 79z" />
    <glyph glyph-name="afii10052" unicode="&#x403;" horiz-adv-x="436" 
d="M251 661l-128 -541c-5 -20 -12 -41 -12 -62c0 -14 1 -25 48 -27c18 0 29 2 29 -14c0 -6 -3 -17 -17 -17c-35 0 -69 6 -103 6c-33 0 -66 -6 -100 -6c-10 0 -19 0 -19 14c0 15 10 15 19 16l32 3c30 3 40 46 48 79l109 461c10 42 13 57 13 68c0 24 -16 28 -27 29l-17 2
c-12 1 -14 10 -14 16c0 12 12 12 17 12c119 -3 195 -10 358 0c6 0 16 1 16 -11c0 -7 -4 -15 -8 -34c-3 -12 -6 -23 -8 -35c-2 -10 -4 -21 -6 -31l-3 -15c-3 -17 -4 -39 -18 -39c-5 0 -11 6 -12 16l-3 31c-5 50 -8 84 -101 84h-8c-25 0 -59 -2 -85 -5zM518 810l-164 -66
c-21 -9 -28 -13 -36 -13c-7 0 -8 6 -8 9c0 13 28 25 39 32l160 101c10 6 19 10 28 10c11 0 22 -8 22 -26c0 -26 -22 -39 -41 -47z" />
    <glyph glyph-name="quotesinglbase" unicode="&#x201a;" horiz-adv-x="128" 
d="M37 107c44 0 58 -44 58 -84c0 -88 -53 -151 -106 -199c-5 -4 -15 -14 -24 -14c-6 0 -8 6 -8 9c0 10 7 15 14 21c42 34 86 106 86 145c0 6 -3 17 -7 19c-2 1 -6 1 -9 0c-5 -2 -10 -5 -20 -5c-26 0 -35 27 -35 47c0 27 14 61 51 61z" />
    <glyph glyph-name="afii10100" unicode="&#x453;" horiz-adv-x="388" 
d="M39 93l75 315c4 16 6 26 6 35c0 31 -24 28 -37 29c-8 1 -15 3 -15 14c0 13 12 15 28 15h212c53 0 64 2 71 16c3 6 5 17 15 17c15 0 12 -15 11 -21c-4 -19 -6 -25 -7 -34l-12 -86c-2 -16 -4 -36 -19 -36c-12 0 -13 18 -14 33c-1 79 -25 84 -55 84h-86c-7 0 -15 -3 -18 -16
l-88 -365c-12 -51 24 -58 48 -63l16 -3c3 -1 9 -4 9 -14c0 -8 -3 -13 -18 -13c-33 0 -66 7 -97 7c-30 0 -59 -7 -93 -7c-8 0 -14 0 -14 12c0 14 7 16 16 18l20 4c32 6 42 44 46 59zM424 659l-163 -66c-26 -11 -33 -12 -37 -12c-5 0 -6 4 -6 6c0 9 17 17 37 30l160 101
c14 9 23 10 28 10c19 0 21 -21 21 -25c0 -27 -23 -37 -40 -44z" />
    <glyph glyph-name="quotedblbase" unicode="&#x201e;" horiz-adv-x="266" 
d="M37 107c44 0 58 -44 58 -84c0 -88 -53 -151 -106 -199c-5 -4 -15 -14 -24 -14c-6 0 -8 6 -8 9c0 10 7 15 14 21c42 34 86 106 86 145c0 6 -3 17 -7 19c-2 1 -6 1 -9 0c-5 -2 -10 -5 -20 -5c-26 0 -35 27 -35 47c0 27 14 61 51 61zM175 107c44 0 58 -44 58 -84
c0 -88 -53 -151 -106 -199c-5 -4 -15 -14 -24 -14c-6 0 -8 6 -8 9c0 10 7 15 14 21c42 34 86 106 86 145c0 6 -3 17 -7 19c-2 1 -6 1 -9 0c-5 -2 -10 -5 -20 -5c-26 0 -35 27 -35 47c0 27 14 61 51 61z" />
    <glyph glyph-name="ellipsis" unicode="&#x2026;" horiz-adv-x="503" 
d="M58 102c25 0 38 -22 38 -53c0 -36 -19 -70 -51 -70c-26 0 -36 27 -36 53c0 34 17 70 49 70zM193 102c25 0 38 -23 38 -53c0 -34 -19 -70 -51 -70c-26 0 -36 27 -36 53c0 32 16 70 49 70zM328 102c25 0 38 -23 38 -53c0 -43 -22 -70 -51 -70c-26 0 -36 27 -36 53
c0 32 16 70 49 70z" />
    <glyph glyph-name="dagger" unicode="&#x2020;" horiz-adv-x="406" 
d="M45 -254l61 255c48 203 53 247 45 276c-7 24 -15 24 10 54c29 35 47 95 54 123c-28 6 -48 0 -71 -16c-20 -13 -37 -29 -55 -29c-19 0 -41 22 -41 62c0 35 29 62 54 62c19 0 37 -18 52 -28c20 -14 40 -21 68 -17c27 97 -5 114 -5 164c0 39 38 69 67 69c33 0 53 -37 53 -69
c0 -12 -11 -22 -19 -32c-20 -24 -48 -55 -69 -132c28 -6 50 0 72 16c19 13 36 29 55 29c18 0 41 -24 41 -62c0 -34 -32 -62 -55 -62c-18 0 -37 17 -52 28c-20 14 -39 21 -68 17c-8 -32 -9 -55 -9 -85c0 -32 5 -38 9 -48c7 -17 2 -20 -19 -44c-23 -27 -38 -69 -88 -276
l-61 -255h-29z" />
    <glyph glyph-name="daggerdbl" unicode="&#x2021;" horiz-adv-x="472" 
d="M129 -254l54 255c11 54 19 93 29 153c-28 6 -48 0 -71 -16c-20 -13 -37 -29 -55 -29c-19 0 -41 22 -41 62c0 35 29 62 54 62c19 0 37 -18 52 -28c20 -14 40 -21 68 -17c14 79 14 49 63 266c-28 6 -50 0 -72 -16c-19 -13 -36 -29 -55 -29c-18 0 -41 24 -41 62
c0 34 32 62 55 62c18 0 37 -17 52 -28c20 -14 39 -21 68 -17c26 100 -6 111 -6 164c0 31 29 69 67 69c34 0 54 -37 54 -69c0 -12 -11 -22 -19 -32c-20 -24 -48 -55 -69 -132c28 -6 48 0 71 16c20 13 37 29 55 29c19 0 41 -22 41 -62c0 -35 -29 -62 -54 -62
c-19 0 -37 18 -52 28c-20 14 -40 21 -68 17c-45 -207 -29 -192 -53 -266c28 -6 48 0 71 16c20 13 37 29 55 29c19 0 41 -22 41 -62c0 -35 -29 -62 -54 -62c-19 0 -37 18 -52 28c-20 14 -40 21 -68 17c-7 -26 -28 -109 -37 -153l-54 -255h-29z" />
    <glyph glyph-name="accent" horiz-adv-x="2" 
d="M-44 659l-163 -66c-26 -11 -33 -12 -37 -12c-5 0 -6 4 -6 6c0 9 17 17 37 30l160 101c14 9 23 10 28 10c19 0 21 -21 21 -25c0 -27 -23 -37 -40 -44z" />
    <glyph glyph-name="perthousand" unicode="&#x2030;" horiz-adv-x="896" 
d="M187 370c-72 0 -103 56 -103 121c0 107 89 208 181 208c67 0 102 -51 102 -121c0 -108 -91 -208 -180 -208zM191 392c65 0 132 86 132 195c0 77 -39 90 -65 90c-76 0 -130 -110 -130 -204c0 -65 35 -81 63 -81zM384 0c-56 0 -102 37 -102 121c0 108 85 208 181 208
c66 0 101 -51 101 -121c0 -108 -90 -208 -180 -208zM388 22c65 0 133 87 133 195c0 77 -41 90 -66 90c-62 0 -129 -86 -129 -194c0 -80 40 -91 62 -91zM623 703h28l-622 -713h-31zM713 0c-56 0 -102 37 -102 121c0 108 85 208 181 208c66 0 101 -51 101 -121
c0 -108 -90 -208 -180 -208zM717 22c65 0 133 87 133 195c0 77 -41 90 -66 90c-62 0 -129 -86 -129 -194c0 -80 40 -91 62 -91z" />
    <glyph glyph-name="afii10058" unicode="&#x409;" horiz-adv-x="821" 
d="M348 700h82c26 0 52 -5 77 -5c31 0 60 5 93 5c5 0 13 0 13 -11c0 -18 -16 -17 -35 -20c-27 -5 -32 -10 -45 -64l-51 -213c38 10 75 14 113 14c51 0 181 -4 181 -168c0 -124 -74 -238 -256 -238c-53 0 -105 6 -157 6c-33 0 -66 -6 -100 -6c-10 0 -19 0 -19 14
c0 18 14 15 35 17c38 2 49 17 64 81l109 461c9 36 13 53 13 69c0 12 -5 24 -53 24h-65c-78 0 -76 -79 -118 -224c-125 -430 -224 -463 -255 -463c-14 0 -49 6 -49 51c0 43 28 59 54 59c17 0 25 -9 30 -13c4 -3 8 -7 16 -7c40 0 99 154 114 194c24 67 104 316 104 368
c0 27 -16 35 -29 36l-25 2c-8 1 -13 6 -14 9c-1 2 -1 5 0 7c3 14 12 15 19 15c28 0 54 -2 81 -2c24 0 49 2 73 2zM474 359l-54 -227c-9 -39 -9 -55 -9 -63c0 -22 12 -36 80 -36c35 0 212 2 212 206c0 94 -45 134 -149 134c-27 0 -54 -6 -80 -14z" />
    <glyph glyph-name="guilsinglleft" unicode="&#x2039;" horiz-adv-x="290" 
d="M115 255l75 -186c5 -13 -3 -18 -8 -18c-4 0 -6 3 -9 7l-133 187c-3 4 -3 7 -3 10c0 4 4 6 8 10l224 189c4 3 6 5 9 5s7 -2 7 -7c0 -4 -2 -6 -4 -8z" />
    <glyph glyph-name="afii10059" unicode="&#x40a;" horiz-adv-x="894" 
d="M47 112l110 461c12 51 13 61 13 69c0 28 -23 27 -39 29s-19 8 -19 17c0 12 10 12 14 12c29 0 57 -5 85 -5c31 0 62 5 94 5c12 0 12 -7 12 -11c0 -17 -3 -14 -35 -20c-24 -4 -32 -10 -45 -64l-52 -218h296l44 186c12 51 13 62 13 69c0 28 -23 27 -39 29s-19 8 -19 17
c0 11 9 12 15 12c29 0 56 -5 84 -5c31 0 62 5 94 5c4 0 12 0 12 -11c0 -18 -13 -16 -35 -20c-23 -4 -32 -10 -45 -64l-50 -213c38 10 75 14 113 14c48 0 181 -4 181 -168c0 -152 -101 -238 -256 -238c-53 0 -105 6 -157 6c-33 0 -66 -6 -100 -6c-10 0 -19 0 -19 14
c0 19 15 15 34 17c42 2 49 19 64 81l58 242h-295l-56 -234c-4 -16 -12 -52 -12 -62c0 -24 24 -26 45 -26c15 -1 24 0 24 -15c0 -16 -14 -17 -17 -17c-32 0 -63 6 -94 6c-33 0 -66 -6 -100 -6c-10 0 -19 0 -19 14c0 19 15 15 34 17c41 2 49 19 64 81zM547 359l-54 -227
c-10 -43 -9 -58 -9 -63c0 -21 13 -36 80 -36c196 0 213 147 213 206c0 105 -56 134 -150 134c-27 0 -54 -6 -80 -14z" />
    <glyph glyph-name="afii10061" unicode="&#x40c;" horiz-adv-x="526" 
d="M48 112l109 461c8 36 14 53 14 69c0 43 -51 18 -58 38c-1 2 0 5 0 8c1 5 2 12 14 12c29 0 57 -5 85 -5c31 0 61 5 93 5c12 0 13 -6 13 -11c0 -18 -11 -16 -22 -18l-13 -2c-33 -5 -36 -26 -45 -64l-48 -199c-6 -26 2 -26 27 -26h9c78 0 128 90 151 138l40 83
c25 51 60 110 125 110c51 0 56 -43 56 -58c0 -32 -19 -61 -48 -61c-27 0 -35 20 -39 34c-3 9 -6 20 -21 20c-10 0 -29 -11 -58 -83l-30 -73c-37 -91 -103 -115 -129 -122l-1 -4c77 -11 98 -99 111 -142l30 -102c23 -78 36 -87 56 -88h12c9 0 13 -6 13 -14
c0 -22 -38 -19 -80 -19s-56 44 -71 97l-34 120c-24 84 -43 134 -106 134c-34 0 -29 -14 -32 -27l-48 -203c-5 -20 -12 -41 -12 -62c0 -15 3 -25 44 -27c16 0 25 1 25 -14c0 -6 -3 -17 -17 -17c-32 0 -63 6 -94 6c-33 0 -65 -6 -100 -6c-5 0 -20 -2 -20 14c0 15 13 15 19 16
l32 3c30 3 40 46 48 79zM537 810l-164 -66c-21 -9 -28 -13 -36 -13c-7 0 -8 6 -8 9c0 13 28 25 39 32l160 101c10 6 19 10 28 10c11 0 22 -8 22 -26c0 -26 -22 -39 -41 -47z" />
    <glyph glyph-name="afii10060" unicode="&#x40b;" horiz-adv-x="666" 
d="M162 112l131 547c3 12 -6 11 -9 11h-72c-87 0 -118 -73 -133 -106c-4 -9 -7 -18 -16 -18c-5 0 -9 4 -10 7c-1 2 0 5 0 7c2 13 2 15 9 38c7 21 22 73 27 90l11 40c2 9 4 23 16 23c6 0 11 -5 12 -20c1 -17 -1 -31 36 -31h343c26 0 35 3 46 23c8 16 8 23 18 23
c4 0 9 -3 10 -6c1 -2 0 -4 0 -14c0 -9 -3 -17 -24 -98l-16 -62c-4 -15 -10 -17 -15 -17c-4 0 -10 1 -11 14c-1 5 0 10 0 15c1 12 1 25 1 37c0 59 -27 55 -59 55h-79c-4 0 -10 1 -13 -12l-64 -269v-7s2 -1 3 -1c4 0 7 2 18 8c26 16 96 52 168 52c21 0 122 -3 122 -120
c0 -28 -7 -55 -14 -85l-27 -114c-2 -9 -10 -42 -10 -53c0 -42 35 -37 45 -38c8 -1 11 -10 11 -16c0 -15 -16 -15 -22 -15c-30 0 -60 5 -90 5c-32 0 -64 -5 -98 -5c-2 0 -11 0 -14 8c-1 2 0 5 0 7c0 4 0 11 9 14c7 3 19 2 29 3c53 4 57 53 66 90l27 110c5 19 11 37 11 57
c0 93 -57 101 -83 101c-37 0 -87 -9 -131 -34c-28 -16 -34 -26 -41 -57l-43 -179c-4 -16 -12 -52 -12 -62c0 -22 18 -25 45 -27c21 -1 24 -1 24 -14c0 -15 -10 -17 -17 -17c-32 0 -63 6 -94 6c-33 0 -66 -6 -100 -6c-10 0 -19 0 -19 14c0 15 10 15 18 16l32 3
c35 3 42 53 48 79z" />
    <glyph glyph-name="afii10145" unicode="&#x40f;" horiz-adv-x="635" 
d="M319 0h-67l-16 -107c-4 -25 -5 -63 -39 -63c-23 0 -33 30 -20 63l42 107h-67c-37 0 -73 5 -109 5c-27 0 -53 -5 -81 -5c-5 0 -13 0 -13 11c0 18 16 17 35 20c26 5 32 10 45 64l115 485c5 20 12 42 12 62c0 15 -2 24 -44 27c-18 0 -24 0 -24 14c0 16 10 17 16 17
c32 0 64 -6 95 -6c33 0 66 6 100 6c10 0 19 0 19 -14c0 -19 -15 -15 -34 -17c-45 -2 -51 -25 -64 -81l-132 -555h294l130 547c5 20 12 42 12 62c0 15 -2 24 -44 27c-18 0 -24 0 -24 14c0 16 10 17 16 17c32 0 64 -6 95 -6c33 0 66 6 100 6c10 0 19 0 19 -14
c0 -19 -15 -15 -34 -17c-45 -2 -51 -25 -64 -81l-110 -461c-8 -36 -14 -53 -14 -69c0 -7 1 -27 32 -29l15 -1c7 0 12 -8 12 -16c0 -12 -10 -12 -15 -12c-28 0 -54 5 -80 5c-36 0 -72 -5 -109 -5z" />
    <glyph glyph-name="afii10099" unicode="&#x452;" horiz-adv-x="462" 
d="M0 30l143 548h-83l7 27h83l3 13c2 9 2 28 2 33c0 17 -15 20 -34 20h-13c-10 0 -13 7 -13 12c0 6 3 15 16 16l14 1c29 2 57 5 83 20l21 12c4 2 22 15 22 -8c0 -13 -14 -52 -19 -71l-13 -48h132l-6 -27h-133l-96 -355c70 146 181 299 251 299c24 0 70 -22 70 -145
c0 -256 -168 -645 -322 -645c-44 0 -60 31 -60 50c0 14 6 40 33 40c21 0 28 -13 33 -25c6 -13 12 -31 32 -31c84 0 220 507 220 622c0 33 -1 77 -35 77c-81 0 -235 -291 -275 -443c-6 -22 -12 -22 -20 -22h-38c-2 0 -9 0 -9 8c0 5 3 18 4 22z" />
    <glyph glyph-name="quoteleft" unicode="&#x2018;" horiz-adv-x="168" 
d="M175 592c-44 0 -58 44 -58 84c0 88 53 151 106 199c5 4 15 14 24 14c6 0 8 -6 8 -9c0 -10 -7 -15 -14 -21c-42 -34 -86 -106 -86 -145c0 -6 3 -17 7 -19c2 -1 6 -1 9 0c5 2 10 5 20 5c26 0 35 -27 35 -47c0 -27 -14 -61 -51 -61z" />
    <glyph glyph-name="quoteright" unicode="&#x2019;" horiz-adv-x="228" 
d="M165 722c44 0 58 -44 58 -84c0 -88 -53 -151 -106 -199c-5 -4 -15 -14 -24 -14c-6 0 -8 6 -8 9c0 10 7 15 14 21c42 34 86 106 86 145c0 6 -3 17 -7 19c-2 1 -6 1 -9 0c-5 -2 -10 -5 -20 -5c-26 0 -35 27 -35 47c0 27 14 61 51 61z" />
    <glyph glyph-name="quotedblleft" unicode="&#x201c;" horiz-adv-x="306" 
d="M313 592c-44 0 -58 44 -58 84c0 88 53 151 106 199c5 4 15 14 24 14c6 0 8 -6 8 -9c0 -10 -7 -15 -14 -21c-42 -34 -86 -106 -86 -145c0 -6 3 -17 7 -19c2 -1 6 -1 9 0c5 2 10 5 20 5c26 0 35 -27 35 -47c0 -27 -14 -61 -51 -61zM175 592c-44 0 -58 44 -58 84
c0 88 53 151 106 199c5 4 15 14 24 14c6 0 8 -6 8 -9c0 -10 -7 -15 -14 -21c-42 -34 -86 -106 -86 -145c0 -6 3 -17 7 -19c2 -1 6 -1 9 0c5 2 10 5 20 5c26 0 35 -27 35 -47c0 -27 -14 -61 -51 -61z" />
    <glyph glyph-name="quotedblright" unicode="&#x201d;" horiz-adv-x="366" 
d="M165 721c44 0 58 -44 58 -84c0 -88 -53 -151 -106 -199c-5 -4 -15 -14 -24 -14c-6 0 -8 6 -8 9c0 10 7 15 14 21c42 34 86 106 86 145c0 6 -3 17 -7 19c-2 1 -6 1 -9 0c-5 -2 -10 -5 -20 -5c-26 0 -35 27 -35 47c0 27 14 61 51 61zM303 721c44 0 58 -44 58 -84
c0 -88 -53 -151 -106 -199c-5 -4 -15 -14 -24 -14c-6 0 -8 6 -8 9c0 10 7 15 14 21c42 34 86 106 86 145c0 6 -3 17 -7 19c-2 1 -6 1 -9 0c-5 -2 -10 -5 -20 -5c-26 0 -35 27 -35 47c0 27 14 61 51 61z" />
    <glyph glyph-name="bullet" unicode="&#x2022;" horiz-adv-x="652" 
d="M179 350c0 81 66 147 147 147c79 0 147 -65 147 -147c0 -80 -67 -147 -147 -147c-82 0 -147 68 -147 147z" />
    <glyph glyph-name="endash" unicode="&#x2013;" horiz-adv-x="565" 
d="M83 277h460l-15 -47h-463z" />
    <glyph glyph-name="emdash" unicode="&#x2014;" horiz-adv-x="795" 
d="M83 277h690l-15 -47h-693z" />
    <glyph glyph-name="Accent" horiz-adv-x="2" 
d="M-112 810l-164 -66c-21 -9 -28 -13 -36 -13c-7 0 -8 6 -8 9c0 13 28 25 39 32l160 101c10 6 19 10 28 10c11 0 22 -8 22 -26c0 -26 -22 -39 -41 -47z" />
    <glyph glyph-name="trademark" unicode="&#x2122;" horiz-adv-x="679" 
d="M181 699h164c9 0 9 1 15 11c2 5 2 7 7 7c2 0 5 -1 5 -5c0 -6 -5 -13 -10 -36l-8 -36c-1 -3 -2 -8 -8 -8c-3 0 -6 2 -6 8l-1 19c0 6 -1 24 -21 24h-36c-3 0 -8 -1 -10 -8l-50 -208c-8 -32 0 -34 15 -36c7 -1 12 -1 12 -8c0 -3 -2 -7 -8 -8h-7c-14 1 -29 1 -43 1
s-27 0 -41 -1h-8c-7 1 -7 5 -7 8c0 6 6 7 9 7l9 1c16 2 23 1 31 36l50 208c1 3 1 5 0 6s-3 2 -6 2l-13 1c-19 1 -46 -2 -70 -37l-7 -10c-2 -2 -4 -6 -8 -6c-3 0 -8 4 -3 13c16 33 25 47 31 64l2 6c1 2 2 4 6 4c5 0 5 -5 5 -10c2 -9 5 -9 10 -9zM477 692l19 -191
c0 -4 0 -6 1 -6s2 2 4 6l116 193c1 2 1 3 2 4s4 1 7 1h58c6 0 14 1 14 -8c0 -6 -5 -8 -9 -8l-16 -2c-17 -2 -22 -25 -24 -35l-37 -179c-5 -26 -2 -36 16 -36c4 0 11 0 11 -8c0 -9 -7 -9 -12 -9c-16 0 -31 2 -45 2c-15 0 -31 -2 -48 -2c-2 0 -7 0 -7 8c0 7 6 7 10 8l14 2
c10 1 18 9 23 35l36 179l3 9c1 4 1 5 1 6s-3 -1 -5 -5l-116 -195c-13 -22 -18 -32 -23 -32c-4 0 -6 12 -8 32l-20 191c0 3 -1 4 -2 4s-1 -2 -2 -5l-41 -146c-12 -42 -13 -53 -13 -59c0 -9 2 -14 10 -15l15 -2c2 0 5 -2 5 -7c0 -4 -2 -6 -7 -7h-8c-12 1 -24 2 -36 2
c-10 0 -19 -1 -29 -2c-3 0 -5 -1 -8 0c-4 1 -4 5 -4 7s1 3 2 4c2 3 3 3 6 3l16 2c12 1 18 13 24 34l54 181c4 13 10 36 -15 36c-4 0 -9 -1 -11 5v4c1 3 4 8 9 8h63c4 0 7 -2 7 -7z" />
    <glyph glyph-name="afii10106" unicode="&#x459;" horiz-adv-x="630" 
d="M341 470h-58c-52 0 -55 -16 -61 -39c-18 -66 -64 -197 -80 -238c-42 -104 -103 -214 -175 -214c-34 0 -54 29 -54 62c0 31 19 42 34 42c20 0 26 -16 31 -28c6 -14 11 -30 24 -30c28 0 88 86 157 303c19 59 27 90 27 113c0 22 -5 33 -45 33c-5 0 -18 0 -18 14s14 13 21 13
h281c4 0 9 -2 6 -11l-58 -207c38 18 84 31 124 31c73 0 110 -47 110 -124c0 -128 -103 -211 -207 -211c-105 0 -129 79 -129 139c0 45 12 83 23 121l58 205c7 26 -8 26 -11 26zM366 257c-23 -76 -32 -109 -32 -149c0 -67 31 -97 76 -97c72 0 124 83 124 167
c0 96 -62 100 -83 100c-25 0 -59 -10 -85 -21z" />
    <glyph glyph-name="guilsinglright" unicode="&#x203a;" horiz-adv-x="290" 
d="M175 255l-75 186c-5 13 3 18 8 18c4 0 6 -3 9 -7l133 -187c3 -4 3 -7 3 -10c0 -4 -4 -6 -8 -10l-224 -189c-4 -3 -6 -5 -9 -5s-7 2 -7 7c0 4 2 6 4 8z" />
    <glyph glyph-name="afii10107" unicode="&#x45a;" horiz-adv-x="690" 
d="M29 16l85 298c19 66 24 83 24 117c0 2 2 28 -13 28c-22 0 -73 -75 -86 -98c-4 -7 -8 -13 -12 -13c-3 0 -7 3 -7 11s5 16 8 22c53 92 109 141 143 141c16 0 37 -11 37 -55s-13 -105 -26 -147l-8 -26c-2 -8 2 -13 7 -13h177c4 0 9 2 11 10l56 200c1 5 3 10 10 10h50
c9 0 7 -9 6 -12l-58 -206c38 18 84 31 124 31c73 0 110 -47 110 -124c0 -128 -103 -211 -207 -211c-105 0 -129 79 -129 139c0 39 10 74 17 100l7 25c2 6 -3 11 -8 11h-176c-8 0 -8 -3 -10 -9l-63 -223c-3 -9 -6 -22 -19 -22h-44c-4 0 -9 4 -6 16zM426 257
c-23 -76 -32 -109 -32 -149c0 -67 31 -97 76 -97c72 0 124 83 124 167c0 96 -62 100 -83 100c-25 0 -59 -10 -85 -21z" />
    <glyph glyph-name="afii10109" unicode="&#x45c;" horiz-adv-x="485" 
d="M110 65l-12 -43c-5 -17 -8 -22 -18 -22h-44c-3 0 -8 2 -8 4c0 4 1 8 2 12l84 298c25 87 25 114 25 117c0 13 -2 28 -14 28c-25 0 -72 -76 -85 -98c-3 -5 -7 -13 -12 -13c-6 0 -11 7 -5 21c22 50 97 153 149 153c36 0 36 -44 36 -57c0 -52 -11 -91 -26 -145l-27 -95h3
c62 99 192 297 286 297c24 0 57 -14 57 -56c0 -28 -19 -45 -37 -45c-19 0 -29 17 -36 28c-8 11 -15 21 -29 21c-40 0 -125 -107 -160 -162c58 -38 67 -100 75 -152c12 -72 20 -145 74 -145c36 0 40 41 40 55s-4 29 -9 35l-6 8c-3 4 -8 7 -8 16c0 7 5 15 13 15
c17 0 34 -22 34 -58c0 -61 -36 -103 -89 -103c-110 0 -118 101 -121 168c-4 102 1 118 -16 141c-51 -69 -96 -153 -116 -223zM498 659l-163 -66c-26 -11 -33 -12 -37 -12c-5 0 -6 4 -6 6c0 9 17 17 37 30l160 101c14 9 23 10 28 10c19 0 21 -21 21 -25
c0 -27 -23 -37 -40 -44z" />
    <glyph glyph-name="afii10108" unicode="&#x45b;" horiz-adv-x="487" 
d="M0 30l142 548h-82l6 27h84l3 13c10 42 -4 53 -32 53h-13c-10 0 -13 7 -13 12c0 6 3 15 16 16l14 1c37 3 64 8 84 20l20 12c6 3 17 12 21 0c1 -2 0 -5 0 -8c-1 -8 -1 -12 -5 -23c-14 -43 -9 -33 -13 -48l-13 -48h132l-6 -27h-133l-96 -353l4 -1c62 147 175 298 268 298
c60 0 62 -54 62 -65c0 -38 -11 -62 -24 -103l-70 -223c-10 -32 -16 -50 -16 -68c0 -6 1 -18 14 -18c23 0 85 92 95 108c2 3 6 10 10 10c3 0 8 -2 8 -10c0 -5 -3 -13 -13 -31c-27 -45 -101 -143 -146 -143c-11 0 -39 4 -39 54c0 38 14 82 33 143l65 203c5 16 13 35 13 59
c0 14 -2 34 -30 34c-115 0 -246 -323 -274 -408l-14 -42c-7 -22 -8 -22 -19 -22h-38c-2 0 -9 0 -9 8c0 5 3 18 4 22z" />
    <glyph glyph-name="afii10193" unicode="&#x45f;" horiz-adv-x="516" 
d="M480 480l-82 -284c-29 -101 -31 -125 -31 -133c0 -21 8 -22 11 -22c30 0 83 83 96 105c4 6 9 16 15 16c3 0 7 -3 7 -9c0 -5 -3 -12 -11 -26c-37 -63 -105 -148 -161 -148c-20 0 -30 10 -30 36c0 32 40 177 50 209l17 53h-3c-69 -152 -200 -298 -286 -298
c-9 0 -45 2 -45 57c0 39 16 88 27 124l61 193c21 65 22 71 23 89v7c-1 8 -5 11 -11 11c-26 0 -69 -73 -85 -101c-2 -4 -6 -10 -12 -10c-3 0 -7 4 -7 10c0 4 3 15 26 53c45 74 95 110 125 110c15 0 28 -9 32 -28c2 -9 1 -17 0 -26c-3 -31 -7 -40 -27 -108l-70 -234
c-3 -9 -13 -45 -13 -66c0 -25 14 -27 22 -27c13 0 36 7 85 55c65 64 153 187 199 351l12 43c3 10 5 19 20 19h36c11 0 15 -4 10 -21zM215 -181c-11 -30 -28 -46 -44 -65c-11 -14 -20 -22 -27 -22s-11 9 -1 22c19 24 25 34 25 64c0 17 -2 33 -2 50c0 68 38 113 67 157
c7 11 11 15 14 15c2 0 6 -2 7 -4c1 -1 0 -3 0 -5c-3 -14 -7 -18 -11 -26c-25 -46 -21 -55 -21 -88c0 -14 1 -28 1 -42c0 -18 0 -34 -8 -56z" />
    <glyph glyph-name="afii10062" unicode="&#x40e;" horiz-adv-x="491" 
d="M212 606l54 -340c1 -8 1 -24 8 -24c4 0 8 11 16 25l160 269c39 65 48 90 48 107c0 11 -11 22 -25 23l-23 2c-12 1 -24 -1 -24 16c0 15 13 16 23 16c28 0 55 -5 83 -5c21 0 42 5 63 5c17 0 19 -7 19 -15c0 -15 -12 -17 -17 -17l-11 -1c-42 -4 -77 -85 -118 -153l-205 -341
c-34 -56 -106 -194 -194 -194c-25 0 -56 12 -56 57c0 42 27 60 53 60s34 -17 41 -33c4 -9 8 -17 20 -17c23 0 62 54 73 78c9 19 8 28 5 48l-67 388c-8 44 -9 104 -44 107l-20 2c-9 1 -11 10 -11 17c0 13 13 14 21 14c30 0 60 -5 90 -5c31 0 61 5 92 5c7 0 18 -1 20 -11v-7
c0 -3 -1 -17 -18 -17h-12c-52 0 -47 -40 -44 -59zM530 866l8 11c16 22 31 19 31 2c0 -53 -129 -163 -199 -163c-52 0 -86 38 -86 72c0 33 54 101 79 101c4 0 9 -3 9 -13c0 -3 -1 -6 -1 -9c-2 -13 -5 -26 -5 -39c0 -29 11 -58 43 -58c42 0 76 34 121 96z" />
    <glyph glyph-name="afii10110" unicode="&#x45e;" horiz-adv-x="424" 
d="M194 10c65 90 168 261 168 356c0 11 -2 22 -5 33c-9 29 -23 40 -23 69c0 24 10 54 39 54c33 0 44 -44 44 -83c0 -91 -28 -174 -198 -438c-73 -113 -163 -269 -261 -269c-39 0 -69 33 -69 61c0 13 6 42 32 42c19 0 29 -16 41 -32c11 -16 17 -29 37 -29c28 0 55 33 68 50
c58 76 71 132 71 286c0 182 -14 353 -47 353c-10 0 -36 -10 -70 -105c-2 -5 -5 -14 -12 -14c-4 0 -9 3 -9 10c0 4 1 11 10 34c36 94 80 134 109 134c80 0 83 -234 83 -353c0 -47 -4 -110 -8 -159zM417 689l12 16c5 7 10 12 15 12c4 0 9 -4 9 -10c0 -39 -116 -156 -193 -156
c-49 0 -83 38 -83 71c0 23 47 92 70 92c3 0 9 -2 9 -13c0 -8 -2 -17 -3 -26c-1 -8 -2 -16 -2 -25c0 -54 36 -55 44 -55c51 0 88 49 122 94z" />
    <glyph glyph-name="afii10057" unicode="&#x408;" horiz-adv-x="274" 
d="M48 86l116 487c7 30 13 50 13 69c0 17 -5 23 -32 27l-22 3c-9 1 -12 9 -12 16c0 14 12 12 19 12c32 0 60 -5 88 -5c29 0 58 5 90 5c5 0 17 2 17 -11c0 -16 -14 -17 -22 -18l-13 -2c-26 -4 -32 -10 -45 -64l-118 -494c-22 -91 -46 -195 -113 -278
c-19 -23 -59 -69 -113 -69c-46 0 -88 30 -88 74c0 34 23 48 40 48c28 0 36 -27 48 -63c4 -13 10 -28 28 -28c23 0 61 26 88 146c19 85 -1 11 31 145z" />
    <glyph glyph-name="currency" unicode="&#xa4;" horiz-adv-x="687" 
d="M61 91l93 92c-35 46 -58 105 -58 163c0 57 20 116 58 163l-93 92l40 39l93 -93c21 19 71 59 161 59s142 -41 163 -59l93 93l40 -39l-94 -92c45 -56 58 -117 58 -163s-13 -107 -58 -163l94 -92l-40 -39l-93 93c-61 -52 -129 -59 -163 -59c-88 0 -142 43 -161 59l-93 -93z
M149 346c0 -118 91 -214 206 -214s207 97 207 214s-92 214 -207 214s-206 -96 -206 -214z" />
    <glyph glyph-name="afii10050" unicode="&#x490;" horiz-adv-x="447" 
d="M250 661l-128 -541c-4 -16 -12 -52 -12 -62c0 -11 5 -25 36 -26l27 -1c6 0 14 -1 14 -14c0 -15 -10 -17 -17 -17c-35 0 -68 6 -102 6c-33 0 -66 -6 -100 -6c-10 0 -19 0 -19 14c0 15 10 15 18 16l32 3c35 3 42 53 48 79l110 461c8 36 13 53 13 68c0 27 -20 28 -31 29
l-15 2c-6 1 -12 6 -12 16c0 12 10 12 17 12c123 -5 120 -2 188 -2c91 0 141 -4 187 107c4 10 9 22 18 22c4 0 7 -3 8 -6s0 -7 0 -10c-1 -4 -1 -7 -1 -11c-1 -16 -6 -32 -9 -48l-9 -48c-11 -59 -10 -38 -54 -38h-44c-10 0 -20 -1 -30 -1h-22c-20 0 -45 -1 -111 -4z" />
    <glyph glyph-name="brokenbar" unicode="&#xa6;" horiz-adv-x="102" 
d="M25 773h52v-319h-52v319zM25 39h52v-319h-52v319z" />
    <glyph glyph-name="section" unicode="&#xa7;" horiz-adv-x="423" 
d="M71 -157l10 -20c7 -14 18 -20 30 -20c40 0 48 68 48 98c0 52 -14 108 -35 207c-15 74 -25 132 -25 211c0 249 125 402 257 402c58 0 87 -30 87 -65c0 -30 -23 -67 -54 -67c-26 0 -38 23 -47 46c-7 18 -17 45 -38 45c-13 0 -50 -15 -50 -114c0 -64 11 -112 23 -164
c17 -72 35 -135 35 -216c0 -188 -100 -427 -253 -427c-48 0 -87 25 -87 63c0 41 37 70 58 70c24 0 32 -30 41 -49zM238 374l-4 18c-12 53 -20 112 -20 160c0 23 3 46 8 69c-60 -82 -77 -203 -77 -288c0 -44 5 -88 12 -132c7 -41 15 -81 23 -121c12 -62 19 -114 16 -187
c13 20 72 116 72 276c0 72 -14 134 -30 205z" />
    <glyph glyph-name="afii10023" unicode="&#x401;" 
d="M48 112l109 461c7 30 13 50 13 68c0 27 -20 28 -30 29l-15 2c-7 1 -11 5 -12 8c-1 2 0 5 0 8c1 6 2 12 16 12c125 -3 102 -10 360 0c15 1 16 -5 16 -11s-3 -10 -10 -35c-3 -11 -6 -23 -9 -34c-2 -10 -4 -19 -6 -29l-5 -21c-4 -17 -5 -35 -18 -35c-3 0 -11 2 -11 16l-1 30
c-3 84 -48 85 -109 85h-22c-14 0 -52 -3 -63 -4l-66 -276h111c46 0 55 23 77 63l12 22c4 6 5 12 14 12c8 0 10 -7 10 -10c0 -6 -2 -14 -7 -29c-26 -76 -38 -142 -45 -182c-3 -16 -4 -33 -16 -33c-6 0 -10 4 -10 14l1 36c2 79 -24 74 -72 74h-83l-51 -219
c-10 -44 -11 -58 -11 -69c0 -37 28 -33 84 -33c167 0 175 67 199 119c2 5 6 12 13 12c3 0 10 -1 10 -12c0 -13 -3 -17 -6 -27l-14 -53c-19 -70 -6 -71 -48 -71c-53 0 -106 0 -160 2c-36 1 -72 4 -108 4c-38 0 -75 -6 -116 -6c-5 0 -20 -2 -20 14c0 15 13 15 19 16l32 3
c30 3 40 46 48 79zM263 853c19 0 38 -12 38 -43c0 -38 -26 -77 -62 -77c-19 0 -37 14 -37 50c0 43 32 70 61 70zM433 853c19 0 38 -12 38 -43c0 -38 -26 -77 -62 -77c-19 0 -37 14 -37 50c0 43 32 70 61 70z" />
    <glyph glyph-name="copyright" unicode="&#xa9;" horiz-adv-x="828" 
d="M425 -14c-200 0 -364 164 -364 364s164 364 364 364s364 -164 364 -364s-164 -364 -364 -364zM425 26c173 0 314 145 314 324s-141 324 -314 324s-314 -145 -314 -324s141 -324 314 -324zM588 518l2 -25c1 -11 4 -30 -11 -30c-10 0 -13 8 -15 13c-26 66 -84 75 -118 75
c-99 0 -166 -82 -166 -196c0 -109 61 -205 163 -205c47 0 71 18 88 37c21 24 23 36 37 58c2 4 7 9 15 9c14 0 9 -28 8 -46l-1 -21c-1 -13 0 -24 -28 -37c-36 -16 -75 -27 -123 -27c-126 0 -230 89 -230 223c0 126 96 231 239 231c47 0 102 -12 124 -22c11 -5 14 -8 16 -37z
" />
    <glyph glyph-name="afii10053" unicode="&#x404;" horiz-adv-x="551" 
d="M271 353h-149c-11 -36 -17 -73 -17 -110c0 -140 76 -235 167 -235c122 0 166 119 189 179c2 4 5 15 13 15c2 0 11 0 11 -13s-6 -31 -17 -78c-15 -66 -9 -74 -36 -91c-41 -26 -110 -41 -159 -41c-140 0 -244 110 -244 269c0 243 242 473 498 473c12 0 55 -1 55 -28
c0 -7 -3 -11 -15 -78l-7 -38c-5 -27 -5 -43 -20 -43c-17 0 -13 22 -13 44v34c0 63 2 75 -30 75c-122 0 -298 -111 -365 -301h175c44 0 55 20 77 63c8 16 14 34 26 34c6 0 10 -6 10 -10c0 -6 -2 -15 -7 -28c-13 -37 -31 -99 -45 -183c-3 -16 -4 -33 -16 -33
c-4 0 -12 2 -12 17c0 12 3 26 3 48c0 65 -35 59 -72 59z" />
    <glyph glyph-name="guillemotleft" unicode="&#xab;" horiz-adv-x="348" 
d="M248 255l38 -110c3 -9 -6 -16 -11 -10l-88 110c-7 9 -1 15 5 20l141 110c6 4 10 1 10 -3c0 -3 -2 -6 -4 -8zM115 255l75 -186c5 -13 -3 -18 -8 -18c-4 0 -6 3 -9 7l-133 187c-3 4 -3 7 -3 10c0 4 4 6 8 10l224 189c4 3 6 5 9 5s7 -2 7 -7c0 -4 -2 -6 -4 -8z" />
    <glyph glyph-name="logicalnot" unicode="&#xac;" horiz-adv-x="652" 
d="M44 396v55h564v-265h-58v210h-506z" />
    <glyph glyph-name="hyphen" unicode="-" horiz-adv-x="349" 
d="M77 266h231l-19 -62h-232z" />
    <glyph glyph-name="hyphen" unicode="&#xad;" horiz-adv-x="349" 
d="M77 266h231l-19 -62h-232z" />
    <glyph glyph-name="registered" unicode="&#xae;" horiz-adv-x="828" 
d="M425 -14c-200 0 -364 164 -364 364s164 364 364 364s364 -164 364 -364s-164 -364 -364 -364zM425 26c173 0 314 145 314 324s-141 324 -314 324s-314 -145 -314 -324s141 -324 314 -324zM310 207v287c0 58 -18 56 -48 57c-12 0 -14 7 -14 10c0 4 2 8 7 9h6
c26 -3 51 -3 77 -3c62 0 77 3 112 3c111 0 138 -59 138 -108c0 -46 -28 -90 -114 -103v-3c8 0 19 -3 34 -29l79 -141c10 -17 17 -34 44 -36c11 -1 21 1 21 -10c0 -8 -6 -9 -13 -10s-13 0 -20 0h-23c-9 0 -18 -1 -27 -1c-17 0 -20 1 -32 23l-81 155c-11 21 -23 40 -45 40h-36
c-10 0 -9 -9 -9 -17v-123c0 -65 24 -55 50 -57c9 -1 12 -6 12 -10c0 -8 -10 -10 -13 -10c-25 0 -51 3 -77 3s-51 -3 -77 -3c-11 0 -13 6 -13 10s3 9 12 10c26 2 50 -8 50 57zM366 508v-126c0 -13 3 -17 18 -17h34c94 0 111 56 111 93c0 39 -19 91 -102 94h-22
c-27 -1 -39 -4 -39 -44z" />
    <glyph glyph-name="afii10056" unicode="&#x407;" horiz-adv-x="267" 
d="M48 112l109 461c7 30 13 51 13 69c0 27 -20 27 -38 29c-10 1 -20 4 -20 17c0 12 12 12 17 12c29 0 56 -5 83 -5c30 0 60 5 93 5c5 0 13 0 13 -11c0 -16 -14 -17 -22 -18l-13 -2c-26 -4 -32 -10 -45 -64l-115 -485c-5 -20 -12 -41 -12 -62c0 -15 3 -25 44 -27
c16 0 25 1 25 -14c0 -6 -3 -17 -17 -17c-32 0 -64 6 -95 6c-33 0 -66 -6 -100 -6c-10 0 -19 0 -19 14c0 15 10 15 18 16l32 4c32 4 40 41 49 78zM155 853c19 0 38 -12 38 -43c0 -38 -26 -77 -62 -77c-19 0 -37 14 -37 50c0 43 32 70 61 70zM325 853c19 0 38 -12 38 -43
c0 -38 -26 -77 -62 -77c-19 0 -37 14 -37 50c0 43 32 70 61 70z" />
    <glyph glyph-name="degree" unicode="&#xb0;" horiz-adv-x="312" 
d="M146 610c0 61 51 110 110 110c48 0 110 -37 110 -110s-62 -110 -110 -110c-59 0 -110 49 -110 110zM187 610c0 -28 23 -69 69 -69c48 0 69 43 69 69c0 27 -22 69 -69 69c-44 0 -69 -38 -69 -69z" />
    <glyph glyph-name="plusminus" unicode="&#xb1;" horiz-adv-x="610" 
d="M23 422h254v233h55v-233h255v-55h-255v-206h-55v206h-254v55zM23 106h564v-55h-564v55z" />
    <glyph glyph-name="afii10055" unicode="&#x406;" horiz-adv-x="267" 
d="M48 112l109 461c7 30 13 51 13 69c0 27 -20 27 -38 29c-10 1 -20 4 -20 17c0 12 12 12 17 12c29 0 56 -5 83 -5c30 0 60 5 93 5c5 0 13 0 13 -11c0 -16 -14 -17 -22 -18l-13 -2c-26 -4 -32 -10 -45 -64l-115 -485c-5 -20 -12 -41 -12 -62c0 -15 3 -25 44 -27
c16 0 25 1 25 -14c0 -6 -3 -17 -17 -17c-32 0 -64 6 -95 6c-33 0 -66 -6 -100 -6c-10 0 -19 0 -19 14c0 15 10 15 18 16l32 4c32 4 40 41 49 78z" />
    <glyph glyph-name="afii10103" unicode="&#x456;" horiz-adv-x="250" 
d="M183 349l-54 -171c-26 -81 -27 -100 -27 -109c0 -12 3 -17 13 -17c22 0 63 60 79 91c4 8 11 23 21 23c6 0 6 -6 6 -8c0 -7 -3 -15 -6 -21l-10 -20c-26 -52 -99 -138 -141 -138c-14 0 -35 8 -35 53c0 15 2 55 46 190l54 166c10 32 16 47 16 57s-2 15 -11 15
c-20 0 -70 -72 -78 -84c-9 -13 -12 -20 -19 -20c-3 0 -7 1 -7 9c0 6 3 14 10 25c28 46 92 132 144 132c24 0 31 -18 31 -42c0 -28 -11 -65 -32 -131zM236 722c13 0 37 -5 37 -44c0 -44 -27 -78 -54 -78c-22 0 -37 18 -37 44c0 34 19 78 54 78z" />
    <glyph glyph-name="afii10098" unicode="&#x491;" horiz-adv-x="345" 
d="M40 93l75 315c16 65 -7 62 -27 64c-14 1 -19 2 -19 14c0 10 5 15 28 15h200c30 0 54 14 92 85c6 11 10 16 18 16c11 0 9 -11 8 -16l-18 -71c-10 -40 -10 -46 -31 -46c-39 0 -57 5 -95 5h-58c-13 0 -17 -9 -19 -16l-87 -365c-11 -47 13 -56 48 -63l15 -3
c7 -1 10 -7 10 -14c0 -14 -14 -13 -19 -13c-33 0 -65 7 -96 7c-30 0 -60 -7 -93 -7c-7 0 -15 1 -15 12c0 14 11 17 16 18l21 4c34 6 44 50 46 59z" />
    <glyph glyph-name="mu" unicode="&#xb5;" horiz-adv-x="517" 
d="M216 501l-83 -292c-11 -38 -23 -77 -23 -108c0 -12 1 -69 68 -69c78 0 135 78 155 148l91 321h67l-105 -370c-4 -14 -16 -50 -16 -68c0 -15 8 -18 13 -18c19 0 64 62 82 89c13 19 19 29 24 29c3 0 7 -2 8 -5c1 -2 0 -3 0 -5c-2 -13 -6 -20 -13 -31
c-41 -66 -103 -143 -146 -143c-34 0 -41 33 -41 49c0 3 0 13 7 45l-3 1c-85 -82 -137 -95 -168 -95c-67 0 -74 58 -75 84v14h-4c-23 -104 -29 -136 -31 -148l-11 -66c-7 -42 -11 -117 -54 -117c-18 0 -40 23 -13 89l11 27c31 77 60 173 109 346l84 293h67z" />
    <glyph glyph-name="mu" unicode="&#x3bc;" horiz-adv-x="517" 
d="M216 501l-83 -292c-11 -38 -23 -77 -23 -108c0 -12 1 -69 68 -69c78 0 135 78 155 148l91 321h67l-105 -370c-4 -14 -16 -50 -16 -68c0 -15 8 -18 13 -18c19 0 64 62 82 89c13 19 19 29 24 29c3 0 7 -2 8 -5c1 -2 0 -3 0 -5c-2 -13 -6 -20 -13 -31
c-41 -66 -103 -143 -146 -143c-34 0 -41 33 -41 49c0 3 0 13 7 45l-3 1c-85 -82 -137 -95 -168 -95c-67 0 -74 58 -75 84v14h-4c-23 -104 -29 -136 -31 -148l-11 -66c-7 -42 -11 -117 -54 -117c-18 0 -40 23 -13 89l11 27c31 77 60 173 109 346l84 293h67z" />
    <glyph glyph-name="paragraph" unicode="&#xb6;" horiz-adv-x="473" 
d="M365 700h124c10 0 14 -5 14 -15c0 -14 -11 -15 -19 -16c-43 -4 -64 12 -88 -91l-119 -518c-16 -71 -44 -148 -101 -214c-43 -50 -112 -100 -164 -100c-37 0 -56 23 -56 55c0 28 18 54 50 54c20 0 29 -13 35 -28s9 -31 30 -31c20 0 42 21 48 27c61 61 74 138 103 266
l33 144c-95 -7 -204 44 -204 205c0 127 90 262 314 262z" />
    <glyph glyph-name="periodcentered" unicode="&#xb7;" horiz-adv-x="200" 
d="M51 250c0 29 14 58 50 58c33 0 48 -26 48 -55c0 -23 -7 -60 -50 -60c-33 0 -48 28 -48 57z" />
    <glyph glyph-name="periodcentered" unicode="&#x2219;" horiz-adv-x="200" 
d="M51 250c0 29 14 58 50 58c33 0 48 -26 48 -55c0 -23 -7 -60 -50 -60c-33 0 -48 28 -48 57z" />
    <glyph glyph-name="afii10071" unicode="&#x451;" horiz-adv-x="416" 
d="M319 122l12 19c3 4 7 11 11 11c3 0 8 -2 8 -9s-4 -16 -21 -43c-41 -66 -106 -121 -173 -121c-79 0 -131 73 -131 182c0 180 137 361 272 361c94 0 106 -84 106 -115c0 -136 -142 -184 -303 -201c-2 -14 -3 -27 -3 -41c0 -91 45 -130 93 -130c55 0 107 51 129 87zM104 230
c227 23 234 163 234 205c0 15 -4 64 -49 64c-74 0 -159 -109 -185 -269zM247 710c34 0 47 -30 47 -58c0 -42 -23 -56 -46 -56c-27 0 -45 25 -45 60c0 15 7 54 44 54zM402 710c34 0 47 -30 47 -58c0 -42 -23 -56 -46 -56c-27 0 -45 25 -45 60c0 15 7 54 44 54z" />
    <glyph glyph-name="afii61352" unicode="&#x2116;" horiz-adv-x="924" 
d="M141 280l61 241c24 93 27 114 27 127c0 11 -2 18 -26 20l-16 1c-16 1 -16 9 -16 15c0 8 1 17 20 17s37 -1 55 -1s36 1 55 1c10 0 10 0 28 -55l164 -495l57 259c27 123 71 311 176 311c23 0 52 -11 52 -51c0 -28 -21 -59 -54 -59c-35 0 -4 20 -47 20
c-22 0 -57 -33 -96 -211l-64 -294c-29 -134 -27 -136 -39 -136c-7 0 -11 0 -15 13c-7 26 -44 137 -51 159l-155 463c-18 -60 -26 -95 -39 -147l-46 -188c-25 -101 -62 -311 -175 -311c-28 0 -52 17 -52 51c0 37 22 59 53 59c17 0 25 -9 31 -13c4 -3 8 -7 16 -7
c43 0 70 109 96 211zM738 220c-72 0 -103 56 -103 118c0 111 93 211 182 211c75 0 102 -65 102 -124c0 -103 -91 -205 -181 -205zM742 242c65 0 132 84 132 199c0 71 -38 86 -64 86c-71 0 -130 -99 -130 -198c0 -73 36 -87 62 -87zM582 102l8 34h256l-8 -34h-256z" />
    <glyph glyph-name="afii10101" unicode="&#x454;" horiz-adv-x="394" 
d="M25 164c0 200 155 358 282 358c36 0 90 -19 90 -59c0 -17 -10 -39 -36 -39c-30 0 -39 25 -58 51c-7 10 -13 17 -28 17c-49 0 -136 -86 -163 -217c17 14 51 39 73 39c19 0 37 -14 52 -24c19 -12 30 -15 36 -15c24 0 25 16 50 16c8 0 9 -6 9 -9c0 -22 -88 -60 -107 -60
c-9 0 -17 2 -25 6c-28 13 -43 36 -66 36c-24 0 -37 -27 -37 -87c0 -134 70 -143 92 -143c49 0 108 45 154 122c2 4 5 7 9 7s7 -5 7 -9c0 -3 -1 -6 -6 -17c-19 -40 -96 -158 -196 -158c-70 0 -132 73 -132 185z" />
    <glyph glyph-name="guillemotright" unicode="&#xbb;" horiz-adv-x="348" 
d="M100 255l-38 110c-3 9 6 16 11 10l88 -110c7 -9 1 -15 -5 -20l-141 -110c-6 -4 -10 -1 -10 3c0 3 2 6 4 8zM233 255l-75 186c-5 13 3 18 8 18c4 0 6 -3 9 -7l133 -187c3 -4 3 -7 3 -10c0 -4 -4 -6 -8 -10l-224 -189c-4 -3 -6 -5 -9 -5s-7 2 -7 7c0 4 2 6 4 8z" />
    <glyph glyph-name="afii10105" unicode="&#x458;" horiz-adv-x="230" 
d="M30 -10l88 338c23 90 26 108 26 113c0 13 -7 16 -12 16c-17 0 -70 -73 -78 -85c-3 -5 -9 -15 -15 -15c-2 0 -8 1 -8 11s7 18 11 25c10 16 86 129 144 129c26 0 29 -25 29 -39c0 -27 -10 -59 -19 -94l-102 -398c-25 -97 -64 -259 -186 -259c-42 0 -72 25 -72 60
c0 31 20 42 33 42c20 0 29 -21 40 -45c5 -12 12 -27 29 -27c13 0 32 9 47 55c11 35 16 61 45 173zM237 720c18 0 35 -14 35 -42c0 -43 -27 -76 -54 -76c-15 0 -36 13 -36 42c0 47 31 76 55 76z" />
    <glyph glyph-name="afii10054" unicode="&#x405;" horiz-adv-x="403" 
d="M20 165l2 -19c10 -91 37 -137 116 -137c74 0 135 66 135 158c0 75 -40 113 -88 170c-59 70 -91 118 -91 191c0 112 86 193 202 193c49 0 90 -16 112 -31c9 -6 10 -9 10 -18c0 -10 -3 -20 -8 -46l-8 -43c-4 -22 -4 -39 -16 -39c-6 0 -12 4 -12 16v19c0 40 -6 112 -93 112
c-70 0 -123 -53 -123 -125c0 -47 19 -86 73 -147c56 -63 111 -117 111 -215c0 -150 -115 -225 -206 -225c-32 0 -147 24 -147 63c0 18 3 29 6 95l1 24c0 7 0 20 12 20c11 0 11 -10 12 -16z" />
    <glyph glyph-name="afii10102" unicode="&#x455;" horiz-adv-x="333" 
d="M159 210l-32 37c-29 34 -56 68 -56 125c0 81 61 150 148 150c47 0 117 -13 117 -62c0 -35 -10 -57 -22 -57c-10 0 -22 16 -41 38c-21 25 -46 54 -80 54c-31 0 -66 -24 -66 -75c0 -44 26 -72 55 -106l28 -33c29 -35 72 -85 72 -145c0 -71 -63 -157 -161 -157
c-59 0 -136 41 -136 76c0 20 7 78 27 78c11 0 18 -14 23 -24l17 -34c26 -53 57 -69 86 -69c43 0 82 33 82 92c0 46 -29 75 -61 112z" />
    <glyph glyph-name="afii10104" unicode="&#x457;" horiz-adv-x="241" 
d="M183 349l-54 -171c-26 -81 -27 -100 -27 -109c0 -12 3 -17 13 -17c22 0 63 60 79 91c4 8 11 23 21 23c6 0 6 -6 6 -8c0 -7 -3 -15 -6 -21l-10 -20c-26 -52 -99 -138 -141 -138c-14 0 -35 8 -35 53c0 15 2 55 46 190l54 166c10 32 16 47 16 57s-2 15 -11 15
c-20 0 -70 -72 -78 -84c-9 -13 -12 -20 -19 -20c-3 0 -7 1 -7 9c0 6 3 14 10 25c28 46 92 132 144 132c24 0 31 -18 31 -42c0 -28 -11 -65 -32 -131zM116 710c45 0 46 -49 46 -58c0 -44 -23 -56 -45 -56c-27 0 -45 25 -45 60c0 15 7 54 44 54zM271 710c34 0 47 -30 47 -58
c0 -42 -23 -56 -46 -56c-27 0 -45 25 -45 60c0 15 7 54 44 54z" />
    <glyph glyph-name="afii10017" unicode="&#x410;" horiz-adv-x="512" 
d="M165 268l-61 -104c-7 -12 -41 -69 -41 -92c0 -20 15 -33 38 -37l23 -4c7 -1 18 -3 18 -15c0 -17 -15 -16 -18 -16c-33 0 -62 6 -91 6c-30 0 -61 -6 -94 -6c-5 0 -14 0 -14 14c0 13 9 13 17 14c51 7 82 75 110 121l300 496c46 76 46 76 53 76c5 0 11 0 11 -13
c0 -21 0 -45 1 -81l18 -529c2 -55 6 -63 34 -67l14 -2c5 -1 14 -4 14 -14c0 -16 -10 -15 -14 -15c-29 0 -54 7 -80 7c-33 0 -67 -7 -103 -7c-11 0 -13 8 -13 15s6 14 12 15l19 2c29 3 47 8 45 78l-5 158h-193zM348 585l-163 -280h172z" />
    <glyph glyph-name="afii10018" unicode="&#x411;" horiz-adv-x="510" 
d="M48 112l109 461c7 29 13 48 13 69c0 25 -18 27 -30 28l-19 2c-6 1 -11 4 -12 8c-1 2 0 5 0 8c1 6 2 12 16 12c123 -3 157 -10 364 0c20 1 16 -14 14 -22c-5 -19 -11 -48 -13 -58l-8 -42c-3 -16 -3 -43 -18 -43c-11 0 -11 11 -12 19l-3 28c-6 58 -31 86 -93 84l-82 -3
c-22 -1 -21 -3 -22 -6l-64 -265c37 13 75 20 113 20c54 0 181 -5 181 -174c0 -123 -72 -238 -260 -238c-52 0 -103 6 -153 6c-33 0 -65 -6 -100 -6c-5 0 -20 -2 -20 14c0 15 13 15 19 16l32 3c30 3 40 46 48 79zM180 359l-54 -227c-2 -9 -9 -40 -9 -58c0 -35 28 -41 95 -41
c32 0 197 2 197 206c0 40 -7 140 -132 140c-33 0 -65 -7 -97 -20z" />
    <glyph glyph-name="afii10019" unicode="&#x412;" horiz-adv-x="533" 
d="M47 112l110 461c5 21 13 57 13 69c0 25 -21 27 -31 28l-15 2c-6 1 -12 6 -12 16c0 7 3 12 17 12c28 0 55 -5 82 -5c52 0 62 5 163 5c46 0 148 -7 148 -133c0 -99 -80 -173 -185 -185v-3c107 -5 145 -89 145 -161c0 -45 -10 -218 -237 -218c-53 0 -105 6 -157 6
c-40 0 -80 -6 -120 -6c-10 0 -19 0 -19 14c0 19 15 15 34 17c45 2 51 25 64 81zM188 396h63c164 0 199 101 199 169c0 99 -74 102 -115 102c-20 0 -46 -1 -84 -6zM180 363l-54 -231c-5 -22 -10 -44 -10 -63c0 -30 24 -36 84 -36c171 0 209 124 209 198
c0 133 -106 139 -173 135z" />
    <glyph glyph-name="afii10020" unicode="&#x413;" horiz-adv-x="435" 
d="M251 661l-128 -541c-5 -20 -12 -41 -12 -62c0 -14 1 -25 48 -27c18 0 29 2 29 -14c0 -6 -3 -17 -17 -17c-35 0 -69 6 -103 6c-33 0 -66 -6 -100 -6c-10 0 -19 0 -19 14c0 15 10 15 19 16l32 3c30 3 40 46 48 79l109 461c10 42 13 57 13 68c0 24 -16 28 -27 29l-17 2
c-12 1 -14 10 -14 16c0 12 12 12 17 12c119 -3 195 -10 358 0c6 0 16 1 16 -11c0 -7 -4 -15 -8 -34c-3 -12 -6 -23 -8 -35c-2 -10 -4 -21 -6 -31l-3 -15c-3 -17 -4 -39 -18 -39c-5 0 -11 6 -12 16l-3 31c-5 50 -8 84 -101 84h-8c-25 0 -59 -2 -85 -5z" />
    <glyph glyph-name="afii10021" unicode="&#x414;" horiz-adv-x="525" 
d="M496 605l-115 -500c-7 -29 -17 -74 32 -74c6 0 12 0 18 1c5 1 9 1 14 1c4 0 9 -1 9 -8c0 -17 -11 -47 -15 -62l-14 -56c-8 -33 -11 -78 -32 -78c-14 0 -13 15 -13 20l1 18c1 9 2 50 2 60c0 36 -4 48 -10 56c-24 32 -102 17 -156 17h-122c-41 0 -95 8 -139 -18
c-39 -23 -51 -57 -64 -90l-15 -39c-4 -12 -9 -24 -21 -24c-5 0 -11 6 -11 17c0 12 4 26 11 56l10 46c14 62 14 74 20 80c6 5 14 4 25 4h11c31 0 61 18 127 141c44 81 169 357 169 458c0 18 -3 34 -34 36l-27 2c-11 1 -13 6 -13 16c0 15 15 15 21 15c28 0 55 -2 83 -2
c24 0 49 2 73 2h72c31 0 62 -2 92 -2c26 0 51 2 78 2c5 0 13 0 13 -11c0 -18 -16 -17 -35 -20c-26 -5 -33 -10 -45 -64zM318 141l107 467c7 30 3 40 1 44c-9 15 -33 14 -49 14h-56c-55 0 -61 -29 -74 -84c-61 -249 -172 -437 -221 -515c-5 -8 -10 -17 5 -25
c10 -5 54 -8 70 -8h108c71 0 86 5 109 107z" />
    <glyph glyph-name="afii10022" unicode="&#x415;" 
d="M48 112l109 461c7 30 13 50 13 68c0 27 -20 28 -30 29l-15 2c-7 1 -11 5 -12 8c-1 2 0 5 0 8c1 6 2 12 16 12c125 -3 102 -10 360 0c15 1 16 -5 16 -11s-3 -10 -10 -35c-3 -11 -6 -23 -9 -34c-2 -10 -4 -19 -6 -29l-5 -21c-4 -17 -5 -35 -18 -35c-3 0 -11 2 -11 16l-1 30
c-3 84 -48 85 -109 85h-22c-14 0 -52 -3 -63 -4l-66 -276h111c46 0 55 23 77 63l12 22c4 6 5 12 14 12c8 0 10 -7 10 -10c0 -6 -2 -14 -7 -29c-26 -76 -38 -142 -45 -182c-3 -16 -4 -33 -16 -33c-6 0 -10 4 -10 14l1 36c2 79 -24 74 -72 74h-83l-51 -219
c-10 -44 -11 -58 -11 -69c0 -37 28 -33 84 -33c167 0 175 67 199 119c2 5 6 12 13 12c3 0 10 -1 10 -12c0 -13 -3 -17 -6 -27l-14 -53c-19 -70 -6 -71 -48 -71c-53 0 -106 0 -160 2c-36 1 -72 4 -108 4c-38 0 -75 -6 -116 -6c-5 0 -20 -2 -20 14c0 15 13 15 19 16l32 3
c30 3 40 46 48 79z" />
    <glyph glyph-name="afii10024" unicode="&#x416;" horiz-adv-x="778" 
d="M431 323l-48 -203c-4 -16 -12 -52 -12 -62c0 -22 18 -25 45 -27c21 -1 24 -1 24 -14c0 -15 -10 -17 -17 -17c-32 0 -63 6 -94 6c-33 0 -66 -6 -100 -6c-10 0 -19 0 -19 14c0 15 10 15 18 16l32 3c35 3 41 51 50 89l48 201c6 25 3 27 -19 27c-31 0 -93 -12 -165 -143
l-71 -130c-19 -35 -42 -78 -92 -78c-52 0 -11 2 -54 2h-18c-10 0 -14 7 -14 15c0 13 10 16 20 16h11c24 1 47 15 88 87l71 125c29 50 76 109 164 121v4c-24 9 -60 33 -66 121l-5 75c-2 29 3 81 -21 81c-11 0 -20 -12 -24 -20c-9 -16 -16 -34 -40 -34c-20 0 -42 16 -42 52
c0 26 16 67 67 67c39 0 80 -14 89 -114l7 -79c3 -36 10 -138 90 -138h5c28 0 34 5 39 26l41 172c6 24 12 44 12 64c0 25 -18 27 -29 28l-15 2c-6 1 -14 3 -14 16c0 12 10 12 14 12c29 0 57 -5 85 -5c30 0 61 5 92 5c4 0 15 0 15 -11c0 -16 -13 -17 -22 -18l-14 -2
c-28 -4 -33 -17 -44 -64l-48 -199c-4 -16 -8 -26 22 -26h6c80 0 126 90 150 139l40 82c24 50 59 110 126 110c41 0 55 -29 55 -58c0 -33 -19 -61 -47 -61c-26 0 -35 16 -40 34c-2 9 -4 20 -20 20c-24 0 -51 -63 -59 -83l-29 -73c-23 -58 -66 -109 -130 -127l-1 -4
c72 -11 96 -87 111 -137l30 -102c11 -36 26 -89 57 -89c4 0 7 1 11 1c9 0 13 -6 13 -14c0 -23 -41 -19 -79 -19c-44 0 -56 44 -71 97l-33 120c-18 66 -42 134 -104 134c-21 0 -23 -4 -28 -27z" />
    <glyph glyph-name="afii10025" unicode="&#x417;" horiz-adv-x="469" 
d="M185 405h39c117 0 161 99 161 169c0 48 -16 117 -98 117c-65 0 -111 -36 -141 -110c-7 -18 -16 -49 -31 -49c-5 0 -10 4 -10 15c0 25 16 111 28 127c25 33 131 47 174 47c116 0 159 -75 159 -148c0 -91 -73 -178 -169 -191l-2 -5c115 -15 123 -123 123 -155
c0 -111 -106 -243 -264 -243c-67 0 -133 25 -161 50s-20 46 -15 74l10 55c4 21 8 28 18 28c14 0 14 -12 14 -17c6 -131 76 -160 135 -160c101 0 185 96 185 208c0 89 -46 150 -126 150h-44c-4 0 -5 0 -3 7l7 25c1 5 0 6 11 6z" />
    <glyph glyph-name="afii10026" unicode="&#x418;" horiz-adv-x="643" 
d="M134 166l405 435l2 10c4 20 6 25 6 31c0 28 -25 27 -39 29c-10 1 -20 4 -20 17c0 12 12 12 17 12c29 0 56 -5 83 -5c30 0 61 5 93 5c5 0 13 0 13 -11c0 -18 -13 -16 -35 -20c-26 -5 -32 -10 -45 -64l-115 -485c-5 -20 -12 -41 -12 -62c0 -15 3 -25 44 -27
c16 0 25 1 25 -14c0 -6 -3 -17 -17 -17c-32 0 -64 6 -95 6c-33 0 -66 -6 -100 -6c-10 0 -19 0 -19 14c0 15 10 15 19 16l32 3c30 3 40 46 48 79l101 432l-404 -433l-3 -11c-6 -23 -7 -40 -7 -42c0 -15 3 -25 44 -27c16 0 25 1 25 -14c0 -6 -3 -17 -17 -17c-32 0 -64 6 -95 6
c-33 0 -66 -6 -100 -6c-10 0 -19 0 -19 14c0 15 10 15 18 16l32 3c35 3 42 53 48 79l110 461c6 24 14 61 14 69c0 28 -25 27 -39 29c-10 1 -20 4 -20 17c0 12 12 12 17 12c29 0 56 -5 83 -5c30 0 61 5 93 5c5 0 13 0 13 -11c0 -18 -13 -16 -35 -20c-26 -5 -32 -10 -45 -64z
" />
    <glyph glyph-name="afii10027" unicode="&#x419;" horiz-adv-x="643" 
d="M134 166l405 435l2 10c4 18 6 23 6 31c0 28 -25 27 -39 29c-10 1 -20 4 -20 17c0 12 12 12 17 12c29 0 56 -5 83 -5c30 0 61 5 93 5c5 0 13 0 13 -11c0 -18 -13 -16 -35 -20c-26 -5 -32 -10 -45 -64l-115 -485c-5 -20 -12 -41 -12 -62c0 -15 3 -25 44 -27
c16 0 25 1 25 -14c0 -6 -3 -17 -17 -17c-32 0 -64 6 -95 6c-33 0 -66 -6 -100 -6c-9 0 -19 0 -19 14c0 9 3 14 11 15l8 1l32 3c30 3 40 46 48 79l101 432l-404 -433l-3 -11c-6 -23 -7 -40 -7 -42c0 -15 3 -25 44 -27c16 0 25 1 25 -14c0 -6 -3 -17 -17 -17
c-32 0 -64 6 -95 6c-33 0 -66 -6 -100 -6c-10 0 -19 0 -19 14c0 15 10 15 18 16l32 3c35 3 42 53 48 79l110 461c3 11 14 49 14 69c0 28 -25 27 -39 29c-10 1 -20 4 -20 17c0 12 12 12 17 12c29 0 56 -5 83 -5c30 0 61 5 93 5c5 0 13 0 13 -11c0 -18 -13 -16 -35 -20
c-26 -5 -32 -10 -45 -64zM590 856c-78 -108 -140 -140 -190 -140c-42 0 -85 29 -85 72c0 31 53 101 79 101c4 0 8 -4 8 -14c0 -21 -6 -25 -6 -47c0 -29 11 -58 44 -58c74 0 112 110 144 121c4 1 8 2 11 0s5 -7 5 -11c0 -9 -5 -17 -10 -24z" />
    <glyph glyph-name="afii10028" unicode="&#x41a;" horiz-adv-x="526" 
d="M48 112l109 461c8 36 14 53 14 69c0 43 -51 18 -58 38c-1 2 0 5 0 8c1 5 2 12 14 12c29 0 57 -5 85 -5c31 0 61 5 93 5c12 0 13 -6 13 -11c0 -18 -11 -16 -22 -18l-13 -2c-33 -5 -36 -26 -45 -64l-48 -199c-6 -26 2 -26 27 -26h9c78 0 128 90 151 138l40 83
c25 51 60 110 125 110c51 0 56 -43 56 -58c0 -32 -19 -61 -48 -61c-27 0 -35 20 -39 34c-3 9 -6 20 -21 20c-10 0 -29 -11 -58 -83l-30 -73c-37 -91 -103 -115 -129 -122l-1 -4c77 -11 98 -99 111 -142l30 -102c23 -78 36 -87 56 -88h12c9 0 13 -6 13 -14
c0 -22 -38 -19 -80 -19s-56 44 -71 97l-34 120c-24 84 -43 134 -106 134c-34 0 -29 -14 -32 -27l-48 -203c-5 -20 -12 -41 -12 -62c0 -15 3 -25 44 -27c16 0 25 1 25 -14c0 -6 -3 -17 -17 -17c-32 0 -63 6 -94 6c-33 0 -65 -6 -100 -6c-5 0 -20 -2 -20 14c0 15 13 15 19 16
l32 3c30 3 40 46 48 79z" />
    <glyph glyph-name="afii10029" unicode="&#x41b;" horiz-adv-x="557" 
d="M340 700h84c30 0 60 -4 89 -4c27 0 54 4 82 4c12 0 13 -6 13 -11c0 -18 -13 -16 -35 -20c-31 -6 -34 -18 -45 -64l-115 -485c-5 -20 -12 -41 -12 -62c0 -15 3 -25 44 -27c16 0 25 1 25 -14c0 -6 -3 -17 -17 -17c-32 0 -63 6 -94 6c-33 0 -65 -6 -100 -6
c-5 0 -20 -2 -20 14c0 19 19 16 35 16c33 2 48 15 64 82l118 496c14 58 -14 58 -49 58h-60c-67 0 -67 -59 -92 -164c-17 -75 -45 -171 -71 -249c-71 -210 -144 -274 -204 -274c-35 0 -55 20 -55 52c0 48 35 59 55 59c19 0 29 -10 34 -16c5 -5 9 -9 16 -9
c47 0 107 169 115 194c34 99 88 301 88 370c0 13 -3 36 -28 38l-28 2c-10 1 -16 5 -16 16c0 14 13 15 20 15c29 0 57 -2 86 -2c24 0 49 2 73 2z" />
    <glyph glyph-name="afii10030" unicode="&#x41c;" horiz-adv-x="692" 
d="M64 212l98 337c9 32 24 85 24 103c0 16 -9 19 -32 19h-20c-20 0 -19 9 -19 14c0 9 3 15 23 15c22 0 45 -2 67 -2c19 0 37 3 58 2c19 -1 19 -2 22 -73l21 -478l273 519c16 30 18 32 27 32c22 0 43 -3 64 -3c19 0 39 3 59 3c4 0 14 -1 14 -13c0 -13 -8 -15 -14 -16l-20 -2
c-30 -3 -37 0 -53 -83l-75 -396c-14 -75 -21 -100 -21 -127c0 -16 3 -29 23 -32l23 -4c14 -2 16 -6 16 -14c0 -5 0 -13 -15 -13c-32 0 -62 6 -93 6c-35 0 -71 -6 -108 -6c-6 0 -14 1 -14 13c0 14 9 15 16 16l25 3c32 4 51 19 72 131l91 478h-3l-253 -476
c-74 -139 -76 -156 -90 -156c-9 0 -12 7 -12 24v44c0 22 -3 128 -5 168l-17 383l-4 1l-118 -415c-8 -26 -28 -107 -28 -140s19 -38 44 -43l14 -3c6 -1 9 -7 9 -13c0 -14 -13 -15 -19 -15c-27 0 -52 6 -77 6c-30 0 -60 -6 -90 -6c-14 0 -14 7 -14 12c0 8 0 15 14 16l15 1
c48 3 56 24 102 183z" />
    <glyph glyph-name="afii10031" unicode="&#x41d;" horiz-adv-x="635" 
d="M47 112l110 461c8 35 14 53 14 69c0 28 -22 27 -39 29c-10 1 -20 4 -20 17c0 12 11 12 15 12c29 0 57 -5 85 -5c30 0 61 5 93 5c5 0 13 0 13 -11c0 -16 -11 -16 -22 -18l-13 -2c-26 -4 -32 -10 -45 -64l-52 -218h295l44 186c10 43 14 55 14 69c0 28 -23 27 -39 29
c-10 1 -20 4 -20 17c0 12 13 12 16 12c29 0 57 -5 84 -5c30 0 60 5 93 5c5 0 13 0 13 -11c0 -16 -14 -17 -22 -18l-13 -2c-26 -4 -32 -10 -45 -64l-115 -485c-5 -20 -12 -41 -12 -62c0 -15 3 -25 44 -27c16 0 25 1 25 -14c0 -6 -3 -17 -17 -17c-32 0 -64 6 -95 6
c-33 0 -66 -6 -100 -6c-10 0 -19 0 -19 14c0 15 10 15 19 16l32 3c30 3 40 46 48 79l57 242h-294l-56 -234c-5 -20 -12 -42 -12 -62c0 -15 3 -25 44 -27c16 0 25 1 25 -14c0 -6 -3 -17 -17 -17c-32 0 -64 6 -95 6c-33 0 -66 -6 -100 -6c-10 0 -19 0 -19 14c0 15 10 15 18 16
l32 3c35 3 42 53 48 79z" />
    <glyph glyph-name="afii10032" unicode="&#x41e;" horiz-adv-x="638" 
d="M29 309c0 225 170 412 331 412c135 0 249 -134 249 -320c0 -228 -174 -422 -336 -422c-130 0 -244 133 -244 330zM105 254c0 -123 54 -245 173 -245c179 0 255 279 255 454c0 145 -73 228 -172 228c-153 0 -256 -240 -256 -437z" />
    <glyph glyph-name="afii10033" unicode="&#x41f;" horiz-adv-x="635" 
d="M47 112l110 461c8 35 14 53 14 69c0 24 -17 26 -31 28l-16 2c-7 1 -12 7 -12 16c0 12 12 12 17 12c27 0 53 -5 79 -5c36 0 72 5 108 5h168c36 0 73 -5 108 -5c27 0 53 5 81 5c5 0 13 0 13 -11c0 -16 -14 -17 -22 -18l-13 -2c-26 -4 -32 -10 -45 -64l-115 -485
c-5 -21 -12 -41 -12 -62c0 -9 0 -24 35 -26l19 -1c5 0 15 -1 15 -14c0 -6 -3 -17 -17 -17c-32 0 -64 6 -95 6c-33 0 -66 -6 -100 -6c-10 0 -19 0 -19 14c0 15 10 15 19 16l32 3c30 3 40 46 48 79l121 513c2 8 10 42 -16 42h-237c-33 0 -37 -26 -41 -42l-120 -505
c-5 -21 -12 -41 -12 -62c0 -9 0 -24 35 -26l19 -1c5 0 15 -1 15 -14c0 -6 -3 -17 -17 -17c-32 0 -64 6 -95 6c-33 0 -66 -6 -100 -6c-10 0 -19 0 -19 14c0 15 10 15 18 16l32 3c35 3 42 53 48 79z" />
    <glyph glyph-name="afii10034" unicode="&#x420;" horiz-adv-x="506" 
d="M166 304l-44 -184c-4 -16 -12 -52 -12 -62c0 -23 22 -26 35 -26l26 -1c6 0 16 -2 16 -14c0 -16 -13 -17 -17 -17c-34 0 -68 6 -102 6c-33 0 -66 -6 -100 -6c-10 0 -19 0 -19 14c0 15 10 15 18 16l32 3c30 3 38 38 48 79l110 461c6 24 12 55 12 69c0 28 -20 27 -38 29
c-16 2 -19 8 -19 17c0 12 10 12 14 12c42 0 84 -4 125 -4c43 0 86 4 130 4c30 0 148 1 148 -147c0 -79 -50 -249 -312 -249h-51zM252 665l-79 -331h52c183 0 228 156 228 228c0 103 -72 108 -128 108c-22 0 -50 -2 -73 -5z" />
    <glyph glyph-name="afii10035" unicode="&#x421;" horiz-adv-x="551" 
d="M480 160l-12 -49c-16 -65 -9 -75 -34 -91c-36 -24 -116 -41 -165 -41c-137 0 -240 109 -240 265c0 247 244 477 499 477c10 0 54 -1 54 -28c0 -8 -4 -16 -15 -77l-7 -40c-5 -29 -7 -42 -20 -42c-17 0 -13 19 -13 52v33c0 57 1 68 -30 68c-149 0 -392 -175 -392 -444
c0 -164 95 -235 171 -235c117 0 160 115 185 179c2 4 5 15 13 15c2 0 11 0 11 -13c0 -7 -2 -15 -5 -29z" />
    <glyph glyph-name="afii10036" unicode="&#x422;" horiz-adv-x="503" 
d="M163 112l130 547c1 5 5 11 -9 11h-72c-86 0 -121 -79 -132 -106c-3 -8 -7 -18 -17 -18c-5 0 -10 3 -10 14c0 10 4 19 10 38l13 43c22 71 22 110 40 110c11 0 12 -12 12 -19v-7c0 -25 26 -25 36 -25h344c28 0 37 5 45 23c7 15 9 23 19 23c12 0 10 -12 9 -20
c-6 -31 -15 -62 -24 -98l-16 -62c-2 -10 -5 -17 -14 -17c-14 0 -11 15 -11 29v37c0 30 6 55 -59 55h-78c-4 0 -10 1 -13 -12l-128 -538c-5 -20 -12 -41 -12 -62c0 -15 3 -25 44 -27c16 0 25 1 25 -14c0 -6 -3 -17 -17 -17c-32 0 -63 6 -94 6c-33 0 -65 -6 -100 -6
c-5 0 -20 -2 -20 14c0 15 13 15 19 16l32 3c30 3 40 46 48 79z" />
    <glyph glyph-name="afii10037" unicode="&#x423;" horiz-adv-x="491" 
d="M212 606l54 -340c1 -8 1 -24 8 -24c4 0 8 11 16 25l160 269c39 65 48 90 48 107c0 11 -11 22 -25 23l-23 2c-12 1 -24 -1 -24 16c0 15 13 16 23 16c28 0 55 -5 83 -5c21 0 42 5 63 5c17 0 19 -7 19 -15c0 -15 -12 -17 -17 -17l-11 -1c-42 -4 -77 -85 -118 -153l-205 -341
c-34 -56 -106 -194 -194 -194c-25 0 -56 12 -56 57c0 42 27 60 53 60s34 -17 41 -33c4 -9 8 -17 20 -17c23 0 62 54 73 78c9 19 8 28 5 48l-67 388c-8 44 -9 104 -44 107l-20 2c-9 1 -11 10 -11 17c0 13 13 14 21 14c30 0 60 -5 90 -5c31 0 61 5 92 5c7 0 18 -1 20 -11v-7
c0 -3 -1 -17 -18 -17h-12c-52 0 -47 -40 -44 -59z" />
    <glyph glyph-name="afii10038" unicode="&#x424;" horiz-adv-x="682" 
d="M241 104l2 12c-97 -5 -222 40 -222 209c0 210 176 301 342 299c3 9 5 33 5 47c0 17 -19 19 -29 20l-16 2c-7 1 -12 7 -12 16c0 12 12 12 17 12c29 0 56 -5 83 -5c30 0 60 5 92 5c4 0 14 1 14 -11c0 -16 -14 -17 -22 -18l-13 -2c-24 -4 -29 -6 -45 -66
c169 10 224 -117 224 -220c0 -147 -119 -292 -345 -288c-4 -14 -10 -42 -10 -58c0 -9 0 -24 35 -26l19 -1c5 0 15 -1 15 -14c0 -6 -3 -17 -17 -17c-32 0 -64 6 -95 6c-34 0 -68 -6 -102 -6c-9 0 -17 1 -17 14c0 15 10 15 19 16l32 3c30 3 43 51 46 71zM430 593l-106 -446
c166 -8 261 140 261 251c0 70 -28 194 -155 195zM251 147l105 446c-142 6 -259 -110 -259 -250c0 -99 46 -195 154 -196z" />
    <glyph glyph-name="afii10039" unicode="&#x425;" horiz-adv-x="561" 
d="M314 406l105 132c69 87 70 105 70 111c0 21 -23 21 -42 21c-26 2 -27 6 -27 15c0 7 1 15 22 15c30 0 58 -5 87 -5c28 0 57 5 86 5c6 0 17 -2 17 -12c0 -5 -1 -14 -11 -15h-10c-51 2 -92 -59 -133 -109l-153 -186l91 -232c30 -77 31 -112 85 -116l14 -1c9 -1 14 -7 14 -14
c0 -3 0 -15 -17 -15c-37 0 -71 6 -106 6c-34 0 -68 -6 -104 -6c-4 0 -18 0 -18 15c0 18 14 15 34 17c33 2 46 5 46 26c0 15 -6 35 -30 98l-61 159l-144 -185c-45 -57 -45 -75 -45 -82c0 -12 5 -15 42 -17c14 -1 27 -1 27 -15c0 -16 -16 -16 -20 -16c-33 0 -64 6 -95 6
c-27 0 -54 -6 -85 -6c-4 0 -12 0 -12 13s11 16 18 17l19 4c27 6 65 41 88 70l196 242l-83 215c-22 57 -33 107 -77 110l-13 1c-6 0 -13 1 -13 14c0 6 1 14 17 14c30 0 59 -5 88 -5c33 0 65 5 101 5c6 0 16 0 16 -14c0 -15 -11 -15 -21 -15l-25 -1c-22 -1 -24 -11 -24 -18
c0 -9 2 -22 17 -63z" />
    <glyph glyph-name="afii10040" unicode="&#x426;" horiz-adv-x="635" 
d="M29 95l115 485c5 20 12 41 12 62c0 12 -3 24 -35 26l-19 1c-6 0 -14 1 -14 14c0 16 10 17 16 17c33 0 66 -5 99 -5c32 0 64 5 96 5c10 0 19 0 19 -14c0 -15 -10 -16 -18 -16c-41 -2 -58 8 -80 -82l-126 -527c-3 -14 3 -28 18 -28h248c21 0 26 20 28 27l124 520
c5 20 12 41 12 62c0 12 -3 24 -35 26l-19 1c-6 0 -14 1 -14 14c0 16 10 17 16 17c33 0 66 -5 99 -5c32 0 64 5 96 5c10 0 19 0 19 -14c0 -15 -10 -16 -18 -16c-40 -2 -59 8 -80 -82l-112 -483c-7 -29 -17 -74 32 -74c6 0 12 0 18 1c5 1 9 1 14 1c4 0 9 -1 9 -8
c0 -17 -11 -47 -15 -62l-14 -56c-8 -33 -11 -78 -32 -78c-14 0 -13 15 -13 20l1 18c1 9 2 50 2 60c0 36 -4 48 -10 56c-24 32 -102 17 -156 17h-160c-35 0 -71 6 -105 6c-28 0 -55 -6 -85 -6c-5 0 -13 0 -13 11c0 16 14 17 22 18l13 2c33 5 36 26 45 64z" />
    <glyph glyph-name="afii10041" unicode="&#x427;" horiz-adv-x="533" 
d="M313 112l55 229c1 3 3 9 -2 9c-3 0 -5 -3 -33 -17c-20 -10 -75 -34 -136 -34c-85 0 -137 45 -137 120c0 29 6 56 13 85l18 74c2 9 10 42 10 53c0 42 -35 37 -46 38s-10 14 -10 16c0 15 16 15 22 15c30 0 60 -5 90 -5c32 0 64 5 98 5c2 0 11 0 14 -8c1 -2 0 -5 0 -7
c0 -4 0 -11 -9 -14c-7 -3 -19 -2 -29 -3c-53 -4 -57 -53 -66 -90l-17 -70c-6 -25 -12 -48 -12 -72c0 -43 25 -86 96 -86c44 0 93 15 121 28c32 15 30 28 36 53l34 142c11 47 13 61 13 69c0 28 -22 27 -39 29c-7 1 -19 3 -19 17c0 13 12 12 17 12c29 0 55 -5 82 -5
c30 0 61 5 94 5c5 0 13 0 13 -11c0 -18 -16 -17 -35 -20c-26 -5 -32 -10 -45 -64l-115 -485c-5 -20 -12 -42 -12 -62c0 -15 2 -24 44 -27c18 0 24 0 24 -14c0 -16 -10 -17 -16 -17c-32 0 -64 6 -95 6c-33 0 -66 -6 -100 -6c-10 0 -19 0 -19 14c0 19 15 15 34 17
c45 2 50 25 64 81z" />
    <glyph glyph-name="afii10042" unicode="&#x428;" horiz-adv-x="859" 
d="M29 95l115 485c5 20 12 42 12 62c0 15 -2 24 -44 27c-18 0 -24 0 -24 14c0 16 10 17 16 17c33 0 66 -5 99 -5c32 0 64 5 96 5c10 0 19 0 19 -14c0 -15 -10 -15 -18 -16l-32 -3c-35 -3 -42 -53 -48 -79l-126 -529c-6 -26 8 -26 12 -26h183c8 0 22 5 27 25l124 522
c5 20 12 42 12 62c0 15 -2 24 -44 27c-18 0 -24 0 -24 14c0 16 10 17 16 17c32 0 64 -5 96 -5c33 0 66 5 99 5c10 0 19 0 19 -14c0 -15 -10 -15 -18 -16l-32 -3c-35 -3 -42 -53 -48 -79l-126 -528c-4 -18 -4 -27 11 -27h183c21 0 26 18 28 27l124 520c5 20 12 42 12 62
c0 15 -2 24 -44 27c-18 0 -24 0 -24 14c0 16 10 17 16 17c32 0 64 -5 96 -5c33 0 66 5 99 5c10 0 19 0 19 -14c0 -15 -10 -15 -18 -16l-32 -3c-35 -3 -42 -53 -48 -79l-110 -461c-8 -36 -14 -53 -14 -69c0 -22 15 -26 30 -28l15 -2c14 -2 14 -11 14 -16
c0 -11 -9 -12 -13 -12c-29 0 -55 4 -82 4c-36 0 -73 -4 -109 -4h-391c-36 0 -73 4 -108 4c-27 0 -53 -4 -82 -4c-5 0 -13 0 -13 11c0 16 14 17 22 18l13 2c26 4 32 10 45 64z" />
    <glyph glyph-name="afii10043" unicode="&#x429;" horiz-adv-x="859" 
d="M29 96l115 485c5 20 12 42 12 62c0 15 -2 24 -44 27c-18 0 -24 0 -24 14c0 16 10 17 16 17c33 0 66 -5 99 -5c32 0 64 5 96 5c10 0 19 0 19 -14c0 -15 -10 -15 -18 -16l-32 -3c-35 -3 -42 -53 -48 -79l-126 -529c-6 -26 8 -26 12 -26h183c8 0 22 5 27 25l124 522
c5 20 12 42 12 62c0 15 -2 24 -44 27c-18 0 -24 0 -24 14c0 16 10 17 16 17c32 0 64 -5 96 -5c33 0 66 5 99 5c10 0 19 0 19 -14c0 -15 -10 -15 -18 -16l-32 -3c-35 -3 -42 -53 -48 -79l-126 -528c-4 -18 -4 -27 11 -27h183c21 0 26 18 28 27l124 520c5 20 12 42 12 62
c0 15 -2 24 -44 27c-18 0 -24 0 -24 14c0 16 10 17 16 17c32 0 64 -5 96 -5c33 0 66 5 99 5c10 0 19 0 19 -14c0 -15 -10 -15 -18 -16l-32 -3c-34 -3 -42 -53 -48 -79l-112 -484c-7 -29 -17 -74 32 -74c6 0 12 0 18 1c5 1 9 1 14 1c4 0 9 -1 9 -8c0 -17 -11 -47 -15 -62
l-14 -56c-8 -33 -11 -78 -32 -78c-14 0 -13 15 -13 20l1 18c1 9 2 50 2 60c0 36 -4 48 -10 56c-24 32 -102 17 -156 17l-384 1c-36 0 -73 4 -108 4c-27 0 -53 -4 -82 -4c-5 0 -13 0 -13 11c0 18 16 17 35 20c26 5 32 10 45 64z" />
    <glyph glyph-name="afii10044" unicode="&#x42a;" horiz-adv-x="640" 
d="M161 112l128 537c5 20 -5 22 -28 21l-32 -1c-53 -2 -92 -38 -128 -90c-11 -15 -21 -36 -33 -36c-4 0 -7 6 -7 12s3 16 32 77c32 68 46 114 64 114c7 0 10 -6 10 -14c0 -4 -1 -8 -1 -12c0 -19 13 -20 24 -20h246c3 0 14 0 14 -15c0 -17 -13 -16 -28 -16
c-50 -1 -59 -21 -76 -91l-45 -186c38 11 75 15 113 15c46 0 181 -6 181 -179c0 -119 -72 -228 -256 -228c-53 0 -106 6 -157 6c-33 0 -65 -6 -100 -6c-5 0 -20 -2 -20 14c0 15 13 15 19 16l32 3c30 3 40 46 48 79zM293 359l-54 -227c-7 -29 -8 -38 -9 -43c-1 -7 0 -13 0 -20
c1 -18 6 -36 80 -36c40 0 212 2 212 196c0 135 -89 144 -133 144c-32 0 -64 -4 -96 -14z" />
    <glyph glyph-name="afii10045" unicode="&#x42b;" horiz-adv-x="764" 
d="M48 112l110 461c7 30 13 51 13 69c0 28 -21 27 -39 29c-7 1 -19 3 -19 17s12 12 20 12c29 0 54 -5 79 -5c29 0 57 5 89 5c7 0 18 1 18 -11c0 -18 -16 -17 -35 -20c-27 -5 -32 -10 -45 -64l-51 -213c37 11 74 15 112 15c48 0 182 -7 182 -179c0 -145 -103 -228 -256 -228
c-53 0 -106 6 -158 6c-33 0 -66 -6 -100 -6c-10 0 -19 0 -19 14c0 18 14 15 35 17c38 2 49 17 64 81zM180 359l-54 -227c-8 -32 -10 -49 -10 -63c0 -23 16 -36 80 -36c39 0 213 2 213 196c0 135 -90 144 -133 144c-32 0 -64 -4 -96 -14zM544 112l110 461c7 30 13 51 13 69
c0 28 -21 27 -39 29c-7 1 -19 3 -19 17c0 15 15 12 21 12c28 0 53 -5 78 -5c29 0 58 5 90 5c5 0 17 2 17 -11c0 -16 -14 -17 -22 -18l-13 -2c-26 -4 -32 -10 -45 -64l-115 -485c-5 -20 -12 -42 -12 -62c0 -15 2 -24 44 -27c18 0 24 0 24 -14c0 -16 -10 -17 -16 -17
c-32 0 -64 6 -95 6c-33 0 -66 -6 -100 -6c-10 0 -19 0 -19 14c0 15 10 15 18 16l32 3c35 3 42 53 48 79z" />
    <glyph glyph-name="afii10046" unicode="&#x42c;" horiz-adv-x="526" 
d="M47 112l110 461c7 30 13 51 13 69c0 46 -47 8 -57 38c-1 2 0 5 0 8c1 6 2 12 20 12c27 0 53 -5 79 -5c29 0 58 5 89 5c16 0 17 -6 17 -11c0 -18 -13 -16 -35 -20c-31 -6 -34 -18 -45 -64l-51 -213c38 11 75 15 113 15c43 0 181 -7 181 -179c0 -219 -206 -228 -256 -228
c-53 0 -105 6 -157 6c-33 0 -66 -6 -100 -6c-10 0 -19 0 -19 14c0 15 10 15 18 16l32 3c32 3 40 45 48 79zM179 359l-54 -227c-3 -12 -9 -46 -9 -63c0 -28 20 -36 80 -36c35 0 213 2 213 196c0 135 -88 144 -134 144c-32 0 -64 -4 -96 -14z" />
    <glyph glyph-name="afii10047" unicode="&#x42d;" horiz-adv-x="581" 
d="M297 392h143c22 0 32 9 32 79c0 115 -51 220 -177 220c-99 0 -128 -53 -154 -110c-6 -13 -13 -35 -24 -35c-3 0 -10 1 -10 14c0 3 2 21 3 28l8 52c4 29 13 40 31 49c38 20 113 32 158 32c179 0 245 -143 245 -271c0 -232 -179 -471 -401 -471c-69 0 -131 26 -158 50
c-28 25 -20 46 -15 74l10 55c4 21 8 28 18 28c14 0 14 -12 14 -17c3 -60 24 -160 135 -160c105 0 243 94 295 311c9 39 0 40 -10 40h-125c-90 0 -102 -43 -126 -98l-7 -16c-3 -7 -6 -14 -16 -14c-7 0 -9 7 -9 10c0 25 23 35 55 211l2 11c3 15 6 19 13 19c12 0 11 -10 11 -14
v-21c0 -53 33 -56 59 -56z" />
    <glyph glyph-name="afii10048" unicode="&#x42e;" horiz-adv-x="921" 
d="M186 387h134c30 175 170 334 324 334c137 0 248 -134 248 -320c0 -229 -176 -422 -334 -422c-132 0 -245 134 -245 330c0 15 1 30 2 45h-136l-56 -234c-5 -20 -12 -42 -12 -62c0 -15 2 -24 44 -27c18 0 24 0 24 -14c0 -16 -10 -17 -16 -17c-32 0 -64 6 -95 6
c-33 0 -66 -6 -100 -6c-10 0 -19 0 -19 14c0 15 10 16 18 16c41 2 58 -8 80 82l110 461c8 36 14 53 14 69c0 14 -5 25 -30 28l-17 2c-9 1 -12 9 -12 16c0 13 12 12 17 12c29 0 55 -5 82 -5c30 0 61 5 94 5c5 0 13 0 13 -11c0 -16 -13 -17 -23 -18c-45 -6 -46 -19 -57 -66z
M388 254c0 -180 90 -245 175 -245c177 0 254 279 254 454c0 145 -74 228 -171 228c-158 0 -258 -240 -258 -437z" />
    <glyph glyph-name="afii10049" unicode="&#x42f;" horiz-adv-x="517" 
d="M298 112l48 202c4 16 2 19 2 21c0 7 -11 6 -17 6h-6c-58 0 -69 -34 -91 -64l-171 -232c-31 -42 -25 -45 -52 -45c-14 0 -28 1 -41 1c-17 0 -34 -1 -52 -1c-6 0 -15 1 -15 15s11 14 24 16c47 7 51 22 78 58l169 225c8 10 32 36 57 36l1 3c-69 9 -122 60 -122 158
c0 79 42 190 228 190c16 0 32 -1 48 -2c25 -2 51 -4 76 -4c31 0 60 5 93 5c5 0 13 0 13 -11c0 -18 -16 -17 -35 -20c-26 -5 -32 -10 -45 -64l-115 -485c-5 -20 -12 -41 -12 -62c0 -15 3 -25 44 -27c16 0 25 1 25 -14c0 -6 -3 -17 -17 -17c-32 0 -64 6 -95 6
c-33 0 -66 -6 -100 -6c-10 0 -19 0 -19 14c0 18 14 15 35 17c38 2 49 17 64 81zM366 400l49 204c5 23 7 40 7 51c0 12 -22 19 -55 19c-31 0 -176 -5 -176 -166c0 -135 93 -137 129 -137c33 0 38 -4 46 29z" />
    <glyph glyph-name="afii10065" unicode="&#x430;" horiz-adv-x="516" 
d="M349 215l19 64h-4c-98 -185 -200 -300 -272 -300c-27 0 -79 19 -79 115c0 144 145 414 331 414c22 0 39 -4 56 -17c3 -3 9 -8 15 -8c7 0 10 9 13 17l3 9c3 9 4 13 18 13h32c6 0 12 0 12 -9c0 -6 -2 -17 -4 -22l-56 -198c-13 -44 -51 -188 -51 -216c0 -18 7 -19 11 -19
c26 0 82 100 84 104s6 10 12 10c4 0 7 -4 7 -11c0 -3 -1 -10 -10 -29c-34 -75 -111 -153 -154 -153c-20 0 -25 17 -25 37c0 45 26 146 42 199zM85 98c0 -34 9 -57 42 -57c20 0 66 13 147 132c32 47 130 199 130 255c0 19 -9 56 -53 56c-112 0 -266 -233 -266 -386z" />
    <glyph glyph-name="afii10066" unicode="&#x431;" horiz-adv-x="478" 
d="M94 326l3 -4c22 51 88 176 218 176c100 0 135 -78 135 -164c0 -180 -143 -355 -285 -355c-95 0 -136 95 -136 205c0 134 72 367 202 464c74 55 151 64 239 75c37 5 44 6 49 15c3 6 6 17 15 17c4 0 14 -3 8 -22c-24 -75 -92 -81 -153 -89c-64 -9 -108 -19 -142 -38
c-69 -38 -136 -130 -153 -280zM98 152c0 -107 37 -144 85 -144c103 0 195 189 195 332c0 60 -24 125 -86 125c-103 0 -194 -159 -194 -313z" />
    <glyph glyph-name="afii10067" unicode="&#x432;" horiz-adv-x="424" 
d="M231 272l1 -4c16 3 31 4 47 4c65 0 92 -48 92 -107c0 -96 -78 -186 -216 -186c-57 0 -128 18 -128 170c0 188 99 373 278 373c28 0 102 -5 102 -86c0 -64 -44 -131 -176 -164zM117 268c97 1 224 61 224 161c0 50 -28 66 -61 66c-44 0 -128 -38 -163 -227zM111 241
c-6 -29 -12 -74 -12 -128c0 -84 30 -107 77 -107c84 0 123 70 123 145c0 48 -19 100 -87 100c-28 0 -55 -5 -101 -10z" />
    <glyph glyph-name="afii10068" unicode="&#x433;" horiz-adv-x="361" 
d="M103 218l60 45c53 40 102 80 102 147c0 42 -22 65 -56 65c-59 0 -109 -62 -119 -76c-5 -7 -11 -16 -18 -16c-3 0 -9 2 -9 12c0 6 4 13 14 26c70 93 127 101 165 101c61 0 98 -40 98 -92c0 -73 -51 -114 -104 -155c-80 -63 -145 -112 -145 -185c0 -28 14 -61 55 -61
c64 0 96 37 144 88c10 11 13 13 15 13c3 0 8 -3 8 -10c0 -8 -4 -13 -8 -19c-83 -111 -146 -122 -185 -122c-74 0 -104 46 -104 97c0 69 50 114 87 142z" />
    <glyph glyph-name="afii10069" unicode="&#x434;" horiz-adv-x="462" 
d="M364 429l3 1c-2 90 -34 268 -185 280c-12 1 -27 0 -27 14c0 12 13 11 35 11c205 0 247 -230 247 -358c0 -241 -169 -398 -278 -398c-73 0 -134 61 -134 184c0 192 147 330 248 330c33 0 67 -12 91 -64zM93 152c0 -119 51 -146 83 -146c85 0 177 162 177 319
c0 92 -28 141 -79 141c-98 0 -181 -164 -181 -314z" />
    <glyph glyph-name="afii10070" unicode="&#x435;" horiz-adv-x="416" 
d="M319 122l12 19c3 4 7 11 11 11c3 0 8 -2 8 -9s-4 -16 -21 -43c-41 -66 -106 -121 -173 -121c-79 0 -131 73 -131 182c0 180 137 361 272 361c94 0 106 -84 106 -115c0 -136 -142 -184 -303 -201c-2 -14 -3 -27 -3 -41c0 -91 45 -130 93 -130c55 0 107 51 129 87zM104 230
c227 23 234 163 234 205c0 15 -4 64 -49 64c-74 0 -159 -109 -185 -269z" />
    <glyph glyph-name="afii10072" unicode="&#x436;" horiz-adv-x="778" 
d="M443 501h34c13 0 8 -16 6 -24l-90 -314l134 181c39 78 119 178 205 178c46 0 69 -30 69 -61c0 -17 -10 -37 -30 -37c-22 0 -29 16 -36 31c-8 17 -18 34 -36 34c-58 0 -160 -181 -160 -349c0 -53 14 -109 59 -109c18 0 47 9 93 57c14 15 21 22 27 22c4 0 8 -5 8 -11
c0 -2 -1 -8 -11 -21c-18 -24 -88 -99 -152 -99c-44 0 -92 36 -92 163c0 40 9 81 25 128l-103 -143c-23 -33 -22 -40 -30 -69l-12 -42c-3 -9 -6 -16 -17 -16h-39c-10 0 -6 11 -5 15l95 323l-134 -181c-39 -82 -127 -178 -205 -178c-42 0 -69 27 -69 61c0 18 10 37 30 37
c19 0 29 -14 36 -29c9 -18 15 -36 36 -36c59 0 159 177 159 354c0 47 -12 104 -58 104c-23 0 -52 -15 -93 -57c-15 -15 -21 -22 -27 -22c-5 0 -8 6 -8 11c0 2 1 8 11 21c18 24 88 99 152 99c47 0 92 -40 92 -153c0 -36 -7 -80 -25 -138l103 143c23 32 23 41 30 69l9 34
c2 7 6 24 19 24z" />
    <glyph glyph-name="afii10073" unicode="&#x437;" horiz-adv-x="372" 
d="M116 262l5 16c1 4 3 6 7 6h21c69 0 130 65 130 126c0 57 -39 79 -73 79c-54 0 -80 -46 -98 -72c-10 -14 -15 -16 -17 -16c-4 0 -9 1 -9 14c0 15 5 26 9 40l9 35c4 16 6 38 19 38c11 0 10 -10 14 -19c5 -12 16 -12 41 0c15 7 37 13 58 13c39 0 111 -16 111 -97
c0 -77 -62 -142 -149 -152v-4c89 3 120 -43 120 -114c0 -100 -87 -176 -200 -176c-93 0 -142 55 -142 99c0 30 21 59 38 59c21 0 23 -28 25 -44c6 -52 25 -87 77 -87c64 0 130 52 130 149c0 103 -88 100 -108 100h-13c-6 0 -6 4 -5 7z" />
    <glyph glyph-name="afii10074" unicode="&#x438;" horiz-adv-x="516" 
d="M480 480l-82 -284c-29 -101 -31 -125 -31 -133c0 -21 8 -22 11 -22c30 0 83 83 96 105c4 6 9 16 15 16c3 0 7 -3 7 -9c0 -5 -3 -12 -11 -26c-37 -63 -105 -148 -161 -148c-20 0 -30 10 -30 36c0 32 40 177 50 209l17 53h-3c-69 -152 -200 -298 -286 -298
c-9 0 -45 2 -45 57c0 39 16 88 27 124l61 193c21 65 22 71 23 89v7c-1 8 -5 11 -11 11c-26 0 -69 -73 -85 -101c-2 -4 -6 -10 -12 -10c-3 0 -7 4 -7 10c0 2 1 6 7 20c41 89 110 143 144 143c15 0 28 -9 32 -28c2 -9 1 -17 0 -26c-3 -31 -7 -40 -27 -108l-70 -234
c-3 -9 -13 -45 -13 -66c0 -25 14 -27 22 -27c13 0 36 7 85 55c65 64 153 187 199 351l12 43c3 10 5 19 20 19h36c11 0 15 -4 10 -21z" />
    <glyph glyph-name="afii10075" unicode="&#x439;" horiz-adv-x="516" 
d="M480 480l-82 -284c-29 -101 -31 -125 -31 -133c0 -21 8 -22 11 -22c30 0 83 83 96 105c4 6 9 16 15 16c3 0 7 -3 7 -9c0 -5 -3 -12 -11 -26c-37 -63 -105 -148 -161 -148c-20 0 -30 10 -30 36c0 32 40 177 50 209l17 53h-3c-69 -152 -200 -298 -286 -298
c-9 0 -45 2 -45 57c0 39 16 88 27 124l61 193c21 65 22 71 23 89v7c-1 8 -5 11 -11 11c-26 0 -69 -73 -85 -101c-2 -4 -6 -10 -12 -10c-3 0 -7 4 -7 10c0 2 1 6 7 20c41 89 110 143 144 143c15 0 28 -9 32 -28c2 -9 1 -17 0 -26c-3 -31 -7 -40 -27 -108l-70 -234
c-3 -9 -13 -45 -13 -66c0 -25 14 -27 22 -27c13 0 36 7 85 55c65 64 153 187 199 351l12 43c3 10 5 19 20 19h36c11 0 15 -4 10 -21zM484 689c-32 -46 -102 -138 -185 -138c-49 0 -82 38 -82 71c0 27 53 92 73 92c3 0 4 -3 5 -6s0 -5 0 -8l-3 -27c-1 -14 -3 -27 0 -41
c8 -36 32 -37 48 -37c20 0 67 13 129 110c12 19 23 14 23 3c0 -7 -4 -13 -8 -19z" />
    <glyph glyph-name="afii10076" unicode="&#x43a;" 
d="M110 65l-12 -43c-5 -17 -8 -22 -18 -22h-44c-3 0 -8 2 -8 4c0 4 1 8 2 12l84 298c25 87 25 114 25 117c0 13 -2 28 -14 28c-25 0 -72 -76 -85 -98c-3 -5 -7 -13 -12 -13c-6 0 -11 7 -5 21c22 50 97 153 149 153c36 0 36 -44 36 -57c0 -52 -11 -91 -26 -145l-27 -95h3
c62 99 192 297 286 297c24 0 57 -14 57 -56c0 -28 -19 -45 -37 -45c-19 0 -29 17 -36 28c-8 11 -15 21 -29 21c-40 0 -125 -107 -160 -162c58 -38 67 -100 75 -152c12 -72 20 -145 74 -145c36 0 40 41 40 55s-4 29 -9 35l-6 8c-3 4 -8 7 -8 16c0 7 5 15 13 15
c17 0 34 -22 34 -58c0 -61 -36 -103 -89 -103c-110 0 -118 101 -121 168c-4 102 1 118 -16 141c-51 -69 -96 -153 -116 -223z" />
    <glyph glyph-name="afii10077" unicode="&#x43b;" horiz-adv-x="467" 
d="M281 175l63 218c5 19 9 30 9 48c0 13 -3 29 -38 29h-18c-53 0 -56 -16 -62 -39c-17 -61 -55 -162 -87 -238c-45 -105 -101 -214 -176 -214c-34 0 -59 27 -59 62c0 29 21 42 39 42c15 0 24 -10 32 -28c4 -10 9 -30 23 -30c30 0 95 103 162 303c31 91 32 111 32 120
c0 22 -9 25 -41 26c-16 0 -32 -3 -32 14c0 13 14 13 21 13h214c57 0 59 -22 59 -41c0 -17 -4 -32 -9 -50l-77 -279c-7 -25 -16 -47 -16 -68c0 -7 2 -18 13 -18c20 0 74 76 84 91l12 19c4 7 8 8 10 8c4 0 8 -3 8 -10s-4 -15 -13 -30c-54 -88 -110 -144 -149 -144
c-14 0 -38 6 -38 54c0 16 5 41 34 142z" />
    <glyph glyph-name="afii10078" unicode="&#x43c;" horiz-adv-x="622" 
d="M234 451l-4 1c-15 -60 -40 -153 -83 -259c-72 -178 -131 -214 -174 -214c-35 0 -60 26 -60 62c0 29 20 42 40 42c12 0 21 -4 31 -28c4 -10 9 -30 23 -30c28 0 98 103 158 303c27 90 27 108 27 113c0 18 -9 31 -26 32l-20 1c-8 0 -18 1 -18 14c0 12 12 13 19 13h126
c9 0 24 -1 24 -29l-5 -348l210 370c2 3 3 7 9 7h74c9 0 7 -9 6 -12l-101 -358c-16 -56 -16 -65 -16 -68c0 -15 8 -18 13 -18c16 0 33 24 84 93c12 16 16 25 23 25c6 0 8 -6 8 -10s-1 -9 -14 -31c-27 -48 -98 -143 -146 -143c-21 0 -40 14 -40 48c0 19 5 47 21 105l91 323h-5
l-261 -460c-4 -7 -7 -16 -14 -16c-4 0 -5 3 -5 12z" />
    <glyph glyph-name="afii10079" unicode="&#x43d;" horiz-adv-x="522" 
d="M30 16l84 298c21 74 24 104 24 117s0 28 -13 28c-16 0 -35 -23 -75 -84l-11 -17c-2 -4 -6 -10 -12 -10c-4 0 -7 5 -7 10c0 6 5 17 8 23l10 18c21 38 87 123 133 123c16 0 37 -11 37 -55c0 -48 -14 -101 -26 -147l-7 -26c-1 -4 -3 -13 6 -13h177c4 0 9 2 11 10l56 200
c1 5 3 10 10 10h50c9 0 7 -9 6 -12l-100 -358c-5 -17 -11 -33 -14 -50c-1 -6 -1 -12 -2 -18c0 -3 -1 -5 0 -8c1 -4 4 -10 12 -10c14 0 34 20 82 89l14 20c10 15 19 9 19 -1c0 -8 -5 -17 -14 -31l-15 -23c-35 -54 -90 -120 -130 -120c-19 0 -41 10 -41 54c0 24 8 51 20 92
l33 118c2 8 -3 11 -8 11h-176c-8 0 -8 -3 -10 -9l-63 -223c-3 -9 -6 -22 -19 -22h-44c-10 0 -6 12 -5 16z" />
    <glyph glyph-name="afii10080" unicode="&#x43e;" horiz-adv-x="467" 
d="M282 522c88 0 160 -84 160 -222c0 -168 -135 -321 -258 -321c-96 0 -159 97 -159 218c0 170 125 325 257 325zM283 495c-110 0 -193 -184 -193 -339c0 -78 21 -150 90 -150c126 0 197 227 197 352c0 116 -53 137 -94 137z" />
    <glyph glyph-name="afii10081" unicode="&#x43f;" horiz-adv-x="519" 
d="M27 16l84 298c14 50 24 87 24 120c0 14 -1 25 -13 25c-23 0 -73 -77 -85 -98c-3 -5 -7 -13 -12 -13c-3 0 -8 2 -8 10c0 5 2 10 8 23c28 57 99 141 143 141c36 0 36 -43 36 -49c0 -61 -17 -120 -35 -179l-21 -69h4c63 146 172 297 268 297c36 0 63 -25 63 -67
c0 -31 -13 -63 -25 -101l-70 -223c-16 -50 -17 -62 -17 -68c0 -15 7 -18 14 -18c19 0 79 81 95 108c2 3 5 10 11 10c3 0 8 -2 8 -9c0 -8 -4 -16 -13 -32c-50 -84 -113 -143 -146 -143c-18 0 -40 10 -40 54c0 24 7 58 34 143l65 203c5 16 13 43 13 61c0 12 -2 32 -30 32
c-106 0 -239 -295 -274 -408l-13 -42c-6 -19 -11 -22 -19 -22h-44c-11 0 -6 12 -5 16z" />
    <glyph glyph-name="afii10082" unicode="&#x440;" horiz-adv-x="502" 
d="M-24 -162l169 629c-12 -4 -41 -15 -57 -21l-15 -6c-14 -6 -20 3 -20 10c0 11 9 16 16 19l28 11c17 7 44 17 56 21l28 103c3 11 3 18 18 18h43c10 0 8 -9 7 -14l-27 -96c22 5 51 10 90 10c42 0 165 -5 165 -172c0 -196 -148 -371 -281 -371c-32 0 -76 12 -103 51l-36 -133
c-7 -24 -17 -71 -17 -91c0 -36 32 -40 53 -44l17 -3c4 -1 12 -2 12 -14c0 -8 -3 -13 -18 -13c-36 0 -72 7 -107 7c-34 0 -68 -7 -106 -7c-8 0 -16 0 -16 12c0 15 10 17 17 18l26 4c34 5 44 19 58 72zM215 484l-90 -334c-11 -40 -13 -59 -13 -70c0 -48 35 -77 78 -77
c128 0 218 216 218 368c0 47 -9 124 -112 124c-28 0 -57 -4 -81 -11z" />
    <glyph glyph-name="afii10083" unicode="&#x441;" horiz-adv-x="394" 
d="M316 456l-13 19c-7 10 -14 17 -28 17c-61 0 -178 -140 -178 -320c0 -104 50 -138 92 -138c77 0 139 98 154 122c2 3 4 6 7 7h3c3 -1 6 -4 6 -8c0 -3 -1 -8 -6 -18c-26 -54 -101 -158 -192 -158c-76 0 -136 75 -136 184c0 202 156 359 281 359c38 0 91 -20 91 -59
c0 -16 -6 -39 -35 -39c-28 0 -37 19 -46 32z" />
    <glyph glyph-name="afii10084" unicode="&#x442;" horiz-adv-x="750" 
d="M28 24l49 163c11 37 61 206 61 254c0 5 0 16 -10 16c-23 0 -75 -75 -88 -96c-2 -3 -6 -11 -11 -11c-4 0 -9 2 -9 11c0 6 3 15 23 43c27 38 88 118 137 118c14 0 27 -8 27 -43c0 -39 -11 -88 -39 -190l-12 -44l1 -1c57 116 159 278 233 278c21 0 55 -18 55 -84
c0 -35 -9 -81 -30 -157l-12 -44h1c112 246 202 285 246 285c36 0 60 -32 60 -79c0 -27 -7 -49 -29 -117l-60 -190c-11 -34 -17 -50 -17 -76c0 -5 0 -20 11 -20c25 0 81 86 91 107c3 7 8 17 16 17c3 0 8 -2 8 -8s-1 -19 -20 -51c-32 -52 -96 -126 -142 -126
c-17 0 -39 8 -39 51c0 39 20 95 32 132l60 190c9 29 18 53 18 77c0 31 -16 37 -30 37c-84 0 -211 -275 -249 -393l-19 -59c-5 -15 -9 -14 -17 -14h-38c-6 0 -12 -1 -12 8c0 7 3 13 5 20l38 123c23 75 64 234 64 280c0 19 -4 37 -25 37c-58 0 -192 -213 -251 -410l-14 -47
c-4 -12 -9 -11 -14 -11h-40c-18 0 -12 15 -9 24z" />
    <glyph glyph-name="afii10085" unicode="&#x443;" horiz-adv-x="425" 
d="M194 10c65 90 168 261 168 356c0 11 -2 22 -5 33c-9 29 -23 40 -23 69c0 24 10 54 39 54c33 0 44 -44 44 -83c0 -91 -28 -174 -198 -438c-73 -113 -163 -269 -261 -269c-39 0 -69 33 -69 61c0 13 6 42 32 42c19 0 29 -16 41 -32c11 -16 17 -29 37 -29c28 0 55 33 68 50
c58 76 71 132 71 286c0 182 -14 353 -47 353c-10 0 -36 -10 -70 -105c-2 -5 -5 -14 -12 -14c-4 0 -9 3 -9 10c0 4 1 11 10 34c36 94 80 134 109 134c80 0 83 -234 83 -353c0 -47 -4 -110 -8 -159z" />
    <glyph glyph-name="afii10086" unicode="&#x444;" horiz-adv-x="696" 
d="M367 459l12 55c37 172 141 224 196 224c27 0 59 -11 59 -48c0 -20 -9 -35 -30 -35c-25 0 -35 19 -43 30c-9 12 -12 19 -25 19c-52 0 -79 -121 -94 -190l-16 -73c33 37 78 81 130 81c54 0 115 -58 115 -199c0 -194 -155 -344 -257 -344c-30 0 -65 13 -85 59l-7 -28
c-22 -87 -60 -278 -183 -278c-53 0 -82 38 -82 69c0 21 13 38 30 38c25 0 31 -19 39 -42c8 -24 9 -41 28 -41c55 0 76 139 94 219l19 84c-41 -47 -79 -80 -127 -80c-67 0 -115 80 -115 199c0 193 152 344 259 344c50 0 74 -37 83 -63zM298 180l42 171c4 18 9 41 9 60
c0 42 -20 82 -63 82c-89 0 -185 -150 -185 -302c0 -121 44 -154 77 -154c32 0 91 23 120 143zM398 321l-42 -171c-5 -19 -9 -41 -9 -61c0 -48 25 -81 63 -81c90 0 185 150 185 302c0 98 -33 154 -77 154c-32 0 -91 -23 -120 -143z" />
    <glyph glyph-name="afii10087" unicode="&#x445;" horiz-adv-x="483" 
d="M222 246l-30 125c-8 33 -23 86 -56 86c-17 0 -42 -14 -50 -95c-1 -9 -1 -22 -10 -22c-10 0 -10 14 -10 23c0 10 2 19 4 29c22 119 79 130 100 130c55 0 76 -77 102 -204c80 140 122 204 173 204c25 0 51 -14 51 -58c0 -46 -29 -71 -52 -71c-21 0 -30 19 -30 33
c0 11 3 10 3 25c0 12 -7 15 -11 15c-28 0 -110 -147 -127 -178l37 -155c8 -34 17 -91 45 -91c27 0 37 46 43 77l3 16c2 13 2 27 12 27c15 0 7 -39 5 -52c-22 -115 -74 -131 -92 -131c-63 0 -81 140 -102 234c-44 -86 -132 -234 -208 -234c-27 0 -55 13 -55 60
c0 49 30 77 55 77c26 0 32 -26 32 -40c0 -5 -1 -13 -3 -18c-2 -7 -4 -12 -4 -19c0 -9 5 -10 9 -10c48 0 135 155 166 217z" />
    <glyph glyph-name="afii10088" unicode="&#x446;" horiz-adv-x="510" 
d="M477 480l-83 -284c-8 -27 -30 -110 -30 -135c0 -15 4 -20 11 -20c31 0 79 74 93 100c3 5 8 16 15 16c5 0 11 -5 3 -20l-17 -32c-26 -48 -37 -49 -32 -147c5 -96 -14 -154 -91 -191c-16 -8 -23 -3 -23 4c0 4 2 8 5 10l7 4c45 26 42 68 42 103c-1 72 10 92 40 147l-3 2
c-20 -23 -60 -58 -93 -58c-13 0 -30 2 -30 36c0 39 40 178 49 207l17 55h-2c-73 -154 -197 -298 -286 -298c-44 0 -45 46 -45 57c0 37 17 95 26 124l62 193c19 58 23 75 23 87c0 5 -1 15 -5 18c-2 1 -4 2 -6 2c-19 0 -53 -48 -67 -71l-18 -30c-2 -4 -5 -10 -12 -10
c-6 0 -7 4 -7 10c0 8 2 12 6 19l10 18c48 86 104 126 135 126c20 0 32 -14 32 -54c0 -30 -14 -65 -27 -108l-71 -234c-2 -8 -11 -45 -12 -53c-1 -6 -1 -12 0 -18c1 -8 3 -22 22 -22c26 0 67 37 85 55c78 78 164 214 199 351l11 43c2 7 6 19 20 19h37c16 0 12 -16 10 -21z
" />
    <glyph glyph-name="afii10089" unicode="&#x447;" 
d="M174 364l-16 -57c-2 -5 -6 -29 -6 -35c0 -27 13 -35 43 -35c43 0 127 24 162 146l31 108c2 5 3 10 10 10h51c9 0 8 -7 7 -12l-101 -358c-9 -32 -16 -49 -16 -68c0 -6 1 -18 14 -18c20 0 70 73 82 90l12 18c3 5 6 10 11 10c4 0 8 -3 8 -10c0 -24 -60 -98 -78 -118
c-21 -23 -56 -56 -81 -56c-20 0 -41 10 -41 54c0 31 11 67 33 142l30 104l-1 2c-52 -66 -130 -105 -193 -105c-50 0 -58 32 -58 58c0 20 12 65 16 78l12 44c11 40 16 56 16 79c0 8 -1 24 -13 24c-18 0 -55 -53 -66 -70l-19 -30c-3 -5 -7 -11 -12 -11c-4 0 -8 3 -8 11
s5 16 8 22c53 92 109 141 143 141c19 0 38 -15 38 -59c0 -38 -11 -75 -18 -99z" />
    <glyph glyph-name="afii10090" unicode="&#x448;" horiz-adv-x="737" 
d="M453 480l-81 -276c-28 -97 -31 -130 -31 -142c0 -9 1 -29 21 -29c65 0 205 207 261 407l12 43c5 17 8 18 20 18h36c3 0 12 0 12 -4c0 -2 -1 -12 -2 -16l-82 -284c-28 -99 -31 -124 -31 -135c0 -18 8 -20 11 -20c27 0 70 65 77 76l19 30c4 6 9 15 15 15c3 0 7 -2 7 -9
c0 -4 -2 -11 -11 -26c-32 -55 -105 -149 -161 -149c-20 0 -30 9 -30 37c0 33 40 179 49 207l11 36l-2 1c-71 -158 -183 -281 -256 -281c-34 0 -45 27 -45 58c0 48 37 167 46 195l9 27l-3 1c-66 -157 -182 -281 -255 -281c-44 0 -45 45 -45 57c0 33 9 68 27 124l61 193
c21 67 23 85 23 87c0 7 1 20 -11 20c-20 0 -52 -47 -67 -71l-19 -31c-3 -5 -5 -9 -11 -9c-7 0 -7 8 -7 10s1 6 6 19c26 67 103 144 145 144c13 0 28 -7 32 -29c1 -8 1 -17 0 -25c-4 -34 -11 -53 -27 -108l-70 -234c-7 -25 -13 -36 -13 -65c0 -9 1 -28 22 -28
c64 0 204 205 260 406l12 43c3 11 5 19 20 19h36c6 0 16 1 10 -21z" />
    <glyph glyph-name="afii10091" unicode="&#x449;" horiz-adv-x="733" 
d="M453 480l-80 -276c-7 -24 -32 -120 -32 -142c0 -5 1 -29 21 -29c78 0 225 263 262 407l11 43c4 17 9 18 20 18h37c5 0 11 1 11 -4c0 -6 0 -10 -2 -16l-83 -285c-8 -27 -30 -110 -30 -135c0 -15 4 -20 11 -20c27 0 65 55 77 74l16 26c4 6 9 16 15 16c2 0 6 -2 6 -4
c0 -3 -1 -12 -3 -16l-17 -33c-16 -31 -38 -33 -32 -146c1 -14 1 -27 1 -41c0 -18 -1 -106 -92 -150c-16 -8 -23 -3 -23 4c0 4 2 8 5 10l7 4c45 26 42 68 42 103c-1 71 10 91 40 147l-3 2c-20 -23 -60 -58 -93 -58c-13 0 -30 2 -30 36c0 13 1 46 49 207l11 37l-2 1
c-71 -157 -183 -281 -256 -281c-31 0 -44 20 -44 58s28 143 45 195l9 27l-2 1c-69 -157 -182 -281 -256 -281c-31 0 -44 20 -44 57c0 39 19 103 26 124l62 193c6 17 23 75 23 87c0 8 -1 20 -11 20c-18 0 -55 -49 -68 -71l-18 -30c-2 -4 -5 -10 -11 -10c-4 0 -8 2 -8 10
c0 6 3 13 7 20c51 99 112 143 145 143c15 0 32 -8 32 -54c0 -13 -4 -31 -27 -108l-71 -234c-5 -16 -13 -49 -13 -65c0 -5 0 -28 22 -28c77 0 224 261 261 406l11 43c4 15 8 19 20 19h37c7 0 15 0 9 -21z" />
    <glyph glyph-name="afii10092" unicode="&#x44a;" horiz-adv-x="442" 
d="M273 464l-1 4c-47 -15 -76 -25 -100 -25c-10 0 -22 1 -33 4c-21 5 -39 13 -52 13c-10 0 -47 -7 -50 -84v-15v-10c-1 -8 -6 -12 -10 -12c-3 0 -12 3 -12 38c0 54 31 145 108 145c29 0 56 -9 92 -19c30 -8 56 -12 86 -12c14 12 42 31 62 31c15 0 20 -10 20 -19
c0 -20 -26 -41 -73 -35c-46 -40 -103 -105 -133 -179c51 12 86 20 121 20c77 0 121 -49 121 -129c0 -102 -77 -201 -213 -201c-24 0 -132 4 -132 148c0 143 93 252 199 337zM168 259c-17 -54 -21 -87 -21 -127c0 -115 49 -126 82 -126c79 0 117 73 117 149
c0 60 -25 120 -83 120c-22 0 -76 -11 -95 -16z" />
    <glyph glyph-name="afii10093" unicode="&#x44b;" horiz-adv-x="621" 
d="M185 378l-30 -83c47 10 83 19 117 19c97 0 115 -72 115 -129c0 -100 -72 -206 -211 -206c-125 0 -129 103 -129 139c0 49 11 82 25 121l36 103c24 69 31 84 31 97c0 12 -7 15 -11 15c-20 0 -73 -68 -88 -92c-6 -10 -10 -17 -15 -17c-7 0 -12 8 -3 24l10 17
c55 94 119 136 153 136c10 0 30 -5 30 -35c0 -25 -13 -62 -30 -109zM145 266c-32 -93 -35 -145 -35 -167c0 -86 47 -88 76 -88c87 0 128 77 128 162c0 91 -47 105 -82 105c-26 0 -63 -6 -87 -12zM436 175l88 316c2 5 3 10 11 10h49c9 0 8 -7 7 -12l-101 -358
c-5 -17 -11 -33 -14 -50c-1 -6 -2 -12 -2 -18c0 -4 1 -11 5 -15c2 -2 5 -3 8 -3c15 0 35 26 79 86l16 22c5 7 7 9 15 9c3 0 4 -6 4 -9c0 -7 -7 -22 -13 -31l-16 -24c-53 -80 -101 -119 -130 -119c-19 0 -41 12 -41 54c0 25 12 60 35 142z" />
    <glyph glyph-name="afii10094" unicode="&#x44c;" horiz-adv-x="410" 
d="M184 378l-30 -83c57 13 86 19 118 19c81 0 115 -55 115 -129c0 -99 -71 -206 -212 -206c-115 0 -129 80 -129 139c0 51 11 80 25 121l36 103c20 57 31 84 31 100c0 4 -1 12 -11 12c-21 0 -71 -66 -87 -92c-6 -10 -10 -17 -15 -17c-7 0 -12 9 -4 23l10 17
c56 95 121 137 153 137c17 0 30 -13 30 -35c0 -29 -12 -59 -30 -109zM144 266c-14 -42 -35 -117 -35 -167c0 -76 36 -88 76 -88c100 0 129 99 129 162c0 91 -48 105 -83 105c-25 0 -62 -6 -87 -12z" />
    <glyph glyph-name="afii10095" unicode="&#x44d;" horiz-adv-x="414" 
d="M231 522c120 0 158 -109 158 -204c0 -165 -116 -339 -277 -339c-92 0 -142 55 -142 101c0 30 23 57 38 57c21 0 23 -28 25 -41c5 -44 17 -90 77 -90c123 0 195 183 195 232c0 10 -2 12 -6 12c-5 0 -10 -4 -22 -14s-25 -21 -45 -21c-22 0 -44 15 -64 27
c-23 13 -34 17 -43 17c-12 0 -19 -5 -27 -11c-9 -7 -14 -10 -18 -10c-3 0 -7 2 -8 5s-1 6 0 9c2 8 6 12 12 17c21 19 57 43 84 43c21 0 41 -14 55 -23c20 -14 38 -24 53 -24c40 0 40 52 40 67c0 21 -1 157 -103 157c-30 0 -73 -13 -110 -71c-5 -7 -11 -17 -20 -17
c-12 0 -14 19 -2 36l13 18c30 42 81 67 137 67z" />
    <glyph glyph-name="afii10096" unicode="&#x44e;" horiz-adv-x="703" 
d="M31 16l84 298c10 37 24 86 24 120c0 15 -2 25 -14 25c-17 0 -54 -52 -65 -69l-19 -30c-3 -4 -5 -12 -13 -12c-6 0 -14 3 -1 28l6 11c46 84 103 135 139 135c16 0 37 -11 37 -55c0 -48 -14 -101 -26 -147l-7 -26c-1 -4 -3 -13 6 -13h89c30 144 150 241 249 241
c90 0 158 -97 158 -224c0 -171 -145 -319 -258 -319c-112 0 -159 124 -159 222c0 18 2 35 5 53h-94c-8 0 -8 -3 -10 -9l-63 -223c-3 -9 -6 -22 -19 -22h-44c-5 0 -9 1 -5 16zM519 495c-111 0 -193 -184 -193 -338c0 -59 12 -151 90 -151c128 0 197 227 197 352
c0 116 -55 137 -94 137z" />
    <glyph glyph-name="afii10097" unicode="&#x44f;" horiz-adv-x="458" 
d="M253 105l38 135c-106 4 -126 -55 -163 -124c-36 -66 -64 -137 -134 -137c-18 0 -58 9 -58 30c0 4 1 14 12 14c4 0 6 -1 13 -2h5c25 2 36 20 66 73c42 73 61 125 160 147l-1 5c-54 3 -114 35 -114 118c0 66 33 158 207 158c116 0 130 -17 130 -53c0 -31 -14 -79 -17 -90
l-55 -195c-16 -56 -32 -109 -32 -124c0 -6 3 -13 11 -13c21 0 65 55 76 71l23 33c2 4 5 8 10 8c2 0 8 -1 8 -11c0 -6 -7 -19 -9 -23l-17 -26c-29 -44 -89 -120 -139 -120c-34 0 -36 29 -36 43c0 32 10 60 16 83zM305 291l31 112c9 33 10 48 10 58c0 17 -6 34 -66 34
c-86 0 -129 -71 -129 -138c0 -93 79 -94 97 -94h33c19 0 20 15 24 28z" />
    <glyph glyph-name="Euro" unicode="&#x20ac;" horiz-adv-x="524" 
d="M539 583h-18c8 70 -38 103 -110 103c-123 0 -191 -101 -243 -265h281l-21 -33h-269c-3 -10 -7 -24 -9 -33c-2 -10 -6 -27 -8 -36h243l-20 -33h-229c-31 -174 8 -271 117 -271c62 0 129 27 158 106h18l-23 -76c-33 -36 -85 -65 -173 -65c-144 0 -196 104 -161 306h-66
l20 33h50c2 9 6 27 8 37c2 8 6 22 9 32h-63l20 33h53c63 193 147 301 306 301c94 0 129 -33 143 -61z" />
    </font>
</defs>
</svg>
