<?xml version="1.0" standalone="no"?>
<!DOCTYPE svg PUBLIC "-//W3C//DTD SVG 1.1//EN" "http://www.w3.org/Graphics/SVG/1.1/DTD/svg11.dtd" >
<svg xmlns="http://www.w3.org/2000/svg" xmlns:xlink="http://www.w3.org/1999/xlink" version="1.1">
<metadata>
Created by FontForge 20190801 at Fri May 14 16:58:03 2004
 By Jimmy Wärting
Copyright (c) 1990-1996 ParaGraph. All Rights Reserved. ITC Garamond is a registered trade mark of International Typeface Corporation.
</metadata>
<defs>
<font id="GaramondNarrowC" horiz-adv-x="488" >
  <font-face 
    font-family="GaramondNarrowC"
    font-weight="400"
    font-stretch="semi-condensed"
    units-per-em="1000"
    panose-1="0 0 5 6 0 0 0 0 0 0"
    ascent="720"
    descent="-280"
    x-height="501"
    cap-height="700"
    bbox="-457 -280 913 891"
    underline-thickness="50"
    underline-position="-100"
    stemh="27"
    stemv="67"
    unicode-range="U+0020-2122"
  />
<missing-glyph horiz-adv-x="233" 
 />
    <glyph glyph-name=".notdef" horiz-adv-x="233" 
 />
    <glyph glyph-name="space" unicode=" " horiz-adv-x="233" 
 />
    <glyph glyph-name="space" unicode="&#xa0;" horiz-adv-x="233" 
 />
    <glyph glyph-name="exclam" unicode="!" horiz-adv-x="212" 
d="M107 721c15 0 42 -10 42 -74c0 -26 -2 -51 -5 -77c-7 -66 -23 -274 -23 -328c0 -15 1 -39 -14 -39s-14 24 -14 39c0 54 -16 262 -23 328c-3 26 -5 51 -5 77c0 64 27 74 42 74zM107 94c20 0 45 -18 45 -54c0 -34 -19 -61 -46 -61c-22 0 -46 18 -46 57c0 34 21 58 47 58z
" />
    <glyph glyph-name="quotedbl" unicode="&#x22;" horiz-adv-x="288" 
d="M53 448l-18 170c-1 12 -3 25 -3 37c0 53 21 66 36 66s36 -14 36 -65c0 -13 -2 -25 -3 -38l-18 -170c-1 -10 -3 -21 -15 -21s-14 11 -15 21zM205 448l-18 170c-1 12 -3 24 -3 36c0 57 23 67 36 67s36 -10 36 -67c0 -12 -2 -24 -3 -36l-18 -170c-1 -10 -3 -21 -15 -21
s-14 11 -15 21z" />
    <glyph glyph-name="numbersign" unicode="#" horiz-adv-x="514" 
d="M256 249h-32l43 122h-91l-43 -122h-32l43 122h-108l19 55h108l32 90h-108l20 55h108l45 129h32l-45 -129h91l45 129h32l-45 -129h108l-19 -55h-108l-32 -90h108l-20 -55h-108zM195 426h92l32 90h-92z" />
    <glyph glyph-name="dollar" unicode="$" horiz-adv-x="380" 
d="M188 763h25l-6 -56h8c13 0 25 -1 38 -3l7 59h25l-7 -63c14 -3 36 -11 45 -18c9 -6 11 -13 11 -57v-41c0 -10 2 -22 -9 -22c-9 0 -11 10 -12 15l-5 24c-7 34 -15 51 -35 64l-26 -225c60 -38 97 -89 97 -169c0 -87 -50 -163 -139 -181l-11 -90h-25l10 86
c-4 -1 -9 -1 -13 -1c-11 0 -22 0 -33 2l-11 -87h-25l11 93c-14 4 -52 20 -63 33c-10 12 -10 29 -8 72l3 53c0 9 0 19 13 19c4 0 9 -1 11 -16l2 -19c7 -65 21 -90 46 -109l33 279c-64 36 -91 89 -91 148c0 72 47 141 127 152zM204 684l-25 -207c14 -8 29 -16 44 -24l26 225
c-13 4 -25 6 -38 6h-7zM169 391l-33 -279c10 -3 21 -5 31 -6h14l32 259c-14 9 -29 18 -44 26zM156 493l22 187c-37 -5 -74 -36 -74 -93c0 -49 28 -77 52 -94zM236 348l-28 -237c48 15 83 60 83 118c0 29 -4 79 -55 119z" />
    <glyph glyph-name="percent" unicode="%" horiz-adv-x="615" 
d="M165 370c-78 0 -137 72 -137 164c0 94 60 165 137 165c90 0 135 -91 135 -165c0 -73 -45 -164 -135 -164zM163 392c38 0 91 33 91 143c0 102 -48 142 -91 142c-41 0 -89 -39 -89 -142c0 -104 48 -143 89 -143zM522 703h28l-453 -713h-31zM450 0c-92 0 -136 92 -136 164
c0 73 45 165 136 165c77 0 137 -71 137 -165c0 -93 -59 -164 -137 -164zM449 22c36 0 92 33 92 143c0 86 -39 142 -92 142c-48 0 -89 -50 -89 -142c0 -87 37 -143 89 -143z" />
    <glyph glyph-name="ampersand" unicode="&#x26;" horiz-adv-x="702" 
d="M296 408l145 -193c65 108 74 134 74 149c0 8 -4 21 -20 22l-19 1c-14 1 -32 -3 -32 17c0 14 9 15 14 15c38 0 74 -3 111 -3c25 0 50 2 74 3h9c7 -1 14 -3 14 -15c0 -15 -9 -17 -14 -17l-13 -1c-40 -3 -74 -12 -141 -124l-41 -69l58 -83c13 -19 39 -68 106 -77
c19 -3 31 -1 31 -19c0 -15 -14 -14 -19 -14c-31 0 -58 6 -87 6c-41 0 -84 -6 -125 -6c-17 0 -26 2 -26 18s11 16 17 16h17c16 1 29 0 29 14c0 12 -9 25 -30 55l-17 24c-42 -64 -117 -148 -212 -148c-93 0 -163 77 -163 193c0 118 80 169 181 220c-62 78 -73 126 -73 169
c0 102 79 160 158 160c90 0 151 -70 151 -157c0 -83 -81 -122 -157 -156zM282 431c76 33 109 82 109 140c0 55 -24 127 -97 127c-60 0 -93 -53 -93 -102c0 -34 14 -83 81 -165zM397 146l-168 225c-70 -39 -123 -86 -123 -172c0 -109 68 -162 131 -162c46 0 104 29 160 109z
" />
    <glyph glyph-name="quotesingle" unicode="'" horiz-adv-x="146" 
d="M58 448l-18 164c-2 16 -4 31 -4 46c0 48 22 63 37 63s37 -15 37 -63c0 -15 -2 -30 -4 -46l-18 -164c-1 -10 -3 -21 -15 -21s-14 11 -15 21z" />
    <glyph glyph-name="parenleft" unicode="(" horiz-adv-x="352" 
d="M68 232c0 212 92 393 251 477c4 2 17 7 23 7c3 0 6 -4 6 -10c0 -11 -9 -12 -23 -21c-180 -120 -189 -379 -189 -453s9 -333 189 -453c14 -9 23 -10 23 -21c0 -6 -3 -10 -6 -10c-6 0 -19 5 -23 7c-159 84 -251 265 -251 477z" />
    <glyph glyph-name="parenright" unicode=")" horiz-adv-x="352" 
d="M284 232c0 -212 -92 -393 -251 -477c-4 -2 -17 -7 -23 -7c-3 0 -6 4 -6 10c0 11 9 12 23 21c180 120 189 379 189 453s-9 333 -189 453c-14 9 -23 10 -23 21c0 6 3 10 6 10c6 0 19 -5 23 -7c159 -84 251 -265 251 -477z" />
    <glyph glyph-name="asterisk" unicode="*" horiz-adv-x="240" 
d="M138 599c6 -9 12 -8 23 -9l18 -1c22 -1 51 -5 51 -33c0 -18 -12 -34 -31 -34c-20 0 -32 17 -41 31l-10 15c-6 9 -8 14 -19 15c-4 -10 -1 -14 4 -24l8 -16c5 -10 9 -20 9 -34c0 -18 -11 -32 -30 -32c-18 0 -31 12 -31 32c0 13 5 25 10 34l8 16c5 10 8 14 4 24
c-11 -1 -13 -6 -19 -15l-10 -15c-10 -15 -20 -30 -41 -30c-16 0 -31 11 -31 30c0 29 26 35 51 36l18 1c10 1 16 -1 22 9c-6 10 -12 8 -22 9l-18 1c-47 3 -51 27 -51 40c0 16 19 26 35 26c18 0 28 -16 37 -30l10 -15c9 -14 14 -16 19 -15c3 3 5 7 -4 24l-8 16
c-5 9 -10 21 -10 34c0 19 13 32 31 32s31 -13 31 -32c0 -12 -5 -25 -10 -34l-8 -16c-4 -9 -9 -16 -4 -24c8 -1 13 6 19 15l10 15c10 15 20 30 42 30c15 0 30 -12 30 -26c0 -8 3 -37 -51 -40l-18 -1c-11 -1 -17 0 -23 -9z" />
    <glyph glyph-name="plus" unicode="+" horiz-adv-x="610" 
d="M23 322v55h255v255h55v-255h254v-55h-254v-255h-55v255h-255z" />
    <glyph glyph-name="comma" unicode="," horiz-adv-x="178" 
d="M84 91c27 0 58 -18 58 -97c0 -73 -23 -114 -58 -159c-22 -28 -30 -31 -33 -31c-4 0 -9 4 -9 11s5 13 9 18c52 65 59 107 59 130c0 10 0 29 -17 29c-3 0 -7 -1 -10 -1c-21 0 -47 16 -47 48c0 36 23 52 48 52z" />
    <glyph glyph-name="hyphenminus" horiz-adv-x="318" 
d="M51 296h231l-14 -62h-232z" />
    <glyph glyph-name="period" unicode="." horiz-adv-x="164" 
d="M81 94c26 0 47 -24 47 -58c0 -40 -24 -57 -46 -57c-27 0 -46 27 -46 61c0 30 18 54 45 54z" />
    <glyph glyph-name="slash" unicode="/" horiz-adv-x="380" 
d="M58 -253l-34 18l322 953l34 -18z" />
    <glyph glyph-name="zero" unicode="0" 
d="M242 721c110 0 211 -145 211 -374c0 -234 -98 -368 -207 -368c-110 0 -211 143 -211 371c0 236 98 371 207 371zM242 691c-52 0 -135 -48 -135 -357c0 -136 23 -325 139 -325c52 0 135 47 135 354c0 148 -25 328 -139 328z" />
    <glyph glyph-name="one" unicode="1" 
d="M293 610v-488c0 -61 6 -86 47 -89l24 -2c4 0 15 -2 15 -16s-11 -15 -19 -15c-35 0 -69 7 -103 7c-35 0 -69 -7 -105 -7c-7 0 -18 1 -18 15s11 16 16 16l25 2c40 3 46 28 46 89v474c0 22 -1 38 -16 38c-1 0 -11 0 -31 -11l-21 -12c-9 -5 -17 -11 -24 -11
c-4 0 -12 2 -12 13c0 12 7 16 15 21l11 6c58 32 96 45 117 59l12 8c5 4 9 6 14 6c6 0 8 -4 8 -10v-10v-15c0 -23 -1 -45 -1 -68z" />
    <glyph glyph-name="two" unicode="2" horiz-adv-x="487" 
d="M142 81l188 2c28 0 58 0 66 50l2 13c2 12 3 22 14 22s12 -11 12 -17v-21c0 -20 -1 -41 -1 -62l-1 -53c0 -16 -5 -15 -13 -15c-59 0 -107 4 -156 4c-56 0 -114 -4 -176 -4c-7 0 -18 0 -18 14c0 15 9 25 32 64c39 65 82 121 134 198c68 101 114 172 114 263
c0 102 -60 149 -115 149c-46 0 -90 -31 -122 -94l-11 -22c-4 -8 -10 -12 -15 -12c-3 0 -9 3 -9 12c0 14 9 33 13 41c47 95 121 108 164 108c130 0 175 -107 175 -184c0 -88 -51 -158 -122 -236c-42 -46 -107 -115 -150 -185c-9 -14 -23 -35 -5 -35z" />
    <glyph glyph-name="three" unicode="3" horiz-adv-x="493" 
d="M213 413v-3c20 7 42 11 62 11c104 0 165 -90 165 -201c0 -181 -163 -327 -278 -327c-57 0 -92 33 -92 67c0 27 19 43 41 43c24 0 33 -25 43 -44c7 -14 18 -31 42 -31c67 0 180 94 180 246c0 120 -61 198 -146 198c-55 0 -93 -28 -113 -50c-4 -4 -9 -11 -15 -11
c-4 0 -10 3 -10 12c0 11 19 30 35 44l37 32c69 60 143 109 143 193c0 68 -43 97 -86 97c-33 0 -72 -21 -96 -64l-13 -23c-4 -6 -6 -14 -15 -14c-6 0 -16 7 -5 28l7 13c20 37 59 92 149 92c83 0 128 -59 128 -121c0 -66 -49 -112 -163 -187z" />
    <glyph glyph-name="four" unicode="4" 
d="M321 700h49v-488h91v-41h-91v-249h-72v249h-287v37zM298 212v402c0 2 1 3 0 3c0 0 -1 0 -2 -1l-243 -392c-4 -6 -2 -12 6 -12h239z" />
    <glyph glyph-name="five" unicode="5" 
d="M133 682l256 39c7 1 8 1 6 -8l-15 -70c-2 -8 -4 -9 -10 -10l-216 -32c-11 -2 -13 -2 -17 -16l-22 -87c-5 -19 3 -21 36 -25l64 -8c137 -17 206 -118 206 -226c0 -104 -65 -258 -284 -311c-17 -4 -34 -6 -54 -6c-8 0 -15 2 -15 13c0 12 10 12 17 13l16 2
c112 14 258 104 258 266c0 155 -160 178 -260 183c-36 2 -30 22 -28 31z" />
    <glyph glyph-name="six" unicode="6" 
d="M203 392l-7 -8c-15 -17 -23 -5 -23 5c0 25 51 72 116 72c112 0 173 -114 173 -226c0 -136 -80 -256 -212 -256c-139 0 -224 161 -224 302c0 191 136 436 403 532c7 2 29 10 29 -6c0 -11 -6 -14 -13 -17l-34 -13c-147 -56 -313 -233 -313 -477c0 -200 91 -291 168 -291
c64 0 124 61 124 200c0 161 -73 214 -127 214c-28 0 -46 -15 -60 -31z" />
    <glyph glyph-name="seven" unicode="7" 
d="M179 -43h-32l220 609c9 24 8 20 8 34c0 11 3 17 -33 17h-99c-126 0 -152 -5 -162 -7c-5 -1 -11 -3 -15 -7c-3 -3 -5 -7 -9 -7c-10 0 -8 17 -9 31l-2 51c-1 19 7 22 15 22h22c137 0 169 -11 332 -1l17 1c4 0 11 1 11 -6c0 -3 2 -8 -4 -26z" />
    <glyph glyph-name="eight" unicode="8" 
d="M188 349c-88 37 -127 96 -127 185c0 118 92 187 196 187c108 0 179 -70 179 -168c0 -89 -51 -136 -136 -169c53 -19 151 -72 151 -198c0 -101 -80 -207 -211 -207c-132 0 -203 97 -203 193c0 83 49 127 151 177zM269 395c61 22 108 75 108 151c0 82 -55 145 -129 145
c-47 0 -126 -28 -126 -124c0 -91 48 -136 147 -172zM221 336c-42 -18 -120 -65 -120 -168c0 -73 35 -159 138 -159c79 0 143 60 143 146c0 119 -97 164 -161 181z" />
    <glyph glyph-name="nine" unicode="9" 
d="M285 308l7 8c15 17 23 5 23 -5c0 -25 -51 -72 -116 -72c-112 0 -173 114 -173 226c0 136 80 256 212 256c139 0 224 -161 224 -302c0 -191 -136 -436 -403 -532c-7 -2 -29 -10 -29 6c0 11 6 14 13 17l34 13c147 56 313 233 313 477c0 200 -91 291 -168 291
c-64 0 -124 -61 -124 -200c0 -161 73 -214 127 -214c28 0 46 15 60 31z" />
    <glyph glyph-name="colon" unicode=":" horiz-adv-x="164" 
d="M81 410c26 0 47 -24 47 -58c0 -40 -24 -57 -46 -57c-27 0 -46 27 -46 61c0 37 23 54 45 54zM81 94c26 0 47 -24 47 -58c0 -40 -24 -57 -46 -57c-27 0 -46 27 -46 61c0 37 23 54 45 54z" />
    <glyph glyph-name="semicolon" unicode=";" horiz-adv-x="178" 
d="M81 413c26 0 47 -24 47 -58c0 -40 -24 -57 -46 -57c-27 0 -46 27 -46 61c0 30 18 54 45 54zM84 91c27 0 58 -18 58 -97c0 -73 -23 -114 -58 -159c-22 -28 -30 -31 -33 -31c-4 0 -9 4 -9 11s5 13 9 18c52 65 59 107 59 130c0 8 1 18 -6 24c-3 3 -7 5 -11 5
c-3 0 -7 -1 -10 -1c-21 0 -47 16 -47 48c0 36 23 52 48 52z" />
    <glyph glyph-name="less" unicode="&#x3c;" horiz-adv-x="610" 
d="M43 346l500 316l25 -40l-432 -276l432 -276l-25 -40z" />
    <glyph glyph-name="equal" unicode="=" horiz-adv-x="610" 
d="M23 412v55h564v-55h-564zM23 233v55h564v-55h-564z" />
    <glyph glyph-name="greater" unicode="&#x3e;" horiz-adv-x="610" 
d="M568 346l-500 -316l-25 40l433 276l-433 276l25 40z" />
    <glyph glyph-name="question" unicode="?" horiz-adv-x="321" 
d="M107 249l-10 60c-3 19 -9 37 12 57l75 71c62 59 62 127 62 144c0 57 -37 106 -75 106c-25 0 -41 -21 -50 -36c-9 -14 -20 -41 -36 -41c-12 0 -29 21 -29 65c0 21 9 28 31 36c8 3 24 10 42 10c79 0 160 -63 160 -189c0 -74 -22 -118 -72 -166l-59 -56
c-23 -22 -24 -44 -25 -68c0 -7 -1 -13 0 -20c0 -4 2 -20 -11 -20c-12 0 -13 32 -15 47zM124 94c26 0 47 -24 47 -58c0 -40 -24 -57 -46 -57c-27 0 -46 27 -46 61c0 30 18 54 45 54z" />
    <glyph glyph-name="at" unicode="@" horiz-adv-x="656" 
d="M476 61l10 -38c-48 -25 -100 -37 -152 -37c-197 0 -294 175 -294 350c0 220 138 378 310 378c160 0 266 -142 266 -314c0 -108 -52 -254 -154 -254c-67 0 -90 68 -90 124c0 28 5 55 17 84c-65 -116 -130 -208 -193 -208c-26 0 -58 20 -58 89c0 135 123 312 244 312
c22 0 37 -9 46 -15c4 -3 6 -4 9 3s10 21 26 21h30c5 0 17 -1 12 -16l-3 -10c-5 -16 -7 -25 -10 -34l-51 -186c-7 -24 -14 -53 -14 -80c0 -36 23 -50 43 -50c50 0 112 80 112 220c0 154 -89 274 -232 274c-136 0 -269 -124 -269 -334c0 -185 99 -314 261 -314
c33 0 76 4 134 35zM210 250c0 -20 5 -43 28 -43c54 0 187 231 187 282c0 23 -15 37 -40 37c-89 0 -175 -182 -175 -276z" />
    <glyph glyph-name="A" unicode="A" horiz-adv-x="537" 
d="M301 644l167 -545c19 -61 36 -65 59 -67c14 -2 22 -2 22 -18c0 -8 -2 -14 -17 -14c-30 0 -59 6 -88 6c-34 0 -67 -6 -101 -6c-27 0 -26 10 -26 18c0 6 0 16 17 17h17c13 0 40 -1 40 28c0 14 -2 25 -6 37l-40 134c-8 26 -11 27 -24 27h-143c-21 0 -23 -11 -27 -24
l-36 -134c-2 -7 -5 -24 -5 -31c0 -39 44 -39 60 -40c13 -1 21 -3 21 -17c0 -9 -6 -15 -17 -15c-28 0 -56 6 -83 6c-26 0 -52 -4 -79 -6c-3 0 -7 -1 -10 0c-13 2 -14 12 -14 15c0 10 0 17 28 18c25 1 39 3 59 69l159 517c11 37 16 56 22 78c4 15 5 23 14 23
c13 0 14 -12 17 -26c4 -16 9 -35 14 -50zM320 316l-68 225c-1 5 -2 12 -6 12s-5 -6 -7 -12l-67 -228c-6 -19 2 -21 7 -21h130c7 0 18 1 11 24z" />
    <glyph glyph-name="B" unicode="B" horiz-adv-x="558" 
d="M119 92v515c0 63 -19 71 -55 62c-12 -3 -18 -7 -24 -7c-4 0 -12 2 -12 13c0 14 12 17 19 19c31 9 70 27 205 27c58 0 243 -1 243 -166c0 -117 -76 -151 -128 -159v-4c80 -11 159 -69 159 -194c0 -106 -61 -202 -214 -202c-53 0 -105 7 -157 7c-32 0 -63 -3 -96 -3
c-6 0 -19 1 -19 15c0 9 5 15 18 16c21 1 61 -4 61 61zM191 636v-198c0 -17 -3 -35 32 -35h60c85 0 132 58 132 139c0 76 -38 152 -148 152c-74 0 -76 -26 -76 -58zM191 342v-181c0 -77 -4 -136 96 -136c120 0 159 88 159 171c0 71 -25 176 -174 176h-57
c-26 0 -24 -21 -24 -30z" />
    <glyph glyph-name="C" unicode="C" horiz-adv-x="564" 
d="M530 635l3 -50c1 -19 6 -40 -10 -40c-9 0 -12 8 -16 16l-14 30c-19 41 -51 100 -144 100c-149 0 -233 -141 -233 -333c0 -219 105 -349 232 -349c31 0 59 9 83 28c37 29 58 76 80 135c2 6 4 12 13 12c22 0 11 -47 10 -70l-2 -36c-1 -18 2 -33 -34 -55
c-44 -27 -104 -44 -162 -44c-165 0 -300 148 -300 366c0 182 107 376 316 376c61 0 133 -21 160 -37c13 -8 16 -15 18 -49z" />
    <glyph glyph-name="D" unicode="D" horiz-adv-x="661" 
d="M108 122v481c0 58 -9 67 -50 55c-13 -4 -19 -6 -25 -6c-9 0 -13 6 -13 10c0 14 11 19 23 23c28 10 119 36 225 36c250 0 357 -177 357 -359c0 -183 -112 -362 -334 -362c-50 0 -99 6 -148 6c-32 0 -64 -6 -97 -6c-6 0 -17 1 -17 15c0 13 9 15 16 16c34 3 63 -12 63 91z
M180 603v-428c0 -59 0 -89 12 -109c20 -33 57 -36 81 -36c218 0 272 192 272 330c0 162 -78 331 -277 331c-33 0 -72 -6 -83 -27c-4 -8 -5 -20 -5 -61z" />
    <glyph glyph-name="E" unicode="E" horiz-adv-x="492" 
d="M107 122v456c0 103 -25 88 -63 91c-6 1 -16 2 -16 16c0 13 10 15 18 15c28 0 55 -3 83 -3h170c28 0 89 1 113 2c29 2 33 3 33 -8c0 -8 -1 -17 -1 -31l-1 -47v-47v-12s0 -15 -9 -15c-11 0 -12 10 -17 23l-10 28c-18 51 -34 76 -138 76c-89 0 -90 -5 -90 -40v-193
c0 -16 0 -31 27 -31h78c52 0 63 29 70 55l5 19c3 12 8 15 14 15c5 0 11 -3 11 -17c0 -26 -14 -63 -2 -199c1 -14 4 -35 -12 -35c-12 0 -12 13 -18 45c-14 83 -48 86 -99 86h-56c-9 0 -18 0 -18 -28v-202c0 -80 20 -107 76 -107h58c66 0 105 27 128 116c3 10 5 25 17 25
c9 0 10 -9 10 -15c0 -17 -6 -45 -11 -78c-2 -20 -1 -20 -4 -52c-2 -14 -2 -22 -5 -27c-4 -5 -9 -4 -17 -4l-99 1c-85 1 -144 6 -174 6c-37 0 -73 -6 -110 -6c-7 0 -19 0 -19 15c0 13 9 15 16 16c36 4 62 -12 62 91z" />
    <glyph glyph-name="F" unicode="F" horiz-adv-x="469" 
d="M107 122v456c0 103 -25 88 -63 91c-6 1 -16 2 -16 16c0 13 10 15 18 15c28 0 55 -3 83 -3h170c28 0 89 1 113 2c29 2 33 3 33 -8c0 -8 -1 -17 -1 -31l-1 -47v-47v-12s0 -15 -9 -15c-11 0 -12 10 -17 23l-10 28c-18 51 -34 76 -138 76c-89 0 -90 -5 -90 -40v-193
c0 -16 0 -31 27 -31h78c56 0 64 33 72 65c5 17 7 24 17 24c5 0 11 -3 11 -17c0 -26 -14 -63 -2 -199c1 -14 4 -35 -12 -35c-12 0 -12 13 -18 45c-14 83 -48 86 -99 86h-56c-9 0 -18 0 -18 -28v-221c0 -54 5 -84 46 -88l34 -3c12 -1 15 -4 15 -16c0 -13 -9 -15 -17 -15
c-36 0 -71 6 -107 6c-35 0 -69 -6 -104 -6c-6 0 -17 1 -17 15c0 6 1 15 16 16l26 2c40 3 36 59 36 89z" />
    <glyph glyph-name="G" unicode="G" horiz-adv-x="643" 
d="M560 216v-65c0 -40 2 -49 2 -77c0 -14 -1 -21 -10 -31c-31 -34 -119 -64 -198 -64c-210 0 -318 193 -318 361c0 186 130 381 344 381c62 0 115 -20 142 -33c15 -7 21 -13 22 -29l2 -23c2 -27 3 -47 3 -75c0 -7 1 -22 -13 -22c-12 0 -14 11 -17 19l-8 24
c-32 97 -95 109 -141 109c-171 0 -254 -171 -254 -347c0 -224 132 -335 253 -335c123 0 119 67 119 107v100c0 99 -28 89 -68 90c-11 0 -16 8 -16 16c0 13 9 15 17 15c34 0 67 -6 101 -6c33 0 67 6 100 6c8 0 17 -2 17 -15c0 -15 -9 -16 -15 -16c-35 -3 -64 11 -64 -90z" />
    <glyph glyph-name="H" unicode="H" horiz-adv-x="652" 
d="M106 122v456c0 102 -25 89 -63 91c-4 0 -13 1 -15 9c-1 2 0 5 0 7s-1 4 0 6c1 3 5 9 16 9c33 0 66 -6 98 -6s65 6 98 6c15 0 15 -9 16 -15c0 -2 1 -5 0 -7c-1 -3 -4 -9 -16 -9c-36 -1 -62 10 -62 -91v-178c0 -5 1 -10 8 -10h280c7 0 8 5 8 10v178c0 102 -25 89 -63 91
c-4 0 -13 1 -15 9c-1 2 0 5 0 7s-1 4 0 6c1 3 5 9 16 9c33 0 66 -6 98 -6s65 6 98 6c15 0 15 -9 16 -15c0 -2 1 -5 0 -7c-1 -3 -4 -9 -16 -9c-36 -1 -62 10 -62 -91v-456c0 -102 25 -89 63 -91c4 0 13 -1 15 -9c1 -2 0 -5 0 -7s1 -4 0 -6c-1 -3 -5 -9 -16 -9
c-33 0 -66 6 -98 6s-65 -6 -98 -6c-15 0 -15 9 -16 15c0 2 -1 5 0 7c1 3 4 9 16 9c36 1 62 -10 62 91v227c0 5 -1 10 -8 10h-280c-7 0 -8 -5 -8 -10v-227c0 -102 25 -89 63 -91c4 0 13 -1 15 -9c1 -2 0 -5 0 -7s1 -4 0 -6c-1 -3 -5 -9 -16 -9c-33 0 -66 6 -98 6
s-65 -6 -98 -6c-15 0 -15 9 -16 15c0 2 -1 5 0 7c1 3 4 9 16 9c36 1 62 -10 62 91z" />
    <glyph glyph-name="I" unicode="I" horiz-adv-x="286" 
d="M179 608v-516c0 -65 41 -60 63 -61c7 0 16 -2 16 -16c0 -10 -8 -15 -17 -15c-33 0 -66 6 -98 6s-65 -6 -98 -6c-6 0 -16 1 -16 15s10 16 16 16c21 1 62 -4 62 61v516c0 65 -41 60 -63 61c-5 0 -16 2 -16 16s13 15 17 15c33 0 66 -6 98 -6s65 6 98 6c6 0 16 -1 16 -15
s-10 -16 -16 -16c-21 -1 -62 4 -62 -61z" />
    <glyph glyph-name="J" unicode="J" horiz-adv-x="321" 
d="M215 578v-469c0 -41 -6 -95 -23 -139c-28 -73 -103 -175 -181 -175c-40 0 -67 22 -67 60c0 35 23 49 45 49c24 0 33 -19 42 -36c5 -10 12 -23 28 -23c14 0 30 12 42 27c48 60 42 141 42 266v440c0 102 -33 86 -80 91c-10 1 -15 3 -15 16s9 15 17 15c35 0 71 -6 106 -6
s70 6 105 6c6 0 17 -1 17 -15c0 -13 -9 -15 -16 -16c-36 -4 -62 12 -62 -91z" />
    <glyph glyph-name="K" unicode="K" horiz-adv-x="593" 
d="M179 285v-163c0 -80 12 -89 50 -90c17 -1 28 2 28 -17c0 -13 -9 -15 -17 -15c-32 0 -65 6 -97 6c-33 0 -65 -6 -98 -6c-6 0 -17 1 -17 15c0 13 9 15 16 16c34 3 63 -12 63 91v456c0 102 -29 89 -62 91c-12 1 -17 2 -17 16c0 13 9 15 17 15c33 0 65 -6 98 -6
c32 0 64 6 97 6c6 0 17 -1 17 -15c0 -18 -16 -16 -29 -17c-37 -1 -49 -10 -49 -90v-222c0 -9 6 -9 10 -4l176 222c18 23 44 47 44 70s-23 23 -42 25c-8 1 -16 3 -16 16c0 15 14 15 16 15c34 0 66 -6 99 -6c32 0 64 6 97 6c7 0 17 -1 17 -15s-10 -16 -16 -16
c-96 -6 -127 -54 -179 -118l-98 -121c-4 -5 -8 -10 -8 -14c0 -2 3 -9 5 -12l211 -300c51 -73 68 -71 95 -73c4 0 15 -1 15 -16c0 -13 -9 -15 -17 -15c-32 0 -65 6 -97 6c-41 0 -82 -6 -124 -6c-16 0 -17 11 -17 15c0 2 0 16 16 16c55 1 59 10 59 30c0 17 -6 29 -16 43
l-170 243c-3 4 -5 6 -10 6c-6 0 -7 -2 -10 -6l-33 -42c-6 -8 -7 -11 -7 -20z" />
    <glyph glyph-name="L" unicode="L" horiz-adv-x="446" 
d="M178 578v-431c0 -111 29 -116 84 -116c52 0 130 10 157 117c3 12 6 27 19 27c11 0 12 -10 12 -17c0 -10 -2 -19 -9 -86l-6 -57c-1 -11 -2 -15 -13 -15h-54c-111 0 -165 6 -225 6c-32 0 -64 -6 -98 -6c-9 0 -17 5 -17 15c0 14 9 16 16 16c36 2 62 -11 62 91v456
c0 102 -26 89 -61 91c-12 1 -17 2 -17 16c0 15 13 15 20 15c35 0 68 -6 102 -6s69 6 104 6c7 0 19 0 19 -15c0 -13 -9 -15 -16 -16c-20 -2 -48 2 -65 -19c-13 -16 -14 -44 -14 -72z" />
    <glyph glyph-name="M" unicode="M" horiz-adv-x="745" 
d="M214 682l159 -498c3 -8 5 -12 6 -12s2 4 5 12l170 503c3 10 10 13 24 13c20 0 38 -2 56 -2c19 0 38 2 57 2c8 0 17 -2 17 -15c0 -17 -11 -16 -29 -17c-38 -2 -49 -12 -47 -75l14 -490c2 -60 16 -70 46 -71c16 -1 28 0 28 -17c0 -13 -9 -15 -17 -15c-33 0 -66 6 -99 6
s-65 -6 -98 -6c-7 0 -18 2 -18 15s8 15 16 16c35 3 72 -12 70 91l-10 468c0 9 -2 13 -4 13s-4 -3 -7 -11l-169 -505c-4 -13 -7 -19 -19 -52c-2 -4 -4 -11 -9 -11c-6 0 -9 7 -10 11c-2 7 -5 15 -7 22c-3 10 -7 20 -10 30l-162 502c-1 3 -3 5 -4 5c-2 0 -3 -3 -3 -8l-18 -446
c-5 -122 24 -107 68 -109c9 0 13 -2 14 -4c2 -2 3 -9 3 -12c0 -13 -9 -15 -17 -15c-28 0 -57 6 -85 6c-27 0 -54 -6 -82 -6c-6 0 -18 1 -18 15c0 13 8 15 16 16c34 3 58 -11 64 95l26 471c3 56 -8 70 -33 72c-10 1 -20 0 -30 0c-3 0 -16 1 -16 16c0 14 15 15 20 15
c18 0 26 -2 67 -2c37 0 33 2 61 2c9 0 9 -1 14 -18z" />
    <glyph glyph-name="N" unicode="N" horiz-adv-x="659" 
d="M195 677l322 -515v372c0 52 8 130 -37 133l-28 2c-5 0 -15 2 -15 16c0 15 11 15 20 15c26 0 53 -6 79 -6s52 6 78 6c7 0 17 -1 17 -15c0 -9 -3 -14 -20 -16l-21 -2c-46 -4 -38 -71 -38 -135v-510c0 -12 1 -31 -10 -31s-21 25 -31 40l-367 585l1 -331c0 -25 3 -197 6 -216
c7 -38 40 -37 61 -38c6 0 16 -2 16 -16c0 -13 -9 -15 -17 -15c-28 0 -55 6 -83 6s-56 -6 -84 -6c-15 0 -15 10 -16 15c0 2 -1 5 0 7c1 3 4 9 16 9c38 1 63 -10 63 91l2 456c0 103 -30 87 -64 91c-12 1 -15 4 -15 16c0 9 5 15 17 15h122c13 0 14 -3 26 -23z" />
    <glyph glyph-name="O" unicode="O" horiz-adv-x="693" 
d="M347 -21c-200 0 -311 188 -311 376c0 170 112 366 316 366c196 0 305 -186 305 -371c0 -194 -124 -371 -310 -371zM347 9c138 0 230 147 230 330c0 212 -101 352 -230 352c-114 0 -231 -105 -231 -336c0 -242 124 -346 231 -346z" />
    <glyph glyph-name="P" unicode="P" horiz-adv-x="492" 
d="M107 122v456c0 67 -4 88 -50 91c-15 0 -29 -2 -29 16c0 5 1 15 21 15c32 0 63 -4 95 -4c26 0 52 3 78 5c14 1 29 2 43 2c35 0 215 -2 215 -195c0 -135 -96 -202 -187 -202c-29 0 -58 6 -81 14c-18 6 -21 8 -24 8c-10 0 -9 -13 -9 -24v-182c0 -91 24 -88 79 -91
c4 0 13 -1 15 -9c1 -2 0 -5 0 -7s1 -4 0 -6c-1 -3 -5 -9 -16 -9c-36 0 -71 6 -106 6s-70 -6 -106 -6c-15 0 -15 9 -16 15c0 2 -1 5 0 7c5 14 27 8 41 11c38 8 37 38 37 89zM179 583v-191c0 -22 4 -26 13 -31c18 -9 51 -17 77 -17c67 0 136 50 136 165c0 99 -53 160 -153 160
c-24 0 -55 -1 -67 -23c-4 -8 -6 -19 -6 -63z" />
    <glyph glyph-name="Q" unicode="Q" horiz-adv-x="693" 
d="M404 -15c-16 -3 -28 -3 -28 -22c0 -5 2 -14 4 -21c10 -34 34 -71 76 -99c33 -22 72 -33 119 -33c68 0 19 18 72 18c2 0 7 -1 9 -7c1 -2 1 -5 0 -7c-7 -28 -82 -43 -131 -43c-132 0 -228 101 -228 185c0 17 5 9 5 20c0 6 -11 7 -16 8c-120 19 -250 160 -250 374
c0 169 110 363 313 363c200 0 308 -189 308 -371c0 -205 -123 -338 -253 -365zM352 9c131 0 225 142 225 330c0 211 -100 352 -229 352c-118 0 -232 -105 -232 -336c0 -221 109 -346 236 -346z" />
    <glyph glyph-name="R" unicode="R" horiz-adv-x="531" 
d="M107 122v456c0 98 -24 89 -63 91c-6 0 -16 2 -16 16s10 15 19 15c32 0 64 -6 96 -6c43 0 58 6 131 6c35 0 192 -1 192 -173c0 -117 -91 -154 -153 -164v-4c15 0 30 -8 47 -46l100 -225c20 -45 34 -57 56 -57h12c8 0 15 -6 15 -16c0 -13 -8 -14 -17 -15s-17 0 -26 0h-29
c-11 -1 -21 -2 -32 -2c-31 0 -33 18 -41 37l-103 246c-29 69 -47 64 -84 64c-38 0 -32 -8 -32 -27v-196c0 -43 -1 -86 37 -89l26 -2c12 -1 15 -4 15 -16c0 -14 -11 -15 -17 -15c-33 0 -65 6 -97 6c-33 0 -65 -6 -98 -6c-6 0 -17 1 -17 15c0 6 1 15 16 16l26 2
c37 3 37 47 37 89zM179 607v-206c0 -23 5 -26 32 -26h33c33 0 142 6 142 146c0 29 -3 149 -142 149c-53 0 -65 -7 -65 -63z" />
    <glyph glyph-name="S" unicode="S" horiz-adv-x="420" 
d="M356 666l1 -91c0 -16 1 -27 -11 -27c-9 0 -12 8 -14 18c-12 51 -29 125 -120 125c-64 0 -111 -43 -111 -109c0 -90 62 -121 123 -155c65 -36 164 -91 164 -226c0 -107 -62 -222 -207 -222c-41 0 -72 8 -108 27c-40 21 -41 36 -41 53v51c0 66 -1 90 15 90s15 -18 17 -37
c5 -51 20 -154 125 -154c63 0 136 44 136 152c0 99 -69 140 -139 181c-82 48 -143 91 -143 196c0 90 57 183 182 183c40 0 93 -14 119 -30c7 -5 12 -8 12 -25z" />
    <glyph glyph-name="T" unicode="T" horiz-adv-x="519" 
d="M98 700h361c21 0 23 8 26 20s6 25 16 25c15 0 14 -21 14 -36l-3 -93c-1 -46 2 -71 -17 -71c-11 0 -12 10 -14 20l-5 21c-8 34 -18 81 -66 81h-91c-19 0 -21 -6 -21 -21v-524c0 -48 1 -86 40 -89l29 -2c12 -1 15 -5 15 -16c0 -13 -9 -15 -17 -15c-34 0 -68 6 -102 6
c-35 0 -69 -6 -104 -6c-8 0 -17 2 -17 15c0 11 3 15 15 16l30 2c37 2 39 41 39 89v524c0 18 -2 21 -47 21c-58 0 -99 2 -141 -89c-6 -14 -11 -35 -26 -35c-5 0 -12 5 -12 15c0 3 1 10 6 32l32 134c2 9 6 22 19 22s12 -12 13 -26c2 -20 16 -20 28 -20z" />
    <glyph glyph-name="U" unicode="U" horiz-adv-x="624" 
d="M171 578v-371c0 -187 92 -198 149 -198c44 0 176 4 176 198v371c0 102 -32 89 -69 91c-7 0 -16 2 -16 16c0 10 8 15 17 15c27 0 53 -6 79 -6s52 6 78 6c9 0 19 -1 19 -15s-10 -16 -16 -16c-34 -1 -60 10 -60 -91v-371c0 -49 -1 -228 -220 -228c-202 0 -209 138 -209 228
v371c0 45 1 85 -42 89l-22 2c-12 1 -15 4 -15 16c0 13 9 15 17 15c33 0 66 -6 98 -6s63 6 97 6c9 0 17 -5 17 -15c0 -14 -9 -16 -16 -16c-36 -2 -62 11 -62 -91z" />
    <glyph glyph-name="V" unicode="V" horiz-adv-x="580" 
d="M150 606l154 -446c4 -11 6 -24 12 -24c7 0 8 17 11 25l123 375c18 54 22 71 22 92c0 18 -5 38 -53 40c-17 1 -27 1 -27 17c0 13 9 15 17 15c27 0 55 -4 82 -4c26 0 52 3 78 4h9c12 -1 14 -8 14 -15c0 -12 -8 -17 -14 -17l-13 -1c-30 -2 -36 13 -90 -153l-149 -461
c-4 -11 -8 -22 -11 -33c-3 -9 -5 -18 -8 -28c-2 -6 -4 -13 -12 -13c-9 0 -10 7 -12 13c-4 15 -12 42 -18 60l-178 508c-26 73 -39 103 -69 107l-16 2c-9 1 -14 8 -14 17c0 14 10 14 18 14c29 0 58 -6 87 -6c34 0 69 6 102 6c18 0 25 -2 25 -18c0 -18 -12 -17 -20 -17h-19
c-37 0 -38 -24 -38 -32c0 -2 1 -9 7 -27z" />
    <glyph glyph-name="W" unicode="W" horiz-adv-x="856" 
d="M149 608l180 -466c3 -9 6 -14 8 -14s5 5 8 14l73 195l-96 257c-15 41 -29 66 -69 72c-8 1 -19 3 -19 18c0 16 13 16 19 16c27 0 54 -5 81 -5c28 0 56 5 84 5c13 0 26 -3 26 -18c0 -16 -10 -17 -25 -18c-17 0 -35 0 -35 -24c0 -6 6 -25 9 -32l60 -157c3 -9 5 -13 7 -13
s3 5 6 13l53 135c11 29 15 43 15 55c0 19 -11 23 -29 24l-23 1c-13 1 -13 15 -13 17c0 17 11 17 20 17c28 0 55 -3 83 -3c18 0 36 2 54 3h9c6 0 13 -2 14 -10v-7c0 -6 -1 -17 -14 -18l-12 -1c-27 -2 -34 12 -88 -122l-60 -149l94 -251c3 -9 6 -14 8 -14s4 5 7 14l136 389
c31 90 33 107 33 113c0 23 -27 21 -41 21s-25 3 -25 18c0 14 7 17 17 17c23 0 47 -3 70 -3s47 2 70 3h9c14 -2 15 -13 15 -17c0 -14 -10 -16 -15 -17l-21 -3c-33 -5 -50 -45 -83 -141l-177 -518c-5 -14 -8 -25 -17 -25c-10 0 -11 13 -16 26l-97 275c-3 7 -5 12 -7 12
s-3 -6 -7 -18l-96 -257c-4 -12 -12 -38 -21 -38s-16 30 -19 37l-215 568c-17 44 -24 69 -60 79c-16 5 -29 2 -29 21c0 16 15 15 20 15c28 0 54 -5 81 -5c28 0 56 6 84 6c15 0 26 -2 26 -18c0 -20 -19 -17 -34 -18c-24 -1 -25 -13 -25 -21c0 -5 2 -16 9 -35z" />
    <glyph glyph-name="X" unicode="X" horiz-adv-x="601" 
d="M214 591l96 -161c3 -6 10 -5 13 0l82 148c19 34 30 50 30 67c0 29 -34 22 -49 23c-10 0 -23 3 -23 17c0 10 4 14 12 15h5c34 -1 69 -3 103 -3c29 0 57 3 88 3c6 0 18 0 18 -15c0 -12 -5 -17 -27 -18c-41 -2 -76 -14 -141 -124l-88 -148l178 -302c33 -57 39 -58 63 -61
c12 -1 23 -3 23 -18c0 -14 -12 -14 -19 -14c-29 0 -58 6 -87 6c-33 0 -67 -6 -100 -6c-10 0 -27 1 -27 18c0 14 10 16 15 17c6 1 11 0 16 0c16 -1 41 0 41 21c0 15 -10 31 -23 53l-118 198c-5 9 -7 9 -12 0l-115 -198c-8 -14 -17 -33 -17 -49c0 -20 16 -28 40 -28
c34 0 41 0 41 -17c0 -14 -12 -15 -17 -15c-36 0 -70 4 -105 4c-25 0 -50 -2 -75 -4h-9c-13 1 -15 11 -15 15c0 17 13 17 28 18c37 2 50 7 102 95l130 219l-142 231c-35 57 -49 86 -86 91c-22 3 -39 -5 -39 17c0 14 11 14 16 14c31 0 60 -5 89 -5c45 0 90 5 137 5
c21 0 22 -10 22 -17s-1 -17 -17 -18h-12h-15c-8 0 -33 -1 -33 -21c0 -7 3 -19 23 -53z" />
    <glyph glyph-name="Y" unicode="Y" horiz-adv-x="580" 
d="M168 617l135 -248c5 -9 8 -15 10 -15s4 6 9 15l95 179c25 47 43 71 43 91c0 24 -19 27 -31 28l-29 2c-6 0 -16 2 -16 16c0 3 0 15 18 15c33 0 65 -6 97 -6c25 0 50 6 76 6c5 0 17 -1 17 -15s-10 -15 -16 -16l-22 -2c-36 -3 -61 -48 -94 -107l-132 -237
c-7 -13 -7 -26 -7 -39v-162c0 -42 0 -86 37 -89l26 -2c6 0 16 -2 16 -16c0 -13 -9 -15 -17 -15c-33 0 -66 6 -98 6s-63 -6 -97 -6c-9 0 -17 5 -17 15c0 14 9 15 16 16l25 2c38 3 37 46 37 89v170c0 15 2 17 -9 37l-156 288c-28 52 -45 46 -68 50l-18 3c-7 1 -10 8 -10 15
c0 14 10 15 19 15c35 0 70 -6 105 -6c36 0 72 6 108 6c9 0 19 -1 19 -15c0 -9 -5 -15 -15 -16l-25 -2c-30 -2 -39 -4 -39 -20c0 -11 3 -21 8 -30z" />
    <glyph glyph-name="Z" unicode="Z" horiz-adv-x="537" 
d="M394 670h-126c-88 0 -137 -1 -171 -83c-7 -15 -12 -32 -24 -32c-4 0 -10 3 -10 13c0 6 3 13 8 38c19 87 23 112 25 122c3 17 7 23 16 23c12 0 14 -8 15 -14c3 -20 3 -37 45 -37h303c25 0 29 0 29 -10c0 -9 -3 -13 -7 -19l-365 -616c-6 -11 -13 -22 10 -22h138
c54 0 128 -7 167 31c28 27 33 71 36 110c1 14 4 18 12 18c7 0 14 -1 14 -23v-143c0 -26 -7 -26 -18 -26h-31c-61 0 -122 3 -183 3c-79 0 -158 -3 -237 -3h-7c-7 0 -16 7 -5 26l372 630c4 7 4 10 4 13c0 2 -5 1 -10 1z" />
    <glyph glyph-name="bracketleft" unicode="[" horiz-adv-x="243" 
d="M68 -181v829c0 70 5 73 28 73h126c10 0 17 -3 17 -16c0 -12 -6 -16 -14 -17c-6 -1 -11 0 -17 0c-11 1 -23 1 -34 1c-36 0 -44 -8 -44 -46v-819c0 -38 8 -46 44 -46c11 0 23 0 34 1c6 0 11 1 17 0c8 -1 14 -5 14 -17c0 -13 -7 -16 -17 -16h-126c-23 0 -28 3 -28 73z" />
    <glyph glyph-name="backslash" unicode="\" horiz-adv-x="380" 
d="M346 -253l-322 953l34 18l322 -953z" />
    <glyph glyph-name="bracketright" unicode="]" horiz-adv-x="243" 
d="M175 648v-829c0 -70 -5 -73 -28 -73h-126c-10 0 -17 3 -17 16c0 12 6 16 14 17c6 1 12 0 18 0c11 -1 22 -1 33 -1c36 0 44 6 44 46v819c0 40 -8 46 -44 46c-11 0 -22 0 -33 -1c-6 0 -12 -1 -18 0c-8 1 -14 5 -14 17c0 13 7 16 17 16h126c23 0 28 -3 28 -73z" />
    <glyph glyph-name="asciicircum" unicode="^" horiz-adv-x="390" 
d="M195 631l-118 -198h-53l171 288l171 -288h-53z" />
    <glyph glyph-name="underscore" unicode="_" horiz-adv-x="463" 
d="M4 -249v47h455v-47h-455z" />
    <glyph glyph-name="grave" unicode="`" horiz-adv-x="218" 
d="M179 593l-150 66c-14 6 -29 16 -29 39c0 21 17 30 31 30c10 0 18 -4 25 -10l132 -101c13 -10 30 -19 30 -28c0 -8 -6 -8 -8 -8c-7 0 -15 5 -31 12z" />
    <glyph glyph-name="a" unicode="a" horiz-adv-x="426" 
d="M337 421l-6 -299c-1 -38 -4 -90 26 -90c10 0 23 8 29 16c4 5 8 11 14 11c4 0 8 -3 8 -10c0 -6 -6 -14 -16 -26c-30 -36 -53 -44 -68 -44c-46 0 -54 52 -60 78c-1 2 -2 7 -5 7c-2 0 -4 -2 -11 -9c-58 -62 -101 -76 -130 -76c-43 0 -75 32 -75 87c0 66 49 112 200 187
c21 10 23 15 23 26l2 119c1 78 -10 96 -52 96c-75 0 -91 -58 -104 -99c-6 -18 -20 -47 -62 -47c-5 0 -14 1 -14 16c0 43 36 81 50 95c42 42 91 63 148 63c103 0 104 -73 103 -101zM264 150l1 69c0 7 2 14 -5 14c-2 0 -5 0 -19 -6c-30 -13 -121 -59 -121 -130
c0 -56 38 -61 50 -61c33 0 93 38 94 114z" />
    <glyph glyph-name="b" unicode="b" horiz-adv-x="496" 
d="M68 103v509c0 33 -3 54 -22 54h-13c-12 0 -17 6 -17 12c0 10 11 13 16 15c18 5 41 12 68 29c19 12 22 17 28 17s7 -5 7 -9c1 -11 0 -17 0 -43v-218c0 -5 -1 -11 2 -15c3 -5 10 0 12 2l15 13c35 31 64 53 115 53c106 0 189 -104 189 -259c0 -193 -127 -284 -231 -284
c-56 0 -90 28 -119 49c-6 4 -9 6 -15 0c-5 -5 -8 -13 -15 -34c-5 -13 -7 -21 -16 -21c-17 0 -12 18 -10 41c4 41 6 67 6 89zM135 372v-259c0 -13 0 -104 94 -104c80 0 167 75 167 245c0 164 -88 214 -151 214c-42 0 -73 -24 -78 -27c-35 -26 -32 -43 -32 -69z" />
    <glyph glyph-name="c" unicode="c" horiz-adv-x="426" 
d="M395 452l-4 -56c-1 -13 -3 -27 -13 -27c-14 0 -21 19 -28 34c-19 39 -43 89 -99 89c-61 0 -151 -74 -151 -237c0 -152 88 -229 174 -229c59 0 87 34 105 53c4 4 8 8 13 8c3 0 8 -1 8 -8c0 -2 0 -8 -10 -22c-16 -24 -66 -78 -150 -78c-136 0 -212 120 -212 251
c0 186 122 292 237 292c49 0 100 -20 121 -42c7 -8 10 -14 9 -28z" />
    <glyph glyph-name="d" unicode="d" horiz-adv-x="504" 
d="M434 698v-613c0 -16 -3 -45 13 -45c6 0 11 6 14 10l17 22c9 11 15 5 14 -7l-1 -24c0 -7 -6 -10 -11 -12c-33 -15 -49 -22 -89 -43c-19 -10 -19 6 -20 14l-4 44c0 5 1 8 -4 12c-5 3 -9 -1 -12 -5c-55 -61 -103 -72 -132 -72c-107 0 -191 107 -191 269
c0 182 114 274 223 274c51 0 78 -15 106 -29c4 -2 7 -3 9 -3s1 4 1 9v113c0 29 2 52 -21 54h-13c-14 0 -17 8 -17 12c0 10 9 13 15 15c20 6 26 4 67 29c20 12 23 17 28 17c13 0 8 -20 8 -41zM367 118v257c0 33 -5 117 -112 117c-117 0 -155 -141 -155 -232
c0 -164 84 -227 158 -227c56 0 109 41 109 85z" />
    <glyph glyph-name="e" unicode="e" horiz-adv-x="430" 
d="M390 341h-260c-23 0 -30 -10 -30 -85c0 -88 43 -220 165 -220c52 0 85 23 105 48c8 10 16 21 24 21c4 0 9 -2 9 -9c0 -9 -11 -27 -17 -35c-45 -63 -104 -82 -155 -82c-146 0 -203 148 -203 270c0 151 81 273 213 273c95 0 165 -72 165 -163c0 -8 -1 -18 -16 -18zM135 368
h94c49 0 101 2 101 52c0 32 -33 72 -90 72c-39 0 -75 -19 -104 -62c-12 -18 -18 -32 -18 -46c0 -16 9 -16 17 -16z" />
    <glyph glyph-name="f" unicode="f" horiz-adv-x="285" 
d="M156 440v-350c0 -30 4 -56 48 -60c18 -2 33 1 33 -15c0 -15 -14 -15 -25 -15c-27 0 -54 4 -81 4s-55 -4 -82 -4c-10 0 -25 0 -25 15c0 14 13 14 22 14c32 1 43 13 43 64v332c0 21 1 38 -17 38h-21c-7 0 -14 0 -14 12c0 14 9 15 19 17c36 7 35 33 35 50
c2 150 114 197 176 197c42 0 70 -22 70 -49c0 -22 -19 -60 -31 -60c-10 0 -17 18 -23 28c-12 21 -28 45 -56 45c-57 0 -71 -68 -71 -146c0 -47 -1 -56 16 -56h92c8 0 7 -2 8 -8l2 -19c1 -9 -3 -11 -10 -11h-91c-18 0 -17 -11 -17 -23z" />
    <glyph glyph-name="g" unicode="g" horiz-adv-x="449" 
d="M335 480l83 3c9 0 12 -8 13 -15l4 -19c1 -6 3 -14 -10 -14l-61 2l-1 -4c16 -32 20 -61 20 -95c0 -101 -60 -173 -163 -183c-56 -5 -106 -28 -106 -44c0 -7 12 -17 21 -23c14 -9 26 -12 40 -12c36 0 51 6 112 6c109 0 150 -62 150 -128c0 -114 -103 -208 -254 -208
c-136 0 -171 83 -171 130c0 43 26 69 55 90c12 9 48 30 48 42c0 8 -14 21 -40 46c-31 31 -31 44 -31 49c0 11 14 15 37 27c26 13 52 29 65 37c-52 24 -105 74 -105 172c0 85 55 183 174 183c50 0 82 -16 120 -42zM215 492c-43 0 -102 -50 -102 -159c0 -90 47 -148 100 -148
c50 0 98 48 98 148c0 110 -54 159 -96 159zM263 7l-54 -2c-123 -5 -130 -85 -130 -115c0 -59 48 -114 132 -114c94 0 166 64 166 135c0 46 -28 99 -114 96z" />
    <glyph glyph-name="h" unicode="h" horiz-adv-x="522" 
d="M152 725v-282c0 -5 -1 -12 2 -12c5 0 7 1 9 4c41 52 80 87 139 87c32 0 143 -13 143 -195v-234c0 -51 11 -63 43 -64c9 0 22 0 22 -14c0 -15 -15 -15 -25 -15c-25 0 -49 4 -74 4c-24 0 -49 -4 -73 -4c-10 0 -25 0 -25 15c0 14 13 14 22 14c26 1 43 7 43 64v220
c0 34 2 158 -106 158c-65 0 -120 -65 -120 -118v-260c0 -57 17 -63 43 -64c9 0 22 0 22 -14c0 -15 -15 -15 -25 -15c-24 0 -49 4 -73 4c-25 0 -49 -4 -74 -4c-10 0 -25 0 -25 15c0 14 13 14 22 14c32 1 43 13 43 64v485c0 53 -18 54 -39 54h-9c-4 0 -12 1 -12 10
c0 8 6 10 14 14c64 31 76 56 93 76c3 4 7 7 12 7c7 0 8 -6 8 -14z" />
    <glyph glyph-name="i" unicode="i" horiz-adv-x="236" 
d="M158 481v-388c0 -52 11 -63 43 -64c10 0 21 1 21 -14c0 -14 -13 -15 -24 -15c-24 0 -49 4 -73 4c-25 0 -49 -4 -74 -4c-15 0 -25 1 -25 15c0 11 7 13 12 13l12 1c25 2 41 6 41 64v270c0 53 -15 54 -39 54h-9c-7 0 -11 5 -11 10c0 8 6 11 12 14c49 24 72 47 94 76
c3 5 6 7 12 7c10 0 8 -8 8 -43zM77 653c0 27 13 57 45 57s45 -30 45 -57s-13 -57 -45 -57s-45 30 -45 57z" />
    <glyph glyph-name="j" unicode="j" horiz-adv-x="228" 
d="M155 471v-448c0 -146 -26 -179 -94 -247c-6 -6 -27 -30 -39 -30c-9 0 -10 5 -10 10c0 12 22 26 46 77c28 59 30 127 30 185v345c0 47 -10 55 -39 54h-9c-6 0 -10 2 -10 10c0 9 5 11 11 14c52 24 80 61 92 76c3 4 5 7 11 7c15 0 11 -25 11 -53zM74 653c0 27 13 57 45 57
s45 -30 45 -57s-13 -57 -45 -57s-45 30 -45 57z" />
    <glyph glyph-name="k" unicode="k" horiz-adv-x="484" 
d="M152 696v-419c0 -5 0 -9 2 -9s4 0 7 3l102 97c12 12 67 64 67 81c0 25 -29 22 -43 23s-15 7 -15 14c0 10 2 15 24 15c28 0 57 -4 85 -4c21 0 41 4 62 4c10 0 25 0 25 -15s-13 -13 -22 -14c-19 -1 -57 -11 -124 -81l-62 -64c-7 -8 -5 -12 -2 -17l142 -227
c36 -57 44 -53 64 -54c7 -1 16 -2 16 -14c0 -15 -15 -15 -25 -15c-25 0 -49 4 -74 4c-27 0 -54 -4 -81 -4c-22 0 -24 5 -24 15c0 11 3 14 21 14c31 1 40 19 23 46l-112 180c-10 16 -14 9 -20 4l-29 -28c-3 -3 -7 -8 -7 -15v-122c0 -34 6 -64 44 -65c7 0 21 1 21 -12
c0 -15 -12 -17 -25 -17c-24 0 -49 4 -74 4c-24 0 -48 -4 -72 -4c-15 0 -26 2 -26 17c0 12 14 12 21 12c45 2 44 39 44 65v518c0 33 0 52 -21 54h-13s-17 0 -17 12c0 10 10 13 15 15c19 6 35 8 68 29c19 12 22 17 28 17c12 0 7 -26 7 -43z" />
    <glyph glyph-name="l" unicode="l" horiz-adv-x="235" 
d="M151 696v-602c0 -25 -1 -64 44 -65c8 0 17 0 20 -12c0 -2 1 -5 0 -7c-3 -9 -13 -10 -25 -10c-25 0 -49 4 -74 4c-24 0 -47 -4 -71 -4c-12 0 -22 1 -25 10c-1 2 0 5 0 7c3 12 12 12 20 12c45 1 44 40 44 65v518c0 33 0 52 -21 54h-13s-17 0 -17 12c0 10 10 13 15 15
c19 6 35 8 68 29c19 12 22 17 28 17c12 0 7 -26 7 -43z" />
    <glyph glyph-name="m" unicode="m" horiz-adv-x="773" 
d="M91 93v270c0 51 -14 54 -39 54h-9c-10 0 -11 7 -11 10c0 9 5 11 11 14c27 12 63 37 77 54l18 22c3 3 5 7 11 7c8 0 7 -9 7 -17v-64c0 -4 0 -10 5 -10s9 8 38 35c40 37 66 54 105 54c78 0 109 -63 120 -100c57 80 106 100 143 100c44 0 129 -19 129 -180v-249
c0 -15 0 -59 27 -62l16 -2c9 -1 22 1 22 -14s-15 -15 -25 -15c-24 0 -49 4 -73 4c-25 0 -49 -4 -74 -4c-10 0 -25 0 -25 15s13 13 22 14l16 2c25 3 27 39 27 62v249c0 101 -53 127 -95 127c-59 0 -107 -60 -107 -135v-241c0 -23 2 -59 27 -62l16 -2c11 -1 21 1 21 -14
c0 -10 -2 -15 -24 -15c-24 0 -49 4 -73 4c-25 0 -50 -4 -74 -4c-22 0 -24 5 -24 15c0 15 10 13 21 14l16 2c25 3 27 39 27 62v233c0 48 0 143 -86 143c-76 0 -116 -70 -116 -121v-255c0 -64 20 -62 43 -64l12 -1l5 -2c2 -1 5 -8 5 -11c0 -15 -15 -15 -25 -15
c-25 0 -49 4 -74 4c-24 0 -49 -4 -73 -4c-11 0 -25 0 -25 15c0 6 4 12 10 13l12 1l16 2c27 3 27 47 27 62z" />
    <glyph glyph-name="n" unicode="n" horiz-adv-x="528" 
d="M91 93v270c0 56 -18 54 -39 54h-9c-7 0 -11 4 -11 10c0 8 8 12 12 14c29 14 62 34 94 76c3 4 5 7 11 7s8 -3 8 -7c0 -6 -1 -10 -1 -36v-38c0 -9 0 -14 6 -14s10 10 35 37c18 19 52 56 109 56c38 0 145 -13 145 -195v-234c0 -23 2 -59 27 -62l16 -2c9 -1 22 1 22 -14
s-15 -15 -25 -15c-25 0 -49 4 -74 4c-24 0 -49 -4 -73 -4c-10 0 -25 0 -25 15s13 13 22 14l16 2c27 3 27 47 27 62v220c0 45 -2 158 -106 158c-53 0 -120 -49 -120 -120v-258c0 -64 23 -62 43 -64l12 -1c6 -1 10 -7 10 -13c0 -15 -14 -15 -25 -15c-24 0 -49 4 -73 4
c-25 0 -49 -4 -74 -4c-11 0 -25 0 -25 15c0 6 4 12 10 13l12 1c23 2 43 0 43 64z" />
    <glyph glyph-name="o" unicode="o" horiz-adv-x="508" 
d="M254 -21c-154 0 -226 154 -226 271c0 119 74 272 226 272c154 0 226 -154 226 -272s-74 -271 -226 -271zM252 9c45 0 156 30 156 242c0 146 -59 241 -156 241c-91 0 -152 -92 -152 -241c0 -175 79 -242 152 -242z" />
    <glyph glyph-name="p" unicode="p" horiz-adv-x="519" 
d="M77 -155v567c0 33 -3 54 -22 54h-13c-15 0 -17 4 -17 11s0 12 15 16c24 7 40 10 69 29c18 11 23 17 29 17c10 0 6 -20 6 -40v-50c0 -3 0 -9 6 -9c7 0 14 11 23 22c36 42 71 60 120 60c124 0 198 -108 198 -253c0 -205 -116 -290 -226 -290c-25 0 -57 4 -107 27
c-3 1 -7 3 -9 3c-4 0 -5 -6 -5 -17v-147c0 -34 7 -59 50 -63c18 -2 31 1 31 -14s-11 -17 -26 -17c-27 0 -54 4 -81 4s-54 -4 -80 -4c-15 0 -26 2 -26 17c0 13 14 13 21 13c45 1 44 39 44 64zM144 346v-199c0 -48 7 -138 119 -138c71 0 156 65 156 236
c0 152 -73 227 -153 227c-61 0 -122 -44 -122 -126z" />
    <glyph glyph-name="q" unicode="q" horiz-adv-x="499" 
d="M426 399v-555c0 -44 8 -64 44 -64c21 0 21 -8 21 -14s-2 -15 -25 -15c-27 0 -54 4 -81 4s-55 -4 -82 -4c-10 0 -25 0 -25 15c0 14 13 14 22 14c41 1 59 12 59 64v169c0 15 0 18 -1 20c-3 6 -9 2 -13 0c-47 -30 -73 -54 -123 -54c-103 0 -194 87 -194 259s98 284 229 284
c58 0 98 -23 125 -35c12 -5 10 -5 36 37c10 15 23 15 23 -3c0 -12 -5 -17 -11 -56c-2 -15 -4 -36 -4 -66zM359 130v258c0 17 2 104 -96 104c-86 0 -163 -99 -163 -242c0 -141 74 -227 160 -227c33 0 99 14 99 107z" />
    <glyph glyph-name="r" unicode="r" horiz-adv-x="336" 
d="M91 93v274c0 51 -14 54 -39 54h-9c-3 0 -11 0 -11 10c0 9 6 12 11 14c23 11 62 40 89 76c3 3 5 7 11 7c13 0 9 -23 9 -43v-59c0 -5 -1 -12 4 -12c2 0 5 3 11 13c26 42 52 88 102 88c30 0 63 -17 63 -59c0 -38 -28 -49 -46 -49c-19 0 -29 13 -34 21c-7 10 -13 23 -27 23
c-24 0 -67 -52 -67 -138v-220c0 -60 29 -61 67 -64l12 -1c6 -1 10 -7 10 -13c0 -15 -14 -15 -25 -15c-31 0 -63 5 -94 5c-26 0 -51 -5 -77 -5c-10 0 -25 0 -25 15c0 14 13 14 22 14c26 1 43 7 43 64z" />
    <glyph glyph-name="s" unicode="s" horiz-adv-x="342" 
d="M293 484v-54c0 -17 1 -41 -12 -41c-8 0 -12 10 -13 14l-7 22c-10 31 -29 72 -83 72c-53 0 -80 -41 -80 -88c0 -31 14 -64 71 -90l37 -17c47 -22 112 -53 112 -154c0 -93 -71 -169 -167 -169c-45 0 -128 24 -127 63l1 71c0 15 -1 48 14 48c10 0 13 -14 14 -20l5 -32
c6 -41 21 -105 96 -105c64 0 103 49 103 106c0 72 -43 94 -73 108c-91 43 -144 67 -144 152c0 95 64 152 152 152c37 0 59 -7 88 -19c13 -6 13 -9 13 -19z" />
    <glyph glyph-name="t" unicode="t" horiz-adv-x="301" 
d="M155 595v-77c0 -9 5 -17 14 -17h88c4 0 12 -1 11 -11l-1 -10c-1 -8 1 -12 -10 -12h-88c-13 0 -14 -12 -14 -19v-301c0 -43 -1 -122 47 -122c13 0 33 5 57 31c9 10 18 9 18 -3c0 -6 -3 -16 -23 -37s-43 -38 -79 -38c-75 0 -87 71 -87 129v344c0 6 0 16 -8 16h-29
c-7 0 -11 3 -11 11c0 11 7 14 17 21c14 11 46 31 66 77c7 16 11 35 23 35c8 0 9 -12 9 -17z" />
    <glyph glyph-name="u" unicode="u" horiz-adv-x="493" 
d="M420 439v-333c0 -30 -1 -48 24 -48h23c5 0 12 -1 12 -11c0 -12 -7 -13 -19 -17c-16 -5 -42 -18 -58 -29c-19 -13 -26 -23 -35 -23c-13 0 -9 20 -9 27l2 33c1 10 4 26 -5 26c-3 0 -8 -2 -18 -12c-38 -39 -71 -73 -128 -73c-68 0 -135 47 -134 179l2 250
c0 57 -18 62 -40 64l-12 1c-5 0 -13 1 -13 13c0 9 5 15 23 15c17 0 34 -2 51 -2c12 0 24 2 38 2c20 0 21 -10 21 -22c0 -9 -1 -18 -1 -27v-13l-2 -265c-1 -122 55 -141 102 -141c76 0 109 58 109 127v248c0 39 -4 61 -39 64l-12 1c-5 0 -14 1 -14 13s8 15 27 15
c16 0 32 -2 47 -2c12 0 23 2 37 2c19 0 21 -6 21 -22v-40z" />
    <glyph glyph-name="v" unicode="v" horiz-adv-x="439" 
d="M139 411l85 -275c1 -5 6 -27 11 -27c3 0 4 8 11 27l58 161c39 108 45 126 45 139c0 35 -39 35 -59 36c-15 2 -16 7 -16 14c0 8 0 15 24 15c25 0 51 -4 76 -4c19 0 37 4 56 4c11 0 25 0 25 -15c0 -4 -1 -12 -13 -13l-9 -1c-41 -5 -59 -71 -78 -123l-120 -322
c-3 -9 -7 -17 -10 -26c-1 -4 -2 -8 -4 -12c-1 -3 -4 -10 -10 -10s-10 6 -11 10c-5 13 -6 23 -12 40l-119 366c-26 80 -33 77 -55 77c-12 0 -22 1 -22 14c0 15 15 15 25 15c25 0 49 -4 74 -4c27 0 54 4 81 4c24 0 24 -7 24 -15c0 -12 0 -11 -29 -15c-30 -3 -38 -27 -28 -60z
" />
    <glyph glyph-name="w" unicode="w" horiz-adv-x="691" 
d="M382 417l102 -287c3 -9 6 -17 8 -17c3 0 6 12 8 17l61 180c32 93 39 112 39 126c0 35 -38 35 -57 36c-6 1 -17 2 -17 14c0 15 14 15 25 15c25 0 50 -4 75 -4c19 0 37 4 56 4c10 0 25 0 25 -15s-13 -13 -20 -14c-47 -6 -68 -85 -86 -138l-114 -330c-2 -7 -8 -25 -14 -25
c-8 0 -12 14 -16 25l-108 298l-112 -300c-3 -9 -8 -23 -14 -23c-7 0 -11 16 -13 23l-135 379c-32 88 -34 91 -61 91c-12 0 -22 1 -22 14c0 16 16 15 26 15c48 0 97 -3 146 -4c36 -1 72 -1 108 0c50 1 101 4 151 4c11 0 27 1 27 -15s-18 -13 -35 -14c-29 -1 -45 -20 -33 -55z
M328 358l-28 78c-13 37 -30 34 -46 34h-97c-19 0 -29 -3 -29 -17c0 -10 1 -22 11 -49l98 -274c4 -12 6 -19 8 -19s4 7 8 19l74 202c6 16 5 16 1 26z" />
    <glyph glyph-name="x" unicode="x" horiz-adv-x="494" 
d="M284 277l122 -198c26 -42 35 -49 62 -50c9 0 22 0 22 -14c0 -15 -15 -15 -25 -15c-25 0 -49 4 -74 4c-35 0 -70 -4 -105 -4c-10 0 -25 0 -25 15c0 13 10 14 20 14c26 1 52 1 52 26c0 15 -7 24 -14 36l-72 122c-12 20 -17 9 -25 -3l-36 -56c-35 -55 -48 -77 -48 -95
c0 -31 34 -29 47 -30c14 -1 15 -9 15 -14c0 -6 -2 -15 -25 -15c-25 0 -49 4 -73 4c-25 0 -51 -4 -76 -4c-7 0 -22 1 -22 15c0 13 9 13 20 14c35 4 61 30 110 100l73 106c10 15 13 19 3 34l-110 169c-25 39 -33 32 -61 34l-12 1c-6 1 -10 7 -10 13c0 15 14 15 25 15
c24 0 49 -4 73 -4c33 0 67 4 100 4c24 0 24 -7 24 -15s-1 -13 -21 -14c-49 -3 -31 -33 -27 -41l64 -107c7 -11 9 -10 16 0l44 69c18 28 27 41 27 54c0 22 -15 23 -36 25l-12 1c-6 1 -10 7 -10 13c0 15 14 15 25 15c24 0 48 -4 72 -4c26 0 52 4 78 4c11 0 25 0 25 -15
s-15 -13 -29 -15c-48 -6 -75 -34 -116 -92l-52 -74c-7 -10 -12 -13 -3 -28z" />
    <glyph glyph-name="y" unicode="y" horiz-adv-x="414" 
d="M127 408l99 -291c5 -13 6 -21 8 -21s3 7 8 21l78 231c18 53 19 75 19 82c0 33 -20 41 -44 42c-11 0 -22 0 -22 14c0 10 6 15 25 15c25 0 49 -4 73 -4c16 0 33 4 49 4c10 0 18 -1 18 -14c0 -6 -3 -13 -12 -14l-7 -1c-26 -4 -27 -9 -59 -100l-128 -361
c-24 -68 -44 -132 -60 -209c-11 -55 -21 -56 -52 -56c-47 0 -54 17 -54 38c0 43 18 50 40 50c7 0 13 -1 20 -1c23 0 27 16 42 64l18 58c6 20 7 31 7 35c0 14 -5 30 -9 41l-135 392c-16 46 -25 49 -44 49c-8 0 -21 -1 -21 14s12 15 22 15c24 0 49 -4 73 -4c26 0 51 4 77 4
c9 0 25 -1 25 -15c0 -16 -12 -13 -30 -15c-42 -5 -34 -34 -24 -63z" />
    <glyph glyph-name="z" unicode="z" horiz-adv-x="411" 
d="M377 470l-256 -425c-3 -5 -8 -15 8 -15h85c79 0 119 6 137 85c4 18 4 29 17 29c14 0 10 -17 10 -35l-1 -96c0 -11 -3 -13 -20 -13c-88 0 -91 4 -162 4c-49 0 -96 -1 -142 -4c-6 0 -12 -1 -19 0c-5 1 -10 2 -10 8c0 3 2 7 10 20l258 432c6 10 2 11 -4 11l-61 -1
c-117 -2 -124 -4 -155 -51c-9 -14 -16 -27 -26 -27c-4 0 -9 4 -9 13c0 10 5 20 13 49l12 44c5 17 6 46 22 46c12 0 10 -13 12 -23l2 -11c3 -14 15 -13 24 -13h41c96 0 156 2 179 3l23 1c18 1 18 -4 18 -12c0 -7 -1 -11 -6 -19z" />
    <glyph glyph-name="braceleft" unicode="{" horiz-adv-x="308" 
d="M56 214v40c73 5 75 89 76 146v62c0 24 -2 47 -2 71c0 144 64 184 122 191v-28c-63 -13 -60 -94 -60 -121v-82c0 -31 2 -62 2 -94c0 -53 -8 -148 -106 -162v-6c98 -14 106 -109 106 -162c0 -32 -2 -63 -2 -95v-83c0 -34 1 -112 60 -119v-28c-58 3 -122 48 -122 191
c0 24 2 47 2 71v62c-1 58 -3 140 -76 146z" />
    <glyph glyph-name="bar" unicode="|" horiz-adv-x="100" 
d="M24 773h52v-1053h-52v1053z" />
    <glyph glyph-name="braceright" unicode="}" horiz-adv-x="308" 
d="M252 254v-40c-73 -6 -75 -88 -76 -146v-62c0 -24 2 -47 2 -71c0 -143 -64 -188 -122 -191v28c59 7 60 85 60 119v83c0 32 -2 63 -2 95c0 53 8 148 106 162v6c-98 14 -106 109 -106 162c0 32 2 63 2 94v82c0 27 3 108 -60 121v28c58 -7 122 -47 122 -191
c0 -24 -2 -47 -2 -71v-62c1 -57 3 -141 76 -146z" />
    <glyph glyph-name="asciitilde" unicode="~" 
d="M77 566l-27 12c23 60 57 116 123 116c50 0 84 -30 110 -48c20 -13 40 -24 61 -24c45 0 66 70 68 78l27 -11c-36 -111 -89 -120 -112 -120c-40 0 -63 17 -105 45c-27 18 -42 29 -67 29c-38 0 -63 -43 -78 -77z" />
    <glyph glyph-name="afii10051" unicode="&#x402;" horiz-adv-x="678" 
d="M98 700h361c18 0 21 4 26 20l4 14c2 8 8 11 12 11c15 0 14 -21 14 -36l-3 -93c-1 -46 2 -71 -17 -71c-11 0 -12 10 -14 20l-5 21c-8 34 -18 81 -66 81h-91c-19 0 -21 -6 -21 -21v-272c0 -2 3 -4 5 -4c6 0 10 9 37 25c50 29 81 36 116 36c183 0 194 -170 194 -216
c0 -141 -56 -236 -153 -236c-41 0 -113 28 -115 74c-1 12 0 24 0 36c1 59 4 75 19 75c13 0 13 -11 13 -18l1 -19c6 -106 54 -118 80 -118c64 0 75 112 75 189c0 173 -108 182 -148 182c-58 0 -124 -26 -124 -91v-207c0 -71 -7 -81 -32 -81c-14 0 -28 2 -41 2
c-22 0 -44 -3 -66 -3c-8 0 -17 2 -17 15c0 15 11 16 15 16l30 2c37 2 39 41 39 89v524c0 18 -2 21 -47 21c-58 0 -99 2 -141 -89c-7 -14 -11 -35 -26 -35c-5 0 -12 5 -12 15c0 2 0 8 6 32l32 134c2 9 6 22 19 22s12 -12 13 -26c2 -20 16 -20 28 -20z" />
    <glyph glyph-name="afii10052" unicode="&#x403;" horiz-adv-x="434" 
d="M107 122v486c0 66 -40 58 -64 61c-12 1 -15 4 -15 16c0 13 9 15 17 15c16 0 32 -1 48 -2c20 -1 39 -1 59 -1h139c107 0 107 3 133 3c9 0 14 0 14 -18v-22c0 -17 0 -35 -1 -52c0 -17 -1 -35 -1 -52v-12c0 -6 -1 -15 -12 -15s-13 5 -21 27l-9 25c-23 64 -46 84 -154 84
c-34 0 -45 -2 -52 -7c-11 -9 -9 -21 -9 -32v-504c0 -38 -3 -84 45 -88l34 -3c12 -1 15 -4 15 -16c0 -13 -9 -15 -17 -15c-35 0 -70 6 -105 6s-70 -6 -106 -6c-6 0 -17 1 -17 15c0 13 9 15 16 16c34 3 63 -12 63 91zM405 790l-150 -66c-18 -8 -25 -12 -31 -12s-10 4 -10 9
c0 13 18 22 31 32l131 100c8 6 16 10 27 10c18 0 31 -12 31 -32c0 -26 -16 -35 -29 -41z" />
    <glyph glyph-name="quotesinglbase" unicode="&#x201a;" horiz-adv-x="178" 
d="M84 91c27 0 58 -18 58 -97c0 -73 -23 -114 -58 -159c-22 -28 -30 -31 -33 -31c-4 0 -9 4 -9 11s5 13 9 18c52 65 59 107 59 130c0 10 0 29 -17 29c-3 0 -7 -1 -10 -1c-21 0 -47 16 -47 48c0 36 23 52 48 52z" />
    <glyph glyph-name="afii10100" unicode="&#x453;" horiz-adv-x="404" 
d="M121 93v315c0 51 -11 63 -43 64c-11 0 -22 0 -22 14c0 11 7 15 25 15h191c76 0 81 3 85 16c2 5 3 17 15 17c13 0 14 -12 14 -22c0 -13 1 -23 2 -33l7 -86c1 -12 5 -36 -12 -36c-11 0 -15 11 -17 18l-5 19c-20 77 -47 80 -82 80h-77c-12 0 -14 -7 -14 -16v-365
c0 -51 11 -63 43 -64c10 0 21 0 21 -14c0 -9 -5 -15 -24 -15c-25 0 -49 4 -74 4c-24 0 -49 -4 -73 -4c-19 0 -24 6 -24 15c0 14 11 14 21 14c32 1 43 13 43 64zM361 659l-150 -66c-18 -8 -25 -12 -32 -12c-6 0 -7 4 -7 7c0 11 19 20 30 29l132 101c7 6 16 11 26 11
c13 0 30 -9 30 -31c0 -25 -20 -35 -29 -39z" />
    <glyph glyph-name="quotedblbase" unicode="&#x201e;" horiz-adv-x="334" 
d="M84 91c27 0 58 -18 58 -97c0 -73 -23 -114 -58 -159c-22 -28 -30 -31 -33 -31c-4 0 -9 4 -9 11s5 13 9 18c52 65 59 107 59 130c0 8 1 18 -6 24c-3 3 -7 5 -11 5c-3 0 -7 -1 -10 -1c-21 0 -47 16 -47 48c0 36 23 52 48 52zM240 91c27 0 58 -18 58 -97
c0 -73 -23 -114 -58 -159c-22 -28 -30 -31 -33 -31c-4 0 -9 4 -9 11s5 13 9 18c52 65 59 107 59 130c0 8 1 18 -6 24c-3 3 -7 5 -11 5c-3 0 -7 -1 -10 -1c-21 0 -47 16 -47 48c0 36 23 52 48 52z" />
    <glyph glyph-name="ellipsis" unicode="&#x2026;" horiz-adv-x="500" 
d="M81 94c26 0 47 -24 47 -58c0 -40 -24 -57 -46 -57c-27 0 -46 27 -46 61c0 30 18 54 45 54zM249 94c26 0 47 -24 47 -58c0 -40 -24 -57 -46 -57c-27 0 -46 27 -46 61c0 30 18 54 45 54zM417 94c26 0 47 -24 47 -58c0 -40 -24 -57 -46 -57c-27 0 -46 27 -46 61
c0 30 18 54 45 54z" />
    <glyph glyph-name="dagger" unicode="&#x2020;" horiz-adv-x="458" 
d="M215 -254v255c0 53 -3 108 -6 198c-3 93 -30 99 -30 112c0 7 7 13 12 20c8 12 11 25 14 38c7 30 10 53 10 85c-46 4 -69 -14 -89 -29c-43 -32 -82 -9 -82 46c0 54 38 79 83 46c20 -15 41 -33 88 -29c0 35 -8 85 -24 118c-12 25 -29 46 -17 77c11 29 36 38 55 38
s44 -9 55 -38c12 -31 -5 -52 -17 -77c-16 -33 -24 -83 -24 -118c54 -4 70 18 90 32c42 30 81 4 81 -49c0 -55 -39 -78 -81 -47c-22 16 -43 34 -90 30c0 -32 3 -55 10 -85c3 -13 6 -26 14 -38c5 -7 12 -13 12 -20c0 -13 -27 -19 -30 -112c-3 -90 -6 -145 -6 -198v-255h-28z
" />
    <glyph glyph-name="daggerdbl" unicode="&#x2021;" horiz-adv-x="458" 
d="M215 -254v255c0 18 0 50 -4 153c-43 3 -62 -13 -86 -30c-42 -31 -81 -8 -81 47c0 53 39 79 81 49c22 -16 36 -35 85 -32c-4 88 6 26 5 266c-46 4 -69 -14 -89 -29c-43 -32 -82 -9 -82 46c0 54 38 79 83 46c20 -15 41 -33 88 -29c0 35 -8 85 -24 118c-12 25 -29 46 -17 77
c11 29 36 38 55 38s44 -9 55 -38c12 -31 -5 -52 -17 -77c-16 -33 -24 -83 -24 -118c54 -4 70 18 90 32c42 30 81 4 81 -49c0 -55 -39 -78 -81 -47c-22 16 -43 34 -90 30c-1 -240 9 -178 5 -266c49 -3 63 16 85 32c42 30 81 4 81 -49c0 -55 -39 -78 -81 -47
c-24 17 -43 33 -86 30c-4 -103 -4 -135 -4 -153v-255h-28z" />
    <glyph glyph-name="accent" horiz-adv-x="2" 
d="M-91 659l-150 -66c-18 -8 -25 -12 -32 -12c-6 0 -7 4 -7 7c0 11 19 20 30 29l132 101c7 6 16 11 26 11c13 0 30 -9 30 -31c0 -25 -20 -35 -29 -39z" />
    <glyph glyph-name="perthousand" unicode="&#x2030;" horiz-adv-x="924" 
d="M450 0c-91 0 -136 93 -136 164c0 73 45 165 136 165c76 0 136 -70 136 -165c0 -93 -60 -164 -136 -164zM448 22c40 0 92 33 92 143c0 101 -47 142 -92 142c-47 0 -88 -49 -88 -142c0 -88 37 -143 88 -143zM522 703h28l-453 -713h-31zM164 370c-76 0 -136 71 -136 164
c0 94 60 165 136 165s136 -71 136 -165c0 -93 -60 -164 -136 -164zM163 392c38 0 91 33 91 143c0 102 -48 142 -91 142c-48 0 -89 -50 -89 -142c0 -87 37 -143 89 -143zM760 0c-76 0 -136 71 -136 164c0 94 60 165 136 165s136 -71 136 -165c0 -93 -60 -164 -136 -164z
M759 22c38 0 91 33 91 143c0 102 -48 142 -91 142c-48 0 -89 -50 -89 -142c0 -87 37 -143 89 -143z" />
    <glyph glyph-name="afii10058" unicode="&#x409;" horiz-adv-x="810" 
d="M393 122v486c0 55 -26 58 -63 58h-51c-54 0 -50 -20 -58 -162c-5 -86 -12 -172 -28 -265c-38 -223 -108 -260 -152 -260c-28 0 -53 17 -53 52c0 54 40 57 50 57c16 0 22 -7 28 -12c5 -4 13 -9 18 -9c39 0 97 178 97 508c0 106 -34 92 -68 94c-6 0 -16 2 -16 16
c0 17 17 15 21 15c72 -5 94 0 149 0h72c30 0 60 -4 90 -4c32 0 64 4 97 4c6 0 17 -1 17 -15c0 -12 -3 -15 -15 -16c-26 -3 -63 5 -63 -61v-174c0 -15 -2 -32 28 -27c40 7 69 10 91 10c163 0 206 -121 206 -206c0 -110 -67 -215 -205 -215c-53 0 -105 10 -157 10
c-32 0 -65 -6 -98 -6c-15 0 -16 10 -16 15c0 2 -1 5 0 7c1 3 4 9 16 9c39 1 63 -6 63 91zM465 347v-182c0 -86 -2 -139 92 -139c106 0 153 89 153 184c0 112 -65 175 -164 175c-74 0 -81 -14 -81 -38z" />
    <glyph glyph-name="guilsinglleft" unicode="&#x2039;" horiz-adv-x="274" 
d="M115 267l120 -187c6 -10 1 -17 -5 -17c-5 0 -8 4 -11 8l-177 186c-4 4 -6 7 -6 10s2 6 6 10l179 189c2 2 5 5 9 5s8 -3 8 -9c0 -3 -1 -5 -3 -8z" />
    <glyph glyph-name="afii10059" unicode="&#x40a;" horiz-adv-x="899" 
d="M546 578v-144c0 -15 -2 -32 28 -27c40 7 69 10 91 10c163 0 206 -121 206 -206c0 -110 -67 -215 -205 -215c-52 0 -104 10 -156 10c-33 0 -65 -6 -98 -6c-15 0 -15 9 -16 15c0 2 -1 5 0 7c1 3 4 9 16 9c36 1 62 -10 62 91v227c0 5 -1 10 -8 10h-280c-7 0 -8 -5 -8 -10
v-227c0 -102 25 -89 63 -91c4 0 13 -1 15 -9c1 -2 0 -5 0 -7s1 -4 0 -6c-1 -3 -5 -9 -16 -9c-33 0 -66 6 -98 6s-65 -6 -98 -6c-15 0 -15 9 -16 15c0 2 -1 5 0 7c1 3 4 9 16 9c36 1 62 -10 62 91v456c0 102 -25 89 -63 91c-4 0 -13 1 -15 9c-1 2 0 5 0 7s-1 4 0 6
c1 3 5 9 16 9c33 0 66 -6 98 -6s65 6 98 6c15 0 15 -9 16 -15c0 -2 1 -5 0 -7c-1 -3 -4 -9 -16 -9c-36 -1 -62 10 -62 -91v-178c0 -5 1 -10 8 -10h280c7 0 8 5 8 10v178c0 102 -25 89 -63 91c-4 0 -13 1 -15 9c-1 2 0 5 0 7s-1 4 0 6c1 3 5 9 16 9c33 0 66 -6 98 -6
s65 6 98 6c15 0 15 -9 16 -15c0 -2 1 -5 0 -7c-1 -3 -4 -9 -16 -9c-36 -1 -62 10 -62 -91zM546 347v-182c0 -86 -2 -139 92 -139c106 0 153 89 153 184c0 112 -65 175 -164 175c-74 0 -81 -14 -81 -38z" />
    <glyph glyph-name="afii10061" unicode="&#x40c;" horiz-adv-x="567" 
d="M107 122v456c0 102 -25 89 -63 91c-7 0 -16 2 -16 16c0 4 1 15 21 15c32 0 63 -6 94 -6c33 0 65 6 98 6c6 0 17 -1 17 -15c0 -13 -9 -15 -16 -16c-34 -3 -63 12 -63 -91v-172c0 -24 5 -26 32 -26h18c37 0 90 24 123 137l24 82c12 42 41 112 109 112c35 0 58 -26 58 -64
c0 -37 -24 -55 -46 -55c-24 0 -34 20 -39 34c-4 10 -8 20 -20 20c-23 0 -33 -57 -39 -81l-20 -75c-23 -87 -68 -113 -99 -122v-4c55 -9 90 -46 123 -109l73 -141c24 -46 41 -81 75 -83h12c11 0 16 -7 16 -16c0 -5 -3 -14 -17 -15h-22c-31 0 -20 -2 -46 -2
c-48 0 -67 41 -81 69l-81 167c-57 117 -94 116 -121 116c-38 0 -32 -8 -32 -27v-201c0 -98 24 -89 63 -91c6 0 16 -2 16 -16c0 -13 -9 -15 -17 -15c-33 0 -65 6 -98 6s-65 -6 -98 -6c-15 0 -15 9 -16 15c0 2 -1 5 0 7c1 3 4 9 16 9c36 1 62 -10 62 91zM472 790l-150 -66
c-18 -8 -25 -12 -31 -12s-10 4 -10 9c0 13 18 22 31 32l131 100c8 6 16 10 27 10c18 0 31 -12 31 -32c0 -26 -16 -35 -29 -41z" />
    <glyph glyph-name="afii10060" unicode="&#x40b;" horiz-adv-x="705" 
d="M98 700h361c21 0 23 8 26 20s6 25 16 25c15 0 14 -21 14 -36l-3 -93c-1 -46 2 -71 -17 -71c-11 0 -12 10 -14 20l-5 21c-8 34 -18 81 -66 81h-91c-20 0 -21 -10 -21 -21v-272c0 -7 8 -4 15 1c25 19 93 56 162 56c149 0 155 -134 155 -205v-104c0 -41 1 -55 4 -63
c10 -28 33 -26 51 -28c9 -1 16 -3 16 -16c0 -10 -8 -15 -17 -15c-32 0 -62 6 -93 6c-32 0 -63 -6 -95 -6c-8 0 -17 2 -17 15c0 14 10 16 16 16c39 2 63 -7 63 91v100c0 58 -3 158 -110 158c-41 0 -92 -13 -123 -34c-27 -18 -27 -30 -27 -57v-167c0 -48 1 -86 40 -89l29 -2
c12 -1 15 -5 15 -16c0 -13 -9 -15 -17 -15c-34 0 -68 6 -102 6c-35 0 -69 -6 -104 -6c-8 0 -17 2 -17 15c0 11 3 15 15 16l30 2c37 2 39 41 39 89v524c0 18 -2 21 -47 21c-58 0 -99 2 -141 -89c-6 -14 -11 -35 -26 -35c-5 0 -12 5 -12 15c0 3 1 10 6 32l32 134
c2 9 6 22 19 22s12 -12 13 -26c2 -20 16 -20 28 -20z" />
    <glyph glyph-name="afii10145" unicode="&#x40f;" horiz-adv-x="662" 
d="M556 578v-456c0 -103 25 -87 63 -91c12 -1 15 -4 15 -16c0 -14 -11 -15 -17 -15c-33 0 -65 6 -97 6c-47 0 -95 -6 -143 -6h-27l11 -127c1 -8 1 -15 1 -23c0 -34 -21 -40 -31 -40s-31 6 -31 40c0 8 0 15 1 23l11 127h-27c-48 0 -95 6 -142 6c-32 0 -64 -6 -98 -6
c-9 0 -17 5 -17 15c0 18 14 16 29 16c45 3 49 24 49 91v456c0 80 -12 89 -50 90c-17 1 -28 -2 -28 17c0 14 11 15 17 15c33 0 65 -6 97 -6c33 0 65 6 98 6c6 0 17 -1 17 -15c0 -18 -16 -16 -29 -17c-39 -1 -50 -15 -50 -90v-447c0 -93 27 -97 112 -97h83c83 0 111 4 111 97
v447c0 66 -6 89 -50 91c-15 0 -29 -2 -29 16c0 13 9 15 17 15c33 0 66 -6 98 -6s63 6 97 6c9 0 17 -5 17 -15c0 -18 -14 -16 -29 -16c-45 -3 -49 -24 -49 -91z" />
    <glyph glyph-name="afii10099" unicode="&#x452;" horiz-adv-x="496" 
d="M156 595h153v-30h-153v-122c0 -10 1 -14 4 -14c5 0 7 8 34 37c17 19 52 56 105 56c58 0 161 -42 161 -306c0 -201 -45 -338 -142 -439c-21 -22 -34 -31 -41 -31c-11 0 -19 8 -7 23c48 63 118 132 118 427c0 223 -58 275 -116 275c-56 0 -116 -56 -116 -118v-260
c0 -44 8 -64 44 -64c6 0 22 0 22 -14s-18 -15 -26 -15c-25 0 -49 4 -73 4c-25 0 -49 -4 -74 -4c-12 0 -25 0 -25 15c0 14 12 14 22 14c32 1 43 13 43 64v472h-73v30h73c1 20 -5 45 -24 46l-15 1c-8 1 -19 -3 -19 10c0 8 4 11 10 14l23 13c47 26 49 37 72 63c4 4 6 7 12 7
c13 0 8 -17 8 -43v-111z" />
    <glyph glyph-name="quoteleft" unicode="&#x2018;" horiz-adv-x="178" 
d="M94 464c-27 0 -58 18 -58 97c0 73 23 114 58 159c22 28 30 31 33 31c4 0 9 -4 9 -11s-5 -13 -9 -18c-52 -65 -59 -107 -59 -130c0 -6 0 -12 2 -18c3 -7 9 -11 15 -11c3 0 7 1 10 1c21 0 47 -16 47 -48c0 -36 -23 -52 -48 -52z" />
    <glyph glyph-name="quoteright" unicode="&#x2019;" horiz-adv-x="178" 
d="M84 721c27 0 58 -18 58 -97c0 -73 -23 -114 -58 -159c-22 -28 -30 -31 -33 -31c-4 0 -9 4 -9 11s5 13 9 18c52 65 59 107 59 130c0 6 0 12 -2 18c-3 7 -9 11 -15 11c-3 0 -7 -1 -10 -1c-21 0 -47 16 -47 48c0 36 23 52 48 52z" />
    <glyph glyph-name="quotedblleft" unicode="&#x201c;" horiz-adv-x="334" 
d="M94 464c-27 0 -58 18 -58 97c0 73 23 114 58 159c22 28 30 31 33 31c4 0 9 -4 9 -11s-5 -13 -9 -18c-52 -65 -59 -107 -59 -130c0 -6 0 -12 2 -18c3 -7 9 -11 15 -11c3 0 7 1 10 1c21 0 47 -16 47 -48c0 -36 -23 -52 -48 -52zM250 464c-27 0 -58 18 -58 97
c0 73 23 114 58 159c22 28 30 31 33 31c4 0 9 -4 9 -11s-5 -13 -9 -18c-52 -65 -59 -107 -59 -130c0 -6 0 -12 2 -18c3 -7 9 -11 15 -11c3 0 7 1 10 1c21 0 47 -16 47 -48c0 -36 -23 -52 -48 -52z" />
    <glyph glyph-name="quotedblright" unicode="&#x201d;" horiz-adv-x="334" 
d="M84 721c27 0 58 -18 58 -97c0 -73 -23 -114 -58 -159c-22 -28 -30 -31 -33 -31c-4 0 -9 4 -9 11s5 13 9 18c52 65 59 107 59 130c0 6 0 12 -2 18c-3 7 -9 11 -15 11c-3 0 -7 -1 -10 -1c-21 0 -47 16 -47 48c0 36 23 52 48 52zM240 721c27 0 58 -18 58 -97
c0 -73 -23 -114 -58 -159c-22 -28 -30 -31 -33 -31c-4 0 -9 4 -9 11s5 13 9 18c52 65 59 107 59 130c0 6 0 12 -2 18c-3 7 -9 11 -15 11c-3 0 -7 -1 -10 -1c-21 0 -47 16 -47 48c0 36 23 52 48 52z" />
    <glyph glyph-name="bullet" unicode="&#x2022;" 
d="M97 350c0 81 66 147 147 147c79 0 147 -65 147 -147c0 -80 -67 -147 -147 -147c-82 0 -147 68 -147 147z" />
    <glyph glyph-name="endash" unicode="&#x2013;" horiz-adv-x="564" 
d="M59 293h461l-13 -54h-463z" />
    <glyph glyph-name="emdash" unicode="&#x2014;" horiz-adv-x="808" 
d="M66 290h690l-10 -47h-694z" />
    <glyph glyph-name="Accent" horiz-adv-x="2" 
d="M-266 790l-150 -66c-18 -8 -25 -12 -31 -12s-10 4 -10 9c0 13 18 22 31 32l131 100c8 6 16 10 27 10c18 0 31 -12 31 -32c0 -26 -16 -35 -29 -41z" />
    <glyph glyph-name="trademark" unicode="&#x2122;" horiz-adv-x="605" 
d="M60 699h164c12 0 12 5 12 11c1 5 5 7 8 7s5 -2 5 -5c0 -2 0 -4 -1 -36l-1 -36c0 -8 -5 -8 -7 -8c-4 0 -6 5 -7 8c-5 17 -7 43 -32 43h-36c-3 0 -8 -1 -8 -8v-208c0 -29 8 -34 16 -35l13 -2c7 -1 8 -3 8 -7c0 -5 -1 -8 -12 -8c-15 0 -29 1 -44 1c-14 0 -28 -1 -42 -1
c-6 0 -14 0 -14 8c0 7 8 7 13 8l9 1c9 1 15 10 15 35v208c0 6 0 8 -7 8l-14 1c-39 3 -53 -21 -61 -38c-3 -6 -7 -14 -12 -14c-4 0 -5 3 -5 6v6c0 4 2 8 3 12c2 8 4 17 6 25l6 27c1 3 2 10 8 10c8 0 4 -11 8 -16c2 -3 5 -3 9 -3zM358 692l65 -191c1 -4 1 -6 2 -6s2 2 3 6
l69 193c2 5 2 5 9 5h58c8 0 14 1 14 -8s-6 -8 -14 -9c-12 -1 -24 -2 -23 -36l6 -179c1 -30 7 -33 18 -35l7 -1c5 -1 13 -1 13 -8c0 -9 -10 -9 -14 -9c-15 0 -29 2 -43 2c-15 0 -30 -2 -46 -2c-3 0 -10 0 -10 8c0 7 4 7 8 8l11 2c12 2 18 1 17 35l-5 179v9c0 4 0 6 -1 6
s-2 -2 -3 -5l-70 -195c-8 -21 -12 -32 -16 -32s-7 12 -14 32l-66 191c-1 3 -2 4 -3 4s-1 -2 -1 -5l-6 -146c-2 -47 -2 -72 14 -74l16 -2c4 -1 6 -3 6 -7s-2 -6 -7 -7h-7c-11 1 -23 2 -35 2c-11 0 -22 -1 -32 -2h-7c-5 1 -7 3 -7 7s2 6 6 7l16 2c7 1 15 6 17 34l10 181
c1 13 3 31 -16 35c-9 2 -18 -1 -20 6v4v4c1 2 4 4 7 4h66c2 0 6 -1 8 -7z" />
    <glyph glyph-name="afii10106" unicode="&#x459;" horiz-adv-x="647" 
d="M311 93v317c0 67 -23 65 -56 65c-67 0 -70 -22 -72 -58c-11 -186 -43 -429 -137 -429c-28 0 -54 13 -54 50c0 43 26 58 46 58c13 0 19 -6 25 -11c9 -8 14 -12 19 -12c33 0 64 210 64 341c0 58 -24 55 -42 56c-24 1 -23 8 -23 17c0 3 0 14 16 14h321c23 0 25 -8 25 -15
c0 -6 0 -14 -21 -14c-40 0 -44 -27 -44 -64v-101c0 -19 -4 -25 18 -20c25 5 49 11 85 11c106 0 146 -63 146 -145c0 -87 -51 -156 -162 -156c-40 0 -80 7 -120 7c-25 0 -49 -4 -74 -4c-10 0 -25 0 -25 15c0 14 13 14 22 14c32 1 43 12 43 64zM378 238v-124
c0 -76 13 -91 67 -91c71 0 110 48 110 124c0 77 -41 119 -107 119s-70 -11 -70 -28z" />
    <glyph glyph-name="guilsinglright" unicode="&#x203a;" horiz-adv-x="274" 
d="M159 267l-120 187c-2 3 -3 5 -3 8c0 6 4 9 8 9c5 0 8 -4 11 -8l177 -186c4 -4 6 -7 6 -10s-2 -6 -6 -10l-179 -189c-2 -2 -5 -5 -9 -5c-6 0 -12 7 -5 17z" />
    <glyph glyph-name="afii10107" unicode="&#x45a;" horiz-adv-x="722" 
d="M89 93v315c0 64 -24 62 -44 64l-12 1c-9 1 -9 10 -9 13c0 6 2 15 25 15c25 0 49 -4 73 -4c25 0 49 4 74 4c11 0 25 0 25 -15c0 -6 -4 -12 -10 -13l-12 -1c-23 -2 -43 0 -43 -64v-117c0 -7 -1 -10 8 -10h214c9 0 8 3 8 10v117c0 64 -20 62 -43 64l-12 1c-6 1 -10 7 -10 13
c0 15 14 15 25 15c25 0 49 -4 74 -4c24 0 48 4 73 4c23 0 25 -9 25 -15c0 -3 0 -12 -9 -13l-12 -1c-20 -2 -44 0 -44 -64v-101c0 -19 -4 -25 18 -20c25 5 49 11 85 11c106 0 146 -63 146 -145c0 -87 -51 -156 -162 -156c-40 0 -80 7 -120 7c-25 0 -49 -4 -74 -4
c-11 0 -25 0 -25 15c0 6 4 12 10 13l12 1c23 2 43 0 43 64v151c0 7 1 10 -8 10h-214c-9 0 -8 -3 -8 -10v-151c0 -64 20 -62 43 -64l12 -1c6 -1 10 -7 10 -13c0 -15 -14 -15 -25 -15c-25 0 -49 4 -74 4c-24 0 -48 -4 -73 -4c-23 0 -25 9 -25 15c0 3 0 12 9 13l12 1
c20 2 44 0 44 64zM453 238v-124c0 -76 13 -91 67 -91c71 0 110 48 110 124c0 117 -87 119 -107 119c-66 0 -70 -13 -70 -28z" />
    <glyph glyph-name="afii10109" unicode="&#x45c;" horiz-adv-x="452" 
d="M156 408v-119c0 -10 2 -10 19 -10h17c53 0 63 51 88 117c23 60 47 126 111 126c26 0 53 -16 53 -53c0 -30 -18 -50 -44 -50c-16 0 -26 7 -38 22c-4 5 -10 12 -19 12c-19 0 -28 -39 -35 -63c-18 -60 -32 -108 -80 -122v-4c50 -4 85 -26 109 -77l39 -82
c34 -71 48 -70 71 -76c11 -3 21 -5 21 -16c0 -13 -10 -13 -17 -13c-13 0 -26 1 -39 1c-11 0 -22 -1 -34 -1c-33 0 -42 12 -60 55l-31 73c-48 112 -61 124 -120 124c-8 0 -11 -1 -11 -10v-149c0 -51 13 -63 44 -64c10 0 22 0 22 -14s-15 -15 -24 -15c-25 0 -50 4 -75 4
s-50 -4 -75 -4c-19 0 -24 6 -24 15c0 12 8 13 13 13l12 1c28 2 40 12 40 64v315c0 51 -11 63 -43 64c-9 0 -22 0 -22 14c0 15 15 15 25 15c25 0 49 -4 74 -4s49 4 74 4c19 0 24 -6 24 -15c0 -13 -10 -14 -18 -14c-26 -1 -47 -2 -47 -64zM390 659l-150 -66
c-18 -8 -25 -12 -32 -12c-6 0 -7 4 -7 7c0 11 19 20 30 29l132 101c7 6 16 11 26 11c13 0 30 -9 30 -31c0 -25 -20 -35 -29 -39z" />
    <glyph glyph-name="afii10108" unicode="&#x45b;" horiz-adv-x="517" 
d="M147 725v-130h147v-30h-147v-122c0 -5 -1 -12 2 -12c5 0 7 1 9 4c41 52 80 87 139 87c32 0 143 -13 143 -195v-234c0 -51 11 -63 43 -64c9 0 22 0 22 -14c0 -15 -15 -15 -25 -15c-25 0 -49 4 -74 4c-24 0 -49 -4 -73 -4c-10 0 -25 0 -25 15c0 14 13 14 22 14
c26 1 43 7 43 64v220c0 34 2 158 -106 158c-65 0 -120 -65 -120 -118v-260c0 -57 17 -63 43 -64c9 0 22 0 22 -14c0 -15 -15 -15 -25 -15c-24 0 -49 4 -73 4c-25 0 -49 -4 -74 -4c-10 0 -25 0 -25 15c0 14 13 14 22 14c32 1 43 13 43 64v472h-78v30h77c0 35 -24 37 -38 37
h-10c-4 0 -12 1 -12 10c0 8 6 10 14 14c65 31 77 56 94 76c3 4 7 7 12 7c7 0 8 -6 8 -14z" />
    <glyph glyph-name="afii10193" unicode="&#x45f;" horiz-adv-x="530" 
d="M156 408v-346c0 -26 13 -35 28 -35h162c15 0 28 9 28 35v346c0 64 -20 62 -43 64l-12 1c-6 1 -10 7 -10 13c0 15 14 15 25 15c25 0 49 -4 74 -4c24 0 49 4 73 4c11 0 25 0 25 -15c0 -6 -4 -12 -10 -13l-12 -1c-20 -2 -43 0 -43 -64v-315c0 -64 23 -62 43 -64l12 -1
c6 -1 10 -7 10 -13c0 -15 -15 -15 -25 -15h-201l14 -97c2 -11 3 -22 3 -33c0 -40 -20 -48 -32 -48s-32 8 -32 48c0 11 1 22 3 33l14 97h-201c-10 0 -25 0 -25 15c0 6 4 12 10 13l12 1c23 2 43 0 43 64v315c0 64 -20 62 -43 64l-12 1c-6 1 -10 7 -10 13c0 15 14 15 25 15
c25 0 49 -4 74 -4c24 0 49 4 73 4c11 0 25 0 25 -15c0 -6 -4 -12 -10 -13l-12 -1c-20 -2 -43 0 -43 -64z" />
    <glyph glyph-name="afii10062" unicode="&#x40e;" horiz-adv-x="538" 
d="M152 606l142 -340c4 -11 5 -24 12 -24s7 13 12 25l104 269c8 20 24 72 24 92c0 39 -40 39 -53 40l-14 1c-4 0 -14 2 -14 16s15 15 20 15c27 0 53 -4 80 -4c26 0 53 4 79 4c14 0 22 -1 22 -15c0 -10 -5 -16 -15 -17l-13 -1c-40 -3 -30 7 -91 -153l-130 -341
c-20 -52 -68 -194 -158 -194c-32 0 -57 24 -57 57s22 52 45 52c21 0 30 -13 41 -27c5 -6 12 -15 22 -15c15 0 35 21 52 78c6 22 2 26 -4 40l-169 396c-28 65 -42 103 -70 107l-16 2c-11 1 -15 8 -15 17c0 14 11 14 19 14c29 0 58 -6 87 -6c34 0 68 6 101 6
c19 0 26 -4 26 -18c0 -17 -13 -17 -19 -17h-17c-13 0 -40 0 -40 -32c0 -10 3 -18 7 -27zM418 859l8 16c11 22 30 16 30 0c0 -34 -60 -159 -151 -159c-70 0 -114 54 -114 87c0 38 41 88 59 88c12 0 11 -15 11 -21l1 -22c3 -75 47 -78 60 -78c30 0 59 16 96 89z" />
    <glyph glyph-name="afii10110" unicode="&#x45e;" horiz-adv-x="414" 
d="M127 408l99 -291c5 -13 6 -21 8 -21s3 7 8 21l78 231c18 53 19 75 19 82c0 33 -20 41 -44 42c-11 0 -22 0 -22 14c0 10 6 15 25 15c25 0 49 -4 73 -4c16 0 33 4 49 4c10 0 18 -1 18 -14c0 -6 -3 -13 -12 -14l-7 -1c-26 -4 -27 -9 -59 -100l-128 -361
c-24 -68 -44 -132 -60 -209c-11 -55 -21 -56 -52 -56c-47 0 -54 17 -54 38c0 43 18 50 40 50c7 0 13 -1 20 -1c23 0 27 16 42 64l18 58c6 20 7 31 7 35c0 14 -5 30 -9 41l-135 392c-16 46 -25 49 -44 49c-8 0 -21 -1 -21 14s12 15 22 15c24 0 49 -4 73 -4c26 0 51 4 77 4
c9 0 25 -1 25 -15c0 -16 -12 -13 -30 -15c-42 -5 -34 -34 -24 -63zM192 700l1 -25c1 -17 3 -80 60 -80c35 0 67 23 99 86c12 24 17 36 25 36c3 0 10 -1 10 -9c0 -42 -75 -157 -152 -157c-65 0 -104 49 -104 82c0 31 35 81 53 81c5 0 8 -8 8 -14z" />
    <glyph glyph-name="afii10057" unicode="&#x408;" horiz-adv-x="321" 
d="M215 578v-469c0 -41 -6 -95 -23 -139c-28 -73 -103 -175 -181 -175c-40 0 -67 22 -67 60c0 35 23 49 45 49c24 0 33 -19 42 -36c5 -10 12 -23 28 -23c14 0 30 12 42 27c48 60 42 141 42 266v440c0 102 -33 86 -80 91c-10 1 -15 3 -15 16s9 15 17 15c35 0 71 -6 106 -6
s70 6 105 6c6 0 17 -1 17 -15c0 -13 -9 -15 -16 -16c-36 -4 -62 12 -62 -91z" />
    <glyph glyph-name="currency" unicode="&#xa4;" horiz-adv-x="680" 
d="M595 640l40 -39l-94 -92c45 -56 58 -117 58 -163s-13 -107 -58 -163l94 -92l-40 -39l-93 93c-61 -52 -129 -59 -163 -59c-88 0 -142 43 -161 59l-93 -93l-40 39l93 92c-14 19 -57 78 -57 163c0 46 12 108 57 163l-93 92l40 39l93 -93c21 19 71 59 161 59s142 -41 163 -59
zM133 346c0 -118 91 -214 206 -214s208 97 208 214s-93 214 -208 214s-206 -96 -206 -214z" />
    <glyph glyph-name="afii10050" unicode="&#x490;" horiz-adv-x="440" 
d="M107 108v484c0 31 -1 72 -37 75l-26 2c-15 1 -16 10 -16 16c0 15 12 15 18 15c43 0 27 -4 126 -3l82 1c147 2 144 40 163 106c3 9 7 21 17 21c3 0 7 -4 8 -7c1 -2 0 -5 0 -8v-11c1 -15 0 -31 0 -47c0 -14 2 -58 2 -70c0 -6 2 -13 -6 -16c-7 -3 -16 0 -73 0h-90
c-97 0 -96 -3 -96 -40v-518c0 -26 0 -72 39 -75l30 -2c12 -1 15 -5 15 -16c0 -14 -11 -15 -17 -15c-34 0 -67 6 -100 6s-66 -6 -100 -6c-6 0 -18 0 -18 15c0 6 1 15 16 16l26 2c36 3 37 44 37 75z" />
    <glyph glyph-name="brokenbar" unicode="&#xa6;" horiz-adv-x="100" 
d="M24 773h52v-319h-52v319zM24 39h52v-319h-52v319z" />
    <glyph glyph-name="section" unicode="&#xa7;" horiz-adv-x="404" 
d="M340 48c0 -230 -103 -289 -168 -289c-48 0 -104 24 -104 82c0 34 23 51 42 51c24 0 42 -32 50 -46c9 -14 27 -46 53 -46c23 0 30 21 30 49c0 58 -32 128 -86 250c-47 106 -97 227 -97 352c0 198 92 270 180 270c67 0 104 -42 104 -82c0 -28 -19 -50 -40 -50
c-24 0 -41 22 -58 46c-13 20 -31 45 -49 45c-12 0 -32 -11 -32 -55c0 -63 20 -109 77 -231c44 -94 98 -204 98 -346zM276 -107c22 55 24 102 24 143c0 116 -38 210 -72 285c-42 94 -89 167 -100 300c-21 -46 -27 -86 -27 -157c0 -103 33 -188 67 -270
c65 -158 91 -196 108 -301z" />
    <glyph glyph-name="afii10023" unicode="&#x401;" horiz-adv-x="492" 
d="M107 122v456c0 103 -25 88 -63 91c-6 1 -16 2 -16 16c0 13 10 15 18 15c28 0 55 -3 83 -3h170c28 0 89 1 113 2c29 2 33 3 33 -8c0 -8 -1 -17 -1 -31l-1 -47v-47v-12s0 -15 -9 -15c-11 0 -12 10 -17 23l-10 28c-18 51 -34 76 -138 76c-89 0 -90 -5 -90 -40v-193
c0 -16 0 -31 27 -31h78c52 0 63 29 70 55l5 19c3 12 8 15 14 15c5 0 11 -3 11 -17c0 -25 -15 -87 -1 -199c4 -34 -10 -35 -13 -35c-12 0 -12 13 -18 45c-14 83 -48 86 -99 86h-56c-9 0 -18 0 -18 -28v-202c0 -80 20 -107 76 -107h58c66 0 105 27 128 116c3 10 5 25 17 25
c9 0 10 -9 10 -15c0 -17 -6 -45 -11 -78c-2 -20 -1 -20 -4 -52c-2 -14 -2 -22 -5 -27c-4 -5 -9 -4 -17 -4l-99 1c-85 1 -144 6 -174 6c-37 0 -73 -6 -110 -6c-7 0 -19 0 -19 15c0 13 9 15 16 16c36 4 62 -12 62 91zM174 853c31 0 47 -30 47 -60s-16 -60 -47 -60
s-47 30 -47 60s16 60 47 60zM334 853c31 0 47 -30 47 -60s-16 -60 -47 -60s-47 30 -47 60s16 60 47 60z" />
    <glyph glyph-name="copyright" unicode="&#xa9;" horiz-adv-x="828" 
d="M414 -14c-200 0 -364 164 -364 364s164 364 364 364s364 -164 364 -364s-164 -364 -364 -364zM414 26c173 0 314 145 314 324s-141 324 -314 324s-314 -145 -314 -324s141 -324 314 -324zM577 518l2 -25c1 -11 4 -30 -11 -30c-10 0 -13 8 -15 13c-26 66 -84 75 -118 75
c-99 0 -166 -82 -166 -196c0 -109 61 -205 163 -205c47 0 71 18 88 37c21 24 23 36 37 58c2 4 7 9 15 9c14 0 9 -28 8 -46l-1 -21c-1 -13 0 -24 -28 -37c-36 -16 -75 -27 -123 -27c-126 0 -230 89 -230 223c0 126 96 231 239 231c47 0 102 -12 124 -22c11 -5 14 -8 16 -37z
" />
    <glyph glyph-name="afii10053" unicode="&#x404;" horiz-adv-x="559" 
d="M267 366h-132c-14 0 -18 -2 -19 -43c-2 -117 63 -314 228 -314c98 0 140 94 155 140c5 14 9 35 21 35c20 0 10 -49 9 -70l-2 -36c-1 -12 1 -24 -13 -39c-25 -27 -102 -60 -179 -60c-176 0 -299 152 -299 365c0 181 105 377 311 377c58 0 131 -21 160 -37
c14 -8 15 -15 18 -54l3 -45c1 -18 6 -40 -10 -40c-9 0 -12 9 -15 16l-12 27c-20 44 -57 103 -147 103c-155 0 -221 -161 -225 -258v-13c1 -10 2 -20 25 -20h154c21 0 58 3 71 56l5 21c2 7 6 14 13 14s11 -9 11 -16c0 -38 -7 -9 -7 -104c0 -79 5 -65 5 -110
c0 -16 -4 -21 -10 -21c-13 0 -14 13 -17 29l-6 32c-12 63 -57 65 -96 65z" />
    <glyph glyph-name="guillemotleft" unicode="&#xab;" horiz-adv-x="348" 
d="M114 267l120 -187c4 -6 3 -17 -5 -17c-2 0 -4 1 -6 3l-182 191c-3 3 -5 7 -5 10s2 7 5 10l182 191c2 2 4 3 6 3c8 0 9 -11 5 -17zM247 267l64 -110c1 -2 1 -4 1 -6c0 -7 -5 -8 -9 -4l-115 110c-10 10 -2 18 0 20l115 110c6 6 13 -1 8 -10z" />
    <glyph glyph-name="logicalnot" unicode="&#xac;" 
d="M18 396v55h452v-265h-47v210h-405z" />
    <glyph glyph-name="hyphen" unicode="-" horiz-adv-x="318" 
d="M51 296h231l-14 -62h-232z" />
    <glyph glyph-name="hyphen" unicode="&#xad;" horiz-adv-x="318" 
d="M51 296h231l-14 -62h-232z" />
    <glyph glyph-name="registered" unicode="&#xae;" horiz-adv-x="828" 
d="M414 -14c-200 0 -364 164 -364 364s164 364 364 364s364 -164 364 -364s-164 -364 -364 -364zM414 26c173 0 314 145 314 324s-141 324 -314 324s-314 -145 -314 -324s141 -324 314 -324zM299 207v287c0 58 -18 56 -48 57c-12 0 -14 7 -14 10c0 4 2 8 7 9h6
c26 -3 51 -3 77 -3c62 0 77 3 112 3c111 0 138 -59 138 -108c0 -46 -28 -90 -114 -103v-3c8 0 19 -3 34 -29l79 -141c10 -17 17 -34 44 -36c11 -1 21 1 21 -10c0 -8 -6 -9 -13 -10s-13 0 -20 0h-23c-9 0 -18 -1 -27 -1c-17 0 -20 1 -32 23l-81 155c-11 21 -23 40 -45 40h-36
c-10 0 -9 -9 -9 -17v-123c0 -65 24 -55 50 -57c9 -1 12 -6 12 -10c0 -8 -10 -10 -13 -10c-25 0 -51 3 -77 3s-51 -3 -77 -3c-11 0 -13 6 -13 10s3 9 12 10c26 2 50 -8 50 57zM355 508v-126c0 -13 3 -17 18 -17h34c94 0 111 56 111 93c0 39 -19 91 -102 94h-22
c-27 -1 -39 -4 -39 -44z" />
    <glyph glyph-name="afii10056" unicode="&#x407;" horiz-adv-x="291" 
d="M184 608v-516c0 -65 41 -60 63 -61c7 0 16 -2 16 -16c0 -10 -8 -15 -17 -15c-33 0 -66 6 -98 6s-65 -6 -98 -6c-6 0 -16 1 -16 15s10 16 16 16c21 1 62 -4 62 61v516c0 65 -41 60 -63 61c-5 0 -16 2 -16 16s13 15 17 15c33 0 66 -6 98 -6s65 6 98 6c6 0 16 -1 16 -15
s-10 -16 -16 -16c-21 -1 -62 4 -62 -61zM67 853c26 0 48 -24 48 -61c0 -41 -27 -59 -48 -59c-24 0 -47 21 -47 63c0 34 20 57 47 57zM227 853c26 0 48 -24 48 -61c0 -41 -27 -59 -48 -59c-24 0 -47 21 -47 63c0 34 20 57 47 57z" />
    <glyph glyph-name="degree" unicode="&#xb0;" horiz-adv-x="247" 
d="M14 590c0 73 63 110 109 110c48 0 110 -37 110 -110c0 -71 -62 -109 -110 -109c-47 0 -109 37 -109 109zM55 590c0 -32 22 -68 68 -68c48 0 69 39 69 68c0 27 -22 69 -69 69c-37 0 -68 -29 -68 -69z" />
    <glyph glyph-name="plusminus" unicode="&#xb1;" horiz-adv-x="610" 
d="M23 422h254v233h55v-233h255v-55h-255v-206h-55v206h-254v55zM23 106h564v-55h-564v55z" />
    <glyph glyph-name="afii10055" unicode="&#x406;" horiz-adv-x="286" 
d="M179 608v-516c0 -65 41 -60 63 -61c7 0 16 -2 16 -16c0 -10 -8 -15 -17 -15c-33 0 -66 6 -98 6s-65 -6 -98 -6c-6 0 -16 1 -16 15s10 16 16 16c21 1 62 -4 62 61v516c0 65 -41 60 -63 61c-5 0 -16 2 -16 16s13 15 17 15c33 0 66 -6 98 -6s65 6 98 6c6 0 16 -1 16 -15
s-10 -16 -16 -16c-21 -1 -62 4 -62 -61z" />
    <glyph glyph-name="afii10103" unicode="&#x456;" horiz-adv-x="236" 
d="M158 481v-388c0 -52 11 -63 43 -64c10 0 21 1 21 -14c0 -14 -13 -15 -24 -15c-24 0 -49 4 -73 4c-25 0 -49 -4 -74 -4c-15 0 -25 1 -25 15c0 11 7 13 12 13l12 1c25 2 41 6 41 64v270c0 53 -15 54 -39 54h-9c-7 0 -11 5 -11 10c0 8 6 11 12 14c49 24 72 47 94 76
c3 5 6 7 12 7c10 0 8 -8 8 -43zM77 653c0 27 13 57 45 57s45 -30 45 -57s-13 -57 -45 -57s-45 30 -45 57z" />
    <glyph glyph-name="afii10098" unicode="&#x491;" horiz-adv-x="363" 
d="M89 93v315c0 51 -11 63 -43 64c-9 0 -22 0 -22 14c0 15 15 15 25 15h208c33 0 47 14 71 85c4 12 7 16 15 16c9 0 12 -9 12 -16l-2 -71c-1 -36 3 -46 -19 -46c-21 0 -63 5 -97 5h-66c-5 0 -15 -2 -15 -16v-365c0 -44 8 -64 44 -64c21 0 21 -8 21 -14s-2 -15 -25 -15
c-25 0 -49 4 -73 4c-25 0 -49 -4 -74 -4c-10 0 -25 0 -25 15c0 14 13 14 22 14c32 1 43 13 43 64z" />
    <glyph glyph-name="mu" unicode="&#xb5;" horiz-adv-x="511" 
d="M147 501v-297c0 -58 -4 -172 92 -172c73 0 116 65 116 148v321h67v-379c0 -40 -2 -90 26 -90c14 0 25 13 35 23c10 9 16 1 16 -6c0 -6 -8 -18 -15 -26c-17 -20 -45 -44 -69 -44s-52 23 -53 78c0 8 2 17 -6 17c-6 0 -14 -9 -17 -13c-40 -50 -80 -82 -128 -82
c-34 0 -89 18 -102 98h-4c4 -50 8 -99 11 -149c1 -17 2 -34 4 -51c4 -53 6 -60 6 -75c0 -38 -17 -56 -32 -56c-7 0 -30 3 -30 59c0 33 4 63 9 150c6 109 7 195 7 253v293h67z" />
    <glyph glyph-name="mu" unicode="&#x3bc;" horiz-adv-x="511" 
d="M147 501v-297c0 -58 -4 -172 92 -172c73 0 116 65 116 148v321h67v-379c0 -40 -2 -90 26 -90c14 0 25 13 35 23c10 9 16 1 16 -6c0 -6 -8 -18 -15 -26c-17 -20 -45 -44 -69 -44s-52 23 -53 78c0 8 2 17 -6 17c-6 0 -14 -9 -17 -13c-40 -50 -80 -82 -128 -82
c-34 0 -89 18 -102 98h-4c4 -50 8 -99 11 -149c1 -17 2 -34 4 -51c4 -53 6 -60 6 -75c0 -38 -17 -56 -32 -56c-7 0 -30 3 -30 59c0 33 4 63 9 150c6 109 7 195 7 253v293h67z" />
    <glyph glyph-name="paragraph" unicode="&#xb6;" horiz-adv-x="460" 
d="M290 700h126c15 0 15 -10 16 -15c0 -2 1 -5 0 -7c-1 -3 -4 -9 -16 -9c-47 -2 -67 2 -67 -91v-518c0 -66 -6 -203 -116 -282l-7 -5c-25 -18 -49 -27 -76 -27c-39 0 -61 27 -61 58c0 34 20 51 45 51c21 0 31 -15 42 -35c4 -8 11 -23 29 -23c14 0 30 13 41 27l7 9
c37 48 35 127 35 256v143c-112 -5 -244 49 -244 240c0 111 53 228 246 228z" />
    <glyph glyph-name="periodcentered" unicode="&#xb7;" horiz-adv-x="250" 
d="M41 357c0 47 37 84 84 84c49 0 84 -36 84 -84s-35 -84 -84 -84c-47 0 -84 37 -84 84z" />
    <glyph glyph-name="periodcentered" unicode="&#x2219;" horiz-adv-x="250" 
d="M41 357c0 47 37 84 84 84c49 0 84 -36 84 -84s-35 -84 -84 -84c-47 0 -84 37 -84 84z" />
    <glyph glyph-name="afii10071" unicode="&#x451;" horiz-adv-x="430" 
d="M390 341h-260c-23 0 -30 -10 -30 -85c0 -88 43 -220 165 -220c52 0 85 23 105 48c8 10 16 21 24 21c4 0 9 -2 9 -9c0 -9 -11 -27 -17 -35c-45 -63 -104 -82 -155 -82c-146 0 -203 148 -203 270c0 153 81 273 211 273c98 0 167 -73 167 -163c0 -8 -1 -18 -16 -18zM135 368
h94c49 0 101 2 101 52c0 32 -33 72 -90 72c-39 0 -75 -19 -104 -62c-12 -18 -18 -32 -18 -46c0 -16 9 -16 17 -16zM105 653c0 27 13 57 45 57s45 -30 45 -57s-13 -57 -45 -57s-45 30 -45 57zM266 653c0 27 13 57 45 57s45 -30 45 -57s-13 -57 -45 -57s-45 30 -45 57z" />
    <glyph glyph-name="afii61352" unicode="&#x2116;" horiz-adv-x="927" 
d="M198 677l319 -515v372c0 80 5 129 -41 133l-23 2c-6 1 -16 2 -16 16c0 15 11 15 20 15c26 0 52 -6 78 -6s51 6 79 6c9 0 17 -5 17 -15c0 -27 -32 -10 -56 -24c-21 -12 -23 -32 -23 -129v-510c0 -13 -1 -31 -13 -31c-13 0 -24 25 -33 40l-363 585l2 -331
c1 -122 -19 -238 40 -252c16 -4 39 3 42 -11c1 -2 0 -5 0 -7s1 -4 0 -6s-5 -9 -16 -9c-28 0 -56 6 -83 6c-28 0 -56 -6 -84 -6c-15 0 -15 10 -16 15c0 2 -1 5 0 7c1 3 4 9 16 9c39 1 63 -6 63 91l1 456c0 103 -26 87 -63 91c-12 1 -15 4 -15 16c0 9 5 15 17 15h125
c12 0 15 -5 26 -23zM747 220c-76 0 -136 71 -136 164c0 94 60 165 136 165s136 -71 136 -165c0 -93 -60 -164 -136 -164zM746 242c38 0 91 33 91 143c0 102 -48 142 -91 142c-48 0 -89 -50 -89 -142c0 -87 37 -143 89 -143zM619 102v34h256v-34h-256z" />
    <glyph glyph-name="afii10101" unicode="&#x454;" horiz-adv-x="425" 
d="M394 452l-2 -45c-1 -17 -2 -37 -15 -37c-14 0 -20 17 -27 32c-16 32 -37 90 -101 90c-76 0 -149 -93 -149 -201c0 -13 3 -15 4 -16s3 0 4 0c18 6 41 39 78 39c21 0 43 -15 64 -27s35 -17 46 -17s20 4 27 11c5 4 10 11 18 11c4 0 11 -1 11 -13c0 -8 -4 -13 -9 -17
c-13 -13 -58 -45 -87 -45c-11 0 -21 3 -31 7c-37 16 -58 40 -84 40c-27 0 -37 -23 -37 -53c0 -74 46 -185 161 -185c40 0 76 16 113 53c3 3 8 8 14 8c4 0 6 -2 7 -7v-6c-1 -6 -6 -13 -9 -18c-16 -22 -66 -77 -150 -77c-108 0 -212 85 -212 257c0 165 104 286 237 286
c43 0 101 -18 121 -42c9 -11 8 -20 8 -28z" />
    <glyph glyph-name="guillemotright" unicode="&#xbb;" horiz-adv-x="348" 
d="M234 267l-120 187c-4 6 -3 17 5 17c2 0 4 -1 6 -3l182 -191c3 -3 5 -7 5 -10s-2 -7 -5 -10l-182 -191c-2 -2 -4 -3 -6 -3c-8 0 -9 11 -5 17zM101 267l-64 110c-1 2 -1 4 -1 6c0 7 5 8 9 4l115 -110c10 -10 2 -18 0 -20l-115 -110c-2 -2 -3 -1 -8 -1c-3 0 -1 9 0 11z" />
    <glyph glyph-name="afii10105" unicode="&#x458;" horiz-adv-x="228" 
d="M155 471v-448c0 -146 -26 -179 -94 -247c-6 -6 -27 -30 -39 -30c-9 0 -10 5 -10 10c0 12 22 26 46 77c28 59 30 127 30 185v345c0 47 -10 55 -39 54h-9c-6 0 -10 2 -10 10c0 9 5 11 11 14c52 24 80 61 92 76c3 4 5 7 11 7c15 0 11 -25 11 -53zM74 653c0 27 13 57 45 57
s45 -30 45 -57s-13 -57 -45 -57s-45 30 -45 57z" />
    <glyph glyph-name="afii10054" unicode="&#x405;" horiz-adv-x="420" 
d="M356 666l1 -91c0 -16 1 -27 -11 -27c-9 0 -12 8 -14 18c-12 51 -29 125 -120 125c-64 0 -111 -43 -111 -109c0 -90 62 -121 123 -155c65 -36 164 -91 164 -226c0 -107 -62 -222 -207 -222c-41 0 -72 8 -108 27c-40 21 -41 36 -41 53v51c0 66 -1 90 15 90s15 -18 17 -37
c5 -51 20 -154 125 -154c63 0 136 44 136 152c0 99 -69 140 -139 181c-82 48 -143 91 -143 196c0 90 57 183 182 183c40 0 93 -14 119 -30c7 -5 12 -8 12 -25z" />
    <glyph glyph-name="afii10102" unicode="&#x455;" horiz-adv-x="342" 
d="M293 484v-54c0 -17 1 -41 -12 -41c-8 0 -12 10 -13 14l-7 22c-10 31 -29 72 -83 72c-53 0 -80 -41 -80 -88c0 -31 14 -64 71 -90l37 -17c47 -22 112 -53 112 -154c0 -93 -71 -169 -167 -169c-45 0 -128 24 -127 63l1 71c0 15 -1 48 14 48c10 0 13 -14 14 -20l5 -32
c6 -41 21 -105 96 -105c64 0 103 49 103 106c0 72 -43 94 -73 108c-91 43 -144 67 -144 152c0 95 64 152 152 152c37 0 59 -7 88 -19c13 -6 13 -9 13 -19z" />
    <glyph glyph-name="afii10104" unicode="&#x457;" horiz-adv-x="235" 
d="M158 481v-388c0 -52 11 -63 43 -64c10 0 21 1 21 -14c0 -14 -13 -15 -24 -15c-24 0 -49 4 -73 4c-25 0 -49 -4 -74 -4c-15 0 -25 1 -25 15c0 11 7 13 12 13l12 1c25 2 41 6 41 64v270c0 53 -15 54 -39 54h-9c-7 0 -11 5 -11 10c0 8 6 11 12 14c49 24 72 47 94 76
c3 5 6 7 12 7c10 0 8 -8 8 -43zM-8 653c0 27 13 57 45 57s45 -30 45 -57s-13 -57 -45 -57s-45 30 -45 57zM153 653c0 27 13 57 45 57s45 -30 45 -57s-13 -57 -45 -57s-45 30 -45 57z" />
    <glyph glyph-name="afii10017" unicode="&#x410;" horiz-adv-x="537" 
d="M301 644l167 -545c19 -61 36 -65 59 -67c14 -2 22 -2 22 -18c0 -8 -2 -14 -17 -14c-30 0 -59 6 -88 6c-34 0 -67 -6 -101 -6c-27 0 -26 10 -26 18c0 6 0 16 17 17h17c13 0 40 -1 40 28c0 14 -2 25 -6 37l-40 134c-8 26 -11 27 -24 27h-143c-21 0 -23 -11 -27 -24
l-36 -134c-2 -7 -5 -24 -5 -31c0 -39 44 -39 60 -40c13 -1 21 -3 21 -17c0 -9 -6 -15 -17 -15c-28 0 -56 6 -83 6c-26 0 -52 -4 -79 -6c-3 0 -7 -1 -10 0c-13 2 -14 12 -14 15c0 10 0 17 28 18c25 1 39 3 59 69l159 517c11 37 16 56 22 78c4 15 5 23 14 23
c13 0 14 -12 17 -26c4 -16 9 -35 14 -50zM320 316l-68 225c-1 5 -2 12 -6 12s-5 -6 -7 -12l-67 -228c-6 -19 2 -21 7 -21h130c7 0 18 1 11 24z" />
    <glyph glyph-name="afii10018" unicode="&#x411;" horiz-adv-x="536" 
d="M179 626v-193c0 -19 -1 -31 28 -26c45 7 71 10 92 10c140 0 205 -96 205 -205c0 -112 -65 -216 -209 -216c-52 0 -103 7 -155 7c-32 0 -63 -3 -95 -3c-6 0 -17 1 -17 15c0 6 1 15 16 16l27 2c12 1 36 8 36 62v510c0 48 -19 61 -36 62l-27 2c-6 0 -16 2 -16 16
c0 13 9 15 17 15c16 0 31 -1 47 -2c19 -1 37 -1 56 -1h157c71 0 95 2 135 3h8c4 0 8 -3 8 -8v-9c-1 -17 -2 -37 -2 -69c0 -16 1 -32 1 -48v-8c0 -8 -1 -18 -12 -18c-5 0 -11 2 -17 22l-7 22c-24 75 -78 79 -107 79h-49c-91 0 -84 -3 -84 -37zM179 347v-177
c0 -86 -4 -144 85 -144c98 0 160 71 160 185c0 112 -68 174 -162 174c-81 0 -83 -18 -83 -38z" />
    <glyph glyph-name="afii10019" unicode="&#x412;" horiz-adv-x="558" 
d="M119 92v515c0 63 -19 71 -55 62c-12 -3 -18 -7 -24 -7c-4 0 -12 2 -12 13c0 14 12 17 19 19c31 9 70 27 205 27c58 0 243 -1 243 -166c0 -117 -76 -151 -128 -159v-4c80 -11 159 -69 159 -194c0 -106 -61 -202 -214 -202c-53 0 -105 7 -157 7c-32 0 -63 -3 -96 -3
c-6 0 -19 1 -19 15c0 9 5 15 18 16c21 1 61 -4 61 61zM191 636v-198c0 -17 -3 -35 32 -35h60c85 0 132 58 132 139c0 76 -38 152 -148 152c-74 0 -76 -26 -76 -58zM191 342v-181c0 -77 -4 -136 96 -136c120 0 159 88 159 171c0 71 -25 176 -174 176h-57
c-26 0 -24 -21 -24 -30z" />
    <glyph glyph-name="afii10020" unicode="&#x413;" horiz-adv-x="434" 
d="M107 122v486c0 66 -40 58 -64 61c-12 1 -15 4 -15 16c0 13 9 15 17 15c16 0 32 -1 48 -2c20 -1 39 -1 59 -1h139c107 0 107 3 133 3c9 0 14 0 14 -18v-22c0 -17 0 -35 -1 -52c0 -17 -1 -35 -1 -52v-12c0 -6 -1 -15 -12 -15s-13 5 -21 27l-9 25c-23 64 -46 84 -154 84
c-34 0 -45 -2 -52 -7c-11 -9 -9 -21 -9 -32v-504c0 -38 -3 -84 45 -88l34 -3c12 -1 15 -4 15 -16c0 -13 -9 -15 -17 -15c-35 0 -70 6 -105 6s-70 -6 -106 -6c-6 0 -17 1 -17 15c0 13 9 15 16 16c34 3 63 -12 63 91z" />
    <glyph glyph-name="afii10021" unicode="&#x414;" horiz-adv-x="560" 
d="M462 578v-473c0 -27 -2 -70 50 -74c7 -1 13 -1 20 0c4 0 8 1 12 1c5 0 12 0 12 -13c0 -9 -2 -40 -3 -56l-3 -66c-1 -28 6 -78 -19 -78c-13 0 -13 10 -14 16l-3 22c-11 80 -18 110 -32 126c-19 20 -51 19 -71 19c-39 0 -57 -2 -88 -2h-126c-47 0 -102 6 -135 -18
c-23 -17 -37 -53 -42 -90l-7 -49c-1 -10 -3 -24 -17 -24c-23 0 -16 45 -16 73v56c0 79 -2 83 12 84h14h11c26 1 46 12 75 84c47 118 86 345 86 478c0 75 -26 73 -70 75c-6 0 -16 2 -16 16c0 15 14 15 17 15c30 0 58 -2 87 -2c24 0 49 2 73 2h67c31 0 62 -2 93 -2s63 3 95 2
c11 0 15 -6 16 -9c1 -2 0 -4 0 -6s1 -5 0 -7c-1 -4 -6 -9 -10 -9h-5c-45 0 -63 0 -63 -91zM390 141v467c0 58 -24 58 -62 58h-56c-55 0 -56 -35 -59 -83c-15 -280 -69 -447 -97 -516c-4 -10 -7 -18 11 -25c14 -6 51 -8 72 -8h108c63 0 83 -5 83 107z" />
    <glyph glyph-name="afii10022" unicode="&#x415;" horiz-adv-x="492" 
d="M107 122v456c0 103 -25 88 -63 91c-6 1 -16 2 -16 16c0 13 10 15 18 15c28 0 55 -3 83 -3h170c28 0 89 1 113 2c29 2 33 3 33 -8c0 -8 -1 -17 -1 -31l-1 -47v-47v-12s0 -15 -9 -15c-11 0 -12 10 -17 23l-10 28c-18 51 -34 76 -138 76c-89 0 -90 -5 -90 -40v-193
c0 -16 0 -31 27 -31h78c52 0 63 29 70 55l5 19c3 12 8 15 14 15c5 0 11 -3 11 -17c0 -25 -15 -87 -1 -199c4 -34 -10 -35 -13 -35c-12 0 -12 13 -18 45c-14 83 -48 86 -99 86h-56c-9 0 -18 0 -18 -28v-202c0 -80 20 -107 76 -107h58c66 0 105 27 128 116c3 10 5 25 17 25
c9 0 10 -9 10 -15c0 -17 -6 -45 -11 -78c-2 -20 -1 -20 -4 -52c-2 -14 -2 -22 -5 -27c-4 -5 -9 -4 -17 -4l-99 1c-85 1 -144 6 -174 6c-37 0 -73 -6 -110 -6c-7 0 -19 0 -19 15c0 13 9 15 16 16c36 4 62 -12 62 91z" />
    <glyph glyph-name="afii10024" unicode="&#x416;" horiz-adv-x="822" 
d="M286 364v4c-64 18 -90 89 -99 122l-20 75c-6 24 -16 81 -39 81c-12 0 -16 -10 -19 -19s-13 -35 -39 -35c-16 0 -47 11 -47 55c0 38 23 64 58 64c69 0 96 -70 109 -113l24 -80c14 -48 48 -138 123 -138h6c27 0 32 2 32 26v172c0 101 -26 90 -62 91c-12 0 -15 6 -16 9
c-1 2 0 5 0 7c1 6 1 15 16 15c33 0 65 -6 98 -6s65 6 98 6c15 0 15 -9 16 -15c0 -2 1 -5 0 -7c-1 -3 -4 -9 -16 -9c-36 -1 -62 10 -62 -91v-172c0 -24 5 -26 32 -26h6c75 0 109 90 123 138l24 80c13 43 40 113 109 113c35 0 58 -26 58 -64c0 -43 -30 -55 -47 -55
c-26 0 -36 26 -39 35s-7 19 -19 19c-23 0 -33 -57 -39 -81l-20 -75c-9 -33 -35 -104 -99 -122v-4c68 -6 103 -60 126 -107l71 -142c23 -46 38 -83 74 -84h12c10 0 15 -7 15 -16c0 -14 -10 -15 -17 -15h-21c-27 0 -36 -2 -51 -2c-30 0 -53 24 -65 49l-75 159
c-64 135 -94 144 -133 144c-29 0 -25 -10 -25 -27v-201c0 -102 25 -89 63 -91c4 0 13 -1 15 -9c1 -2 0 -5 0 -7s1 -4 0 -6c-1 -3 -5 -9 -16 -9c-34 0 -66 6 -98 6s-64 -6 -98 -6c-11 0 -15 6 -16 9c-1 2 0 4 0 6s-1 5 0 7c2 8 11 9 15 9c38 2 63 -11 63 91v201
c0 17 4 27 -25 27c-39 0 -69 -9 -133 -144l-75 -159c-10 -21 -30 -49 -65 -49c-36 0 -12 2 -51 2h-21s-17 1 -17 15c0 9 5 16 15 16h12c36 1 51 38 74 84l71 142c23 47 58 101 126 107z" />
    <glyph glyph-name="afii10025" unicode="&#x417;" horiz-adv-x="481" 
d="M194 405h29c100 0 122 79 122 140c0 58 -20 146 -111 146c-89 0 -119 -64 -137 -120c-7 -20 -8 -37 -23 -37c-18 0 -16 18 -14 38l7 66c3 32 5 40 18 48c27 18 96 35 150 35c130 0 190 -73 190 -165c0 -71 -40 -148 -127 -166v-5c79 -12 151 -70 151 -183
c0 -131 -91 -223 -222 -223c-91 0 -159 40 -183 65c-8 9 -10 15 -11 26l-4 68c-2 34 -2 48 15 48c6 0 13 -1 18 -17l6 -20c13 -45 47 -140 152 -140c90 0 149 76 149 193c0 121 -77 169 -151 169h-35c-6 0 -17 -1 -14 8l6 20c2 6 3 6 19 6z" />
    <glyph glyph-name="afii10026" unicode="&#x418;" horiz-adv-x="659" 
d="M179 186l301 403v4c0 85 -32 73 -63 76c-12 1 -15 4 -15 16c0 13 9 15 17 15c32 0 65 -6 97 -6c33 0 65 6 98 6c6 0 17 -1 17 -15c0 -6 -1 -15 -16 -16l-26 -2c-35 -3 -37 -46 -37 -89v-456c0 -39 0 -86 37 -89l27 -2c12 -1 15 -4 15 -16c0 -13 -9 -15 -17 -15
c-33 0 -65 6 -98 6c-32 0 -64 -6 -97 -6c-6 0 -17 1 -17 15c0 6 1 15 16 16l26 2c40 3 36 59 36 89v414l-301 -402v-22c0 -37 1 -76 37 -79l26 -2c12 -1 15 -4 15 -16c0 -14 -11 -15 -17 -15c-33 0 -65 6 -97 6c-33 0 -65 -6 -98 -6c-6 0 -17 1 -17 15c0 6 1 15 16 16l26 2
c37 3 37 47 37 89v456c0 42 0 86 -37 89l-27 2c-12 1 -15 4 -15 16c0 13 9 15 17 15c33 0 66 -6 98 -6s63 6 97 6c9 0 17 -5 17 -15c0 -14 -9 -15 -16 -16l-25 -2c-38 -3 -37 -46 -37 -89v-392z" />
    <glyph glyph-name="afii10027" unicode="&#x419;" horiz-adv-x="659" 
d="M179 186l301 403v4c0 85 -32 73 -63 76c-12 1 -15 4 -15 16c0 13 9 15 17 15c32 0 65 -6 97 -6c33 0 65 6 98 6c6 0 17 -1 17 -15c0 -6 -1 -15 -16 -16l-26 -2c-35 -3 -37 -46 -37 -89v-456c0 -39 0 -86 37 -89l27 -2c12 -1 15 -4 15 -16c0 -13 -9 -15 -17 -15
c-33 0 -65 6 -98 6c-32 0 -64 -6 -97 -6c-6 0 -17 1 -17 15c0 6 1 15 16 16l26 2c40 3 36 59 36 89v414l-301 -402v-22c0 -37 1 -76 37 -79l26 -2c12 -1 15 -4 15 -16c0 -14 -11 -15 -17 -15c-33 0 -65 6 -97 6c-33 0 -65 -6 -98 -6c-6 0 -17 1 -17 15c0 6 1 15 16 16l26 2
c37 3 37 47 37 89v456c0 42 0 86 -37 89l-27 2c-12 1 -15 4 -15 16c0 13 9 15 17 15c33 0 66 -6 98 -6s63 6 97 6c9 0 17 -5 17 -15c0 -14 -9 -15 -16 -16l-25 -2c-38 -3 -37 -46 -37 -89v-392zM483 856c-28 -77 -79 -140 -147 -140c-81 0 -114 60 -114 87c0 29 35 88 58 88
c12 0 12 -13 12 -21v-30c0 -55 34 -70 64 -70c24 0 52 13 80 67c14 27 23 52 36 52c6 0 15 -2 15 -14c0 -7 -2 -13 -4 -19z" />
    <glyph glyph-name="afii10028" unicode="&#x41a;" horiz-adv-x="567" 
d="M107 122v456c0 102 -25 89 -63 91c-7 0 -16 2 -16 16c0 4 1 15 21 15c32 0 63 -6 94 -6c33 0 65 6 98 6c6 0 17 -1 17 -15c0 -13 -9 -15 -16 -16c-34 -3 -63 12 -63 -91v-172c0 -24 5 -26 32 -26h18c37 0 90 24 123 137l24 82c12 42 41 112 109 112c35 0 58 -26 58 -64
c0 -37 -24 -55 -46 -55c-24 0 -34 20 -39 34c-4 10 -8 20 -20 20c-23 0 -33 -57 -39 -81l-20 -75c-23 -87 -68 -113 -99 -122v-4c55 -9 90 -46 123 -109l73 -141c24 -46 41 -81 75 -83h12c11 0 16 -7 16 -16c0 -5 -3 -14 -17 -15h-22c-31 0 -20 -2 -46 -2
c-48 0 -67 41 -81 69l-81 167c-57 117 -94 116 -121 116c-38 0 -32 -8 -32 -27v-201c0 -98 24 -89 63 -91c6 0 16 -2 16 -16c0 -13 -9 -15 -17 -15c-33 0 -65 6 -98 6s-65 -6 -98 -6c-15 0 -15 9 -16 15c0 2 -1 5 0 7c1 3 4 9 16 9c36 1 62 -10 62 91z" />
    <glyph glyph-name="afii10029" unicode="&#x41b;" horiz-adv-x="571" 
d="M393 122v486c0 55 -26 58 -63 58h-51c-54 0 -50 -20 -58 -162c-5 -86 -12 -172 -28 -265c-38 -223 -108 -260 -152 -260c-28 0 -53 17 -53 52c0 54 40 57 50 57c16 0 22 -7 28 -12c5 -4 13 -9 18 -9c39 0 97 178 97 508c0 106 -34 92 -68 94c-6 0 -16 2 -16 16
c0 17 17 15 21 15c72 -5 94 0 149 0h72c30 0 60 -4 90 -4c32 0 64 4 97 4c6 0 17 -1 17 -15c0 -12 -3 -15 -15 -16c-26 -3 -63 5 -63 -61v-486c0 -103 25 -87 63 -91c12 -1 15 -4 15 -16c0 -14 -11 -15 -17 -15c-33 0 -66 6 -98 6s-65 -6 -98 -6c-15 0 -16 10 -16 15
c0 2 -1 5 0 7c1 3 4 9 16 9c39 1 63 -6 63 91z" />
    <glyph glyph-name="afii10030" unicode="&#x41c;" horiz-adv-x="745" 
d="M214 682l159 -498c3 -8 5 -12 6 -12s2 4 5 12l170 503c3 10 10 13 24 13c20 0 38 -2 56 -2c19 0 38 2 57 2c8 0 17 -2 17 -15c0 -17 -11 -16 -29 -17c-38 -2 -49 -12 -47 -75l14 -490c2 -60 16 -70 46 -71c16 -1 28 0 28 -17c0 -13 -9 -15 -17 -15c-33 0 -66 6 -99 6
s-65 -6 -98 -6c-7 0 -18 2 -18 15s8 15 16 16c35 3 72 -12 70 91l-10 468c0 9 -2 13 -4 13s-4 -3 -7 -11l-169 -505c-4 -13 -7 -19 -19 -52c-2 -4 -4 -11 -9 -11c-6 0 -9 7 -10 11c-2 7 -5 15 -7 22c-3 10 -7 20 -10 30l-162 502c-1 3 -3 5 -4 5c-2 0 -3 -3 -3 -8l-18 -446
c-5 -122 24 -107 68 -109c9 0 13 -2 14 -4c2 -2 3 -9 3 -12c0 -13 -9 -15 -17 -15c-28 0 -57 6 -85 6c-27 0 -54 -6 -82 -6c-6 0 -18 1 -18 15c0 13 8 15 16 16c34 3 58 -11 64 95l26 471c3 56 -8 70 -33 72c-10 1 -20 0 -30 0c-3 0 -16 1 -16 16c0 14 15 15 20 15
c18 0 26 -2 67 -2c37 0 33 2 61 2c9 0 9 -1 14 -18z" />
    <glyph glyph-name="afii10031" unicode="&#x41d;" horiz-adv-x="652" 
d="M106 122v456c0 102 -25 89 -63 91c-4 0 -13 1 -15 9c-1 2 0 5 0 7s-1 4 0 6c1 3 5 9 16 9c33 0 66 -6 98 -6s65 6 98 6c15 0 15 -9 16 -15c0 -2 1 -5 0 -7c-1 -3 -4 -9 -16 -9c-36 -1 -62 10 -62 -91v-178c0 -5 1 -10 8 -10h280c7 0 8 5 8 10v178c0 102 -25 89 -63 91
c-4 0 -13 1 -15 9c-1 2 0 5 0 7s-1 4 0 6c1 3 5 9 16 9c33 0 66 -6 98 -6s65 6 98 6c15 0 15 -9 16 -15c0 -2 1 -5 0 -7c-1 -3 -4 -9 -16 -9c-36 -1 -62 10 -62 -91v-456c0 -102 25 -89 63 -91c4 0 13 -1 15 -9c1 -2 0 -5 0 -7s1 -4 0 -6c-1 -3 -5 -9 -16 -9
c-33 0 -66 6 -98 6s-65 -6 -98 -6c-15 0 -15 9 -16 15c0 2 -1 5 0 7c1 3 4 9 16 9c36 1 62 -10 62 91v227c0 5 -1 10 -8 10h-280c-7 0 -8 -5 -8 -10v-227c0 -102 25 -89 63 -91c4 0 13 -1 15 -9c1 -2 0 -5 0 -7s1 -4 0 -6c-1 -3 -5 -9 -16 -9c-33 0 -66 6 -98 6
s-65 -6 -98 -6c-15 0 -15 9 -16 15c0 2 -1 5 0 7c1 3 4 9 16 9c36 1 62 -10 62 91z" />
    <glyph glyph-name="afii10032" unicode="&#x41e;" horiz-adv-x="693" 
d="M347 -21c-200 0 -311 188 -311 376c0 170 112 366 316 366c196 0 305 -186 305 -371c0 -194 -124 -371 -310 -371zM347 9c138 0 230 147 230 330c0 212 -101 352 -230 352c-114 0 -231 -105 -231 -336c0 -242 124 -346 231 -346z" />
    <glyph glyph-name="afii10033" unicode="&#x41f;" horiz-adv-x="662" 
d="M106 122v456c0 103 -25 87 -63 91c-12 1 -15 4 -15 16c0 14 11 15 17 15c33 0 65 -6 97 -6c47 0 95 6 143 6h92c48 0 95 -6 142 -6c32 0 64 6 98 6c9 0 17 -5 17 -15c0 -14 -9 -16 -16 -16c-36 -2 -62 11 -62 -91v-456c0 -103 25 -87 63 -91c12 -1 15 -4 15 -16
c0 -14 -11 -15 -17 -15c-33 0 -65 6 -97 6c-33 0 -65 -6 -98 -6c-6 0 -17 1 -17 15c0 13 9 15 16 16c34 3 63 -12 63 91v463c0 50 -5 81 -112 81h-83c-108 0 -111 -30 -111 -81v-463c0 -98 24 -89 63 -91c6 0 16 -2 16 -16c0 -13 -9 -15 -17 -15c-33 0 -66 6 -98 6
s-63 -6 -97 -6c-9 0 -17 5 -17 15c0 14 9 16 16 16c36 2 62 -11 62 91z" />
    <glyph glyph-name="afii10034" unicode="&#x420;" horiz-adv-x="492" 
d="M107 122v456c0 67 -4 88 -50 91c-15 0 -29 -2 -29 16c0 5 1 15 21 15c32 0 63 -4 95 -4c26 0 52 3 78 5c14 1 29 2 43 2c35 0 215 -2 215 -195c0 -135 -96 -202 -187 -202c-29 0 -58 6 -81 14c-18 6 -21 8 -24 8c-10 0 -9 -13 -9 -24v-182c0 -91 24 -88 79 -91
c4 0 13 -1 15 -9c1 -2 0 -5 0 -7s1 -4 0 -6c-1 -3 -5 -9 -16 -9c-36 0 -71 6 -106 6s-70 -6 -106 -6c-15 0 -15 9 -16 15c0 2 -1 5 0 7c5 14 27 8 41 11c38 8 37 38 37 89zM179 583v-191c0 -22 4 -26 13 -31c18 -9 51 -17 77 -17c67 0 136 50 136 165c0 99 -53 160 -153 160
c-24 0 -55 -1 -67 -23c-4 -8 -6 -19 -6 -63z" />
    <glyph glyph-name="afii10035" unicode="&#x421;" horiz-adv-x="564" 
d="M530 635l3 -50c1 -19 6 -40 -10 -40c-9 0 -12 8 -16 16l-14 30c-19 41 -51 100 -144 100c-149 0 -233 -141 -233 -333c0 -219 105 -349 232 -349c31 0 59 9 83 28c37 29 58 76 80 135c2 6 4 12 13 12c22 0 11 -47 10 -70l-2 -36c-1 -18 2 -33 -34 -55
c-44 -27 -104 -44 -162 -44c-165 0 -300 148 -300 366c0 182 107 376 316 376c61 0 133 -21 160 -37c13 -8 16 -15 18 -49z" />
    <glyph glyph-name="afii10036" unicode="&#x422;" horiz-adv-x="519" 
d="M98 700h361c21 0 23 8 26 20s6 25 16 25c15 0 14 -21 14 -36l-3 -93c-1 -46 2 -71 -17 -71c-11 0 -12 10 -14 20l-5 21c-8 34 -18 81 -66 81h-91c-19 0 -21 -6 -21 -21v-524c0 -48 1 -86 40 -89l29 -2c12 -1 15 -5 15 -16c0 -13 -9 -15 -17 -15c-34 0 -68 6 -102 6
c-35 0 -69 -6 -104 -6c-8 0 -17 2 -17 15c0 11 3 15 15 16l30 2c37 2 39 41 39 89v524c0 18 -2 21 -47 21c-58 0 -99 2 -141 -89c-6 -14 -11 -35 -26 -35c-5 0 -12 5 -12 15c0 3 1 10 6 32l32 134c2 9 6 22 19 22s12 -12 13 -26c2 -20 16 -20 28 -20z" />
    <glyph glyph-name="afii10037" unicode="&#x423;" horiz-adv-x="538" 
d="M152 606l142 -340c4 -11 5 -24 12 -24s7 13 12 25l104 269c8 20 24 72 24 92c0 39 -40 39 -53 40l-14 1c-4 0 -14 2 -14 16s15 15 20 15c27 0 53 -4 80 -4c26 0 53 4 79 4c14 0 22 -1 22 -15c0 -10 -5 -16 -15 -17l-13 -1c-40 -3 -30 7 -91 -153l-130 -341
c-20 -52 -68 -194 -158 -194c-32 0 -57 24 -57 57s22 52 45 52c21 0 30 -13 41 -27c5 -6 12 -15 22 -15c15 0 35 21 52 78c6 22 2 26 -4 40l-169 396c-28 65 -42 103 -70 107l-16 2c-11 1 -15 8 -15 17c0 14 11 14 19 14c29 0 58 -6 87 -6c34 0 68 6 101 6
c19 0 26 -4 26 -18c0 -17 -13 -17 -19 -17h-17c-13 0 -40 0 -40 -32c0 -10 3 -18 7 -27z" />
    <glyph glyph-name="afii10038" unicode="&#x424;" horiz-adv-x="700" 
d="M386 122v-30c0 -65 41 -60 63 -61c4 0 13 -1 15 -9c1 -2 0 -5 0 -7s1 -4 0 -6c-1 -3 -5 -9 -16 -9c-33 0 -66 6 -98 6s-65 -6 -98 -6c-15 0 -15 9 -16 15c0 2 -1 5 0 7c1 3 4 9 16 9c21 1 62 -4 62 61v30c-86 -2 -278 18 -278 251c0 215 179 250 278 247v9
c0 65 -41 60 -63 61c-4 0 -13 1 -15 9c-1 2 0 5 0 7s-1 4 0 6c1 3 5 9 16 9c33 0 66 -6 98 -6s65 6 98 6c15 0 15 -9 16 -15c0 -2 1 -5 0 -7c-1 -3 -4 -9 -16 -9c-21 -1 -62 4 -62 -61v-9c86 2 278 -18 278 -251c0 -215 -179 -250 -278 -247zM314 150v442
c-94 10 -198 -50 -198 -220c0 -179 109 -231 198 -222zM386 592v-442c94 -10 198 50 198 220c0 179 -109 231 -198 222z" />
    <glyph glyph-name="afii10039" unicode="&#x425;" horiz-adv-x="601" 
d="M214 591l96 -161c3 -6 10 -5 13 0l82 148c19 34 30 50 30 67c0 29 -34 22 -49 23c-10 0 -23 3 -23 17c0 10 4 14 12 15h5c34 -1 69 -3 103 -3c29 0 57 3 88 3c6 0 18 0 18 -15c0 -12 -5 -17 -27 -18c-41 -2 -76 -14 -141 -124l-88 -148l178 -302c33 -57 39 -58 63 -61
c12 -1 23 -3 23 -18c0 -14 -12 -14 -19 -14c-29 0 -58 6 -87 6c-33 0 -67 -6 -100 -6c-10 0 -27 1 -27 18c0 14 10 16 15 17c6 1 11 0 16 0c16 -1 41 0 41 21c0 15 -10 31 -23 53l-118 198c-5 9 -7 9 -12 0l-115 -198c-8 -14 -17 -33 -17 -49c0 -20 16 -28 40 -28
c34 0 41 0 41 -17c0 -14 -12 -15 -17 -15c-36 0 -70 4 -105 4c-25 0 -50 -2 -75 -4h-9c-13 1 -15 11 -15 15c0 17 13 17 28 18c37 2 50 7 102 95l130 219l-142 231c-35 57 -49 86 -86 91c-22 3 -39 -5 -39 17c0 14 11 14 16 14c31 0 60 -5 89 -5c45 0 90 5 137 5
c21 0 22 -10 22 -17s-1 -17 -17 -18h-12h-15c-8 0 -33 -1 -33 -21c0 -7 3 -19 23 -53z" />
    <glyph glyph-name="afii10040" unicode="&#x426;" horiz-adv-x="669" 
d="M107 122v456c0 43 -2 86 -37 89l-27 2c-10 1 -15 7 -15 16c0 13 8 15 17 15c33 0 65 -6 98 -6c32 0 64 6 97 6c6 0 17 -1 17 -15s-12 -16 -16 -16l-26 -2c-40 -3 -36 -59 -36 -89v-447c0 -63 -5 -97 112 -97h82c86 0 111 4 111 97v447c0 103 -25 87 -63 91
c-12 1 -15 4 -15 16c0 14 11 15 17 15c33 0 65 -6 97 -6c33 0 65 6 98 6c6 0 17 -1 17 -15c0 -6 -1 -15 -16 -16l-26 -2c-37 -3 -37 -47 -37 -89v-473c0 -32 0 -70 50 -74h16c4 0 8 1 13 1s11 -1 11 -13c0 -9 -2 -41 -3 -56l-3 -66c-2 -41 4 -78 -20 -78c-13 0 -13 9 -14 16
l-6 48c-5 40 -7 80 -27 100c-31 31 -107 17 -160 17h-128c-48 0 -95 6 -142 6c-33 0 -65 -6 -98 -6c-6 0 -17 1 -17 15c0 6 1 15 16 16l26 2c35 3 37 46 37 89z" />
    <glyph glyph-name="afii10041" unicode="&#x427;" horiz-adv-x="586" 
d="M407 122v219c0 2 0 13 -9 7c-19 -13 -84 -49 -153 -49c-155 0 -170 121 -170 205v74c0 30 5 86 -32 89l-23 2c-11 1 -16 4 -16 16c0 10 8 15 17 15c32 0 63 -6 94 -6s63 6 94 6c8 0 17 -2 17 -15c0 -12 -3 -15 -15 -16l-27 -2c-35 -3 -37 -46 -37 -89v-70
c0 -71 6 -158 118 -158c41 0 86 10 117 27c24 13 25 22 25 49v152c0 103 -25 87 -63 91c-9 1 -16 3 -16 16c0 10 8 15 17 15c33 0 65 -6 98 -6s65 6 98 6c8 0 17 -2 17 -15c0 -12 -3 -15 -15 -16l-27 -2c-37 -3 -37 -50 -37 -89v-456c0 -43 2 -86 37 -89l27 -2
c12 -1 15 -4 15 -16c0 -13 -9 -15 -17 -15c-33 0 -65 6 -98 6s-65 -6 -98 -6c-6 0 -17 1 -17 15c0 6 1 15 16 16l27 2c40 3 36 59 36 89z" />
    <glyph glyph-name="afii10042" unicode="&#x428;" horiz-adv-x="894" 
d="M179 578v-447c0 -93 25 -97 111 -97h9c87 0 112 4 112 97v447c0 102 -25 89 -63 91c-7 0 -16 2 -16 16c0 10 8 15 17 15c33 0 66 -6 98 -6s65 6 98 6c6 0 16 -1 16 -15s-10 -16 -16 -16c-36 -2 -62 11 -62 -91v-447c0 -93 25 -97 111 -97h10c86 0 111 4 111 97v447
c0 102 -25 89 -63 91c-7 0 -16 2 -16 16s15 15 20 15c32 0 64 -6 95 -6c32 0 64 6 96 6c7 0 18 -1 18 -15s-10 -16 -16 -16c-36 -2 -62 11 -62 -91v-456c0 -102 25 -89 63 -91c7 0 16 -2 16 -16c0 -10 -8 -15 -17 -15c-33 0 -66 6 -98 6c-47 0 -94 -6 -142 -6h-20
c-48 0 -95 6 -143 6c-47 0 -94 -6 -141 -6h-20c-48 0 -95 6 -142 6c-33 0 -65 -6 -98 -6c-6 0 -16 1 -16 15s10 16 16 16c36 2 62 -11 62 91v456c0 102 -25 89 -63 91c-7 0 -16 2 -16 16c0 10 8 15 17 15c33 0 66 -6 98 -6s65 6 98 6c6 0 16 -1 16 -15s-10 -16 -16 -16
c-36 -2 -62 11 -62 -91z" />
    <glyph glyph-name="afii10043" unicode="&#x429;" horiz-adv-x="899" 
d="M178 578v-447c0 -93 28 -97 112 -97h8c117 0 112 34 112 97v447c0 35 3 86 -36 89l-27 2c-4 0 -15 1 -15 16s11 15 20 15c31 0 63 -6 94 -6c32 0 64 6 97 6c6 0 18 -1 18 -15c0 -11 -6 -15 -16 -16l-26 -2c-35 -3 -37 -46 -37 -89v-447c0 -93 28 -97 112 -97h9
c116 0 111 34 111 97v447c0 39 2 86 -36 89l-27 2c-12 1 -15 4 -15 16c0 13 9 15 17 15c32 0 65 -6 97 -6c33 0 65 6 98 6c6 0 17 -1 17 -15c0 -6 -1 -15 -16 -16l-26 -2c-35 -3 -37 -46 -37 -89v-473c0 -32 0 -70 50 -74h16c4 0 8 1 13 1s11 -1 11 -13c0 -9 -2 -41 -3 -56
l-3 -66c-2 -41 4 -78 -20 -78c-13 0 -13 9 -14 16l-6 48c-5 40 -7 80 -27 100c-31 31 -107 17 -160 17h-55c-48 0 -95 6 -142 6s-94 -6 -142 -6h-19c-48 0 -96 6 -143 6c-32 0 -64 -6 -97 -6c-4 0 -17 1 -17 15c0 11 6 15 16 16l26 2c40 3 36 59 36 89v456c0 30 4 86 -36 89
l-27 2c-4 0 -15 1 -15 16s11 15 20 15c31 0 63 -6 94 -6c32 0 63 6 96 6c5 0 19 -1 19 -15c0 -11 -6 -15 -16 -16l-26 -2c-35 -3 -37 -46 -37 -89z" />
    <glyph glyph-name="afii10044" unicode="&#x42a;" horiz-adv-x="626" 
d="M282 578v-144c0 -14 -2 -33 28 -27c27 5 60 10 91 10c138 0 205 -93 205 -206c0 -82 -42 -215 -204 -215c-54 0 -107 7 -160 7c-31 0 -63 -3 -94 -3c-8 0 -17 2 -17 15c0 12 3 15 15 16l28 2c36 3 36 48 36 75v541c0 16 -1 21 -40 21c-69 0 -95 -14 -132 -91l-11 -23
c-3 -6 -7 -13 -16 -13c-5 0 -11 3 -11 14c0 17 9 42 24 110c12 55 13 79 30 79c9 0 13 -4 14 -14v-12c2 -19 17 -20 28 -20h247c6 0 18 0 18 -15c0 -6 -1 -15 -16 -16l-27 -2c-40 -3 -36 -59 -36 -89zM282 347v-182c0 -86 -2 -139 92 -139c106 0 152 89 152 184
c0 112 -66 175 -165 175c-78 0 -79 -18 -79 -38z" />
    <glyph glyph-name="afii10045" unicode="&#x42b;" horiz-adv-x="765" 
d="M107 122v456c0 43 1 86 -37 89l-26 2c-6 0 -16 2 -16 16s10 15 19 15c32 0 64 -6 96 -6s63 6 95 6c8 0 19 -1 19 -15s-10 -16 -16 -16l-25 -2c-38 -3 -37 -46 -37 -89v-144c0 -15 -2 -32 28 -27c40 7 69 10 91 10c163 0 206 -121 206 -206c0 -112 -67 -215 -205 -215
c-54 0 -107 7 -160 7c-31 0 -62 -3 -94 -3c-6 0 -17 1 -17 15s12 16 17 16l25 2c38 3 37 46 37 89zM179 347v-182c0 -86 -2 -139 92 -139c106 0 153 89 153 184c0 112 -65 175 -164 175c-74 0 -81 -14 -81 -38zM586 122v456c0 43 1 86 -37 89l-26 2c-12 1 -15 4 -15 16
c0 14 11 15 17 15c33 0 65 -6 97 -6c33 0 65 6 98 6c6 0 17 -1 17 -15c0 -6 -1 -15 -16 -16l-26 -2c-37 -3 -37 -47 -37 -89v-456c0 -42 0 -86 37 -89l26 -2c6 0 16 -2 16 -16c0 -13 -9 -15 -17 -15c-33 0 -66 3 -98 3s-63 -3 -97 -3c-8 0 -17 5 -17 15c0 14 9 15 16 16
l25 2c38 3 37 46 37 89z" />
    <glyph glyph-name="afii10046" unicode="&#x42c;" horiz-adv-x="524" 
d="M107 122v456c0 43 1 86 -37 89l-26 2c-6 0 -16 2 -16 16s10 15 19 15c32 0 64 -6 96 -6s63 6 95 6c8 0 19 -1 19 -15s-10 -16 -16 -16l-25 -2c-38 -3 -37 -46 -37 -89v-144c0 -15 -2 -32 28 -27c40 7 69 10 91 10c163 0 206 -121 206 -206c0 -112 -67 -215 -205 -215
c-54 0 -107 7 -160 7c-31 0 -62 -3 -94 -3c-6 0 -17 1 -17 15s12 16 17 16l25 2c38 3 37 46 37 89zM179 347v-182c0 -86 -2 -139 92 -139c106 0 153 89 153 184c0 112 -65 175 -164 175c-74 0 -81 -14 -81 -38z" />
    <glyph glyph-name="afii10047" unicode="&#x42d;" horiz-adv-x="568" 
d="M282 392h144c8 0 21 0 20 24c-8 137 -88 275 -216 275c-65 0 -112 -34 -135 -82l-23 -48c-4 -9 -7 -16 -15 -16c-16 0 -12 16 -11 29l4 56c3 41 1 45 18 54c35 18 101 37 163 37c198 0 301 -174 301 -354c0 -184 -103 -388 -313 -388c-83 0 -150 35 -174 60
c-9 10 -13 21 -14 39l-1 36c-1 25 -11 70 9 70c9 0 12 -5 14 -12l17 -49c16 -47 63 -114 152 -114c169 0 229 185 230 311c0 40 -3 41 -18 41h-125c-79 0 -86 -29 -94 -66l-7 -33c-3 -15 -6 -30 -18 -30c-15 0 -12 20 -11 35c8 92 7 147 3 186c-1 12 -3 30 12 30
c4 0 10 -3 13 -14l5 -21c7 -28 17 -56 70 -56z" />
    <glyph glyph-name="afii10048" unicode="&#x42e;" horiz-adv-x="949" 
d="M186 384h122c10 167 126 337 307 337c189 0 298 -187 298 -371c0 -194 -125 -371 -303 -371c-189 0 -306 189 -303 374h-121c-4 0 -7 -3 -7 -9v-222c0 -43 -1 -86 37 -89l26 -2c7 -1 16 -2 16 -16c0 -10 -8 -15 -17 -15c-33 0 -66 6 -98 6s-65 -6 -98 -6
c-6 0 -16 1 -16 15s10 16 16 16l25 2c38 3 37 46 37 89v456c0 43 1 86 -37 89l-26 2c-6 0 -16 2 -16 16s14 15 19 15c32 0 64 -6 96 -6s65 6 98 6c6 0 16 -1 16 -15s-10 -16 -16 -16l-25 -2c-38 -3 -37 -46 -37 -89v-187c0 -6 3 -7 7 -7zM610 9c130 0 223 146 223 330
c0 211 -101 352 -223 352c-106 0 -223 -105 -223 -336c0 -241 122 -346 223 -346z" />
    <glyph glyph-name="afii10049" unicode="&#x42f;" horiz-adv-x="537" 
d="M359 122v192c0 27 -10 27 -21 27h-12c-45 0 -51 -12 -76 -64l-111 -232c-19 -41 -15 -45 -42 -45c-14 0 -26 1 -39 1c-18 0 -37 -1 -55 -1c-8 0 -15 1 -15 15c0 13 10 15 13 15c22 3 38 -8 71 59l111 225c11 22 29 36 49 36v3c-73 1 -155 52 -155 164
c0 183 159 184 190 184c15 0 29 0 44 -1c28 -1 56 -3 84 -3c32 0 63 3 95 3c6 0 19 -1 19 -16c0 -14 -14 -15 -18 -15l-18 -2c-47 -5 -42 -48 -42 -89v-456c0 -102 25 -88 63 -91c7 -1 15 -3 15 -16s-9 -15 -17 -15c-32 0 -65 6 -97 6c-33 0 -65 -6 -98 -6
c-4 0 -17 1 -17 15c0 13 8 15 16 16c34 3 63 -12 63 91zM359 400v204c0 65 -11 70 -66 70c-132 0 -136 -118 -136 -148c0 -157 123 -155 162 -155c35 0 40 -2 40 29z" />
    <glyph glyph-name="afii10065" unicode="&#x430;" horiz-adv-x="426" 
d="M337 421l-6 -299c-1 -38 -4 -90 26 -90c10 0 23 8 29 16c4 5 8 11 14 11c4 0 8 -3 8 -10c0 -6 -6 -14 -16 -26c-30 -36 -53 -44 -68 -44c-46 0 -54 52 -60 78c-1 2 -2 7 -5 7c-2 0 -4 -2 -11 -9c-58 -62 -101 -76 -130 -76c-43 0 -75 32 -75 87c0 66 49 112 200 187
c21 10 23 15 23 26l2 119c1 78 -10 96 -52 96c-75 0 -91 -58 -104 -99c-6 -18 -20 -47 -62 -47c-5 0 -14 1 -14 16c0 43 36 81 50 95c42 42 91 63 148 63c103 0 104 -73 103 -101zM264 150l1 69c0 7 2 14 -5 14c-2 0 -5 0 -19 -6c-30 -13 -121 -59 -121 -130
c0 -56 38 -61 50 -61c33 0 93 38 94 114z" />
    <glyph glyph-name="afii10066" unicode="&#x431;" horiz-adv-x="491" 
d="M285 490c123 0 178 -128 178 -245c0 -152 -90 -266 -211 -266c-122 0 -216 113 -216 299c0 85 19 238 97 339c53 69 108 81 191 92c60 8 80 10 89 21l7 9c3 3 6 7 10 7c5 0 12 -6 5 -26c-28 -78 -77 -79 -152 -89c-48 -6 -93 -14 -132 -52c-41 -40 -66 -116 -66 -177v-8
v-7c0 -4 1 -11 4 -12h3c5 1 10 8 24 27c57 77 123 88 169 88zM244 446c-83 0 -136 -82 -136 -205c0 -163 80 -232 149 -232c62 0 134 59 134 211c0 134 -55 226 -147 226z" />
    <glyph glyph-name="afii10067" unicode="&#x432;" horiz-adv-x="427" 
d="M88 93v315c0 51 -11 63 -43 64c-18 1 -21 3 -21 14c0 10 2 15 24 15c25 0 50 -4 75 -4c39 0 77 6 116 6c102 0 141 -47 141 -103c0 -64 -38 -116 -104 -123v-3c110 -5 127 -92 127 -136c0 -62 -38 -141 -181 -141c-33 0 -67 7 -100 7c-25 0 -50 -4 -74 -4
c-22 0 -24 5 -24 15c0 11 3 13 21 14c32 1 43 13 43 64zM155 438v-130c0 -14 2 -22 20 -22h44c54 0 92 35 92 100c0 18 -3 93 -104 93c-54 0 -52 -21 -52 -41zM155 239v-125c0 -79 13 -93 67 -93c27 0 109 8 109 116c0 63 -28 122 -120 122h-40c-14 0 -16 -12 -16 -20z" />
    <glyph glyph-name="afii10068" unicode="&#x433;" horiz-adv-x="372" 
d="M89 93v315c0 51 -11 63 -43 64c-11 0 -22 0 -22 14c0 11 7 15 25 15h191c76 0 81 3 85 16c2 5 3 17 15 17c13 0 14 -12 14 -22c0 -13 1 -23 2 -33l7 -86c1 -12 5 -36 -12 -36c-11 0 -15 11 -17 18l-5 19c-20 77 -47 80 -82 80h-77c-12 0 -14 -7 -14 -16v-365
c0 -51 11 -63 43 -64c10 0 21 0 21 -14c0 -9 -5 -15 -24 -15c-25 0 -49 4 -74 4c-24 0 -49 -4 -73 -4c-19 0 -24 6 -24 15c0 14 11 14 21 14c32 1 43 13 43 64z" />
    <glyph glyph-name="afii10069" unicode="&#x434;" horiz-adv-x="456" 
d="M366 408v-296c0 -77 22 -82 43 -84c29 -2 29 -1 29 -15c0 -9 -5 -54 -7 -81l-6 -66c-2 -27 -11 -28 -15 -28c-14 0 -14 14 -15 28c-6 75 -10 100 -21 114c-16 21 -45 21 -61 21c-6 0 -13 -1 -19 -1h-37h-87c-24 0 -11 2 -55 2c-17 0 -37 -2 -53 -22
c-13 -18 -17 -46 -28 -116c-1 -9 -3 -26 -17 -26c-24 0 -19 44 -20 76c-4 78 -5 73 -5 91c0 33 15 23 40 29c47 10 78 160 89 225c13 74 18 102 18 170c0 30 -15 38 -26 39l-12 1c-13 1 -27 1 -27 17c0 15 12 15 19 15h313c20 0 25 -5 25 -15c0 -4 -1 -12 -14 -13l-11 -1
c-30 -3 -40 -17 -40 -64zM299 93v317c0 72 -21 64 -52 64h-11c-62 0 -63 -33 -65 -68c-13 -193 -45 -285 -74 -352c-2 -5 -6 -13 0 -19c5 -6 22 -8 34 -8h125c22 0 43 6 43 66z" />
    <glyph glyph-name="afii10070" unicode="&#x435;" horiz-adv-x="430" 
d="M390 341h-260c-23 0 -30 -10 -30 -85c0 -88 43 -220 165 -220c52 0 85 23 105 48c8 10 16 21 24 21c4 0 9 -2 9 -9c0 -9 -11 -27 -17 -35c-45 -63 -104 -82 -155 -82c-146 0 -203 148 -203 270c0 151 81 273 213 273c95 0 165 -72 165 -163c0 -8 -1 -18 -16 -18zM135 368
h94c49 0 101 2 101 52c0 32 -33 72 -90 72c-39 0 -75 -19 -104 -62c-12 -18 -18 -32 -18 -46c0 -16 9 -16 17 -16z" />
    <glyph glyph-name="afii10072" unicode="&#x436;" horiz-adv-x="625" 
d="M398 263v-4c84 -2 110 -70 132 -117l19 -40c31 -66 51 -68 71 -73c11 -3 21 -5 21 -16c0 -13 -12 -13 -17 -13c-13 0 -26 1 -38 1c-11 0 -23 -1 -35 -1c-32 0 -41 12 -60 55l-31 72c-25 57 -49 120 -106 120c-9 0 -8 -3 -8 -10v-144c0 -51 11 -63 43 -64
c18 -1 21 -3 21 -14c0 -10 -2 -15 -24 -15c-24 0 -49 4 -73 4c-25 0 -50 -4 -74 -4c-22 0 -24 5 -24 15c0 11 3 13 21 14c32 1 43 13 43 64v144c0 7 1 10 -8 10c-57 0 -81 -63 -106 -120l-31 -72c-19 -43 -28 -55 -60 -55c-12 0 -24 1 -35 1c-12 0 -25 -1 -38 -1
c-5 0 -17 0 -17 13c0 11 10 13 21 16c20 5 40 7 71 73l19 40c22 47 48 115 132 117v4c-54 25 -65 74 -79 122c-7 25 -15 64 -34 64c-8 0 -16 -9 -20 -13c-10 -12 -19 -22 -39 -22c-27 0 -44 23 -44 50c0 33 21 53 51 53c67 0 95 -65 126 -158c11 -33 25 -80 64 -84l9 -1
c20 -2 18 3 18 10v124c0 51 -11 63 -43 64c-18 1 -21 3 -21 14c0 10 2 15 24 15c24 0 49 -4 74 -4c24 0 49 4 73 4c22 0 24 -5 24 -15c0 -11 -3 -13 -21 -14c-32 -1 -43 -13 -43 -64v-124c0 -7 -2 -12 18 -10l9 1c45 5 56 61 75 116c38 107 72 126 115 126
c34 0 51 -24 51 -53c0 -27 -17 -50 -44 -50c-20 0 -29 10 -39 22c-4 4 -12 13 -20 13c-18 0 -27 -39 -34 -64c-14 -49 -25 -97 -79 -122z" />
    <glyph glyph-name="afii10073" unicode="&#x437;" horiz-adv-x="397" 
d="M162 293h33c28 0 90 5 90 102c0 58 -30 97 -79 97c-75 0 -101 -60 -112 -90l-11 -29c-3 -7 -6 -16 -17 -16c-19 0 -12 35 -11 52l3 64c1 19 -1 42 14 42c8 0 10 -7 11 -11c2 -9 2 -19 9 -19c3 0 6 2 14 7c24 15 53 30 98 30c84 0 147 -41 147 -122
c0 -80 -50 -116 -101 -123v-4c45 -4 119 -28 119 -131c0 -98 -68 -163 -179 -163c-87 0 -166 42 -166 99c0 33 20 51 35 51c21 0 27 -27 31 -41c12 -46 25 -79 88 -79c82 0 119 60 119 133c0 71 -37 119 -108 119h-33c-5 0 -4 4 -4 6l4 20c1 4 4 6 6 6z" />
    <glyph glyph-name="afii10074" unicode="&#x438;" horiz-adv-x="538" 
d="M156 408v-246c0 -9 0 -15 2 -15s6 3 12 10l212 253v3c0 56 -23 57 -43 59l-12 1c-6 1 -10 7 -10 13c0 15 14 15 25 15c24 0 49 -4 73 -4c25 0 49 4 74 4c11 0 25 0 25 -15c0 -6 -4 -12 -10 -13l-12 -1c-23 -2 -43 0 -43 -64v-315c0 -64 20 -62 43 -64l12 -1
c6 -1 10 -7 10 -13c0 -15 -14 -15 -25 -15c-25 0 -49 4 -74 4c-24 0 -49 -4 -73 -4c-11 0 -25 0 -25 15c0 6 4 12 10 13l12 1c20 2 43 0 43 64v255c0 9 0 15 -2 15s-6 -3 -12 -10l-212 -253v-17c0 -53 28 -53 43 -54l12 -1c6 -1 10 -7 10 -13c0 -15 -14 -15 -25 -15
c-24 0 -49 4 -73 4c-25 0 -49 -4 -74 -4c-11 0 -25 0 -25 15c0 6 4 12 10 13l12 1c23 2 43 0 43 64v315c0 64 -20 62 -43 64l-12 1c-6 1 -10 7 -10 13c0 15 14 15 25 15c25 0 49 -4 74 -4c24 0 49 4 73 4c11 0 25 0 25 -15c0 -6 -4 -12 -10 -13l-12 -1c-20 -2 -43 0 -43 -64
z" />
    <glyph glyph-name="afii10075" unicode="&#x439;" horiz-adv-x="538" 
d="M156 408v-246c0 -9 0 -15 2 -15s6 3 12 10l212 253v3c0 56 -23 57 -43 59l-12 1c-6 1 -10 7 -10 13c0 15 14 15 25 15c24 0 49 -4 73 -4c25 0 49 4 74 4c11 0 25 0 25 -15c0 -6 -4 -12 -10 -13l-12 -1c-23 -2 -43 0 -43 -64v-315c0 -64 20 -62 43 -64l12 -1
c6 -1 10 -7 10 -13c0 -15 -14 -15 -25 -15c-25 0 -49 4 -74 4c-24 0 -49 -4 -73 -4c-11 0 -25 0 -25 15c0 6 4 12 10 13l12 1c20 2 43 0 43 64v255c0 9 0 15 -2 15s-6 -3 -12 -10l-212 -253v-17c0 -53 28 -53 43 -54l12 -1c6 -1 10 -7 10 -13c0 -15 -14 -15 -25 -15
c-24 0 -49 4 -73 4c-25 0 -49 -4 -74 -4c-11 0 -25 0 -25 15c0 6 4 12 10 13l12 1c23 2 43 0 43 64v315c0 64 -20 62 -43 64l-12 1c-6 1 -10 7 -10 13c0 15 14 15 25 15c25 0 49 -4 74 -4c24 0 49 4 73 4c11 0 25 0 25 -15c0 -6 -4 -12 -10 -13l-12 -1c-20 -2 -43 0 -43 -64
zM422 689c-53 -116 -107 -138 -148 -138c-54 0 -104 38 -104 82c0 30 35 81 53 81c12 0 8 -27 8 -39c0 -42 19 -80 61 -80c52 0 86 57 99 86c9 20 15 36 24 36c2 0 11 1 11 -9c0 -7 -1 -13 -4 -19z" />
    <glyph glyph-name="afii10076" unicode="&#x43a;" horiz-adv-x="452" 
d="M156 408v-119c0 -10 2 -10 19 -10h17c53 0 63 51 88 117c23 60 47 126 111 126c26 0 53 -16 53 -53c0 -30 -18 -50 -44 -50c-16 0 -26 7 -38 22c-4 5 -10 12 -19 12c-19 0 -28 -39 -35 -63c-18 -60 -32 -108 -80 -122v-4c50 -4 85 -26 109 -77l39 -82
c34 -71 48 -70 71 -76c11 -3 21 -5 21 -16c0 -13 -10 -13 -17 -13c-13 0 -26 1 -39 1c-11 0 -22 -1 -34 -1c-33 0 -42 12 -60 55l-31 73c-48 112 -61 124 -120 124c-8 0 -11 -1 -11 -10v-149c0 -51 13 -63 44 -64c10 0 22 0 22 -14s-15 -15 -24 -15c-25 0 -50 4 -75 4
s-50 -4 -75 -4c-19 0 -24 6 -24 15c0 12 8 13 13 13l12 1c28 2 40 12 40 64v315c0 51 -11 63 -43 64c-9 0 -22 0 -22 14c0 15 15 15 25 15c25 0 49 -4 74 -4s49 4 74 4c19 0 24 -6 24 -15c0 -13 -10 -14 -18 -14c-26 -1 -47 -2 -47 -64z" />
    <glyph glyph-name="afii10077" unicode="&#x43b;" horiz-adv-x="467" 
d="M311 93v317c0 66 -22 64 -60 64c-31 0 -64 3 -68 -57c-4 -56 -10 -182 -42 -299c-32 -116 -71 -130 -95 -130c-28 0 -54 13 -54 50c0 43 26 58 46 58c13 0 19 -6 25 -11c9 -8 14 -12 19 -12c29 0 51 172 53 185c8 66 11 105 11 156c0 58 -24 55 -42 56
c-24 1 -23 8 -23 17c0 3 0 14 16 14h321c23 0 25 -8 25 -15c0 -6 0 -14 -21 -14c-40 0 -44 -27 -44 -64v-315c0 -37 4 -64 44 -64c21 0 21 -8 21 -14s-2 -15 -25 -15c-25 0 -49 4 -73 4c-25 0 -49 -4 -74 -4c-10 0 -25 0 -25 15c0 14 13 14 22 14c32 1 43 12 43 64z" />
    <glyph glyph-name="afii10078" unicode="&#x43c;" horiz-adv-x="604" 
d="M185 488l114 -336c2 -6 3 -9 4 -9s2 3 4 9l123 340c2 6 1 9 16 9s26 -4 38 -4c20 0 41 4 62 4c23 0 25 -9 25 -15s0 -14 -21 -14c-39 0 -45 -27 -44 -64l11 -315c2 -51 11 -63 44 -64c18 -1 21 -3 21 -14c0 -10 -2 -15 -24 -15c-24 0 -49 4 -74 4s-50 -4 -74 -4
c-22 0 -24 5 -24 15c0 11 3 13 21 14c25 1 45 7 43 64l-11 315v16c0 2 0 3 -1 3c-2 0 -3 -1 -5 -8l-121 -337c-13 -37 -21 -56 -29 -56s-15 20 -27 56l-115 336c-2 6 -4 8 -5 8s-2 -3 -2 -9l-11 -257c-3 -68 -2 -98 6 -114c7 -15 20 -16 35 -17l10 -1c12 -1 12 -11 12 -13
c0 -15 -11 -15 -20 -15c-22 0 -43 4 -65 4c-18 0 -37 -4 -55 -4c-22 0 -24 6 -24 15c0 11 3 13 21 14c23 1 43 6 46 63l18 316c1 22 7 62 -43 64c-9 0 -22 0 -22 14c0 13 11 15 25 15c17 0 34 -4 51 -4c29 0 30 4 53 4c5 0 10 -1 14 -13z" />
    <glyph glyph-name="afii10079" unicode="&#x43d;" horiz-adv-x="542" 
d="M378 254h-214c-9 0 -8 -3 -8 -10v-151c0 -64 20 -62 43 -64l12 -1c6 -1 10 -7 10 -13c0 -15 -14 -15 -25 -15c-25 0 -49 4 -74 4c-24 0 -48 -4 -73 -4c-23 0 -25 9 -25 15c0 3 0 12 9 13l12 1c20 2 44 0 44 64v315c0 64 -24 62 -44 64l-12 1c-9 1 -9 10 -9 13
c0 6 2 15 25 15c25 0 49 -4 73 -4c25 0 49 4 74 4c11 0 25 0 25 -15c0 -6 -4 -12 -10 -13l-12 -1c-23 -2 -43 0 -43 -64v-117c0 -7 -1 -10 8 -10h214c9 0 8 3 8 10v117c0 64 -20 62 -43 64l-12 1c-6 1 -10 7 -10 13c0 15 14 15 25 15c25 0 49 -4 74 -4c24 0 48 4 73 4
c23 0 25 -9 25 -15c0 -3 0 -12 -9 -13l-12 -1c-20 -2 -44 0 -44 -64v-315c0 -64 24 -62 44 -64l12 -1c9 -1 9 -10 9 -13c0 -6 -2 -15 -25 -15c-25 0 -49 4 -73 4c-25 0 -49 -4 -74 -4c-11 0 -25 0 -25 15c0 6 4 12 10 13l12 1c23 2 43 0 43 64v151c0 7 1 10 -8 10z" />
    <glyph glyph-name="afii10080" unicode="&#x43e;" horiz-adv-x="508" 
d="M254 -21c-154 0 -226 154 -226 271c0 119 74 272 226 272c154 0 226 -154 226 -272s-74 -271 -226 -271zM252 9c45 0 156 30 156 242c0 146 -59 241 -156 241c-91 0 -152 -92 -152 -241c0 -175 79 -242 152 -242z" />
    <glyph glyph-name="afii10081" unicode="&#x43f;" horiz-adv-x="521" 
d="M365 93v341c0 31 -16 37 -28 37h-153c-12 0 -28 -6 -28 -37v-341c0 -64 23 -62 43 -64l12 -1c6 -1 10 -7 10 -13c0 -15 -14 -15 -25 -15c-24 0 -49 4 -73 4c-25 0 -49 -4 -74 -4c-11 0 -25 0 -25 15c0 6 4 12 10 13l12 1c23 2 43 0 43 64v315c0 64 -20 62 -43 64l-12 1
c-6 1 -10 7 -10 13c0 15 15 15 25 15h423c10 0 25 0 25 -15c0 -6 -4 -12 -10 -13l-12 -1c-20 -2 -43 0 -43 -64v-315c0 -64 23 -62 43 -64l12 -1c6 -1 10 -7 10 -13c0 -15 -14 -15 -25 -15c-24 0 -49 4 -73 4c-25 0 -49 -4 -74 -4c-11 0 -25 0 -25 15c0 6 4 12 10 13l12 1
c23 2 43 0 43 64z" />
    <glyph glyph-name="afii10082" unicode="&#x440;" horiz-adv-x="519" 
d="M77 -155v567c0 33 -3 54 -22 54h-13c-15 0 -17 4 -17 11s0 12 15 16c24 7 40 10 69 29c18 11 23 17 29 17c10 0 6 -20 6 -40v-50c0 -3 0 -9 6 -9c7 0 14 11 23 22c36 42 71 60 120 60c124 0 198 -108 198 -253c0 -205 -116 -290 -226 -290c-25 0 -57 4 -107 27
c-3 1 -7 3 -9 3c-4 0 -5 -6 -5 -17v-147c0 -34 7 -59 50 -63c18 -2 31 1 31 -14s-11 -17 -26 -17c-27 0 -54 4 -81 4s-54 -4 -80 -4c-15 0 -26 2 -26 17c0 13 14 13 21 13c45 1 44 39 44 64zM144 346v-199c0 -48 7 -138 119 -138c71 0 156 65 156 236
c0 152 -73 227 -153 227c-61 0 -122 -44 -122 -126z" />
    <glyph glyph-name="afii10083" unicode="&#x441;" horiz-adv-x="426" 
d="M395 452l-4 -56c-1 -13 -3 -27 -13 -27c-14 0 -21 19 -28 34c-19 39 -43 89 -99 89c-61 0 -151 -74 -151 -237c0 -152 88 -229 174 -229c59 0 87 34 105 53c4 4 8 8 13 8c3 0 8 -1 8 -8c0 -2 0 -8 -10 -22c-16 -24 -66 -78 -150 -78c-136 0 -212 120 -212 251
c0 186 122 292 237 292c49 0 100 -20 121 -42c7 -8 10 -14 9 -28z" />
    <glyph glyph-name="afii10084" unicode="&#x442;" horiz-adv-x="418" 
d="M81 501h281c16 0 19 5 21 14c3 12 5 18 13 18c11 0 14 -6 14 -17s-2 -27 -2 -42l-1 -88c0 -20 -3 -29 -12 -29c-15 0 -18 15 -18 18l-4 27c-10 66 -32 72 -60 72h-55c-8 0 -15 -1 -15 -16v-365c0 -64 24 -62 44 -64l12 -1c9 -1 9 -10 9 -13c0 -6 -2 -15 -25 -15
c-25 0 -49 4 -73 4c-25 0 -49 -4 -74 -4c-11 0 -25 0 -25 15c0 6 4 12 10 13l12 1c23 2 43 0 43 64v365c0 13 -1 16 -33 16c-52 0 -69 1 -106 -88c-6 -15 -12 -29 -25 -29c-11 0 -12 11 -12 15c0 9 2 17 8 40l15 62c9 36 9 60 25 60c12 0 11 -8 14 -19c1 -6 4 -14 19 -14z
" />
    <glyph glyph-name="afii10085" unicode="&#x443;" horiz-adv-x="414" 
d="M127 408l99 -291c5 -13 6 -21 8 -21s3 7 8 21l78 231c18 53 19 75 19 82c0 33 -20 41 -44 42c-11 0 -22 0 -22 14c0 10 6 15 25 15c25 0 49 -4 73 -4c16 0 33 4 49 4c10 0 18 -1 18 -14c0 -6 -3 -13 -12 -14l-7 -1c-26 -4 -27 -9 -59 -100l-128 -361
c-24 -68 -44 -132 -60 -209c-11 -55 -21 -56 -52 -56c-47 0 -54 17 -54 38c0 43 18 50 40 50c7 0 13 -1 20 -1c23 0 27 16 42 64l18 58c6 20 7 31 7 35c0 14 -5 30 -9 41l-135 392c-16 46 -25 49 -44 49c-8 0 -21 -1 -21 14s12 15 22 15c24 0 49 -4 73 -4c26 0 51 4 77 4
c9 0 25 -1 25 -15c0 -16 -12 -13 -30 -15c-42 -5 -34 -34 -24 -63z" />
    <glyph glyph-name="afii10086" unicode="&#x444;" horiz-adv-x="683" 
d="M375 696v-215c0 -6 0 -11 2 -11s6 4 10 8c5 6 42 44 98 44c64 0 170 -65 170 -266c0 -179 -106 -277 -193 -277c-17 0 -53 5 -79 28c-2 2 -4 3 -6 3c-1 0 -2 -2 -2 -4v-161c0 -23 -1 -63 44 -64c9 0 18 0 20 -13c0 -2 1 -5 0 -7c-3 -9 -13 -10 -25 -10c-24 0 -47 4 -71 4
c-25 0 -49 -4 -74 -4c-12 0 -22 1 -25 10c-1 2 0 5 0 7c2 13 11 13 20 13c45 1 44 41 44 64v174c0 11 3 18 -3 11c-6 -4 -8 -7 -20 -17c-17 -14 -46 -34 -88 -34c-86 0 -169 96 -169 273c0 175 105 270 192 270c43 0 70 -20 81 -27c2 -1 5 -3 6 -3c3 0 1 4 1 13v109
c0 23 1 52 -21 52h-13c-12 0 -17 6 -17 12c0 10 9 13 15 15c21 7 34 8 68 29c19 12 22 17 27 17c13 0 8 -23 8 -43zM308 112v269c0 30 -3 111 -85 111c-79 0 -123 -110 -123 -236c0 -169 59 -236 126 -236c36 0 82 16 82 92zM375 389v-269c0 -30 4 -111 84 -111
c68 0 124 93 124 242c0 222 -105 230 -125 230c-77 0 -83 -62 -83 -92z" />
    <glyph glyph-name="afii10087" unicode="&#x445;" horiz-adv-x="494" 
d="M284 277l122 -198c26 -42 35 -49 62 -50c9 0 22 0 22 -14c0 -15 -15 -15 -25 -15c-25 0 -49 4 -74 4c-35 0 -70 -4 -105 -4c-10 0 -25 0 -25 15c0 13 10 14 20 14c26 1 52 1 52 26c0 15 -7 24 -14 36l-72 122c-12 20 -17 9 -25 -3l-36 -56c-35 -55 -48 -77 -48 -95
c0 -31 34 -29 47 -30c14 -1 15 -9 15 -14c0 -6 -2 -15 -25 -15c-25 0 -49 4 -73 4c-25 0 -51 -4 -76 -4c-7 0 -22 1 -22 15c0 13 9 13 20 14c35 4 61 30 110 100l73 106c10 15 13 19 3 34l-110 169c-25 39 -33 32 -61 34l-12 1c-6 1 -10 7 -10 13c0 15 14 15 25 15
c24 0 49 -4 73 -4c33 0 67 4 100 4c24 0 24 -7 24 -15s-1 -13 -21 -14c-49 -3 -31 -33 -27 -41l64 -107c7 -11 9 -10 16 0l44 69c18 28 27 41 27 54c0 22 -15 23 -36 25l-12 1c-6 1 -10 7 -10 13c0 15 14 15 25 15c24 0 48 -4 72 -4c26 0 52 4 78 4c11 0 25 0 25 -15
s-15 -13 -29 -15c-48 -6 -75 -34 -116 -92l-52 -74c-7 -10 -12 -13 -3 -28z" />
    <glyph glyph-name="afii10088" unicode="&#x446;" horiz-adv-x="538" 
d="M156 408v-346c0 -26 13 -35 28 -35h161c15 0 28 9 28 35v346c0 64 -23 62 -43 64l-12 1c-6 1 -10 7 -10 13c0 15 14 15 25 15c24 0 49 -4 73 -4c25 0 49 4 74 4c11 0 25 0 25 -15c0 -6 -4 -12 -10 -13l-12 -1c-23 -2 -43 0 -43 -64v-296c0 -40 -3 -82 49 -84h17
c8 0 14 -1 14 -20s-4 -64 -5 -80l-5 -62c-2 -20 -7 -28 -16 -28c-12 0 -14 13 -16 26l-4 27c-8 55 -10 75 -21 89c-24 33 -74 20 -123 20h-281c-10 0 -25 0 -25 15c0 6 4 12 10 13l12 1c20 2 43 0 43 64v315c0 64 -23 62 -43 64l-12 1c-6 1 -10 7 -10 13c0 15 14 15 25 15
c24 0 49 -4 73 -4c25 0 49 4 74 4c11 0 25 0 25 -15c0 -6 -4 -12 -10 -13l-12 -1c-23 -2 -43 0 -43 -64z" />
    <glyph glyph-name="afii10089" unicode="&#x447;" horiz-adv-x="492" 
d="M336 93v125c0 4 0 7 -3 9c-5 1 -8 -2 -11 -4c-24 -17 -77 -36 -126 -36c-79 0 -127 60 -127 155v66c0 55 -16 62 -39 64c-8 1 -18 1 -18 14c0 15 15 15 25 15c23 0 46 -4 69 -4s46 4 70 4c10 0 25 -1 25 -15c0 -12 -11 -13 -13 -13l-12 -1c-27 -2 -40 -10 -40 -64v-42
c0 -45 4 -131 94 -131c18 0 54 2 81 18c26 16 25 28 25 51v104c0 51 -11 63 -43 64c-9 0 -22 0 -22 14c0 15 15 15 25 15c25 0 49 -4 74 -4c24 0 49 4 73 4c10 0 25 0 25 -15c0 -14 -13 -14 -22 -14c-26 -1 -43 -7 -43 -64v-315c0 -57 17 -63 43 -64c9 0 22 0 22 -14
c0 -15 -15 -15 -25 -15c-27 0 -54 4 -81 4s-55 -4 -82 -4c-10 0 -25 0 -25 15c0 14 13 14 22 14c47 2 59 18 59 64z" />
    <glyph glyph-name="afii10090" unicode="&#x448;" horiz-adv-x="713" 
d="M155 408v-346c0 -26 13 -35 28 -35h112c15 0 28 9 28 35v346c0 52 -11 63 -43 64c-18 1 -21 3 -21 14c0 10 2 15 24 15c24 0 49 -4 74 -4c24 0 49 4 73 4c22 0 24 -5 24 -15c0 -11 -3 -13 -21 -14c-32 -1 -43 -12 -43 -64v-346c0 -26 13 -35 28 -35h112c15 0 28 9 28 35
v346c0 65 -21 62 -43 64l-12 1c-3 0 -9 2 -9 13c0 10 2 15 24 15c24 0 49 -4 74 -4c24 0 49 4 73 4c22 0 24 -5 24 -15c0 -11 -3 -13 -21 -14c-32 -1 -43 -12 -43 -64v-315c0 -52 11 -63 43 -64c18 -1 21 -3 21 -14c0 -9 -2 -15 -24 -15h-617c-22 0 -24 6 -24 15
c0 11 3 13 21 14c32 1 43 12 43 64v315c0 52 -11 63 -43 64c-18 1 -21 3 -21 14c0 10 2 15 24 15c24 0 49 -4 73 -4c25 0 50 4 74 4c22 0 24 -5 24 -15c0 -11 -3 -13 -21 -14c-32 -1 -43 -12 -43 -64z" />
    <glyph glyph-name="afii10091" unicode="&#x449;" horiz-adv-x="724" 
d="M516 0h-467c-10 0 -25 0 -25 15c0 14 13 14 22 14c32 1 43 13 43 64v315c0 52 -11 63 -43 64c-9 0 -22 0 -22 14c0 15 15 15 25 15c24 0 49 -4 73 -4c25 0 50 4 74 4c22 0 24 -5 24 -15c0 -11 -3 -13 -21 -14c-32 -1 -43 -12 -43 -64v-346c0 -26 13 -35 28 -35h112
c15 0 28 9 28 35v346c0 52 -11 63 -43 64c-18 1 -21 3 -21 14c0 10 2 15 24 15c24 0 49 -4 74 -4c24 0 49 4 73 4c22 0 24 -5 24 -15c0 -11 -3 -13 -21 -14c-32 -1 -43 -12 -43 -64v-346c0 -26 13 -35 28 -35h112c15 0 28 9 28 35v346c0 52 -11 63 -43 64c-9 0 -22 0 -22 14
c0 15 15 15 25 15c25 0 49 -4 74 -4c24 0 48 4 73 4c23 0 25 -9 25 -15c0 -9 0 -12 -21 -14l-11 -1c-18 -2 -33 -14 -33 -63v-296c0 -40 -3 -82 49 -84h17c8 0 14 -1 14 -20s-4 -64 -5 -80l-5 -62c-2 -20 -7 -28 -16 -28c-12 0 -14 13 -16 26l-4 27c-8 55 -11 75 -21 89
c-15 21 -38 22 -55 22c-11 0 -21 -1 -32 -1c-12 -1 -24 -1 -36 -1z" />
    <glyph glyph-name="afii10092" unicode="&#x44a;" horiz-adv-x="500" 
d="M164 93v365c0 11 1 16 -30 16c-54 0 -65 -16 -99 -88l-9 -19c-2 -5 -5 -10 -14 -10c-11 0 -12 9 -12 15c0 13 4 24 8 40l14 62c10 46 12 60 26 60c12 0 11 -8 14 -19c1 -6 4 -14 19 -14h190c10 0 25 0 25 -15c0 -14 -12 -13 -19 -14l-17 -2c-27 -3 -29 -39 -29 -62v-101
c0 -24 -2 -23 15 -20c25 5 53 11 82 11c98 0 152 -49 152 -145c0 -106 -67 -156 -160 -156c-41 0 -81 7 -122 7c-25 0 -49 -4 -74 -4c-10 0 -25 0 -25 15c0 14 13 14 22 14c32 1 43 13 43 64zM231 238v-124c0 -76 13 -91 67 -91c107 0 110 101 110 124
c0 117 -87 119 -108 119c-63 0 -69 -13 -69 -28z" />
    <glyph glyph-name="afii10093" unicode="&#x44b;" horiz-adv-x="633" 
d="M89 93v315c0 64 -20 62 -43 64l-12 1c-6 1 -10 7 -10 13c0 15 14 15 25 15c25 0 49 -4 74 -4c24 0 49 4 73 4c10 0 25 0 25 -15c0 -14 -13 -14 -22 -14c-26 -1 -43 -7 -43 -64v-101c0 -19 -4 -25 18 -20c25 5 49 11 85 11c106 0 146 -63 146 -145
c0 -87 -51 -156 -162 -156c-40 0 -80 7 -120 7c-25 0 -49 -4 -74 -4c-10 0 -25 0 -25 15c0 14 13 14 22 14c32 1 43 13 43 64zM156 238v-124c0 -76 13 -91 67 -91c71 0 110 48 110 124c0 53 -19 119 -105 119c-18 0 -72 2 -72 -28zM477 93v315c0 64 -20 62 -43 64l-12 1
c-6 1 -10 7 -10 13c0 15 14 15 25 15c25 0 49 -4 74 -4c24 0 49 4 73 4c11 0 25 0 25 -15c0 -6 -4 -12 -10 -13l-12 -1c-20 -2 -43 0 -43 -64v-315c0 -57 17 -63 43 -64c9 0 22 0 22 -14c0 -15 -15 -15 -25 -15c-24 0 -49 4 -73 4c-25 0 -49 -4 -74 -4c-10 0 -25 0 -25 15
c0 14 13 14 22 14c32 1 43 13 43 64z" />
    <glyph glyph-name="afii10094" unicode="&#x44c;" horiz-adv-x="425" 
d="M89 93v315c0 64 -20 62 -43 64l-12 1c-6 1 -10 7 -10 13c0 15 14 15 25 15c25 0 49 -4 74 -4c24 0 49 4 73 4c10 0 25 0 25 -15c0 -14 -13 -14 -22 -14c-26 -1 -43 -7 -43 -64v-101c0 -19 -4 -25 18 -20c25 5 49 11 85 11c106 0 146 -63 146 -145
c0 -87 -51 -156 -162 -156c-40 0 -80 7 -120 7c-25 0 -49 -4 -74 -4c-10 0 -25 0 -25 15c0 14 13 14 22 14c32 1 43 13 43 64zM156 238v-124c0 -76 13 -91 67 -91c71 0 110 48 110 124c0 77 -41 119 -107 119s-70 -11 -70 -28z" />
    <glyph glyph-name="afii10095" unicode="&#x44d;" horiz-adv-x="446" 
d="M53 409l4 72c2 28 2 33 4 36c1 2 4 4 7 4c6 0 9 -5 10 -8l4 -13c1 -3 2 -8 7 -8c4 0 9 2 16 6c23 11 66 24 109 24c110 0 204 -86 204 -262c0 -157 -90 -281 -236 -281c-58 0 -158 31 -158 99c0 26 16 51 32 51c23 0 29 -26 33 -41c13 -55 33 -79 84 -79
c130 0 176 163 176 232c0 4 -1 12 -8 12c-6 0 -15 -8 -25 -17c-12 -11 -28 -21 -52 -21c-14 0 -27 7 -39 13c-34 17 -52 31 -67 31c-26 0 -32 -16 -45 -20c-3 -1 -5 -1 -8 0c-5 2 -7 7 -7 12c0 9 10 16 23 26c29 23 52 35 73 35c23 0 44 -14 59 -23c32 -19 45 -24 56 -24
c12 0 38 5 38 49c0 105 -71 178 -148 178c-67 0 -96 -56 -120 -108c-3 -6 -7 -15 -15 -15c-15 0 -12 22 -11 40z" />
    <glyph glyph-name="afii10096" unicode="&#x44e;" horiz-adv-x="706" 
d="M164 254c-9 0 -8 -3 -8 -10v-151c0 -64 20 -62 43 -64l12 -1c6 -1 10 -7 10 -13c0 -15 -14 -15 -25 -15c-25 0 -49 4 -74 4c-24 0 -49 -4 -73 -4s-25 6 -25 15c0 11 6 13 9 13l12 1c20 2 44 0 44 64v315c0 64 -24 62 -44 64l-12 1c-3 0 -9 2 -9 13c0 9 1 15 25 15
s49 -4 73 -4c25 0 49 4 74 4c11 0 25 0 25 -15c0 -6 -4 -12 -10 -13l-12 -1c-23 -2 -43 0 -43 -64v-117c0 -7 -1 -10 8 -10h80c9 122 90 241 216 241c125 0 218 -118 218 -272c0 -152 -92 -271 -218 -271c-125 0 -221 118 -218 275h-78zM458 9c64 0 148 57 148 242
c0 146 -58 241 -148 241c-85 0 -144 -93 -144 -241c0 -175 76 -242 144 -242z" />
    <glyph glyph-name="afii10097" unicode="&#x44f;" horiz-adv-x="433" 
d="M277 93v119c0 12 2 20 -15 20h-20c-28 0 -40 -16 -51 -39l-79 -162c-14 -28 -10 -31 -30 -31c-11 0 -21 1 -32 1c-12 0 -25 -1 -37 -1c-10 0 -25 0 -25 15s13 13 22 14c25 2 34 17 43 35l80 155c5 10 13 26 31 25v3c-55 1 -112 36 -112 121c0 134 112 133 138 133
c66 0 89 -4 120 -4c25 0 49 4 74 4c11 0 25 0 25 -15c0 -3 -2 -12 -11 -13l-11 -1c-23 -2 -43 0 -43 -64v-315c0 -51 11 -63 43 -64c9 0 22 0 22 -14c0 -15 -15 -15 -25 -15c-25 0 -49 4 -74 4c-24 0 -48 -4 -73 -4c-23 0 -25 9 -25 15s0 14 21 14c36 0 44 20 44 64z
M277 279v145c0 45 -7 50 -59 50c-22 0 -94 -5 -94 -105c0 -68 35 -110 97 -110h44c11 0 12 15 12 20z" />
    <glyph glyph-name="Euro" unicode="&#x20ac;" 
d="M451 585h-18c-8 66 -54 98 -120 98c-109 0 -150 -96 -161 -262h251l-12 -35h-241v-32v-36h216l-13 -34h-202c10 -173 64 -267 162 -267c57 0 110 26 120 100h18l-5 -75c-23 -35 -64 -62 -146 -62c-137 0 -206 103 -218 304h-63l12 34h47v37v31h-59l12 35h50
c15 196 72 300 219 300c88 0 127 -32 146 -59z" />
    </font>
</defs>
</svg>
