<?xml version="1.0" standalone="no"?>
<!DOCTYPE svg PUBLIC "-//W3C//DTD SVG 1.1//EN" "http://www.w3.org/Graphics/SVG/1.1/DTD/svg11.dtd" >
<svg xmlns="http://www.w3.org/2000/svg" xmlns:xlink="http://www.w3.org/1999/xlink" version="1.1">
<metadata>
Created by FontForge 20190801 at Fri May 14 16:58:03 2004
 By Jimmy Wärting
Copyright (c) 1990-1998 ParaType. All Rights Reserved. ITC Garamond is a registered trade mark of International Typeface Corporation.
</metadata>
<defs>
<font id="GaramondNarrowC-Bold" horiz-adv-x="496" >
  <font-face 
    font-family="GaramondNarrowC"
    font-weight="700"
    font-stretch="semi-condensed"
    units-per-em="1000"
    panose-1="0 0 8 6 0 0 0 0 0 0"
    ascent="720"
    descent="-280"
    x-height="509"
    cap-height="700"
    bbox="-440 -280 1038 913"
    underline-thickness="50"
    underline-position="-100"
    stemh="39"
    stemv="133"
    unicode-range="U+0020-2122"
  />
<missing-glyph horiz-adv-x="233" 
 />
    <glyph glyph-name=".notdef" horiz-adv-x="233" 
 />
    <glyph glyph-name="space" unicode=" " horiz-adv-x="233" 
 />
    <glyph glyph-name="space" unicode="&#xa0;" horiz-adv-x="233" 
 />
    <glyph glyph-name="exclam" unicode="!" horiz-adv-x="272" 
d="M135 711c33 0 79 -14 79 -86c0 -27 -4 -53 -9 -79c-10 -57 -19 -100 -29 -178c-8 -64 -10 -110 -19 -153c-3 -14 -7 -31 -22 -31c-17 0 -20 23 -21 31c-26 221 -32 247 -48 331c-5 26 -10 52 -10 79c0 66 43 86 79 86zM136 161c54 0 80 -43 80 -85c0 -59 -44 -91 -81 -91
c-35 0 -76 28 -76 88c0 53 34 88 77 88z" />
    <glyph glyph-name="quotedbl" unicode="&#x22;" horiz-adv-x="306" 
d="M54 437l-19 164c-2 16 -3 31 -3 46c0 61 29 74 45 74s45 -13 45 -74c0 -15 -1 -30 -3 -46l-19 -164c-2 -14 -5 -30 -23 -30s-21 16 -23 30zM206 437l-19 164c-2 16 -3 31 -3 46c0 61 29 74 45 74s45 -13 45 -74c0 -15 -1 -30 -3 -46l-19 -164c-2 -14 -5 -30 -23 -30
s-21 16 -23 30z" />
    <glyph glyph-name="numbersign" unicode="#" horiz-adv-x="514" 
d="M256 249h-32l43 122h-91l-43 -122h-32l43 122h-108l19 55h108l32 90h-108l20 55h108l45 129h32l-45 -129h91l45 129h32l-45 -129h108l-19 -55h-108l-32 -90h108l-20 -55h-108zM195 426h92l32 90h-92z" />
    <glyph glyph-name="dollar" unicode="$" horiz-adv-x="388" 
d="M185 711h35l-8 -56h11c6 0 13 -1 19 -2l7 58h35l-8 -62c15 -3 27 -8 36 -13c25 -13 23 -21 21 -78l-1 -28c-1 -22 -10 -26 -17 -26c-11 0 -15 11 -18 22c-15 48 -19 54 -27 62l-19 -162c67 -29 105 -93 105 -166c0 -91 -61 -176 -147 -191l-10 -87h-35l11 84
c-5 -1 -9 -2 -14 -2s-11 1 -16 2l-10 -84h-35l11 93c-17 4 -53 17 -66 28s-13 22 -13 52v30c-1 46 -2 69 17 69c17 0 17 -14 27 -52c14 -52 23 -68 42 -82l21 194c-50 25 -94 72 -94 158c0 90 55 157 133 179zM208 614l-18 -157c9 -5 19 -9 28 -13l19 166c-6 2 -13 4 -19 4
h-10zM172 299l-21 -192c4 -1 9 -2 13 -2c5 0 11 1 16 2l20 179c-9 7 -19 11 -28 13zM157 474l16 134c-26 -13 -49 -39 -49 -76c0 -32 17 -49 33 -58zM232 269l-17 -153c35 16 49 51 49 84c0 38 -12 57 -32 69z" />
    <glyph glyph-name="percent" unicode="%" horiz-adv-x="718" 
d="M187 355c-112 0 -163 93 -163 180s51 180 163 180s163 -93 163 -180s-51 -180 -163 -180zM197 397c34 0 60 49 60 138c0 106 -51 138 -80 138c-26 0 -60 -34 -60 -138c0 -96 48 -138 80 -138zM562 700h67l-469 -700h-67zM531 -15c-112 0 -163 93 -163 180s51 180 163 180
s163 -93 163 -180s-51 -180 -163 -180zM541 27c34 0 60 49 60 138c0 106 -51 138 -80 138c-26 0 -60 -34 -60 -138c0 -90 44 -138 80 -138z" />
    <glyph glyph-name="ampersand" unicode="&#x26;" horiz-adv-x="716" 
d="M370 429l111 -162c14 19 42 67 42 87c0 11 -4 25 -29 27l-13 1c-10 1 -23 2 -23 20c0 20 15 21 25 21c31 0 62 -2 93 -2c25 0 50 2 76 2c12 0 26 -1 26 -21s-14 -22 -24 -23c-33 -3 -66 -17 -115 -99l-31 -52l61 -90c28 -41 52 -90 92 -96c8 -1 23 -1 23 -20
c0 -24 -17 -22 -40 -22c-40 0 -81 6 -122 6c-38 0 -76 -6 -115 -6c-25 0 -24 14 -24 20c0 10 0 17 20 21c14 3 27 4 27 29c0 12 -10 24 -14 29l-8 10c-31 -44 -102 -124 -196 -124c-108 0 -180 83 -180 191c0 114 72 159 178 218c-38 64 -66 102 -66 161
c0 77 47 160 188 160c149 0 182 -80 182 -138c0 -83 -56 -112 -144 -148zM348 462c41 31 49 62 49 102c0 74 -37 111 -72 111c-21 0 -49 -13 -49 -63c0 -46 25 -82 72 -150zM384 137l-151 221c-41 -19 -62 -65 -62 -116c0 -98 63 -155 122 -155c38 0 70 26 91 50z" />
    <glyph glyph-name="quotesingle" unicode="'" horiz-adv-x="154" 
d="M54 437l-19 164c-2 16 -3 31 -3 46c0 61 29 74 45 74s45 -13 45 -74c0 -15 -1 -30 -3 -46l-19 -164c-2 -14 -5 -30 -23 -30s-21 16 -23 30z" />
    <glyph glyph-name="parenleft" unicode="(" horiz-adv-x="399" 
d="M64 259c0 214 114 402 260 458c27 10 75 19 75 -6c0 -16 -4 -13 -42 -27c-152 -54 -162 -262 -162 -425s10 -371 162 -425c38 -14 42 -11 42 -27c0 -25 -48 -16 -75 -6c-146 56 -260 244 -260 458z" />
    <glyph glyph-name="parenright" unicode=")" horiz-adv-x="399" 
d="M335 259c0 -216 -112 -401 -260 -458c-27 -11 -75 -19 -75 6c0 16 4 14 42 27c154 55 162 262 162 425s-8 370 -162 425c-38 13 -42 11 -42 27c0 25 48 17 75 6c148 -57 260 -242 260 -458z" />
    <glyph glyph-name="asterisk" unicode="*" horiz-adv-x="379" 
d="M210 540c7 -11 14 -12 25 -14l27 -5c32 -6 89 3 89 -47c0 -23 -22 -37 -39 -37c-31 0 -47 29 -65 49l-24 27c-7 7 -12 12 -23 10c-6 -11 -4 -18 0 -27l10 -23c9 -20 24 -43 24 -68s-15 -44 -40 -44c-28 0 -41 22 -41 47c0 22 10 44 17 63l9 23c4 10 7 17 0 29
c-20 -2 -24 -12 -34 -28l-18 -29c-21 -34 -43 -37 -52 -37c-20 0 -41 13 -41 40c0 39 31 45 75 51l30 4c11 1 21 10 27 16c-9 14 -22 18 -30 19l-26 4c-39 6 -82 2 -82 44c0 23 17 39 39 39c30 0 46 -25 62 -46l17 -22c14 -18 25 -20 33 -19c5 8 8 20 -9 51l-9 16
c-9 16 -14 30 -14 48c0 28 18 41 39 41c20 0 41 -12 41 -42c0 -25 -9 -39 -16 -55l-8 -19c-10 -24 -5 -36 -3 -40c19 2 25 15 33 27l19 27c10 14 25 41 55 41c17 0 40 -11 40 -40c0 -53 -62 -49 -96 -56l-20 -4c-6 -1 -15 -8 -21 -14z" />
    <glyph glyph-name="plus" unicode="+" horiz-adv-x="600" 
d="M42 338v92h209v213h97v-213h211v-92h-211v-213h-97v213h-209z" />
    <glyph glyph-name="comma" unicode="," horiz-adv-x="278" 
d="M103 148c59 0 85 -64 85 -126c0 -80 -43 -138 -86 -180c-6 -6 -23 -20 -37 -20c-7 0 -10 7 -10 12c0 11 10 21 23 37c26 31 53 62 53 103c0 28 -13 28 -21 28s-15 -2 -22 -2c-22 0 -56 19 -56 72c0 46 32 76 71 76z" />
    <glyph glyph-name="hyphenminus" horiz-adv-x="285" 
d="M56 316h197l-24 -92h-197z" />
    <glyph glyph-name="period" unicode="." horiz-adv-x="278" 
d="M108 161c48 0 80 -33 80 -85c0 -54 -35 -91 -80 -91c-46 0 -76 40 -76 88c0 37 18 88 76 88z" />
    <glyph glyph-name="slash" unicode="/" horiz-adv-x="407" 
d="M80 -172h-60l331 872h60z" />
    <glyph glyph-name="zero" unicode="0" 
d="M248 715c159 0 224 -211 224 -365s-65 -365 -224 -365s-224 211 -224 365s65 365 224 365zM248 675c-40 0 -81 -41 -81 -325s41 -325 81 -325s81 41 81 325s-41 325 -81 325z" />
    <glyph glyph-name="one" unicode="1" 
d="M336 645v-506c0 -51 2 -82 43 -88l40 -6c8 -1 23 -4 23 -23c0 -22 -12 -22 -27 -22c-49 0 -97 4 -144 4c-51 0 -100 -4 -154 -4c-13 0 -27 -1 -27 22c0 19 12 22 22 23l44 6c51 7 47 41 47 88v403c0 27 7 59 -19 59c-7 0 -31 -8 -40 -11c-38 -16 -49 -21 -61 -21
s-20 6 -20 20c0 28 32 37 72 50c55 18 99 33 133 50l42 21c6 3 12 7 16 7c16 0 11 -21 11 -36z" />
    <glyph glyph-name="two" unicode="2" 
d="M177 143h184c42 0 50 23 55 44l4 17c3 11 9 12 14 12c18 0 17 -11 15 -84l-3 -105c0 -13 3 -27 -26 -27c-69 0 -126 6 -186 6c-52 0 -105 -6 -160 -6c-25 0 -32 7 -32 19c0 15 8 26 23 47c29 40 62 93 153 231c46 70 91 139 91 224c0 72 -41 128 -104 128
c-60 0 -98 -48 -118 -89c-5 -11 -16 -36 -31 -36c-4 0 -15 2 -15 21c0 16 9 32 20 49c61 98 127 121 199 121c128 0 191 -83 191 -179c0 -50 -11 -117 -94 -200c-49 -49 -144 -116 -183 -169c-14 -19 -5 -24 3 -24z" />
    <glyph glyph-name="three" unicode="3" 
d="M236 406l1 -4c15 3 39 8 58 8c108 0 176 -82 176 -192c0 -191 -198 -331 -327 -331c-67 0 -105 44 -105 87c0 39 26 65 60 65c39 0 49 -33 58 -57c7 -18 18 -46 42 -46c46 0 137 77 137 206c0 103 -56 188 -136 188c-16 0 -53 0 -93 -21c-13 -7 -22 -12 -30 -12
s-13 3 -13 18c0 22 32 36 64 57l36 24c93 62 116 121 116 169c0 46 -24 93 -73 93c-53 0 -93 -56 -102 -70c-5 -8 -13 -22 -24 -22s-20 11 -9 36c17 36 72 113 192 113c88 0 149 -44 149 -122c0 -96 -91 -141 -177 -187z" />
    <glyph glyph-name="four" unicode="4" 
d="M294 715h111v-503h90v-59h-90v-231h-133v231h-287v70zM272 212v402c0 2 0 3 -1 3c0 0 -1 0 -1 -1l-244 -392c-4 -6 0 -12 7 -12h239z" />
    <glyph glyph-name="five" unicode="5" 
d="M122 675l283 41c16 2 14 -4 11 -17l-27 -125c-1 -5 -9 -8 -16 -9l-229 -31c-8 -1 -17 -6 -20 -20l-4 -20c-5 -24 23 -21 47 -21c176 2 286 -98 286 -243s-101 -313 -362 -336c-34 -3 -47 1 -47 20s10 21 19 22c215 27 263 145 263 218c0 159 -154 173 -231 175
c-42 1 -47 7 -40 39z" />
    <glyph glyph-name="six" unicode="6" 
d="M302 481c113 0 169 -118 169 -235c0 -144 -93 -261 -219 -261c-131 0 -228 145 -228 331c0 280 201 472 366 516c33 9 59 13 59 -13c0 -14 -13 -19 -22 -22c-99 -32 -272 -151 -272 -455c0 -144 52 -312 127 -312c37 0 69 36 69 148c0 148 -50 239 -99 239
c-12 0 -21 -6 -28 -11s-15 -10 -22 -10c-6 0 -13 6 -13 16c0 36 68 69 113 69z" />
    <glyph glyph-name="seven" unicode="7" 
d="M195 -61h-53l206 543c6 16 7 23 7 34c0 17 -8 18 -14 18h-171c-27 0 -55 1 -89 -1c-26 -1 -32 -4 -42 -4c-22 0 -20 26 -20 39l-3 97c-1 37 6 41 19 40l80 -4c261 -13 199 -6 313 -6h43c6 0 10 -2 10 -10c0 -2 0 -7 -6 -22z" />
    <glyph glyph-name="eight" unicode="8" 
d="M154 336c-44 21 -113 71 -113 178c0 103 66 201 213 201c99 0 194 -48 194 -162c0 -85 -64 -123 -121 -139c79 -29 148 -96 148 -206c0 -125 -95 -223 -239 -223c-119 0 -216 73 -216 185c0 79 42 134 134 166zM296 435c43 32 46 79 46 101c0 86 -42 139 -98 139
c-52 0 -90 -42 -90 -99c0 -59 40 -93 142 -141zM191 318c-32 -23 -56 -62 -56 -134c0 -92 49 -159 115 -159c57 0 102 51 102 120c0 87 -63 125 -161 173z" />
    <glyph glyph-name="nine" unicode="9" 
d="M194 242c-93 0 -166 102 -166 220c0 128 86 253 213 253c143 0 227 -155 227 -310c0 -260 -199 -449 -366 -517c-49 -20 -56 -5 -56 13c0 12 2 15 32 29c175 82 261 287 261 465c0 197 -74 280 -121 280c-26 0 -76 -19 -76 -140c0 -137 60 -234 112 -234c10 0 21 3 25 5
c2 1 5 3 9 3c5 0 12 -4 12 -15c0 -9 -4 -15 -10 -21c-22 -22 -63 -31 -96 -31z" />
    <glyph glyph-name="colon" unicode=":" horiz-adv-x="278" 
d="M108 443c45 0 80 -33 80 -85c0 -65 -47 -91 -80 -91c-35 0 -76 28 -76 88c0 36 18 88 76 88zM108 161c45 0 80 -33 80 -85c0 -65 -47 -91 -80 -91c-35 0 -76 28 -76 88c0 36 18 88 76 88z" />
    <glyph glyph-name="semicolon" unicode=";" horiz-adv-x="318" 
d="M108 443c45 0 80 -33 80 -85c0 -53 -35 -91 -80 -91c-44 0 -76 38 -76 88c0 36 18 88 76 88zM103 148c57 0 85 -64 85 -126c0 -71 -39 -134 -87 -180c-7 -6 -23 -20 -36 -20c-6 0 -10 4 -10 12c0 9 6 18 22 37c14 16 54 58 54 103c0 28 -15 28 -22 28s-14 -2 -21 -2
c-22 0 -56 19 -56 72c0 43 32 76 71 76z" />
    <glyph glyph-name="less" unicode="&#x3c;" horiz-adv-x="612" 
d="M16 346l529 334l50 -79l-400 -255l400 -255l-50 -79z" />
    <glyph glyph-name="equal" unicode="=" horiz-adv-x="590" 
d="M62 384v84h466v-84h-466zM62 224v84h466v-84h-466z" />
    <glyph glyph-name="greater" unicode="&#x3e;" horiz-adv-x="612" 
d="M595 346l-529 -334l-50 79l400 255l-400 255l50 79z" />
    <glyph glyph-name="question" unicode="?" horiz-adv-x="364" 
d="M107 260l-11 60c-4 22 -12 66 24 97l52 46c33 29 76 69 76 132c0 44 -27 74 -53 74c-33 0 -50 -37 -63 -65c-18 -39 -33 -46 -47 -46c-8 0 -33 6 -33 78c0 22 2 38 20 53c23 19 60 26 87 26c109 0 177 -107 177 -190c0 -62 -22 -135 -76 -185l-87 -80
c-48 -44 -2 -75 -37 -75c-21 0 -17 11 -29 75zM216 76c0 -59 -44 -91 -81 -91c-35 0 -76 28 -76 88c0 53 34 88 77 88c54 0 80 -43 80 -85z" />
    <glyph glyph-name="at" unicode="@" horiz-adv-x="760" 
d="M587 116l37 -57c-75 -55 -157 -70 -222 -70c-199 0 -366 157 -366 360c0 195 158 357 364 357c212 0 324 -152 324 -287c0 -128 -108 -247 -235 -247c-69 0 -71 43 -71 59c0 31 11 74 22 101c-76 -116 -142 -156 -196 -156c-44 0 -67 33 -67 78c0 148 154 261 255 261
c28 0 43 -10 49 -13c2 -1 6 -3 9 2s5 16 30 16h62c5 0 12 1 12 -8c0 -10 -5 -21 -18 -62l-40 -130c-9 -29 -13 -47 -13 -61c0 -6 2 -17 19 -17c49 0 111 79 111 178c0 112 -105 218 -256 218c-161 0 -288 -133 -288 -289c0 -157 121 -291 297 -291c30 0 105 5 181 58z
M291 268c0 -27 16 -28 22 -28c50 0 161 157 161 222c0 19 -11 29 -31 29c-81 0 -152 -159 -152 -223z" />
    <glyph glyph-name="A" unicode="A" horiz-adv-x="598" 
d="M336 685l192 -568c18 -54 20 -72 54 -75c15 -1 32 0 32 -20c0 -19 -14 -22 -34 -22c-37 0 -74 6 -111 6c-42 0 -84 -6 -127 -6c-6 0 -26 -1 -26 21c0 19 16 21 24 21h15c23 1 24 16 24 25c0 11 -2 23 -5 31l-36 117c-2 7 -8 29 -26 29h-139c-10 0 -17 0 -24 -25l-17 -65
c-4 -16 -7 -32 -7 -51c0 -50 39 -58 58 -60c18 -2 31 -2 31 -22c0 -18 -13 -21 -29 -21c-28 0 -55 6 -83 6c-30 0 -59 -6 -89 -6c-19 0 -29 3 -29 21c0 29 33 19 55 39c20 18 31 53 52 118l167 510c2 7 6 17 12 22c3 3 10 4 14 5c5 1 10 0 15 0c12 -1 18 0 24 -6
c4 -4 11 -18 13 -24zM307 315l-59 193c-2 5 -1 7 -4 8c-3 -3 -3 -5 -4 -7l-59 -187c-2 -7 -4 -12 -4 -17c0 -13 9 -15 17 -15h98c17 0 20 9 15 25z" />
    <glyph glyph-name="B" unicode="B" horiz-adv-x="607" 
d="M105 139v431c0 20 1 61 -33 65h-12s-9 -1 -13 -1c-17 0 -21 12 -21 21c0 16 12 23 22 27c42 16 145 33 255 33c107 0 253 -17 253 -180c0 -104 -88 -147 -165 -145v-3c89 1 188 -50 188 -190c0 -181 -139 -197 -214 -197c-62 0 -124 6 -186 6c-43 0 -85 -6 -128 -6
c-8 0 -27 0 -27 23c0 19 17 19 24 19c52 3 57 49 57 97zM255 608v-170c0 -30 8 -33 23 -33h9c23 0 115 4 115 132c0 66 -28 136 -94 136c-58 0 -53 -49 -53 -65zM255 330v-186c0 -39 4 -102 72 -102c56 0 98 40 98 147s-46 176 -132 176h-13c-26 0 -25 -24 -25 -35z" />
    <glyph glyph-name="C" unicode="C" horiz-adv-x="598" 
d="M553 638l6 -45c3 -25 10 -55 -14 -55c-17 0 -24 18 -34 34l-22 35c-33 52 -61 68 -101 68c-113 0 -203 -127 -203 -323c0 -234 111 -327 195 -327c27 0 75 11 114 71c29 45 24 62 47 94c3 4 7 8 14 8c23 0 20 -23 18 -50l-3 -47c-2 -35 2 -59 -66 -88
c-55 -24 -97 -28 -129 -28c-252 0 -343 195 -343 361c0 180 120 369 358 369c40 0 90 -7 135 -24c21 -8 22 -10 28 -53z" />
    <glyph glyph-name="D" unicode="D" horiz-adv-x="700" 
d="M98 139v422c0 56 -3 78 -42 75c-13 -1 -18 -3 -24 -3c-14 0 -16 13 -16 20c0 18 18 21 34 25l34 8c64 15 159 29 228 29c235 0 356 -165 356 -348c0 -187 -123 -367 -360 -367c-45 0 -90 6 -135 6c-43 0 -86 -6 -129 -6c-8 0 -27 0 -27 23c0 19 17 19 23 19
c47 3 58 41 58 97zM248 597v-432c0 -68 11 -94 22 -106c14 -16 34 -19 50 -19c87 0 194 103 194 313c0 230 -107 322 -204 322c-41 0 -50 -12 -56 -28s-6 -31 -6 -50z" />
    <glyph glyph-name="E" unicode="E" horiz-adv-x="551" 
d="M105 139v422c0 56 -11 94 -57 97c-7 0 -24 0 -24 19c0 23 19 23 27 23c87 0 18 -2 112 -4l116 -2c39 -1 134 2 160 4c57 4 59 16 59 -39v-56c0 -58 -6 -63 -18 -63c-16 0 -19 15 -25 27l-12 22c-32 58 -92 62 -128 62c-68 0 -60 -27 -60 -48v-168c0 -19 -4 -45 24 -45h37
c31 0 60 1 75 43l12 34c4 13 6 31 23 31c10 0 18 -6 18 -25c0 -60 -10 -76 -3 -179c2 -24 4 -52 -16 -52c-21 0 -23 23 -31 45l-7 19c-9 24 -26 44 -77 44h-15c-46 0 -40 -23 -40 -37v-147c0 -47 3 -117 74 -117h15c76 0 111 53 136 105l13 27c3 7 7 15 18 15
c10 0 20 -5 20 -24c0 -9 -2 -16 -4 -30l-4 -31c-12 -90 7 -114 -50 -112l-112 4c-223 8 -190 -3 -310 -3c-8 0 -27 0 -27 23c0 19 17 19 24 19c46 3 57 41 57 97z" />
    <glyph glyph-name="F" unicode="F" horiz-adv-x="518" 
d="M105 139v422c0 55 -11 95 -57 97c-7 0 -24 0 -24 19c0 23 19 23 27 23c17 0 33 -1 50 -2c21 -1 41 -2 62 -2l116 -2c39 -1 134 2 160 4c59 4 59 1 59 -16v-23c0 -13 -1 -27 -1 -41c0 -16 1 -32 1 -48c0 -22 -6 -30 -18 -30c-15 0 -18 13 -25 26l-12 22
c-18 33 -45 63 -128 63c-68 0 -60 -27 -60 -48v-168c0 -35 5 -45 24 -45h45c29 0 56 2 75 64l4 13c4 12 7 31 23 31c21 0 18 -27 17 -43c-4 -50 -6 -102 -2 -161c1 -23 5 -52 -16 -52c-20 0 -22 18 -31 45l-6 19c-13 41 -56 44 -73 44h-20c-46 0 -40 -23 -40 -37v-174
c0 -28 -5 -95 65 -97c7 0 23 1 23 -19c0 -11 -1 -23 -26 -23c-46 0 -92 6 -138 6c-43 0 -85 -6 -128 -6c-8 0 -27 0 -27 23c0 19 17 19 24 19c46 2 57 42 57 97z" />
    <glyph glyph-name="G" unicode="G" horiz-adv-x="663" 
d="M594 231l2 -63c1 -37 3 -33 3 -77c0 -17 -1 -25 -16 -40c-44 -43 -126 -66 -201 -66c-198 0 -350 130 -350 353c0 221 155 377 354 377c48 0 104 -11 143 -29c15 -7 23 -13 25 -33l4 -37c1 -7 4 -41 4 -57c0 -10 -2 -26 -16 -26c-17 0 -23 11 -28 22l-16 34
c-15 31 -47 86 -115 86c-74 0 -201 -64 -201 -325c0 -222 100 -325 198 -325c74 0 71 64 71 98v70c0 97 -31 101 -63 101c-28 0 -30 12 -30 23c0 17 4 26 40 26c38 0 76 -8 114 -8c40 0 79 8 120 8c12 0 27 -1 27 -23c0 -4 1 -21 -27 -25c-45 -6 -43 -46 -42 -64z" />
    <glyph glyph-name="H" unicode="H" horiz-adv-x="730" 
d="M105 139v422c0 56 -11 94 -57 97c-7 0 -24 0 -24 19c0 23 19 23 27 23c43 0 85 -6 128 -6s86 6 130 6c25 0 26 -12 26 -23c0 -20 -16 -19 -23 -19c-61 -4 -57 -72 -57 -97v-139c0 -12 0 -27 21 -27h180c21 0 19 13 19 27v139c0 52 -9 93 -58 97c-10 1 -23 1 -23 19
c0 11 1 23 26 23c44 0 87 -6 130 -6s86 6 129 6c8 0 27 0 27 -23c0 -19 -17 -19 -23 -19c-47 -3 -58 -41 -58 -97v-422c0 -56 11 -94 58 -97c6 0 23 0 23 -19c0 -23 -19 -23 -27 -23c-43 0 -86 6 -129 6s-86 -6 -130 -6c-25 0 -26 12 -26 23c0 18 13 18 23 19
c49 4 58 45 58 97v179c0 13 0 33 -18 33h-178c-24 0 -24 -5 -24 -28v-184c0 -25 -4 -93 57 -97c7 0 23 1 23 -19c0 -11 -1 -23 -26 -23c-44 0 -87 6 -130 6s-85 -6 -128 -6c-8 0 -27 0 -27 23c0 19 17 19 24 19c46 3 57 41 57 97z" />
    <glyph glyph-name="I" unicode="I" horiz-adv-x="360" 
d="M255 561v-422c0 -48 7 -94 58 -97c6 0 23 0 23 -19c0 -9 -2 -23 -26 -23c-44 0 -87 6 -130 6s-86 -6 -130 -6c-24 0 -26 14 -26 23c0 19 17 19 23 19c51 3 58 49 58 97v422c0 48 -8 94 -58 97c-6 0 -23 0 -23 19c0 9 2 23 26 23c44 0 87 -6 130 -6s86 6 130 6
c24 0 26 -14 26 -23c0 -19 -17 -19 -23 -19c-51 -3 -58 -49 -58 -97z" />
    <glyph glyph-name="J" unicode="J" horiz-adv-x="408" 
d="M303 561v-385c0 -65 2 -109 -36 -186c-42 -85 -134 -211 -240 -211c-64 0 -103 46 -103 100c0 60 42 77 69 77c42 0 58 -33 67 -61c5 -15 12 -44 32 -44s31 21 35 29c10 20 26 62 26 166v515c0 47 -2 95 -66 97c-6 0 -23 0 -23 19c0 23 19 23 27 23c46 0 91 -6 137 -6
c43 0 86 6 130 6c12 0 26 -2 26 -23c0 -19 -17 -18 -23 -19c-56 -5 -58 -59 -58 -97z" />
    <glyph glyph-name="K" unicode="K" horiz-adv-x="686" 
d="M256 316v-177c0 -56 11 -94 58 -97c6 0 23 0 23 -19c0 -23 -19 -23 -27 -23c-43 0 -86 6 -129 6s-86 -6 -130 -6c-25 0 -26 12 -26 23c0 20 16 19 23 19c49 3 58 46 58 97v422c0 54 -9 91 -58 97l-8 1c-10 1 -16 8 -16 18c0 24 21 23 27 23c44 0 87 -6 130 -6s86 6 129 6
c6 0 27 1 27 -23c0 -15 -11 -17 -16 -18l-7 -1c-42 -6 -58 -28 -58 -97v-175c0 -11 7 -11 11 -6l121 150c55 68 67 86 67 103c0 16 -12 18 -17 18l-15 1c-12 1 -32 2 -32 26c0 22 23 22 31 22c32 0 64 -6 96 -6c36 0 72 6 110 6c13 0 28 -2 28 -23s-14 -23 -22 -24l-25 -2
c-39 -3 -68 -8 -123 -75l-96 -118c-3 -3 -6 -11 -6 -14c0 -4 3 -12 6 -16l220 -321c22 -32 34 -54 63 -58l8 -1c10 -1 21 -3 21 -23c0 -26 -22 -25 -36 -25c-42 0 -83 6 -124 6c-39 0 -78 -6 -120 -6c-6 0 -31 -2 -31 24c0 6 1 21 21 24l12 2c10 2 13 10 13 15
c0 8 -8 27 -13 35l-148 219c-2 3 -5 8 -10 8c-1 0 -4 0 -5 -1l-3 -3c-1 -1 -2 -6 -2 -7z" />
    <glyph glyph-name="L" unicode="L" horiz-adv-x="502" 
d="M255 561v-411c0 -82 30 -101 74 -101c68 0 109 48 129 88l18 36c4 8 7 15 18 15c19 0 17 -17 15 -40l-5 -60c-4 -47 0 -89 -32 -88l-71 3c-63 3 -132 3 -221 3c-54 0 -84 -6 -130 -6c-25 0 -26 12 -26 23c0 18 13 18 23 19c49 4 58 45 58 97v422c0 57 -8 93 -58 97
c-10 1 -23 1 -23 19c0 11 1 23 26 23c44 0 87 -6 130 -6s86 6 129 6c8 0 27 0 27 -23c0 -19 -17 -19 -23 -19c-17 -1 -35 -10 -44 -23c-10 -14 -14 -38 -14 -74z" />
    <glyph glyph-name="M" unicode="M" horiz-adv-x="800" 
d="M263 681l140 -417c1 -3 3 -3 4 0l138 418c5 15 15 18 30 18c29 0 55 -6 81 -6c27 0 55 6 84 6c7 0 21 0 24 -13c1 -3 0 -7 0 -10c-1 -12 -2 -18 -28 -19c-29 -2 -48 -6 -46 -81l11 -440c2 -71 11 -94 47 -96c16 -1 31 3 31 -17c0 -9 -4 -22 -19 -24c-5 -1 -11 0 -16 0
c-36 3 -72 6 -108 6c-46 0 -92 -6 -138 -6c-11 0 -28 1 -28 23c0 17 9 18 27 19c25 1 55 -8 54 63l-7 424c0 2 0 4 -1 4s-2 0 -3 -2l-141 -428c-17 -53 -7 -25 -23 -75c-5 -15 -8 -24 -27 -24c-17 0 -20 9 -25 21c-15 40 -16 47 -25 75l-141 425c-1 2 -1 3 -2 3s-2 -1 -2 -3
l-10 -388c-1 -21 -3 -89 48 -95c15 -2 27 2 34 -2c5 -3 10 -10 10 -16c0 -22 -20 -24 -28 -24c-26 0 -52 6 -78 6c-29 0 -58 -6 -87 -6c-11 0 -22 1 -22 21c0 21 18 20 24 20c35 0 49 11 52 78l17 436c3 78 -1 103 -44 103c-9 0 -32 -1 -32 23c0 19 17 19 35 19
c11 0 21 -1 32 -2c18 -2 37 -4 55 -4c42 0 62 6 73 6c25 0 27 -9 30 -19z" />
    <glyph glyph-name="N" unicode="N" horiz-adv-x="674" 
d="M265 672l262 -402v291c0 87 -31 94 -58 97l-10 1c-6 1 -13 6 -13 18c0 10 1 23 26 23s50 -6 75 -6s51 6 76 6c8 0 27 0 27 -23c0 -8 -7 -17 -13 -18l-11 -1c-52 -5 -57 -51 -57 -97v-546c0 -12 -1 -38 -23 -38c-18 0 -29 19 -38 33l-361 554v-425c0 -33 1 -96 65 -97
c7 0 23 0 23 -19c0 -10 -1 -23 -26 -23c-28 0 -55 6 -82 6c-25 0 -51 -6 -76 -6c-8 0 -27 0 -27 23c0 19 17 19 24 19c61 4 57 72 57 97v422c0 30 2 94 -57 97c-7 0 -24 0 -24 19c0 23 19 23 27 23h165c28 0 32 -2 49 -28z" />
    <glyph glyph-name="O" unicode="O" horiz-adv-x="704" 
d="M362 -15c-193 0 -330 158 -330 366c0 218 133 364 310 364c174 0 330 -137 330 -360c0 -250 -155 -370 -310 -370zM367 25c104 0 151 143 151 296c0 192 -66 354 -180 354c-103 0 -152 -142 -152 -295c0 -146 51 -355 181 -355z" />
    <glyph glyph-name="P" unicode="P" horiz-adv-x="578" 
d="M105 139v422c0 48 -5 82 -45 95c-20 6 -36 -2 -36 21s19 23 27 23c43 0 85 -6 128 -6c27 0 53 1 80 3c28 2 56 3 84 3c39 0 219 -4 219 -200c0 -117 -72 -213 -175 -213c-37 0 -64 9 -95 21c-13 5 -19 7 -25 7c-12 0 -12 -11 -12 -18v-158c0 -49 7 -95 61 -97
c7 0 23 1 23 -19c0 -11 -1 -23 -26 -23c-45 0 -89 6 -134 6c-43 0 -85 -6 -128 -6c-8 0 -27 0 -27 23s16 15 36 21c40 13 45 47 45 95zM255 559v-165c0 -20 8 -31 18 -37c8 -5 22 -7 34 -7c79 0 101 85 101 148c0 94 -41 157 -101 157c-15 0 -39 -5 -48 -39
c-5 -18 -4 -35 -4 -57z" />
    <glyph glyph-name="Q" unicode="Q" horiz-adv-x="704" 
d="M346 715c191 0 326 -159 326 -360c0 -169 -80 -307 -209 -357c-17 -7 -23 -8 -23 -11c0 -5 1 -7 4 -10c12 -10 17 -13 41 -54c16 -27 56 -95 114 -95c8 0 15 2 30 4c13 3 19 5 27 5c3 0 16 -1 16 -16c0 -37 -97 -53 -137 -53c-128 0 -266 73 -239 187c7 30 -8 32 -24 36
c-91 25 -240 131 -240 360c0 216 132 364 314 364zM366 25c111 0 152 164 152 296c0 195 -68 354 -179 354s-153 -165 -153 -295c0 -196 70 -355 180 -355z" />
    <glyph glyph-name="R" unicode="R" horiz-adv-x="615" 
d="M105 139v422c0 33 1 92 -58 97c-10 1 -23 1 -23 19c0 11 1 23 26 23c44 0 87 -6 130 -6c78 0 128 6 196 6c143 0 176 -98 176 -173c0 -104 -74 -160 -153 -160v-4c53 -7 75 -55 89 -88l68 -166c24 -59 36 -64 56 -67c12 -2 19 -1 19 -20c0 -21 -13 -22 -21 -22
c-25 0 -49 6 -73 6c-37 0 -18 -6 -82 -6c-11 0 -15 0 -25 24l-92 228c-35 86 -42 82 -63 82c-11 0 -20 3 -20 -24v-171c0 -57 11 -94 58 -97c6 0 23 0 23 -19c0 -9 -2 -23 -26 -23c-44 0 -87 6 -130 6s-86 -6 -130 -6c-25 0 -26 12 -26 23c0 18 13 18 23 19
c59 5 58 64 58 97zM255 595v-180c0 -32 7 -39 25 -39h10c66 0 108 66 108 137c0 66 -33 137 -96 137c-28 0 -47 -8 -47 -55z" />
    <glyph glyph-name="S" unicode="S" horiz-adv-x="470" 
d="M400 639l1 -78c0 -13 0 -43 -19 -43c-16 0 -19 21 -26 40c-32 88 -51 117 -107 117c-66 0 -95 -52 -95 -104c0 -66 56 -91 112 -117c92 -43 176 -84 176 -219c0 -150 -104 -250 -237 -250c-46 0 -99 11 -147 36c-18 9 -28 18 -29 56l-1 64c-1 57 4 73 20 73
c15 0 20 -13 25 -42c20 -122 71 -147 132 -147c71 0 123 47 123 123c0 81 -49 111 -138 155c-64 31 -152 70 -152 187c0 99 53 225 228 225c54 0 93 -15 110 -23c30 -14 24 -29 24 -53z" />
    <glyph glyph-name="T" unicode="T" horiz-adv-x="537" 
d="M101 700h344c23 0 37 -3 54 29c9 18 13 22 22 22c10 0 18 -5 15 -39c-3 -29 -5 -59 -7 -88c-2 -24 -4 -47 -6 -71c-1 -12 -3 -30 -18 -30c-17 0 -22 14 -24 21l-13 41c-20 64 -55 70 -77 70h-34c-14 0 -13 -12 -13 -19v-497c0 -48 5 -82 45 -95c20 -6 36 2 36 -21
s-19 -23 -27 -23c-43 0 -86 6 -129 6s-86 -6 -130 -6c-25 0 -26 12 -26 23c0 20 16 19 23 19c61 4 57 72 57 97v497c0 12 1 19 -26 19c-45 0 -67 5 -114 -84c-19 -37 -27 -48 -40 -48c-12 0 -17 8 -17 23c0 10 4 20 6 31l31 140c2 9 6 27 22 27c14 0 17 -10 18 -18l1 -8
c1 -8 1 -18 27 -18z" />
    <glyph glyph-name="U" unicode="U" horiz-adv-x="681" 
d="M248 561v-276c0 -120 1 -254 140 -254c144 0 152 131 152 204v326c0 62 -14 94 -66 97c-10 1 -23 1 -23 19c0 10 1 23 26 23c28 0 55 -6 82 -6c26 0 53 6 79 6c8 0 27 0 27 -23c0 -19 -17 -19 -24 -19c-46 -3 -57 -41 -57 -97v-326c0 -93 -13 -250 -235 -250
c-245 0 -252 177 -252 241v335c0 56 -11 94 -57 97c-7 0 -24 0 -24 19c0 23 19 23 27 23c43 0 86 -6 129 -6s86 6 130 6c25 0 26 -12 26 -23c0 -20 -16 -19 -23 -19c-61 -4 -57 -72 -57 -97z" />
    <glyph glyph-name="V" unicode="V" horiz-adv-x="591" 
d="M224 591l116 -349c2 -5 3 -14 7 -14s5 9 7 14l103 315c3 10 13 35 13 61c0 37 -29 39 -46 40c-12 1 -27 2 -27 20c0 12 8 22 28 22c30 0 58 -6 87 -6c23 0 47 6 70 6c8 0 25 -1 25 -21c0 -11 -6 -20 -19 -21l-21 -1c-32 -2 -52 -70 -65 -110l-163 -492
c-11 -35 -15 -47 -20 -59c-7 -17 -12 -16 -26 -16c-13 0 -18 -1 -25 13c-13 26 -16 43 -22 61l-180 526c-24 71 -34 76 -60 78c-7 1 -22 2 -22 18c0 9 4 24 21 24c48 0 93 -6 139 -6c36 0 72 6 109 6c12 0 31 1 31 -20c0 -22 -20 -21 -33 -22c-30 -1 -35 -13 -35 -31
c0 -16 4 -25 8 -36z" />
    <glyph glyph-name="W" unicode="W" horiz-adv-x="853" 
d="M216 599l138 -393c2 -6 3 -10 5 -10s4 3 6 9l54 131l-92 256c-20 55 -27 62 -40 65l-4 1c-15 4 -16 11 -16 19c0 16 5 23 29 23c41 0 82 -6 123 -6c18 0 37 1 55 1c19 0 38 -1 57 -1c32 0 64 6 96 6c11 0 26 -2 26 -22s-16 -18 -26 -21c-7 -2 -22 -8 -44 -61l-63 -153
l85 -236c3 -7 4 -11 6 -11s3 4 5 11l107 332c4 14 18 61 18 81c0 23 -12 35 -24 37l-6 1c-11 2 -25 1 -25 22c0 11 3 20 26 20c22 0 44 -6 66 -6s43 6 65 6c9 0 26 -1 26 -18c0 -12 -5 -23 -17 -24l-9 -1c-13 -1 -26 -1 -40 -28c-18 -34 -35 -94 -49 -137l-152 -462
c-15 -45 -16 -50 -41 -50c-19 0 -22 3 -38 50l-77 224c-2 6 -4 9 -5 9s-3 -3 -5 -9l-104 -243c-14 -33 -16 -31 -31 -31c-13 0 -19 -2 -30 30l-199 559c-27 76 -37 85 -59 88c-13 2 -29 3 -29 24c0 19 19 19 28 19c39 0 78 -6 116 -6c30 0 60 6 91 6c8 0 28 -1 28 -22
c0 -9 -3 -20 -20 -20h-3c-12 0 -17 -10 -17 -21s6 -29 9 -38zM504 510l20 51c7 19 17 41 17 66c0 26 -18 30 -30 30h-12s-8 1 -12 1c-27 0 -28 -22 -28 -28c0 -23 6 -38 12 -54l24 -66c2 -6 3 -9 4 -9s3 3 5 9z" />
    <glyph glyph-name="X" unicode="X" horiz-adv-x="654" 
d="M281 601l76 -136c3 -6 5 -8 9 0l59 107c19 34 21 49 21 57c0 9 -4 28 -24 29l-14 1c-10 1 -26 0 -26 23c0 17 20 18 33 18c32 0 65 -6 97 -6s64 6 96 6c18 0 32 -1 32 -21c0 -19 -20 -19 -31 -20l-17 -1c-20 -1 -48 -1 -73 -40l-129 -202l163 -278c49 -84 56 -90 74 -94
c26 -6 27 -8 27 -22c0 -17 -2 -22 -35 -22c-46 0 -92 6 -138 6c-39 0 -77 -6 -116 -6c-12 0 -24 0 -24 20c0 8 1 20 24 21c16 0 41 1 41 29c0 11 -5 21 -12 34l-101 180c-1 2 -2 4 -3 4s-2 -2 -3 -4l-78 -136c-16 -27 -26 -48 -26 -68c0 -15 7 -36 30 -37l17 -1
c28 -2 31 -5 31 -21c0 -10 2 -21 -32 -21c-36 0 -72 6 -108 6c-21 0 -42 -2 -62 -4c-10 -1 -19 -2 -29 -2c-8 0 -25 0 -25 21s17 20 29 21c58 4 108 84 129 120l100 171l-142 232c-57 94 -75 90 -96 92l-9 1c-12 1 -16 10 -16 22c0 13 7 20 31 20c54 0 101 -6 151 -6
c42 0 86 6 129 6c9 0 26 -2 26 -22c0 -19 -16 -19 -26 -20l-13 -1c-10 -1 -27 -2 -27 -27c0 -11 5 -20 10 -29z" />
    <glyph glyph-name="Y" unicode="Y" horiz-adv-x="616" 
d="M258 584l97 -184c5 -10 8 -16 10 -16s4 6 9 16l76 148c21 41 25 60 25 72c0 33 -25 35 -40 37l-20 2c-6 1 -19 2 -19 20c0 21 20 21 28 21c32 0 63 -6 94 -6c29 0 57 6 87 6c26 0 27 -14 27 -22c0 -22 -17 -20 -30 -21c-35 -2 -59 -37 -100 -114l-106 -198
c-9 -16 -7 -26 -7 -39v-167c0 -56 11 -94 57 -97c7 0 24 0 24 -19c0 -23 -19 -23 -27 -23c-43 0 -86 6 -129 6s-86 -6 -130 -6c-25 0 -26 12 -26 23c0 20 16 19 23 19c61 4 57 72 57 97v137c0 7 2 14 0 20c-1 5 -5 10 -8 15l-154 281c-14 25 -37 61 -59 64l-13 2
c-9 1 -20 3 -20 21c0 21 20 21 29 21c43 0 84 -6 126 -6c46 0 92 6 138 6c15 0 29 -1 29 -22c0 -11 -5 -18 -16 -19l-16 -1c-11 -1 -34 -1 -34 -26c0 -15 9 -31 18 -48z" />
    <glyph glyph-name="Z" unicode="Z" horiz-adv-x="576" 
d="M334 651h-78c-59 0 -105 -4 -154 -91c-6 -11 -16 -27 -30 -27c-5 0 -16 4 -16 21c0 11 2 22 10 54l11 46c18 75 18 95 38 95c11 0 15 -6 21 -24c8 -28 16 -25 30 -25h360c24 0 26 -1 26 -13s-4 -15 -8 -22l-316 -587c-7 -13 -14 -27 8 -27h100c50 0 103 1 133 46
c10 16 30 64 35 83c3 10 6 24 20 24c24 0 20 -29 20 -43v-117c0 -40 -4 -46 -18 -46c-23 0 -55 6 -110 5c-24 0 -48 0 -72 -1c-97 -3 -192 -2 -288 -2h-18c-32 0 -18 29 -10 44l315 577c9 16 15 30 -9 30z" />
    <glyph glyph-name="bracketleft" unicode="[" horiz-adv-x="275" 
d="M64 -142v808c0 47 4 49 25 49h154c8 0 32 0 32 -28c0 -11 -5 -31 -39 -31c-11 0 -21 2 -32 2c-36 0 -37 -18 -37 -42v-698c0 -25 -6 -52 37 -52c11 0 21 2 32 2c33 0 39 -20 39 -31c0 -27 -24 -27 -32 -27h-154c-21 0 -25 2 -25 48z" />
    <glyph glyph-name="backslash" unicode="\" horiz-adv-x="396" 
d="M332 -244l-312 915l68 32l312 -915z" />
    <glyph glyph-name="bracketright" unicode="]" horiz-adv-x="275" 
d="M211 667v-808c0 -47 -1 -49 -25 -49h-154c-8 0 -32 0 -32 28c0 13 7 31 40 31c11 0 21 -2 32 -2c33 0 36 12 36 42v698c0 33 3 52 -36 52c-11 0 -21 -2 -32 -2c-33 0 -40 18 -40 31c0 27 24 27 32 27h154c24 0 25 -2 25 -48z" />
    <glyph glyph-name="asciicircum" unicode="^" horiz-adv-x="414" 
d="M207 587l-98 -164h-89l187 315l187 -315h-89z" />
    <glyph glyph-name="underscore" unicode="_" horiz-adv-x="408" 
d="M-4 -280v93h416v-93h-416z" />
    <glyph glyph-name="grave" unicode="`" horiz-adv-x="250" 
d="M186 575l-146 66c-18 8 -40 20 -40 56c0 35 28 51 48 51c14 0 24 -5 33 -12l130 -101c19 -15 39 -22 39 -46c0 -12 -6 -28 -26 -28c-13 0 -23 7 -38 14z" />
    <glyph glyph-name="a" unicode="a" horiz-adv-x="498" 
d="M415 399l-5 -264c0 -22 -1 -57 22 -57c11 0 21 8 27 13c11 9 15 11 18 11c4 0 15 2 15 -14c0 -14 -8 -27 -26 -48c-22 -25 -57 -52 -103 -52c-24 0 -61 9 -78 75c-3 11 -4 13 -5 13c-2 0 -5 -4 -15 -15c-24 -25 -84 -79 -142 -79c-56 0 -91 42 -91 97
c0 114 133 151 233 211c11 7 16 10 16 47l1 85c1 49 -20 63 -43 63c-41 0 -56 -36 -63 -56l-13 -36c-17 -48 -90 -58 -107 -58s-28 10 -28 26c0 20 9 58 62 105c47 42 100 61 167 61c161 0 159 -91 158 -128zM278 187l1 43c0 10 -4 14 -7 14s-8 -2 -16 -7
c-36 -22 -84 -45 -84 -104c0 -37 21 -52 42 -52c59 0 63 74 64 106z" />
    <glyph glyph-name="b" unicode="b" horiz-adv-x="556" 
d="M76 68v536c0 35 -3 69 -30 73l-13 2c-9 1 -25 3 -25 23c0 22 22 22 40 26c35 7 79 22 114 41c19 10 26 13 32 13c9 0 15 -12 15 -33v-243c0 -13 0 -28 9 -28c5 0 13 8 30 18c24 15 52 31 94 31c105 0 190 -111 190 -259c0 -154 -96 -286 -261 -286c-29 0 -61 5 -91 26
l-33 23c-16 11 -19 6 -36 -41c-4 -10 -10 -25 -23 -25c-20 0 -16 27 -15 45c2 27 3 43 3 58zM209 387v-231c0 -68 3 -135 62 -135c48 0 118 54 118 217c0 149 -71 217 -122 217c-14 0 -30 -8 -42 -20c-17 -16 -16 -38 -16 -48z" />
    <glyph glyph-name="c" unicode="c" horiz-adv-x="460" 
d="M427 419l-6 -40c-2 -12 -7 -36 -29 -36c-26 0 -38 34 -48 57l-16 37c-9 21 -21 47 -53 47c-55 0 -108 -84 -108 -192c0 -141 66 -233 160 -233c39 0 62 17 79 30c11 8 16 12 21 12s13 -1 13 -18s-10 -26 -20 -36c-41 -41 -105 -65 -171 -65c-157 0 -225 137 -225 262
c0 192 145 283 270 283c43 0 87 -11 117 -39c27 -25 20 -43 16 -69z" />
    <glyph glyph-name="d" unicode="d" horiz-adv-x="556" 
d="M476 749v-640c0 -7 -1 -32 12 -32c12 0 21 13 25 22c10 18 18 20 23 20c6 0 14 -9 12 -25l-2 -18c-2 -19 2 -22 -27 -35l-127 -55c-7 -3 -38 -16 -40 17l-2 31c-1 10 -4 14 -10 8c-21 -24 -78 -60 -137 -60c-106 0 -179 104 -179 255c0 187 120 290 229 290
c34 0 50 -10 71 -19c17 -7 19 -4 19 10v86c0 35 -3 69 -30 73l-13 2c-8 1 -25 4 -25 23c0 21 25 23 40 26c34 6 80 23 114 41c19 10 26 13 32 13c13 0 15 -18 15 -33zM343 130v217c0 108 -40 130 -71 130c-37 0 -105 -41 -105 -208c0 -153 63 -203 121 -203
c52 0 55 35 55 64z" />
    <glyph glyph-name="e" unicode="e" horiz-adv-x="481" 
d="M418 310h-231c-14 0 -20 3 -20 -39c0 -119 69 -210 150 -210c29 0 60 12 90 36c18 15 25 23 32 23c5 0 14 -4 14 -17s-6 -23 -13 -32c-37 -48 -105 -89 -183 -89c-124 0 -233 115 -233 276c0 159 102 269 241 269c119 0 192 -88 192 -175c0 -41 -23 -42 -39 -42zM206 349
h34c54 0 92 10 92 66c0 51 -29 72 -58 72c-27 0 -53 -14 -70 -35c-15 -18 -28 -52 -28 -80c0 -24 15 -23 30 -23z" />
    <glyph glyph-name="f" unicode="f" horiz-adv-x="347" 
d="M227 431v-292c0 -33 -1 -75 35 -85l31 -9c21 -6 23 -14 23 -23c0 -22 -11 -22 -26 -22c-41 0 -81 4 -121 4s-80 -4 -122 -4c-10 0 -27 0 -27 22c0 8 3 17 23 23l25 8c28 9 26 41 26 86v287c0 32 -14 32 -25 32h-24c-4 0 -18 1 -18 18c0 25 25 30 41 33c20 4 21 7 27 49
c26 176 130 215 206 215c52 0 106 -18 106 -62c0 -24 -24 -98 -51 -98c-19 0 -27 23 -37 45c-8 19 -28 71 -51 71s-44 -36 -44 -168c0 -28 -3 -49 16 -49h83c16 0 22 -1 23 -21l1 -15c1 -15 -5 -18 -19 -18h-72c-23 0 -29 1 -29 -27z" />
    <glyph glyph-name="g" unicode="g" horiz-adv-x="489" 
d="M390 485l65 3c15 1 19 1 21 -20l2 -18c1 -8 2 -24 -15 -24l-49 1l-1 -6c11 -19 22 -47 22 -85c0 -94 -69 -182 -202 -182c-9 0 -19 1 -28 1c-37 0 -44 -15 -44 -23c0 -10 6 -35 55 -35h32c90 0 233 6 233 -133c0 -98 -82 -206 -264 -206c-158 0 -209 71 -209 127
c0 47 33 70 56 84l27 16c7 4 16 9 16 13c0 5 -7 9 -20 23l-21 23c-12 13 -35 43 -35 55c0 17 30 32 50 42c19 9 45 21 60 27c-48 16 -118 61 -118 171c0 90 66 188 205 188c88 0 53 -19 162 -42zM227 488c-35 0 -71 -27 -71 -135c0 -126 37 -160 78 -160c58 0 68 67 68 131
c0 129 -37 164 -75 164zM283 -47h-26c-45 0 -69 -1 -94 14c-13 7 -18 13 -25 13c-12 0 -29 -28 -29 -64c0 -37 18 -115 132 -115c85 0 125 45 125 92c0 56 -48 60 -83 60z" />
    <glyph glyph-name="h" unicode="h" horiz-adv-x="595" 
d="M219 749v-278c0 -4 -1 -11 3 -11c3 0 8 3 10 4c74 57 124 63 148 63c60 0 137 -32 137 -191v-197c0 -72 2 -81 51 -94c10 -3 23 -6 23 -23c0 -22 -15 -22 -29 -22c-37 0 -74 4 -110 4c-34 0 -68 -4 -103 -4c-12 0 -26 2 -26 22c0 16 11 19 22 23c37 12 39 15 39 94v188
c0 48 -4 125 -76 125c-31 0 -89 -15 -89 -80v-233c0 -27 -4 -76 20 -86l20 -8c8 -3 21 -6 21 -23c0 -20 -14 -22 -26 -22c-34 0 -68 4 -101 4c-38 0 -75 -4 -114 -4c-13 0 -27 0 -27 22c0 15 8 18 23 23l25 8c29 9 26 45 26 86v465c0 36 -1 69 -30 73l-13 2
c-9 1 -24 3 -24 23c0 16 12 20 20 22c30 7 78 15 133 45c17 9 25 13 32 13c14 0 15 -18 15 -33z" />
    <glyph glyph-name="i" unicode="i" horiz-adv-x="313" 
d="M229 517v-378c0 -55 0 -74 27 -86c23 -10 47 -6 47 -31c0 -22 -14 -22 -27 -22c-38 0 -76 4 -113 4c-38 0 -75 -4 -114 -4c-13 0 -27 0 -27 22c0 17 13 20 22 23l25 8c30 10 27 48 27 86v193c0 54 -22 53 -34 53h-7c-4 0 -20 1 -20 22c0 22 19 25 41 34
c66 27 97 64 120 86c6 6 12 9 21 9c12 0 12 -13 12 -19zM160 747c39 0 80 -28 80 -85c0 -56 -34 -90 -80 -90c-42 0 -77 34 -77 85c0 59 42 90 77 90z" />
    <glyph glyph-name="j" unicode="j" horiz-adv-x="302" 
d="M230 502v-452c0 -69 -24 -185 -150 -271c-18 -12 -34 -21 -52 -21c-9 0 -20 3 -20 18c0 25 39 38 58 62c16 21 31 57 31 132v362c0 51 -19 53 -34 53h-7c-9 0 -20 3 -20 22c0 22 15 23 41 34c67 28 94 62 119 86c5 5 12 9 21 9c12 0 13 -18 13 -34zM162 747
c38 0 80 -28 80 -85c0 -46 -28 -90 -80 -90c-44 0 -78 34 -78 85c0 59 42 90 78 90z" />
    <glyph glyph-name="k" unicode="k" horiz-adv-x="544" 
d="M219 749v-418c0 -14 10 -18 18 -10l84 80c15 14 33 30 33 45c0 21 -27 21 -38 21c-16 1 -21 14 -21 24c0 18 19 18 32 18c32 0 63 -4 95 -4c21 0 41 4 62 4c26 0 35 -3 35 -21c0 -12 -3 -22 -29 -25c-47 -5 -91 -42 -105 -55l-37 -34c-7 -7 -4 -18 0 -26l151 -267
c12 -22 22 -31 29 -35l9 -5c4 -2 15 -7 15 -21c0 -20 -15 -20 -24 -20c-31 0 -61 4 -91 4c-28 0 -56 -4 -86 -4c-8 0 -22 0 -22 18c0 26 21 34 5 64l-94 179c-4 7 -11 7 -15 5l-2 -1c-4 -2 -4 -10 -4 -13v-113c0 -90 9 -81 51 -94c22 -7 21 -15 22 -23c0 -3 1 -6 0 -9
c-3 -14 -19 -13 -27 -13c-39 0 -75 4 -112 4s-75 -4 -113 -4c-15 0 -28 1 -28 22c0 16 15 21 23 23c42 12 51 4 51 94v465c0 36 -1 69 -30 73l-13 2c-9 1 -24 3 -24 23c0 21 22 23 39 26c34 6 80 22 114 41c17 9 25 13 32 13c14 0 15 -18 15 -33z" />
    <glyph glyph-name="l" unicode="l" horiz-adv-x="303" 
d="M219 749v-610c0 -36 -3 -76 27 -86l25 -8c9 -3 22 -6 22 -23c0 -22 -14 -22 -27 -22c-38 0 -76 4 -113 4c-38 0 -75 -4 -114 -4c-13 0 -27 0 -27 22c0 17 13 20 22 23l25 8c30 10 27 50 27 86v465c0 34 -3 69 -30 73l-14 2c-10 1 -23 3 -23 23c0 18 8 20 39 26
c32 6 82 23 115 41c19 10 26 13 32 13c16 0 14 -23 14 -33z" />
    <glyph glyph-name="m" unicode="m" horiz-adv-x="885" 
d="M96 139v200c0 54 -22 53 -34 53h-7c-15 0 -21 11 -21 22c0 16 11 22 20 25l23 9c106 42 90 95 139 95c15 0 13 -20 13 -36v-34c0 -4 -2 -9 4 -9c5 0 10 7 37 26c34 24 77 37 114 37c30 0 82 -12 119 -76c29 34 78 76 142 76c157 0 162 -130 162 -178v-210
c0 -59 1 -80 37 -90l15 -4c11 -3 22 -5 22 -25c0 -19 -15 -20 -26 -20c-37 0 -74 4 -110 4c-34 0 -68 -4 -103 -4c-11 0 -26 0 -26 22c0 18 11 20 24 23c33 8 34 15 34 94v184c0 70 -10 136 -81 136c-72 0 -75 -80 -75 -105v-215c0 -73 -1 -84 32 -94c10 -3 22 -7 22 -23
c0 -21 -13 -22 -24 -22c-32 0 -64 4 -96 4s-64 -4 -97 -4c-11 0 -24 1 -24 22c0 17 12 20 22 23c34 12 32 38 32 94v196c0 47 -4 124 -72 124c-27 0 -84 -15 -84 -105v-215c0 -54 2 -65 3 -69c5 -17 17 -20 28 -25l15 -7c6 -3 12 -7 12 -16c0 -21 -13 -22 -25 -22
c-34 0 -68 4 -102 4c-37 0 -75 -4 -113 -4c-13 0 -25 1 -25 22c0 17 13 20 22 23l25 8c30 10 27 48 27 86z" />
    <glyph glyph-name="n" unicode="n" horiz-adv-x="605" 
d="M96 139v200c0 51 -19 53 -34 53h-7c-4 0 -20 1 -20 22c0 22 19 25 41 34c65 27 97 64 119 86c6 6 11 9 20 9c7 0 15 -6 14 -36l-1 -24c0 -11 -2 -23 6 -23c6 0 11 10 47 31s71 36 109 36c60 0 137 -32 137 -191v-197c0 -77 7 -79 39 -90l12 -4c12 -4 23 -6 23 -23
c0 -21 -13 -22 -27 -22c-37 0 -72 4 -108 4c-35 0 -69 -4 -106 -4c-7 0 -23 1 -23 22c0 19 15 20 26 23c40 10 31 42 31 94v188c0 48 -4 125 -76 125c-31 0 -89 -15 -89 -80v-233c0 -49 -3 -79 17 -87l18 -7c10 -4 22 -7 22 -23c0 -22 -13 -22 -22 -22c-36 0 -70 4 -105 4
c-37 0 -73 -4 -111 -4c-12 0 -26 2 -26 22c0 18 14 20 23 23l25 8c30 10 26 43 26 86z" />
    <glyph glyph-name="o" unicode="o" horiz-adv-x="549" 
d="M269 -18c-161 0 -245 135 -245 269c0 158 109 276 253 276c161 0 248 -134 248 -264c0 -140 -92 -281 -256 -281zM281 21c45 0 101 46 101 213c0 185 -66 254 -115 254c-43 0 -100 -53 -100 -211c0 -230 81 -256 114 -256z" />
    <glyph glyph-name="p" unicode="p" horiz-adv-x="560" 
d="M82 -90v417c0 27 0 73 -34 73h-17c-15 0 -23 9 -23 23c0 11 2 20 26 26c53 13 99 28 136 80c7 9 16 24 29 24c15 0 14 -20 14 -33l-1 -45c0 -8 -1 -20 10 -20c8 0 15 13 47 37c26 20 52 35 91 35c99 0 176 -110 176 -261c0 -176 -104 -284 -225 -284c-31 0 -52 8 -75 15
c-10 3 -21 6 -21 -20v-67c0 -54 -1 -73 51 -89c23 -8 39 -7 39 -28c0 -22 -14 -22 -27 -22c-41 0 -80 4 -120 4c-41 0 -81 -4 -123 -4c-16 0 -27 0 -27 22c0 9 2 17 23 23c44 12 51 13 51 94zM215 351v-218c0 -60 12 -112 67 -112c57 0 111 78 111 207
c0 158 -62 215 -113 215c-19 0 -65 -9 -65 -92z" />
    <glyph glyph-name="q" unicode="q" horiz-adv-x="554" 
d="M480 382v-472c0 -36 -3 -76 27 -86l25 -8c10 -3 22 -6 22 -25s-12 -20 -26 -20c-41 0 -82 4 -122 4c-39 0 -78 -4 -120 -4c-7 0 -29 -2 -29 22c0 14 9 19 23 23l31 9c36 11 36 52 36 85v82c0 14 -1 21 -4 24c-4 4 -8 2 -12 0c-49 -22 -67 -34 -112 -34
c-131 0 -195 140 -195 265c0 194 138 280 243 280c53 0 88 -18 127 -38c38 -19 44 6 56 28l7 13c9 16 32 17 32 -12c0 -47 -9 -31 -9 -136zM347 99v273c0 51 -7 116 -60 116c-52 0 -120 -75 -120 -218c0 -134 49 -226 128 -226c36 0 52 19 52 55z" />
    <glyph glyph-name="r" unicode="r" horiz-adv-x="437" 
d="M96 139v200c0 51 -19 53 -34 53h-7c-4 0 -20 1 -20 22c0 22 19 25 41 34c64 26 97 65 119 86c6 6 11 9 20 9c7 0 15 -6 14 -36l-1 -28c-1 -24 -4 -37 1 -37s7 2 10 5c35 47 77 80 115 80s83 -27 83 -85c0 -59 -41 -90 -77 -90c-33 0 -50 19 -61 37c-6 10 -14 27 -30 27
c-40 0 -40 -75 -40 -105v-172c0 -39 -3 -76 30 -86l28 -8c21 -6 23 -14 23 -23c0 -23 -14 -22 -27 -22c-40 0 -78 4 -116 4c-39 0 -78 -4 -118 -4c-13 0 -27 0 -27 22c0 18 13 20 23 23l24 8c33 11 27 47 27 86z" />
    <glyph glyph-name="s" unicode="s" horiz-adv-x="404" 
d="M358 457l-2 -35c-1 -12 -1 -38 -17 -38c-18 0 -26 19 -39 40c-16 26 -36 64 -86 64c-25 0 -72 -10 -72 -61c0 -45 42 -60 91 -80l40 -16c47 -19 111 -54 111 -150c0 -97 -65 -199 -208 -199c-147 0 -148 72 -148 79v38c0 26 -1 65 20 65c19 0 30 -39 40 -65
c11 -30 34 -78 104 -78c69 0 88 44 88 75c0 63 -59 85 -95 100l-51 21c-29 12 -105 49 -105 140c0 84 60 170 181 170c32 0 79 -6 113 -17c35 -12 37 -21 35 -53z" />
    <glyph glyph-name="t" unicode="t" horiz-adv-x="368" 
d="M227 630v-100c0 -17 8 -21 21 -21h70c14 0 16 -9 16 -18l-1 -20c-1 -11 -7 -15 -17 -15h-74c-15 0 -15 -15 -15 -22v-229c0 -63 -3 -137 47 -137c20 0 33 16 49 27c15 10 25 3 25 -9c0 -17 -17 -41 -30 -54c-38 -39 -81 -50 -117 -50c-104 0 -107 115 -107 157v286
c0 22 -3 25 -21 25h-26c-9 0 -19 2 -19 17c0 21 29 30 51 42c62 34 89 84 102 112c12 27 17 36 30 36c16 0 16 -14 16 -27z" />
    <glyph glyph-name="u" unicode="u" horiz-adv-x="560" 
d="M493 475v-330c0 -27 -2 -71 24 -74l15 -2c9 -1 18 -4 18 -18c0 -16 -20 -21 -42 -27c-23 -7 -64 -19 -87 -29c-24 -10 -34 -18 -43 -18c-12 0 -12 16 -12 25l1 35c0 10 1 22 -8 22c-5 0 -9 -5 -26 -19c-55 -45 -92 -58 -124 -58c-55 0 -127 35 -127 178v211
c0 54 0 77 -27 86l-31 10c-16 5 -16 14 -16 22c0 10 1 20 27 20c34 0 66 -4 98 -4c19 0 37 4 58 4c18 0 24 -3 24 -34v-305c0 -34 1 -108 64 -108c30 0 81 21 81 93v216c0 41 3 77 -27 86l-32 10c-12 4 -16 14 -16 22c0 19 15 20 28 20c34 0 66 -4 98 -4c19 0 37 4 58 4
c27 0 24 -20 24 -34z" />
    <glyph glyph-name="v" unicode="v" horiz-adv-x="493" 
d="M214 411l71 -205c2 -6 5 -19 12 -19c6 0 8 12 11 19l55 154c12 33 20 52 20 69c0 32 -26 33 -47 37c-28 5 -28 13 -28 24c0 6 1 17 19 19h8c30 -2 60 -4 90 -4c22 0 45 4 67 4c21 0 21 -11 21 -20c0 -18 -11 -20 -24 -21l-12 -1c-30 -2 -53 -65 -71 -113l-126 -337
c-4 -11 -6 -18 -14 -27s-13 -8 -21 -8c-7 0 -13 -1 -21 8c-3 4 -7 11 -13 27l-142 379c-21 57 -26 67 -60 73c-11 2 -21 4 -21 21c0 18 12 19 19 19h8c39 0 79 -4 118 -4c36 0 73 4 109 4c14 0 27 -2 27 -19c0 -23 -15 -25 -31 -27c-13 -2 -39 -8 -24 -52z" />
    <glyph glyph-name="w" unicode="w" horiz-adv-x="748" 
d="M468 411l71 -205c6 -16 10 -19 12 -19c6 0 9 12 11 19l55 154c8 22 20 46 20 69c0 30 -25 32 -47 37c-19 3 -28 5 -28 24c0 14 11 18 19 19h8c31 -2 61 -4 91 -4c22 0 44 4 66 4c4 0 22 0 22 -20c0 -24 -24 -19 -38 -23c-34 -9 -54 -69 -70 -112l-122 -337
c-13 -37 -20 -35 -34 -35c-11 0 -22 -2 -35 35l-101 283l-96 -283c-13 -37 -22 -35 -34 -35s-21 -2 -34 35l-135 379c-25 71 -34 67 -59 73l-9 2c-10 2 -13 14 -13 19c0 6 2 19 20 19h8c52 0 104 -4 157 -4c65 0 129 0 193 2c43 1 86 2 129 2c13 0 28 -1 28 -19
c0 -23 -15 -25 -30 -27c-14 -2 -40 -8 -25 -52zM347 365l-12 31c-12 30 -21 68 -55 68h-42c-12 0 -36 -1 -36 -28c0 -10 4 -23 5 -25l70 -205c4 -13 8 -19 12 -19s7 7 11 19l47 139c2 7 3 13 0 20z" />
    <glyph glyph-name="x" unicode="x" horiz-adv-x="539" 
d="M355 266l89 -150c44 -74 49 -71 79 -75c10 -2 24 -4 24 -22s-15 -19 -19 -19h-8c-39 1 -79 4 -118 4c-41 0 -82 -4 -123 -4c-15 0 -31 -1 -31 20c0 20 11 23 24 25c15 3 27 4 27 16c0 13 -6 25 -11 33l-50 88c-8 15 -14 25 -26 4l-16 -29c-11 -21 -39 -68 -39 -90
c0 -21 19 -24 28 -25c7 -2 22 -5 22 -23c0 -6 -3 -18 -17 -19h-10c-32 2 -64 4 -96 4c-22 0 -44 -4 -66 -4c-12 0 -25 1 -25 20c0 20 15 20 28 21c14 1 56 7 98 72l69 107c12 19 9 23 -1 39l-83 130c-30 46 -52 73 -75 77l-13 2c-10 2 -24 4 -24 22s14 19 19 19h9
c39 -1 77 -4 116 -4c41 0 81 4 122 4c16 0 30 -1 30 -19c0 -10 -2 -24 -22 -25c-7 0 -18 0 -18 -10c0 -8 4 -18 7 -23l50 -91c11 -20 14 -15 24 2l27 45c13 22 22 42 22 56c0 20 -15 22 -29 24l-6 1c-10 2 -15 13 -15 21c0 17 15 19 19 19h9c30 -1 60 -4 90 -4
c22 0 43 4 65 4s23 -11 23 -20c0 -20 -15 -19 -30 -22c-44 -8 -74 -43 -108 -93l-46 -68c-12 -18 -3 -26 5 -40z" />
    <glyph glyph-name="y" unicode="y" horiz-adv-x="500" 
d="M219 401l76 -196c6 -14 10 -22 14 -22s9 7 14 22l68 192c2 6 6 20 6 32c0 26 -19 33 -46 37c-19 3 -29 4 -29 24c0 4 0 17 19 19h8c30 -2 61 -3 91 -3c22 0 44 3 66 3c4 0 22 0 22 -20c0 -18 -15 -20 -24 -21l-14 -2c-29 -4 -47 -52 -70 -112l-134 -355
c-22 -58 -35 -96 -49 -153c-16 -68 -22 -88 -77 -88c-68 0 -78 31 -78 65c0 74 42 70 70 70c7 0 14 -1 21 -2s14 -2 20 0s18 7 25 25l6 16c4 11 8 20 8 35c0 14 -9 39 -13 49l-142 357c-35 89 -49 92 -75 96c-11 2 -22 4 -22 21c0 6 2 19 20 19h8c39 0 78 -3 117 -3
c38 0 77 3 115 3c14 0 27 -2 27 -19c0 -23 -15 -25 -31 -27c-25 -3 -37 -10 -17 -62z" />
    <glyph glyph-name="z" unicode="z" horiz-adv-x="448" 
d="M417 471l-217 -398c-9 -16 0 -28 11 -28l52 1c33 1 85 7 115 85l10 26c4 10 8 14 15 14c14 0 17 -12 18 -53l2 -94c0 -17 -3 -24 -29 -24c-44 0 -62 4 -186 4c-113 0 -127 -4 -166 -4c-9 0 -22 0 -22 19c0 13 4 23 10 34l215 390c10 18 0 24 -9 24h-42
c-83 0 -102 -30 -119 -51c-13 -17 -25 -35 -36 -35c-7 0 -16 6 -16 19c0 5 2 15 3 20l32 114c3 9 4 28 20 28c10 0 13 -9 14 -14l3 -13c5 -22 4 -26 64 -26h234c16 0 31 -1 31 -16c0 -7 -3 -15 -7 -22z" />
    <glyph glyph-name="braceleft" unicode="{" horiz-adv-x="340" 
d="M52 210v48c73 1 75 96 76 147c0 19 1 38 0 57c0 17 -2 34 -2 51c0 161 87 203 162 197v-38c-61 -7 -60 -86 -60 -116v-61c0 -29 2 -59 2 -88c0 -18 -1 -160 -106 -168v-10c105 -8 106 -150 106 -168c0 -30 -2 -59 -2 -89v-62c0 -39 3 -109 60 -113v-38
c-74 -10 -162 35 -162 196c0 17 2 34 2 51c1 19 0 39 0 58c0 46 2 143 -76 146z" />
    <glyph glyph-name="bar" unicode="|" horiz-adv-x="120" 
d="M20 773h80v-1053h-80v1053z" />
    <glyph glyph-name="braceright" unicode="}" horiz-adv-x="340" 
d="M288 258v-48c-78 -3 -76 -100 -76 -146c0 -19 -1 -39 0 -58c0 -17 2 -34 2 -51c0 -161 -88 -206 -162 -196v38c57 4 60 74 60 113v62c0 30 -2 59 -2 89c0 18 1 160 106 168v10c-105 8 -106 150 -106 168c0 29 2 59 2 88v61c0 30 1 109 -60 116v38c75 6 162 -36 162 -197
c0 -17 -2 -34 -2 -51c-1 -19 0 -38 0 -57c1 -51 3 -146 76 -147z" />
    <glyph glyph-name="asciitilde" unicode="~" horiz-adv-x="444" 
d="M57 539l-37 21c15 51 58 140 139 140c38 0 64 -18 91 -38c29 -21 46 -34 72 -34c9 0 38 4 63 71l39 -19c-14 -49 -54 -145 -123 -145c-36 0 -62 17 -89 35c-43 29 -55 39 -81 39c-14 0 -42 -7 -74 -70z" />
    <glyph glyph-name="afii10051" unicode="&#x402;" horiz-adv-x="728" 
d="M100 700h344c48 0 47 14 59 37c6 10 9 14 18 14c10 0 15 -4 15 -23c0 -69 -4 -59 -8 -107l-5 -67c-1 -12 -3 -31 -19 -31c-15 0 -21 13 -24 21c-13 36 -23 111 -89 111h-44c-14 0 -13 -12 -13 -19v-262c0 -2 3 -4 5 -4c6 0 12 9 37 25c30 20 58 41 125 41
c116 0 203 -84 203 -217c0 -158 -105 -240 -204 -240c-47 0 -90 32 -93 79c-1 14 -1 28 0 42c2 46 7 68 27 68s20 -18 22 -39c3 -29 9 -110 51 -110c36 0 43 103 43 183c0 47 -11 168 -106 168c-41 0 -110 -16 -110 -91v-243c0 -7 0 -36 -34 -36c-29 0 -42 6 -79 6
c-31 0 -61 -6 -92 -6c-25 0 -26 12 -26 23c0 22 4 12 35 21c43 14 46 52 46 95v497c0 11 0 19 -25 19c-41 0 -67 -4 -107 -81c-19 -37 -25 -48 -39 -48c-12 0 -17 8 -17 23c0 23 10 50 14 70l22 98c5 23 16 27 23 27c6 0 15 -3 17 -18c2 -12 0 -26 28 -26z" />
    <glyph glyph-name="afii10052" unicode="&#x403;" horiz-adv-x="507" 
d="M105 139v422c0 48 -8 94 -57 97c-7 0 -24 0 -24 19c0 23 19 23 27 23c53 0 77 -3 116 -4l143 -2c76 -1 115 6 180 6c15 0 24 0 24 -26c0 -5 -1 -10 -1 -15c-2 -23 -1 -45 0 -68c0 -14 1 -28 2 -43c1 -7 1 -14 0 -21c-3 -16 -9 -18 -17 -18c-10 0 -16 3 -25 25
c-35 85 -42 110 -156 110c-65 0 -61 -14 -61 -39v-466c0 -28 -5 -95 65 -97c7 0 23 1 23 -19c0 -11 -1 -23 -26 -23c-46 0 -92 6 -138 6c-43 0 -86 -6 -129 -6c-8 0 -27 0 -27 23c0 19 17 19 24 19c46 3 57 41 57 97zM434 801l-140 -66c-26 -12 -35 -14 -39 -14
c-18 0 -28 13 -28 28c0 23 20 33 37 46l131 101c8 6 19 13 33 13c24 0 49 -20 49 -53c0 -35 -26 -47 -43 -55z" />
    <glyph glyph-name="quotesinglbase" unicode="&#x201a;" horiz-adv-x="220" 
d="M103 148c59 0 85 -64 85 -126c0 -80 -43 -138 -86 -180c-6 -6 -23 -20 -37 -20c-7 0 -10 7 -10 12c0 11 10 21 23 37c26 31 53 62 53 103c0 28 -13 28 -21 28s-15 -2 -22 -2c-22 0 -56 19 -56 72c0 46 32 76 71 76z" />
    <glyph glyph-name="afii10100" unicode="&#x453;" horiz-adv-x="426" 
d="M98 139v231c0 57 5 80 -48 94l-11 3c-3 1 -15 4 -15 20c0 24 18 22 29 22h246c70 0 66 0 73 15c6 15 8 24 24 24c20 0 22 -17 23 -25c1 -10 4 -56 4 -66l3 -85c1 -29 -9 -37 -21 -37c-44 0 -21 132 -110 132h-57c-4 0 -7 -1 -7 -7v-321c0 -90 9 -81 49 -94l12 -4
c3 -1 12 -5 12 -19c0 -23 -13 -22 -29 -22c-38 0 -74 4 -110 4c-37 0 -74 -4 -112 -4c-14 0 -29 0 -29 22c0 16 8 18 23 23c33 12 51 -4 51 94zM377 641l-146 -66c-15 -7 -25 -14 -38 -14c-20 0 -26 16 -26 28c0 24 20 31 39 46l130 101c9 7 19 12 33 12c20 0 48 -16 48 -51
c0 -36 -22 -48 -40 -56z" />
    <glyph glyph-name="quotedblbase" unicode="&#x201e;" horiz-adv-x="421" 
d="M103 148c59 0 85 -64 85 -126c0 -80 -43 -138 -86 -180c-6 -6 -23 -20 -37 -20c-7 0 -10 7 -10 12c0 11 10 21 23 37c26 31 53 62 53 103c0 28 -13 28 -21 28s-15 -2 -22 -2c-22 0 -56 19 -56 72c0 46 32 76 71 76zM304 148c59 0 85 -64 85 -126c0 -80 -43 -138 -86 -180
c-6 -6 -23 -20 -37 -20c-7 0 -10 7 -10 12c0 11 10 21 23 37c26 31 53 62 53 103c0 28 -13 28 -21 28s-15 -2 -22 -2c-22 0 -56 19 -56 72c0 46 32 76 71 76z" />
    <glyph glyph-name="ellipsis" unicode="&#x2026;" horiz-adv-x="726" 
d="M188 73c0 -63 -41 -88 -76 -88c-34 0 -80 20 -80 85s48 91 80 91c35 0 76 -28 76 -88zM412 73c0 -63 -41 -88 -76 -88c-34 0 -80 20 -80 85s48 91 80 91c35 0 76 -28 76 -88zM636 73c0 -63 -41 -88 -76 -88c-34 0 -80 20 -80 85s48 91 80 91c35 0 76 -28 76 -88z" />
    <glyph glyph-name="dagger" unicode="&#x2020;" horiz-adv-x="462" 
d="M210 -247v234c0 129 -1 163 -5 190c-8 56 -31 83 -31 110c0 18 19 39 27 70c4 14 6 29 8 44c1 10 2 21 2 31c-48 1 -61 -14 -80 -29c-51 -39 -91 8 -91 54c0 53 43 90 90 54c18 -13 27 -24 59 -28c7 -1 14 -1 21 -1c0 34 -8 77 -22 106c-10 21 -23 37 -23 59
c0 35 26 68 66 68c42 0 66 -34 66 -68c0 -21 -13 -37 -23 -59c-7 -16 -12 -34 -16 -51c-4 -18 -6 -36 -6 -55c53 0 59 14 80 31c48 38 90 -7 90 -56c0 -58 -45 -87 -89 -55c-18 13 -38 34 -82 30c0 -22 3 -51 10 -75c8 -31 27 -52 27 -70c0 -27 -23 -54 -31 -110
c-4 -27 -5 -61 -5 -190v-234h-42z" />
    <glyph glyph-name="daggerdbl" unicode="&#x2021;" horiz-adv-x="462" 
d="M210 -247v234c0 113 -1 38 -1 135c-42 4 -61 -16 -80 -30c-44 -32 -89 -3 -89 55c0 49 42 94 90 56c20 -16 24 -29 75 -31v5c0 32 -16 64 -16 96c0 53 17 62 22 159c-48 1 -61 -14 -80 -29c-51 -39 -91 8 -91 54c0 53 43 90 90 54c19 -14 35 -31 80 -29
c0 34 -8 77 -22 106c-8 16 -23 37 -23 59c0 35 26 68 66 68c42 0 66 -34 66 -68c0 -21 -15 -42 -23 -59c-14 -30 -22 -71 -22 -106c53 0 59 14 80 31c48 38 90 -7 90 -56c0 -58 -45 -87 -89 -55c-18 13 -38 34 -82 30c5 -97 22 -106 22 -159c0 -32 -16 -64 -16 -96v-5
c51 2 55 15 75 31c48 38 90 -7 90 -56c0 -58 -45 -87 -89 -55c-19 14 -38 34 -80 30c0 -97 -1 -22 -1 -135v-234h-42z" />
    <glyph glyph-name="accent" horiz-adv-x="2" 
d="M-145 641l-146 -66c-15 -7 -25 -14 -38 -14c-20 0 -26 16 -26 28c0 24 20 31 39 46l130 101c9 7 19 12 33 12c20 0 48 -16 48 -51c0 -36 -22 -48 -40 -56z" />
    <glyph glyph-name="perthousand" unicode="&#x2030;" horiz-adv-x="1038" 
d="M163 355c-112 0 -163 93 -163 180s51 180 163 180s163 -93 163 -180s-51 -180 -163 -180zM173 397c34 0 60 49 60 138c0 106 -51 138 -80 138c-34 0 -60 -49 -60 -138c0 -106 51 -138 80 -138zM538 700h67l-469 -700h-67zM507 -15c-112 0 -163 93 -163 180
s51 180 163 180s163 -93 163 -180s-51 -180 -163 -180zM517 27c34 0 60 49 60 138c0 106 -51 138 -80 138c-34 0 -60 -49 -60 -138c0 -106 51 -138 80 -138zM875 -15c-112 0 -163 93 -163 180s51 180 163 180s163 -93 163 -180s-51 -180 -163 -180zM885 27
c34 0 60 49 60 138c0 106 -51 138 -80 138c-34 0 -60 -49 -60 -138c0 -106 51 -138 80 -138z" />
    <glyph glyph-name="afii10058" unicode="&#x409;" horiz-adv-x="906" 
d="M398 139v454c0 58 -24 58 -62 58h-28c-66 0 -62 -27 -67 -182c-3 -91 -9 -173 -23 -250c-41 -232 -134 -240 -157 -240c-54 0 -81 36 -81 83c0 44 28 78 69 78c30 0 43 -24 49 -38c4 -10 9 -22 22 -22c38 0 78 176 78 424c0 94 1 142 -41 152c-20 5 -43 -4 -47 15
c-1 3 0 6 0 9v7c1 4 3 13 17 13c27 0 53 -2 79 -2c25 0 49 2 74 2h82c38 0 75 -6 112 -6c43 0 86 6 129 6c8 0 27 0 27 -23c0 -19 -17 -19 -24 -19c-49 -3 -57 -49 -57 -97v-115c0 -15 -3 -33 30 -27c27 5 46 10 89 10c200 0 214 -163 214 -218c0 -96 -53 -215 -233 -215
c-59 0 -117 10 -175 10c-43 0 -86 -6 -130 -6c-25 0 -26 12 -26 23c0 20 16 19 23 19c61 4 57 72 57 97zM549 347v-177c0 -73 -3 -134 81 -134c75 0 98 84 98 174c0 136 -62 175 -110 175c-69 0 -69 -26 -69 -38z" />
    <glyph glyph-name="guilsinglleft" unicode="&#x2039;" horiz-adv-x="265" 
d="M143 270l88 -187c4 -9 2 -17 -5 -17c-3 0 -5 1 -7 3l-181 191c-4 4 -6 7 -6 10s2 6 6 10l181 191c2 2 4 4 6 4c3 0 8 -2 8 -9c0 -3 -1 -6 -2 -9z" />
    <glyph glyph-name="afii10059" unicode="&#x40a;" horiz-adv-x="974" 
d="M625 561v-115c0 -30 11 -31 32 -27c28 5 45 10 88 10c201 0 213 -163 213 -218c0 -63 -25 -215 -233 -215c-58 0 -117 10 -175 10c-43 0 -86 -6 -129 -6c-8 0 -27 0 -27 23c0 19 17 19 23 19c47 3 58 41 58 97v174c0 13 2 33 -18 33h-177c-25 0 -25 -4 -25 -28v-179
c0 -56 11 -94 58 -97c6 0 23 0 23 -19c0 -23 -19 -23 -27 -23c-43 0 -86 6 -129 6s-86 -6 -130 -6c-25 0 -26 12 -26 23c0 18 13 18 23 19c49 4 58 45 58 97v422c0 52 -9 93 -58 97c-10 1 -23 1 -23 19c0 11 1 23 26 23c44 0 87 -6 130 -6s86 6 129 6c8 0 27 0 27 -23
c0 -19 -17 -19 -23 -19c-47 -3 -58 -41 -58 -97v-139c0 -12 -1 -27 22 -27h180c22 0 18 13 18 27v139c0 56 -11 94 -58 97c-6 0 -23 0 -23 19c0 23 19 23 27 23c43 0 86 -6 129 -6s86 6 130 6c25 0 26 -12 26 -23c0 -18 -13 -18 -23 -19c-49 -4 -58 -45 -58 -97zM625 347
v-177c0 -65 -3 -134 82 -134c74 0 97 83 97 174c0 135 -64 176 -110 176c-66 0 -69 -28 -69 -39z" />
    <glyph glyph-name="afii10061" unicode="&#x40c;" horiz-adv-x="657" 
d="M105 139v422c0 50 -6 94 -58 97c-6 0 -23 0 -23 19c0 12 5 23 27 23c44 0 86 -6 129 -6s86 6 130 6c25 0 26 -12 26 -23c0 -18 -13 -18 -23 -19c-47 -4 -58 -40 -58 -97v-136c0 -39 9 -38 24 -38h12c34 0 80 11 105 105l22 81c34 124 86 137 124 137c63 0 91 -45 91 -91
c0 -48 -23 -87 -66 -87c-32 0 -42 21 -48 36c-6 14 -10 28 -24 28c-10 0 -26 -3 -36 -41l-15 -54c-14 -50 -24 -100 -77 -124v-4c38 -2 91 -18 143 -117l77 -146c30 -57 50 -65 66 -68c13 -2 20 -2 20 -20c0 -7 -2 -22 -21 -22c-25 0 -49 6 -73 6c-14 0 -29 -2 -43 -4
c-7 -1 -13 -2 -20 -2c-43 0 -62 36 -86 87l-84 174c-40 83 -54 83 -71 83c-11 0 -20 3 -20 -24v-181c0 -58 10 -93 59 -97c8 -1 22 0 22 -19c0 -11 -1 -23 -26 -23c-44 0 -87 6 -130 6s-85 -6 -129 -6c-22 0 -27 11 -27 23c0 19 17 19 23 19c52 3 58 47 58 97zM518 801
l-140 -66c-26 -12 -35 -14 -39 -14c-18 0 -28 13 -28 28c0 23 20 33 37 46l131 101c8 6 19 13 33 13c24 0 49 -20 49 -53c0 -35 -26 -47 -43 -55z" />
    <glyph glyph-name="afii10060" unicode="&#x40b;" horiz-adv-x="751" 
d="M100 700h344c24 0 38 -3 55 29c9 18 13 22 22 22c16 0 16 -11 14 -39l-10 -149c-1 -16 -1 -40 -22 -40c-18 0 -24 20 -29 41c-22 79 -51 91 -83 91h-44c-9 0 -13 -3 -13 -19v-240c0 -12 19 3 30 10c44 26 109 50 163 50c81 0 143 -70 143 -170v-147c0 -56 11 -94 58 -97
c6 0 23 0 23 -19c0 -23 -19 -23 -27 -23c-43 0 -86 6 -129 6c-41 0 -81 -6 -122 -6c-25 0 -26 12 -26 23c0 18 13 18 23 19c43 4 50 52 50 97v101c0 108 -22 137 -66 137c-25 0 -70 -10 -96 -23c-12 -6 -24 -14 -24 -32v-183c0 -76 22 -95 38 -97c7 -1 24 0 24 -19
c0 -23 -19 -23 -27 -23c-37 0 -73 6 -110 6c-43 0 -86 -6 -130 -6c-25 0 -26 12 -26 23c0 18 13 18 23 19c49 4 58 45 58 97v497c0 11 0 19 -25 19c-41 0 -67 -4 -107 -81c-19 -37 -25 -48 -39 -48c-12 0 -17 8 -17 23c0 10 4 20 6 31l30 137c5 23 16 27 23 27
c6 0 15 -3 17 -18c2 -12 0 -26 28 -26z" />
    <glyph glyph-name="afii10145" unicode="&#x40f;" horiz-adv-x="730" 
d="M625 561v-422c0 -59 11 -91 58 -97l8 -1c8 -1 15 -8 15 -18c0 -24 -21 -23 -27 -23c-43 0 -86 6 -129 6s-86 -6 -130 -6h-31l19 -115c1 -9 3 -17 3 -25c0 -35 -24 -58 -47 -58c-19 0 -45 17 -45 58c0 8 1 17 2 25l19 115h-31c-44 0 -87 6 -130 6s-85 -6 -128 -6
c-6 0 -27 -1 -27 23c0 10 6 17 16 18l8 1c52 6 57 49 57 97v422c0 47 -5 91 -57 97l-9 1c-10 1 -15 11 -15 18c0 23 19 23 27 23c43 0 85 -6 128 -6s86 6 130 6c25 0 26 -12 26 -23c0 -4 -1 -17 -14 -18l-9 -1c-61 -7 -57 -68 -57 -97v-474c0 -14 -1 -38 25 -38h162
c34 0 33 14 33 33v479c0 53 -9 92 -58 97l-10 1c-6 1 -13 6 -13 18c0 11 1 23 26 23c44 0 87 -6 130 -6s86 6 129 6c8 0 27 0 27 -23c0 -8 -7 -17 -13 -18l-10 -1c-47 -5 -58 -39 -58 -97z" />
    <glyph glyph-name="afii10099" unicode="&#x452;" horiz-adv-x="565" 
d="M219 616h154v-47h-154v-82c0 -12 -1 -27 7 -27c5 0 10 6 20 15c26 22 78 52 127 52c79 0 160 -81 160 -283c0 -176 -61 -348 -167 -457c-12 -12 -31 -29 -48 -29c-18 0 -32 19 -2 62c38 56 74 151 74 385c0 118 -7 247 -93 247c-25 0 -78 -15 -78 -80v-252
c0 -73 24 -66 52 -75c14 -4 22 -8 22 -23c0 -22 -14 -22 -27 -22c-38 0 -75 4 -112 4c-38 0 -76 -4 -115 -4c-13 0 -27 0 -27 22c0 15 8 19 22 23c34 11 52 -4 52 94v430h-82v47h82c-1 28 -6 58 -30 61l-14 2c-20 3 -23 10 -23 23c0 12 3 17 19 22c18 5 73 12 135 45
c19 10 26 13 32 13c16 0 14 -18 14 -33v-133z" />
    <glyph glyph-name="quoteleft" unicode="&#x2018;" horiz-adv-x="220" 
d="M117 389c-59 0 -85 64 -85 126c0 80 43 138 86 180c6 6 23 20 37 20c7 0 10 -7 10 -12c0 -11 -10 -21 -23 -37c-26 -31 -53 -62 -53 -103c0 -28 13 -28 21 -28s15 2 22 2c22 0 56 -19 56 -72c0 -46 -32 -76 -71 -76z" />
    <glyph glyph-name="quoteright" unicode="&#x2019;" horiz-adv-x="220" 
d="M103 715c59 0 85 -64 85 -126c0 -80 -43 -138 -86 -180c-6 -6 -23 -20 -37 -20c-7 0 -10 7 -10 12c0 11 10 21 23 37c26 31 53 62 53 103c0 28 -13 28 -21 28s-15 -2 -22 -2c-22 0 -56 19 -56 72c0 46 32 76 71 76z" />
    <glyph glyph-name="quotedblleft" unicode="&#x201c;" horiz-adv-x="422" 
d="M117 389c-59 0 -85 64 -85 126c0 80 43 138 86 180c6 6 23 20 37 20c7 0 10 -7 10 -12c0 -11 -10 -21 -23 -37c-26 -31 -53 -62 -53 -103c0 -28 13 -28 21 -28s15 2 22 2c22 0 56 -19 56 -72c0 -46 -32 -76 -71 -76zM319 389c-59 0 -85 64 -85 126c0 80 43 138 86 180
c6 6 23 20 37 20c7 0 10 -7 10 -12c0 -11 -10 -21 -23 -37c-26 -31 -53 -62 -53 -103c0 -28 13 -28 21 -28s15 2 22 2c22 0 56 -19 56 -72c0 -46 -32 -76 -71 -76z" />
    <glyph glyph-name="quotedblright" unicode="&#x201d;" horiz-adv-x="421" 
d="M103 715c59 0 85 -64 85 -126c0 -80 -43 -138 -86 -180c-6 -6 -23 -20 -37 -20c-7 0 -10 7 -10 12c0 11 10 21 23 37c26 31 53 62 53 103c0 28 -13 28 -21 28s-15 -2 -22 -2c-22 0 -56 19 -56 72c0 46 32 76 71 76zM304 715c59 0 85 -64 85 -126c0 -80 -43 -138 -86 -180
c-6 -6 -23 -20 -37 -20c-7 0 -10 7 -10 12c0 11 10 21 23 37c26 31 53 62 53 103c0 28 -13 28 -21 28s-15 -2 -22 -2c-22 0 -56 19 -56 72c0 46 32 76 71 76z" />
    <glyph glyph-name="bullet" unicode="&#x2022;" horiz-adv-x="620" 
d="M153 350c0 87 70 157 157 157c86 0 157 -69 157 -157c0 -87 -70 -157 -157 -157c-88 0 -157 71 -157 157z" />
    <glyph glyph-name="endash" unicode="&#x2013;" horiz-adv-x="517" 
d="M64 306h413l-24 -72h-413z" />
    <glyph glyph-name="emdash" unicode="&#x2014;" horiz-adv-x="733" 
d="M64 306h629l-24 -72h-629z" />
    <glyph glyph-name="Accent" horiz-adv-x="2" 
d="M-233 801l-140 -66c-26 -12 -35 -14 -39 -14c-18 0 -28 13 -28 28c0 23 20 33 37 46l131 101c8 6 19 13 33 13c24 0 49 -20 49 -53c0 -35 -26 -47 -43 -55z" />
    <glyph glyph-name="trademark" unicode="&#x2122;" horiz-adv-x="667" 
d="M65 700h170c12 0 7 1 15 12c4 6 6 10 12 10c5 0 10 -4 10 -8c0 -3 0 -25 -1 -38l-3 -42c-1 -9 0 -22 -12 -22c-10 0 -13 10 -14 15c-9 30 -10 49 -35 49h-14c-7 0 -9 -4 -9 -8v-178c0 -19 0 -43 16 -49l14 -5c5 -2 13 -2 13 -12c0 -12 -12 -13 -16 -13c-22 0 -42 3 -63 3
s-42 -3 -65 -3c-5 0 -16 0 -16 13c0 10 8 12 13 13l14 4c15 4 15 27 15 49v177c0 3 0 9 -7 9h-10c-24 0 -26 -6 -46 -45c-7 -13 -9 -19 -18 -19c-7 0 -12 5 -12 16c0 7 2 16 8 48l6 31c1 7 4 15 13 15c10 0 9 -9 10 -13c1 -9 9 -9 12 -9zM424 693l44 -135c1 -3 2 -5 3 -5
s2 2 3 5l50 137c2 5 2 5 9 5h99c5 0 16 1 16 -12s-10 -13 -20 -16c-20 -5 -23 -12 -22 -51l2 -131c1 -36 3 -46 23 -51c8 -3 20 -3 20 -15s-12 -13 -16 -13c-22 0 -43 3 -63 3c-21 0 -42 -3 -65 -3c-5 0 -16 0 -16 13c0 9 7 11 13 13l14 4c16 5 15 33 15 49l-3 146v9
c0 4 0 6 -1 6s-2 -2 -3 -5l-70 -189c-7 -20 -11 -31 -16 -31s-9 11 -16 31l-60 185c-1 3 -3 4 -4 4s0 -2 0 -5l-8 -155c-2 -43 13 -44 28 -49l9 -3c3 -1 5 -3 5 -10c0 -13 -12 -13 -16 -13c-14 0 -28 3 -41 3c-12 0 -24 -3 -36 -3c-3 0 -15 1 -15 13c0 10 9 12 12 13l14 4
c17 5 15 25 17 49l10 131c2 31 -1 44 -21 51c-10 3 -21 4 -21 16c0 6 3 12 14 12h105c4 0 5 2 8 -7z" />
    <glyph glyph-name="afii10106" unicode="&#x459;" horiz-adv-x="706" 
d="M309 135v264c0 30 1 68 -48 68c-58 0 -57 -34 -57 -66c-1 -148 -47 -419 -155 -419c-38 0 -65 26 -65 71c0 59 39 70 62 70c15 0 24 -7 33 -13c6 -4 14 -10 21 -10c40 0 62 216 62 288c0 58 -15 74 -44 81c-18 4 -35 4 -35 22c0 19 12 18 24 18h385c14 0 24 1 24 -18
c0 -4 -1 -13 -20 -19l-25 -8c-32 -10 -29 -51 -29 -90v-59c0 -14 1 -15 13 -13c21 3 35 8 62 8c108 0 173 -57 173 -154c0 -146 -132 -156 -188 -156c-42 0 -84 4 -126 4c-39 0 -77 -4 -117 -4c-11 0 -24 0 -24 18c0 16 12 17 20 19l25 8c32 10 29 51 29 90zM442 246v-119
c0 -55 2 -88 52 -88c49 0 53 79 53 116c0 108 -39 114 -64 114c-41 0 -41 -14 -41 -23z" />
    <glyph glyph-name="guilsinglright" unicode="&#x203a;" horiz-adv-x="265" 
d="M123 271l-88 187c-1 3 -3 5 -3 8c0 4 3 9 7 9c2 0 5 -1 7 -3l181 -191c4 -4 6 -7 6 -10s-2 -6 -6 -10l-181 -191c-2 -2 -4 -4 -6 -4c-4 0 -12 3 -5 18z" />
    <glyph glyph-name="afii10107" unicode="&#x45a;" horiz-adv-x="784" 
d="M94 129v241c0 43 4 76 -26 86l-25 8c-8 3 -23 7 -23 23c0 21 13 22 28 22c37 0 73 -4 108 -4c33 0 65 4 101 4c8 0 24 1 27 -13c1 -3 0 -6 0 -9c-1 -8 2 -14 -22 -23l-19 -7c-10 -4 -14 -16 -15 -25c-1 -6 0 -11 0 -17c0 -15 -1 -30 -1 -45v-71c0 -7 -1 -10 8 -10h144
c7 0 8 5 8 10v71c0 26 3 81 -15 87l-20 7c-10 4 -23 5 -23 23c0 22 14 22 27 22c34 0 67 -4 100 -4c36 0 70 4 108 4c25 0 29 -7 29 -22c0 -9 -1 -16 -22 -23l-25 -8c-31 -10 -26 -49 -26 -86v-55c0 -13 -2 -15 12 -13c24 4 39 8 72 8c93 0 164 -53 164 -154
c0 -76 -43 -156 -189 -156c-42 0 -84 4 -125 4c-33 0 -65 -4 -98 -4c-13 0 -27 0 -27 22c0 18 13 19 23 23l20 7c17 6 15 51 15 77v108c0 5 -1 10 -8 10h-144c-9 0 -8 -3 -8 -10v-108c0 -27 -5 -69 16 -77l19 -7c24 -9 21 -15 22 -23c0 -3 1 -6 0 -9c-3 -14 -19 -13 -27 -13
c-35 0 -67 4 -100 4c-36 0 -72 -4 -109 -4c-15 0 -28 1 -28 22c0 16 15 20 23 23l25 8c29 9 26 41 26 76zM520 246v-129c0 -52 4 -78 51 -78c17 0 54 12 54 116c0 108 -38 114 -65 114c-42 0 -40 -14 -40 -23z" />
    <glyph glyph-name="afii10109" unicode="&#x45c;" horiz-adv-x="545" 
d="M227 370v-73c0 -12 7 -13 12 -13h18c45 0 68 69 93 126c46 103 76 117 114 117c45 0 75 -30 75 -76c0 -40 -28 -69 -60 -69c-28 0 -40 22 -46 36l-7 15c-4 9 -7 13 -13 13c-10 0 -14 -11 -16 -19l-6 -19c-15 -47 -31 -110 -86 -136v-3c84 -1 118 -59 143 -108l41 -80
c11 -22 27 -29 40 -35c16 -7 24 -12 24 -26c0 -19 -14 -20 -24 -20c-23 0 -46 3 -68 3c-16 0 -32 -3 -48 -3c-32 0 -49 13 -66 58l-27 70c-24 62 -32 118 -79 118c-13 0 -14 -4 -14 -11v-96c0 -84 8 -81 41 -91c20 -6 33 -10 33 -26c0 -21 -13 -22 -28 -22
c-38 0 -75 4 -112 4s-75 -4 -113 -4c-15 0 -28 1 -28 22c0 16 15 21 23 23l14 4c43 12 37 41 37 90v231c0 97 -13 82 -51 94c-14 4 -23 9 -23 23c0 22 16 22 29 22c36 0 72 -4 107 -4c36 0 71 4 108 4c13 0 29 0 29 -22c0 -14 -9 -19 -23 -23c-33 -10 -43 5 -43 -94z
M454 641l-146 -66c-15 -7 -25 -14 -38 -14c-20 0 -26 16 -26 28c0 24 20 31 39 46l130 101c9 7 19 12 33 12c20 0 48 -16 48 -51c0 -36 -22 -48 -40 -56z" />
    <glyph glyph-name="afii10108" unicode="&#x45b;" horiz-adv-x="595" 
d="M219 616h153v-47h-153v-82c0 -10 -3 -27 6 -27s15 13 47 32c21 12 60 35 108 35c60 0 137 -32 137 -191v-197c0 -65 -2 -81 51 -94c10 -3 23 -6 23 -23c0 -22 -15 -22 -29 -22c-37 0 -74 4 -110 4c-33 0 -65 -4 -100 -4c-25 0 -29 7 -29 22c0 7 1 17 22 23
c43 13 39 33 39 94v188c0 48 -4 125 -76 125c-31 0 -89 -15 -89 -80v-233c0 -63 -3 -82 39 -94c21 -6 22 -16 22 -23c0 -3 1 -6 0 -9c-3 -14 -19 -13 -27 -13c-35 0 -67 4 -100 4c-37 0 -75 -4 -114 -4c-13 0 -27 0 -27 22c0 16 8 18 23 23c36 13 51 -5 51 94v430h-82v47h82
c1 32 -6 57 -30 61l-13 2c-9 1 -24 3 -24 23c0 16 12 20 20 22c30 7 78 15 133 45c17 9 25 13 32 13c17 0 15 -26 15 -33v-133z" />
    <glyph glyph-name="afii10193" unicode="&#x45f;" horiz-adv-x="612" 
d="M226 370v-303c0 -11 2 -25 20 -25h120c18 0 20 14 20 25v303c0 48 5 75 -22 87l-15 7c-8 4 -21 8 -21 23c0 21 13 22 28 22c34 0 67 -4 100 -4c36 0 71 4 109 4c8 0 24 1 27 -13c1 -3 0 -6 0 -9c-1 -8 -1 -16 -22 -23l-25 -8c-30 -10 -26 -43 -26 -86v-241
c0 -35 -3 -67 26 -76l25 -8c21 -7 21 -15 22 -23c0 -3 1 -6 0 -9c-3 -14 -18 -13 -27 -13h-232l14 -135c1 -9 1 -18 1 -27c0 -42 -26 -50 -42 -50c-20 0 -42 15 -42 50c0 9 1 18 2 27l13 135h-232c-9 0 -24 -1 -27 13c-1 3 0 6 0 9c1 8 1 16 22 23l25 8c29 9 26 41 26 76
v241c0 43 4 76 -26 86l-25 8c-21 7 -21 15 -22 23c0 3 -1 6 0 9c3 14 19 13 27 13c38 0 73 -4 108 -4c33 0 67 4 101 4c15 0 28 -1 28 -22c0 -15 -13 -19 -21 -23l-15 -7c-27 -12 -22 -39 -22 -87z" />
    <glyph glyph-name="afii10062" unicode="&#x40e;" horiz-adv-x="561" 
d="M229 591l110 -254c5 -13 6 -24 14 -24c5 0 6 5 14 27l79 217c4 10 13 39 13 61c0 29 -9 36 -46 39c-12 1 -26 1 -26 21c0 11 3 22 28 22c29 0 58 -6 87 -6c22 0 44 6 66 6s25 -10 25 -21c0 -20 -16 -21 -21 -21l-12 -1c-35 -3 -43 -33 -73 -111l-144 -378
c-60 -157 -108 -198 -181 -198c-92 0 -96 68 -96 87c0 56 35 83 69 83c35 0 46 -31 57 -57c5 -11 17 -38 34 -38c19 0 39 40 44 55c5 14 4 25 -2 37l-199 445c-26 59 -35 76 -63 76c-8 0 -22 0 -22 23c0 19 16 19 21 19c42 0 82 -6 122 -6c43 0 87 6 131 6c13 0 30 1 30 -20
c0 -8 -2 -20 -23 -22c-17 -1 -45 2 -45 -31c0 -8 5 -27 9 -36zM463 869l9 16c4 7 7 15 17 15c7 0 15 -4 15 -16c0 -38 -69 -162 -162 -162c-49 0 -118 35 -118 96c0 40 35 83 62 83c29 0 30 -36 32 -49c4 -37 21 -62 54 -62c19 0 50 6 91 79z" />
    <glyph glyph-name="afii10110" unicode="&#x45e;" horiz-adv-x="500" 
d="M219 401l76 -196c6 -14 10 -22 14 -22s9 7 14 22l68 192c2 6 6 20 6 32c0 26 -19 33 -46 37c-19 3 -29 4 -29 24c0 4 0 17 19 19h8c30 -2 61 -3 91 -3c22 0 44 3 66 3c4 0 22 0 22 -20c0 -18 -15 -20 -24 -21l-14 -2c-29 -4 -47 -52 -70 -112l-134 -355
c-22 -58 -35 -96 -49 -153c-16 -68 -22 -88 -77 -88c-68 0 -78 31 -78 65c0 74 42 70 70 70c7 0 14 -1 21 -2s14 -2 20 0s18 7 25 25l6 16c4 11 8 20 8 35c0 14 -9 39 -13 49l-142 357c-35 89 -49 92 -75 96c-11 2 -22 4 -22 21c0 6 2 19 20 19h8c39 0 78 -3 117 -3
c38 0 77 3 115 3c14 0 27 -2 27 -19c0 -23 -15 -25 -31 -27c-25 -3 -37 -10 -17 -62zM253 712l2 -21c5 -51 32 -68 61 -68c36 0 68 36 85 72c5 9 14 34 30 34c6 0 16 -3 16 -18c0 -45 -65 -158 -153 -158c-53 0 -115 39 -115 90c0 21 29 89 56 89c14 0 17 -11 18 -20z" />
    <glyph glyph-name="afii10057" unicode="&#x408;" horiz-adv-x="408" 
d="M303 561v-385c0 -65 2 -109 -36 -186c-42 -85 -134 -211 -240 -211c-64 0 -103 46 -103 100c0 60 42 77 69 77c42 0 58 -33 67 -61c5 -15 12 -44 32 -44s31 21 35 29c10 20 26 62 26 166v515c0 47 -2 95 -66 97c-6 0 -23 0 -23 19c0 23 19 23 27 23c46 0 91 -6 137 -6
c43 0 86 6 130 6c12 0 26 -2 26 -23c0 -19 -17 -18 -23 -19c-56 -5 -58 -59 -58 -97z" />
    <glyph glyph-name="currency" unicode="&#xa4;" horiz-adv-x="697" 
d="M603 661l62 -60l-96 -93c34 -49 53 -107 53 -162s-19 -113 -53 -162l96 -93l-62 -60l-94 94c-17 -14 -72 -54 -162 -54c-46 0 -106 13 -160 54l-93 -94l-62 60l95 94c-35 47 -54 105 -54 161c0 55 19 113 53 162l-94 93l62 60l93 -93c19 14 73 53 160 53
c88 0 143 -38 163 -54zM156 346c0 -111 86 -199 191 -199c108 0 193 89 193 199s-85 199 -193 199c-105 0 -191 -88 -191 -199z" />
    <glyph glyph-name="afii10050" unicode="&#x490;" horiz-adv-x="490" 
d="M105 139v422c0 50 -6 94 -58 97c-6 0 -23 0 -23 19c0 23 19 23 27 23c22 0 45 -1 67 -2c23 -1 45 -3 68 -3h78c162 0 161 23 194 93c11 23 15 26 24 26c7 0 14 -3 16 -18c1 -7 0 -14 0 -21c-1 -14 -2 -29 -2 -43c0 -35 2 -45 2 -61c0 -33 -10 -27 -69 -24l-70 3
c-102 4 -104 -2 -104 -38v-473c0 -81 28 -95 66 -97c23 -1 23 -11 23 -19c0 -11 -1 -23 -26 -23c-46 0 -92 6 -138 6c-43 0 -86 -6 -129 -6c-8 0 -27 0 -27 23c0 19 17 19 23 19c47 3 58 41 58 97z" />
    <glyph glyph-name="brokenbar" unicode="&#xa6;" horiz-adv-x="128" 
d="M24 773h80v-319h-80v319zM24 39h80v-319h-80v319z" />
    <glyph glyph-name="section" unicode="&#xa7;" horiz-adv-x="403" 
d="M344 48c0 -232 -104 -291 -172 -291c-58 0 -108 32 -108 88c0 37 26 58 48 58c23 0 41 -27 53 -46c12 -20 27 -42 47 -42c18 0 23 15 23 38c0 49 -25 112 -79 235c-51 116 -100 227 -100 354c0 200 94 273 182 273c69 0 109 -43 109 -88c0 -27 -16 -57 -46 -57
c-26 0 -42 20 -61 48c-9 14 -27 41 -44 41c-9 0 -24 -7 -24 -46c0 -64 27 -126 78 -234c36 -78 94 -190 94 -331zM276 -82c14 50 16 85 16 118c0 126 -47 219 -76 287c-54 124 -78 160 -90 260c-8 -23 -17 -55 -17 -128c0 -100 31 -182 59 -249c56 -137 75 -169 89 -219z
" />
    <glyph glyph-name="afii10023" unicode="&#x401;" horiz-adv-x="551" 
d="M105 139v422c0 56 -11 94 -57 97c-7 0 -24 0 -24 19c0 23 19 23 27 23c34 0 86 -4 112 -4l116 -2c39 -1 134 2 160 4c57 4 59 16 59 -39v-56c0 -58 -6 -63 -18 -63c-14 0 -18 12 -25 27c-40 84 -93 84 -140 84c-68 0 -60 -27 -60 -48v-168c0 -19 -4 -45 24 -45h37
c38 0 60 0 82 60c6 18 8 48 28 48c10 0 18 -6 18 -25c0 -59 -10 -76 -3 -179c2 -24 4 -52 -16 -52c-24 0 -26 34 -35 60c-12 32 -25 48 -80 48h-15c-46 0 -40 -23 -40 -37v-147c0 -47 3 -117 74 -117h15c75 0 112 53 136 107c10 23 16 40 31 40c17 0 20 -16 20 -23
c0 -15 -7 -30 -15 -126c-3 -47 -1 -50 -53 -48l-102 4c-205 8 -233 -3 -310 -3c-8 0 -27 0 -27 23c0 19 17 19 24 19c46 3 57 41 57 97zM171 913c31 0 63 -25 63 -75c0 -55 -32 -80 -63 -80c-9 0 -60 4 -60 75c0 48 28 80 60 80zM376 913c29 0 63 -22 63 -75
c0 -49 -29 -80 -63 -80c-30 0 -60 26 -60 75c0 52 31 80 60 80z" />
    <glyph glyph-name="copyright" unicode="&#xa9;" horiz-adv-x="814" 
d="M407 -22c-204 0 -371 166 -371 371s167 371 371 371s371 -168 371 -371s-167 -371 -371 -371zM407 46c161 0 293 137 293 303s-132 303 -293 303s-293 -136 -293 -303s132 -303 293 -303zM575 524l4 -28c5 -32 3 -33 -10 -33c-12 0 -10 1 -25 20c-26 34 -49 58 -97 58
c-82 0 -150 -77 -150 -191c0 -127 73 -193 147 -193c27 0 73 10 106 70c5 9 9 17 16 25c3 3 6 5 13 5c15 0 14 -16 12 -34l-3 -25c-2 -21 0 -30 -29 -44c-49 -24 -109 -26 -122 -26c-186 0 -262 120 -262 219c0 124 107 223 276 223c36 0 63 -5 103 -14c14 -3 17 -4 21 -32z
" />
    <glyph glyph-name="afii10053" unicode="&#x404;" horiz-adv-x="593" 
d="M298 357h-88c-11 0 -25 -3 -24 -45c3 -178 95 -287 189 -287c93 0 127 94 152 148c6 13 12 24 26 24c22 0 17 -30 15 -56l-3 -41c-2 -26 1 -50 -38 -73c-33 -19 -93 -42 -161 -42c-223 0 -334 205 -334 380c0 179 114 349 343 349c67 0 100 -11 136 -24
c25 -9 21 -9 28 -53l7 -45c3 -19 9 -55 -15 -55c-19 0 -26 27 -44 55c-34 57 -60 82 -117 82c-132 0 -184 -168 -184 -240c0 -38 26 -37 40 -37h53c53 0 69 7 86 55c8 21 8 43 30 43c15 0 16 -15 16 -26v-34c0 -41 1 -75 3 -113c2 -40 3 -46 3 -58c0 -19 -10 -25 -18 -25
c-6 0 -15 4 -18 16l-5 18c-22 80 -45 84 -78 84z" />
    <glyph glyph-name="guillemotleft" unicode="&#xab;" horiz-adv-x="340" 
d="M142 270l88 -187c5 -10 1 -17 -5 -17c-2 0 -4 1 -6 3l-182 191c-3 3 -5 7 -5 10s2 7 5 10l182 191c2 2 4 3 6 3c6 0 10 -7 5 -17zM259 270l48 -110c1 -2 1 -4 1 -7c0 -6 -5 -6 -9 -3l-115 110c-8 8 -8 12 0 20l115 110c8 7 11 -2 8 -10z" />
    <glyph glyph-name="logicalnot" unicode="&#xac;" 
d="M6 376v95h484v-305h-79v210h-405z" />
    <glyph glyph-name="hyphen" unicode="-" horiz-adv-x="285" 
d="M56 316h197l-24 -92h-197z" />
    <glyph glyph-name="hyphen" unicode="&#xad;" horiz-adv-x="285" 
d="M56 316h197l-24 -92h-197z" />
    <glyph glyph-name="registered" unicode="&#xae;" horiz-adv-x="814" 
d="M407 -22c-204 0 -371 166 -371 371s167 371 371 371s371 -168 371 -371s-167 -371 -371 -371zM407 46c161 0 293 137 293 303s-132 303 -293 303s-293 -136 -293 -303s132 -303 293 -303zM268 232v231c0 32 -10 49 -39 53c-12 1 -16 4 -16 10c0 12 12 13 18 13
c29 0 59 -3 89 -3c31 0 61 1 92 2c17 1 33 1 50 1c92 0 111 -59 111 -95c0 -57 -49 -87 -104 -87v-2c33 -4 49 -26 61 -49l47 -90c18 -35 26 -36 38 -37c9 -1 12 -4 13 -7v-4c-2 -13 -12 -12 -17 -12c-16 0 -31 2 -47 2c-37 0 -41 -2 -56 -2c-13 0 -14 6 -17 13l-63 124
c-22 43 -27 46 -43 46h-5c-5 0 -9 -8 -9 -13v-94c0 -46 24 -53 39 -53c4 0 16 1 16 -10c0 -12 -12 -13 -18 -13c-29 0 -58 3 -88 3s-60 -3 -89 -3c-6 0 -18 1 -18 13c0 11 12 10 16 10c15 0 39 7 39 53zM371 482v-99c0 -12 -1 -21 16 -21h8c40 0 73 33 73 75
c0 45 -29 75 -65 75c-30 0 -32 -20 -32 -30z" />
    <glyph glyph-name="afii10056" unicode="&#x407;" horiz-adv-x="360" 
d="M255 561v-422c0 -48 7 -94 58 -97c6 0 23 0 23 -19c0 -9 -2 -23 -26 -23c-44 0 -87 6 -130 6s-86 -6 -130 -6c-24 0 -26 14 -26 23c0 19 17 19 23 19c51 3 58 49 58 97v422c0 48 -8 94 -58 97c-6 0 -23 0 -23 19c0 9 2 23 26 23c44 0 87 -6 130 -6s86 6 130 6
c24 0 26 -14 26 -23c0 -19 -17 -19 -23 -19c-51 -3 -58 -49 -58 -97zM76 913c31 0 63 -25 63 -75c0 -55 -32 -80 -63 -80c-9 0 -60 4 -60 75c0 48 28 80 60 80zM281 913c31 0 63 -25 63 -75c0 -55 -32 -80 -63 -80c-9 0 -60 4 -60 75c0 48 28 80 60 80z" />
    <glyph glyph-name="degree" unicode="&#xb0;" horiz-adv-x="303" 
d="M32 590c0 81 67 120 119 120c53 0 120 -40 120 -120s-67 -120 -120 -120c-52 0 -119 39 -119 120zM93 590c0 -28 19 -58 58 -58c40 0 59 30 59 58c0 32 -24 59 -59 59c-32 0 -58 -25 -58 -59z" />
    <glyph glyph-name="plusminus" unicode="&#xb1;" horiz-adv-x="616" 
d="M6 432h254v203h95v-203h255v-95h-255v-176h-95v176h-254v95zM6 116h604v-95h-604v95z" />
    <glyph glyph-name="afii10055" unicode="&#x406;" horiz-adv-x="360" 
d="M255 561v-422c0 -48 7 -94 58 -97c6 0 23 0 23 -19c0 -9 -2 -23 -26 -23c-44 0 -87 6 -130 6s-86 -6 -130 -6c-24 0 -26 14 -26 23c0 19 17 19 23 19c51 3 58 49 58 97v422c0 48 -8 94 -58 97c-6 0 -23 0 -23 19c0 9 2 23 26 23c44 0 87 -6 130 -6s86 6 130 6
c24 0 26 -14 26 -23c0 -19 -17 -19 -23 -19c-51 -3 -58 -49 -58 -97z" />
    <glyph glyph-name="afii10103" unicode="&#x456;" horiz-adv-x="313" 
d="M229 517v-378c0 -55 0 -74 27 -86c23 -10 47 -6 47 -31c0 -22 -14 -22 -27 -22c-38 0 -76 4 -113 4c-38 0 -75 -4 -114 -4c-13 0 -27 0 -27 22c0 17 13 20 22 23l25 8c30 10 27 48 27 86v193c0 54 -22 53 -34 53h-7c-4 0 -20 1 -20 22c0 22 19 25 41 34
c66 27 97 64 120 86c6 6 12 9 21 9c12 0 12 -13 12 -19zM160 747c39 0 80 -28 80 -85c0 -56 -34 -90 -80 -90c-42 0 -77 34 -77 85c0 59 42 90 77 90z" />
    <glyph glyph-name="afii10098" unicode="&#x491;" horiz-adv-x="413" 
d="M94 139v231c0 67 1 79 -49 94l-10 3c-3 1 -15 4 -15 20c0 24 18 22 29 22h242c42 0 52 29 75 87c5 13 11 26 27 26c6 0 21 -5 20 -32l-2 -71c-1 -29 6 -56 -27 -56c-20 0 -32 4 -97 4h-54c-6 0 -6 -4 -6 -7v-341c0 -66 15 -63 49 -74l12 -4c3 -1 12 -5 12 -19
c0 -23 -13 -22 -29 -22c-38 0 -74 4 -110 4c-37 0 -74 -4 -112 -4c-14 0 -29 0 -29 22c0 16 12 19 15 20l11 3c53 14 48 37 48 94z" />
    <glyph glyph-name="mu" unicode="&#xb5;" horiz-adv-x="583" 
d="M216 501v-272c0 -73 4 -147 60 -147c44 0 83 53 83 148v271h133v-366c0 -26 2 -57 23 -57c13 0 25 12 37 20c4 3 9 3 16 3c4 0 7 -6 7 -13c0 -19 -19 -40 -27 -48c-25 -27 -54 -52 -104 -52c-25 0 -55 8 -74 62c-2 6 -5 24 -11 24c-4 0 -11 -7 -16 -13
c-24 -30 -73 -73 -124 -73c-35 0 -83 16 -94 89h-4c15 -149 35 -211 35 -266c0 -54 -29 -65 -50 -65c-43 0 -46 53 -46 70c0 121 23 127 23 392v293h133z" />
    <glyph glyph-name="mu" unicode="&#x3bc;" horiz-adv-x="583" 
d="M216 501v-272c0 -73 4 -147 60 -147c44 0 83 53 83 148v271h133v-366c0 -26 2 -57 23 -57c13 0 25 12 37 20c4 3 9 3 16 3c4 0 7 -6 7 -13c0 -19 -19 -40 -27 -48c-25 -27 -54 -52 -104 -52c-25 0 -55 8 -74 62c-2 6 -5 24 -11 24c-4 0 -11 -7 -16 -13
c-24 -30 -73 -73 -124 -73c-35 0 -83 16 -94 89h-4c15 -149 35 -211 35 -266c0 -54 -29 -65 -50 -65c-43 0 -46 53 -46 70c0 121 23 127 23 392v293h133z" />
    <glyph glyph-name="paragraph" unicode="&#xb6;" horiz-adv-x="524" 
d="M307 700h166c8 0 27 0 27 -23c0 -20 -18 -19 -28 -19c-51 -1 -63 -38 -63 -97v-418c0 -262 -129 -397 -236 -397c-59 0 -98 47 -98 98c0 52 34 79 70 79c35 0 51 -24 64 -56c9 -23 13 -49 34 -49c27 0 61 51 61 189v192c-122 -9 -264 52 -264 254c0 97 43 247 267 247z
" />
    <glyph glyph-name="periodcentered" unicode="&#xb7;" horiz-adv-x="250" 
d="M26 357c0 55 44 99 99 99c57 0 99 -43 99 -99s-42 -99 -99 -99c-55 0 -99 44 -99 99z" />
    <glyph glyph-name="periodcentered" unicode="&#x2219;" horiz-adv-x="250" 
d="M26 357c0 55 44 99 99 99c57 0 99 -43 99 -99s-42 -99 -99 -99c-55 0 -99 44 -99 99z" />
    <glyph glyph-name="afii10071" unicode="&#x451;" horiz-adv-x="480" 
d="M417 310h-231c-14 0 -20 3 -20 -39c0 -119 69 -210 150 -210c29 0 60 12 90 36c18 15 25 23 32 23c5 0 14 -4 14 -17s-6 -23 -13 -32c-37 -48 -105 -89 -183 -89c-123 0 -232 115 -232 276c0 159 102 269 240 269c119 0 192 -89 192 -175c0 -41 -23 -42 -39 -42zM205 349
h34c54 0 92 10 92 66c0 51 -29 72 -58 72c-27 0 -53 -14 -70 -35c-15 -18 -28 -52 -28 -80c0 -24 15 -23 30 -23zM153 742c37 0 62 -29 62 -80c0 -68 -32 -85 -62 -85c-24 0 -61 13 -61 80s36 85 61 85zM355 742c30 0 63 -25 63 -80c0 -57 -27 -85 -63 -85
c-23 0 -60 13 -60 80c0 68 37 85 60 85z" />
    <glyph glyph-name="afii61352" unicode="&#x2116;" horiz-adv-x="978" 
d="M265 672l262 -402v291c0 87 -31 94 -58 97l-10 1c-6 1 -13 6 -13 18c0 10 1 23 26 23s50 -6 75 -6s51 6 76 6c8 0 27 0 27 -23c0 -8 -7 -17 -13 -18l-11 -1c-52 -5 -57 -51 -57 -97v-546c0 -12 -1 -38 -23 -38c-18 0 -29 19 -38 33l-361 554v-425c0 -33 1 -96 65 -97
c7 0 23 0 23 -19c0 -10 -1 -23 -26 -23c-28 0 -55 6 -82 6c-25 0 -51 -6 -76 -6c-8 0 -27 0 -27 23c0 19 17 19 24 19c61 4 57 72 57 97v422c0 30 2 94 -57 97c-7 0 -24 0 -24 19c0 23 19 23 27 23h165c28 0 32 -2 49 -28zM788 204c-105 0 -152 98 -152 180
c0 83 47 181 152 181c102 0 150 -98 150 -181c0 -82 -47 -180 -150 -180zM786 250c36 0 86 30 86 135c0 81 -38 134 -86 134c-53 0 -84 -66 -84 -134c0 -70 30 -135 84 -135zM653 89v55h269v-55h-269z" />
    <glyph glyph-name="afii10101" unicode="&#x454;" horiz-adv-x="465" 
d="M440 429l-8 -50c-4 -25 -19 -32 -29 -32c-29 0 -37 28 -50 58c-22 49 -35 83 -75 83c-58 0 -111 -81 -111 -187c0 -5 -1 -17 4 -17c3 0 4 3 16 16c10 10 26 28 48 28c13 0 25 -7 37 -13c30 -17 42 -27 56 -27c12 0 17 2 25 8c5 4 15 9 24 9c6 0 12 -8 12 -23
c0 -11 -7 -18 -13 -25c-24 -26 -51 -54 -77 -54c-6 0 -22 1 -56 22c-14 9 -31 21 -47 21c-18 0 -23 -17 -23 -41c0 -58 49 -149 141 -149c46 0 81 23 94 33c11 8 17 12 22 12c9 0 13 -11 13 -18c0 -11 -11 -27 -20 -36c-10 -10 -64 -65 -169 -65c-134 0 -230 108 -230 261
c0 161 116 284 272 284c53 0 100 -16 125 -39c26 -24 21 -46 19 -59z" />
    <glyph glyph-name="guillemotright" unicode="&#xbb;" horiz-adv-x="340" 
d="M198 270l-88 187c-5 10 -1 17 5 17c2 0 4 -1 6 -3l182 -191c3 -3 5 -7 5 -10s-2 -7 -5 -10l-182 -191c-2 -2 -4 -3 -6 -3c-6 0 -10 7 -5 17zM81 270l-48 110c-1 2 -1 4 -1 7c0 6 5 6 9 3l115 -110c8 -8 8 -12 0 -20l-115 -110c-8 -7 -11 2 -8 10z" />
    <glyph glyph-name="afii10105" unicode="&#x458;" horiz-adv-x="302" 
d="M230 502v-452c0 -69 -24 -185 -150 -271c-18 -12 -34 -21 -52 -21c-9 0 -20 3 -20 18c0 25 39 38 58 62c16 21 31 57 31 132v362c0 51 -19 53 -34 53h-7c-9 0 -20 3 -20 22c0 22 15 23 41 34c67 28 94 62 119 86c5 5 12 9 21 9c12 0 13 -18 13 -34zM162 747
c38 0 80 -28 80 -85c0 -46 -28 -90 -80 -90c-44 0 -78 34 -78 85c0 59 42 90 78 90z" />
    <glyph glyph-name="afii10054" unicode="&#x405;" horiz-adv-x="470" 
d="M400 639l1 -78c0 -13 0 -43 -19 -43c-16 0 -19 21 -26 40c-32 88 -51 117 -107 117c-66 0 -95 -52 -95 -104c0 -66 56 -91 112 -117c92 -43 176 -84 176 -219c0 -150 -104 -250 -237 -250c-46 0 -99 11 -147 36c-18 9 -28 18 -29 56l-1 64c-1 57 4 73 20 73
c15 0 20 -13 25 -42c20 -122 71 -147 132 -147c71 0 123 47 123 123c0 81 -49 111 -138 155c-64 31 -152 70 -152 187c0 99 53 225 228 225c54 0 93 -15 110 -23c30 -14 24 -29 24 -53z" />
    <glyph glyph-name="afii10102" unicode="&#x455;" horiz-adv-x="404" 
d="M358 457l-2 -35c-1 -12 -1 -38 -17 -38c-18 0 -26 19 -39 40c-16 26 -36 64 -86 64c-25 0 -72 -10 -72 -61c0 -45 42 -60 91 -80l40 -16c47 -19 111 -54 111 -150c0 -97 -65 -199 -208 -199c-147 0 -148 72 -148 79v38c0 26 -1 65 20 65c19 0 30 -39 40 -65
c11 -30 34 -78 104 -78c69 0 88 44 88 75c0 63 -59 85 -95 100l-51 21c-29 12 -105 49 -105 140c0 84 60 170 181 170c32 0 79 -6 113 -17c35 -12 37 -21 35 -53z" />
    <glyph glyph-name="afii10104" unicode="&#x457;" horiz-adv-x="312" 
d="M229 517v-378c0 -55 0 -74 27 -86c23 -10 47 -6 47 -31c0 -22 -14 -22 -27 -22c-38 0 -76 4 -113 4c-38 0 -75 -4 -114 -4c-13 0 -27 0 -27 22c0 17 13 20 22 23l25 8c30 10 27 48 27 86v193c0 54 -22 53 -34 53h-7c-4 0 -20 1 -20 22c0 22 19 25 41 34
c66 27 97 64 120 86c6 6 12 9 21 9c12 0 12 -13 12 -19zM55 742c37 0 62 -29 62 -80c0 -68 -32 -85 -62 -85c-24 0 -61 13 -61 80s36 85 61 85zM257 742c37 0 62 -29 62 -80c0 -68 -32 -85 -62 -85c-24 0 -61 13 -61 80s36 85 61 85z" />
    <glyph glyph-name="afii10017" unicode="&#x410;" horiz-adv-x="598" 
d="M336 685l192 -568c18 -54 20 -72 54 -75c15 -1 32 0 32 -20c0 -19 -14 -22 -34 -22c-37 0 -74 6 -111 6c-42 0 -84 -6 -127 -6c-6 0 -26 -1 -26 21c0 19 16 21 24 21h15c23 1 24 16 24 25c0 11 -2 23 -5 31l-36 117c-2 7 -8 29 -26 29h-139c-10 0 -17 0 -24 -25l-17 -65
c-4 -16 -7 -32 -7 -51c0 -50 39 -58 58 -60c18 -2 31 -2 31 -22c0 -18 -13 -21 -29 -21c-28 0 -55 6 -83 6c-30 0 -59 -6 -89 -6c-19 0 -29 3 -29 21c0 29 33 19 55 39c20 18 31 53 52 118l167 510c2 7 6 17 12 22c3 3 10 4 14 5c5 1 10 0 15 0c12 -1 18 0 24 -6
c4 -4 11 -18 13 -24zM307 315l-59 193c-2 5 -1 7 -4 8c-3 -3 -3 -5 -4 -7l-59 -187c-2 -7 -4 -12 -4 -17c0 -13 9 -15 17 -15h98c17 0 20 9 15 25z" />
    <glyph glyph-name="afii10018" unicode="&#x411;" horiz-adv-x="616" 
d="M255 608v-182c0 -14 -2 -31 25 -28c23 3 52 11 94 11c154 0 214 -96 214 -198c0 -96 -53 -215 -233 -215c-59 0 -117 10 -175 10c-43 0 -86 -6 -129 -6c-8 0 -27 0 -27 23c0 19 17 19 24 19c61 4 57 78 57 97v422c0 18 4 94 -57 97c-7 0 -24 0 -24 19c0 23 19 23 27 23
c127 0 121 -7 202 -6l116 2c30 1 61 2 91 2h16c21 1 25 2 35 2c14 0 18 -6 18 -26c0 -5 -1 -10 -1 -15c-2 -23 -1 -45 0 -68c1 -14 1 -29 2 -43c0 -7 1 -14 0 -21c-1 -17 -13 -19 -18 -19c-10 0 -17 8 -29 38c-18 44 -31 98 -114 100l-45 1c-75 2 -69 -13 -69 -39zM255 327
v-157c0 -73 -3 -134 81 -134c78 0 98 90 98 179c0 121 -64 149 -110 149c-69 0 -69 -21 -69 -37z" />
    <glyph glyph-name="afii10019" unicode="&#x412;" horiz-adv-x="607" 
d="M105 139v431c0 20 1 61 -33 65h-12s-9 -1 -13 -1c-17 0 -21 12 -21 21c0 16 12 23 22 27c42 16 145 33 255 33c107 0 253 -17 253 -180c0 -104 -88 -147 -165 -145v-3c89 1 188 -50 188 -190c0 -181 -139 -197 -214 -197c-62 0 -124 6 -186 6c-43 0 -85 -6 -128 -6
c-8 0 -27 0 -27 23c0 19 17 19 24 19c52 3 57 49 57 97zM255 608v-170c0 -30 8 -33 23 -33h9c23 0 115 4 115 132c0 66 -28 136 -94 136c-58 0 -53 -49 -53 -65zM255 330v-186c0 -39 4 -102 72 -102c56 0 98 40 98 147s-46 176 -132 176h-13c-26 0 -25 -24 -25 -35z" />
    <glyph glyph-name="afii10020" unicode="&#x413;" horiz-adv-x="507" 
d="M105 139v422c0 48 -8 94 -57 97c-7 0 -24 0 -24 19c0 23 19 23 27 23c53 0 77 -3 116 -4l143 -2c76 -1 115 6 180 6c15 0 24 0 24 -26c0 -5 -1 -10 -1 -15c-2 -23 -1 -45 0 -68c0 -14 1 -28 2 -43c1 -7 1 -14 0 -21c-3 -16 -9 -18 -17 -18c-10 0 -16 3 -25 25
c-35 85 -42 110 -156 110c-65 0 -61 -14 -61 -39v-466c0 -28 -5 -95 65 -97c7 0 23 1 23 -19c0 -11 -1 -23 -26 -23c-46 0 -92 6 -138 6c-43 0 -86 -6 -129 -6c-8 0 -27 0 -27 23c0 19 17 19 24 19c46 3 57 41 57 97z" />
    <glyph glyph-name="afii10021" unicode="&#x414;" horiz-adv-x="615" 
d="M514 561v-436c0 -27 -2 -70 50 -74c7 -1 14 -1 21 0c6 1 11 1 17 1s13 -3 13 -17c0 -5 0 -11 -5 -72l-6 -74c-5 -58 -11 -75 -30 -75c-13 0 -19 7 -22 18c-8 33 -6 121 -29 151c-14 17 -36 19 -55 19c-13 0 -25 -1 -37 -1c-15 -1 -31 -1 -46 -1h-186
c-44 0 -93 8 -124 -18c-14 -11 -25 -33 -42 -100l-11 -44c-3 -13 -7 -24 -26 -24c-25 0 -20 38 -20 66v99c0 25 -7 66 13 70c3 1 7 0 10 0h13c22 1 48 7 73 66c73 176 88 379 88 443c0 106 -28 95 -64 99c-16 2 -23 6 -23 23c0 19 13 20 17 20c28 0 54 -2 80 -2
c24 0 49 2 74 2h60c41 0 81 -6 122 -6c43 0 86 6 129 6c8 0 27 0 27 -23c0 -8 -7 -17 -13 -18l-10 -1c-53 -5 -58 -48 -58 -97zM364 156v437c0 58 -27 58 -63 58h-24c-52 0 -56 -25 -60 -85c-9 -120 -23 -311 -95 -490c-2 -4 -4 -9 1 -15c10 -13 38 -12 56 -12h101
c65 0 84 -5 84 107z" />
    <glyph glyph-name="afii10022" unicode="&#x415;" horiz-adv-x="551" 
d="M105 139v422c0 56 -11 94 -57 97c-7 0 -24 0 -24 19c0 23 19 23 27 23c87 0 18 -2 112 -4l116 -2c39 -1 134 2 160 4c57 4 59 16 59 -39v-56c0 -58 -6 -63 -18 -63c-16 0 -19 15 -25 27l-12 22c-32 58 -92 62 -128 62c-68 0 -60 -27 -60 -48v-168c0 -19 -4 -45 24 -45h37
c31 0 60 1 75 43l12 34c4 13 6 31 23 31c10 0 18 -6 18 -25c0 -60 -10 -76 -3 -179c2 -24 4 -52 -16 -52c-21 0 -23 23 -31 45l-7 19c-9 24 -26 44 -77 44h-15c-46 0 -40 -23 -40 -37v-147c0 -47 3 -117 74 -117h15c76 0 111 53 136 105l13 27c3 7 7 15 18 15
c10 0 20 -5 20 -24c0 -9 -2 -16 -4 -30l-4 -31c-12 -90 7 -114 -50 -112l-112 4c-223 8 -190 -3 -310 -3c-8 0 -27 0 -27 23c0 19 17 19 24 19c46 3 57 41 57 97z" />
    <glyph glyph-name="afii10024" unicode="&#x416;" horiz-adv-x="900" 
d="M271 368v4c-46 23 -68 72 -76 124l-8 54c-3 17 -15 41 -34 41c-11 0 -16 -10 -19 -17c-9 -19 -17 -47 -54 -47c-36 0 -65 28 -65 87c0 51 33 91 91 91c26 0 98 -8 122 -137l14 -76c9 -50 44 -105 102 -105h8c12 0 23 -3 23 38v136c0 57 -11 94 -58 97c-6 0 -23 0 -23 19
c0 9 2 23 26 23c44 0 87 -6 130 -6s86 6 130 6c24 0 26 -14 26 -23c0 -19 -17 -19 -23 -19c-47 -3 -58 -40 -58 -97v-136c0 -41 11 -38 23 -38h8c58 0 93 55 102 105l14 76c24 129 95 137 122 137c8 0 91 1 91 -91c0 -59 -29 -87 -65 -87c-37 0 -45 28 -54 47
c-3 7 -8 17 -19 17c-19 0 -31 -24 -34 -41l-8 -54c-8 -52 -30 -101 -76 -124v-4c84 -2 121 -76 146 -129l61 -129c9 -19 33 -60 54 -67c12 -3 23 0 26 -13c1 -3 0 -5 0 -8c-1 -10 -1 -22 -20 -22c-24 0 -48 6 -72 6c-16 0 -32 -2 -48 -4c-7 -1 -14 -2 -21 -2
c-34 0 -48 23 -71 78l-77 183c-32 76 -52 83 -66 83c-17 0 -16 -13 -16 -24v-181c0 -57 10 -93 59 -97c6 0 22 -1 22 -19c0 -9 -2 -23 -26 -23c-44 0 -87 6 -130 6s-86 -6 -130 -6c-24 0 -26 14 -26 23c0 18 16 19 22 19c49 4 59 40 59 97v181c0 11 1 24 -16 24
c-14 0 -34 -7 -66 -83l-77 -183c-21 -50 -33 -78 -71 -78c-27 0 -40 6 -69 6c-24 0 -48 -6 -72 -6c-19 0 -19 12 -20 22c0 3 -1 5 0 8c3 13 14 10 26 13c21 7 45 48 54 67l61 129c25 53 62 127 146 129z" />
    <glyph glyph-name="afii10025" unicode="&#x417;" horiz-adv-x="523" 
d="M178 402h53c89 0 95 106 95 135c0 63 -18 137 -103 137c-73 0 -102 -55 -125 -120c-6 -18 -15 -42 -32 -42c-25 0 -19 36 -16 55l12 71c7 44 2 44 28 53c62 21 106 24 144 24c133 0 236 -48 236 -180c0 -115 -92 -141 -142 -145v-3c67 -5 167 -45 167 -190
c0 -106 -53 -212 -268 -212c-77 0 -156 30 -182 58c-17 18 -16 37 -17 57l-3 41c-2 28 -4 56 17 56c11 0 16 -7 24 -25c19 -45 58 -147 152 -147c57 0 124 41 124 164c0 64 -19 168 -127 168h-47c-4 0 -13 1 -10 13l6 23c1 4 3 9 14 9z" />
    <glyph glyph-name="afii10026" unicode="&#x418;" horiz-adv-x="739" 
d="M256 222l228 343v6c0 62 -25 84 -58 87c-10 1 -23 1 -23 19c0 11 1 23 26 23c44 0 87 -6 130 -6s86 6 129 6c8 0 27 0 27 -23c0 -19 -17 -19 -23 -19c-47 -3 -58 -41 -58 -97v-422c0 -56 11 -94 58 -97c6 0 23 0 23 -19c0 -23 -19 -23 -27 -23c-43 0 -86 6 -129 6
s-86 -6 -130 -6c-25 0 -26 12 -26 23c0 18 13 18 23 19c49 4 58 45 58 97v349l-228 -343v-6c0 -25 -4 -93 57 -97c7 0 23 1 23 -19c0 -11 -1 -23 -26 -23c-44 0 -87 6 -130 6s-86 -6 -129 -6c-8 0 -27 0 -27 23c0 19 17 19 24 19c46 3 57 41 57 97v422c0 56 -11 94 -57 97
c-7 0 -24 0 -24 19c0 23 19 23 27 23c43 0 86 -6 129 -6s86 6 130 6c25 0 26 -12 26 -23c0 -20 -16 -19 -23 -19c-61 -4 -57 -72 -57 -97v-339z" />
    <glyph glyph-name="afii10027" unicode="&#x419;" horiz-adv-x="739" 
d="M256 222l228 343v6c0 62 -25 84 -58 87c-10 1 -23 1 -23 19c0 11 1 23 26 23c44 0 87 -6 130 -6s86 6 129 6c8 0 27 0 27 -23c0 -19 -17 -19 -23 -19c-47 -3 -58 -41 -58 -97v-422c0 -56 11 -94 58 -97c6 0 23 0 23 -19c0 -23 -19 -23 -27 -23c-43 0 -86 6 -129 6
s-86 -6 -130 -6c-25 0 -26 12 -26 23c0 18 13 18 23 19c49 4 58 45 58 97v349l-228 -343v-6c0 -25 -4 -93 57 -97c7 0 23 1 23 -19c0 -11 -1 -23 -26 -23c-44 0 -87 6 -130 6s-86 -6 -129 -6c-8 0 -27 0 -27 23c0 19 17 19 24 19c46 3 57 41 57 97v422c0 56 -11 94 -57 97
c-7 0 -24 0 -24 19c0 23 19 23 27 23c43 0 86 -6 129 -6s86 6 130 6c25 0 26 -12 26 -23c0 -20 -16 -19 -23 -19c-61 -4 -57 -72 -57 -97v-339zM525 869c-14 -36 -61 -147 -157 -147c-50 0 -119 35 -119 96c0 44 43 83 64 83c26 0 29 -35 31 -49c9 -57 35 -62 53 -62
c34 0 51 19 77 58c16 24 26 52 40 52c6 0 14 -4 14 -10c0 -7 0 -14 -3 -21z" />
    <glyph glyph-name="afii10028" unicode="&#x41a;" horiz-adv-x="657" 
d="M105 139v422c0 50 -6 94 -58 97c-6 0 -23 0 -23 19c0 12 5 23 27 23c44 0 86 -6 129 -6s86 6 130 6c25 0 26 -12 26 -23c0 -18 -13 -18 -23 -19c-47 -4 -58 -40 -58 -97v-136c0 -39 9 -38 24 -38h12c34 0 80 11 105 105l22 81c34 124 86 137 124 137c63 0 91 -45 91 -91
c0 -48 -23 -87 -66 -87c-32 0 -42 21 -48 36c-6 14 -10 28 -24 28c-10 0 -26 -3 -36 -41l-15 -54c-14 -50 -24 -100 -77 -124v-4c38 -2 91 -18 143 -117l77 -146c30 -57 50 -65 66 -68c13 -2 20 -2 20 -20c0 -7 -2 -22 -21 -22c-25 0 -49 6 -73 6c-14 0 -29 -2 -43 -4
c-7 -1 -13 -2 -20 -2c-43 0 -62 36 -86 87l-84 174c-40 83 -54 83 -71 83c-11 0 -20 3 -20 -24v-181c0 -58 10 -93 59 -97c8 -1 22 0 22 -19c0 -11 -1 -23 -26 -23c-44 0 -87 6 -130 6s-85 -6 -129 -6c-22 0 -27 11 -27 23c0 19 17 19 23 19c52 3 58 47 58 97z" />
    <glyph glyph-name="afii10029" unicode="&#x41b;" horiz-adv-x="659" 
d="M403 139v454c0 58 -24 58 -62 58h-23c-66 0 -59 -37 -65 -182c-3 -73 -8 -154 -27 -250c-42 -208 -118 -240 -165 -240c-54 0 -81 36 -81 83c0 44 28 78 69 78c30 0 43 -24 49 -38c4 -10 9 -22 22 -22c36 0 89 176 89 424c0 111 -2 151 -53 154c-19 1 -36 -3 -36 22
c0 19 14 20 18 20c27 0 52 -2 78 -2c25 0 49 2 74 2h77c38 0 75 -6 112 -6c43 0 86 6 129 6c8 0 27 0 27 -23c0 -19 -17 -19 -24 -19c-49 -3 -57 -49 -57 -97v-422c0 -56 11 -94 57 -97c7 0 24 0 24 -19c0 -23 -19 -23 -27 -23c-43 0 -86 6 -129 6s-86 -6 -130 -6
c-25 0 -26 12 -26 23c0 20 16 19 23 19c61 4 57 72 57 97z" />
    <glyph glyph-name="afii10030" unicode="&#x41c;" horiz-adv-x="800" 
d="M263 681l140 -417c1 -3 3 -3 4 0l138 418c5 15 15 18 30 18c29 0 55 -6 81 -6c27 0 55 6 84 6c7 0 21 0 24 -13c1 -3 0 -7 0 -10c-1 -12 -2 -18 -28 -19c-29 -2 -48 -6 -46 -81l11 -440c2 -71 11 -94 47 -96c16 -1 31 3 31 -17c0 -9 -4 -22 -19 -24c-5 -1 -11 0 -16 0
c-36 3 -72 6 -108 6c-46 0 -92 -6 -138 -6c-11 0 -28 1 -28 23c0 17 9 18 27 19c25 1 55 -8 54 63l-7 424c0 2 0 4 -1 4s-2 0 -3 -2l-141 -428c-17 -53 -7 -25 -23 -75c-5 -15 -8 -24 -27 -24c-17 0 -20 9 -25 21c-15 40 -16 47 -25 75l-141 425c-1 2 -1 3 -2 3s-2 -1 -2 -3
l-10 -388c-1 -21 -3 -89 48 -95c15 -2 27 2 34 -2c5 -3 10 -10 10 -16c0 -22 -20 -24 -28 -24c-26 0 -52 6 -78 6c-29 0 -58 -6 -87 -6c-11 0 -22 1 -22 21c0 21 18 20 24 20c35 0 49 11 52 78l17 436c3 78 -1 103 -44 103c-9 0 -32 -1 -32 23c0 19 17 19 35 19
c11 0 21 -1 32 -2c18 -2 37 -4 55 -4c42 0 62 6 73 6c25 0 27 -9 30 -19z" />
    <glyph glyph-name="afii10031" unicode="&#x41d;" horiz-adv-x="730" 
d="M105 139v422c0 56 -11 94 -57 97c-7 0 -24 0 -24 19c0 23 19 23 27 23c43 0 85 -6 128 -6s86 6 130 6c25 0 26 -12 26 -23c0 -20 -16 -19 -23 -19c-61 -4 -57 -72 -57 -97v-139c0 -12 0 -27 21 -27h180c21 0 19 13 19 27v139c0 52 -9 93 -58 97c-10 1 -23 1 -23 19
c0 11 1 23 26 23c44 0 87 -6 130 -6s86 6 129 6c8 0 27 0 27 -23c0 -19 -17 -19 -23 -19c-47 -3 -58 -41 -58 -97v-422c0 -56 11 -94 58 -97c6 0 23 0 23 -19c0 -23 -19 -23 -27 -23c-43 0 -86 6 -129 6s-86 -6 -130 -6c-25 0 -26 12 -26 23c0 18 13 18 23 19
c49 4 58 45 58 97v179c0 13 0 33 -18 33h-178c-24 0 -24 -5 -24 -28v-184c0 -25 -4 -93 57 -97c7 0 23 1 23 -19c0 -11 -1 -23 -26 -23c-44 0 -87 6 -130 6s-85 -6 -128 -6c-8 0 -27 0 -27 23c0 19 17 19 24 19c46 3 57 41 57 97z" />
    <glyph glyph-name="afii10032" unicode="&#x41e;" horiz-adv-x="704" 
d="M362 -15c-193 0 -330 158 -330 366c0 218 133 364 310 364c174 0 330 -137 330 -360c0 -250 -155 -370 -310 -370zM367 25c104 0 151 143 151 296c0 192 -66 354 -180 354c-103 0 -152 -142 -152 -295c0 -146 51 -355 181 -355z" />
    <glyph glyph-name="afii10033" unicode="&#x41f;" horiz-adv-x="730" 
d="M105 139v422c0 56 -11 94 -57 97c-7 0 -24 0 -24 19c0 23 19 23 27 23c43 0 85 -6 128 -6s86 6 130 6h111c44 0 87 -6 130 -6s86 6 129 6c8 0 27 0 27 -23c0 -19 -17 -19 -23 -19c-47 -3 -58 -41 -58 -97v-422c0 -56 11 -94 58 -97c6 0 23 0 23 -19
c0 -23 -19 -23 -27 -23c-43 0 -86 6 -129 6s-86 -6 -130 -6c-25 0 -26 12 -26 23c0 18 13 18 23 19c49 4 58 45 58 97v474c0 10 0 38 -26 38h-162c-33 0 -32 -14 -32 -33v-479c0 -25 -4 -93 57 -97c7 0 23 1 23 -19c0 -11 -1 -23 -26 -23c-44 0 -87 6 -130 6s-85 -6 -128 -6
c-8 0 -27 0 -27 23c0 19 17 19 24 19c46 3 57 41 57 97z" />
    <glyph glyph-name="afii10034" unicode="&#x420;" horiz-adv-x="578" 
d="M105 139v422c0 48 -5 82 -45 95c-20 6 -36 -2 -36 21s19 23 27 23c43 0 85 -6 128 -6c27 0 53 1 80 3c28 2 56 3 84 3c39 0 219 -4 219 -200c0 -117 -72 -213 -175 -213c-37 0 -64 9 -95 21c-13 5 -19 7 -25 7c-12 0 -12 -11 -12 -18v-158c0 -49 7 -95 61 -97
c7 0 23 1 23 -19c0 -11 -1 -23 -26 -23c-45 0 -89 6 -134 6c-43 0 -85 -6 -128 -6c-8 0 -27 0 -27 23s16 15 36 21c40 13 45 47 45 95zM255 559v-165c0 -20 8 -31 18 -37c8 -5 22 -7 34 -7c79 0 101 85 101 148c0 94 -41 157 -101 157c-15 0 -39 -5 -48 -39
c-5 -18 -4 -35 -4 -57z" />
    <glyph glyph-name="afii10035" unicode="&#x421;" horiz-adv-x="598" 
d="M553 638l6 -45c3 -25 10 -55 -14 -55c-17 0 -24 18 -34 34l-22 35c-33 52 -61 68 -101 68c-113 0 -203 -127 -203 -323c0 -234 111 -327 195 -327c27 0 75 11 114 71c29 45 24 62 47 94c3 4 7 8 14 8c23 0 20 -23 18 -50l-3 -47c-2 -35 2 -59 -66 -88
c-55 -24 -97 -28 -129 -28c-252 0 -343 195 -343 361c0 180 120 369 358 369c40 0 90 -7 135 -24c21 -8 22 -10 28 -53z" />
    <glyph glyph-name="afii10036" unicode="&#x422;" horiz-adv-x="537" 
d="M101 700h344c23 0 37 -3 54 29c9 18 13 22 22 22c10 0 18 -5 15 -39c-3 -29 -5 -59 -7 -88c-2 -24 -4 -47 -6 -71c-1 -12 -3 -30 -18 -30c-17 0 -22 14 -24 21l-13 41c-20 64 -55 70 -77 70h-34c-14 0 -13 -12 -13 -19v-497c0 -48 5 -82 45 -95c20 -6 36 2 36 -21
s-19 -23 -27 -23c-43 0 -86 6 -129 6s-86 -6 -130 -6c-25 0 -26 12 -26 23c0 20 16 19 23 19c61 4 57 72 57 97v497c0 12 1 19 -26 19c-45 0 -67 5 -114 -84c-19 -37 -27 -48 -40 -48c-12 0 -17 8 -17 23c0 10 4 20 6 31l31 140c2 9 6 27 22 27c14 0 17 -10 18 -18l1 -8
c1 -8 1 -18 27 -18z" />
    <glyph glyph-name="afii10037" unicode="&#x423;" horiz-adv-x="561" 
d="M229 591l110 -254c5 -13 6 -24 14 -24c5 0 6 5 14 27l79 217c4 10 13 39 13 61c0 29 -9 36 -46 39c-12 1 -26 1 -26 21c0 11 3 22 28 22c29 0 58 -6 87 -6c22 0 44 6 66 6s25 -10 25 -21c0 -20 -16 -21 -21 -21l-12 -1c-35 -3 -43 -33 -73 -111l-144 -378
c-60 -157 -108 -198 -181 -198c-92 0 -96 68 -96 87c0 56 35 83 69 83c35 0 46 -31 57 -57c5 -11 17 -38 34 -38c19 0 39 40 44 55c5 14 4 25 -2 37l-199 445c-26 59 -35 76 -63 76c-8 0 -22 0 -22 23c0 19 16 19 21 19c42 0 82 -6 122 -6c43 0 87 6 131 6c13 0 30 1 30 -20
c0 -8 -2 -20 -23 -22c-17 -1 -45 2 -45 -31c0 -8 5 -27 9 -36z" />
    <glyph glyph-name="afii10038" unicode="&#x424;" horiz-adv-x="806" 
d="M478 118v-27c0 -16 11 -47 58 -49c6 0 23 0 23 -19c0 -9 -2 -23 -26 -23c-44 0 -87 6 -130 6s-86 -6 -130 -6c-24 0 -26 14 -26 23c0 19 17 19 23 19c51 2 58 37 58 53v23c-129 -10 -296 46 -296 263c0 221 213 239 265 239c10 0 21 -1 31 -2v7c0 46 -30 58 -58 59
c-6 0 -23 0 -23 19c0 9 2 23 26 23c44 0 87 -6 130 -6s86 6 130 6c24 0 26 -14 26 -23c0 -19 -17 -19 -23 -19c-44 -2 -58 -28 -58 -59v-5c129 10 296 -46 296 -263c0 -220 -211 -240 -274 -240c-7 0 -15 0 -22 1zM328 158v416c-10 3 -19 4 -29 4c-84 0 -114 -112 -114 -208
c0 -112 55 -218 143 -212zM478 580v-416c10 -3 19 -4 29 -4c84 0 114 112 114 208c0 112 -55 218 -143 212z" />
    <glyph glyph-name="afii10039" unicode="&#x425;" horiz-adv-x="654" 
d="M281 601l76 -136c3 -6 5 -8 9 0l59 107c19 34 21 49 21 57c0 9 -4 28 -24 29l-14 1c-10 1 -26 0 -26 23c0 17 20 18 33 18c32 0 65 -6 97 -6s64 6 96 6c18 0 32 -1 32 -21c0 -19 -20 -19 -31 -20l-17 -1c-20 -1 -48 -1 -73 -40l-129 -202l163 -278c49 -84 56 -90 74 -94
c26 -6 27 -8 27 -22c0 -17 -2 -22 -35 -22c-46 0 -92 6 -138 6c-39 0 -77 -6 -116 -6c-12 0 -24 0 -24 20c0 8 1 20 24 21c16 0 41 1 41 29c0 11 -5 21 -12 34l-101 180c-1 2 -2 4 -3 4s-2 -2 -3 -4l-78 -136c-16 -27 -26 -48 -26 -68c0 -15 7 -36 30 -37l17 -1
c28 -2 31 -5 31 -21c0 -10 2 -21 -32 -21c-36 0 -72 6 -108 6c-21 0 -42 -2 -62 -4c-10 -1 -19 -2 -29 -2c-8 0 -25 0 -25 21s17 20 29 21c58 4 108 84 129 120l100 171l-142 232c-57 94 -75 90 -96 92l-9 1c-12 1 -16 10 -16 22c0 13 7 20 31 20c54 0 101 -6 151 -6
c42 0 86 6 129 6c9 0 26 -2 26 -22c0 -19 -16 -19 -26 -20l-13 -1c-10 -1 -27 -2 -27 -27c0 -11 5 -20 10 -29z" />
    <glyph glyph-name="afii10040" unicode="&#x426;" horiz-adv-x="741" 
d="M105 139v422c0 55 -11 95 -57 97c-8 0 -24 1 -24 19c0 23 18 23 27 23c43 0 85 -6 128 -6s86 6 130 6c25 0 26 -12 26 -23c0 -19 -15 -19 -23 -19c-61 -3 -57 -73 -57 -97v-474c0 -13 1 -38 28 -38h155c25 0 33 3 33 38v474c0 52 -9 93 -58 97c-10 1 -23 1 -23 19
c0 11 1 23 26 23c44 0 87 -6 130 -6s86 6 129 6c8 0 27 0 27 -23c0 -19 -17 -19 -23 -19c-47 -3 -58 -41 -58 -97v-436c0 -32 1 -74 55 -74h12c19 0 34 7 34 -16c0 -4 0 -13 -5 -72l-6 -72c-5 -60 -10 -77 -30 -77s-23 17 -24 32l-3 31c-7 75 -17 93 -24 102
c-20 25 -62 21 -138 21h-183c-44 0 -87 6 -130 6s-85 -6 -128 -6c-8 0 -27 0 -27 23c0 19 17 19 24 19c46 3 57 41 57 97z" />
    <glyph glyph-name="afii10041" unicode="&#x427;" horiz-adv-x="672" 
d="M417 139v168c0 17 -10 13 -14 12c-34 -12 -98 -40 -171 -40c-86 0 -151 62 -151 165v117c0 57 -11 94 -58 97c-6 0 -23 0 -23 19c0 9 2 23 26 23c44 0 87 -6 130 -6c42 0 83 6 126 6c24 0 26 -14 26 -23c0 -19 -17 -19 -23 -19c-45 -3 -54 -46 -54 -97v-71
c0 -122 32 -137 74 -137c26 0 52 4 89 13c5 1 23 5 23 17v178c0 45 -4 93 -50 97c-6 0 -23 0 -23 19c0 9 2 23 26 23c41 0 82 -6 122 -6c43 0 86 6 130 6c24 0 26 -14 26 -23c0 -19 -17 -19 -23 -19c-47 -3 -58 -40 -58 -97v-422c0 -57 11 -94 58 -97c6 0 23 0 23 -19
c0 -9 -2 -23 -26 -23c-44 0 -87 6 -130 6c-44 0 -89 -6 -134 -6c-24 0 -26 14 -26 23c0 19 17 19 23 19c56 3 62 48 62 97z" />
    <glyph glyph-name="afii10042" unicode="&#x428;" horiz-adv-x="1024" 
d="M251 561v-474c0 -31 8 -38 26 -38h129c22 0 33 1 33 33v479c0 52 -9 93 -53 97c-7 1 -24 0 -24 19c0 23 19 23 27 23c41 0 82 -6 123 -6s82 6 123 6c8 0 27 0 27 -23c0 -19 -17 -18 -24 -19c-44 -4 -53 -45 -53 -97v-474c0 -28 6 -38 25 -38h130c22 0 33 1 33 33v479
c0 53 -9 92 -54 97c-6 1 -23 0 -23 19c0 9 2 23 26 23c42 0 83 -6 124 -6c42 0 85 6 128 6c25 0 26 -12 26 -23c0 -18 -13 -18 -23 -19c-49 -4 -58 -45 -58 -97v-422c0 -52 9 -93 58 -97c10 -1 23 -1 23 -19c0 -11 -1 -23 -26 -23c-43 0 -85 6 -128 6s-85 -6 -128 -6h-79
c-43 0 -85 6 -127 6s-84 -6 -127 -6h-79c-43 0 -85 6 -128 6s-85 -6 -128 -6c-25 0 -26 12 -26 23c0 18 13 18 23 19c49 4 58 45 58 97v422c0 52 -9 93 -58 97c-10 1 -23 1 -23 19c0 11 1 23 26 23c43 0 86 -6 128 -6c41 0 82 6 124 6c24 0 26 -14 26 -23
c0 -19 -17 -18 -23 -19c-45 -5 -54 -44 -54 -97z" />
    <glyph glyph-name="afii10043" unicode="&#x429;" horiz-adv-x="1039" 
d="M251 561v-474c0 -33 9 -38 25 -38h130c22 0 33 1 33 33v479c0 8 0 17 -1 25c-1 15 -4 67 -53 72c-6 1 -23 0 -23 19c0 9 2 23 26 23c42 0 84 -6 125 -6s82 6 123 6c25 0 26 -12 26 -23c0 -18 -13 -18 -23 -19c-47 -5 -54 -49 -54 -97v-474c0 -35 15 -38 26 -38h130
c36 0 32 19 32 33v479v25c-1 56 -39 71 -53 72c-7 1 -23 -1 -23 19c0 11 1 23 26 23c41 0 81 -6 121 -6c43 0 86 6 129 6c8 0 27 0 27 -23c0 -19 -17 -19 -23 -19c-47 -3 -58 -41 -58 -97v-436c0 -32 1 -74 55 -74h12c19 0 34 7 34 -16c0 -4 0 -13 -5 -72l-6 -72
c-5 -60 -10 -77 -30 -77s-23 17 -24 32l-3 31c-7 75 -17 93 -24 102c-25 30 -84 21 -138 21h-150c-43 0 -85 6 -127 6c-43 0 -86 -6 -129 -6h-79c-43 0 -85 6 -127 6s-84 -6 -127 -6c-8 0 -27 0 -27 23c0 19 17 19 24 19c46 3 57 41 57 97v422c0 56 -11 94 -57 97
c-7 0 -24 0 -24 19c0 23 19 23 27 23c43 0 85 -6 127 -6c41 0 82 6 123 6c8 0 27 0 27 -23c0 -19 -17 -18 -24 -19c-44 -4 -53 -45 -53 -97z" />
    <glyph glyph-name="afii10044" unicode="&#x42a;" horiz-adv-x="695" 
d="M346 561v-115c0 -29 9 -31 31 -27c29 5 45 10 88 10c200 0 214 -163 214 -218c0 -63 -25 -215 -233 -215c-58 0 -117 10 -175 10c-43 0 -86 -6 -130 -6c-25 0 -26 12 -26 23c0 18 13 18 23 19c52 4 58 45 58 97v493c0 12 0 19 -25 19c-52 0 -70 4 -123 -107
c-7 -14 -16 -35 -35 -35c-10 0 -17 8 -17 24c0 19 11 47 22 98c11 48 13 113 41 113c6 0 15 -3 17 -18s1 -26 28 -26h300c8 0 27 0 27 -23c0 -19 -17 -19 -23 -19c-50 -2 -62 -37 -62 -97zM346 347v-177c0 -73 -3 -134 82 -134s97 107 97 174c0 136 -64 175 -110 175
c-64 0 -69 -22 -69 -38z" />
    <glyph glyph-name="afii10045" unicode="&#x42b;" horiz-adv-x="924" 
d="M105 139v422c0 27 4 92 -57 97c-11 1 -24 0 -24 19c0 24 22 23 27 23c43 0 86 -6 129 -6c44 0 88 6 133 6c8 0 27 0 27 -23c0 -19 -17 -19 -24 -19c-54 -2 -61 -48 -61 -97v-115c0 -15 -3 -33 30 -27c27 5 46 10 89 10c200 0 214 -163 214 -218c0 -96 -53 -215 -233 -215
c-59 0 -117 10 -175 10c-43 0 -86 -6 -129 -6c-25 0 -26 12 -26 23c0 20 16 19 23 19c61 4 57 72 57 97zM255 347v-177c0 -73 -3 -134 81 -134c75 0 98 84 98 174c0 136 -62 175 -110 175c-69 0 -69 -26 -69 -38zM669 139v422c0 39 -4 94 -58 97c-8 0 -24 1 -24 19
c0 24 21 23 27 23c44 0 87 -6 130 -6s86 6 129 6c8 0 27 0 27 -23c0 -19 -17 -19 -24 -19c-46 -3 -57 -41 -57 -97v-422c0 -56 11 -94 57 -97c7 0 24 0 24 -19c0 -23 -19 -23 -27 -23c-43 0 -86 6 -129 6s-86 -6 -130 -6c-25 0 -26 12 -26 23c0 20 16 19 23 19
c54 3 58 58 58 97z" />
    <glyph glyph-name="afii10046" unicode="&#x42c;" horiz-adv-x="612" 
d="M105 139v422c0 27 4 92 -57 97c-11 1 -24 0 -24 19c0 24 22 23 27 23c43 0 86 -6 129 -6c44 0 88 6 133 6c8 0 27 0 27 -23c0 -19 -17 -19 -24 -19c-54 -2 -61 -48 -61 -97v-115c0 -15 -3 -33 30 -27c27 5 46 10 89 10c200 0 214 -163 214 -218c0 -96 -53 -215 -233 -215
c-59 0 -117 10 -175 10c-43 0 -86 -6 -129 -6c-25 0 -26 12 -26 23c0 20 16 19 23 19c61 4 57 72 57 97zM255 347v-177c0 -73 -3 -134 81 -134c75 0 98 84 98 174c0 136 -62 175 -110 175c-69 0 -69 -26 -69 -38z" />
    <glyph glyph-name="afii10047" unicode="&#x42d;" horiz-adv-x="593" 
d="M314 397h53c40 0 41 20 40 37c-4 134 -80 241 -185 241c-39 0 -79 -16 -105 -63l-22 -39c-9 -16 -16 -36 -33 -36c-25 0 -18 38 -15 55l7 46c7 46 8 47 27 53c41 14 77 24 146 24c33 0 334 0 334 -353c0 -236 -144 -377 -334 -377c-84 0 -131 25 -160 42
c-38 22 -37 42 -39 73l-3 45c-2 24 -7 52 15 52c15 0 20 -12 26 -26l13 -30c28 -64 63 -116 142 -116c176 0 183 241 186 287c2 40 -11 45 -24 45h-88c-20 0 -52 -4 -66 -47l-12 -37c-3 -10 -5 -34 -22 -34c-8 0 -21 3 -19 43c3 59 9 111 7 161c-1 26 -6 52 16 52
c13 0 18 -7 20 -15l9 -28c17 -54 46 -55 86 -55z" />
    <glyph glyph-name="afii10048" unicode="&#x42e;" horiz-adv-x="1012" 
d="M276 395h82c11 162 119 320 311 320c177 0 311 -156 311 -360c0 -267 -170 -370 -314 -370c-170 0 -310 152 -310 361h-76c-25 0 -25 -4 -25 -28v-179c0 -55 11 -93 57 -95c7 0 24 0 24 -19c0 -8 -2 -25 -27 -25c-44 0 -86 6 -129 6s-86 -6 -130 -6c-25 0 -26 17 -26 25
c0 20 16 19 23 19c49 2 58 45 58 95v422c0 51 -9 94 -58 97c-7 0 -23 -1 -23 19c0 11 1 23 26 23c44 0 87 -6 130 -6s86 6 129 6c8 0 27 0 27 -23c0 -19 -17 -19 -24 -19c-46 -3 -57 -41 -57 -97v-139c0 -12 0 -27 21 -27zM680 25c101 0 146 147 146 296
c0 213 -74 354 -170 354c-91 0 -146 -123 -146 -295c0 -198 67 -355 170 -355z" />
    <glyph glyph-name="afii10049" unicode="&#x42f;" horiz-adv-x="619" 
d="M364 139v171c0 25 -11 24 -16 24h-10c-30 0 -47 -53 -59 -83l-94 -227c-7 -16 -10 -22 -22 -24c-5 -1 -11 0 -16 0c-23 2 -45 6 -68 6c-24 0 -48 -6 -72 -6c-9 0 -23 2 -23 23c0 15 13 17 19 18c30 4 37 24 57 69l65 148c14 31 37 80 98 90v3c-61 3 -155 37 -155 163
c0 174 127 186 193 186c90 0 78 -6 163 -6c48 0 96 6 144 6c6 0 27 1 27 -23c0 -16 -13 -18 -20 -19l-8 -1c-49 -6 -53 -52 -53 -96v-422c0 -56 11 -94 58 -97c6 0 23 0 23 -19c0 -23 -19 -23 -27 -23c-43 0 -86 6 -129 6s-86 -6 -130 -6c-25 0 -26 12 -26 23
c0 18 13 18 23 19c49 4 58 45 58 97zM364 415v180c0 47 -19 55 -47 55c-81 0 -96 -77 -96 -135c0 -63 22 -138 119 -138c17 0 24 3 24 38z" />
    <glyph glyph-name="afii10065" unicode="&#x430;" horiz-adv-x="498" 
d="M415 399l-5 -264c0 -22 -1 -57 22 -57c11 0 21 8 27 13c11 9 15 11 18 11c4 0 15 2 15 -14c0 -14 -8 -27 -26 -48c-22 -25 -57 -52 -103 -52c-24 0 -61 9 -78 75c-3 11 -4 13 -5 13c-2 0 -5 -4 -15 -15c-24 -25 -84 -79 -142 -79c-56 0 -91 42 -91 97
c0 114 133 151 233 211c11 7 16 10 16 47l1 85c1 49 -20 63 -43 63c-41 0 -56 -36 -63 -56l-13 -36c-17 -48 -90 -58 -107 -58s-28 10 -28 26c0 20 9 58 62 105c47 42 100 61 167 61c161 0 159 -91 158 -128zM278 187l1 43c0 10 -4 14 -7 14s-8 -2 -16 -7
c-36 -22 -84 -45 -84 -104c0 -37 21 -52 42 -52c59 0 63 74 64 106z" />
    <glyph glyph-name="afii10066" unicode="&#x431;" horiz-adv-x="551" 
d="M306 499c151 0 221 -126 221 -241c0 -130 -89 -276 -247 -276c-173 0 -252 141 -252 300c0 119 26 273 102 371c67 86 141 94 211 99c61 4 93 5 107 17c10 8 10 17 23 17c6 0 17 -3 13 -35c-14 -123 -113 -132 -170 -137c-85 -8 -214 -27 -222 -208v-16c0 -8 2 -11 4 -12
c1 -1 3 0 4 0c4 2 7 6 23 26c54 65 105 95 183 95zM272 458c-52 0 -102 -61 -102 -214c0 -169 69 -223 115 -223c47 0 100 58 100 202c0 159 -51 235 -113 235z" />
    <glyph glyph-name="afii10067" unicode="&#x432;" horiz-adv-x="524" 
d="M94 139v231c0 81 -7 82 -52 94c-9 2 -22 6 -22 23c0 22 15 22 29 22c38 0 74 -4 111 -4c42 0 85 4 127 4c76 0 191 -11 191 -114c0 -74 -50 -110 -99 -114v-5c54 -3 121 -35 121 -119c0 -33 -10 -157 -198 -157c-47 0 -94 4 -140 4c-37 0 -75 -4 -113 -4
c-14 0 -29 0 -29 22c0 17 13 21 22 23c45 12 52 13 52 94zM227 391v-84c0 -5 1 -10 8 -10h44c16 0 71 2 71 93c0 67 -41 77 -64 77c-55 0 -59 -33 -59 -76zM227 248v-109c0 -74 12 -97 48 -97c71 0 88 73 88 115c0 20 -6 101 -92 101h-36c-7 0 -8 -5 -8 -10z" />
    <glyph glyph-name="afii10068" unicode="&#x433;" horiz-adv-x="426" 
d="M98 139v231c0 57 5 80 -48 94l-11 3c-3 1 -15 4 -15 20c0 24 18 22 29 22h246c70 0 66 0 73 15c6 15 8 24 24 24c20 0 22 -17 23 -25c1 -10 4 -56 4 -66l3 -85c1 -29 -9 -37 -21 -37c-44 0 -21 132 -110 132h-57c-4 0 -7 -1 -7 -7v-321c0 -90 9 -81 49 -94l12 -4
c3 -1 12 -5 12 -19c0 -23 -13 -22 -29 -22c-38 0 -74 4 -110 4c-37 0 -74 -4 -112 -4c-14 0 -29 0 -29 22c0 16 8 18 23 23c33 12 51 -4 51 94z" />
    <glyph glyph-name="afii10069" unicode="&#x434;" horiz-adv-x="521" 
d="M430 370v-244c0 -84 26 -84 51 -84h19c6 0 15 -1 15 -18c0 -13 -4 -75 -6 -95l-6 -75c-1 -11 -4 -30 -24 -30c-12 0 -19 6 -23 29l-8 52c-7 45 -14 65 -24 76c-22 24 -64 19 -115 19h-128c-43 0 -79 4 -100 -19c-9 -10 -18 -30 -27 -80l-8 -46c-2 -11 -5 -31 -26 -31
c-32 0 -27 50 -28 82l-3 88c-2 47 -5 47 19 48c34 3 63 4 91 96l6 20c31 103 36 169 36 242c0 16 0 49 -26 56l-29 8c-21 6 -22 16 -22 23c0 24 14 22 27 22h385c9 0 24 1 27 -13c1 -3 0 -6 0 -9c-1 -8 -1 -16 -22 -23l-25 -8c-30 -10 -26 -43 -26 -86zM297 106v297
c0 38 -2 64 -35 64h-19c-51 0 -54 -33 -56 -69c-7 -175 -42 -286 -69 -329c-2 -4 -5 -8 -5 -12c0 -14 30 -15 44 -15h97c22 0 43 2 43 64z" />
    <glyph glyph-name="afii10070" unicode="&#x435;" horiz-adv-x="481" 
d="M418 310h-231c-14 0 -20 3 -20 -39c0 -119 69 -210 150 -210c29 0 60 12 90 36c18 15 25 23 32 23c5 0 14 -4 14 -17s-6 -23 -13 -32c-37 -48 -105 -89 -183 -89c-124 0 -233 115 -233 276c0 159 102 269 241 269c119 0 192 -88 192 -175c0 -41 -23 -42 -39 -42zM206 349
h34c54 0 92 10 92 66c0 51 -29 72 -58 72c-27 0 -53 -14 -70 -35c-15 -18 -28 -52 -28 -80c0 -24 15 -23 30 -23z" />
    <glyph glyph-name="afii10072" unicode="&#x436;" horiz-adv-x="789" 
d="M550 272v-3c87 -1 121 -67 142 -108l41 -80c11 -21 31 -31 40 -35l5 -2c10 -4 19 -8 19 -24c0 -19 -15 -20 -22 -20c-24 0 -46 3 -69 3c-16 0 -32 -3 -49 -3c-27 0 -44 9 -61 58l-25 70c-29 81 -38 118 -82 118c-11 0 -14 -2 -14 -11v-96c0 -51 -5 -78 41 -91l11 -3
c9 -2 22 -6 22 -23c0 -22 -14 -22 -27 -22c-39 0 -76 4 -114 4s-76 -4 -114 -4c-12 0 -26 0 -26 22c0 17 13 21 22 23l11 3c46 13 41 40 41 91v96c0 9 -3 11 -14 11c-44 0 -53 -37 -82 -118l-25 -70c-17 -48 -33 -58 -63 -58c-16 0 -32 3 -47 3c-23 0 -45 -3 -69 -3
c-7 0 -22 1 -22 20s15 23 23 26l7 3c12 5 27 18 34 32l41 80c21 41 55 107 142 108v3c-52 26 -67 89 -81 133l-7 22c-2 8 -6 19 -16 19c-6 0 -9 -4 -13 -13l-7 -15c-7 -16 -17 -36 -45 -36c-35 0 -60 28 -60 69c0 36 24 76 75 76c34 0 71 -11 113 -117
c22 -57 46 -126 90 -126h14c5 0 12 1 12 13v73c0 90 -6 84 -44 94c-9 2 -22 6 -22 23c0 22 15 22 29 22c35 0 69 -4 103 -4s69 4 104 4c14 0 29 0 29 -22c0 -17 -13 -21 -22 -23c-38 -10 -44 -4 -44 -94v-73c0 -12 7 -13 12 -13h14c44 0 68 69 90 126c42 106 79 117 113 117
c51 0 75 -40 75 -76c0 -41 -25 -69 -60 -69c-28 0 -38 20 -45 36l-7 15c-4 9 -7 13 -13 13c-10 0 -14 -11 -16 -18l-7 -22c-14 -45 -28 -108 -81 -134z" />
    <glyph glyph-name="afii10073" unicode="&#x437;" horiz-adv-x="446" 
d="M170 304h23c28 0 73 6 73 93c0 48 -19 91 -66 91c-59 0 -77 -58 -100 -117c-5 -12 -10 -25 -27 -25c-33 0 -24 39 -23 63l4 65c1 20 -1 49 20 49c7 0 15 -4 17 -11s1 -18 9 -18c3 0 6 2 20 9c25 12 50 24 102 24c123 0 180 -62 180 -128c0 -61 -41 -111 -106 -115v-6
c41 -2 126 -25 126 -128s-91 -168 -217 -168c-73 0 -185 28 -185 110c0 45 22 88 51 88c30 0 36 -34 42 -59c19 -83 52 -100 85 -100c60 0 82 63 82 129c0 103 -60 109 -90 109h-27c-6 0 -12 4 -8 15l6 18c2 6 2 12 9 12z" />
    <glyph glyph-name="afii10074" unicode="&#x438;" horiz-adv-x="628" 
d="M226 370v-147c0 -7 0 -12 2 -12c3 0 6 1 12 7l162 180v6c0 46 -14 52 -39 60c-8 3 -23 7 -23 23c0 21 13 22 28 22c34 0 67 -4 100 -4c37 0 73 4 113 4c8 0 24 1 27 -13c1 -3 0 -6 0 -9c-1 -8 0 -16 -22 -23c-42 -13 -51 -4 -51 -94v-231c0 -90 9 -81 51 -94
c22 -7 21 -15 22 -23c0 -3 1 -6 0 -9c-3 -14 -19 -13 -27 -13c-39 0 -75 4 -112 4c-33 0 -67 -4 -101 -4c-15 0 -28 1 -28 22c0 16 15 20 23 23c36 12 39 15 39 94v176c0 7 0 12 -2 12c-3 0 -6 -1 -12 -7l-162 -179v-22c0 -61 9 -64 39 -74c8 -3 23 -7 23 -23
c0 -21 -13 -22 -28 -22c-34 0 -67 4 -100 4c-37 0 -73 -4 -113 -4c-8 0 -24 -1 -27 13c-1 3 0 6 0 9c1 8 0 16 22 23c42 13 51 4 51 94v231c0 90 -9 81 -51 94c-22 7 -21 15 -22 23c0 3 -1 6 0 9c3 14 19 13 27 13c39 0 75 -4 112 -4c33 0 67 4 101 4c15 0 28 -1 28 -22
c0 -16 -15 -20 -23 -23c-36 -12 -39 -15 -39 -94z" />
    <glyph glyph-name="afii10075" unicode="&#x439;" horiz-adv-x="628" 
d="M226 370v-147c0 -7 0 -12 2 -12c3 0 6 1 12 7l162 180v6c0 46 -14 52 -39 60c-8 3 -23 7 -23 23c0 21 13 22 28 22c34 0 67 -4 100 -4c37 0 73 4 113 4c8 0 24 1 27 -13c1 -3 0 -6 0 -9c-1 -8 0 -16 -22 -23c-42 -13 -51 -4 -51 -94v-231c0 -90 9 -81 51 -94
c22 -7 21 -15 22 -23c0 -3 1 -6 0 -9c-3 -14 -19 -13 -27 -13c-39 0 -75 4 -112 4c-33 0 -67 -4 -101 -4c-15 0 -28 1 -28 22c0 16 15 20 23 23c36 12 39 15 39 94v176c0 7 0 12 -2 12c-3 0 -6 -1 -12 -7l-162 -179v-22c0 -61 9 -64 39 -74c8 -3 23 -7 23 -23
c0 -21 -13 -22 -28 -22c-34 0 -67 4 -100 4c-37 0 -73 -4 -113 -4c-8 0 -24 -1 -27 13c-1 3 0 6 0 9c1 8 0 16 22 23c42 13 51 4 51 94v231c0 90 -9 81 -51 94c-22 7 -21 15 -22 23c0 3 -1 6 0 9c3 14 19 13 27 13c39 0 75 -4 112 -4c33 0 67 4 101 4c15 0 28 -1 28 -22
c0 -16 -15 -20 -23 -23c-36 -12 -39 -15 -39 -94zM466 695c-16 -44 -60 -142 -150 -142c-52 0 -114 39 -114 90c0 39 41 89 61 89c16 0 14 -32 16 -46c5 -43 29 -63 60 -63c42 0 73 46 85 72c7 15 12 35 23 35c9 0 22 -3 22 -15c0 -7 -1 -14 -3 -20z" />
    <glyph glyph-name="afii10076" unicode="&#x43a;" horiz-adv-x="545" 
d="M227 370v-73c0 -12 7 -13 12 -13h18c45 0 68 69 93 126c46 103 76 117 114 117c45 0 75 -30 75 -76c0 -40 -28 -69 -60 -69c-28 0 -40 22 -46 36l-7 15c-4 9 -7 13 -13 13c-10 0 -14 -11 -16 -19l-6 -19c-15 -47 -31 -110 -86 -136v-3c84 -1 118 -59 143 -108l41 -80
c11 -22 27 -29 40 -35c16 -7 24 -12 24 -26c0 -19 -14 -20 -24 -20c-23 0 -46 3 -68 3c-16 0 -32 -3 -48 -3c-32 0 -49 13 -66 58l-27 70c-24 62 -32 118 -79 118c-13 0 -14 -4 -14 -11v-96c0 -84 8 -81 41 -91c20 -6 33 -10 33 -26c0 -21 -13 -22 -28 -22
c-38 0 -75 4 -112 4s-75 -4 -113 -4c-15 0 -28 1 -28 22c0 16 15 21 23 23l14 4c43 12 37 41 37 90v231c0 97 -13 82 -51 94c-14 4 -23 9 -23 23c0 22 16 22 29 22c36 0 72 -4 107 -4c36 0 71 4 108 4c13 0 29 0 29 -22c0 -14 -9 -19 -23 -23c-33 -10 -43 5 -43 -94z" />
    <glyph glyph-name="afii10077" unicode="&#x43b;" horiz-adv-x="539" 
d="M313 135v264c0 54 -10 68 -47 68c-61 0 -59 -35 -59 -66c-2 -205 -62 -419 -158 -419c-26 0 -65 14 -65 71c0 55 36 70 59 70c17 0 29 -8 37 -13c9 -6 14 -10 20 -10c43 0 62 241 62 288c0 24 -1 68 -30 76l-29 8c-10 3 -20 5 -20 19c0 19 16 18 24 18h388
c13 0 24 1 24 -18c0 -16 -11 -16 -20 -19l-25 -8c-34 -11 -28 -55 -28 -90v-239c0 -35 -6 -79 28 -90l25 -8c9 -3 20 -3 20 -19c0 -18 -11 -18 -24 -18c-39 0 -77 4 -114 4c-39 0 -78 -4 -118 -4c-11 0 -24 0 -24 18c0 16 12 17 20 19l25 8c34 11 29 50 29 90z" />
    <glyph glyph-name="afii10078" unicode="&#x43c;" horiz-adv-x="687" 
d="M264 495l76 -236c2 -6 4 -9 6 -9s4 3 6 9l89 241c2 7 1 9 16 9c24 0 42 -4 61 -4c36 0 76 4 115 4c13 0 29 0 29 -22c0 -14 -9 -19 -23 -23c-39 -12 -53 -4 -51 -94l4 -231c2 -98 19 -83 53 -94c21 -7 22 -19 22 -23c0 -22 -12 -22 -25 -22c-39 0 -77 4 -114 4
c-38 0 -76 -4 -117 -4c-6 0 -22 -1 -25 13c-1 3 0 6 0 9c0 4 -1 18 22 23c41 10 53 11 51 92l-5 259v16c0 7 -1 10 -2 10s-3 -3 -5 -8l-123 -334c-14 -38 -22 -59 -30 -59s-17 20 -30 59l-107 326c-2 6 -4 8 -5 8s-2 -3 -2 -9l-12 -273c-3 -62 6 -73 37 -83
c29 -10 36 -12 36 -27c0 -22 -13 -22 -25 -22c-26 0 -51 4 -76 4c-21 0 -42 -4 -64 -4c-14 0 -26 0 -26 22c0 12 4 16 24 23c41 14 46 3 53 94l17 230c6 84 -20 85 -51 94c-23 7 -23 19 -23 23c0 23 14 23 24 23c28 0 55 -4 82 -4c61 0 15 4 104 4c4 0 9 0 14 -14z" />
    <glyph glyph-name="afii10079" unicode="&#x43d;" horiz-adv-x="612" 
d="M378 249h-144c-7 0 -8 -5 -8 -10v-100c0 -27 -4 -80 16 -87l19 -7c8 -3 23 -7 23 -23c0 -21 -13 -22 -28 -22c-34 0 -67 4 -100 4c-36 0 -71 -4 -109 -4c-8 0 -24 -1 -27 13c-1 3 0 6 0 9c1 8 1 16 22 23l25 8c30 10 26 43 26 86v231c0 43 4 76 -26 86l-25 8
c-21 7 -21 15 -22 23c0 3 -1 6 0 9c3 14 19 13 27 13c38 0 73 -4 108 -4c33 0 67 4 101 4c15 0 28 -1 28 -22c0 -16 -15 -20 -23 -23l-19 -7c-20 -7 -16 -60 -16 -87v-69c0 -5 1 -10 8 -10h144c7 0 8 5 8 10v69c0 26 3 81 -15 87l-20 7c-8 3 -23 7 -23 23c0 21 13 22 28 22
c34 0 67 -4 100 -4c36 0 71 4 109 4c8 0 24 1 27 -13c1 -3 0 -6 0 -9c-1 -8 -1 -16 -22 -23l-25 -8c-30 -10 -26 -43 -26 -86v-231c0 -43 -4 -76 26 -86l25 -8c21 -7 21 -15 22 -23c0 -3 1 -6 0 -9c-3 -14 -19 -13 -27 -13c-38 0 -73 4 -108 4c-33 0 -67 -4 -101 -4
c-15 0 -28 1 -28 22c0 16 15 20 23 23l20 7c18 6 15 61 15 87v100c0 5 -1 10 -8 10z" />
    <glyph glyph-name="afii10080" unicode="&#x43e;" horiz-adv-x="549" 
d="M269 -18c-161 0 -245 135 -245 269c0 158 109 276 253 276c161 0 248 -134 248 -264c0 -140 -92 -281 -256 -281zM281 21c45 0 101 46 101 213c0 185 -66 254 -115 254c-43 0 -100 -53 -100 -211c0 -230 81 -256 114 -256z" />
    <glyph glyph-name="afii10081" unicode="&#x43f;" horiz-adv-x="612" 
d="M386 139v288c0 17 -4 40 -32 40h-96c-28 0 -32 -23 -32 -40v-288c0 -27 -4 -80 16 -87l19 -7c8 -3 23 -7 23 -23c0 -21 -13 -22 -28 -22c-34 0 -67 4 -100 4c-36 0 -71 -4 -109 -4c-8 0 -24 -1 -27 13c-1 3 0 6 0 9c1 8 1 16 22 23l25 8c30 10 26 43 26 86v231
c0 43 4 76 -26 86l-25 8c-21 7 -21 15 -22 23c0 3 -1 6 0 9c3 14 18 13 27 13h518c9 0 24 1 27 -13c1 -3 0 -6 0 -9c-1 -8 -1 -16 -22 -23l-25 -8c-30 -10 -26 -43 -26 -86v-231c0 -43 -4 -76 26 -86l25 -8c21 -7 21 -15 22 -23c0 -3 1 -6 0 -9c-3 -14 -19 -13 -27 -13
c-38 0 -73 4 -108 4c-33 0 -67 -4 -101 -4c-15 0 -28 1 -28 22c0 16 15 20 23 23l20 7c18 6 15 61 15 87z" />
    <glyph glyph-name="afii10082" unicode="&#x440;" horiz-adv-x="560" 
d="M82 -90v417c0 27 0 73 -34 73h-17c-15 0 -23 9 -23 23c0 11 2 20 26 26c53 13 99 28 136 80c7 9 16 24 29 24c15 0 14 -20 14 -33l-1 -45c0 -8 -1 -20 10 -20c8 0 15 13 47 37c26 20 52 35 91 35c99 0 176 -110 176 -261c0 -176 -104 -284 -225 -284c-31 0 -52 8 -75 15
c-10 3 -21 6 -21 -20v-67c0 -54 -1 -73 51 -89c23 -8 39 -7 39 -28c0 -22 -14 -22 -27 -22c-41 0 -80 4 -120 4c-41 0 -81 -4 -123 -4c-16 0 -27 0 -27 22c0 9 2 17 23 23c44 12 51 13 51 94zM215 351v-218c0 -60 12 -112 67 -112c57 0 111 78 111 207
c0 158 -62 215 -113 215c-19 0 -65 -9 -65 -92z" />
    <glyph glyph-name="afii10083" unicode="&#x441;" horiz-adv-x="460" 
d="M427 419l-6 -40c-2 -12 -7 -36 -29 -36c-26 0 -38 34 -48 57l-16 37c-9 21 -21 47 -53 47c-55 0 -108 -84 -108 -192c0 -141 66 -233 160 -233c39 0 62 17 79 30c11 8 16 12 21 12s13 -1 13 -18s-10 -26 -20 -36c-41 -41 -105 -65 -171 -65c-157 0 -225 137 -225 262
c0 192 145 283 270 283c43 0 87 -11 117 -39c27 -25 20 -43 16 -69z" />
    <glyph glyph-name="afii10084" unicode="&#x442;" horiz-adv-x="455" 
d="M86 509h300c15 0 18 6 23 15c7 14 12 24 25 24c3 0 17 -1 17 -25c0 -5 -1 -11 -1 -16c-1 -14 -1 -27 -2 -41l-4 -93c-1 -20 -3 -38 -22 -38c-20 0 -23 19 -25 29c-18 96 -31 103 -62 103h-25c-7 0 -15 -1 -15 -15v-313c0 -41 -4 -76 27 -86l24 -8c10 -3 23 -5 23 -23
c0 -22 -14 -22 -27 -22c-38 0 -75 4 -112 4s-74 -4 -114 -4c-13 0 -27 -1 -27 22c0 8 1 16 22 23l25 8c30 10 26 46 26 86v312c0 10 1 16 -29 16c-29 0 -51 -6 -78 -79c-7 -19 -14 -53 -37 -53c-27 0 -23 27 -19 50l19 108c5 27 6 55 28 55c14 0 17 -13 20 -23
c4 -16 10 -16 20 -16z" />
    <glyph glyph-name="afii10085" unicode="&#x443;" horiz-adv-x="500" 
d="M219 401l76 -196c6 -14 10 -22 14 -22s9 7 14 22l68 192c2 6 6 20 6 32c0 26 -19 33 -46 37c-19 3 -29 4 -29 24c0 4 0 17 19 19h8c30 -2 61 -3 91 -3c22 0 44 3 66 3c4 0 22 0 22 -20c0 -18 -15 -20 -24 -21l-14 -2c-29 -4 -47 -52 -70 -112l-134 -355
c-22 -58 -35 -96 -49 -153c-16 -68 -22 -88 -77 -88c-68 0 -78 31 -78 65c0 74 42 70 70 70c7 0 14 -1 21 -2s14 -2 20 0s18 7 25 25l6 16c4 11 8 20 8 35c0 14 -9 39 -13 49l-142 357c-35 89 -49 92 -75 96c-11 2 -22 4 -22 21c0 6 2 19 20 19h8c39 0 78 -3 117 -3
c38 0 77 3 115 3c14 0 27 -2 27 -19c0 -23 -15 -25 -31 -27c-25 -3 -37 -10 -17 -62z" />
    <glyph glyph-name="afii10086" unicode="&#x444;" horiz-adv-x="764" 
d="M448 749v-243c0 -25 9 -22 20 -16c32 17 49 37 96 37c117 0 176 -125 176 -261c0 -178 -99 -284 -207 -284c-39 0 -55 12 -67 15c-15 4 -18 -2 -18 -20v-67c0 -89 12 -83 52 -94c9 -3 22 -6 22 -23c0 -22 -14 -22 -27 -22c-38 0 -75 4 -112 4c-38 0 -75 -4 -114 -4
c-13 0 -27 0 -27 22c0 17 13 20 22 23c40 11 52 5 52 94v93c0 38 -24 13 -50 -2c-28 -16 -51 -19 -70 -19c-114 0 -172 125 -172 261c0 177 95 284 210 284c29 0 37 -7 64 -16c13 -4 18 -3 18 21v72c0 34 -3 69 -30 73l-14 2c-10 1 -23 3 -23 23c0 18 8 20 39 26
c33 6 80 23 114 41c19 10 26 13 32 13c16 0 14 -18 14 -33zM316 123v253c0 59 -12 112 -59 112c-38 0 -91 -57 -91 -219c0 -180 55 -233 90 -233c22 0 60 16 60 87zM448 386v-253c0 -59 12 -112 59 -112c39 0 91 60 91 211c0 163 -46 241 -94 241c-3 0 -56 -2 -56 -87z" />
    <glyph glyph-name="afii10087" unicode="&#x445;" horiz-adv-x="539" 
d="M355 266l89 -150c44 -74 49 -71 79 -75c10 -2 24 -4 24 -22s-15 -19 -19 -19h-8c-39 1 -79 4 -118 4c-41 0 -82 -4 -123 -4c-15 0 -31 -1 -31 20c0 20 11 23 24 25c15 3 27 4 27 16c0 13 -6 25 -11 33l-50 88c-8 15 -14 25 -26 4l-16 -29c-11 -21 -39 -68 -39 -90
c0 -21 19 -24 28 -25c7 -2 22 -5 22 -23c0 -6 -3 -18 -17 -19h-10c-32 2 -64 4 -96 4c-22 0 -44 -4 -66 -4c-12 0 -25 1 -25 20c0 20 15 20 28 21c14 1 56 7 98 72l69 107c12 19 9 23 -1 39l-83 130c-30 46 -52 73 -75 77l-13 2c-10 2 -24 4 -24 22s14 19 19 19h9
c39 -1 77 -4 116 -4c41 0 81 4 122 4c16 0 30 -1 30 -19c0 -10 -2 -24 -22 -25c-7 0 -18 0 -18 -10c0 -8 4 -18 7 -23l50 -91c11 -20 14 -15 24 2l27 45c13 22 22 42 22 56c0 20 -15 22 -29 24l-6 1c-10 2 -15 13 -15 21c0 17 15 19 19 19h9c30 -1 60 -4 90 -4
c22 0 43 4 65 4s23 -11 23 -20c0 -20 -15 -19 -30 -22c-44 -8 -74 -43 -108 -93l-46 -68c-12 -18 -3 -26 5 -40z" />
    <glyph glyph-name="afii10088" unicode="&#x446;" horiz-adv-x="619" 
d="M227 370v-293c0 -20 12 -35 28 -35h104c16 0 28 15 28 35v293c0 27 4 80 -16 87l-20 7c-9 3 -22 6 -22 23c0 21 12 22 25 22c34 0 68 -4 102 -4c37 0 74 4 112 4c13 0 25 -1 25 -22c0 -17 -13 -20 -22 -23l-25 -8c-30 -10 -27 -48 -27 -86v-244c0 -76 21 -83 45 -84
c9 0 17 1 26 0c14 -1 15 -9 15 -18c0 -19 -5 -82 -6 -95l-6 -75c-2 -29 -21 -30 -24 -30c-17 0 -20 13 -23 29c-12 68 -16 109 -32 130c-23 31 -69 17 -115 17h-352c-13 0 -27 0 -27 22c0 17 13 20 22 23l25 8c33 10 27 47 27 86v231c0 39 6 76 -27 86l-25 8
c-9 3 -22 6 -22 23c0 21 12 22 25 22c37 0 74 -4 110 -4c34 0 68 4 104 4c12 0 25 0 25 -22c0 -11 -3 -16 -22 -23l-19 -7c-22 -8 -16 -53 -16 -87z" />
    <glyph glyph-name="afii10089" unicode="&#x447;" horiz-adv-x="560" 
d="M333 139v72v10c-1 3 -3 3 -7 0c-40 -24 -98 -34 -138 -34c-76 0 -130 58 -130 143v70c0 50 -3 53 -35 64c-11 4 -23 7 -23 23c0 22 16 22 29 22c32 0 64 -4 95 -4s62 4 96 4c9 0 25 2 28 -13c1 -3 0 -6 0 -9c0 -6 -1 -18 -22 -23c-27 -7 -35 -11 -35 -65v-42
c0 -34 1 -117 68 -117c17 0 45 4 61 23c14 17 13 34 13 54v73c0 65 -9 66 -39 74c-21 5 -22 17 -22 23c0 3 -1 6 0 9c3 15 19 13 28 13c36 0 69 -4 103 -4c35 0 71 4 108 4c13 0 29 0 29 -22c0 -14 -9 -19 -23 -23c-38 -12 -51 3 -51 -94v-231c0 -97 13 -82 51 -94
c14 -4 23 -9 23 -23c0 -22 -16 -22 -29 -22c-39 0 -77 4 -115 4s-75 -4 -116 -4c-9 0 -25 -2 -28 13c-1 3 0 6 0 9c0 7 1 17 22 23c65 17 59 36 59 94z" />
    <glyph glyph-name="afii10090" unicode="&#x448;" horiz-adv-x="845" 
d="M227 370v-288c0 -17 4 -40 32 -40h65c28 0 32 23 32 40v288c0 93 -7 89 -28 94c-9 2 -22 6 -22 23c0 22 15 22 29 22c29 0 58 -4 86 -4c29 0 59 4 89 4c14 0 29 0 29 -22c0 -17 -13 -21 -22 -23c-21 -5 -28 -1 -28 -94v-288c0 -17 4 -40 32 -40h65c28 0 32 23 32 40v288
c0 92 -7 89 -28 94c-4 1 -20 5 -21 23c0 3 -1 6 0 9c3 15 19 13 28 13c35 0 67 -4 99 -4c33 0 66 4 100 4c13 0 29 0 29 -22c0 -14 -9 -19 -23 -23c-38 -12 -51 3 -51 -94v-231c0 -97 13 -82 51 -94c14 -4 23 -9 23 -23c0 -24 -18 -22 -29 -22h-747c-11 0 -29 -2 -29 22
c0 14 9 19 23 23c38 12 51 -3 51 94v231c0 97 -13 82 -51 94c-14 4 -23 9 -23 23c0 22 16 22 29 22c34 0 67 -4 99 -4c33 0 65 4 100 4c9 0 25 2 28 -13c1 -3 0 -6 0 -9c-1 -18 -17 -22 -21 -23c-21 -5 -28 -2 -28 -94z" />
    <glyph glyph-name="afii10091" unicode="&#x449;" horiz-adv-x="850" 
d="M227 370v-288c0 -17 4 -40 32 -40h65c28 0 32 23 32 40v288c0 92 -7 89 -28 94c-4 1 -20 5 -21 23c0 3 -1 6 0 9c3 15 19 13 28 13c31 0 59 -4 87 -4c29 0 58 4 88 4c13 0 29 0 29 -22c0 -13 -9 -19 -22 -23c-21 -6 -28 -1 -28 -94v-288c0 -17 4 -40 32 -40h65
c28 0 32 23 32 40v288c0 93 -7 89 -28 94c-9 2 -22 6 -22 23c0 22 15 22 29 22c33 0 66 -4 98 -4c33 0 65 4 100 4c25 0 29 -7 29 -22c0 -6 -1 -18 -22 -23c-48 -12 -51 -14 -51 -94v-244c0 -76 18 -83 44 -84c9 0 17 1 26 0c14 -1 15 -9 15 -18c0 -19 -5 -82 -6 -95l-6 -75
c-2 -29 -21 -30 -24 -30c-17 0 -20 13 -23 29c-12 68 -16 109 -32 130c-23 31 -69 17 -115 17h-581c-11 0 -29 -2 -29 22c0 17 13 21 22 23c41 11 52 7 52 94v231c0 87 -11 83 -52 94c-9 2 -22 6 -22 23c0 22 15 22 29 22c34 0 66 -4 99 -4s66 4 100 4c14 0 29 0 29 -22
c0 -17 -13 -21 -22 -23c-21 -5 -28 -1 -28 -94z" />
    <glyph glyph-name="afii10092" unicode="&#x44a;" horiz-adv-x="560" 
d="M163 124v327c0 12 -5 16 -30 16c-26 0 -50 -4 -77 -79c-12 -32 -19 -53 -38 -53c-28 0 -21 34 -18 50l18 106c5 29 5 57 29 57c15 0 18 -16 19 -23c3 -15 12 -16 21 -16h253c17 0 29 2 29 -22c0 -6 -1 -18 -22 -23c-47 -12 -51 -13 -51 -94v-55c0 -13 -2 -15 12 -13
c24 4 39 8 72 8c95 0 164 -54 164 -151c0 -156 -152 -159 -189 -159c-42 0 -84 4 -125 4c-37 0 -74 -4 -112 -4c-14 0 -29 0 -29 22c0 17 13 20 23 23c49 12 51 26 51 79zM296 246v-119c0 -51 -3 -88 48 -88c25 0 58 16 58 114c0 102 -34 116 -63 116c-12 0 -23 -1 -35 -6
c-11 -5 -8 -8 -8 -17z" />
    <glyph glyph-name="afii10093" unicode="&#x44b;" horiz-adv-x="755" 
d="M94 139v231c0 73 0 81 -51 94c-10 3 -23 6 -23 23c0 22 15 22 29 22c38 0 75 -4 111 -4c37 0 73 4 112 4c9 0 25 2 28 -13c1 -3 0 -6 0 -9c0 -6 -1 -18 -22 -23c-42 -11 -51 -15 -51 -74v-75c0 -12 -2 -15 13 -13c23 4 38 8 71 8c115 0 164 -71 164 -154
c0 -77 -43 -156 -189 -156c-42 0 -84 4 -125 4c-37 0 -74 -4 -112 -4c-14 0 -29 0 -29 22c0 17 13 20 23 23c51 13 51 21 51 94zM227 246v-119c0 -38 -3 -88 51 -88c18 0 55 14 55 116c0 108 -38 114 -65 114c-11 0 -21 -2 -32 -6s-9 -7 -9 -17zM528 121v268
c0 35 10 59 -51 75c-21 5 -22 17 -22 23c0 15 4 22 29 22c38 0 74 -4 110 -4c37 0 74 4 112 4c14 0 29 0 29 -22c0 -17 -13 -20 -23 -23c-49 -12 -51 -26 -51 -79v-260c0 -54 2 -68 51 -80c10 -3 23 -6 23 -23c0 -22 -15 -22 -29 -22c-37 0 -74 4 -110 4
c-37 0 -73 -4 -112 -4c-25 0 -29 7 -29 22c0 6 1 18 22 23c61 16 51 40 51 76z" />
    <glyph glyph-name="afii10094" unicode="&#x44c;" horiz-adv-x="490" 
d="M93 139v231c0 81 -4 82 -51 94c-21 5 -22 17 -22 23c0 15 4 22 29 22c38 0 74 -4 110 -4c37 0 74 4 112 4c14 0 29 0 29 -22c0 -17 -13 -20 -23 -23c-53 -13 -51 -29 -51 -94v-55c0 -14 1 -15 13 -13c24 4 32 9 71 9c115 0 164 -71 164 -155c0 -146 -132 -156 -189 -156
c-41 0 -83 4 -124 4c-37 0 -73 -4 -112 -4c-25 0 -29 7 -29 22c0 6 1 18 22 23c47 12 51 13 51 94zM226 246v-119c0 -66 7 -88 51 -88s55 66 55 116c0 114 -44 114 -65 114c-11 0 -22 -1 -32 -6c-9 -4 -9 -7 -9 -17z" />
    <glyph glyph-name="afii10095" unicode="&#x44d;" horiz-adv-x="471" 
d="M44 404l4 70c2 29 2 36 5 41c3 7 9 10 15 10c12 0 15 -12 16 -18c1 -5 1 -13 9 -13c4 0 8 2 22 8c20 9 50 25 103 25c150 0 229 -135 229 -263c0 -126 -77 -282 -247 -282c-92 0 -180 41 -180 113c0 51 25 80 47 80c31 0 42 -52 49 -76c8 -28 24 -78 78 -78
c63 0 112 81 111 206v11c0 2 0 6 -4 6c-2 0 -4 -3 -17 -17c-10 -11 -26 -29 -48 -29c-13 0 -25 9 -36 16c-40 26 -48 33 -56 33c-18 0 -29 -12 -39 -15c-3 -1 -7 -1 -10 0c-6 2 -11 12 -11 23c0 15 13 26 24 36c13 12 42 39 68 39c18 0 37 -14 55 -27c24 -18 36 -25 46 -25
c21 0 24 18 24 40c0 88 -51 170 -108 170c-53 0 -82 -67 -103 -117c-5 -11 -10 -23 -26 -23c-28 0 -21 35 -20 56z" />
    <glyph glyph-name="afii10096" unicode="&#x44e;" horiz-adv-x="839" 
d="M235 247c-9 0 -8 -3 -8 -10v-98c0 -30 -6 -78 21 -87l22 -7c21 -7 21 -15 22 -23c0 -3 1 -6 0 -9c-3 -14 -19 -13 -27 -13c-38 0 -73 4 -108 4c-36 0 -72 -4 -109 -4c-15 0 -28 1 -28 22c0 16 15 20 23 23l25 8c30 10 26 43 26 86v231c0 43 4 76 -26 86l-25 8
c-8 3 -23 7 -23 23c0 21 13 22 28 22c37 0 73 -4 108 -4c36 0 71 4 109 4c8 0 24 1 27 -13c1 -3 0 -6 0 -9c-1 -8 -1 -16 -22 -23l-22 -7c-27 -9 -21 -57 -21 -87v-71c0 -7 -1 -10 8 -10h90c16 149 124 238 248 238c160 0 242 -142 242 -264c0 -142 -91 -281 -253 -281
c-132 0 -240 112 -239 265h-88zM579 21c44 0 94 62 94 215c0 209 -77 252 -113 252c-46 0 -95 -65 -95 -204c0 -238 82 -263 114 -263z" />
    <glyph glyph-name="afii10097" unicode="&#x44f;" horiz-adv-x="518" 
d="M292 139v76c0 6 -1 12 -15 12h-4c-25 0 -31 -16 -37 -29l-73 -155c-11 -23 -16 -43 -51 -43c-13 0 -25 4 -38 4c-23 0 -46 -4 -69 -4c-25 0 -25 13 -25 23c0 20 14 19 23 21c19 3 25 14 32 26l60 112c11 21 27 54 72 62v3c-56 6 -111 43 -111 117c0 72 37 145 144 145
c77 0 71 -4 161 -4c36 0 72 4 110 4c13 0 27 1 27 -22c0 -22 -11 -15 -47 -31c-29 -12 -26 -34 -26 -86v-231c0 -52 -3 -74 26 -86c36 -16 47 -9 47 -31c0 -23 -14 -22 -27 -22c-37 0 -72 4 -108 4c-35 0 -70 -4 -106 -4c-13 0 -27 0 -27 22c0 25 24 21 42 30
c20 10 20 29 20 87zM292 277v140c0 42 -2 50 -35 50c-51 0 -68 -46 -68 -101c0 -98 58 -102 68 -102h23c5 0 12 1 12 13z" />
    <glyph glyph-name="Euro" unicode="&#x20ac;" 
d="M457 571h-22c-9 62 -45 91 -97 91c-80 0 -112 -88 -122 -237h197l-17 -47h-181v-31v-33h158l-17 -46h-140c7 -149 49 -230 124 -230c45 0 85 26 94 89h23l-6 -90c-24 -29 -62 -51 -145 -51c-144 0 -213 98 -228 282h-62l16 46h41c-1 10 -1 25 -1 35v29h-56l16 47h43
c18 187 80 290 231 290c87 0 125 -25 145 -50z" />
    </font>
</defs>
</svg>
