<?xml version="1.0" standalone="no"?>
<!DOCTYPE svg PUBLIC "-//W3C//DTD SVG 1.1//EN" "http://www.w3.org/Graphics/SVG/1.1/DTD/svg11.dtd" >
<svg xmlns="http://www.w3.org/2000/svg" xmlns:xlink="http://www.w3.org/1999/xlink" version="1.1">
<metadata>
Created by FontForge 20190801 at Fri May 14 16:58:03 2004
 By Jimmy Wärting
Copyright (c) 1990-1996 ParaGraph. All Rights Reserved. ITC Garamond is a registered trade mark of International Typeface Corporation.
</metadata>
<defs>
<font id="GaramondNarrowC-BoldItalic" horiz-adv-x="600" >
  <font-face 
    font-family="GaramondNarrowC"
    font-weight="700"
    font-style="italic"
    font-stretch="semi-condensed"
    units-per-em="1000"
    panose-1="0 0 8 6 0 0 0 0 0 0"
    ascent="632"
    descent="-368"
    x-height="527"
    cap-height="700"
    bbox="-340 -368 1056 909"
    underline-thickness="50"
    underline-position="-100"
    slope="-13.33"
    stemh="35"
    stemv="128"
    unicode-range="U+0020-2122"
  />
<missing-glyph horiz-adv-x="233" 
 />
    <glyph glyph-name=".notdef" horiz-adv-x="233" 
 />
    <glyph glyph-name="space" unicode=" " horiz-adv-x="233" 
 />
    <glyph glyph-name="space" unicode="&#xa0;" horiz-adv-x="233" 
 />
    <glyph glyph-name="exclam" unicode="!" horiz-adv-x="271" 
d="M263 533l-131 -305c-8 -18 -16 -36 -31 -36c-4 0 -15 3 -15 22c0 8 1 13 2 21l30 297c7 72 23 185 111 185c27 0 65 -20 65 -71c0 -50 -23 -93 -31 -113zM136 72c0 -51 -36 -90 -74 -90c-29 0 -64 23 -64 75c0 59 40 92 74 92c32 0 64 -30 64 -77z" />
    <glyph glyph-name="quotedbl" unicode="&#x22;" horiz-adv-x="428" 
d="M90 419l-2 229c0 27 0 100 72 100c33 0 60 -27 60 -81c0 -15 -3 -29 -7 -44l-60 -204c-7 -24 -24 -34 -35 -34c-10 0 -28 6 -28 34zM299 419l-2 229c0 28 1 100 71 100c29 0 60 -18 60 -81c0 -15 -2 -29 -6 -44l-61 -204c-8 -28 -25 -34 -34 -34c-10 0 -28 6 -28 34z" />
    <glyph glyph-name="numbersign" unicode="#" horiz-adv-x="534" 
d="M281 29h-65l51 187h-106l-51 -187h-64l51 187h-102l21 76h103l34 127h-102l21 76h102l51 187h64l-51 -187h106l51 187h65l-51 -187h102l-21 -76h-102l-34 -127h101l-21 -76h-102zM289 292l34 127h-106l-34 -127h106z" />
    <glyph glyph-name="dollar" unicode="$" horiz-adv-x="341" 
d="M22 209l3 -28c2 -15 10 -84 90 -80l38 204c-55 69 -94 108 -94 184c0 84 65 159 158 162l12 60h33l-11 -60c38 -4 86 -23 102 -42c4 -5 6 -9 6 -18c0 -12 -3 -19 -5 -36l-5 -39c-1 -4 -4 -21 -16 -21c-19 0 -19 23 -24 41l-8 30c-5 18 -20 49 -56 50l-32 -172
c53 -70 99 -114 99 -196c0 -72 -59 -173 -170 -183l-15 -83h-34l15 82c-110 3 -126 33 -126 58c0 10 1 20 2 47l2 41c0 8 1 27 17 27c17 0 18 -17 19 -28zM186 483l23 126c-27 -15 -40 -42 -40 -71c0 -18 5 -37 17 -55zM180 268l-29 -158c41 13 55 62 55 90
c0 23 -12 50 -26 68z" />
    <glyph glyph-name="percent" unicode="%" horiz-adv-x="779" 
d="M204 360c-78 0 -126 55 -126 143c0 124 92 212 184 212c73 0 124 -62 124 -152c0 -103 -80 -203 -182 -203zM201 393c63 0 101 168 101 234c0 44 -27 50 -36 50c-51 0 -100 -117 -100 -221c0 -20 0 -63 35 -63zM517 -18c-79 0 -126 55 -126 143c0 113 82 212 183 212
c61 0 124 -46 124 -152c0 -115 -88 -203 -181 -203zM514 15c53 0 100 133 100 234c0 44 -25 50 -35 50c-49 0 -101 -117 -101 -221c0 -29 6 -63 36 -63zM631 698h70l-552 -698h-70z" />
    <glyph glyph-name="ampersand" unicode="&#x26;" horiz-adv-x="621" 
d="M596 374l9 20c2 5 6 12 14 12c6 0 13 -6 13 -27c0 -53 -25 -127 -71 -152c-18 -10 -31 -11 -39 -14c-7 -2 -7 -6 -7 -15v-19c-4 -108 -132 -197 -266 -197c-151 0 -251 103 -251 230c0 132 103 201 188 231c-28 37 -35 80 -35 105c0 111 95 170 182 170
c67 0 149 -27 149 -98c0 -36 -20 -101 -44 -101c-13 0 -25 18 -37 33c-21 26 -46 63 -93 63c-44 0 -103 -36 -103 -112c0 -20 2 -36 16 -51c17 2 46 5 63 5c40 0 85 -10 85 -49c0 -13 -4 -42 -42 -42c-41 0 -89 26 -116 45c-68 -40 -79 -104 -79 -158
c0 -108 74 -193 188 -193c90 0 157 62 157 126c0 13 -3 34 -76 34c-16 0 -68 0 -98 -43l-10 -14c-4 -6 -7 -12 -14 -12c-3 0 -11 1 -11 20c0 71 64 147 153 154l64 5c58 5 95 8 111 44z" />
    <glyph glyph-name="quotesingle" unicode="'" horiz-adv-x="220" 
d="M90 419l-2 229c0 18 -3 100 74 100c31 0 58 -26 58 -81c0 -15 -3 -29 -7 -44l-60 -204c-7 -24 -24 -34 -35 -34c-10 0 -28 6 -28 34z" />
    <glyph glyph-name="parenleft" unicode="(" horiz-adv-x="439" 
d="M172 34c0 -168 66 -210 119 -228c6 -2 14 -4 14 -13c0 -7 -5 -17 -23 -17c-80 0 -226 100 -226 375c0 346 251 604 440 604c21 0 23 -8 23 -16s2 -15 -14 -19c-26 -6 -79 -8 -130 -53c-116 -104 -203 -455 -203 -633z" />
    <glyph glyph-name="parenright" unicode=")" horiz-adv-x="376" 
d="M-121 -189l14 2c61 9 106 43 138 81c99 118 175 459 175 607c0 157 -70 214 -119 223c-6 1 -15 2 -15 14c0 8 3 17 23 17c31 0 65 -15 89 -31c82 -56 136 -185 136 -344c0 -262 -130 -463 -284 -555c-67 -40 -122 -49 -156 -49c-9 0 -24 1 -24 16c0 16 14 18 23 19z" />
    <glyph glyph-name="asterisk" unicode="*" horiz-adv-x="454" 
d="M339 537l-20 2c-6 1 -14 0 -24 -5c3 -13 9 -16 19 -21l28 -13c32 -15 68 -24 68 -61c0 -18 -11 -36 -35 -36c-38 0 -47 28 -62 66l-14 35c-4 10 -10 15 -19 16c-10 -8 -9 -15 -8 -25l3 -25c5 -39 9 -71 -10 -91c-7 -8 -18 -13 -28 -13c-20 0 -41 16 -41 40
c0 28 28 61 39 74l16 19c7 8 12 14 9 28c-20 4 -27 -4 -41 -16l-26 -22c-11 -9 -27 -21 -48 -21c-35 0 -41 26 -41 40c0 31 24 44 46 44c9 0 34 -4 42 -6l30 -6c11 -2 24 3 31 7c-4 11 -13 23 -23 28l-23 10c-25 11 -67 23 -67 56c0 23 22 40 39 40c38 0 49 -42 57 -65
l9 -27c4 -11 14 -24 26 -28c10 8 13 19 7 52l-3 17c-12 71 23 79 38 79c9 0 41 -3 41 -39c0 -27 -21 -49 -34 -63l-14 -15c-8 -8 -16 -21 -15 -37c19 -4 28 4 40 14l26 21c15 12 28 24 52 24c26 0 41 -18 41 -37c0 -18 -11 -49 -55 -49c-20 0 -20 5 -56 9z" />
    <glyph glyph-name="plus" unicode="+" 
d="M55 340v93h211v215h98v-215h212v-93h-212v-214h-98v214h-211z" />
    <glyph glyph-name="comma" unicode="," horiz-adv-x="271" 
d="M-15 -98l11 6c21 12 66 45 66 81c0 14 -9 20 -25 28c-12 6 -31 14 -31 49c0 48 41 77 72 77c34 0 65 -32 65 -85c0 -96 -85 -159 -114 -175l-23 -13c-23 -13 -30 -13 -33 -13c-6 0 -13 5 -13 17s8 18 25 28z" />
    <glyph glyph-name="hyphenminus" horiz-adv-x="272" 
d="M74 300h160l-21 -93h-159z" />
    <glyph glyph-name="period" unicode="." horiz-adv-x="293" 
d="M103 148c34 0 62 -29 62 -76c0 -52 -39 -90 -78 -90c-29 0 -59 24 -59 76c0 50 34 90 75 90z" />
    <glyph glyph-name="slash" unicode="/" horiz-adv-x="410" 
d="M-83 -253l-52 34l555 937l52 -34z" />
    <glyph glyph-name="zero" unicode="0" horiz-adv-x="538" 
d="M194 -18c-108 0 -168 106 -168 259c0 253 154 477 310 477c109 0 176 -122 176 -257c0 -249 -167 -479 -318 -479zM348 681c-115 0 -204 -445 -204 -577c0 -34 5 -85 51 -85c113 0 199 467 199 585c0 31 -1 77 -46 77z" />
    <glyph glyph-name="one" unicode="1" horiz-adv-x="573" 
d="M443 621l-119 -480c-4 -16 -10 -59 -10 -73c0 -16 10 -37 26 -39l20 -2c9 -1 22 -2 22 -19c0 -24 -11 -26 -21 -26c-11 0 -21 2 -31 3c-30 4 -61 7 -93 7c-70 0 -70 -10 -138 -10c-10 0 -21 0 -21 19c0 27 25 25 44 28c44 8 50 37 63 91l104 425c4 16 7 22 7 39
c0 8 1 19 -12 19c-7 0 -12 -3 -30 -10l-15 -6c-20 -8 -28 -9 -31 -9c-6 0 -18 1 -18 19c0 15 10 19 21 24c46 20 30 9 117 46l74 31c27 11 37 20 48 20c4 0 12 -1 12 -15c0 -13 -5 -24 -19 -82z" />
    <glyph glyph-name="two" unicode="2" horiz-adv-x="542" 
d="M244 0h-230c-17 0 -32 -2 -32 21c0 7 3 18 24 45c50 63 95 98 158 167l44 48c40 44 138 150 138 271c0 44 -12 110 -81 110c-54 0 -96 -48 -113 -82l-10 -20c-5 -9 -13 -27 -25 -27c-5 0 -15 4 -15 18s12 38 18 48l12 20c18 30 69 99 176 99c120 0 182 -79 182 -174
c0 -75 -34 -163 -161 -248l-39 -26c-67 -45 -115 -83 -167 -137c24 8 38 7 58 7h149c21 0 38 3 52 34c5 12 10 25 23 25c12 0 13 -12 13 -18c0 -20 -11 -39 -27 -111l-10 -44c-2 -10 -4 -19 -11 -25c-11 -9 -40 -1 -126 -1z" />
    <glyph glyph-name="three" unicode="3" horiz-adv-x="564" 
d="M174 623l14 19c19 26 66 76 150 76c86 0 140 -48 140 -122c0 -102 -77 -147 -201 -205l-45 -21c21 5 63 13 93 13c101 0 147 -83 147 -169c0 -151 -129 -321 -332 -321c-96 0 -106 53 -106 74c0 40 21 62 48 62c34 0 47 -26 58 -43l19 -29c6 -9 15 -25 33 -25
c48 0 146 114 146 270c0 76 -29 137 -101 137c-20 0 -38 -5 -58 -15s-29 -17 -38 -17c-13 0 -14 12 -14 17c0 27 23 34 94 76c45 26 130 76 130 180c0 62 -28 82 -57 82c-33 0 -65 -21 -89 -59l-13 -21c-5 -8 -8 -15 -18 -15c-5 0 -14 2 -14 17c0 12 8 31 14 39z" />
    <glyph glyph-name="four" unicode="4" horiz-adv-x="497" 
d="M229 220h-260l10 57l381 441h107l-102 -441h88l-13 -57h-88l-55 -238h-123zM243 277l76 329l-289 -329h213z" />
    <glyph glyph-name="five" unicode="5" horiz-adv-x="528" 
d="M77 373l81 281c7 26 12 28 39 31l287 33c20 2 14 -23 12 -29l-25 -96c-7 -25 -18 -30 -39 -33l-265 -32c-11 -1 -10 -1 -12 -9l-14 -49c14 2 29 3 43 3c185 0 235 -141 235 -234c0 -155 -110 -346 -414 -346h-34c-11 0 -23 3 -23 20c0 23 19 20 38 21l37 2
c162 9 257 137 257 249c0 83 -45 157 -155 154l-36 -1c-8 0 -17 0 -17 14c0 3 1 7 5 21z" />
    <glyph glyph-name="six" unicode="6" horiz-adv-x="533" 
d="M552 762l-32 -8c-242 -61 -356 -324 -356 -555c0 -139 49 -176 85 -176c55 0 104 132 104 255c0 56 -13 142 -74 145h-6c-25 -1 -16 -8 -28 -8c-4 0 -12 3 -12 14c0 23 42 46 87 46c115 0 173 -98 173 -196c0 -167 -124 -297 -252 -297c-91 0 -215 58 -215 263
c0 331 267 507 460 552l26 6c54 12 67 -3 67 -16c0 -19 -15 -22 -27 -25z" />
    <glyph glyph-name="seven" unicode="7" horiz-adv-x="538" 
d="M166 700h311c28 0 59 12 59 -10c0 -27 -81 -157 -359 -778h-42l264 586c9 21 21 41 -11 40l-277 -5c-30 -1 -24 34 -22 48l16 120c1 9 1 13 4 13c2 0 4 -2 6 -3c19 -11 32 -11 51 -11z" />
    <glyph glyph-name="eight" unicode="8" horiz-adv-x="523" 
d="M355 400c82 -56 109 -105 109 -168c0 -131 -114 -250 -252 -250c-120 0 -200 84 -200 189c0 60 20 152 173 188c-58 42 -87 83 -87 150c0 119 92 209 218 209c97 0 195 -50 195 -160c0 -105 -81 -144 -156 -158zM211 336c-97 -45 -99 -157 -99 -178
c0 -91 51 -135 103 -135c82 0 123 82 123 149c0 71 -51 119 -127 164zM324 424c60 27 92 95 92 151c0 67 -41 102 -82 102c-55 0 -110 -49 -110 -119c0 -59 39 -98 100 -134z" />
    <glyph glyph-name="nine" unicode="9" horiz-adv-x="533" 
d="M-19 -62l32 8c242 61 356 324 356 555c0 139 -49 176 -85 176c-55 0 -104 -132 -104 -255c0 -56 13 -142 74 -145h6c25 1 16 8 28 8c4 0 12 -3 12 -14c0 -23 -42 -46 -87 -46c-115 0 -173 98 -173 196c0 167 124 297 252 297c91 0 215 -58 215 -263
c0 -331 -267 -507 -460 -552l-26 -6c-54 -12 -67 3 -67 16c0 19 15 22 27 25z" />
    <glyph glyph-name="colon" unicode=":" horiz-adv-x="292" 
d="M165 72c0 -46 -37 -90 -78 -90c-27 0 -59 25 -59 76c0 58 41 90 74 90c40 0 63 -38 63 -76zM260 429c0 -47 -36 -90 -77 -90c-28 0 -60 26 -60 76c0 56 45 89 75 89s62 -29 62 -75z" />
    <glyph glyph-name="semicolon" unicode=";" horiz-adv-x="312" 
d="M34 -130l15 10c29 19 66 67 66 103c0 14 -2 15 -30 21c-20 4 -46 14 -46 59c0 47 35 85 76 85c44 0 70 -42 70 -91c0 -61 -41 -147 -105 -195l-28 -21c-11 -8 -30 -20 -39 -20s-13 9 -13 15c0 15 17 22 34 34zM280 430c0 -57 -45 -91 -78 -91c-34 0 -59 34 -59 76
c0 56 43 89 74 89c32 0 63 -29 63 -74z" />
    <glyph glyph-name="less" unicode="&#x3c;" 
d="M72 395l446 281v-80l-318 -201l318 -233v-80z" />
    <glyph glyph-name="equal" unicode="=" 
d="M58 424v92h521v-92h-521zM58 260v92h521v-92h-521z" />
    <glyph glyph-name="greater" unicode="&#x3e;" 
d="M584 363l-446 -281v80l318 201l-318 233v80z" />
    <glyph glyph-name="question" unicode="?" horiz-adv-x="366" 
d="M79 213l21 154c7 55 9 63 45 84c35 21 142 75 142 164c0 40 -22 60 -43 60c-31 0 -58 -37 -70 -55c-20 -30 -35 -56 -69 -56c-27 0 -30 22 -30 36c0 88 79 117 136 117c72 0 152 -51 152 -172c0 -128 -92 -195 -147 -231l-40 -26c-45 -29 -56 -61 -61 -86
c-2 -10 -4 -24 -20 -24c-11 0 -18 7 -17 20zM135 74c0 -47 -34 -92 -74 -92c-29 0 -63 27 -63 77c0 49 32 93 75 93c41 0 62 -42 62 -78z" />
    <glyph glyph-name="at" unicode="@" horiz-adv-x="792" 
d="M642 135l35 -44c-90 -82 -198 -94 -258 -94c-194 0 -351 156 -351 354c0 236 199 354 360 354c207 0 319 -154 319 -288c0 -182 -159 -269 -242 -269c-52 0 -59 29 -59 48c0 34 26 116 30 128c-77 -125 -150 -179 -219 -179c-66 0 -74 62 -74 98c0 150 164 277 274 277
c30 0 47 -9 62 -15c8 -3 6 -1 16 10c9 10 21 11 28 11h68c11 0 15 -2 12 -18c-3 -14 -5 -20 -8 -28l-36 -113c-8 -24 -33 -110 -33 -129c0 -15 7 -16 11 -16c47 0 114 108 114 194c0 153 -142 237 -267 237c-152 0 -300 -121 -300 -300c0 -173 141 -304 305 -304
c87 0 154 32 213 86zM309 250c0 -19 5 -34 25 -34c68 0 178 210 178 245c0 13 -5 32 -35 32c-75 0 -168 -162 -168 -243z" />
    <glyph glyph-name="A" unicode="A" horiz-adv-x="518" 
d="M118 241l-47 -85c-3 -5 -21 -42 -21 -71c0 -24 14 -32 40 -39l16 -4c8 -2 17 -6 17 -19c0 -7 0 -23 -21 -23c-35 0 -67 4 -98 4c-30 0 -60 -4 -94 -4c-9 0 -20 -1 -20 18c0 20 12 21 23 24c55 14 89 84 117 134l286 507c20 35 29 47 54 47c33 0 32 -20 34 -67l22 -524
c3 -83 14 -89 43 -93l8 -1c15 -2 15 -18 15 -23c0 -21 -14 -22 -24 -22c-40 0 -77 4 -114 4c-38 0 -76 -4 -117 -4c-21 0 -22 10 -22 20c0 9 2 21 15 23l17 3c48 9 42 50 41 97l-2 98h-168zM277 535l-133 -244h140z" />
    <glyph glyph-name="B" unicode="B" horiz-adv-x="553" 
d="M35 124l104 439c4 15 8 40 8 52c0 13 -4 34 -27 39c-17 3 -36 1 -36 23s18 23 26 23c47 0 89 -5 133 -5c26 0 53 1 80 2c31 2 61 3 92 3c64 0 148 -12 148 -129c0 -135 -120 -187 -221 -191l-1 -5c109 -1 186 -41 186 -169c0 -184 -146 -206 -247 -206
c-65 0 -130 5 -193 5c-40 0 -79 -5 -122 -5c-8 0 -23 0 -23 22c0 19 13 22 30 23c30 4 47 11 63 79zM244 397h19c50 0 156 12 156 169c0 82 -51 89 -81 89c-34 0 -35 -14 -40 -33zM234 349l-41 -170c-7 -30 -14 -57 -14 -84c0 -19 1 -53 63 -53c76 0 137 76 137 185
c0 115 -70 122 -107 122h-38z" />
    <glyph glyph-name="C" unicode="C" 
d="M536 562l-2 37c-3 61 0 74 -39 74c-164 0 -325 -204 -325 -425c0 -140 75 -221 152 -221c94 0 137 95 161 153c4 10 13 29 27 29c6 0 16 -3 16 -20c0 -30 -7 -36 -12 -62l-10 -54c-4 -22 -3 -39 -29 -53c-48 -27 -135 -38 -191 -38c-157 0 -262 94 -262 271
c0 295 276 465 493 465c36 0 95 -7 95 -35c0 -9 -3 -21 -9 -47l-16 -65c-10 -39 -13 -56 -28 -56s-19 13 -21 47z" />
    <glyph glyph-name="D" unicode="D" horiz-adv-x="675" 
d="M35 124l104 439c4 15 8 39 8 52c0 33 -21 38 -36 40c-11 1 -27 3 -27 22c0 22 15 23 24 23c45 0 86 -5 127 -5c53 0 108 5 164 5c242 0 254 -214 254 -292c0 -142 -60 -266 -132 -333c-55 -51 -125 -75 -251 -75c-61 0 -122 5 -182 5c-41 0 -81 -5 -123 -5
c-10 0 -23 3 -23 22c0 9 1 21 30 24c24 2 45 3 63 78zM280 541l-84 -352c-6 -26 -14 -79 -14 -99c0 -17 7 -45 74 -45c185 0 249 290 249 426c0 91 -32 184 -141 184c-52 0 -61 -17 -84 -114z" />
    <glyph glyph-name="E" unicode="E" horiz-adv-x="549" 
d="M35 124l104 439c4 16 8 39 8 52c0 22 -8 33 -20 36l-16 4c-11 3 -26 2 -26 22c0 22 14 23 23 23c71 1 134 -5 200 -5c74 0 150 4 225 5c11 0 18 -1 18 -9c0 -5 -1 -8 -4 -20c-3 -16 -9 -31 -13 -46c-5 -17 -8 -34 -13 -51l-7 -24c-6 -21 -16 -21 -21 -21
c-11 0 -11 8 -13 17l-3 18c-12 70 -31 86 -80 86h-73c-8 0 -18 1 -23 -20l-54 -229h45c78 0 101 16 119 60l10 24c4 10 13 14 20 14c8 0 16 -4 16 -18c0 -5 -2 -18 -13 -63c-8 -31 -26 -101 -37 -166c-2 -10 -3 -24 -19 -24c-3 0 -16 -1 -17 22l-1 27c-3 71 -17 74 -57 74
h-78l-45 -187c-4 -15 -12 -58 -12 -78c0 -31 19 -36 63 -36c93 0 147 16 184 110c3 8 8 21 22 21c9 0 16 -6 16 -20c0 -13 -3 -26 -8 -45l-14 -59c-13 -57 -9 -57 -28 -57c-206 0 -187 5 -277 5c-57 0 -112 -5 -171 -5c-10 0 -23 3 -23 22c0 18 14 21 19 22l21 3
c36 5 44 39 53 77z" />
    <glyph glyph-name="F" unicode="F" horiz-adv-x="493" 
d="M35 124l104 439c4 16 8 38 8 52c0 58 -62 29 -62 62c0 22 14 23 23 23c45 0 86 -5 127 -5c99 0 204 11 302 5c9 -1 14 0 14 -9c0 -4 -1 -8 -4 -20c-3 -15 -9 -31 -13 -46c-5 -17 -8 -34 -13 -51l-7 -24c-3 -10 -5 -21 -20 -21c-12 0 -13 8 -14 17l-3 18
c-6 36 -15 86 -80 86h-73c-9 0 -18 0 -23 -20l-54 -229h45c77 0 101 16 119 60l10 24c4 11 12 14 19 14c9 0 23 -3 15 -35c-4 -15 -7 -31 -11 -46c-5 -20 -11 -39 -15 -59l-12 -56c-8 -35 -6 -75 -29 -75c-14 0 -18 13 -18 30v31c0 58 -26 62 -57 62h-78l-51 -214
c-4 -16 -8 -38 -8 -52c0 -21 5 -32 25 -36l21 -4c11 -2 24 -4 24 -22c0 -21 -15 -23 -23 -23c-47 0 -91 5 -135 5c-40 0 -80 -5 -123 -5c-10 0 -23 3 -23 22c0 9 1 21 30 24c24 2 45 3 63 78z" />
    <glyph glyph-name="G" unicode="G" horiz-adv-x="637" 
d="M365 71l26 113c4 16 8 38 8 52c0 13 -5 33 -18 36l-18 4c-11 2 -26 2 -26 22c0 22 13 23 23 23c45 0 86 -5 127 -5c39 0 78 5 122 5c8 0 24 -1 24 -22c0 -9 -5 -20 -20 -22l-21 -3c-36 -5 -45 -47 -52 -77l-35 -146c-8 -32 -9 -35 -27 -41c-61 -22 -145 -28 -178 -28
c-153 0 -278 107 -278 274c0 258 241 462 511 462c106 0 106 -32 106 -35c0 -6 -2 -13 -10 -47c-7 -30 -20 -81 -26 -103c-3 -10 -6 -18 -17 -18c-22 0 -20 26 -21 42l-2 42c-3 57 -1 74 -39 74c-105 0 -354 -139 -354 -441c0 -55 17 -204 153 -204c24 0 33 3 42 43z" />
    <glyph glyph-name="H" unicode="H" horiz-adv-x="710" 
d="M35 124l104 439c4 16 8 39 8 52s-5 33 -18 36l-18 4c-11 2 -26 2 -26 22c0 22 13 23 23 23c45 0 86 -5 127 -5c39 0 78 5 122 5c8 0 24 -1 24 -22c0 -9 -5 -20 -20 -22l-21 -3c-35 -5 -43 -41 -52 -77l-42 -176h242l38 163c4 16 8 39 8 52s-5 33 -18 36l-18 4
c-11 2 -26 2 -26 22c0 21 15 23 23 23c44 0 85 -5 127 -5c40 0 80 5 123 5c6 0 23 -1 23 -22c0 -12 -8 -21 -19 -22l-22 -3c-38 -5 -45 -49 -52 -77l-104 -439c-4 -16 -8 -39 -8 -52s5 -33 18 -36l18 -4c11 -2 26 -2 26 -22c0 -22 -13 -23 -23 -23c-45 0 -86 5 -127 5
c-39 0 -78 -5 -122 -5c-8 0 -24 1 -24 22c0 9 5 20 20 22l21 3c36 5 45 47 52 77l55 226h-243l-50 -213c-4 -16 -8 -39 -8 -52s5 -33 18 -36l18 -4c11 -2 26 -2 26 -22c0 -21 -15 -23 -23 -23c-44 0 -85 5 -127 5c-40 0 -80 -5 -123 -5c-6 0 -23 1 -23 22c0 12 8 21 19 22
l22 3c38 5 47 56 52 77z" />
    <glyph glyph-name="I" unicode="I" horiz-adv-x="332" 
d="M35 124l104 439c4 15 8 39 8 52c0 33 -21 38 -36 40c-11 1 -27 3 -27 22c0 22 15 23 23 23c46 0 86 -5 128 -5c40 0 80 5 122 5c10 0 23 -3 23 -22c0 -18 -14 -21 -19 -22l-22 -3c-34 -5 -43 -40 -52 -77l-104 -439c-4 -15 -8 -39 -8 -52c0 -33 21 -38 36 -40
c11 -1 27 -3 27 -22c0 -22 -15 -23 -23 -23c-46 0 -86 5 -128 5c-40 0 -80 -5 -122 -5c-10 0 -23 3 -23 22c0 18 14 21 19 22l22 3c38 5 47 56 52 77z" />
    <glyph glyph-name="J" unicode="J" horiz-adv-x="363" 
d="M38 -31l141 593c3 15 8 41 8 53c0 13 -5 33 -18 36l-18 4c-11 2 -26 2 -26 22c0 22 17 23 24 23c44 0 85 -5 126 -5c40 0 80 5 122 5c8 0 24 -1 24 -22c0 -12 -8 -21 -19 -22l-22 -3c-31 -4 -43 -38 -52 -77l-94 -395c-27 -115 -46 -212 -127 -305
c-69 -79 -134 -97 -181 -97c-101 0 -112 69 -112 98c0 36 24 74 68 74c49 0 55 -47 60 -76c4 -24 4 -46 24 -46c13 0 33 10 48 52c6 18 20 71 24 88z" />
    <glyph glyph-name="K" unicode="K" horiz-adv-x="606" 
d="M227 321l-43 -182c-3 -13 -8 -43 -8 -54c0 -13 5 -33 18 -36l18 -4c11 -2 26 -2 26 -22c0 -21 -15 -23 -23 -23c-44 0 -85 5 -127 5c-40 0 -80 -5 -123 -5c-6 0 -23 1 -23 22c0 12 8 21 19 22l22 3c38 5 47 56 52 77l104 439c4 16 8 39 8 52s-5 33 -18 36l-18 4
c-11 2 -26 2 -26 22c0 22 13 23 23 23c45 0 86 -5 127 -5c39 0 78 5 122 5c8 0 24 -1 24 -22c0 -9 -5 -20 -20 -22l-21 -3c-36 -5 -45 -47 -52 -77l-50 -206l139 135c34 33 119 117 119 133c0 14 -15 12 -27 13l-18 2c-10 1 -18 10 -18 25c0 19 12 21 24 22
c38 2 76 -6 114 -6c29 0 58 6 88 6c5 0 21 -1 21 -19c0 -8 -2 -24 -23 -28l-17 -3c-73 -13 -123 -64 -222 -163l-60 -60c12 -12 18 -24 29 -50l106 -250c25 -60 38 -75 71 -82c9 -2 21 -3 21 -22c0 -21 -13 -23 -21 -23c-26 0 -51 3 -76 3c-24 0 -48 0 -71 -2
c-9 -1 -18 -1 -28 -1c-11 1 -11 1 -20 23l-93 236c-16 40 -25 56 -49 62z" />
    <glyph glyph-name="L" unicode="L" horiz-adv-x="445" 
d="M35 124l104 439c4 16 8 39 8 52s-5 33 -18 36l-18 4c-11 2 -26 2 -26 22c0 22 13 23 23 23c45 0 86 -5 127 -5c39 0 78 5 122 5c8 0 24 -1 24 -22c0 -24 -23 -22 -41 -25c-31 -6 -40 -28 -52 -77l-98 -412c-4 -17 -12 -57 -12 -78c0 -35 18 -34 38 -35l25 -1
c49 -2 97 7 134 88l10 22c5 11 8 21 22 21c13 0 16 -15 16 -20c0 -18 -13 -70 -22 -104c-14 -54 -5 -57 -32 -57c-52 0 -93 2 -138 4c-33 2 -68 2 -102 2c-55 0 -107 -6 -164 -6c-10 0 -23 3 -23 22c0 18 14 21 19 22l22 3c38 5 47 56 52 77z" />
    <glyph glyph-name="M" unicode="M" horiz-adv-x="736" 
d="M34 145l121 418c3 11 13 40 13 54s-6 31 -19 34l-17 4c-11 2 -27 2 -27 22c0 22 15 23 23 23c133 4 65 -6 184 0c14 1 19 2 20 -29l12 -430l229 438c10 20 15 21 29 21c22 0 43 -2 63 -2c34 0 69 2 106 2c10 0 23 -3 23 -22c0 -18 -14 -21 -19 -22l-22 -3
c-35 -5 -45 -43 -52 -77l-87 -439c-3 -15 -7 -40 -7 -52c0 -26 11 -34 21 -36l18 -4c10 -2 23 -4 23 -22c0 -24 -19 -23 -27 -23c-43 0 -83 5 -123 5c-39 0 -77 -5 -119 -5c-9 0 -27 0 -27 22c0 11 8 21 19 22l13 1c44 3 54 48 61 79l94 435h-4l-266 -498
c-29 -54 -30 -56 -54 -56c-12 0 -26 1 -28 29c-1 10 0 19 0 29c0 12 -1 24 -1 36l-9 470l-4 1l-92 -335c-26 -93 -30 -118 -30 -132c0 -44 22 -52 44 -55l16 -2c9 -1 15 -10 15 -22c0 -23 -16 -24 -25 -24c-29 0 -55 4 -82 4c-29 0 -58 -4 -88 -4c-26 0 -26 12 -26 22
c0 8 2 20 17 24l13 3c27 6 52 5 78 96z" />
    <glyph glyph-name="N" unicode="N" horiz-adv-x="619" 
d="M53 193l87 370c7 30 8 36 8 39v13c0 7 0 32 -18 36l-18 4c-11 2 -26 2 -26 22c0 21 15 23 23 23c24 0 47 -3 70 -3c30 0 61 3 92 3c10 0 10 -1 14 -13l173 -468l78 327c5 21 11 58 11 72c0 27 -12 35 -35 38l-20 3c-7 1 -16 3 -16 19c0 22 17 22 23 22c30 0 59 -4 88 -4
c24 0 47 4 72 4c3 0 18 0 18 -17c0 -8 -2 -22 -23 -26l-18 -3c-39 -6 -46 -47 -58 -97l-126 -539c-3 -13 -4 -36 -30 -36c-19 0 -26 16 -33 34l-212 538c-9 -37 -7 -28 -13 -55l-67 -280c-8 -35 -22 -82 -22 -119c0 -22 2 -43 30 -51l11 -3c9 -3 24 -2 24 -21
c0 -25 -19 -25 -27 -25c-25 0 -47 5 -70 5c-25 0 -51 -5 -78 -5c-8 0 -23 1 -23 19c0 17 10 21 25 25l20 5c41 10 46 57 66 144z" />
    <glyph glyph-name="O" unicode="O" horiz-adv-x="687" 
d="M22 309c0 259 204 409 371 409c165 0 272 -141 272 -320c0 -243 -172 -416 -362 -416c-191 0 -281 168 -281 327zM170 214c0 -158 75 -187 119 -187c97 0 228 146 228 465c0 152 -66 181 -115 181c-126 0 -232 -222 -232 -459z" />
    <glyph glyph-name="P" unicode="P" horiz-adv-x="569" 
d="M222 297l-38 -160c-4 -15 -8 -39 -8 -52c0 -33 21 -38 36 -40c11 -1 27 -3 27 -22c0 -22 -15 -23 -24 -23c-46 0 -86 5 -127 5c-39 0 -78 -5 -122 -5c-8 0 -24 1 -24 22c0 9 5 20 20 22l21 3c36 5 45 47 52 77l104 439c7 29 8 37 8 39v13c-2 37 -20 38 -36 40
c-11 1 -26 3 -26 22c0 21 15 23 23 23c44 0 85 -5 127 -5c60 0 120 10 182 10c163 0 178 -118 178 -162s-15 -246 -314 -246h-59zM307 656l-73 -309h33c99 0 180 93 180 214c0 78 -45 99 -96 99c-5 0 -12 -1 -44 -4z" />
    <glyph glyph-name="Q" unicode="Q" horiz-adv-x="686" 
d="M277 -18c-161 16 -255 157 -255 327c0 257 203 409 374 409c161 0 268 -139 268 -320c0 -313 -234 -393 -296 -414c-43 -14 -55 -19 -120 -48c11 1 21 2 32 2c41 0 72 -8 114 -29c32 -16 54 -30 95 -30c52 0 74 26 91 51c7 10 15 27 28 27c5 0 14 -4 14 -18
c0 -26 -22 -67 -50 -100c-36 -42 -97 -92 -168 -92c-46 0 -80 22 -109 42c-66 46 -103 98 -151 98c-27 0 -44 -20 -59 -36c-21 -22 -38 -40 -65 -40c-20 0 -40 6 -40 36c0 20 6 56 92 72c93 23 146 38 205 63zM170 214c0 -118 48 -187 118 -187c99 0 228 146 228 465
c0 64 -12 181 -115 181c-130 0 -231 -221 -231 -459z" />
    <glyph glyph-name="R" unicode="R" horiz-adv-x="586" 
d="M220 290l-36 -153c-4 -16 -8 -39 -8 -52s5 -33 18 -36l18 -4c11 -2 26 -2 26 -22c0 -22 -13 -23 -23 -23c-45 0 -86 5 -127 5c-39 0 -78 -5 -122 -5c-8 0 -24 1 -24 22c0 9 5 20 20 22l21 3c36 5 45 47 52 77l104 439c4 16 8 39 8 52s-5 33 -18 36l-18 4
c-11 2 -26 2 -26 22c0 21 15 23 23 23c44 0 85 -5 127 -5c60 0 120 5 181 5c58 0 170 -8 170 -146c0 -109 -85 -187 -189 -211v-4c21 -11 18 -21 37 -80l44 -140c11 -35 18 -66 52 -74l13 -3c7 -2 19 -1 19 -21c0 -21 -14 -21 -20 -21c-37 0 -72 4 -107 4
c-17 0 -34 -4 -53 -4c-29 0 -31 10 -40 42l-56 198c-8 27 -12 54 -37 54c-5 0 -22 -3 -29 -4zM306 652l-74 -312c127 0 206 128 206 227c0 90 -72 90 -89 90c-15 0 -29 -1 -43 -5z" />
    <glyph glyph-name="S" unicode="S" horiz-adv-x="445" 
d="M36 160l3 -31c6 -64 43 -102 106 -102c78 0 120 60 120 123s-45 108 -79 151l-27 34c-47 60 -74 109 -74 179c0 141 107 204 210 204c63 0 130 -26 159 -53c6 -5 9 -10 9 -20c0 -12 -3 -23 -8 -46l-10 -50c-2 -11 -6 -28 -21 -28c-20 0 -21 29 -27 52l-11 39
c-15 53 -47 61 -76 61c-58 0 -90 -47 -90 -100c0 -52 38 -94 74 -139c54 -66 107 -130 107 -221c0 -94 -72 -231 -247 -231c-63 0 -172 20 -172 64c0 11 3 51 4 66l3 49c2 30 13 38 24 38c19 0 21 -21 23 -39z" />
    <glyph glyph-name="T" unicode="T" horiz-adv-x="544" 
d="M147 124l121 506c2 10 7 20 -15 20h-21c-63 0 -81 1 -131 -89c-4 -7 -13 -25 -27 -25c-11 0 -18 9 -18 22c0 9 4 19 14 53c34 114 38 142 61 142c19 0 15 -18 16 -28c1 -27 22 -25 55 -25h323c33 0 48 14 53 20l16 21c6 7 10 12 19 12c18 0 12 -23 10 -31
c-2 -7 -4 -15 -6 -22c-5 -20 -12 -39 -17 -59l-19 -75c-6 -22 -12 -30 -24 -30c-15 0 -16 13 -17 33v15v25c-2 42 -23 41 -46 41h-62c-16 0 -16 -8 -21 -27l-115 -486c-4 -16 -8 -39 -8 -52s5 -33 18 -36l18 -4c11 -2 26 -2 26 -22c0 -22 -13 -23 -23 -23
c-45 0 -86 5 -127 5c-39 0 -78 -5 -122 -5c-8 0 -24 1 -24 22c0 9 5 20 20 22l21 3c36 5 45 47 52 77z" />
    <glyph glyph-name="U" unicode="U" horiz-adv-x="632" 
d="M56 253l74 310c3 14 8 40 8 52c0 8 -2 32 -19 36l-17 4c-11 2 -27 2 -27 22c0 22 15 23 23 23c46 0 86 -5 128 -5c40 0 80 5 122 5c10 0 23 -3 23 -22c0 -18 -14 -21 -19 -22l-22 -3c-38 -5 -46 -52 -52 -77l-71 -303c-16 -67 -23 -92 -23 -128c0 -40 8 -115 113 -115
c156 0 184 164 214 289l54 227c3 13 11 55 11 72c0 30 -15 35 -42 39l-13 2c-7 1 -16 4 -16 19c0 22 17 22 23 22c30 0 59 -4 88 -4c23 0 47 4 71 4c5 0 19 0 19 -17c0 -10 -5 -23 -22 -26l-18 -3c-32 -5 -43 -26 -60 -97l-71 -299c-31 -129 -60 -276 -262 -276
c-186 0 -235 80 -235 162c0 43 12 83 18 109z" />
    <glyph glyph-name="V" unicode="V" horiz-adv-x="499" 
d="M121 32l-33 529c-2 31 0 86 -32 91l-13 2c-9 1 -21 2 -21 24c0 21 14 22 24 22c40 0 77 -4 114 -4c38 0 76 4 117 4c9 0 23 -1 23 -21c0 -11 -6 -20 -16 -22l-16 -3c-37 -7 -40 -27 -40 -63c0 -26 2 -55 4 -89l21 -309l198 351c9 17 26 47 26 71c0 27 -16 35 -25 37
l-16 3c-19 4 -36 0 -36 22s12 23 20 23c33 0 64 -4 95 -4c30 0 60 4 94 4c9 0 20 1 20 -18c0 -21 -12 -20 -23 -24l-14 -5c-41 -15 -76 -80 -104 -129l-274 -485c-13 -23 -28 -57 -62 -57c-20 0 -29 13 -31 50z" />
    <glyph glyph-name="W" unicode="W" horiz-adv-x="742" 
d="M269 192l97 177l-21 192c-7 66 -9 86 -26 91c-12 4 -30 1 -30 26c0 21 15 22 24 22c57 0 107 -4 158 -4c52 0 105 4 163 4c8 0 19 0 19 -20c0 -22 -15 -27 -25 -29l-17 -4c-25 -6 -35 -8 -61 -53l-65 -114l31 -271l198 371c16 30 19 38 19 51c0 17 -8 20 -26 23l-11 2
c-15 3 -18 15 -18 26c0 18 13 18 21 18c30 0 58 -4 85 -4c22 0 43 4 68 4c7 0 20 2 20 -18s-14 -21 -23 -24l-17 -6c-31 -11 -63 -55 -101 -128l-259 -493c-13 -25 -22 -49 -49 -49c-22 0 -27 17 -29 44l-23 271l-145 -266c-8 -15 -20 -49 -51 -49c-23 0 -30 15 -34 54
l-53 525c-4 44 -9 87 -32 91l-12 2c-7 1 -22 1 -22 24c0 21 16 22 24 22c40 0 77 -4 115 -4c31 0 61 4 94 4c21 0 22 -10 22 -20c0 -6 -1 -20 -15 -23l-13 -3c-21 -5 -26 -28 -26 -43c0 -11 3 -44 4 -54zM476 540l33 65c5 11 16 26 16 36c0 5 -4 13 -24 13h-14
c-18 0 -22 -9 -22 -26c0 -6 2 -28 4 -39z" />
    <glyph glyph-name="X" unicode="X" horiz-adv-x="628" 
d="M386 428l89 124c30 42 41 56 41 70c0 28 -24 28 -44 31c-16 3 -23 8 -23 24c0 23 19 23 28 23c35 0 70 -5 103 -5s64 5 102 5c10 0 20 -1 20 -21c0 -27 -26 -26 -55 -33c-34 -8 -51 -19 -97 -77l-149 -187l64 -185c32 -91 49 -145 91 -152l12 -2c11 -2 25 -4 25 -22
c0 -20 -17 -21 -25 -21c-53 0 -102 7 -151 7c-42 0 -84 -7 -128 -7c-9 0 -18 1 -18 18c0 14 2 23 27 28c14 2 45 7 45 38c0 9 -7 32 -10 43l-48 147l-98 -126c-19 -25 -48 -49 -48 -78c0 -11 1 -17 25 -23c11 -3 30 -3 30 -24s-16 -23 -26 -23c-36 0 -70 7 -104 7
c-33 0 -65 -7 -100 -7c-8 0 -22 1 -22 22c0 24 19 26 28 28l22 4c73 13 114 72 176 145l102 121l-79 238c-20 60 -32 89 -68 93l-18 2c-13 1 -19 10 -19 24c0 22 17 23 25 23c56 0 108 -9 161 -9c32 0 64 9 98 9c7 0 23 1 23 -22c0 -25 -16 -24 -33 -27l-17 -3
c-10 -2 -18 -13 -18 -27c0 -10 6 -28 11 -43z" />
    <glyph glyph-name="Y" unicode="Y" horiz-adv-x="506" 
d="M338 307l-41 -170c-4 -15 -8 -39 -8 -52s5 -33 18 -36l18 -4c11 -2 26 -2 26 -22c0 -22 -13 -23 -23 -23c-45 0 -86 5 -127 5c-39 0 -78 -5 -122 -5c-8 0 -24 1 -24 22c0 9 5 20 20 22l21 3c36 5 45 47 52 77l43 180l-90 297c-14 47 -19 44 -46 51l-12 3
c-10 2 -13 12 -13 23c0 21 20 22 26 22c40 0 79 -7 118 -7c42 0 82 7 127 7c8 0 20 -1 20 -19c0 -24 -18 -25 -34 -28l-19 -4c-13 -3 -18 -14 -18 -23c0 -5 1 -14 13 -55l60 -207l105 171c39 63 53 77 53 94c0 22 -20 22 -32 24l-18 3c-13 2 -16 10 -16 20c0 23 18 24 28 24
c30 0 57 -6 84 -6c29 0 58 6 88 6c6 0 21 0 21 -20c0 -22 -13 -24 -28 -27l-21 -5c-11 -3 -37 -11 -75 -70z" />
    <glyph glyph-name="Z" unicode="Z" horiz-adv-x="541" 
d="M-20 44l389 589c1 2 5 6 5 11c0 7 -4 6 -8 6h-42c-65 0 -142 2 -171 -59l-15 -32c-10 -21 -13 -26 -25 -26s-14 11 -14 18c0 11 6 33 13 71l9 47c3 15 4 26 26 30c6 1 12 1 18 1c58 0 118 -6 177 -5l219 5c4 0 14 0 14 -11c0 -10 -9 -20 -13 -27l-373 -577
c-2 -4 -9 -17 -9 -23c0 -8 8 -10 24 -10l62 1c112 2 140 8 177 99l6 15c4 9 7 20 21 20c8 0 18 -3 18 -21c0 -26 -12 -57 -19 -125c-1 -13 -1 -40 -20 -40c-20 0 -127 8 -235 5l-232 -6c-12 0 -16 6 -16 12c0 11 8 23 14 32z" />
    <glyph glyph-name="bracketleft" unicode="[" horiz-adv-x="359" 
d="M-27 -181l198 829c15 62 18 73 45 73h197c14 0 18 -14 18 -23c0 -23 -25 -21 -38 -21l-34 1c-41 1 -47 -18 -54 -46l-190 -797c-9 -39 -4 -47 28 -46l38 1c9 0 25 -1 25 -23c0 -17 -11 -21 -19 -21h-204c-12 0 -21 4 -21 18c0 7 1 14 11 55z" />
    <glyph glyph-name="backslash" unicode="\" horiz-adv-x="316" 
d="M194 -245l-96 953l54 8l96 -953z" />
    <glyph glyph-name="bracketright" unicode="]" horiz-adv-x="338" 
d="M315 648l-197 -829c-16 -69 -23 -73 -46 -73h-197c-14 0 -18 14 -18 23c0 23 25 21 38 21l34 -1c41 -1 47 18 54 46l191 797c6 26 11 47 -28 46l-39 -1c-9 0 -25 1 -25 23c0 13 6 21 20 21h203c12 0 21 -4 21 -18c0 -7 -1 -14 -11 -55z" />
    <glyph glyph-name="asciicircum" unicode="^" horiz-adv-x="521" 
d="M267 534l-139 -235h-96l235 419l234 -419h-96z" />
    <glyph glyph-name="underscore" unicode="_" horiz-adv-x="420" 
d="M-80 -281v74h420v-74h-420z" />
    <glyph glyph-name="grave" unicode="`" horiz-adv-x="262" 
d="M303 551l-203 130c-8 5 -27 17 -27 40c0 17 12 36 32 36c8 0 17 -2 26 -10l185 -160c9 -7 19 -16 19 -26c0 -8 -6 -17 -16 -17c-3 0 -7 1 -16 7z" />
    <glyph glyph-name="a" unicode="a" horiz-adv-x="555" 
d="M324 163l14 56l-4 1c-38 -80 -130 -238 -239 -238c-65 0 -81 68 -81 126c0 235 192 397 305 397c25 0 42 -6 59 -15l11 -6c2 -1 4 -1 5 -1c3 0 6 6 7 7l5 8c9 15 24 15 31 15h76c7 0 15 -1 15 -15c0 -13 -5 -27 -11 -49l-40 -156c-31 -122 -37 -161 -37 -183
c0 -16 7 -21 12 -21c17 0 41 40 61 71l7 11c3 5 6 7 12 7c8 0 9 -10 9 -15c0 -9 -5 -21 -12 -33l-10 -17c-28 -48 -107 -131 -172 -131c-15 0 -43 5 -43 52c0 29 13 102 20 129zM154 121c0 -24 10 -40 27 -40c8 0 40 1 101 101c35 58 97 178 97 245c0 26 -15 41 -34 41
c-95 0 -191 -235 -191 -347z" />
    <glyph glyph-name="b" unicode="b" horiz-adv-x="512" 
d="M278 717l-97 -404l4 -1c31 84 113 215 195 215c57 0 114 -47 114 -171c0 -201 -143 -374 -328 -374c-40 0 -144 7 -144 145c0 57 14 116 26 167l81 338c2 7 5 22 5 32c0 44 -57 13 -57 44c0 25 20 25 46 26l41 2c28 1 67 11 88 24l22 14c7 4 13 1 14 -3c1 -2 0 -4 0 -6
c-1 -5 0 -8 -2 -14c-6 -18 -4 -19 -8 -34zM136 67c0 -24 6 -50 31 -50c74 0 186 219 186 359c0 33 -7 61 -36 61c-69 0 -181 -263 -181 -370z" />
    <glyph glyph-name="c" unicode="c" horiz-adv-x="447" 
d="M334 427l-7 22c-5 17 -13 36 -33 36c-54 0 -135 -156 -135 -293c0 -87 36 -129 90 -129c41 0 92 23 134 83c5 7 11 19 21 19c6 0 13 -4 13 -13c0 -7 -6 -20 -9 -26c-29 -59 -124 -144 -235 -144c-96 0 -155 77 -155 194c0 199 156 351 326 351c114 0 113 -76 113 -88
c0 -37 -21 -64 -61 -64c-18 0 -47 6 -62 52z" />
    <glyph glyph-name="d" unicode="d" horiz-adv-x="553" 
d="M405 503l30 129c4 17 5 26 5 34c0 42 -57 0 -57 42c0 7 3 24 27 25l19 1c39 2 106 4 147 37c2 2 6 5 10 5c3 0 9 -2 9 -11c0 -10 -4 -19 -11 -49l-130 -552c-10 -44 -14 -58 -14 -71c0 -9 2 -17 11 -17c23 0 59 67 66 83c3 7 7 17 16 17c6 0 10 -4 10 -14
c0 -9 -4 -19 -9 -29c-43 -96 -105 -151 -167 -151c-57 0 -56 48 -56 69c0 23 4 50 8 68l23 112l-4 1c-44 -82 -135 -250 -239 -250c-46 0 -85 44 -85 151c0 211 190 394 328 394c16 0 39 -4 63 -24zM164 158c0 -29 9 -53 29 -53c60 0 195 255 195 339c0 27 -13 44 -35 44
c-91 0 -189 -219 -189 -330z" />
    <glyph glyph-name="e" unicode="e" horiz-adv-x="468" 
d="M376 146l7 8c2 2 4 4 8 4c6 0 12 -3 12 -12c0 -11 -9 -24 -15 -33c-52 -77 -110 -131 -206 -131c-132 0 -164 116 -164 190c0 194 160 355 316 355c93 0 128 -62 128 -122c0 -99 -113 -190 -300 -193c-2 -14 -3 -27 -3 -41c0 -112 65 -114 80 -114c62 0 99 45 137 89z
M166 250c89 4 168 79 168 192c0 35 -14 50 -31 50c-52 0 -119 -117 -137 -242z" />
    <glyph glyph-name="f" unicode="f" horiz-adv-x="374" 
d="M298 453l-81 -347c-42 -181 -92 -375 -273 -375c-61 0 -122 36 -122 105c0 56 38 79 69 79c38 0 61 -32 56 -92l-2 -22c-1 -15 4 -28 20 -28c53 0 73 123 99 232l106 448h-63c-6 0 -6 4 -5 7l6 26c1 5 4 6 8 6h63c35 160 142 273 251 273c64 0 106 -41 106 -94
c0 -60 -43 -78 -67 -78c-23 0 -63 16 -52 91c2 15 2 32 -14 32c-26 0 -59 -57 -95 -224h86c6 0 5 -5 4 -8l-4 -23c-1 -4 -2 -8 -7 -8h-89z" />
    <glyph glyph-name="g" unicode="g" horiz-adv-x="506" 
d="M503 441h-65c14 -20 28 -48 28 -88c0 -124 -114 -195 -213 -195c-23 0 -57 6 -85 17c-12 -8 -17 -21 -17 -29c0 -41 76 -55 126 -71c86 -28 175 -55 175 -170c0 -165 -203 -173 -244 -173c-107 0 -274 34 -274 154c0 81 65 110 153 121c-19 27 -24 43 -24 71
c0 33 15 70 72 115c-33 21 -78 64 -78 145c0 132 109 189 203 189c52 0 98 -18 125 -31c12 -5 17 -8 41 -8h88c3 0 8 0 6 -6l-10 -33c-1 -4 -1 -8 -7 -8zM285 491c-58 0 -104 -118 -104 -212c0 -71 38 -81 55 -81c46 0 98 79 98 207c0 65 -23 86 -49 86zM112 -22
c-41 -5 -61 -36 -61 -78c0 -45 30 -128 166 -128c80 0 111 35 111 76c0 81 -119 57 -216 130z" />
    <glyph glyph-name="h" unicode="h" horiz-adv-x="541" 
d="M3 49l139 583c4 16 5 24 5 31c0 27 -22 24 -32 25l-12 1c-12 1 -13 15 -13 19c0 3 -1 24 26 25l60 3c36 2 83 16 107 35c2 2 6 5 10 5s8 -3 8 -11c0 -9 -3 -17 -10 -48l-100 -428c114 221 200 238 238 238c20 0 94 -5 94 -156c0 -158 -100 -389 -258 -389
c-78 0 -86 60 -86 76c0 36 21 52 42 52c25 0 35 -29 38 -44c4 -21 1 -47 17 -47c38 0 103 298 103 361c0 14 -2 44 -25 44c-49 0 -124 -85 -227 -386c-14 -42 -21 -38 -37 -38h-78c-14 0 -14 10 -14 15c0 15 2 20 5 34z" />
    <glyph glyph-name="i" unicode="i" horiz-adv-x="304" 
d="M240 300l-43 -141c-11 -35 -12 -51 -13 -62c0 -3 -1 -5 0 -8s4 -8 10 -8c14 0 47 42 55 54l19 29c4 6 9 15 16 15c4 0 12 -2 12 -15c0 -10 -3 -15 -8 -23c-70 -120 -139 -159 -190 -159c-50 0 -58 40 -58 66c0 43 13 93 34 155l50 151c5 16 20 66 20 80c0 8 -4 16 -12 16
c-3 0 -21 -1 -59 -60c-10 -15 -21 -40 -36 -40c-8 0 -11 9 -11 15c0 3 1 9 9 24c23 42 93 138 181 138c37 0 62 -23 62 -68c0 -27 -8 -60 -38 -159zM267 737c34 0 63 -28 63 -77c0 -53 -35 -93 -77 -93c-37 0 -61 35 -61 77c0 60 38 93 75 93z" />
    <glyph glyph-name="j" unicode="j" horiz-adv-x="288" 
d="M18 -128l118 500c9 39 11 53 11 62c0 5 -1 16 -11 16s-26 -9 -72 -81c-5 -8 -13 -19 -23 -19c-8 0 -11 9 -11 15c0 3 1 9 9 24c52 94 130 138 181 138c29 0 56 -18 56 -69c0 -25 -9 -76 -15 -100l-81 -342c-20 -82 -57 -272 -225 -272c-80 0 -117 53 -117 93
c0 28 18 61 51 61c36 0 51 -33 65 -77c5 -14 10 -39 26 -39c3 0 9 0 15 7c11 13 11 34 23 83zM263 737c34 0 63 -28 63 -77c0 -53 -35 -93 -77 -93c-37 0 -61 35 -61 77c0 60 38 93 75 93z" />
    <glyph glyph-name="k" unicode="k" horiz-adv-x="513" 
d="M1 37l142 595c5 20 5 28 5 34c0 24 -21 21 -37 22c-19 1 -20 14 -20 20c0 16 11 24 26 25l60 3c36 2 83 16 107 35c2 2 6 5 10 5s8 -3 8 -11c0 -7 -2 -15 -10 -48l-91 -374l4 -1c54 115 128 185 200 185c48 0 98 -35 98 -103c0 -90 -79 -196 -238 -199v-3
c45 0 57 -37 77 -79c21 -46 34 -104 63 -104c14 0 29 8 29 33c0 20 -11 26 -20 31c-10 5 -23 16 -23 42c0 39 26 48 41 48c20 0 48 -18 48 -74c0 -69 -45 -137 -127 -137c-64 0 -91 30 -115 76c-21 42 -44 116 -53 147c-3 11 -6 13 -8 13c-4 0 -6 -10 -7 -16l-41 -170
c-8 -33 -17 -32 -34 -32h-80c-13 0 -17 9 -17 14c0 4 2 20 3 23zM184 238c113 -4 182 93 182 162c0 39 -19 46 -33 46c-57 0 -121 -135 -149 -208z" />
    <glyph glyph-name="l" unicode="l" horiz-adv-x="265" 
d="M16 113l123 519c3 12 5 24 5 34c0 20 -14 22 -31 22c-12 0 -26 1 -26 20c0 11 8 24 27 25l60 3c36 2 81 16 106 35l4 3c4 3 10 3 13 -1c5 -7 0 -17 -2 -27c-1 -3 -1 -7 -2 -10c-1 -6 -3 -13 -5 -19l-137 -580c-2 -9 -5 -17 -6 -26c-1 -6 -1 -12 -2 -18c0 -3 -1 -5 0 -8
c1 -4 5 -9 9 -9c22 0 58 66 67 83c2 5 8 17 16 17c4 0 10 -2 10 -14c0 -8 -5 -20 -8 -29c-21 -54 -87 -151 -167 -151c-39 0 -64 29 -64 74c0 19 5 37 10 57z" />
    <glyph glyph-name="m" unicode="m" horiz-adv-x="789" 
d="M24 37l65 273c4 15 22 94 22 115c0 7 -1 14 -7 14c-14 0 -47 -44 -59 -65c-4 -7 -13 -24 -25 -24c-5 0 -10 5 -10 16c0 8 4 17 11 29c31 52 100 132 168 132c23 0 51 -10 51 -60c0 -43 -11 -92 -15 -110l-14 -58l2 -1c72 196 153 229 204 229c59 0 65 -50 65 -87
c0 -43 -9 -93 -17 -130l-5 -24h4c20 48 108 241 227 241c62 0 66 -64 66 -88c0 -40 -9 -78 -19 -109c-6 -19 -13 -37 -19 -56l-50 -145c-4 -13 -12 -39 -12 -49c0 -12 7 -14 11 -14c22 0 53 45 72 71c6 8 13 18 20 18c5 0 11 -4 11 -14c0 -7 -4 -15 -7 -21
c-40 -76 -119 -138 -187 -138c-44 0 -56 39 -56 67c0 18 6 53 13 76l68 220c13 41 20 75 20 91c0 9 -2 21 -10 21c-46 0 -170 -269 -203 -401l-6 -24c-5 -18 -5 -32 -34 -32h-80c-13 0 -17 9 -17 14c0 4 2 20 3 23l43 181c8 32 37 158 39 206v15c0 9 -1 17 -9 17
c-45 0 -134 -202 -191 -406l-5 -18c-6 -20 -6 -32 -35 -32h-80c-13 0 -17 9 -17 14c0 4 1 9 4 23z" />
    <glyph glyph-name="n" unicode="n" horiz-adv-x="571" 
d="M38 17l62 264c9 39 24 115 24 131c0 9 -1 15 -9 15c-16 0 -36 -27 -68 -75c-10 -14 -15 -17 -18 -17c-4 0 -9 2 -11 8c-1 3 0 5 0 8c2 15 6 23 13 35c31 52 100 141 180 141c14 0 49 0 49 -62c0 -28 -3 -72 -22 -144l-13 -50h3c42 93 152 256 251 256c41 0 67 -31 67 -88
c0 -20 -3 -40 -7 -59c-8 -39 -20 -71 -32 -106l-49 -145c-11 -33 -12 -44 -12 -49c0 -13 6 -14 10 -14c22 0 52 39 72 71c5 8 12 18 22 18c5 0 11 -4 11 -13c0 -6 -3 -12 -8 -22c-30 -55 -102 -138 -188 -138c-34 0 -55 27 -55 67c0 35 7 56 13 76l68 220c4 12 11 42 11 52
c0 25 -9 26 -15 26c-57 0 -170 -178 -213 -374l-5 -23c-5 -24 -22 -26 -34 -26h-82c-5 0 -19 -1 -15 17z" />
    <glyph glyph-name="o" unicode="o" horiz-adv-x="546" 
d="M312 527c146 0 216 -130 216 -237c0 -146 -114 -308 -306 -308c-123 0 -204 92 -204 219c0 180 137 326 294 326zM321 492c-92 0 -162 -213 -162 -365c0 -91 34 -110 62 -110c72 0 166 166 166 368c0 88 -36 107 -66 107z" />
    <glyph glyph-name="p" unicode="p" horiz-adv-x="556" 
d="M-14 -118l135 572c-29 -9 -29 -8 -52 -15c-6 -2 -15 -4 -22 -2c-6 1 -5 6 -5 12c0 10 -1 26 12 30l16 5c20 6 43 12 62 16l24 101c5 22 13 27 33 29l76 8c29 3 25 -13 21 -29l-22 -93c50 10 79 11 103 11c71 0 171 -17 171 -178c0 -176 -112 -367 -276 -367
c-41 0 -85 9 -111 54l-33 -136c-9 -38 -11 -51 -11 -63c0 -39 33 -42 49 -45l21 -4c7 -1 15 -3 15 -19c0 -6 0 -22 -22 -22c-46 0 -92 10 -136 10c-47 0 -92 -10 -144 -10c-7 0 -20 1 -20 17c0 22 22 25 29 26c47 6 68 11 87 92zM254 473l-74 -316c-10 -42 -11 -62 -11 -71
c0 -51 39 -57 55 -57c89 0 173 194 173 347c0 97 -52 106 -87 106c-24 0 -45 -6 -56 -9z" />
    <glyph glyph-name="q" unicode="q" horiz-adv-x="544" 
d="M276 -106l70 281l-4 3c-94 -186 -187 -196 -222 -196c-19 0 -106 2 -106 136c0 202 200 409 357 409c70 0 73 -24 117 -24c12 0 24 8 48 35c6 6 12 15 20 15c7 0 14 -5 14 -17c0 -9 -6 -15 -13 -34c-30 -84 -28 -86 -35 -117l-121 -508c-3 -14 -7 -27 -7 -41
c0 -26 13 -34 43 -42c19 -6 28 -8 28 -26c0 -20 -13 -21 -23 -21c-47 0 -89 7 -131 7c-45 0 -91 -7 -140 -7c-19 0 -18 12 -18 18c0 15 1 20 40 27c47 9 63 23 83 102zM155 125c0 -39 16 -57 34 -57c82 0 220 277 220 378c0 36 -22 43 -33 43c-96 0 -221 -250 -221 -364z
" />
    <glyph glyph-name="r" unicode="r" horiz-adv-x="413" 
d="M12 37l65 272c8 33 22 97 22 116c0 7 -1 14 -7 14c-14 0 -49 -47 -60 -65c-4 -6 -14 -24 -24 -24c-4 0 -10 3 -10 13c0 12 5 22 11 32c32 51 103 132 168 132c43 0 47 -42 48 -60c0 -8 1 -16 0 -24c-1 -13 -4 -30 -17 -86l-19 -82l3 -1c38 106 116 253 196 253
c48 0 73 -42 73 -85c0 -49 -30 -101 -76 -101c-27 0 -47 18 -48 50c0 11 1 33 -14 33c-48 0 -144 -248 -180 -381l-3 -11c-5 -20 -6 -32 -35 -32h-80c-11 0 -16 7 -16 14c0 8 1 16 3 23z" />
    <glyph glyph-name="s" unicode="s" horiz-adv-x="400" 
d="M256 527c48 0 146 -18 146 -69c0 -83 -24 -92 -32 -92c-24 0 -45 39 -57 57c-24 35 -51 69 -81 69c-25 0 -37 -28 -37 -52c0 -52 32 -78 79 -124c45 -45 88 -88 88 -153c0 -102 -76 -181 -190 -181c-166 0 -174 81 -174 119c0 45 9 77 31 77c29 0 50 -44 72 -79
c27 -43 45 -82 85 -82c23 0 48 16 48 67c0 57 -47 102 -78 133c-52 52 -91 90 -91 162c0 75 57 148 191 148z" />
    <glyph glyph-name="t" unicode="t" horiz-adv-x="310" 
d="M125 492l30 128c5 23 12 29 36 29h81c19 0 15 -16 12 -28l-30 -129h85c8 0 6 -6 5 -11l-5 -21c-1 -3 -2 -7 -6 -7h-89l-74 -316c-4 -19 -8 -30 -8 -44c0 -7 1 -17 9 -17c23 0 60 65 68 83c2 5 7 17 16 17c4 0 9 -2 9 -14c0 -11 -2 -16 -8 -29c-12 -25 -74 -151 -167 -151
c-30 0 -63 17 -63 74c0 24 8 52 20 104l69 293h-68c-3 0 -9 0 -8 7l5 24c2 7 7 8 11 8h70z" />
    <glyph glyph-name="u" unicode="u" horiz-adv-x="571" 
d="M540 492l-62 -264c-25 -105 -24 -124 -24 -131c0 -9 1 -15 10 -15c16 0 47 44 54 54c11 17 21 38 31 38c6 0 12 -4 12 -16c0 -6 -3 -15 -14 -35c-60 -107 -144 -141 -184 -141c-15 0 -45 4 -45 62s16 120 22 144l13 50h-3c-75 -159 -177 -256 -251 -256
c-26 0 -67 14 -67 88c0 7 0 43 20 109c6 19 13 37 19 56l49 145c6 18 13 33 13 49c0 11 -7 14 -11 14c-15 0 -39 -24 -58 -51l-14 -20c-5 -6 -12 -18 -20 -18c-4 0 -12 1 -12 14c0 3 2 21 36 64c54 67 116 95 162 95c39 0 52 -28 52 -67c0 -23 -5 -54 -12 -76l-68 -220
c-3 -11 -12 -36 -12 -51c0 -10 4 -21 14 -21c12 0 30 11 70 59c82 99 124 215 144 309l5 23c2 11 10 26 35 26h89c9 0 9 -8 7 -17z" />
    <glyph glyph-name="v" unicode="v" horiz-adv-x="471" 
d="M63 171l58 209c5 18 11 35 11 49c0 11 -7 14 -11 14c-22 0 -53 -45 -72 -71c-6 -8 -13 -18 -20 -18c-5 0 -11 4 -11 14c0 8 3 13 6 19c54 95 129 140 188 140c44 0 56 -39 56 -67s-9 -60 -13 -76l-53 -199c-7 -27 -14 -63 -14 -89c0 -29 7 -53 34 -53
c78 0 179 197 179 285c0 29 -11 53 -19 73c-11 25 -19 43 -19 63c0 39 20 63 47 63c31 0 55 -29 55 -86c0 -130 -111 -459 -310 -459c-85 0 -103 63 -103 113c0 21 5 56 11 76z" />
    <glyph glyph-name="w" unicode="w" horiz-adv-x="732" 
d="M63 171l59 209c3 12 10 41 10 49s-1 14 -10 14c-24 0 -60 -54 -72 -71c-6 -9 -13 -18 -20 -18s-12 5 -12 14c0 7 4 15 7 21c29 54 103 138 188 138c7 0 55 -1 55 -67c0 -30 -9 -61 -13 -76l-53 -199c-7 -25 -14 -65 -14 -91c0 -9 1 -27 16 -27c52 0 166 199 206 384l5 23
c7 31 14 35 35 35h80c4 0 17 0 17 -15c0 -8 -2 -13 -4 -20l-45 -191c-4 -19 -31 -140 -31 -186c0 -38 15 -45 28 -45c63 0 167 183 167 276c0 24 -9 53 -20 77c-8 17 -19 36 -19 59c0 38 22 63 47 63c18 0 56 -10 56 -86c0 -196 -153 -459 -311 -459c-53 0 -73 29 -73 80
c0 47 15 124 27 171h-3c-90 -210 -179 -251 -234 -251c-7 0 -80 -1 -80 113c0 22 5 55 11 76z" />
    <glyph glyph-name="x" unicode="x" horiz-adv-x="548" 
d="M240 210l-48 162c-10 34 -17 78 -44 78c-21 0 -31 -42 -34 -67c-2 -19 0 -41 -15 -41c-14 0 -13 18 -13 25c0 85 51 160 121 160c83 0 110 -93 132 -187c85 174 140 187 167 187c50 0 57 -50 57 -72c0 -61 -36 -106 -73 -106c-20 0 -40 16 -40 46c0 6 1 12 1 19
c0 5 1 18 -9 18c-5 0 -22 -3 -91 -135l25 -91c14 -51 28 -120 59 -120c26 0 27 44 28 61c1 11 4 25 15 25c10 0 13 -13 13 -27c0 -15 -2 -31 -5 -46c-11 -49 -45 -117 -115 -117c-65 0 -76 49 -120 185c-81 -150 -134 -185 -185 -185c-46 0 -68 36 -68 82
c0 66 38 104 73 104c30 0 45 -29 45 -52c0 -8 -2 -17 -5 -27l-3 -11c-1 -3 -1 -5 -1 -8c0 -11 9 -13 13 -13c20 0 62 37 120 153z" />
    <glyph glyph-name="y" unicode="y" horiz-adv-x="494" 
d="M278 66c59 87 114 183 114 254c0 25 -3 43 -10 68c-6 20 -12 41 -12 63c0 50 31 76 56 76s54 -22 54 -79c0 -107 -106 -295 -165 -387c-84 -131 -203 -329 -341 -329c-33 0 -88 13 -88 72c0 47 32 66 59 66c21 0 34 -12 48 -28c16 -18 27 -42 53 -42c17 0 39 17 50 29
c57 61 60 155 60 219c0 52 -8 384 -58 384c-25 0 -46 -55 -51 -69c-3 -9 -7 -20 -19 -20c-9 0 -12 8 -12 15c0 8 8 27 11 34c29 66 87 135 153 135c56 0 100 -56 100 -370c0 -30 -1 -61 -2 -91z" />
    <glyph glyph-name="z" unicode="z" horiz-adv-x="500" 
d="M87 60l2 -5c91 39 126 75 185 75c20 0 37 -7 52 -12s33 -13 50 -13c36 0 35 29 35 33c0 23 -3 19 -3 27c0 14 5 19 11 19c11 0 27 -18 27 -68c0 -69 -45 -145 -140 -145c-40 0 -67 15 -100 31c-47 23 -73 29 -91 29c-22 0 -35 -11 -54 -24c-20 -16 -30 -25 -53 -25
c-16 0 -34 6 -34 38c0 21 7 36 27 46c30 15 6 -3 61 19c51 39 54 55 114 119c103 110 183 174 238 215v4c-68 -44 -115 -63 -165 -63c-10 0 -19 1 -29 3c-16 3 -32 9 -47 15c-22 8 -40 14 -55 14c-26 0 -30 -17 -30 -28c0 -5 1 -8 2 -17c1 -6 2 -8 2 -11
c0 -14 -7 -16 -12 -16c-16 0 -25 42 -25 65c0 47 24 142 126 142c33 0 59 -11 86 -23c55 -25 100 -46 137 -46c7 0 14 2 20 5c18 8 28 23 40 38c13 17 30 26 41 26c9 0 25 -5 25 -29c0 -33 -27 -45 -49 -60l-19 -13c-24 -16 -39 -42 -85 -97c-83 -100 -177 -181 -290 -268z
" />
    <glyph glyph-name="braceleft" unicode="{" horiz-adv-x="380" 
d="M82 231l9 42c85 5 86 102 113 218l13 56c32 138 72 176 241 174l-9 -37c-83 -7 -99 -88 -111 -144l-20 -91c-18 -80 -38 -193 -151 -200l-1 -4c44 -3 81 -33 81 -83c0 -20 -5 -40 -10 -61l-18 -81c-17 -75 -34 -117 -34 -174c0 -28 5 -66 56 -67l-7 -33
c-109 -1 -176 3 -176 101c0 21 3 52 18 107l16 59c18 67 36 110 36 171c0 18 -5 50 -46 47z" />
    <glyph glyph-name="bar" unicode="|" horiz-adv-x="112" 
d="M22 773h68v-1053h-68v1053z" />
    <glyph glyph-name="braceright" unicode="}" horiz-adv-x="380" 
d="M298 236l-9 -42c-85 -5 -86 -102 -113 -218l-13 -56c-32 -138 -72 -176 -241 -174l9 37c83 7 99 88 111 144l20 91c18 80 38 193 151 200l1 4c-44 3 -81 33 -81 83c0 20 5 40 10 61l18 81c17 75 34 117 34 174c0 28 -5 66 -56 67l7 33c109 1 176 -3 176 -101
c0 -21 -3 -52 -18 -107l-16 -59c-18 -67 -36 -110 -36 -171c0 -18 5 -50 46 -47z" />
    <glyph glyph-name="asciitilde" unicode="~" horiz-adv-x="438" 
d="M33 556l-33 29c49 97 103 112 136 112c57 0 79 -21 124 -46c24 -14 47 -24 69 -24s47 11 76 73l33 -27c-27 -65 -67 -117 -124 -117c-46 0 -82 25 -119 46c-30 17 -48 27 -74 27c-50 0 -78 -50 -88 -73z" />
    <glyph glyph-name="afii10051" unicode="&#x402;" horiz-adv-x="716" 
d="M133 124l120 506c2 10 7 20 -15 20h-21c-66 0 -79 1 -131 -89c-7 -11 -12 -25 -26 -25c-13 0 -19 10 -19 22c0 10 4 18 15 53c28 87 32 142 61 142c13 0 16 -12 16 -21c0 -5 -1 -9 0 -14c4 -20 31 -18 55 -18h322c19 0 41 3 62 30c13 17 16 23 26 23c14 0 15 -15 11 -31
c-11 -43 -7 -12 -24 -81l-19 -75c-6 -22 -12 -30 -24 -30c-15 0 -17 15 -17 33v15v25c0 20 -2 41 -45 41h-63c-15 0 -15 -8 -20 -27l-60 -249c-1 -2 1 -4 4 -4c6 0 13 9 43 25c34 18 69 41 135 41c100 0 159 -71 159 -184c0 -164 -143 -273 -266 -273c-57 0 -79 38 -79 62
c0 37 29 127 55 127c12 0 16 -8 16 -21c0 -6 -1 -12 -2 -18c-3 -21 -4 -42 -5 -63c0 -6 -1 -11 0 -17c2 -26 17 -30 26 -30c46 0 98 120 98 230c0 72 -15 121 -74 121c-40 0 -114 -17 -132 -91l-34 -142c-27 -111 -25 -137 -60 -137c-19 0 -36 5 -54 5c-34 0 -68 -5 -104 -5
c-10 0 -23 3 -23 22c0 18 14 21 19 22l22 3c38 5 47 56 52 77z" />
    <glyph glyph-name="afii10052" unicode="&#x403;" horiz-adv-x="472" 
d="M299 627l-116 -490c-4 -15 -8 -39 -8 -52c0 -35 24 -39 40 -40c11 -1 27 -4 27 -22c0 -22 -15 -23 -23 -23c-47 0 -90 5 -132 5c-39 0 -79 -5 -122 -5c-9 0 -23 0 -23 22c0 18 14 21 19 22l21 3c39 6 48 55 53 77l104 439c3 14 8 41 8 52c0 28 -15 36 -27 39
c-17 3 -36 1 -36 23c0 24 20 23 29 23c269 -7 345 -7 417 0c9 1 20 2 16 -20c-5 -28 -11 -42 -21 -88l-13 -59c-2 -9 -5 -22 -19 -22c-12 0 -14 9 -15 16l-3 24c-12 96 -30 95 -78 95h-74c-14 0 -21 -4 -24 -19zM516 801l-162 -66c-16 -7 -29 -14 -40 -14c-8 0 -19 3 -19 21
c0 21 16 32 48 53l156 101c11 7 26 13 36 13c17 0 34 -18 34 -44c0 -37 -21 -51 -53 -64z" />
    <glyph glyph-name="quotesinglbase" unicode="&#x201a;" horiz-adv-x="271" 
d="M52 9l-14 8c-12 7 -27 17 -27 49c0 48 37 77 67 77c25 0 65 -22 65 -85c0 -28 -8 -109 -116 -175l-23 -14c-19 -11 -27 -12 -31 -12c-9 0 -13 9 -13 17c0 14 16 22 26 28l10 6c55 33 66 63 66 81c0 6 -4 17 -10 20z" />
    <glyph glyph-name="afii10100" unicode="&#x453;" horiz-adv-x="428" 
d="M51 135l55 235c5 20 10 36 10 56c0 19 -3 26 -24 33l-15 5c-12 4 -18 9 -18 22c0 22 19 23 35 23h247c61 0 65 -2 76 15c8 12 12 24 28 24c14 0 18 -10 18 -23c0 -20 -8 -47 -12 -68l-17 -85c-4 -19 -8 -37 -27 -37c-20 0 -20 20 -23 55c-7 60 -13 77 -57 77h-59
c-8 0 -6 -1 -7 -5l-74 -309c-9 -36 -11 -55 -11 -66c0 -36 23 -36 40 -42l11 -4c8 -3 15 -4 15 -19c0 -22 -15 -22 -22 -22c-42 0 -82 10 -122 10c-43 0 -86 -10 -131 -10c-7 0 -19 1 -19 17c0 23 18 24 29 26c58 10 66 56 74 92zM476 681l-202 -130c-4 -2 -13 -7 -16 -7
s-6 0 -8 1c-4 2 -8 7 -8 16c0 13 9 18 17 25l187 161c4 4 13 12 25 12c17 0 29 -19 29 -38c0 -23 -17 -35 -24 -40z" />
    <glyph glyph-name="quotedblbase" unicode="&#x201e;" horiz-adv-x="455" 
d="M52 9l-14 8c-12 7 -27 17 -27 49c0 48 37 77 67 77c25 0 65 -22 65 -85c0 -96 -85 -158 -114 -175l-24 -14c-22 -13 -30 -12 -32 -12c-9 0 -13 9 -13 17c0 14 16 22 26 28l10 6c55 33 66 63 66 81c0 6 -4 17 -10 20zM238 7l-11 6c-9 5 -31 16 -31 53c0 38 28 77 67 77
c28 0 64 -24 64 -85c0 -96 -83 -158 -113 -175l-24 -14c-22 -13 -30 -12 -32 -12c-9 0 -13 9 -13 17c0 13 16 21 28 29l8 5c48 30 65 50 65 81c0 8 0 14 -8 18z" />
    <glyph glyph-name="ellipsis" unicode="&#x2026;" horiz-adv-x="789" 
d="M103 148c34 0 62 -29 62 -76c0 -52 -39 -90 -78 -90c-29 0 -59 24 -59 76c0 50 34 90 75 90zM351 148c34 0 62 -29 62 -76c0 -52 -39 -90 -78 -90c-29 0 -59 24 -59 76c0 50 34 90 75 90zM599 148c34 0 62 -29 62 -76c0 -52 -39 -90 -78 -90c-29 0 -59 24 -59 76
c0 50 34 90 75 90z" />
    <glyph glyph-name="dagger" unicode="&#x2020;" horiz-adv-x="426" 
d="M53 -264l61 253c11 45 30 151 36 198c3 23 6 47 0 71c-7 31 -18 27 16 70c17 21 38 69 48 98c-15 1 -34 -2 -54 -15c-19 -12 -37 -32 -60 -32c-24 0 -53 29 -53 80c0 41 37 74 67 74c21 0 35 -18 56 -31c24 -15 46 -15 58 -14c15 86 -12 101 -12 149c0 38 35 84 79 84
c57 0 91 -71 42 -128c-14 -17 -40 -41 -63 -107c13 -1 33 1 53 15c19 12 37 32 60 32c24 0 53 -29 53 -80c0 -42 -38 -74 -66 -74c-22 0 -36 18 -57 31c-24 15 -46 15 -58 14c-2 -18 -3 -50 -3 -70c0 -26 6 -34 10 -44c8 -21 3 -25 -24 -60c-22 -28 -46 -71 -92 -267
l-58 -247h-39z" />
    <glyph glyph-name="daggerdbl" unicode="&#x2021;" horiz-adv-x="497" 
d="M124 -264l61 253c4 17 11 48 31 158c-12 1 -34 0 -56 -15c-19 -12 -37 -32 -60 -32c-24 0 -53 29 -53 80c0 42 38 74 66 74c22 0 36 -18 57 -31c16 -10 34 -15 56 -14c7 51 20 118 59 217c-15 1 -34 -2 -54 -15c-19 -12 -37 -32 -60 -32c-24 0 -53 29 -53 80
c0 41 37 74 67 74c21 0 35 -18 56 -31c24 -15 46 -15 58 -14c15 86 -12 101 -12 149c0 38 35 84 79 84c57 0 91 -71 42 -128c-14 -17 -40 -41 -63 -107c13 -1 33 1 53 15c19 12 37 32 60 32c24 0 53 -29 53 -80c0 -42 -38 -74 -66 -74c-22 0 -36 18 -57 31
c-24 15 -46 15 -58 14c-4 -41 -13 -109 -49 -215c21 0 38 7 51 15c19 12 37 32 60 32c24 0 53 -29 53 -80c0 -41 -37 -74 -67 -74c-20 0 -36 18 -57 31c-18 11 -36 16 -57 14c-25 -96 -36 -132 -43 -164l-58 -247h-39z" />
    <glyph glyph-name="accent" horiz-adv-x="2" 
d="M-25 681l-203 -130c-5 -3 -11 -7 -18 -7c-10 0 -14 11 -14 17c0 10 11 19 18 25l186 161c5 4 13 10 26 10c21 0 32 -18 32 -36c0 -23 -19 -35 -27 -40z" />
    <glyph glyph-name="perthousand" unicode="&#x2030;" horiz-adv-x="1120" 
d="M204 360c-78 0 -126 55 -126 143c0 124 92 212 184 212c73 0 124 -62 124 -152c0 -103 -80 -203 -182 -203zM201 393c63 0 101 168 101 234c0 44 -27 50 -36 50c-51 0 -100 -117 -100 -221c0 -20 0 -63 35 -63zM517 -18c-79 0 -126 55 -126 143c0 113 82 212 183 212
c61 0 124 -46 124 -152c0 -115 -88 -203 -181 -203zM514 15c53 0 100 133 100 234c0 44 -25 50 -35 50c-49 0 -101 -117 -101 -221c0 -29 6 -63 36 -63zM631 698h70l-552 -698h-70zM860 -18c-78 0 -126 55 -126 143c0 124 92 212 184 212c73 0 124 -62 124 -152
c0 -103 -80 -203 -182 -203zM857 15c63 0 101 168 101 234c0 44 -27 50 -36 50c-51 0 -100 -117 -100 -221c0 -20 0 -63 35 -63z" />
    <glyph glyph-name="afii10058" unicode="&#x409;" horiz-adv-x="860" 
d="M338 700h82c37 0 74 -6 110 -6c38 0 75 6 117 6c8 0 24 -1 24 -22c0 -24 -23 -21 -41 -25c-38 -8 -44 -46 -52 -77l-39 -160c29 4 58 6 87 6c68 0 196 -9 196 -166c0 -125 -55 -256 -283 -256c-54 0 -108 5 -161 5c-41 0 -80 -5 -123 -5c-6 0 -23 1 -23 22s19 22 30 23
c25 3 46 8 63 79l111 469c13 56 -6 58 -53 58h-28c-75 0 -73 -44 -108 -182c-19 -73 -41 -155 -78 -250c-87 -222 -167 -240 -211 -240c-58 0 -72 50 -72 78c0 38 23 83 73 83c30 0 44 -21 51 -38c4 -11 6 -22 22 -22c39 0 99 161 115 209c19 56 78 257 78 328
c0 12 -2 37 -27 39l-29 2c-8 1 -20 2 -20 22c0 19 19 20 25 20c29 0 57 -2 86 -2c26 0 52 2 78 2zM527 365l-44 -186c-5 -23 -15 -68 -15 -85c0 -29 14 -52 58 -52c67 0 148 68 148 205c0 113 -67 123 -107 123c-13 0 -27 -2 -40 -5z" />
    <glyph glyph-name="guilsinglleft" unicode="&#x2039;" horiz-adv-x="280" 
d="M143 255l45 -187c2 -8 2 -15 -3 -15c-4 0 -9 -4 -12 1l-137 191c-3 4 -3 7 -3 10c0 4 4 6 8 10l225 191c2 2 4 3 6 3c3 0 7 -2 7 -6c0 -3 -3 -8 -5 -11z" />
    <glyph glyph-name="afii10059" unicode="&#x40a;" horiz-adv-x="957" 
d="M35 124l104 439c4 16 8 39 8 52s-5 33 -18 36l-18 4c-11 2 -26 2 -26 22c0 22 13 23 23 23c45 0 86 -5 127 -5c39 0 78 5 122 5c8 0 24 -1 24 -22c0 -9 -5 -20 -20 -22l-21 -3c-35 -5 -43 -41 -52 -77l-42 -176h242l38 163c4 16 8 39 8 52s-5 33 -18 36l-18 4
c-11 2 -26 2 -26 22c0 21 15 23 23 23c44 0 85 -5 127 -5c40 0 80 5 123 5c6 0 23 -1 23 -22c0 -12 -8 -21 -19 -22l-22 -3c-36 -5 -44 -45 -52 -77l-38 -160c29 4 57 6 86 6c68 0 196 -9 196 -166c0 -126 -56 -256 -282 -256c-54 0 -109 5 -162 5c-40 0 -78 -5 -122 -5
c-8 0 -24 1 -24 22c0 9 5 20 20 22l21 3c33 5 44 43 52 77l55 226h-243l-50 -213c-4 -16 -8 -39 -8 -52s5 -33 18 -36l18 -4c11 -2 26 -2 26 -22c0 -21 -15 -23 -23 -23c-44 0 -85 5 -127 5c-40 0 -80 -5 -123 -5c-10 0 -23 3 -23 22c0 18 14 21 19 22l22 3
c38 5 47 56 52 77zM625 365l-44 -186c-4 -15 -16 -57 -16 -85c0 -9 1 -52 58 -52c86 0 148 91 148 205c0 55 -17 123 -106 123c-14 0 -27 -2 -40 -5z" />
    <glyph glyph-name="afii10061" unicode="&#x40c;" horiz-adv-x="606" 
d="M34 124l104 439c7 29 8 37 8 39v13c-2 37 -20 38 -36 40c-11 1 -26 3 -26 22c0 22 17 23 25 23c44 0 84 -5 125 -5c39 0 79 5 121 5c11 0 25 -1 25 -22c0 -18 -14 -21 -19 -22l-22 -3c-34 -5 -43 -40 -52 -77l-33 -141c-4 -17 -4 -24 -4 -30c0 -9 11 -8 18 -8h12
c57 0 79 24 161 181c50 96 88 137 151 137c72 0 88 -55 88 -91c0 -47 -30 -87 -75 -87c-37 0 -48 24 -58 47c-3 8 -7 17 -21 17c-20 0 -35 -25 -44 -41l-28 -54c-28 -54 -46 -97 -99 -124l1 -4c37 -2 90 -22 124 -131l31 -99c30 -95 48 -104 63 -106c14 -2 16 -12 16 -20
c0 -21 -14 -22 -34 -22c-19 0 -39 4 -58 4c-27 0 -3 -4 -49 -4c-29 0 -66 13 -97 125l-30 109c-33 119 -35 120 -67 120c-15 0 -19 1 -25 -24l-47 -193c-4 -15 -8 -40 -8 -52c0 -33 21 -38 36 -40c11 -1 27 -3 27 -22c0 -22 -15 -23 -24 -23c-46 0 -86 5 -127 5
c-39 0 -79 -5 -122 -5c-9 0 -23 0 -23 22c0 18 14 21 19 22l21 3c32 5 45 47 52 77zM602 801l-162 -66c-16 -7 -29 -14 -40 -14c-8 0 -19 3 -19 21c0 21 16 32 48 53l156 101c11 7 26 13 36 13c17 0 34 -18 34 -44c0 -37 -21 -51 -53 -64z" />
    <glyph glyph-name="afii10060" unicode="&#x40b;" horiz-adv-x="722" 
d="M146 124l121 506c2 10 7 20 -15 20h-17c-62 0 -81 1 -131 -89c-3 -6 -12 -25 -26 -25c-11 0 -19 7 -19 22c0 10 4 18 15 53c31 98 33 142 60 142c19 0 15 -18 16 -28c1 -24 16 -25 56 -25h330c20 0 41 3 62 30c11 14 11 23 26 23c16 0 14 -18 10 -31c-2 -7 -4 -15 -6 -22
c-5 -20 -12 -39 -17 -59l-19 -75c-6 -22 -12 -30 -24 -30c-15 0 -17 15 -17 33v15v25c0 20 -2 41 -45 41h-75c-16 0 -17 -8 -21 -27l-49 -209c-1 -5 -5 -15 2 -15c4 0 8 4 19 10c38 19 88 46 158 46c129 0 130 -96 130 -115c0 -14 -1 -27 -4 -40l-38 -163
c-4 -17 -8 -38 -8 -52c0 -39 24 -37 43 -41c18 -4 19 -13 19 -21c0 -22 -12 -23 -23 -23c-45 0 -86 5 -127 5c-40 0 -80 -5 -122 -5c-10 0 -24 2 -24 22c0 19 15 22 31 23c30 4 45 9 65 94l23 100c6 24 9 46 9 70c0 66 -60 66 -72 66c-24 0 -54 -6 -75 -14
c-16 -6 -22 -12 -26 -30l-46 -194c-4 -15 -8 -39 -8 -52c0 -33 21 -38 36 -40c11 -1 27 -3 27 -22c0 -22 -15 -23 -24 -23c-46 0 -86 5 -127 5c-39 0 -79 -5 -122 -5c-9 0 -23 0 -23 22c0 18 14 21 19 22l21 3c36 5 45 47 52 77z" />
    <glyph glyph-name="afii10145" unicode="&#x40f;" horiz-adv-x="688" 
d="M654 576l-104 -439c-2 -9 -7 -31 -8 -39v-13c1 -10 2 -32 19 -36l17 -4c11 -3 26 -2 26 -22c0 -21 -15 -23 -23 -23c-44 0 -85 5 -127 5c-45 0 -91 -5 -137 -5h-23l-8 -115c-4 -61 -36 -83 -60 -83c-19 0 -36 15 -36 41c0 12 5 33 9 42l47 115h-40c-40 0 -80 5 -119 5
c-40 0 -79 -5 -122 -5c-9 0 -23 0 -23 22c0 18 14 21 19 22l21 3c36 5 45 48 52 77l104 439c2 9 7 31 8 39v13c0 9 -2 33 -18 36l-18 4c-11 2 -26 2 -26 22c0 21 15 23 23 23c44 0 85 -5 127 -5c40 0 80 5 123 5c10 0 23 -3 23 -22c0 -18 -14 -21 -19 -22l-22 -3
c-38 -5 -47 -56 -52 -77l-115 -485c-3 -12 -9 -37 17 -37h161c18 0 34 -1 42 32l113 477c4 15 8 40 8 52c0 13 -6 33 -19 36l-17 4c-11 2 -27 2 -27 22c0 22 15 23 24 23c46 0 86 -5 127 -5c39 0 79 5 122 5c9 0 23 0 23 -22c0 -18 -14 -21 -19 -22l-21 -3
c-36 -5 -45 -47 -52 -77z" />
    <glyph glyph-name="afii10099" unicode="&#x452;" horiz-adv-x="543" 
d="M4 49l125 528h-85l8 39h86l4 16c5 20 5 28 5 31c0 24 -17 25 -31 25c-12 0 -26 1 -26 20c0 7 3 24 27 25l60 3c36 2 81 16 106 35l4 3c5 4 12 2 14 -3c1 -2 0 -4 0 -6c-7 -42 -6 -31 -10 -48l-23 -101h136l-8 -39h-138l-67 -288c102 197 183 238 238 238
c88 0 91 -105 91 -141c0 -150 -79 -483 -185 -595c-39 -41 -77 -59 -127 -59c-80 0 -87 59 -87 76c0 39 24 52 43 52c31 0 37 -28 39 -50c2 -15 1 -41 17 -41c46 0 158 545 158 618c0 30 -13 37 -25 37c-56 0 -159 -158 -226 -386c-12 -42 -20 -38 -37 -38h-77
c-4 0 -15 1 -15 15c0 3 0 9 6 34z" />
    <glyph glyph-name="quoteleft" unicode="&#x2018;" horiz-adv-x="235" 
d="M180 565l10 -7c16 -11 29 -16 29 -49c0 -50 -35 -78 -66 -78c-33 0 -65 31 -65 87c0 84 57 137 114 172l21 13c23 14 32 14 35 14c9 0 13 -8 13 -18c0 -8 -7 -13 -21 -22l-14 -9c-31 -20 -66 -48 -66 -82c0 -8 4 -17 10 -21z" />
    <glyph glyph-name="quoteright" unicode="&#x2019;" horiz-adv-x="291" 
d="M172 583l-13 8c-12 7 -27 16 -27 49c0 48 37 77 67 77c25 0 65 -22 65 -85c0 -97 -85 -157 -115 -175l-23 -14c-5 -3 -23 -12 -32 -12s-13 9 -13 17c0 14 16 22 26 28l10 6c35 21 66 48 66 81c0 12 -4 15 -11 20z" />
    <glyph glyph-name="quotedblleft" unicode="&#x201c;" horiz-adv-x="419" 
d="M365 565l10 -7c12 -8 30 -17 30 -49c0 -42 -31 -78 -67 -78c-28 0 -65 23 -65 87c0 40 14 110 106 167l29 18c9 5 26 14 34 14c7 0 13 -7 13 -18c0 -13 -8 -17 -17 -22l-12 -7c-55 -32 -72 -62 -72 -84c0 -12 6 -17 11 -21zM180 565l10 -7c16 -11 29 -16 29 -49
c0 -50 -35 -78 -66 -78c-33 0 -65 31 -65 87c0 65 35 123 113 172l21 13c9 5 27 14 36 14s13 -8 13 -18c0 -8 -7 -13 -21 -22l-14 -9c-31 -20 -66 -48 -66 -82c0 -8 4 -17 10 -21z" />
    <glyph glyph-name="quotedblright" unicode="&#x201d;" horiz-adv-x="475" 
d="M173 583l-14 8c-12 7 -27 17 -27 49c0 48 37 77 67 77c25 0 65 -22 65 -85c0 -97 -85 -157 -115 -175l-23 -14c-6 -3 -22 -12 -31 -12c-10 0 -14 9 -14 17c0 14 16 22 26 28l10 6c55 33 66 63 66 81c0 6 -4 17 -10 20zM359 581l-11 6c-9 5 -31 16 -31 53
c0 38 28 77 67 77c28 0 64 -24 64 -85c0 -74 -49 -136 -114 -175l-23 -14c-6 -3 -22 -12 -31 -12c-10 0 -14 9 -14 17c0 13 16 21 28 29l8 5c48 30 65 50 65 81c0 8 0 14 -8 18z" />
    <glyph glyph-name="bullet" unicode="&#x2022;" horiz-adv-x="610" 
d="M158 366c0 92 67 159 159 159c94 0 159 -66 159 -159s-65 -159 -159 -159c-92 0 -159 67 -159 159z" />
    <glyph glyph-name="endash" unicode="&#x2013;" horiz-adv-x="536" 
d="M71 289h427l-18 -70h-426z" />
    <glyph glyph-name="emdash" unicode="&#x2014;" horiz-adv-x="789" 
d="M76 277h694l-15 -47h-693z" />
    <glyph glyph-name="Accent" horiz-adv-x="2" 
d="M-119 801l-162 -66c-16 -7 -29 -14 -40 -14c-8 0 -19 3 -19 21c0 21 16 32 48 53l156 101c11 7 26 13 36 13c17 0 34 -18 34 -44c0 -37 -21 -51 -53 -64z" />
    <glyph glyph-name="trademark" unicode="&#x2122;" horiz-adv-x="744" 
d="M186 700h170c12 0 13 4 18 12c3 5 7 10 13 10c8 0 9 -6 9 -12c0 -11 -4 -19 -9 -34l-13 -42c-3 -8 -5 -22 -16 -22c-14 0 -11 21 -12 36c-3 27 -16 28 -23 28h-13c-5 0 -10 0 -12 -8l-40 -178c-6 -27 -12 -44 10 -52c9 -3 18 -3 18 -14c0 -12 -13 -13 -20 -13
c-21 0 -43 3 -63 3c-21 0 -41 -3 -65 -3c-4 0 -10 -1 -12 6c-1 2 0 3 0 5c0 4 -1 8 6 12c5 3 10 3 17 5c26 7 27 23 33 51l40 177c1 5 5 9 -4 9h-10c-13 0 -30 -1 -57 -45c-5 -8 -11 -19 -21 -19c-8 0 -9 6 -9 9c0 13 14 40 20 55c12 28 13 46 26 46c7 0 9 -3 10 -9
c1 -8 -1 -13 9 -13zM544 693l12 -135c0 -3 1 -5 2 -5s2 2 4 5l82 137c1 2 1 3 2 4c1 2 4 1 8 1h99c7 0 14 0 14 -12c0 -13 -13 -13 -25 -15c-20 -3 -24 -16 -32 -52l-28 -131c-6 -29 -3 -37 -3 -42c0 -11 12 -9 20 -11c11 -2 11 -10 11 -13c0 -12 -10 -13 -16 -13
c-23 0 -44 3 -66 3s-44 -3 -66 -3c-9 0 -11 4 -12 6s0 3 0 5c1 6 -1 12 16 15c31 6 33 19 40 53l33 155c1 4 1 6 0 6s-2 -1 -4 -5l-113 -189c-13 -22 -19 -31 -24 -31c-4 0 -6 12 -8 31l-19 185c0 2 0 4 -1 4s-2 -1 -3 -5l-42 -155c-6 -24 -10 -42 14 -49l7 -2
c2 -1 7 -2 7 -11c0 -12 -11 -13 -15 -13c-16 0 -30 3 -45 3c-12 0 -24 -3 -37 -3c-5 0 -12 1 -12 12s9 12 16 14l14 4c17 5 19 19 28 49l40 131c13 44 4 50 -14 53c-5 1 -13 2 -13 14s13 12 17 12h106c3 0 5 1 6 -7z" />
    <glyph glyph-name="afii10106" unicode="&#x459;" horiz-adv-x="653" 
d="M300 470h-32c-51 0 -52 -15 -57 -33c-16 -64 -58 -200 -72 -239c-62 -171 -107 -216 -161 -216c-65 0 -68 61 -68 71c0 32 18 56 45 56c17 0 34 -10 38 -38c3 -19 0 -40 15 -40c36 0 103 169 135 300c5 20 19 89 19 113c0 25 -13 29 -52 30c-6 0 -18 0 -18 16
c0 20 15 19 19 19h317c12 0 24 -6 18 -32l-41 -184c44 16 77 21 107 21c95 0 131 -57 131 -130c0 -118 -111 -202 -243 -202c-99 0 -161 35 -161 131c0 29 9 61 24 127l47 203c1 5 1 17 1 20c0 4 -5 7 -11 7zM397 259c-32 -123 -34 -163 -34 -177c0 -61 29 -65 45 -65
c64 0 95 91 95 161c0 51 -15 90 -60 90c-14 0 -34 -5 -46 -9z" />
    <glyph glyph-name="guilsinglright" unicode="&#x203a;" horiz-adv-x="280" 
d="M137 257l-45 187c-2 8 -2 15 3 15c4 0 9 4 12 -1l137 -191c3 -4 3 -7 3 -10c0 -4 -4 -6 -8 -10l-225 -191c-2 -2 -4 -3 -6 -3c-3 0 -7 2 -7 6c0 3 3 8 5 11z" />
    <glyph glyph-name="afii10107" unicode="&#x45a;" horiz-adv-x="713" 
d="M23 37l65 273c16 67 23 100 23 115c0 11 -5 14 -8 14c-6 0 -26 -11 -59 -65c-6 -10 -15 -24 -25 -24c-4 0 -8 4 -9 8c-1 3 0 5 0 8c2 12 4 18 11 29c29 48 100 132 168 132c21 0 53 -8 53 -76c0 -39 -11 -85 -13 -93l-17 -71c0 -2 -1 -2 -1 -3s2 -1 4 -1h112c6 0 7 5 8 9
l44 187c3 11 7 30 26 30h85c24 0 19 -21 17 -32l-42 -184c44 16 77 21 107 21c95 0 131 -57 131 -130c0 -118 -111 -202 -243 -202c-97 0 -161 34 -161 132c0 21 8 59 12 75l7 29c3 11 8 21 -5 21h-104c-9 0 -10 -6 -12 -13l-46 -194c-8 -32 -15 -32 -34 -32h-80
c-24 0 -18 19 -14 37zM457 259c-32 -123 -34 -163 -34 -177c0 -61 29 -65 45 -65c64 0 95 91 95 161c0 51 -15 90 -60 90c-14 0 -34 -5 -46 -9z" />
    <glyph glyph-name="afii10109" unicode="&#x45c;" horiz-adv-x="527" 
d="M163 74l-11 -42c-9 -33 -16 -32 -34 -32h-80c-13 0 -17 9 -17 14c0 4 2 20 3 23l65 273c16 66 23 100 23 114c0 6 -1 15 -8 15c-21 0 -58 -63 -68 -78c-4 -6 -8 -11 -16 -11c-3 0 -10 2 -10 11c0 5 2 10 5 17c34 74 108 149 172 149c40 0 57 -27 57 -75
c0 -27 -7 -68 -14 -95l-30 -122l4 -2c150 267 241 294 279 294c50 0 70 -34 70 -69c0 -43 -27 -62 -51 -62c-33 0 -45 31 -49 43s-8 24 -24 24c-4 0 -41 -1 -139 -155c77 -33 101 -114 113 -170c10 -48 16 -99 51 -99c18 0 36 14 36 58c0 51 -13 31 -13 75c0 17 11 22 18 22
c11 0 29 -16 29 -75c0 -87 -48 -137 -123 -137c-69 0 -115 32 -117 176c-1 100 -5 112 -13 122c-78 -110 -97 -165 -108 -206zM515 681l-203 -130c-5 -3 -11 -7 -18 -7c-10 0 -14 11 -14 17c0 10 11 19 18 25l186 161c5 4 13 10 26 10c21 0 32 -18 32 -36
c0 -23 -19 -35 -27 -40z" />
    <glyph glyph-name="afii10108" unicode="&#x45b;" horiz-adv-x="546" 
d="M23 49l126 528h-86l8 39h87l4 16c14 54 -6 56 -27 56c-23 0 -25 10 -25 20c0 3 -1 24 26 25l60 3c36 2 83 16 107 35c2 2 6 5 10 5s8 -3 8 -11c0 -9 -3 -17 -10 -48l-24 -101h136l-8 -39h-137l-67 -288l3 -1c52 107 152 239 242 239c35 0 67 -22 67 -88
c0 -54 -27 -129 -39 -165l-49 -145c-8 -24 -12 -31 -12 -39v-10v-6c1 -4 5 -8 10 -8c24 0 63 59 72 71c6 9 13 18 20 18c12 0 11 -11 11 -14c0 -8 0 -11 -6 -21c-53 -93 -130 -138 -188 -138c-34 0 -55 27 -55 67c0 33 8 63 12 76l68 220c5 18 12 38 12 52
c0 11 -2 26 -15 26c-79 0 -197 -282 -210 -357l-3 -17c-9 -51 -31 -49 -41 -49h-78c-5 0 -14 2 -14 15s0 14 5 34z" />
    <glyph glyph-name="afii10193" unicode="&#x45f;" horiz-adv-x="571" 
d="M540 492l-62 -264c-24 -102 -25 -124 -25 -131c0 -5 1 -15 11 -15c3 0 22 0 68 76c3 5 9 15 18 15c5 0 11 -4 11 -15c0 -12 -7 -23 -14 -35c-74 -122 -153 -141 -184 -141c-15 0 -45 4 -45 62s16 120 22 144l13 50h-3c-73 -158 -178 -256 -251 -256c-26 0 -67 14 -67 88
c0 54 27 129 39 165l49 145c6 18 13 33 13 49c0 11 -7 14 -11 14c-24 0 -64 -59 -72 -71c-6 -9 -13 -18 -20 -18s-12 5 -12 14c0 7 4 15 7 21c46 87 133 138 191 138c35 0 52 -24 52 -67c0 -37 -7 -59 -12 -76l-68 -220c-3 -11 -12 -36 -12 -51c0 -10 4 -21 14 -21
c12 0 30 11 70 59c82 99 124 215 144 309l5 23c2 11 10 26 35 26h89c9 0 9 -8 7 -17zM220 -279c-31 -49 -42 -54 -64 -77c-5 -6 -11 -12 -22 -12c-13 0 -14 16 -5 30c12 19 27 25 27 70c0 21 -4 41 -4 62c0 78 51 144 93 213c3 5 10 17 18 17c5 0 11 -4 11 -16
c0 -6 -3 -12 -8 -26c-7 -18 -16 -41 -16 -69c0 -62 4 -17 4 -72c0 -65 -13 -86 -34 -120z" />
    <glyph glyph-name="afii10062" unicode="&#x40e;" horiz-adv-x="533" 
d="M292 591l57 -222c3 -14 4 -24 10 -24s10 13 17 25l114 187c8 13 28 49 28 71c0 15 -6 25 -21 27l-20 2c-9 1 -20 1 -20 21s14 22 30 22c29 0 59 -6 88 -6c20 0 40 6 60 6s20 -11 20 -21c0 -11 -2 -19 -29 -21c-30 -3 -42 -17 -98 -112l-223 -378
c-62 -106 -124 -198 -212 -198c-54 0 -79 34 -79 77c0 44 30 73 67 73c30 0 40 -16 53 -49c4 -12 9 -26 25 -26c24 0 58 50 68 70s13 54 7 77l-105 388c-20 73 -20 74 -43 78l-11 2c-5 1 -14 3 -14 20c0 19 14 20 22 20c49 0 98 -6 146 -6c39 0 79 6 119 6c9 0 22 0 22 -20
c0 -22 -15 -18 -47 -23c-40 -6 -35 -51 -31 -66zM577 877l7 9c5 6 11 14 19 14c7 0 12 -7 12 -14c0 -30 -104 -164 -201 -164c-63 0 -97 42 -97 78c0 47 59 101 87 101c20 0 20 -22 20 -27c0 -7 -1 -15 -2 -22c-1 -5 -1 -11 -1 -16c0 -27 12 -46 35 -46c33 0 69 20 121 87z
" />
    <glyph glyph-name="afii10110" unicode="&#x45e;" horiz-adv-x="494" 
d="M278 66c59 87 114 183 114 254c0 25 -3 43 -10 68c-6 20 -12 41 -12 63c0 50 31 76 56 76s54 -22 54 -79c0 -107 -106 -295 -165 -387c-84 -131 -203 -329 -341 -329c-33 0 -88 13 -88 72c0 47 32 66 59 66c21 0 34 -12 48 -28c16 -18 27 -42 53 -42c17 0 39 17 50 29
c57 61 60 155 60 219c0 52 -8 384 -58 384c-25 0 -46 -55 -51 -69c-3 -9 -7 -20 -19 -20c-9 0 -12 8 -12 15c0 8 8 27 11 34c29 66 87 135 153 135c56 0 100 -56 100 -370c0 -30 -1 -61 -2 -91zM464 687l17 19c5 5 8 12 17 12s12 -7 12 -13c0 -17 -34 -58 -41 -66
c-71 -80 -130 -88 -156 -88c-60 0 -89 43 -89 73c0 37 44 92 72 92c13 0 13 -11 13 -16c0 -13 -4 -19 -4 -35c0 -29 19 -46 44 -46c27 0 71 19 115 68z" />
    <glyph glyph-name="afii10057" unicode="&#x408;" horiz-adv-x="363" 
d="M38 -31l141 593c3 15 8 41 8 53c0 13 -5 33 -18 36l-18 4c-11 2 -26 2 -26 22c0 22 17 23 24 23c44 0 85 -5 126 -5c40 0 80 5 122 5c8 0 24 -1 24 -22c0 -12 -8 -21 -19 -22l-22 -3c-31 -4 -43 -38 -52 -77l-94 -395c-27 -115 -46 -212 -127 -305
c-69 -79 -134 -97 -181 -97c-101 0 -112 69 -112 98c0 36 24 74 68 74c49 0 55 -47 60 -76c4 -24 4 -46 24 -46c13 0 33 10 48 52c6 18 20 71 24 88z" />
    <glyph glyph-name="currency" unicode="&#xa4;" horiz-adv-x="778" 
d="M58 92l107 106c-43 61 -49 110 -49 160c0 56 8 105 47 164l-105 105l63 62l107 -107c56 39 104 46 154 46c58 0 109 -13 164 -48l111 110l63 -61l-112 -112c40 -54 50 -102 50 -157c0 -47 -5 -98 -51 -157l110 -111l-62 -63l-108 108c-56 -39 -105 -49 -160 -49
c-48 0 -99 6 -158 49l-108 -108zM240 359c0 -84 63 -147 148 -147c81 0 146 62 146 147c0 81 -63 145 -146 145s-148 -61 -148 -145z" />
    <glyph glyph-name="afii10050" unicode="&#x490;" horiz-adv-x="494" 
d="M288 576l-104 -439c-7 -29 -8 -37 -8 -39v-13c1 -17 2 -32 24 -36l24 -4c11 -2 26 -3 26 -22c0 -21 -15 -23 -23 -23c-48 0 -94 5 -139 5c-40 0 -80 -5 -123 -5c-10 0 -23 3 -23 22c0 18 14 21 19 22l22 3c36 5 48 61 52 77l104 439c4 15 8 39 8 52c0 33 -21 38 -36 40
c-11 1 -27 3 -27 22c0 22 15 23 24 23c83 1 41 -5 208 -5c119 0 166 -3 224 93c13 21 17 26 28 26c5 0 14 -1 14 -18c0 -14 -8 -26 -16 -64l-10 -46c-12 -57 -20 -41 -78 -39l-70 3c-15 1 -29 1 -44 1c-36 0 -57 7 -76 -75z" />
    <glyph glyph-name="brokenbar" unicode="&#xa6;" horiz-adv-x="112" 
d="M22 773h68v-319h-68v319zM22 39h68v-319h-68v319z" />
    <glyph glyph-name="section" unicode="&#xa7;" horiz-adv-x="509" 
d="M90 -108l-1 -25c0 -3 -1 -28 25 -28c81 0 84 200 89 324l6 137c13 303 146 458 251 458c65 0 117 -57 117 -124c0 -48 -23 -65 -45 -65c-23 0 -43 21 -43 48c0 20 6 28 6 39c0 10 -3 35 -27 35c-77 0 -82 -269 -87 -355l-3 -57c-24 -450 -185 -502 -263 -502
c-75 0 -117 63 -117 117c0 33 18 60 48 60c26 0 46 -23 44 -62zM363 633c-89 -141 -100 -263 -105 -441c-2 -80 -4 -165 -30 -283c96 127 94 279 102 429c9 159 8 144 33 295z" />
    <glyph glyph-name="afii10023" unicode="&#x401;" horiz-adv-x="549" 
d="M35 124l104 439c4 16 8 39 8 52c0 22 -8 33 -20 36l-16 4c-11 3 -26 2 -26 22c0 22 14 23 23 23c71 1 134 -5 200 -5c74 0 150 4 225 5c11 0 18 -1 18 -9c0 -5 -1 -8 -4 -20c-3 -16 -9 -31 -13 -46c-5 -16 -9 -33 -13 -49l-7 -26c-3 -11 -9 -21 -21 -21
c-11 0 -11 8 -13 17l-3 18c-12 70 -31 86 -80 86h-73c-8 0 -18 1 -23 -20l-54 -229h45c78 0 101 16 119 60l10 24c4 10 13 14 20 14c8 0 16 -4 16 -18c0 -5 -2 -18 -13 -63c-8 -31 -26 -101 -37 -166c-2 -10 -3 -24 -19 -24c-3 0 -16 -1 -17 22l-1 27c-3 71 -17 74 -57 74
h-78l-45 -187c-4 -15 -12 -58 -12 -78c0 -31 19 -36 63 -36c93 0 147 16 184 110c3 8 8 21 22 21c9 0 16 -6 16 -20c0 -13 -3 -26 -8 -45l-14 -59c-13 -57 -9 -57 -28 -57c-206 0 -187 5 -277 5c-57 0 -112 -5 -171 -5c-10 0 -23 3 -23 22c0 18 14 21 19 22l21 3
c36 5 44 39 53 77zM255 879c28 0 58 -19 58 -62c0 -55 -29 -87 -67 -87c-34 0 -54 34 -54 71c0 52 31 78 63 78zM458 879c16 0 59 -7 59 -62c0 -44 -25 -87 -68 -87c-34 0 -54 34 -54 71c0 52 35 78 63 78z" />
    <glyph glyph-name="copyright" unicode="&#xa9;" horiz-adv-x="798" 
d="M399 -22c-204 0 -371 166 -371 371s167 371 371 371s371 -168 371 -371s-167 -371 -371 -371zM399 46c161 0 293 137 293 303s-132 303 -293 303s-293 -136 -293 -303s132 -303 293 -303zM567 524l4 -28c5 -32 3 -33 -10 -33s-9 1 -25 20l-20 24c-14 17 -39 34 -77 34
c-100 0 -150 -101 -150 -191c0 -127 73 -193 147 -193c71 0 95 55 115 86c7 11 12 14 20 14c14 0 12 -13 12 -21v-13c0 -8 -2 -16 -3 -25c-2 -19 3 -34 -50 -53c-33 -12 -73 -17 -101 -17c-186 0 -262 120 -262 219c0 123 107 223 276 223c22 0 45 -2 67 -6
c45 -8 52 -4 57 -40z" />
    <glyph glyph-name="afii10053" unicode="&#x404;" 
d="M310 340h-132c-6 -31 -8 -61 -8 -92c0 -140 75 -221 152 -221c94 0 137 95 161 153c4 10 13 29 27 29c6 0 16 -3 16 -20c0 -28 -7 -40 -12 -62c-21 -88 -10 -92 -39 -107c-50 -27 -133 -38 -190 -38c-158 0 -263 94 -263 271c0 297 278 465 487 465c34 0 101 -5 101 -35
c0 -15 -7 -38 -14 -66l-11 -46c-9 -39 -13 -56 -28 -56c-12 0 -19 9 -21 42l-2 34c-4 64 4 82 -39 82c-113 0 -249 -102 -305 -283h99c116 0 106 44 129 84c7 12 14 14 20 14c5 0 16 -1 16 -18c0 -15 -5 -34 -13 -63c-21 -79 -33 -142 -37 -166c-2 -10 -3 -24 -19 -24
s-18 19 -18 30v31c0 58 -26 62 -57 62z" />
    <glyph glyph-name="guillemotleft" unicode="&#xab;" horiz-adv-x="403" 
d="M120 255l45 -187c2 -8 2 -15 -3 -15c-4 0 -9 -4 -12 1l-137 191c-3 4 -3 7 -3 10c0 4 4 6 8 10l225 191c2 2 4 3 6 3c3 0 7 -2 7 -6c0 -3 -3 -8 -5 -11zM270 245l48 -137c3 -8 2 -15 -3 -15c-4 0 -8 -3 -11 1l-109 151c-3 4 -3 7 -3 10c0 4 4 6 8 10l179 152c2 1 3 2 5 2
c4 0 7 -3 7 -6s-3 -9 -5 -11z" />
    <glyph glyph-name="logicalnot" unicode="&#xac;" horiz-adv-x="682" 
d="M39 376v95h604v-305h-98v210h-506z" />
    <glyph glyph-name="hyphen" unicode="-" horiz-adv-x="272" 
d="M74 300h160l-21 -93h-159z" />
    <glyph glyph-name="hyphen" unicode="&#xad;" horiz-adv-x="272" 
d="M74 300h160l-21 -93h-159z" />
    <glyph glyph-name="registered" unicode="&#xae;" horiz-adv-x="814" 
d="M407 -22c-204 0 -371 166 -371 371s167 371 371 371s371 -168 371 -371s-167 -371 -371 -371zM407 46c161 0 293 137 293 303s-132 303 -293 303s-293 -136 -293 -303s132 -303 293 -303zM268 232v231c0 32 -10 49 -39 53c-12 1 -16 4 -16 10c0 12 12 13 18 13
c29 0 59 -3 89 -3c31 0 61 1 92 2c17 1 33 1 50 1c92 0 111 -59 111 -95c0 -57 -49 -87 -104 -87v-2c33 -4 49 -26 61 -49l47 -90c18 -35 26 -36 38 -37c9 -1 12 -4 13 -7v-4c-2 -13 -12 -12 -17 -12c-16 0 -31 2 -47 2c-37 0 -41 -2 -56 -2c-13 0 -14 6 -17 13l-63 124
c-22 43 -27 46 -43 46h-5c-5 0 -9 -8 -9 -13v-94c0 -46 24 -53 39 -53c4 0 16 1 16 -10c0 -12 -12 -13 -18 -13c-29 0 -58 3 -88 3s-60 -3 -89 -3c-6 0 -18 1 -18 13c0 11 12 10 16 10c15 0 39 7 39 53zM371 482v-99c0 -12 -1 -21 16 -21h8c40 0 73 33 73 75
c0 45 -29 75 -65 75c-30 0 -32 -20 -32 -30z" />
    <glyph glyph-name="afii10056" unicode="&#x407;" horiz-adv-x="334" 
d="M35 124l104 439c4 15 8 39 8 52c0 33 -21 38 -36 40c-11 1 -27 3 -27 22c0 22 15 23 23 23c46 0 86 -5 128 -5c40 0 80 5 122 5c10 0 23 -3 23 -22c0 -18 -14 -21 -19 -22l-22 -3c-34 -5 -43 -40 -52 -77l-104 -439c-4 -15 -8 -39 -8 -52c0 -33 21 -38 36 -40
c11 -1 27 -3 27 -22c0 -22 -15 -23 -23 -23c-46 0 -86 5 -128 5c-40 0 -80 -5 -122 -5c-10 0 -23 3 -23 22c0 18 14 21 19 22l22 3c38 5 47 56 52 77zM363 886c28 0 56 -22 56 -68c0 -56 -34 -81 -67 -81c-34 0 -54 34 -54 71c0 60 40 78 65 78zM159 886c29 0 57 -23 57 -68
c0 -57 -35 -81 -67 -81c-34 0 -54 34 -54 71c0 60 40 78 64 78z" />
    <glyph glyph-name="degree" unicode="&#xb0;" horiz-adv-x="503" 
d="M-2 562c0 77 60 137 137 137s137 -60 137 -137s-60 -137 -137 -137s-137 60 -137 137zM73 562c0 -35 27 -62 62 -62s62 27 62 62s-27 62 -62 62s-62 -27 -62 -62z" />
    <glyph glyph-name="plusminus" unicode="&#xb1;" 
d="M55 484h211v175h98v-175h212v-93h-212v-164h-98v164h-211v93zM55 186h521v-94h-521v94z" />
    <glyph glyph-name="afii10055" unicode="&#x406;" horiz-adv-x="332" 
d="M35 124l104 439c4 15 8 39 8 52c0 33 -21 38 -36 40c-11 1 -27 3 -27 22c0 22 15 23 23 23c46 0 86 -5 128 -5c40 0 80 5 122 5c10 0 23 -3 23 -22c0 -18 -14 -21 -19 -22l-22 -3c-34 -5 -43 -40 -52 -77l-104 -439c-4 -15 -8 -39 -8 -52c0 -33 21 -38 36 -40
c11 -1 27 -3 27 -22c0 -22 -15 -23 -23 -23c-46 0 -86 5 -128 5c-40 0 -80 -5 -122 -5c-10 0 -23 3 -23 22c0 18 14 21 19 22l22 3c38 5 47 56 52 77z" />
    <glyph glyph-name="afii10103" unicode="&#x456;" horiz-adv-x="304" 
d="M240 300l-43 -141c-11 -35 -12 -51 -13 -62c0 -3 -1 -5 0 -8s4 -8 10 -8c14 0 47 42 55 54l19 29c4 6 9 15 16 15c4 0 12 -2 12 -15c0 -10 -3 -15 -8 -23c-70 -120 -139 -159 -190 -159c-50 0 -58 40 -58 66c0 43 13 93 34 155l50 151c5 16 20 66 20 80c0 8 -4 16 -12 16
c-3 0 -21 -1 -59 -60c-10 -15 -21 -40 -36 -40c-8 0 -11 9 -11 15c0 3 1 9 9 24c23 42 93 138 181 138c37 0 62 -23 62 -68c0 -27 -8 -60 -38 -159zM267 737c34 0 63 -28 63 -77c0 -53 -35 -93 -77 -93c-37 0 -61 35 -61 77c0 60 38 93 75 93z" />
    <glyph glyph-name="afii10098" unicode="&#x491;" horiz-adv-x="372" 
d="M49 139l56 251c13 59 6 62 -23 72l-15 5c-5 2 -13 4 -13 20c0 22 20 22 35 22h236c46 0 70 47 94 87c8 13 17 26 33 26c13 0 17 -15 13 -32l-19 -71c-8 -29 -5 -56 -40 -56c-17 0 -37 4 -95 4h-48c-5 0 -7 0 -8 -5l-78 -343c-13 -59 -7 -63 34 -74c7 -2 17 -4 17 -23
c0 -22 -21 -22 -32 -22c-38 0 -75 4 -111 4c-37 0 -73 -4 -113 -4c-7 0 -24 -2 -24 22c0 15 13 19 19 20l12 3c57 14 57 37 70 94z" />
    <glyph glyph-name="mu" unicode="&#xb5;" horiz-adv-x="539" 
d="M252 509l-76 -331c-10 -42 -15 -66 -15 -88c0 -12 0 -37 32 -37c63 0 81 65 88 94l93 362h128l-71 -281c-4 -17 -25 -108 -25 -130c0 -8 3 -16 11 -16c19 0 47 33 63 54c11 15 23 38 37 38c10 0 12 -12 12 -16c0 -6 -2 -15 -16 -35c-64 -94 -150 -141 -198 -141
c-30 0 -51 16 -51 56v14h-3c-33 -36 -77 -70 -128 -70c-63 0 -69 65 -70 86l-3 1c-3 -25 -6 -65 -6 -87l1 -52c1 -54 11 -140 -61 -140c-33 0 -74 19 -42 104l53 140c26 70 40 133 56 202l63 273h128z" />
    <glyph glyph-name="mu" unicode="&#x3bc;" horiz-adv-x="539" 
d="M252 509l-76 -331c-10 -42 -15 -66 -15 -88c0 -12 0 -37 32 -37c63 0 81 65 88 94l93 362h128l-71 -281c-4 -17 -25 -108 -25 -130c0 -8 3 -16 11 -16c19 0 47 33 63 54c11 15 23 38 37 38c10 0 12 -12 12 -16c0 -6 -2 -15 -16 -35c-64 -94 -150 -141 -198 -141
c-30 0 -51 16 -51 56v14h-3c-33 -36 -77 -70 -128 -70c-63 0 -69 65 -70 86l-3 1c-3 -25 -6 -65 -6 -87l1 -52c1 -54 11 -140 -61 -140c-33 0 -74 19 -42 104l53 140c26 70 40 133 56 202l63 273h128z" />
    <glyph glyph-name="paragraph" unicode="&#xb6;" horiz-adv-x="530" 
d="M411 700h166c16 0 20 -9 21 -13v-7c-1 -11 0 -21 -32 -22c-60 -2 -74 -52 -84 -97l-96 -418c-55 -239 -199 -397 -320 -397c-58 0 -86 38 -86 90c0 49 29 87 72 87c34 0 52 -23 63 -58c6 -22 5 -47 30 -47c47 0 88 120 104 189l45 192c-130 -14 -223 70 -223 214
c0 118 66 287 340 287z" />
    <glyph glyph-name="periodcentered" unicode="&#xb7;" horiz-adv-x="250" 
d="M23 300c0 67 57 101 100 101c56 0 104 -46 104 -101c0 -56 -47 -100 -104 -100c-55 0 -100 43 -100 100z" />
    <glyph glyph-name="periodcentered" unicode="&#x2219;" horiz-adv-x="250" 
d="M23 300c0 67 57 101 100 101c56 0 104 -46 104 -101c0 -56 -47 -100 -104 -100c-55 0 -100 43 -100 100z" />
    <glyph glyph-name="afii10071" unicode="&#x451;" horiz-adv-x="492" 
d="M376 146l7 8c2 2 4 4 8 4c6 0 12 -3 12 -12c0 -11 -9 -24 -15 -33c-52 -77 -110 -131 -206 -131c-132 0 -164 116 -164 190c0 194 160 355 316 355c93 0 128 -62 128 -122c0 -99 -113 -190 -300 -193c-2 -14 -3 -27 -3 -41c0 -112 65 -114 80 -114c62 0 99 45 137 89z
M166 250c89 4 168 79 168 192c0 35 -14 50 -31 50c-52 0 -119 -117 -137 -242zM278 703c23 0 51 -13 51 -53c0 -46 -29 -76 -59 -76c-24 0 -47 23 -47 61c0 39 24 68 55 68zM435 703c24 0 51 -15 51 -53c0 -46 -27 -76 -60 -76c-31 0 -46 35 -46 61c0 39 25 68 55 68z" />
    <glyph glyph-name="afii61352" unicode="&#x2116;" horiz-adv-x="921" 
d="M53 193l87 370c4 16 8 39 8 52c0 14 -5 33 -19 36l-17 4c-11 2 -27 2 -27 22c0 22 15 23 24 23c25 0 46 -3 69 -3c30 0 61 3 92 3c9 0 10 -1 15 -13l172 -468l78 327c4 17 11 53 11 72c0 34 -21 36 -35 38l-19 3c-6 1 -17 2 -17 19c0 22 17 22 23 22c30 0 59 -4 88 -4
c23 0 47 4 71 4c5 0 19 0 19 -17c0 -20 -13 -25 -22 -26l-18 -3c-42 -7 -49 -53 -59 -97l-126 -539c-6 -24 -9 -36 -30 -36c-16 0 -22 8 -32 34l-212 538c-8 -27 -10 -39 -14 -55l-66 -280c-14 -57 -23 -91 -23 -119c0 -40 23 -49 31 -51l10 -3c11 -3 25 -2 25 -21
c0 -21 -15 -25 -26 -25c-24 0 -48 5 -71 5c-27 0 -55 -5 -83 -5c-18 0 -18 12 -18 19c0 14 0 17 27 25l27 8c31 9 38 59 57 141zM719 204c-87 0 -123 65 -123 142c0 105 85 219 193 219c84 0 122 -60 122 -139c0 -120 -92 -222 -192 -222zM726 250c63 0 115 92 115 173
c0 64 -26 96 -64 96c-70 0 -111 -109 -111 -175c0 -65 26 -94 60 -94zM549 89l12 55h274l-12 -55h-274z" />
    <glyph glyph-name="afii10101" unicode="&#x454;" horiz-adv-x="447" 
d="M18 176c0 199 156 351 326 351c114 0 113 -76 113 -88c0 -37 -21 -64 -61 -64c-45 0 -58 38 -69 74c-4 12 -10 36 -30 36c-44 0 -109 -106 -129 -206c27 23 53 45 77 45c16 0 31 -12 41 -18c15 -10 27 -17 38 -17c20 0 31 16 44 16c9 0 12 -10 12 -15
c0 -24 -74 -79 -103 -79c-9 0 -17 4 -25 8c-27 14 -41 35 -61 35c-8 0 -32 -6 -32 -67c0 -80 36 -124 90 -124c65 0 117 54 135 83c4 7 10 19 20 19c5 0 11 -3 12 -7c1 -2 0 -4 0 -6c-1 -8 0 -12 -8 -26c-44 -78 -139 -144 -235 -144s-155 77 -155 194z" />
    <glyph glyph-name="guillemotright" unicode="&#xbb;" horiz-adv-x="428" 
d="M118 267l-48 137c-3 8 -2 15 3 15c4 0 8 3 11 -1l109 -151c3 -4 3 -7 3 -10c0 -4 -4 -6 -8 -10l-179 -152c-2 -1 -3 -2 -5 -2c-4 0 -7 3 -7 6s3 9 5 11zM268 257l-45 187c-2 8 -2 15 3 15c4 0 9 4 12 -1l137 -191c3 -4 3 -7 3 -10c0 -4 -4 -6 -8 -10l-225 -191
c-2 -2 -4 -3 -6 -3c-3 0 -7 2 -7 6c0 3 3 8 5 11z" />
    <glyph glyph-name="afii10105" unicode="&#x458;" horiz-adv-x="288" 
d="M18 -128l118 500c9 39 11 53 11 62c0 5 -1 16 -11 16s-26 -9 -72 -81c-5 -8 -13 -19 -23 -19c-8 0 -11 9 -11 15c0 3 1 9 9 24c52 94 130 138 181 138c29 0 56 -18 56 -69c0 -25 -9 -76 -15 -100l-81 -342c-20 -82 -57 -272 -225 -272c-80 0 -117 53 -117 93
c0 28 18 61 51 61c36 0 51 -33 65 -77c5 -14 10 -39 26 -39c3 0 9 0 15 7c11 13 11 34 23 83zM263 737c34 0 63 -28 63 -77c0 -53 -35 -93 -77 -93c-37 0 -61 35 -61 77c0 60 38 93 75 93z" />
    <glyph glyph-name="afii10054" unicode="&#x405;" horiz-adv-x="445" 
d="M36 160l3 -31c6 -64 43 -102 106 -102c78 0 120 60 120 123s-45 108 -79 151l-27 34c-47 60 -74 109 -74 179c0 141 107 204 210 204c63 0 130 -26 159 -53c6 -5 9 -10 9 -20c0 -12 -3 -23 -8 -46l-10 -50c-2 -11 -6 -28 -21 -28c-20 0 -21 29 -27 52l-11 39
c-15 53 -47 61 -76 61c-58 0 -90 -47 -90 -100c0 -52 38 -94 74 -139c54 -66 107 -130 107 -221c0 -94 -72 -231 -247 -231c-63 0 -172 20 -172 64c0 11 3 51 4 66l3 49c2 30 13 38 24 38c19 0 21 -21 23 -39z" />
    <glyph glyph-name="afii10102" unicode="&#x455;" horiz-adv-x="400" 
d="M256 527c48 0 146 -18 146 -69c0 -83 -24 -92 -32 -92c-24 0 -45 39 -57 57c-24 35 -51 69 -81 69c-25 0 -37 -28 -37 -52c0 -52 32 -78 79 -124c45 -45 88 -88 88 -153c0 -102 -76 -181 -190 -181c-166 0 -174 81 -174 119c0 45 9 77 31 77c29 0 50 -44 72 -79
c27 -43 45 -82 85 -82c23 0 48 16 48 67c0 57 -47 102 -78 133c-52 52 -91 90 -91 162c0 75 57 148 191 148z" />
    <glyph glyph-name="afii10104" unicode="&#x457;" horiz-adv-x="304" 
d="M240 300l-43 -141c-11 -35 -12 -51 -13 -62c0 -3 -1 -5 0 -8s4 -8 10 -8c14 0 47 42 55 54l19 29c4 6 9 15 16 15c4 0 12 -2 12 -15c0 -10 -3 -15 -8 -23c-70 -120 -139 -159 -190 -159c-50 0 -58 40 -58 66c0 43 13 93 34 155l50 151c5 16 20 66 20 80c0 8 -4 16 -12 16
c-3 0 -21 -1 -59 -60c-10 -15 -21 -40 -36 -40c-8 0 -11 9 -11 15c0 3 1 9 9 24c23 42 93 138 181 138c37 0 62 -23 62 -68c0 -27 -8 -60 -38 -159zM155 713c25 0 50 -15 50 -57c0 -50 -31 -72 -57 -72c-33 0 -48 33 -48 61c0 34 20 68 55 68zM312 713c29 0 50 -22 50 -57
c0 -42 -28 -72 -57 -72c-23 0 -48 17 -48 61c0 35 20 68 55 68z" />
    <glyph glyph-name="afii10017" unicode="&#x410;" horiz-adv-x="518" 
d="M118 241l-47 -85c-3 -5 -21 -42 -21 -71c0 -24 14 -32 40 -39l16 -4c8 -2 17 -6 17 -19c0 -7 0 -23 -21 -23c-35 0 -67 4 -98 4c-30 0 -60 -4 -94 -4c-9 0 -20 -1 -20 18c0 20 12 21 23 24c55 14 89 84 117 134l286 507c20 35 29 47 54 47c33 0 32 -20 34 -67l22 -524
c3 -83 14 -89 43 -93l8 -1c15 -2 15 -18 15 -23c0 -21 -14 -22 -24 -22c-40 0 -77 4 -114 4c-38 0 -76 -4 -117 -4c-21 0 -22 10 -22 20c0 9 2 21 15 23l17 3c48 9 42 50 41 97l-2 98h-168zM277 535l-133 -244h140z" />
    <glyph glyph-name="afii10018" unicode="&#x411;" horiz-adv-x="553" 
d="M35 124l104 439c4 15 8 39 8 52c0 14 -6 33 -20 36l-20 4c-11 2 -27 3 -27 22c0 22 17 23 27 23c154 0 281 -12 429 0c15 1 19 -3 19 -5s0 -3 -1 -15c-2 -24 -13 -53 -21 -88l-13 -59c-2 -9 -5 -22 -19 -22c-12 0 -14 9 -15 16l-3 24c-13 102 -36 95 -78 95h-82
c-20 0 -21 -9 -24 -22l-52 -218c31 7 61 11 92 11c75 0 192 -19 192 -170c0 -80 -24 -247 -282 -247c-54 0 -109 5 -162 5c-40 0 -79 -5 -122 -5c-9 0 -23 0 -23 22c0 18 14 21 19 22l21 3c39 6 48 55 53 77zM235 355l-42 -176c-10 -43 -15 -60 -15 -85c0 -43 32 -52 57 -52
c68 0 148 68 148 197c0 56 -19 121 -104 121c-15 0 -29 -2 -44 -5z" />
    <glyph glyph-name="afii10019" unicode="&#x412;" horiz-adv-x="553" 
d="M35 124l104 439c4 15 8 40 8 52c0 13 -4 34 -27 39c-17 3 -36 1 -36 23s18 23 26 23c47 0 89 -5 133 -5c26 0 53 1 80 2c31 2 61 3 92 3c64 0 148 -12 148 -129c0 -135 -120 -187 -221 -191l-1 -5c109 -1 186 -41 186 -169c0 -184 -146 -206 -247 -206
c-65 0 -130 5 -193 5c-40 0 -79 -5 -122 -5c-8 0 -23 0 -23 22c0 19 13 22 30 23c30 4 47 11 63 79zM244 397h19c50 0 156 12 156 169c0 82 -51 89 -81 89c-34 0 -35 -14 -40 -33zM234 349l-41 -170c-7 -30 -14 -57 -14 -84c0 -19 1 -53 63 -53c76 0 137 76 137 185
c0 115 -70 122 -107 122h-38z" />
    <glyph glyph-name="afii10020" unicode="&#x413;" horiz-adv-x="473" 
d="M299 627l-116 -490c-4 -15 -8 -39 -8 -52c0 -35 24 -39 40 -40c11 -1 27 -4 27 -22c0 -22 -15 -23 -23 -23c-47 0 -90 5 -132 5c-39 0 -79 -5 -122 -5c-9 0 -23 0 -23 22c0 18 14 21 19 22l21 3c39 6 48 55 53 77l104 439c3 14 8 41 8 52c0 28 -15 36 -27 39
c-17 3 -36 1 -36 23c0 24 20 23 29 23c269 -7 345 -7 417 0c9 1 20 2 16 -20c-5 -28 -11 -42 -21 -88l-13 -59c-2 -9 -5 -22 -19 -22c-12 0 -14 9 -15 16l-3 24c-12 96 -30 95 -78 95h-74c-14 0 -21 -4 -24 -19z" />
    <glyph glyph-name="afii10021" unicode="&#x414;" horiz-adv-x="616" 
d="M581 576l-106 -451c-6 -27 -14 -74 35 -74c7 0 13 1 20 1h13c6 0 12 -1 12 -17c0 -12 -5 -27 -18 -72l-20 -69c-14 -49 -21 -80 -44 -80c-7 0 -19 3 -19 18v18v25c0 12 1 25 1 37c0 46 1 60 -5 71c-15 29 -59 17 -131 17h-181c-45 0 -93 8 -128 -18
c-23 -16 -38 -48 -60 -100l-19 -44c-5 -12 -10 -24 -27 -24c-7 0 -18 4 -18 21c0 8 2 16 8 45l10 49c12 59 16 103 26 116c3 5 8 4 19 4h13c57 0 91 66 122 120c79 138 153 353 153 451c0 15 -3 33 -25 35l-22 2c-8 1 -20 4 -20 23c0 6 4 20 23 20c27 0 53 -2 79 -2
c25 0 49 2 74 2h66c40 0 81 -6 120 -6s76 6 118 6c8 0 24 -1 24 -22c0 -25 -23 -21 -41 -25c-38 -9 -44 -44 -52 -77zM334 156l100 437c3 14 7 35 0 45c-8 11 -36 13 -49 13h-30c-56 0 -67 -35 -78 -85c-27 -120 -65 -286 -185 -463c-7 -10 -12 -18 -12 -27
c0 -25 32 -27 66 -27h79c62 0 83 -5 109 107z" />
    <glyph glyph-name="afii10022" unicode="&#x415;" horiz-adv-x="549" 
d="M35 124l104 439c4 16 8 39 8 52c0 22 -8 33 -20 36l-16 4c-11 3 -26 2 -26 22c0 22 14 23 23 23c71 1 134 -5 200 -5c74 0 150 4 225 5c11 0 18 -1 18 -9c0 -5 -1 -8 -4 -20c-3 -16 -9 -31 -13 -46c-5 -17 -8 -34 -13 -51l-7 -24c-6 -21 -16 -21 -21 -21
c-11 0 -11 8 -13 17l-3 18c-12 70 -31 86 -80 86h-73c-8 0 -18 1 -23 -20l-54 -229h45c78 0 101 16 119 60l10 24c4 10 13 14 20 14c8 0 16 -4 16 -18c0 -5 -2 -18 -13 -63c-8 -31 -26 -101 -37 -166c-2 -10 -3 -24 -19 -24c-3 0 -16 -1 -17 22l-1 27c-3 71 -17 74 -57 74
h-78l-45 -187c-4 -15 -12 -58 -12 -78c0 -31 19 -36 63 -36c93 0 147 16 184 110c3 8 8 21 22 21c9 0 16 -6 16 -20c0 -13 -3 -26 -8 -45l-14 -59c-13 -57 -9 -57 -28 -57c-206 0 -187 5 -277 5c-57 0 -112 -5 -171 -5c-10 0 -23 3 -23 22c0 18 14 21 19 22l21 3
c36 5 44 39 53 77z" />
    <glyph glyph-name="afii10024" unicode="&#x416;" horiz-adv-x="881" 
d="M505 330l-46 -193c-4 -16 -8 -39 -8 -52s5 -33 18 -36l18 -4c11 -2 26 -2 26 -22c0 -22 -13 -23 -23 -23c-45 0 -86 5 -127 5c-39 0 -78 -5 -122 -5c-8 0 -24 1 -24 22c0 9 5 20 20 22l21 3c32 5 45 47 52 77l47 196c3 11 8 24 -11 24c-49 0 -76 -45 -98 -83l-106 -183
c-24 -42 -47 -78 -98 -78c-12 0 -38 6 -65 6c-24 0 -47 -6 -71 -6c-17 0 -17 15 -17 22c0 18 14 19 23 20c31 5 62 46 76 68l83 129c32 50 93 131 212 129v4c-50 24 -50 74 -53 124l-3 54c-1 19 0 41 -21 41c-12 0 -17 -9 -23 -17c-17 -25 -28 -47 -60 -47
c-38 0 -59 26 -59 71c0 43 33 107 111 107c22 0 99 1 99 -137v-76c0 -16 1 -105 67 -105h6c13 0 22 -3 32 38l33 138c4 17 8 37 8 52c0 10 0 32 -19 36l-17 4c-11 3 -26 2 -26 22c0 21 15 23 23 23c44 0 85 -5 127 -5c40 0 80 5 123 5c6 0 23 -1 23 -22
c0 -12 -8 -21 -19 -22l-22 -3c-34 -5 -43 -40 -52 -77l-36 -151c-2 -9 -3 -24 -3 -30c0 -10 11 -8 17 -8h8c41 0 69 8 118 111l38 80c59 124 114 137 151 137c58 0 87 -37 87 -91c0 -45 -24 -87 -74 -87c-32 0 -44 14 -58 47c-3 8 -7 17 -21 17c-20 0 -35 -25 -44 -41
l-28 -54c-38 -73 -54 -113 -105 -134v-4c73 -7 103 -70 120 -121l34 -99c25 -72 36 -97 56 -104c10 -4 19 -2 22 -13c1 -3 0 -6 0 -9c-2 -14 -2 -22 -33 -22c-17 0 -34 4 -51 4c-23 0 -10 -4 -48 -4c-39 0 -65 20 -94 125l-30 109c-11 42 -23 100 -62 102h-11s-10 0 -11 -6z
" />
    <glyph glyph-name="afii10025" unicode="&#x417;" horiz-adv-x="501" 
d="M181 402h52c80 0 126 91 126 164c0 53 -19 107 -89 107c-34 0 -97 -12 -137 -105c-10 -22 -17 -48 -38 -48c-27 0 -18 34 -12 70l9 50c5 30 16 49 44 56l25 6c53 13 95 16 134 16c147 0 208 -60 208 -156c0 -112 -104 -158 -174 -168l-2 -7c51 -5 133 -34 133 -153
c0 -129 -109 -252 -315 -252c-81 0 -139 24 -161 44c-24 22 -19 54 -15 86l7 50c2 16 4 35 23 35c14 0 18 -12 20 -23c12 -59 21 -147 122 -147c104 0 171 98 171 211c0 116 -67 119 -99 119h-44c-10 0 -8 10 -7 13l6 23c1 4 0 9 13 9z" />
    <glyph glyph-name="afii10026" unicode="&#x418;" horiz-adv-x="696" 
d="M206 234l306 329l3 16c3 14 5 25 5 36c0 13 -5 33 -18 36l-18 4c-8 2 -27 3 -27 22c0 22 16 23 24 23c46 0 86 -5 127 -5c39 0 78 5 122 5c8 0 24 -1 24 -22c0 -9 -5 -20 -20 -22l-21 -3c-35 -5 -43 -41 -52 -77l-104 -439c-4 -16 -8 -39 -8 -52s5 -33 18 -36l18 -4
c11 -2 26 -2 26 -22c0 -21 -15 -23 -23 -23c-44 0 -85 5 -127 5c-40 0 -80 -5 -123 -5c-6 0 -23 1 -23 22c0 12 8 21 19 22l22 3c38 5 47 56 52 77l83 352l-305 -329l-3 -10c-3 -11 -8 -42 -8 -52c0 -37 27 -39 37 -40c11 -1 26 -3 26 -22c0 -22 -14 -23 -23 -23
c-45 0 -86 5 -127 5c-39 0 -78 -5 -122 -5c-8 0 -24 1 -24 22c0 9 5 20 20 22l21 3c36 5 45 47 52 77l104 439c4 16 8 39 8 52s-5 33 -18 36l-18 4c-12 3 -26 2 -26 22c0 21 15 23 23 23c44 0 86 -5 127 -5c40 0 80 5 123 5c6 0 23 -1 23 -22c0 -12 -8 -21 -19 -22l-22 -3
c-36 -5 -46 -52 -52 -77z" />
    <glyph glyph-name="afii10027" unicode="&#x419;" horiz-adv-x="696" 
d="M206 234l306 329l3 16c3 14 5 25 5 36c0 13 -5 33 -18 36l-18 4c-8 2 -27 3 -27 22c0 22 16 23 24 23c46 0 86 -5 127 -5c39 0 78 5 122 5c8 0 24 -1 24 -22c0 -9 -5 -20 -20 -22l-21 -3c-35 -5 -43 -41 -52 -77l-104 -439c-4 -16 -8 -39 -8 -52s5 -33 18 -36l18 -4
c11 -2 26 -2 26 -22c0 -21 -15 -23 -23 -23c-44 0 -85 5 -127 5c-40 0 -80 -5 -123 -5c-6 0 -23 1 -23 22c0 12 8 21 19 22l22 3c38 5 47 56 52 77l83 352l-305 -329l-3 -10c-3 -11 -8 -42 -8 -52c0 -37 27 -39 37 -40c11 -1 26 -3 26 -22c0 -22 -14 -23 -23 -23
c-45 0 -86 5 -127 5c-39 0 -78 -5 -122 -5c-8 0 -24 1 -24 22c0 9 5 20 20 22l21 3c36 5 45 47 52 77l104 439c4 16 8 39 8 52s-5 33 -18 36l-18 4c-12 3 -26 2 -26 22c0 21 15 23 23 23c44 0 86 -5 127 -5c40 0 80 5 123 5c6 0 23 -1 23 -22c0 -12 -8 -21 -19 -22l-22 -3
c-36 -5 -46 -52 -52 -77zM581 869l14 17c5 6 12 14 21 14c5 0 11 -5 11 -13c0 -28 -106 -165 -201 -165c-48 0 -97 29 -97 72c0 52 55 107 86 107c15 0 21 -12 21 -27c0 -24 -3 -15 -3 -37c0 -30 14 -47 39 -47c46 0 81 45 109 79z" />
    <glyph glyph-name="afii10028" unicode="&#x41a;" horiz-adv-x="606" 
d="M34 124l104 439c7 29 8 37 8 39v13c-2 37 -20 38 -36 40c-11 1 -26 3 -26 22c0 22 17 23 25 23c44 0 84 -5 125 -5c39 0 79 5 121 5c11 0 25 -1 25 -22c0 -18 -14 -21 -19 -22l-22 -3c-34 -5 -43 -40 -52 -77l-33 -141c-4 -17 -4 -24 -4 -30c0 -9 11 -8 18 -8h12
c57 0 79 24 161 181c50 96 88 137 151 137c72 0 88 -55 88 -91c0 -47 -30 -87 -75 -87c-37 0 -48 24 -58 47c-3 8 -7 17 -21 17c-20 0 -35 -25 -44 -41l-28 -54c-28 -54 -46 -97 -99 -124l1 -4c37 -2 90 -22 124 -131l31 -99c30 -95 48 -104 63 -106c14 -2 16 -12 16 -20
c0 -21 -14 -22 -34 -22c-19 0 -39 4 -58 4c-27 0 -3 -4 -49 -4c-29 0 -66 13 -97 125l-30 109c-33 119 -35 120 -67 120c-15 0 -19 1 -25 -24l-47 -193c-4 -15 -8 -40 -8 -52c0 -33 21 -38 36 -40c11 -1 27 -3 27 -22c0 -22 -15 -23 -24 -23c-46 0 -86 5 -127 5
c-39 0 -79 -5 -122 -5c-9 0 -23 0 -23 22c0 18 14 21 19 22l21 3c32 5 45 47 52 77z" />
    <glyph glyph-name="afii10029" unicode="&#x41b;" horiz-adv-x="623" 
d="M348 700h82c37 0 74 -6 110 -6c38 0 75 6 117 6c8 0 24 -1 24 -22c0 -9 -5 -20 -20 -22l-21 -3c-37 -5 -46 -50 -52 -77l-104 -439c-4 -16 -8 -39 -8 -52s5 -33 18 -36l18 -4c11 -2 26 -2 26 -22c0 -21 -15 -23 -23 -23c-44 0 -85 5 -127 5c-40 0 -80 -5 -123 -5
c-6 0 -23 1 -23 22s19 22 30 23c25 3 46 8 63 79l111 469c13 56 -6 58 -53 58h-28c-67 0 -71 -45 -81 -87l-22 -95c-21 -89 -44 -167 -80 -250c-91 -212 -170 -240 -224 -240c-58 0 -72 51 -72 78c0 49 33 83 73 83c30 0 44 -21 51 -38c4 -11 6 -22 22 -22
c33 0 89 100 127 209c23 65 76 247 76 324c0 10 0 41 -27 43l-29 2c-8 1 -20 2 -20 22c0 19 19 20 25 20c29 0 57 -2 86 -2c26 0 52 2 78 2z" />
    <glyph glyph-name="afii10030" unicode="&#x41c;" horiz-adv-x="736" 
d="M34 145l121 418c3 11 13 40 13 54s-6 31 -19 34l-17 4c-11 2 -27 2 -27 22c0 22 15 23 23 23c133 4 65 -6 184 0c14 1 19 2 20 -29l12 -430l229 438c10 20 15 21 29 21c22 0 43 -2 63 -2c34 0 69 2 106 2c10 0 23 -3 23 -22c0 -18 -14 -21 -19 -22l-22 -3
c-35 -5 -45 -43 -52 -77l-87 -439c-3 -15 -7 -40 -7 -52c0 -26 11 -34 21 -36l18 -4c10 -2 23 -4 23 -22c0 -24 -19 -23 -27 -23c-43 0 -83 5 -123 5c-39 0 -77 -5 -119 -5c-9 0 -27 0 -27 22c0 11 8 21 19 22l13 1c44 3 54 48 61 79l94 435h-4l-266 -498
c-29 -54 -30 -56 -54 -56c-12 0 -26 1 -28 29c-1 10 0 19 0 29c0 12 -1 24 -1 36l-9 470l-4 1l-92 -335c-26 -93 -30 -118 -30 -132c0 -44 22 -52 44 -55l16 -2c9 -1 15 -10 15 -22c0 -23 -16 -24 -25 -24c-29 0 -55 4 -82 4c-29 0 -58 -4 -88 -4c-26 0 -26 12 -26 22
c0 8 2 20 17 24l13 3c27 6 52 5 78 96z" />
    <glyph glyph-name="afii10031" unicode="&#x41d;" horiz-adv-x="710" 
d="M35 124l104 439c4 16 8 39 8 52s-5 33 -18 36l-18 4c-11 2 -26 2 -26 22c0 22 13 23 23 23c45 0 86 -5 127 -5c39 0 78 5 122 5c8 0 24 -1 24 -22c0 -9 -5 -20 -20 -22l-21 -3c-35 -5 -43 -41 -52 -77l-42 -176h242l38 163c4 16 8 39 8 52s-5 33 -18 36l-18 4
c-11 2 -26 2 -26 22c0 21 15 23 23 23c44 0 85 -5 127 -5c40 0 80 5 123 5c6 0 23 -1 23 -22c0 -12 -8 -21 -19 -22l-22 -3c-38 -5 -45 -49 -52 -77l-104 -439c-4 -16 -8 -39 -8 -52s5 -33 18 -36l18 -4c11 -2 26 -2 26 -22c0 -22 -13 -23 -23 -23c-45 0 -86 5 -127 5
c-39 0 -78 -5 -122 -5c-8 0 -24 1 -24 22c0 9 5 20 20 22l21 3c36 5 45 47 52 77l55 226h-243l-50 -213c-4 -16 -8 -39 -8 -52s5 -33 18 -36l18 -4c11 -2 26 -2 26 -22c0 -21 -15 -23 -23 -23c-44 0 -85 5 -127 5c-40 0 -80 -5 -123 -5c-6 0 -23 1 -23 22c0 12 8 21 19 22
l22 3c38 5 47 56 52 77z" />
    <glyph glyph-name="afii10032" unicode="&#x41e;" horiz-adv-x="687" 
d="M22 309c0 259 204 409 371 409c165 0 272 -141 272 -320c0 -243 -172 -416 -362 -416c-191 0 -281 168 -281 327zM170 214c0 -158 75 -187 119 -187c97 0 228 146 228 465c0 152 -66 181 -115 181c-126 0 -232 -222 -232 -459z" />
    <glyph glyph-name="afii10033" unicode="&#x41f;" horiz-adv-x="688" 
d="M34 124l104 439c8 35 9 46 9 52c0 13 -6 33 -19 36l-18 4c-11 2 -26 2 -26 22c0 21 15 23 23 23c44 0 85 -5 127 -5c45 0 91 5 137 5h111c40 0 80 -5 119 -5c40 0 79 5 122 5c9 0 23 0 23 -22c0 -18 -14 -21 -19 -22l-21 -3c-36 -5 -45 -48 -52 -77l-104 -439
c-8 -35 -9 -46 -9 -52c0 -13 6 -33 19 -36l18 -4c11 -2 26 -2 26 -22c0 -24 -19 -23 -27 -23c-43 0 -83 5 -123 5c-39 0 -77 -5 -119 -5c-11 0 -27 0 -27 22c0 18 14 21 19 22l22 3c38 5 47 56 52 77l115 485c3 12 9 37 -17 37h-161c-18 0 -34 1 -42 -32l-113 -477
c-4 -15 -8 -40 -8 -52c0 -13 6 -33 19 -36l17 -4c11 -2 27 -2 27 -22c0 -24 -18 -23 -25 -23c-45 0 -85 5 -126 5c-38 0 -77 -5 -119 -5c-10 0 -26 0 -26 22c0 18 14 21 19 22l21 3c36 5 45 47 52 77z" />
    <glyph glyph-name="afii10034" unicode="&#x420;" horiz-adv-x="569" 
d="M222 297l-38 -160c-4 -15 -8 -39 -8 -52c0 -33 21 -38 36 -40c11 -1 27 -3 27 -22c0 -22 -15 -23 -24 -23c-46 0 -86 5 -127 5c-39 0 -78 -5 -122 -5c-8 0 -24 1 -24 22c0 9 5 20 20 22l21 3c36 5 45 47 52 77l104 439c7 29 8 37 8 39v13c-2 37 -20 38 -36 40
c-11 1 -26 3 -26 22c0 21 15 23 23 23c44 0 85 -5 127 -5c60 0 120 10 182 10c163 0 178 -118 178 -162s-15 -246 -314 -246h-59zM307 656l-73 -309h33c99 0 180 93 180 214c0 78 -45 99 -96 99c-5 0 -12 -1 -44 -4z" />
    <glyph glyph-name="afii10035" unicode="&#x421;" 
d="M536 562l-2 37c-3 61 0 74 -39 74c-164 0 -325 -204 -325 -425c0 -140 75 -221 152 -221c94 0 137 95 161 153c4 10 13 29 27 29c6 0 16 -3 16 -20c0 -30 -7 -36 -12 -62l-10 -54c-4 -22 -3 -39 -29 -53c-48 -27 -135 -38 -191 -38c-157 0 -262 94 -262 271
c0 295 276 465 493 465c36 0 95 -7 95 -35c0 -9 -3 -21 -9 -47l-16 -65c-10 -39 -13 -56 -28 -56s-19 13 -21 47z" />
    <glyph glyph-name="afii10036" unicode="&#x422;" horiz-adv-x="544" 
d="M147 124l121 506c2 10 7 20 -15 20h-21c-63 0 -81 1 -131 -89c-4 -7 -13 -25 -27 -25c-11 0 -18 9 -18 22c0 9 4 19 14 53c34 114 38 142 61 142c19 0 15 -18 16 -28c1 -27 22 -25 55 -25h323c33 0 48 14 53 20l16 21c6 7 10 12 19 12c18 0 12 -23 10 -31
c-2 -7 -4 -15 -6 -22c-5 -20 -12 -39 -17 -59l-19 -75c-6 -22 -12 -30 -24 -30c-15 0 -16 13 -17 33v15v25c-2 42 -23 41 -46 41h-62c-16 0 -16 -8 -21 -27l-115 -486c-4 -16 -8 -39 -8 -52s5 -33 18 -36l18 -4c11 -2 26 -2 26 -22c0 -22 -13 -23 -23 -23
c-45 0 -86 5 -127 5c-39 0 -78 -5 -122 -5c-8 0 -24 1 -24 22c0 9 5 20 20 22l21 3c36 5 45 47 52 77z" />
    <glyph glyph-name="afii10037" unicode="&#x423;" horiz-adv-x="533" 
d="M292 591l57 -222c3 -14 4 -24 10 -24s10 13 17 25l114 187c8 13 28 49 28 71c0 15 -6 25 -21 27l-20 2c-9 1 -20 1 -20 21s14 22 30 22c29 0 59 -6 88 -6c20 0 40 6 60 6s20 -11 20 -21c0 -11 -2 -19 -29 -21c-30 -3 -42 -17 -98 -112l-223 -378
c-62 -106 -124 -198 -212 -198c-54 0 -79 34 -79 77c0 44 30 73 67 73c30 0 40 -16 53 -49c4 -12 9 -26 25 -26c24 0 58 50 68 70s13 54 7 77l-105 388c-20 73 -20 74 -43 78l-11 2c-5 1 -14 3 -14 20c0 19 14 20 22 20c49 0 98 -6 146 -6c39 0 79 6 119 6c9 0 22 0 22 -20
c0 -22 -15 -18 -47 -23c-40 -6 -35 -51 -31 -66z" />
    <glyph glyph-name="afii10038" unicode="&#x424;" horiz-adv-x="769" 
d="M250 105l2 9c-79 -4 -238 24 -238 207c0 151 113 302 358 302c2 7 3 12 3 19c0 22 -8 33 -19 36l-17 4c-11 2 -27 2 -27 22c0 22 15 23 23 23c46 0 86 -5 128 -5c39 0 78 5 119 5c10 0 23 -3 23 -22c0 -18 -14 -21 -19 -22l-22 -3c-23 -3 -43 -29 -46 -57
c79 3 237 -25 237 -208c0 -220 -194 -302 -358 -301c-2 -9 -4 -20 -4 -29c0 -17 6 -33 18 -36l18 -4c11 -2 26 -2 26 -22c0 -22 -13 -23 -23 -23c-44 0 -84 5 -125 5c-40 0 -80 -5 -122 -5c-10 0 -23 3 -23 22c0 18 14 21 19 22l22 3c34 5 45 48 47 58zM508 587l-102 -434
c147 8 201 169 201 292c0 44 -12 139 -99 142zM260 149l103 434c-168 -9 -201 -215 -201 -292c0 -57 20 -136 98 -142z" />
    <glyph glyph-name="afii10039" unicode="&#x425;" horiz-adv-x="628" 
d="M386 428l89 124c30 42 41 56 41 70c0 28 -24 28 -44 31c-16 3 -23 8 -23 24c0 23 19 23 28 23c35 0 70 -5 103 -5s64 5 102 5c10 0 20 -1 20 -21c0 -27 -26 -26 -55 -33c-34 -8 -51 -19 -97 -77l-149 -187l64 -185c32 -91 49 -145 91 -152l12 -2c11 -2 25 -4 25 -22
c0 -20 -17 -21 -25 -21c-53 0 -102 7 -151 7c-42 0 -84 -7 -128 -7c-9 0 -18 1 -18 18c0 14 2 23 27 28c14 2 45 7 45 38c0 9 -7 32 -10 43l-48 147l-98 -126c-19 -25 -48 -49 -48 -78c0 -11 1 -17 25 -23c11 -3 30 -3 30 -24s-16 -23 -26 -23c-36 0 -70 7 -104 7
c-33 0 -65 -7 -100 -7c-8 0 -22 1 -22 22c0 24 19 26 28 28l22 4c73 13 114 72 176 145l102 121l-79 238c-20 60 -32 89 -68 93l-18 2c-13 1 -19 10 -19 24c0 22 17 23 25 23c56 0 108 -9 161 -9c32 0 64 9 98 9c7 0 23 1 23 -22c0 -25 -16 -24 -33 -27l-17 -3
c-10 -2 -18 -13 -18 -27c0 -10 6 -28 11 -43z" />
    <glyph glyph-name="afii10040" unicode="&#x426;" horiz-adv-x="680" 
d="M34 124l104 439c2 9 7 31 8 39v13c0 9 -2 33 -18 36l-18 4c-11 2 -26 2 -26 22c0 21 15 23 23 23c44 0 85 -5 127 -5c40 0 80 5 123 5c10 0 23 -3 23 -22c0 -8 -2 -18 -19 -22c-24 -5 -53 10 -74 -80l-116 -489c-3 -12 -9 -37 17 -37h154c34 0 36 15 40 32l115 481
c4 15 8 40 8 52c0 13 -6 33 -19 36l-17 4c-11 2 -27 2 -27 22c0 22 15 23 24 23c46 0 86 -5 127 -5c39 0 79 5 122 5c8 0 23 0 23 -22c0 -17 -11 -20 -19 -22c-28 -5 -52 6 -73 -80l-107 -451c-7 -28 -18 -74 33 -74c7 0 14 1 21 1h13c6 0 12 -1 12 -17c0 -6 -3 -17 -19 -72
l-20 -69c-15 -50 -20 -80 -44 -80c-15 0 -18 9 -18 18v18c0 62 1 38 1 62c0 40 1 58 -6 71c-15 29 -56 17 -130 17h-176c-40 0 -80 5 -119 5c-40 0 -79 -5 -122 -5c-9 0 -23 0 -23 22c0 18 14 21 19 22l21 3c36 5 45 47 52 77z" />
    <glyph glyph-name="afii10041" unicode="&#x427;" horiz-adv-x="608" 
d="M321 124l45 191c1 5 5 15 -1 15c-4 0 -7 -3 -20 -10c-34 -17 -94 -46 -166 -46c-101 0 -124 59 -124 107c0 16 2 32 6 48l31 134c4 17 8 38 8 52c0 39 -24 37 -43 41c-18 4 -19 13 -19 21c0 22 12 23 23 23c45 0 86 -5 127 -5c40 0 80 5 122 5c11 0 24 -2 24 -22
c0 -19 -15 -22 -31 -23c-29 -4 -46 -9 -65 -94l-16 -71c-6 -26 -13 -49 -13 -74c0 -62 58 -62 67 -62c21 0 64 7 83 14c15 6 23 13 27 30l39 165c4 15 8 39 8 52c0 33 -21 38 -36 40c-11 1 -27 3 -27 22c0 22 15 23 24 23c46 0 86 -5 127 -5c39 0 79 5 122 5
c9 0 23 0 23 -22c0 -18 -14 -21 -19 -22l-21 -3c-36 -5 -45 -48 -52 -77l-104 -439c-8 -35 -9 -46 -9 -52c0 -13 6 -33 19 -36l18 -4c11 -2 26 -2 26 -22c0 -21 -15 -23 -23 -23c-44 0 -85 5 -127 5c-40 0 -80 -5 -123 -5c-10 0 -23 3 -23 22c0 18 14 21 19 22l22 3
c38 5 47 56 52 77z" />
    <glyph glyph-name="afii10042" unicode="&#x428;" horiz-adv-x="998" 
d="M35 124l104 439c4 16 8 39 8 52s-5 33 -18 36l-18 4c-11 2 -26 2 -26 22c0 22 13 23 23 23c45 0 86 -5 127 -5c39 0 78 5 122 5c8 0 24 -1 24 -22c0 -9 -5 -20 -20 -22l-21 -3c-36 -5 -45 -47 -52 -77l-115 -484c-4 -15 -4 -23 -4 -30c0 -13 10 -13 20 -13h133
c30 0 34 8 40 33l115 481c4 15 8 39 8 52c0 33 -21 38 -36 40c-11 1 -27 3 -27 22c0 22 15 23 23 23c46 0 86 -5 128 -5c40 0 80 5 122 5c10 0 23 -3 23 -22c0 -18 -14 -21 -19 -22l-22 -3c-38 -5 -47 -56 -52 -77l-116 -489c-1 -4 -3 -20 -3 -25c0 -4 5 -13 20 -13h134
c32 0 36 14 40 33l114 481c4 16 8 38 8 52c0 57 -62 33 -62 62c0 21 15 23 23 23c44 0 85 -5 127 -5c40 0 80 5 123 5c6 0 23 -1 23 -22c0 -12 -8 -21 -19 -22l-22 -3c-38 -5 -47 -56 -52 -77l-104 -439c-4 -16 -8 -39 -8 -52s5 -33 18 -36l18 -4c11 -2 26 -2 26 -22
c0 -22 -13 -23 -23 -23c-45 0 -85 5 -127 5c-45 0 -91 -5 -137 -5h-421c-39 0 -78 5 -117 5s-78 -5 -120 -5c-8 0 -26 0 -26 22c0 24 21 21 41 25c37 7 46 50 52 77z" />
    <glyph glyph-name="afii10043" unicode="&#x429;" horiz-adv-x="996" 
d="M35 124l104 439c4 15 8 40 8 52c0 13 -6 33 -19 36l-17 4c-11 2 -27 2 -27 22c0 22 15 23 24 23c46 0 86 -5 127 -5c39 0 79 5 122 5c9 0 23 0 23 -22c0 -18 -14 -21 -19 -22l-21 -3c-36 -5 -45 -47 -52 -77l-115 -484c-5 -23 -5 -27 -5 -30c0 -12 12 -13 20 -13h134
c33 0 36 16 40 33l114 481c7 29 8 37 8 39v13c-2 37 -20 38 -36 40c-11 1 -26 3 -26 22c0 21 15 23 23 23c44 0 85 -5 127 -5c40 0 80 5 123 5c10 0 23 -3 23 -22c0 -18 -14 -21 -19 -22l-22 -3c-38 -5 -47 -56 -52 -77l-116 -489c-1 -4 -3 -20 -3 -25c0 -4 5 -13 20 -13
h132c33 0 36 16 40 33l114 481c7 29 8 37 8 39v13c-2 37 -20 38 -36 40c-11 1 -26 3 -26 22c0 21 15 23 23 23c44 0 85 -5 127 -5c40 0 80 5 123 5c10 0 23 -3 23 -22c0 -18 -14 -21 -19 -22l-22 -3c-38 -5 -47 -56 -52 -77l-107 -451c-7 -28 -18 -74 33 -74c7 0 14 1 21 1
h12c5 0 10 -1 12 -7c1 -3 1 -7 0 -10c-5 -29 2 -2 -18 -72l-20 -69c-17 -58 -23 -80 -44 -80c-15 0 -18 9 -18 18v18v62c0 41 2 58 -5 71c-15 29 -57 17 -131 17h-491c-39 0 -78 5 -117 5c-41 0 -81 -5 -123 -5c-10 0 -23 3 -23 22c0 25 27 22 41 25c38 7 46 53 52 77z" />
    <glyph glyph-name="afii10044" unicode="&#x42a;" horiz-adv-x="681" 
d="M147 124l120 506c2 8 8 20 -15 20h-28c-61 0 -80 -28 -98 -62c-15 -29 -26 -71 -50 -71c-9 0 -20 5 -20 21c0 10 3 21 11 42c21 58 9 26 39 123l9 29c2 7 8 21 24 21c15 0 16 -15 17 -23l1 -6c3 -19 8 -24 53 -24h259c7 0 23 -1 23 -22c0 -18 -14 -21 -19 -22l-22 -3
c-35 -5 -43 -41 -52 -77l-38 -160c29 4 57 6 86 6c96 0 196 -25 196 -166c0 -106 -40 -256 -282 -256c-54 0 -109 5 -162 5c-39 0 -77 -5 -118 -5c-11 0 -27 0 -27 22c0 18 14 21 19 22l22 3c38 5 47 56 52 77zM349 365l-44 -186c-10 -43 -15 -59 -15 -85
c0 -43 32 -52 57 -52c71 0 148 68 148 205c0 35 -5 123 -106 123c-14 0 -27 -2 -40 -5z" />
    <glyph glyph-name="afii10045" unicode="&#x42b;" horiz-adv-x="881" 
d="M35 124l105 439c4 16 8 39 8 52s-5 33 -18 36l-18 4c-11 2 -26 2 -26 22c0 21 15 23 23 23c44 0 85 -5 127 -5c40 0 80 5 123 5c6 0 23 -1 23 -22c0 -12 -8 -21 -19 -22l-22 -3c-38 -5 -46 -52 -52 -77l-39 -160c29 4 57 6 86 6c96 0 196 -25 196 -166
c0 -106 -40 -256 -282 -256c-54 0 -109 5 -162 5c-40 0 -78 -5 -122 -5c-8 0 -24 1 -24 22c0 19 16 22 31 23c31 4 46 11 62 79zM238 365l-44 -186c-10 -43 -15 -59 -15 -85c0 -43 32 -52 57 -52c71 0 148 68 148 205c0 55 -17 123 -106 123c-14 0 -27 -2 -40 -5zM593 124
l104 439c4 16 8 39 8 52s-5 33 -18 36l-18 4c-11 2 -26 2 -26 22c0 22 13 23 23 23c45 0 86 -5 127 -5c39 0 78 5 122 5c8 0 24 -1 24 -22c0 -9 -5 -20 -20 -22l-21 -3c-36 -5 -45 -48 -52 -77l-104 -439c-4 -16 -8 -39 -8 -52s5 -33 18 -36l18 -4c11 -2 26 -2 26 -22
c0 -21 -15 -23 -23 -23c-44 0 -85 5 -127 5c-40 0 -80 -5 -123 -5c-6 0 -23 1 -23 22c0 12 8 21 19 22l22 3c38 5 47 56 52 77z" />
    <glyph glyph-name="afii10046" unicode="&#x42c;" horiz-adv-x="569" 
d="M35 124l104 439c7 29 8 37 8 39v13c-2 37 -20 38 -36 40c-11 1 -26 3 -26 22c0 21 15 23 23 23c44 0 85 -5 127 -5c40 0 80 5 123 5c10 0 23 -3 23 -22c0 -18 -14 -21 -19 -22l-22 -3c-38 -5 -46 -52 -52 -77l-39 -160c29 4 57 6 86 6c96 0 196 -25 196 -166
c0 -106 -40 -256 -282 -256c-54 0 -109 5 -162 5c-40 0 -79 -5 -122 -5c-9 0 -23 0 -23 22c0 18 14 21 19 22l21 3c39 6 48 55 53 77zM237 365l-44 -186c-10 -43 -15 -59 -15 -85c0 -43 32 -52 57 -52c71 0 148 68 148 205c0 35 -5 123 -106 123c-14 0 -27 -2 -40 -5z" />
    <glyph glyph-name="afii10047" unicode="&#x42d;" horiz-adv-x="594" 
d="M316 407h53c33 0 55 10 55 72c0 107 -43 194 -145 194c-46 0 -94 -24 -119 -64l-23 -38c-13 -21 -17 -34 -31 -34c-18 0 -19 18 -11 57l9 45c8 40 20 47 40 55c41 15 106 24 156 24c238 0 272 -194 272 -309c0 -256 -202 -427 -424 -427c-77 0 -141 23 -164 44
c-25 23 -17 62 -14 88l6 48c2 15 6 35 22 35s20 -12 22 -23c9 -48 16 -147 121 -147c103 0 216 79 252 285c8 45 -13 45 -17 45h-88c-21 0 -53 -3 -78 -47l-21 -37c-9 -15 -14 -35 -29 -35c-6 0 -15 4 -15 18c0 21 27 70 50 187c5 24 6 52 28 52c16 0 17 -20 19 -31l3 -20
c4 -26 18 -37 71 -37z" />
    <glyph glyph-name="afii10048" unicode="&#x42e;" horiz-adv-x="985" 
d="M247 400h108c35 184 183 318 347 318c158 0 261 -139 261 -320c0 -242 -166 -416 -354 -416c-176 0 -265 167 -265 327c0 14 1 27 3 41h-112l-51 -213c-4 -16 -8 -39 -8 -52c0 -22 8 -33 21 -36l17 -4c11 -3 25 -4 25 -22c0 -22 -15 -23 -24 -23c-46 0 -86 5 -127 5
c-39 0 -78 -5 -122 -5c-8 0 -24 1 -24 22c0 9 5 20 20 22l21 3c29 4 42 34 52 77l104 439c7 29 8 37 8 39v13c-2 37 -20 38 -36 40c-11 1 -26 3 -26 22c0 21 15 23 23 23c44 0 85 -5 127 -5c40 0 80 5 123 5c10 0 23 -3 23 -22c0 -18 -14 -21 -19 -22l-22 -3
c-38 -5 -46 -52 -52 -77zM492 214c0 -139 52 -187 103 -187c94 0 220 149 220 465c0 152 -61 181 -108 181c-120 0 -215 -222 -215 -459z" />
    <glyph glyph-name="afii10049" unicode="&#x42f;" horiz-adv-x="594" 
d="M307 124l41 176c2 7 1 12 1 20c0 5 -6 4 -10 4h-9c-16 0 -45 -12 -85 -80l-110 -187c-33 -56 -70 -57 -88 -57s-36 3 -54 3c-24 0 -47 -3 -72 -3c-19 0 -19 11 -19 17c0 14 -1 17 22 24c10 3 38 9 76 68l85 132c32 50 65 92 143 106v6c-69 3 -122 58 -122 154
c0 92 46 193 234 193c97 0 94 -5 167 -5c40 0 78 5 120 5c11 0 25 -1 25 -22c0 -25 -27 -22 -41 -25c-38 -8 -44 -42 -52 -77l-104 -439c-4 -15 -8 -39 -8 -52c0 -33 21 -38 36 -40c11 -1 27 -3 27 -22c0 -24 -18 -23 -25 -23c-45 0 -85 5 -126 5c-38 0 -77 -5 -119 -5
c-10 0 -26 0 -26 22c0 9 1 21 30 24c23 2 45 3 63 78zM373 405l45 190c11 48 -5 55 -33 55c-88 0 -136 -82 -136 -172c0 -106 64 -111 90 -111c17 0 26 3 34 38z" />
    <glyph glyph-name="afii10065" unicode="&#x430;" horiz-adv-x="555" 
d="M324 163l14 56l-4 1c-38 -80 -130 -238 -239 -238c-65 0 -81 68 -81 126c0 235 192 397 305 397c25 0 42 -6 59 -15l11 -6c2 -1 4 -1 5 -1c3 0 6 6 7 7l5 8c9 15 24 15 31 15h76c7 0 15 -1 15 -15c0 -13 -5 -27 -11 -49l-40 -156c-31 -122 -37 -161 -37 -183
c0 -16 7 -21 12 -21c17 0 41 40 61 71l7 11c3 5 6 7 12 7c8 0 9 -10 9 -15c0 -9 -5 -21 -12 -33l-10 -17c-28 -48 -107 -131 -172 -131c-15 0 -43 5 -43 52c0 29 13 102 20 129zM154 121c0 -24 10 -40 27 -40c8 0 40 1 101 101c35 58 97 178 97 245c0 26 -15 41 -34 41
c-95 0 -191 -235 -191 -347z" />
    <glyph glyph-name="afii10066" unicode="&#x431;" horiz-adv-x="533" 
d="M115 347l4 -2c38 86 120 161 232 161c98 0 161 -63 161 -169c0 -179 -161 -355 -321 -355c-112 0 -161 98 -161 202c0 128 66 292 133 391c100 148 201 169 294 177c67 6 87 2 99 13c7 6 10 18 19 18c5 0 20 -4 7 -54c-22 -82 -69 -97 -137 -106c-44 -6 -111 -8 -168 -29
c-84 -31 -137 -97 -162 -247zM171 158c0 -67 4 -141 49 -141c58 0 151 130 151 326c0 88 -22 128 -58 128c-66 0 -142 -118 -142 -313z" />
    <glyph glyph-name="afii10067" unicode="&#x432;" horiz-adv-x="495" 
d="M300 276v-5c31 6 148 22 148 -94c0 -100 -82 -195 -242 -195c-59 0 -184 14 -184 177c0 173 126 368 338 368c61 0 133 -12 133 -93c0 -97 -101 -132 -193 -158zM179 273c117 5 179 92 179 166c0 32 -8 53 -38 53c-60 0 -120 -102 -141 -219zM172 235
c-6 -33 -9 -70 -9 -106c0 -61 4 -112 51 -112c48 0 93 59 93 141c0 75 -34 90 -64 90c-18 0 -53 -8 -71 -13z" />
    <glyph glyph-name="afii10068" unicode="&#x433;" horiz-adv-x="400" 
d="M14 86c0 76 53 114 149 172c47 28 92 58 92 141c0 44 -20 69 -47 69c-32 0 -69 -29 -110 -79c-8 -9 -13 -16 -19 -16c-5 0 -11 3 -11 15c0 8 5 17 13 28c72 103 150 111 189 111c109 0 116 -75 116 -102c0 -58 -25 -89 -116 -150c-52 -35 -121 -75 -121 -169
c0 -42 20 -64 44 -64c47 0 101 55 130 89c7 8 13 14 18 14c4 0 10 -2 10 -12c0 -7 -3 -13 -6 -19c-20 -38 -90 -132 -205 -132c-50 0 -126 12 -126 104z" />
    <glyph glyph-name="afii10069" unicode="&#x434;" horiz-adv-x="519" 
d="M386 432l3 1c0 183 -95 276 -184 284c-10 1 -23 2 -23 15c0 18 11 18 27 18c180 0 292 -133 292 -358c0 -180 -127 -410 -303 -410c-143 0 -180 121 -180 197c0 137 108 317 272 317c20 0 71 -2 96 -64zM159 151c0 -108 33 -134 59 -134c59 0 142 135 142 314
c0 93 -19 130 -51 130c-66 0 -150 -135 -150 -310z" />
    <glyph glyph-name="afii10070" unicode="&#x435;" horiz-adv-x="468" 
d="M376 146l7 8c2 2 4 4 8 4c6 0 12 -3 12 -12c0 -11 -9 -24 -15 -33c-52 -77 -110 -131 -206 -131c-132 0 -164 116 -164 190c0 194 160 355 316 355c93 0 128 -62 128 -122c0 -99 -113 -190 -300 -193c-2 -14 -3 -27 -3 -41c0 -112 65 -114 80 -114c62 0 99 45 137 89z
M166 250c89 4 168 79 168 192c0 35 -14 50 -31 50c-52 0 -119 -117 -137 -242z" />
    <glyph glyph-name="afii10072" unicode="&#x436;" horiz-adv-x="950" 
d="M498 509h78c15 0 8 -18 7 -24l-72 -312l119 174c73 145 154 180 226 180c63 0 104 -31 104 -88c0 -47 -36 -64 -62 -64c-16 0 -39 10 -51 50l-7 24c-4 15 -6 36 -25 36c-47 0 -103 -193 -103 -308c0 -63 10 -114 62 -114c51 0 99 56 113 83c4 7 8 19 18 19
c6 0 12 -4 12 -13c0 -1 0 -7 -8 -26c-22 -55 -106 -144 -200 -144c-116 0 -119 132 -119 179c0 18 1 42 13 91l-96 -135c-18 -25 -23 -44 -28 -69l-7 -32c-2 -10 -3 -16 -16 -16h-78c-15 0 -8 18 -7 24l72 312l-119 -174c-47 -93 -112 -180 -226 -180c-63 0 -104 31 -104 88
c0 47 36 64 62 64c37 0 48 -41 51 -50l7 -25c4 -14 6 -35 25 -35c44 0 103 171 103 308c0 47 -5 114 -63 114c-49 0 -98 -57 -112 -83c-4 -7 -8 -19 -18 -19c-8 0 -12 6 -12 13c0 6 6 22 8 26c23 56 106 144 200 144c109 0 119 -115 119 -169c0 -24 0 -51 -13 -101l96 135
c18 25 23 44 28 69l7 32c2 10 3 16 16 16z" />
    <glyph glyph-name="afii10073" unicode="&#x437;" horiz-adv-x="441" 
d="M150 264l9 30c2 5 6 6 9 6h25c59 0 102 47 102 117c0 26 -8 63 -65 63c-20 0 -61 -7 -107 -59c-6 -7 -17 -21 -29 -21c-7 0 -16 4 -16 17c0 18 22 42 38 56c52 46 104 54 152 54c138 0 147 -78 147 -99c0 -82 -77 -138 -161 -147v-4c61 1 149 -17 149 -115
c0 -105 -97 -180 -243 -180c-115 0 -167 56 -167 101c0 40 23 79 48 79c12 0 35 -6 44 -53c7 -36 12 -92 74 -92c69 0 103 71 103 151c0 87 -52 89 -84 89h-23c-6 0 -6 4 -5 7z" />
    <glyph glyph-name="afii10074" unicode="&#x438;" horiz-adv-x="571" 
d="M540 492l-62 -264c-25 -105 -24 -124 -24 -131c0 -9 1 -15 10 -15c16 0 47 44 54 54c11 17 21 38 31 38c6 0 12 -4 12 -16c0 -6 -3 -15 -14 -35c-60 -107 -144 -141 -184 -141c-15 0 -45 4 -45 62s16 120 22 144l13 50h-3c-75 -159 -177 -256 -251 -256
c-26 0 -67 14 -67 88c0 54 27 129 39 165l49 145c6 18 13 33 13 49c0 11 -7 14 -11 14c-15 0 -39 -24 -58 -51l-14 -20c-5 -6 -12 -18 -20 -18c-4 0 -12 1 -12 14c0 3 2 21 36 64c54 67 116 95 162 95c39 0 52 -28 52 -67c0 -23 -5 -54 -12 -76l-68 -220
c-3 -11 -12 -36 -12 -51c0 -10 4 -21 14 -21c12 0 30 11 70 59c82 99 124 215 144 309l5 23c2 11 10 26 35 26h89c9 0 9 -8 7 -17z" />
    <glyph glyph-name="afii10075" unicode="&#x439;" horiz-adv-x="571" 
d="M540 492l-62 -264c-25 -105 -24 -124 -24 -131c0 -9 1 -15 10 -15c16 0 47 44 54 54c11 17 21 38 31 38c6 0 12 -4 12 -16c0 -6 -3 -15 -14 -35c-60 -107 -144 -141 -184 -141c-15 0 -45 4 -45 62s16 120 22 144l13 50h-3c-75 -159 -177 -256 -251 -256
c-26 0 -67 14 -67 88c0 7 0 43 20 109c6 19 13 37 19 56l49 145c8 24 12 31 12 39v10c0 2 1 5 0 7c-1 3 -5 7 -10 7c-52 0 -12 -89 -92 -89c-4 0 -12 1 -12 14c0 3 2 21 36 64c54 68 115 95 162 95c33 0 52 -29 52 -67c0 -33 -8 -63 -12 -76l-68 -220
c-3 -11 -12 -36 -12 -51c0 -10 4 -21 14 -21c12 0 30 11 70 59c82 99 124 215 144 309l5 23c2 11 10 26 35 26h89c9 0 9 -8 7 -17zM519 688c-35 -56 -111 -137 -192 -137c-59 0 -89 43 -89 73c0 37 43 92 72 92c17 0 13 -19 11 -31c-1 -7 -2 -13 -2 -20c0 -29 18 -46 44 -46
c20 0 70 11 132 87c4 5 10 12 17 12s13 -6 13 -13c0 -6 -3 -12 -6 -17z" />
    <glyph glyph-name="afii10076" unicode="&#x43a;" horiz-adv-x="527" 
d="M163 74l-11 -42c-9 -33 -16 -32 -34 -32h-80c-13 0 -17 9 -17 14c0 4 2 20 3 23l65 273c16 66 23 100 23 114c0 6 -1 15 -8 15c-21 0 -58 -63 -68 -78c-4 -6 -8 -11 -16 -11c-3 0 -10 2 -10 11c0 5 2 10 5 17c34 74 108 149 172 149c40 0 57 -27 57 -75
c0 -27 -7 -68 -14 -95l-30 -122l4 -2c150 267 241 294 279 294c50 0 70 -34 70 -69c0 -43 -27 -62 -51 -62c-33 0 -45 31 -49 43s-8 24 -24 24c-4 0 -41 -1 -139 -155c77 -33 101 -114 113 -170c10 -48 16 -99 51 -99c18 0 36 14 36 58c0 51 -13 31 -13 75c0 17 11 22 18 22
c11 0 29 -16 29 -75c0 -87 -48 -137 -123 -137c-69 0 -115 32 -117 176c-1 100 -5 112 -13 122c-78 -110 -97 -165 -108 -206z" />
    <glyph glyph-name="afii10077" unicode="&#x43b;" horiz-adv-x="485" 
d="M256 158l64 269c5 21 5 25 5 27c0 16 -15 16 -20 16h-15c-43 0 -46 -9 -54 -33c-19 -60 -41 -149 -75 -239c-41 -108 -80 -216 -170 -216c-43 0 -81 24 -81 79c0 50 33 70 59 70c39 0 44 -42 46 -60l2 -21c1 -6 3 -18 13 -18c33 0 97 145 137 298c20 77 21 105 21 114
c0 8 -1 27 -34 29l-22 1c-7 0 -18 2 -18 16c0 12 7 19 19 19h269c36 0 51 -15 51 -44c0 -19 -5 -39 -9 -55l-64 -273c-4 -18 -8 -32 -8 -44c0 -9 2 -17 9 -17c16 0 38 29 56 61l12 22c4 8 8 17 16 17c6 0 10 -7 10 -14c0 -4 -1 -10 -9 -29c-42 -95 -107 -151 -167 -151
c-40 0 -63 30 -63 74c0 34 11 64 20 102z" />
    <glyph glyph-name="afii10078" unicode="&#x43c;" horiz-adv-x="669" 
d="M226 456h-5c-14 -93 -36 -171 -66 -257c-56 -157 -98 -217 -164 -217c-43 0 -81 24 -81 79c0 50 33 70 59 70c20 0 43 -11 46 -60c1 -11 1 -36 15 -36c24 0 83 128 127 297c14 55 19 88 19 112c0 20 -8 28 -41 30c-18 0 -29 -2 -29 16c0 4 0 19 20 19h198
c14 0 24 -5 24 -34l3 -237l147 265c2 3 4 6 9 6h119c11 0 24 -6 18 -32l-80 -340c-4 -18 -8 -32 -8 -44c0 -8 2 -17 10 -17c22 0 57 60 67 83c3 6 7 17 17 17c3 0 9 -3 9 -11s-3 -18 -9 -32c-44 -98 -106 -151 -162 -151c-19 0 -68 7 -68 74c0 32 6 41 10 57l78 332h-5
l-243 -447c-4 -8 -8 -16 -17 -16c-8 0 -11 8 -11 14z" />
    <glyph glyph-name="afii10079" unicode="&#x43d;" horiz-adv-x="532" 
d="M24 37l64 273c13 56 23 98 23 115c0 7 -2 14 -8 14c-13 0 -49 -51 -58 -65c-7 -10 -16 -24 -25 -24c-5 0 -10 5 -10 16c0 10 6 20 12 29c53 83 114 132 167 132c30 0 53 -16 53 -76c0 -33 -4 -57 -13 -93l-17 -71c-1 -3 0 -4 3 -4h112c4 0 8 4 9 9l44 187
c4 15 7 30 25 30h85c11 0 24 -6 18 -32l-80 -340c-2 -8 -5 -17 -6 -25c-1 -6 -1 -12 -2 -19c0 -3 -1 -5 0 -8c1 -4 5 -9 9 -9c17 0 43 38 55 61l12 22c3 5 8 17 16 17c4 0 10 -2 10 -14c0 -5 -2 -13 -8 -28c-25 -60 -86 -152 -163 -152c-27 0 -67 12 -67 74c0 19 6 44 9 57
l27 112c2 7 3 14 -7 14h-104c-9 0 -10 -6 -12 -13l-45 -194c-7 -32 -19 -32 -35 -32h-80c-24 0 -16 25 -13 37z" />
    <glyph glyph-name="afii10080" unicode="&#x43e;" horiz-adv-x="546" 
d="M312 527c146 0 216 -130 216 -237c0 -146 -114 -308 -306 -308c-123 0 -204 92 -204 219c0 180 137 326 294 326zM321 492c-92 0 -162 -213 -162 -365c0 -91 34 -110 62 -110c72 0 166 166 166 368c0 88 -36 107 -66 107z" />
    <glyph glyph-name="afii10081" unicode="&#x43f;" horiz-adv-x="571" 
d="M38 17l62 264c9 39 24 115 24 131c0 9 -1 15 -9 15c-16 0 -36 -27 -68 -75c-10 -14 -15 -17 -18 -17c-4 0 -9 2 -11 8c-1 3 0 5 0 8c2 15 6 23 13 35c31 52 100 141 180 141c14 0 49 0 49 -62c0 -28 -3 -72 -22 -144l-13 -50h3c42 93 152 256 251 256c41 0 67 -31 67 -88
c0 -20 -3 -40 -7 -59c-8 -39 -20 -71 -32 -106l-49 -145c-11 -33 -12 -44 -12 -49c0 -13 6 -14 10 -14c22 0 52 39 72 71c5 8 12 18 22 18c5 0 11 -4 11 -13c0 -6 -3 -12 -8 -22c-30 -55 -102 -138 -188 -138c-34 0 -55 27 -55 67c0 35 7 56 13 76l68 220c4 12 11 42 11 52
c0 25 -9 26 -15 26c-57 0 -170 -178 -213 -374l-5 -23c-5 -24 -22 -26 -34 -26h-82c-5 0 -19 -1 -15 17z" />
    <glyph glyph-name="afii10082" unicode="&#x440;" horiz-adv-x="556" 
d="M-14 -118l135 572c-29 -9 -29 -8 -52 -15c-6 -2 -15 -4 -22 -2c-6 1 -5 6 -5 12c0 10 -1 26 12 30l16 5c20 6 43 12 62 16l24 101c5 22 13 27 33 29l76 8c29 3 25 -13 21 -29l-22 -93c50 10 79 11 103 11c71 0 171 -17 171 -178c0 -176 -112 -367 -276 -367
c-41 0 -85 9 -111 54l-33 -136c-9 -38 -11 -51 -11 -63c0 -39 33 -42 49 -45l21 -4c7 -1 15 -3 15 -19c0 -6 0 -22 -22 -22c-46 0 -92 10 -136 10c-47 0 -92 -10 -144 -10c-7 0 -20 1 -20 17c0 22 22 25 29 26c47 6 68 11 87 92zM254 473l-74 -316c-10 -42 -11 -62 -11 -71
c0 -51 39 -57 55 -57c89 0 173 194 173 347c0 97 -52 106 -87 106c-24 0 -45 -6 -56 -9z" />
    <glyph glyph-name="afii10083" unicode="&#x441;" horiz-adv-x="447" 
d="M334 427l-7 22c-5 17 -13 36 -33 36c-54 0 -135 -156 -135 -293c0 -87 36 -129 90 -129c41 0 92 23 134 83c5 7 11 19 21 19c6 0 13 -4 13 -13c0 -7 -6 -20 -9 -26c-29 -59 -124 -144 -235 -144c-96 0 -155 77 -155 194c0 199 156 351 326 351c114 0 113 -76 113 -88
c0 -37 -21 -64 -61 -64c-18 0 -47 6 -62 52z" />
    <glyph glyph-name="afii10084" unicode="&#x442;" horiz-adv-x="789" 
d="M24 37l65 273c4 15 22 94 22 115c0 7 -1 14 -7 14c-14 0 -47 -44 -59 -65c-4 -7 -13 -24 -25 -24c-5 0 -10 5 -10 16c0 8 4 17 11 29c31 52 100 132 168 132c23 0 51 -10 51 -60c0 -43 -11 -92 -15 -110l-14 -58l2 -1c72 196 153 229 204 229c59 0 65 -50 65 -87
c0 -43 -9 -93 -17 -130l-5 -24h4c20 48 108 241 227 241c62 0 66 -64 66 -88c0 -40 -9 -78 -19 -109c-6 -19 -13 -37 -19 -56l-50 -145c-4 -13 -12 -39 -12 -49c0 -12 7 -14 11 -14c22 0 53 45 72 71c6 8 13 18 20 18c5 0 11 -4 11 -14c0 -7 -4 -15 -7 -21
c-40 -76 -119 -138 -187 -138c-44 0 -56 39 -56 67c0 18 6 53 13 76l68 220c13 41 20 75 20 91c0 9 -2 21 -10 21c-46 0 -170 -269 -203 -401l-6 -24c-5 -18 -5 -32 -34 -32h-80c-13 0 -17 9 -17 14c0 4 2 20 3 23l43 181c8 32 37 158 39 206v15c0 9 -1 17 -9 17
c-45 0 -134 -202 -191 -406l-5 -18c-6 -20 -6 -32 -35 -32h-80c-13 0 -17 9 -17 14c0 4 1 9 4 23z" />
    <glyph glyph-name="afii10085" unicode="&#x443;" horiz-adv-x="494" 
d="M278 66c59 87 114 183 114 254c0 25 -3 43 -10 68c-6 20 -12 41 -12 63c0 50 31 76 56 76s54 -22 54 -79c0 -107 -106 -295 -165 -387c-84 -131 -203 -329 -341 -329c-33 0 -88 13 -88 72c0 47 32 66 59 66c21 0 34 -12 48 -28c16 -18 27 -42 53 -42c17 0 39 17 50 29
c57 61 60 155 60 219c0 52 -8 384 -58 384c-25 0 -46 -55 -51 -69c-3 -9 -7 -20 -19 -20c-9 0 -12 8 -12 15c0 8 8 27 11 34c29 66 87 135 153 135c56 0 100 -56 100 -370c0 -30 -1 -61 -2 -91z" />
    <glyph glyph-name="afii10086" unicode="&#x444;" horiz-adv-x="768" 
d="M376 469l5 23c38 176 155 273 241 273c56 0 93 -41 93 -94c0 -39 -22 -68 -54 -68s-53 23 -53 57c0 10 2 21 2 31c0 7 0 25 -15 25c-30 0 -65 -81 -95 -222l-7 -33c14 13 74 66 138 66c89 0 119 -99 119 -185c0 -210 -162 -360 -276 -360c-41 0 -68 21 -82 58l-8 -35
c-50 -221 -169 -274 -244 -274c-64 0 -103 43 -103 105c0 38 23 69 55 69c29 0 57 -20 57 -61c0 -25 -3 -13 -3 -43c0 -11 1 -28 20 -28c46 0 68 92 99 230l10 45c-25 -24 -82 -66 -138 -66c-61 0 -119 55 -119 183c0 212 166 362 276 362c41 0 68 -20 82 -58zM306 180
l41 171c5 20 8 33 8 60c0 57 -24 81 -47 81c-60 0 -150 -145 -150 -325c0 -65 15 -120 51 -120c22 0 69 14 97 133zM462 329l-40 -171c-5 -21 -8 -33 -8 -60c0 -57 24 -81 47 -81c66 0 149 146 149 324c0 66 -15 121 -49 121c-16 0 -69 -7 -99 -133z" />
    <glyph glyph-name="afii10087" unicode="&#x445;" horiz-adv-x="548" 
d="M240 210l-48 162c-10 34 -17 78 -44 78c-21 0 -31 -42 -34 -67c-2 -19 0 -41 -15 -41c-14 0 -13 18 -13 25c0 85 51 160 121 160c83 0 110 -93 132 -187c85 174 140 187 167 187c50 0 57 -50 57 -72c0 -61 -36 -106 -73 -106c-20 0 -40 16 -40 46c0 6 1 12 1 19
c0 5 1 18 -9 18c-5 0 -22 -3 -91 -135l25 -91c14 -51 28 -120 59 -120c26 0 27 44 28 61c1 11 4 25 15 25c10 0 13 -13 13 -27c0 -15 -2 -31 -5 -46c-11 -49 -45 -117 -115 -117c-65 0 -76 49 -120 185c-81 -150 -134 -185 -185 -185c-46 0 -68 36 -68 82
c0 66 38 104 73 104c30 0 45 -29 45 -52c0 -8 -2 -17 -5 -27l-3 -11c-1 -3 -1 -5 -1 -8c0 -11 9 -13 13 -13c20 0 62 37 120 153z" />
    <glyph glyph-name="afii10088" unicode="&#x446;" horiz-adv-x="571" 
d="M540 492l-62 -264c-25 -106 -24 -123 -24 -131c0 -14 7 -15 10 -15c20 0 46 45 68 78c4 6 9 13 17 13c10 0 18 -11 7 -30l-9 -15c-26 -44 -26 -62 -22 -119c1 -17 3 -35 3 -52c0 -40 -7 -134 -116 -207c-18 -12 -30 -7 -30 7c0 8 4 12 8 16l14 15c14 16 18 39 19 51
c1 11 1 21 0 32c-2 39 -8 77 61 174l-4 3c-22 -30 -60 -66 -114 -66c-49 0 -48 45 -48 62c0 52 16 121 22 144l13 50h-3c-37 -79 -150 -256 -251 -256c-35 0 -67 22 -67 88c0 54 27 129 39 165l49 145c8 24 12 31 12 39v10v6c-1 4 -5 8 -10 8c-24 0 -63 -59 -72 -71
c-6 -9 -13 -18 -20 -18s-12 5 -12 14c0 7 4 15 7 21c31 58 108 138 188 138c16 0 56 -5 56 -67c0 -25 -4 -46 -13 -76l-68 -220c-3 -11 -12 -36 -12 -51c0 -13 5 -21 15 -21c11 0 29 11 69 59c83 99 124 215 144 309l5 23c2 11 10 26 35 26h81c18 0 17 -8 15 -17z" />
    <glyph glyph-name="afii10089" unicode="&#x447;" horiz-adv-x="535" 
d="M236 384l-20 -64c-6 -19 -16 -48 -16 -65c0 -32 22 -33 34 -33c58 0 95 64 111 128l33 133c5 20 19 26 35 26h82c10 0 18 -3 15 -17l-66 -264c-26 -104 -26 -120 -26 -131c0 -13 5 -15 9 -15c16 0 44 35 55 53l14 22c4 7 12 17 18 17c4 0 11 -4 11 -16
c0 -20 -34 -64 -48 -82c-62 -78 -116 -94 -150 -94c-21 0 -47 6 -47 62c0 30 15 107 25 144l13 49l-2 1c-42 -55 -119 -96 -184 -96c-55 0 -82 22 -82 70c0 39 14 74 24 99l26 69c5 12 13 33 13 49c0 10 -3 14 -10 14c-15 0 -36 -18 -74 -71c-5 -7 -12 -18 -20 -18
c-4 0 -11 1 -11 14c0 8 3 14 7 21c30 55 106 138 190 138c38 0 54 -30 54 -67c0 -17 -1 -39 -13 -76z" />
    <glyph glyph-name="afii10090" unicode="&#x448;" horiz-adv-x="789" 
d="M506 472l-43 -181c-29 -121 -39 -177 -39 -211c0 -12 0 -26 12 -26c44 0 152 253 174 344l19 79c8 32 18 32 35 32h80c13 0 17 -9 17 -14s-1 -11 -4 -23l-64 -273c-18 -76 -23 -102 -23 -115c0 -7 1 -14 7 -14c5 0 16 4 38 33c16 21 33 56 46 56c4 0 10 -3 10 -16
s-6 -21 -11 -29c-51 -78 -113 -132 -165 -132c-37 0 -54 20 -54 60c0 17 2 46 16 110l13 58l-2 1c-62 -172 -139 -229 -203 -229c-60 0 -66 51 -66 87c0 17 2 57 18 135l4 19h-4c-43 -111 -129 -241 -223 -241c-61 0 -70 54 -70 88c0 53 15 97 38 165l50 145
c3 8 12 37 12 49c0 8 -2 14 -11 14c-24 0 -57 -51 -72 -71c-6 -8 -13 -18 -20 -18c-5 0 -11 4 -11 14c0 7 3 13 6 19c30 59 109 140 189 140c20 0 55 -8 55 -67c0 -18 -6 -54 -13 -76l-68 -220c-5 -17 -19 -69 -19 -91c0 -10 0 -19 9 -19c42 0 171 264 190 344l19 79
c8 32 15 32 35 32h80c11 0 16 -7 16 -14c0 -8 -1 -16 -3 -23z" />
    <glyph glyph-name="afii10091" unicode="&#x449;" horiz-adv-x="802" 
d="M507 472l-44 -181c-7 -28 -39 -176 -39 -211c0 -12 2 -26 12 -26c49 0 163 295 175 344l19 79c8 33 17 32 34 32h80c13 0 17 -9 17 -14c0 -4 -2 -20 -3 -23l-58 -244c-24 -100 -24 -124 -24 -131c0 -14 7 -15 10 -15c18 0 47 44 54 55l14 23c3 5 8 14 17 14
c7 0 13 -5 13 -16c0 -9 -7 -19 -15 -32c-23 -38 -27 -52 -22 -117c1 -17 3 -35 3 -52c0 -109 -62 -173 -115 -207c-19 -12 -31 -7 -31 7c0 8 4 12 8 16l15 15c11 11 17 36 18 51c1 11 1 21 0 32c-2 39 -8 77 61 174l-3 3c-46 -59 -92 -66 -115 -66c-21 0 -48 6 -48 62
c0 13 3 64 25 144l6 22l-3 1c-53 -147 -125 -229 -202 -229c-52 0 -67 39 -67 87c0 34 12 99 18 130l5 24h-4c-31 -73 -113 -241 -223 -241c-34 0 -71 17 -71 88c0 54 23 119 39 165l49 145c12 35 12 46 12 49c0 8 -2 14 -10 14c-25 0 -60 -54 -72 -71
c-6 -9 -13 -18 -20 -18s-12 5 -12 14c0 7 4 15 7 21c29 54 103 138 188 138c52 0 55 -50 55 -67c0 -30 -5 -50 -13 -76l-68 -220c-5 -17 -19 -69 -19 -91c0 -10 0 -19 9 -19c42 0 170 265 190 344l20 79c8 33 16 32 34 32h80c13 0 17 -9 17 -14c0 -4 -2 -20 -3 -23z" />
    <glyph glyph-name="afii10092" unicode="&#x44a;" horiz-adv-x="505" 
d="M286 432l-2 5c-46 -27 -63 -37 -101 -37c-14 0 -33 1 -45 4c-13 3 -32 10 -54 10c-12 0 -47 -3 -51 -51l-1 -13c-1 -8 -3 -25 -19 -25s-15 27 -15 36c0 114 58 166 113 166c48 0 129 -39 208 -52c14 16 48 52 77 52c19 0 39 -14 39 -40c0 -43 -51 -57 -97 -47
c-52 -73 -70 -123 -78 -147c43 15 69 21 104 21c109 0 129 -74 129 -130c0 -119 -116 -202 -245 -202c-133 0 -172 69 -172 146c0 125 90 206 210 304zM248 259c-28 -75 -34 -118 -36 -168v-20c1 -15 7 -54 46 -54c49 0 94 63 94 161c0 51 -11 90 -57 90
c-16 0 -35 -5 -47 -9z" />
    <glyph glyph-name="afii10093" unicode="&#x44b;" horiz-adv-x="715" 
d="M247 384l-29 -91c40 16 69 21 102 21c95 0 131 -57 131 -130c0 -119 -111 -202 -243 -202c-92 0 -171 31 -171 131c0 21 3 42 8 63c5 22 12 43 19 64l48 140c5 16 12 37 12 49c0 6 -1 14 -10 14c-25 0 -60 -54 -72 -71c-8 -11 -14 -18 -20 -18c-5 0 -17 2 -10 25
c15 48 103 148 191 148c37 0 58 -27 58 -67c0 -34 -11 -66 -14 -76zM206 259c-18 -53 -36 -126 -36 -176c0 -57 25 -66 46 -66c64 0 95 91 95 162c0 50 -15 89 -60 89c-15 0 -33 -5 -45 -9zM475 113l87 366c3 11 8 30 25 30h85c11 0 24 -6 18 -32l-80 -340
c-4 -18 -8 -32 -8 -44c0 -9 2 -17 9 -17c23 0 60 65 68 83c2 5 7 17 16 17c6 0 10 -7 10 -14c0 -17 -30 -71 -38 -84c-41 -63 -92 -96 -138 -96c-33 0 -63 19 -63 74c0 10 2 26 9 57z" />
    <glyph glyph-name="afii10094" unicode="&#x44c;" horiz-adv-x="462" 
d="M248 384l-30 -91c42 16 70 21 103 21c107 0 131 -75 131 -130c0 -93 -87 -202 -243 -202c-95 0 -172 30 -172 131c0 47 16 91 28 127l48 140c5 13 12 39 12 49c0 12 -7 14 -11 14c-22 0 -53 -45 -72 -71c-6 -9 -13 -18 -20 -18c-8 0 -17 5 -9 25c28 69 116 148 190 148
c57 0 58 -57 58 -67c0 -5 1 -35 -13 -76zM206 259c-14 -41 -35 -116 -35 -176c0 -50 15 -66 46 -66c68 0 94 98 94 161c0 15 1 90 -59 90c-13 0 -31 -3 -46 -9z" />
    <glyph glyph-name="afii10095" unicode="&#x44d;" horiz-adv-x="480" 
d="M268 527c96 0 194 -61 194 -206c0 -165 -113 -339 -301 -339c-95 0 -168 44 -168 101c0 40 26 79 49 79c12 0 35 -6 44 -53c7 -36 12 -92 74 -92c111 0 158 163 158 213c0 8 -1 18 -7 18c-5 0 -13 -9 -21 -17c-12 -12 -31 -23 -48 -23c-18 0 -38 15 -55 27s-28 17 -37 17
s-18 -4 -25 -8c-8 -4 -14 -8 -20 -8s-12 5 -12 14c0 10 8 20 17 28c29 28 60 52 86 52c19 0 38 -15 51 -25c23 -18 37 -27 49 -27c29 0 32 43 32 66c0 49 -4 136 -94 136c-23 0 -66 -7 -111 -59c-6 -7 -17 -21 -29 -21c-7 0 -16 4 -16 17c0 18 22 42 38 56
c29 26 77 54 152 54z" />
    <glyph glyph-name="afii10096" unicode="&#x44e;" horiz-adv-x="781" 
d="M24 37l65 273c4 15 22 94 22 115c0 7 -1 14 -7 14c-10 0 -32 -26 -37 -33l-28 -42c-4 -5 -10 -13 -18 -13c-5 0 -11 4 -11 15c0 22 31 59 44 75c62 75 108 86 135 86c53 0 53 -53 53 -79c0 -27 -2 -48 -13 -91l-17 -70c-1 -6 2 -9 5 -9h56c38 146 148 249 278 249
c140 0 212 -130 212 -237c0 -161 -128 -308 -302 -308c-119 0 -196 91 -196 219c0 13 1 25 2 38h-62c-4 0 -6 -5 -6 -7l-47 -200c-8 -32 -15 -32 -35 -32h-80c-13 0 -17 9 -17 14c0 4 1 9 4 23zM561 492c-87 0 -160 -216 -160 -365c0 -79 25 -110 60 -110
c76 0 161 185 161 367c0 40 -4 108 -61 108z" />
    <glyph glyph-name="afii10097" unicode="&#x44f;" horiz-adv-x="506" 
d="M263 113l29 124c-71 1 -88 -50 -126 -124c-56 -110 -76 -131 -137 -131c-44 0 -91 19 -91 43c0 11 11 21 25 17l7 -2c2 -1 5 -1 7 -1c21 0 30 20 52 68c32 67 53 129 155 137l-1 4c-43 3 -114 27 -114 119c0 88 68 160 231 160c159 0 166 -32 166 -66s-12 -86 -17 -105
l-51 -219c-2 -10 -9 -26 -9 -44c0 -12 7 -17 10 -17c22 0 58 66 67 83c2 5 8 17 16 17c4 0 10 -2 10 -14c0 -8 -5 -20 -8 -29c-19 -48 -84 -151 -166 -151c-30 0 -64 15 -64 74c0 24 4 36 9 57zM306 294l26 112c2 8 8 35 8 52c0 25 -19 34 -41 34c-86 0 -92 -102 -92 -132
c0 -85 40 -94 65 -94h9c17 0 22 16 25 28z" />
    <glyph glyph-name="Euro" unicode="&#x20ac;" horiz-adv-x="538" 
d="M547 572h-22c7 68 -31 99 -94 99c-103 0 -164 -94 -212 -247h243l-27 -43h-228c-2 -10 -6 -23 -8 -32c-2 -10 -6 -25 -8 -34h203l-27 -42h-184c-29 -157 5 -244 97 -244c55 0 113 27 140 99h22l-27 -88c-34 -32 -83 -57 -173 -57c-153 0 -205 101 -176 290h-66l26 42h45
c1 10 5 26 7 35c2 8 6 22 8 31h-61l26 43h49c63 187 153 294 317 294c94 0 130 -29 146 -55z" />
    </font>
</defs>
</svg>
