<?xml version="1.0" encoding="UTF-8"?>
<svg width="44px" height="30px" viewBox="0 0 44 30" version="1.1" xmlns="http://www.w3.org/2000/svg" xmlns:xlink="http://www.w3.org/1999/xlink">
    <!-- Generator: Sketch 55.2 (78181) - https://sketchapp.com -->
    <title>American Express</title>
    <desc>Created with Sketch.</desc>
    <g id="New" stroke="none" stroke-width="1" fill="none" fill-rule="evenodd">
        <g id="Desktop-/-Payment" transform="translate(-566.000000, -366.000000)">
            <g id="American-Express" transform="translate(566.988998, 366.000000)">
                <path d="M0,3.00001915 C0,1.34315432 1.34434391,0 2.99343724,0 L39.5765273,0 C41.229757,0 42.5699645,1.34731857 42.5699645,3.00001915 L42.5699645,26.9999809 C42.5699645,28.6568457 41.2256206,30 39.5765273,30 L2.99343724,30 C1.3402075,30 0,28.6526814 0,26.9999809 L0,3.00001915 Z" id="Rectangle-Copy-4" fill="#016FD0"></path>
                <g id="American_Express_logo_(2018)" transform="translate(0.000000, 7.173913)">
                    <path d="M8.26928571,15.5153894 L8.26928571,8.82339494 L15.314159,8.82339494 L16.0699976,9.81441726 L16.8508298,8.82339494 L42.4219808,8.82339494 L42.4219808,15.0538746 C42.4219808,15.0538746 41.75325,15.5086978 40.9798319,15.5153894 L26.8205578,15.5153894 L25.9683794,14.4604935 L25.9683794,15.5153894 L23.1758555,15.5153894 L23.1758555,13.7146501 C23.1758555,13.7146501 22.7943925,13.9660122 21.9696955,13.9660122 L21.0191885,13.9660122 L21.0191885,15.5153894 L16.7910716,15.5153894 L16.036313,14.5031129 L15.2699657,15.5153894 L8.26928571,15.5153894 Z" id="path3082" fill="#FFFFFF"></path>
                    <path d="M0.0424849945,3.77967738 L1.63113171,0.0545796389 L4.3785303,0.0545796389 L5.28010565,2.1412285 L5.28010565,0.0545796389 L8.69537537,0.0545796389 L9.23208363,1.56274757 L9.75240416,0.0545796389 L25.0834246,0.0545796389 L25.0834246,0.812784959 C25.0834246,0.812784959 25.8893628,0.0545796389 27.2138712,0.0545796389 L32.1882263,0.0720649503 L33.0742377,2.13140476 L33.0742377,0.0545796389 L35.9323133,0.0545796389 L36.71894,1.23750454 L36.71894,0.0545796389 L39.6032365,0.0545796389 L39.6032365,6.74656981 L36.71894,6.74656981 L35.9650897,5.55981199 L35.9650897,6.74656981 L31.7659429,6.74656981 L31.3436595,5.69167397 L30.2147873,5.69167397 L29.7993771,6.74656981 L26.9516623,6.74656981 C25.8119645,6.74656981 25.0834246,6.00384574 25.0834246,6.00384574 L25.0834246,6.74656981 L20.7897559,6.74656981 L19.937577,5.69167397 L19.937577,6.74656981 L3.97151981,6.74656981 L3.5495274,5.69167397 L2.42425497,5.69167397 L2.00524501,6.74656981 L0.0424849945,6.74656981 L0.0424849945,3.77967738 Z" id="path3080" fill="#FFFFFF"></path>
                    <path d="M2.19341657,0.879559876 L0.0506790329,5.89031086 L1.44571173,5.89031086 L1.84107343,4.88693088 L4.1394974,4.88693088 L4.53281074,5.89031086 L5.95857104,5.89031086 L3.81788175,0.879559876 L2.19341657,0.879559876 Z M2.98618827,2.04571306 L3.68677773,3.79906848 L2.28355061,3.79906848 L2.98618827,2.04571306 L2.98618827,2.04571306 Z" id="path3046" fill="#016FD0" fill-rule="nonzero"></path>
                    <polygon id="path3048" fill="#016FD0" points="6.10606322 5.88946907 6.10606322 0.878713813 8.08848232 0.886119004 9.24152464 4.11673539 10.3669564 0.878713813 12.3335222 0.878713813 12.3335222 5.88946907 11.0880304 5.88946907 11.0880304 2.19733362 9.76778287 5.88946907 8.67548389 5.88946907 7.35155502 2.19733362 7.35155502 5.88946907"></polygon>
                    <polygon id="path3050" fill="#016FD0" points="13.1857007 5.88946907 13.1857007 0.878713813 17.2499372 0.878713813 17.2499372 1.99954278 14.4443029 1.99954278 14.4443029 2.85664352 17.184385 2.85664352 17.184385 3.91153937 14.4443029 3.91153937 14.4443029 4.80160667 17.2499372 4.80160667 17.2499372 5.88946907"></polygon>
                    <path d="M17.9710112,0.879559876 L17.9710112,5.89031086 L19.216503,5.89031086 L19.216503,4.11017626 L19.7409204,4.11017626 L21.2342815,5.89031086 L22.7563217,5.89031086 L21.1175166,4.04424741 C21.7900923,3.98716376 22.4838701,3.40656767 22.4838701,2.50517252 C22.4838701,1.4507339 21.6610093,0.879559876 20.7426401,0.879559876 L17.9710112,0.879559876 L17.9710112,0.879559876 Z M19.216503,2.00038457 L20.6402147,2.00038457 C20.9817435,2.00038457 21.2301847,2.26908236 21.2301847,2.5278325 C21.2301847,2.86072428 20.9082874,3.05528042 20.6586515,3.05528042 L19.216503,3.05528042 L19.216503,2.00038457 L19.216503,2.00038457 Z" id="path3052" fill="#016FD0" fill-rule="nonzero"></path>
                    <polygon id="path3054" fill="#016FD0" points="24.2640224 5.88946907 22.9923097 5.88946907 22.9923097 0.878713813 24.2640224 0.878713813"></polygon>
                    <path d="M27.2794234,5.88946907 L27.0049236,5.88946907 C25.6767696,5.88946907 24.8703802,4.8370516 24.8703802,3.40469608 C24.8703802,1.93695545 25.6677411,0.878713813 27.3449756,0.878713813 L28.7215719,0.878713813 L28.7215719,2.06547164 L27.2946466,2.06547164 C26.6137821,2.06547164 26.1322597,2.5998889 26.1322597,3.41705801 C26.1322597,4.38745006 26.6828597,4.79501335 27.4760801,4.79501335 L27.8038407,4.79501335 L27.2794234,5.88946907 Z" id="path3056" fill="#016FD0"></path>
                    <path d="M29.9895968,0.879559876 L27.8468598,5.89031086 L29.2418924,5.89031086 L29.6372539,4.88693088 L31.9356781,4.88693088 L32.328991,5.89031086 L33.7547513,5.89031086 L31.6140624,0.879559876 L29.9895968,0.879559876 Z M30.782369,2.04571306 L31.482958,3.79906848 L30.0797313,3.79906848 L30.782369,2.04571306 Z" id="path3058" fill="#016FD0" fill-rule="nonzero"></path>
                    <polygon id="path3060" fill="#016FD0" points="33.9001953 5.88946907 33.9001953 0.878713813 35.4836905 0.878713813 37.5055662 4.0269202 37.5055662 0.878713813 38.751058 0.878713813 38.751058 5.88946907 37.2187755 5.88946907 35.1456871 2.65885269 35.1456871 5.88946907"></polygon>
                    <polygon id="path3062" fill="#016FD0" points="9.1214646 14.6582886 9.1214646 9.64753338 13.1857007 9.64753338 13.1857007 10.7683624 10.3800668 10.7683624 10.3800668 11.6254631 13.1201485 11.6254631 13.1201485 12.6803589 10.3800668 12.6803589 10.3800668 13.5704262 13.1857007 13.5704262 13.1857007 14.6582886"></polygon>
                    <polygon id="path3064" fill="#016FD0" points="29.0362221 14.6582886 29.0362221 9.64753338 33.1004586 9.64753338 33.1004586 10.7683624 30.2948243 10.7683624 30.2948243 11.6254631 33.0217959 11.6254631 33.0217959 12.6803589 30.2948243 12.6803589 30.2948243 13.5704262 33.1004586 13.5704262 33.1004586 14.6582886"></polygon>
                    <polygon id="path3066" fill="#016FD0" points="13.3434356 14.6582886 15.3222927 12.1838137 13.2963201 9.64753338 14.8654758 9.64753338 16.0720458 11.2154513 17.2827131 9.64753338 18.7904138 9.64753338 16.7910716 12.152911 18.7735715 14.6582886 17.2046639 14.6582886 16.0331245 13.115086 14.890058 14.6582886"></polygon>
                    <path d="M18.9215182,9.64837945 L18.9215182,14.6591304 L20.1997859,14.6591304 L20.1997859,13.0767867 L21.5108299,13.0767867 C22.6201586,13.0767867 23.4610076,12.484867 23.4610076,11.3337378 C23.4610076,10.3801474 22.8015254,9.64837945 21.6726621,9.64837945 L18.9215182,9.64837945 L18.9215182,9.64837945 Z M20.1997859,10.7815661 L21.580479,10.7815661 C21.9388595,10.7815661 22.1950308,11.0024869 22.1950308,11.3584617 C22.1950308,11.692879 21.9401527,11.9353573 21.5763822,11.9353573 L20.1997859,11.9353573 L20.1997859,10.7815661 Z" id="path3068" fill="#016FD0" fill-rule="nonzero"></path>
                    <path d="M24.0018135,9.64753338 L24.0018135,14.6582886 L25.2473053,14.6582886 L25.2473053,12.8781498 L25.7717227,12.8781498 L27.2650838,14.6582886 L28.7871241,14.6582886 L27.1483189,12.8122209 C27.8208942,12.7551287 28.5146725,12.1745412 28.5146725,11.2731418 C28.5146725,10.2187074 27.6918116,9.64753338 26.7734424,9.64753338 L24.0018135,9.64753338 L24.0018135,9.64753338 Z M25.2473053,10.7683624 L26.671017,10.7683624 C27.0125458,10.7683624 27.2609866,11.0370559 27.2609866,11.295806 C27.2609866,11.6287021 26.9390893,11.8232539 26.6894534,11.8232539 L25.2473053,11.8232539 L25.2473053,10.7683624 L25.2473053,10.7683624 Z" id="path3072" fill="#016FD0" fill-rule="nonzero"></path>
                    <path d="M33.6773177,14.6582886 L33.6773177,13.5704262 L36.1699404,13.5704262 C36.538759,13.5704262 36.698455,13.369969 36.698455,13.1501164 C36.698455,12.9394723 36.5392625,12.7265121 36.1699404,12.7265121 L35.0435527,12.7265121 C34.0644559,12.7265121 33.5191733,12.1265378 33.5191733,11.2257579 C33.5191733,10.4223267 34.0185198,9.64753338 35.4734482,9.64753338 L37.8988796,9.64753338 L37.3744618,10.7749514 L35.2767915,10.7749514 C34.8758092,10.7749514 34.7523738,10.9865784 34.7523738,11.1886722 C34.7523738,11.3963935 34.9049102,11.6254631 35.2112393,11.6254631 L36.3911789,11.6254631 C37.4826307,11.6254631 37.9562377,12.2481487 37.9562377,13.063583 C37.9562377,13.9402542 37.428484,14.6582886 36.3317619,14.6582886 L33.6773177,14.6582886 Z" id="path3074" fill="#016FD0"></path>
                    <path d="M38.24856,14.6582886 L38.24856,13.5704262 L40.7411809,13.5704262 C41.1100017,13.5704262 41.2696985,13.369969 41.2696985,13.1501164 C41.2696985,12.9394723 41.110503,12.7265121 40.7411809,12.7265121 L39.614795,12.7265121 C38.6356981,12.7265121 38.0904151,12.1265378 38.0904151,11.2257579 C38.0904151,10.4223267 38.5897616,9.64753338 40.04469,9.64753338 L42.4701205,9.64753338 L41.9457028,10.7749514 L39.8480333,10.7749514 C39.4470515,10.7749514 39.323616,10.9865784 39.323616,11.1886722 C39.323616,11.3963935 39.476152,11.6254631 39.7824811,11.6254631 L40.9624216,11.6254631 C42.0538738,11.6254631 42.5274795,12.2481487 42.5274795,13.063583 C42.5274795,13.9402542 41.9997267,14.6582886 40.903002,14.6582886 L38.24856,14.6582886 Z" id="path3076" fill="#016FD0"></path>
                </g>
            </g>
        </g>
    </g>
</svg>