<svg xmlns="http://www.w3.org/2000/svg" width="45" height="19" viewBox="0 0 45 19">
    <path fill="#FFF" fill-rule="nonzero" d="M8.222 2.45c-.527.641-1.37 1.148-2.215 1.075-.105-.868.308-1.79.791-2.359C7.326.506 8.248.036 8.996 0c.088.904-.255 1.79-.774 2.45zm.765 1.247c.475.036 1.846.18 2.725 1.519-.07.054-1.626.976-1.609 2.91.018 2.314 1.97 3.082 1.987 3.1-.018.055-.308 1.094-1.02 2.16-.624.94-1.265 1.863-2.285 1.88-.985.019-1.31-.605-2.444-.605-1.125 0-1.494.588-2.426.624-.984.036-1.731-.994-2.356-1.934C.285 11.452-.69 8 .628 5.667c.641-1.166 1.81-1.898 3.067-1.916.967-.018 1.855.66 2.444.66.58 0 1.626-.786 2.848-.714zm7.059-2.621h5.142c2.654 0 4.509 1.88 4.509 4.628 0 2.747-1.89 4.646-4.58 4.646h-2.944v4.817h-2.127V1.076zm2.127 1.844v5.595h2.443c1.855 0 2.91-1.022 2.91-2.802 0-1.781-1.055-2.793-2.9-2.793h-2.453zm11.41 12.356c-1.979 0-3.359-1.211-3.359-3.037 0-1.808 1.337-2.847 3.807-3.001l2.654-.163v-.777c0-1.148-.73-1.772-2.03-1.772-1.073 0-1.855.57-2.013 1.437h-1.917c.062-1.826 1.732-3.154 3.991-3.154 2.435 0 4.017 1.31 4.017 3.344v7.014h-1.969v-1.69h-.044c-.562 1.103-1.802 1.799-3.138 1.799zm.57-1.672c1.442 0 2.532-.94 2.532-2.26v-.795l-2.364.153c-1.328.082-2.022.597-2.022 1.483 0 .858.72 1.419 1.855 1.419zM37.362 19c-.158 0-.685-.018-.808-.054v-1.69c.132.018.457.036.624.036.94 0 1.468-.407 1.793-1.465l.193-.623-3.604-10.26h2.224l2.506 8.325h.043l2.506-8.325H45L41.264 15.72C40.412 18.186 39.436 19 37.361 19z"/>
</svg>
