<?xml version="1.0" encoding="UTF-8"?>
<svg width="44px" height="30px" viewBox="0 0 44 30" version="1.1" xmlns="http://www.w3.org/2000/svg" xmlns:xlink="http://www.w3.org/1999/xlink">
    <!-- Generator: Sketch 55.2 (78181) - https://sketchapp.com -->
    <title>Group 16</title>
    <desc>Created with Sketch.</desc>
    <defs>
        <filter x="-11.9%" y="-27.6%" width="124.9%" height="165.7%" filterUnits="objectBoundingBox" id="filter-1">
            <feOffset dx="0" dy="1" in="SourceAlpha" result="shadowOffsetOuter1"></feOffset>
            <feGaussianBlur stdDeviation="0.5" in="shadowOffsetOuter1" result="shadowBlurOuter1"></feGaussianBlur>
            <feComposite in="shadowBlurOuter1" in2="SourceAlpha" operator="out" result="shadowBlurOuter1"></feComposite>
            <feColorMatrix values="0 0 0 0 0   0 0 0 0 0   0 0 0 0 0  0 0 0 0.16 0" type="matrix" in="shadowBlurOuter1" result="shadowMatrixOuter1"></feColorMatrix>
            <feMerge>
                <feMergeNode in="shadowMatrixOuter1"></feMergeNode>
                <feMergeNode in="SourceGraphic"></feMergeNode>
            </feMerge>
        </filter>
    </defs>
    <g id="New" stroke="none" stroke-width="1" fill="none" fill-rule="evenodd">
        <g id="Desktop-/-Payment" transform="translate(-458.000000, -366.000000)" fill-rule="nonzero">
            <g id="Group-16" transform="translate(458.000000, 366.000000)">
                <g id="Group-14" transform="translate(-0.000000, -0.000000)">
                    <path d="M39.5573285,0 L3.89099356,0 C3.74244825,0 3.59364044,0 3.44535763,0.000934269868 C3.32001678,0.00189685094 3.19496468,0.00339734497 3.06991258,0.00707780203 C2.7971814,0.0150332515 2.52211402,0.0323880221 2.25279526,0.0845938899 C1.9791716,0.137705716 1.7245525,0.224338013 1.4761545,0.360741414 C1.23195641,0.49468174 1.00839034,0.669871495 0.814643577,0.878921456 C0.620818067,1.08797142 0.45838683,1.32870162 0.334227207,1.5923639 C0.207731387,1.86027286 0.127355749,2.13497652 0.0784531324,2.43031904 C0.0297867599,2.72087697 0.0135908851,3.0174935 0.00624105541,3.31133552 C0.00288113325,3.44621012 0.0014374167,3.58108472 0.000623685551,3.715931 C0,3.87620075 0,4.03635725 0,4.19691011 L0,25.8034013 C0,25.9639542 0,26.1238276 0.000623685551,26.2844087 C0.0014374167,26.419255 0.00288113325,26.5541296 0.00624105541,26.6890042 C0.0135908851,26.9825914 0.0297867599,27.279208 0.0784531324,27.569681 C0.127355749,27.8651367 0.207731387,28.1397271 0.334227207,28.4076644 C0.45838683,28.6713267 0.620818067,28.9123683 0.814643577,29.1211069 C1.00839034,29.3304966 1.23195641,29.505658 1.4761545,29.6392586 C1.7245525,29.77603 1.9791716,29.8626906 2.25279526,29.9157742 C2.52211402,29.9676403 2.7971814,29.9853065 3.06991258,29.9932619 C3.19496468,29.9963195 3.32001678,29.9981315 3.44535763,29.9987543 C3.59364044,30 3.74244825,30 3.89099356,30 L39.5573285,30 C39.7056113,30 39.8544191,30 40.0026757,29.9987543 C40.1277278,29.9981315 40.2527799,29.9963195 40.3784095,29.9932619 C40.6505632,29.9853065 40.9255781,29.9676403 41.1955531,29.9157742 C41.4688092,29.8626906 41.7234808,29.77603 41.9719051,29.6392586 C42.2163657,29.505658 42.4392755,29.3304966 42.633416,29.1211069 C42.8269265,28.9123683 42.9893577,28.6713267 43.1138324,28.4076644 C43.2406169,28.1397271 43.3209138,27.8651367 43.3695802,27.569681 C43.4182728,27.279208 43.4340749,26.9825914 43.441451,26.6890042 C43.4448634,26.5541296 43.4465434,26.419255 43.4471209,26.2844087 C43.4482759,26.1238276 43.4482759,25.9639542 43.4482759,25.8034013 L43.4482759,4.19691011 C43.4482759,4.03635725 43.4482759,3.87620075 43.4471209,3.715931 C43.4465434,3.58108472 43.4448634,3.44621012 43.441451,3.31133552 C43.4340749,3.0174935 43.4182728,2.72087697 43.3695802,2.43031904 C43.3209138,2.13497652 43.2406169,1.86027286 43.1138324,1.5923639 C42.9893577,1.32870162 42.8269265,1.08797142 42.633416,0.878921456 C42.4392755,0.669871495 42.2163657,0.49468174 41.9719051,0.360741414 C41.7234808,0.224338013 41.4688092,0.137705716 41.1955531,0.0845938899 C40.9255781,0.0323880221 40.6505632,0.0150332515 40.3784095,0.00707780203 C40.2527799,0.00339734497 40.1277278,0.00189685094 40.0026757,0.000934269868 C39.8544191,0 39.7056113,0 39.5573285,0 L39.5573285,0 Z" id="XMLID_96_" fill="#000000"></path>
                    <path d="M39.4859013,1.03448276 L39.9229027,1.03538648 C40.041284,1.03629021 40.1596653,1.03767403 40.2787001,1.04117597 C40.4857627,1.04721962 40.7279894,1.05933517 40.9537713,1.10305283 C41.1500363,1.14123517 41.3146407,1.19929945 41.4726043,1.28616993 C41.6285549,1.37176955 41.7714334,1.4839443 41.8961938,1.61851448 C42.0214249,1.75398837 42.1254006,1.90858168 42.2056897,2.07890543 C42.285665,2.2482125 42.3390777,2.42517298 42.3742156,2.63873429 C42.4145824,2.87997215 42.425746,3.14233456 42.4314193,3.36739011 C42.4346089,3.49441983 42.4361776,3.62144955 42.4367527,3.7515011 C42.4378508,3.90877734 42.4378508,4.06596886 42.4378508,4.22355575 L42.4378508,25.7767548 C42.4378508,25.9343417 42.4378508,26.0912508 42.4367266,26.2518878 C42.4361776,26.3788893 42.4346089,26.505919 42.4313932,26.6331747 C42.425746,26.8578913 42.4145824,27.1201125 42.3737189,27.3642028 C42.3390777,27.574827 42.2856911,27.7518157 42.2052714,27.92197 C42.1252176,28.0918701 42.0213987,28.246294 41.8967167,28.3809206 C41.7712503,28.5164793 41.6288425,28.6283151 41.4710357,28.7147055 C41.3142485,28.8011524 41.1499318,28.8591602 40.9556014,28.8969471 C40.7252442,28.9412861 40.4728736,28.9534864 40.2828048,28.9590499 C40.1632209,28.9619588 40.0442122,28.9637097 39.9223014,28.964331 C39.7770177,28.9655172 39.6312111,28.9655172 39.4859013,28.9655172 L3.96240068,28.9655172 C3.960466,28.9655172 3.95858362,28.9655172 3.9566228,28.9655172 C3.81298618,28.9655172 3.66906197,28.9655172 3.52281093,28.9643028 C3.40356691,28.9637097 3.28458434,28.961987 3.16954955,28.9591629 C2.97514076,28.9534864 2.72261326,28.9413143 2.49413848,28.8972295 C2.29813489,28.8591602 2.13381815,28.8011524 1.97496557,28.7135758 C1.81864898,28.627948 1.67634572,28.5162251 1.55082708,28.3804123 C1.42627578,28.2460963 1.32277061,28.0921525 1.242743,27.9219982 C1.16263696,27.7520134 1.10904121,27.5744881 1.07379873,27.3613504 C1.03306596,27.1177402 1.02187621,26.856564 1.01628134,26.6333724 C1.01309174,26.5055801 1.01175838,26.3778161 1.01100019,26.2507864 L1.01042502,25.8757691 L1.01042502,25.7767548 L1.01042502,4.22355575 L1.01042502,4.12454148 L1.01097405,3.75031496 C1.01175838,3.62252272 1.01309174,3.49475873 1.01628134,3.36707945 C1.02187621,3.1436619 1.03306596,2.88237267 1.07413861,2.63672915 C1.10906735,2.42551188 1.16263696,2.24798657 1.24316131,2.07715447 C1.32256146,1.90829926 1.42624963,1.75415782 1.55145454,1.6189381 C1.67616271,1.48417024 1.81893657,1.37213669 1.97624664,1.28571807 C2.13339985,1.1992712 2.29803031,1.14123517 2.4940339,1.10313755 C2.71986811,1.05930693 2.96225163,1.04721962 3.16983714,1.04114772 C3.2881661,1.03767403 3.40649507,1.03629021 3.52393513,1.03541472 L3.96240068,1.03448276 L39.4859013,1.03448276" id="XMLID_227_" fill="#FFFFFF"></path>
                </g>
                <g id="Group-13" filter="url(#filter-1)" transform="translate(5.052125, 8.275862)" fill="#000000">
                    <g id="XMLID_44_">
                        <path d="M6.10803657,1.87889066 C6.47262101,1.39180067 6.72002502,0.737740118 6.65478332,0.0693860387 C6.12107971,0.0977510513 5.46983192,0.445486123 5.09277594,0.932992431 C4.75422582,1.35044659 4.45457129,2.031873 4.53267426,2.67222288 C5.13177546,2.72773171 5.73033103,2.35235324 6.10803657,1.87889066" id="XMLID_46_"></path>
                        <path d="M6.64797594,2.79725652 C5.77793071,2.74188646 5.03821299,3.32470143 4.62270313,3.32470143 C4.20701139,3.32470143 3.57075541,2.82514971 2.88261267,2.8386106 C1.98694884,2.85265433 1.15587715,3.39361564 0.70134178,4.25397477 C-0.233503448,5.97516484 0.454639294,8.52826577 1.36373601,9.93005803 C1.80522823,10.6235854 2.33726897,11.3871926 3.03835092,11.3597435 C3.70074515,11.3319891 3.96036087,10.9016013 4.76552815,10.9016013 C5.57009783,10.9016013 5.80396504,11.3597435 6.50515092,11.3458663 C7.23229318,11.3319891 7.68688051,10.6520059 8.12837273,9.9578402 C8.63482085,9.16725568 8.84213408,8.40389823 8.85517723,8.36198907 C8.84213408,8.34811186 7.45306528,7.7788688 7.44017803,6.072 C7.42705694,4.64281413 8.53076151,3.96302523 8.58270024,3.92086627 C7.95943545,2.93616737 6.9855907,2.82514971 6.64797594,2.79725652" id="XMLID_45_"></path>
                    </g>
                    <g id="XMLID_35_" transform="translate(11.114675, 1.034483)">
                        <path d="M4.10919148,0.030875 C6.10653978,0.030875 7.49749336,1.43644397 7.49749336,3.48285129 C7.49749336,5.53657112 6.07805328,6.94950862 4.05924405,6.94950862 L1.84778045,6.94950862 L1.84778045,10.539694 L0.249874365,10.539694 L0.249874365,0.030875 L4.10919148,0.030875 Z M1.84778045,5.58025 L3.68112555,5.58025 C5.07221634,5.58025 5.86393798,4.81565948 5.86393798,3.49016379 C5.86393798,2.16480819 5.07221634,1.40736207 3.68826089,1.40736207 L1.84778045,1.40736207 L1.84778045,5.58025 Z" id="XMLID_41_"></path>
                        <path d="M7.89391678,8.36236207 C7.89391678,7.0149569 8.89975372,6.24299784 10.7543951,6.12655819 L12.744608,6.00263793 L12.744608,5.42010345 C12.744608,4.56801509 12.1953235,4.10192026 11.2181103,4.10192026 C10.4119259,4.10192026 9.82699207,4.52430819 9.7057735,5.17245905 L8.26473528,5.17245905 C8.30765713,3.81056897 9.563094,2.82024353 11.2608949,2.82024353 C13.0870773,2.82024353 14.2783783,3.79611207 14.2783783,5.31080819 L14.2783783,10.539694 L12.8016908,10.539694 L12.8016908,9.27992672 L12.766069,9.27992672 C12.3451658,10.1028211 11.4177628,10.6197672 10.4119259,10.6197672 C8.92821278,10.6197672 7.89391678,9.71679957 7.89391678,8.36236207 Z M12.744608,7.68501724 L12.744608,7.09503017 L10.9683732,7.21160991 C9.96969901,7.27708621 9.44903823,7.65579526 9.44903823,8.3185431 C9.44903823,8.95938147 9.99115994,9.374625 10.8399918,9.374625 C11.9242352,9.374625 12.744608,8.66803017 12.744608,7.68501724 Z" id="XMLID_38_"></path>
                        <path d="M15.6359056,13.3508319 L15.6359056,12.0910647 C15.7358004,12.1054095 15.978265,12.1200065 16.1066189,12.1200065 C16.8129085,12.1200065 17.2123507,11.8143384 17.4549525,11.0276983 L17.597632,10.5616034 L14.8939941,2.91491379 L16.5631713,2.91491379 L18.4464639,9.11952802 L18.4820857,9.11952802 L20.3653782,2.91491379 L21.991908,2.91491379 L19.1883753,10.947625 C18.5463587,12.7900668 17.8115826,13.3946509 16.2564612,13.3946509 C16.1352426,13.3946509 15.742826,13.3800539 15.6359056,13.3508319 Z" id="XMLID_36_"></path>
                    </g>
                </g>
            </g>
        </g>
    </g>
</svg>