<?xml version="1.0" encoding="UTF-8"?>
<svg width="43px" height="30px" viewBox="0 0 43 30" version="1.1" xmlns="http://www.w3.org/2000/svg" xmlns:xlink="http://www.w3.org/1999/xlink">
    <!-- Generator: Sketch 55.2 (78181) - https://sketchapp.com -->
    <title>Dinerclub </title>
    <desc>Created with Sketch.</desc>
    <defs>
        <linearGradient x1="70.7519601%" y1="82.3896035%" x2="32.4763686%" y2="17.6103965%" id="linearGradient-1">
            <stop stop-color="#009BE0" offset="0%"></stop>
            <stop stop-color="#006BA8" offset="100%"></stop>
        </linearGradient>
    </defs>
    <g id="New" stroke="none" stroke-width="1" fill="none" fill-rule="evenodd">
        <g id="Desktop-/-Payment" transform="translate(-892.000000, -366.000000)">
            <g id="Dinerclub-" transform="translate(892.403806, 366.000000)">
                <path d="M0.25,2.99670441 L0.25,26.5599458 C0.25,28.0736425 1.48111175,29.3066502 2.99562817,29.3066502 L39.1275751,29.3066502 C40.6434047,29.3066502 41.8732033,28.0766392 41.8732033,26.5599458 L41.8732033,2.99670441 C41.8732033,1.48300779 40.6420915,0.25 39.1275751,0.25 L2.99562817,0.25 C1.47979857,0.25 0.25,1.48001108 0.25,2.99670441 Z" id="Rectangle-Copy-23" stroke="#919191" stroke-width="0.5" fill="#FFFFFF"></path>
                <g id="Shape-+-Shape" transform="translate(10.216791, 6.000000)">
                    <path d="M12.4532183,17.1089115 C17.0560539,17.1312821 21.2572483,13.2953556 21.2572483,8.62879835 C21.2572483,3.52565832 17.0560539,-0.00169670031 12.4532183,6.12274398e-07 L8.49193939,6.12274398e-07 C3.83396996,-0.00169670031 0,3.52671065 0,8.62879835 C0,13.296374 3.83396996,17.131316 8.49193939,17.1089115 L12.4532183,17.1089115 L12.4532183,17.1089115 Z" id="Shape" fill="url(#linearGradient-1)"></path>
                    <path d="M8.50831245,0.712871287 C4.25198429,0.714229137 0.802948389,4.21917963 0.801945957,8.54498444 C0.802948389,12.8700424 4.25195088,16.3746535 8.50831245,16.3760113 C12.7656431,16.3746535 16.2153807,12.8700424 16.2159821,8.54498444 C16.2153472,4.21917963 12.7656431,0.714229137 8.50831245,0.712871287 L8.50831245,0.712871287 Z M3.62345915,8.54498444 L3.62345915,8.54498444 C3.62746888,6.43115134 4.92695547,4.62860537 6.75940198,3.91230552 L6.75940198,13.1765771 C4.92695547,12.4606846 3.62743546,10.6591231 3.62345915,8.54498444 L3.62345915,8.54498444 Z M10.2565546,13.1786139 L10.2565546,13.1786139 L10.2565546,3.912 C12.0896694,4.6265686 13.3911609,6.43013296 13.3945023,8.54498444 C13.3911609,10.6604809 12.0896694,12.4626874 10.2565546,13.1786139 L10.2565546,13.1786139 Z" id="Shape" fill="#F4F6F7"></path>
                </g>
            </g>
        </g>
    </g>
</svg>