<svg xmlns="http://www.w3.org/2000/svg" width="35" height="16" viewBox="0 0 35 16">
    <defs>
        <filter id="a" width="124.2%" height="157.1%" x="-12.1%" y="-28.6%" filterUnits="objectBoundingBox">
            <feOffset dy="1" in="SourceAlpha" result="shadowOffsetOuter1"/>
            <feGaussianBlur in="shadowOffsetOuter1" result="shadowBlurOuter1" stdDeviation=".5"/>
            <feComposite in="shadowBlurOuter1" in2="SourceAlpha" operator="out" result="shadowBlurOuter1"/>
            <feColorMatrix in="shadowBlurOuter1" result="shadowMatrixOuter1" values="0 0 0 0 0 0 0 0 0 0 0 0 0 0 0 0 0 0 0.16 0"/>
            <feMerge>
                <feMergeNode in="shadowMatrixOuter1"/>
                <feMergeNode in="SourceGraphic"/>
            </feMerge>
        </filter>
    </defs>
    <g fill="#000" fill-rule="nonzero" filter="url(#a)" transform="translate(1)">
        <path d="M6.045 1.816c.36-.47.606-1.103.541-1.749-.528.027-1.173.364-1.546.835-.335.403-.631 1.062-.554 1.681.593.054 1.185-.31 1.559-.767M6.58 2.704c-.862-.054-1.594.51-2.005.51-.411 0-1.041-.483-1.722-.47-.887.014-1.709.536-2.159 1.368C-.23 5.776.45 8.244 1.35 9.6c.437.67.963 1.409 1.657 1.382.656-.027.913-.443 1.71-.443.796 0 1.027.443 1.721.43.72-.014 1.17-.671 1.607-1.342.5-.764.706-1.502.719-1.543-.013-.013-1.388-.563-1.4-2.213-.014-1.382 1.079-2.04 1.13-2.08-.617-.952-1.58-1.059-1.915-1.086"/>
        <g>
            <path d="M15.067 1.03c1.977 0 3.353 1.359 3.353 3.337 0 1.985-1.405 3.35-3.403 3.35H12.83v3.471h-1.582V1.03h3.82zm-2.238 5.364h1.814c1.377 0 2.16-.739 2.16-2.02 0-1.281-.783-2.014-2.153-2.014H12.83v4.034zM18.812 9.084c0-1.303.996-2.05 2.831-2.162l1.97-.12V6.24c0-.823-.544-1.274-1.51-1.274-.798 0-1.377.408-1.497 1.035h-1.427c.043-1.316 1.285-2.274 2.966-2.274 1.807 0 2.986.944 2.986 2.408v5.054H23.67V9.971h-.036c-.416.795-1.334 1.295-2.33 1.295-1.468 0-2.492-.873-2.492-2.182zm4.801-.655v-.57l-1.758.112c-.988.064-1.503.43-1.503 1.07 0 .62.536 1.021 1.376 1.021 1.073 0 1.885-.683 1.885-1.633zM26.475 13.906v-1.218c.098.014.338.028.465.028.7 0 1.095-.295 1.335-1.056l.141-.45-2.676-7.392h1.652l1.864 5.998h.035l1.864-5.998h1.61l-2.775 7.765c-.635 1.78-1.362 2.365-2.901 2.365-.12 0-.509-.014-.614-.042z"/>
        </g>
    </g>
</svg>
