<?xml version="1.0" encoding="UTF-8"?>
<svg width="44px" height="30px" viewBox="0 0 44 30" version="1.1" xmlns="http://www.w3.org/2000/svg" xmlns:xlink="http://www.w3.org/1999/xlink">
    <!-- Generator: Sketch 55.2 (78181) - https://sketchapp.com -->
    <title>Group 5</title>
    <desc>Created with Sketch.</desc>
    <defs>
        <polygon id="path-1" points="0 0.0376854791 12.2477984 0.0376854791 12.2477984 9.74999191 0 9.74999191"></polygon>
    </defs>
    <g id="New" stroke="none" stroke-width="1" fill="none" fill-rule="evenodd">
        <g id="Desktop-/-Payment" transform="translate(-946.000000, -366.000000)">
            <g id="Group-5" transform="translate(946.000000, 366.000000)">
                <path d="M0.25,3.00001915 L0.25,26.9999809 C0.25,28.5161176 1.48235758,29.75 2.99918464,29.75 L40.3864007,29.75 C41.9026395,29.75 43.1355854,28.5176303 43.1355854,26.9999809 L43.1355854,3.00001915 C43.1355854,1.48388239 41.9032278,0.25 40.3864007,0.25 L2.99918464,0.25 C1.48294585,0.25 0.25,1.48236969 0.25,3.00001915 Z" id="Rectangle-Copy-23" stroke="#919191" stroke-width="0.5" fill="#FFFFFF"></path>
                <g id="Group-3" transform="translate(4.729930, 10.500000)">
                    <mask id="mask-2" fill="white">
                        <use xlink:href="#path-1"></use>
                    </mask>
                    <g id="Clip-2"></g>
                    <path d="M3.03251043,9.74999191 L0.00370947563,9.74999191 L0.00370947563,3.36734253 C0.00370947563,2.30576577 0.00656911483,1.24414855 -8.42654905e-06,0.182612241 C-0.000801504507,0.0537180498 0.0373404436,0.0371713693 0.151887118,0.0376854791 C1.20874532,0.042390249 2.2656438,0.0404483402 3.32250201,0.0404483402 C3.35560938,0.106068672 3.42504625,0.0895624481 3.47744612,0.103843568 C4.13290764,0.28249917 4.56177297,0.689531328 4.74325937,1.35257178 C4.83565391,1.69009979 4.93239832,2.02641411 5.02724973,2.36325436 C5.33673519,3.46201058 5.64670397,4.56060498 5.95482002,5.65968485 C5.98007346,5.74974087 6.00713934,5.81163921 6.12321652,5.81115373 C6.2346619,5.81058734 6.26889702,5.7609473 6.29382824,5.66587469 C6.36072768,5.41059461 6.43636715,5.157661 6.50801924,4.90367552 C6.84569832,3.70656971 7.18325658,2.50938299 7.52081483,1.31223672 C7.67656448,0.75968278 8.02878342,0.389263693 8.55572229,0.176746058 C8.68863509,0.123141286 8.83697384,0.118286515 8.96122718,0.0404483402 L12.2477984,0.0404483402 L12.2477984,9.74999191 L9.21899747,9.74999191 C9.2153323,9.65864129 9.20852555,9.56733112 9.20852555,9.47602095 C9.20804224,7.71264647 9.20780058,5.94927199 9.20977413,4.18589751 C9.20989496,4.06100851 9.21110326,3.95986743 9.03545697,3.98523361 C8.94016251,3.99902925 8.93077806,4.06153444 8.91043838,4.12759979 C8.55870275,5.27037261 8.20587967,6.41286224 7.85547317,7.55603963 C7.63149495,8.28680415 7.41106108,9.018661 7.18905641,9.74999191 L5.06245149,9.74999191 C5.05818217,9.72891411 5.05568502,9.70735083 5.04944214,9.68692033 C4.7383859,8.67328444 4.42684633,7.65972946 4.11566925,6.64609357 C3.85652956,5.80213195 3.59807456,4.95796805 3.33808905,4.11424917 C3.31996458,4.05546598 3.31215092,3.99101888 3.2222938,3.98215892 C3.08527278,3.96860602 3.03782694,4.00788921 3.03826998,4.15648568 C3.04350594,5.9512139 3.04181432,7.74590166 3.04137128,9.54058942 C3.041331,9.61041722 3.03561172,9.68016411 3.03251043,9.74999191" id="Fill-1" fill="#4DB35D" mask="url(#mask-2)"></path>
                </g>
                <path d="M28.0600152,20.25 L24.9674652,20.25 C24.9676297,18.3777156 24.9679175,16.5053906 24.9677942,14.6331063 C24.9677942,14.4628875 24.9284382,14.4339219 24.7668606,14.4589875 C24.6800883,14.472475 24.6728504,14.5405625 24.6474356,14.5967469 C23.9568757,16.1217688 23.2662748,17.64675 22.5776889,19.172625 C22.3542192,19.6680062 21.9959029,20.014375 21.4664682,20.1780531 C21.4211903,20.1920687 21.370484,20.198325 21.3485236,20.25 L18.2559735,20.25 C18.2516144,20.1856094 18.2434306,20.1212187 18.2433895,20.0567875 C18.2427319,16.9301656 18.2425259,13.8035031 18.2430605,10.6768813 C18.2430605,10.6179344 18.251491,10.5589875 18.2559735,10.5 L21.3485236,10.5 C21.3477834,12.3782156 21.3467552,14.2564313 21.3479067,16.1346469 C21.3479479,16.1906281 21.3101957,16.2785 21.4158441,16.2867875 C21.5052073,16.2938563 21.5995877,16.3146563 21.6504996,16.1960719 C21.7509252,15.9623156 21.8629068,15.7334344 21.9693777,15.5022781 C22.5750569,14.1877344 23.1816409,12.8735969 23.7854284,11.5582406 C24.0017835,11.0867875 24.3420463,10.74895 24.8393217,10.571825 C24.8764981,10.5585813 24.9318515,10.5610188 24.9345657,10.5 L28.0600152,10.5 C28.0634697,10.5645938 28.0699673,10.6292281 28.0699673,10.6938219 C28.0703786,13.8200375 28.0702243,16.9462125 28.0697206,20.0723875 C28.0696794,20.1315781 28.0633874,20.1908094 28.0600152,20.25" id="Fill-4" fill="#4DB35D"></path>
                <path d="M39.1261533,14.2272379 C39.1069885,14.2450307 39.0696334,14.2647915 39.0713388,14.2803752 C39.0940767,14.4874216 38.9509904,14.4572985 38.8234146,14.4572182 C37.1794247,14.456214 35.5352724,14.4687453 33.8914042,14.4527198 C31.9169029,14.4334409 30.4387777,13.5622392 29.4705091,11.8569074 C29.2302996,11.4338177 29.0892841,10.9736966 28.9915518,10.5 L36.2677166,10.5 C36.285176,10.5385576 36.3266727,10.5498438 36.3583433,10.554543 C36.9737686,10.6455149 37.4986078,10.9084298 37.9728146,11.3095095 C38.4891676,11.7462149 38.8206536,12.2822061 39.0092156,12.9183268 C39.05258,13.0646048 39.0555441,13.2209239 39.1261533,13.3596912 L39.1261533,14.2272379 Z" id="Fill-6" fill="#02A8DE"></path>
                <path d="M29.2986609,20.25 C29.3014292,20.1923263 29.3065993,20.1346527 29.3065993,20.0770185 C29.3072099,18.4709653 29.3097339,16.8649516 29.3035461,15.2588984 C29.3029354,15.1020734 29.3504843,15.0701159 29.503756,15.0703125 C32.5480631,15.0748562 35.5924109,15.0738291 38.6367179,15.0739081 C38.8448256,15.0739476 38.853741,15.0800705 38.7681286,15.2584638 C38.1881385,16.4673984 37.2177022,17.1567566 35.8402511,17.2139957 C34.7568864,17.258989 33.6700206,17.2293227 32.5847832,17.2227652 C32.4183215,17.2217777 32.3762277,17.2645589 32.3776119,17.423754 C32.3854281,18.3188412 32.3811129,19.2140469 32.3816828,20.1092526 C32.3817235,20.1561421 32.388807,20.2031105 32.392593,20.25 L29.2986609,20.25 Z" id="Fill-8" fill="#4DB35D"></path>
            </g>
        </g>
    </g>
</svg>