<?xml version="1.0" encoding="UTF-8"?>
<svg width="45px" height="30px" viewBox="0 0 45 30" version="1.1" xmlns="http://www.w3.org/2000/svg" xmlns:xlink="http://www.w3.org/1999/xlink">
    <!-- Generator: Sketch 55.2 (78181) - https://sketchapp.com -->
    <title>Group 7</title>
    <desc>Created with Sketch.</desc>
    <g id="New" stroke="none" stroke-width="1" fill="none" fill-rule="evenodd">
        <g id="Desktop-/-Payment" transform="translate(-836.000000, -366.000000)">
            <g id="Group-7" transform="translate(836.800476, 366.000000)">
                <g id="Group-2">
                    <rect id="Rectangle" fill="#FFFFFF" x="0" y="0.231065469" width="44.0636475" height="29.5378691" rx="4"></rect>
                    <path d="M30.2141632,0.231065469 C28.8205936,0.280562009 27.1164837,1.5353718 26.8061169,3.08265651 L22.0960386,26.9130235 C21.7856716,28.4747564 22.630026,29.7455499 23.988351,29.7689345 L41.0589988,29.7689345 C42.718957,29.7689345 44.0639998,28.422999 44.0632413,26.7741343 L44.0524092,3.22586568 C44.0516484,1.57188319 42.6991009,0.231065469 41.0486373,0.231065469 L30.2141632,0.231065469 Z" id="path22" fill="#01798A"></path>
                    <path d="M0,3.22586568 C0,1.57188319 1.3421519,0.231065469 3.00000535,0.231065469 L19.7526696,0.231065469 L19.7526696,29.7689345 L3.00000535,29.7689345 C1.34314815,29.7689345 0,28.422999 0,26.7741343 L0,3.22586568 Z" id="Rectangle-19" fill="#DD0228"></path>
                    <path d="M27.0389347,3.08530791 C27.3462798,1.53817677 29.0337961,0.283491654 30.3887224,0.235566685 L26.46728,0.232631966 L17.2215909,0.231065469 C15.862886,0.263146902 14.1533782,1.52663618 13.8461509,3.08530791 L9.18055639,26.9133073 C8.87207684,28.4748849 9.70943063,29.7455522 11.0536828,29.7689345 L24.2486009,29.7689345 C22.9035007,29.7455522 22.0673671,28.4748849 22.3747122,26.9133073 L27.0389347,3.08530791 Z" id="path20" fill="#024381"></path>
                    <path d="M34.1873127,0.203688006 L29.6290043,0.193196406 L34.1612694,0.215682006 C34.1698844,0.215682006 34.1785017,0.203689206 34.1873127,0.203689206" id="path14" fill="#E02F41"></path>
                    <path d="M29.6290043,0.226191606 L21.3362357,0.193196406 C21.315394,0.193196406 21.2937499,0.203688006 21.2721057,0.214198806 L29.6290043,0.226192806" id="path18" fill="#2E4F7D"></path>
                </g>
                <g id="Group-4" transform="translate(3.798590, 7.804878)" fill="#FFFFFF">
                    <path d="M14.3594435,9.82207267 L14.5551203,9.82207267 C14.7349272,9.82207267 14.8558947,9.76096576 14.9126029,9.63996789 L15.4210538,8.86920387 L16.7826637,8.86920387 L16.4987303,9.37615283 L18.1313074,9.37615283 L17.9242119,10.152896 L15.9815681,10.152896 C15.7578278,10.4938351 15.4824093,10.6541207 15.151249,10.6351242 L14.1393793,10.6351242 L14.3594432,9.82207267 L14.3594435,9.82207267 Z M14.1358956,10.9353253 L17.7126627,10.9353253 L17.4846625,11.7790767 L16.0462147,11.7790767 L15.8267319,12.5935007 L17.2264701,12.5935007 L16.9984699,13.4371721 L15.5987317,13.4371721 L15.2735701,14.6406258 C15.1930535,14.8417857 15.2989259,14.9322405 15.5894418,14.9117147 L16.7302128,14.9117147 L16.5188576,15.6957306 L14.3286699,15.6957306 C13.913508,15.6957306 13.7710958,15.455185 13.9013155,14.9729783 L14.3170551,13.4371721 L13.422322,13.4371721 L13.6496062,12.5935007 L14.5444741,12.5935007 L14.7637655,11.7790767 L13.9084768,11.7790767 L14.1358957,10.9353253 L14.1358956,10.9353253 Z M19.8447885,8.86345901 L19.7884654,9.35739068 C19.7884654,9.35739068 20.4631735,8.84430572 21.0759471,8.84430572 L23.3402653,8.84430572 L22.4743316,12.0193076 C22.4025237,12.3822824 22.0945905,12.5627802 21.5507186,12.5627802 L18.9842723,12.5627802 L18.3831134,14.7922435 C18.3484675,14.9117122 18.3974358,14.9729758 18.5269181,14.9729758 L19.0318843,14.9729758 L18.8462724,15.6650102 L17.5624691,15.6650102 C17.0696966,15.6650102 16.8647276,15.5149191 16.9460191,15.2134234 L18.6447881,8.86345901 L19.8447858,8.86345901 L19.8447882,8.86345901 L19.8447885,8.86345901 Z M21.7622676,9.76096576 L19.7412384,9.76096576 L19.4994971,10.617676 C19.4994971,10.617676 19.8360774,10.3715436 20.3985291,10.3627405 C20.9594309,10.3538406 21.5996868,10.3627405 21.5996868,10.3627405 L21.7622676,9.76096576 L21.7622676,9.76096576 Z M21.0300763,11.7483564 C21.1794947,11.7688822 21.2631065,11.708991 21.2731713,11.5676432 L21.3968488,11.1160384 L19.3727244,11.1160384 L19.2029825,11.7483564 L21.0300763,11.7483564 L21.0300763,11.7483564 Z M19.6647877,12.7741542 L20.8314958,12.7741542 L20.8098186,13.2855327 L21.1204618,13.2855327 C21.2774289,13.2855327 21.3552357,13.2346218 21.3552357,13.1341496 L21.447171,12.8033262 L22.4168461,12.8033262 L22.2873636,13.2855327 C22.1778148,13.6877354 21.8874928,13.8975607 21.4156225,13.9180864 L20.7941401,13.9180864 L20.7912364,14.7922436 C20.7798177,14.9322381 20.904849,15.0035982 21.1622688,15.0035982 L21.7463978,15.0035982 L21.5578799,15.6957308 L20.1567877,15.6957308 C19.764078,15.7146484 19.5714987,15.5251142 19.5755624,15.1230671 L19.6647877,12.7741543 L19.6647877,12.7741542 Z" id="path24"></path>
                    <path d="M5.52693779,4.63344921 C5.36869247,5.41883871 5.00186199,6.02206492 4.43284923,6.45043856 C3.86900529,6.87155984 3.14174844,7.08275778 2.25136963,7.08275778 C1.41344218,7.08275778 0.799140426,6.86710997 0.407127799,6.43436299 C0.135250893,6.12688921 -5.79980508e-13,5.7364092 -5.79980508e-13,5.26429796 C-5.79980508e-13,5.06909685 0.0230706145,4.85927153 0.0691156888,4.63344937 L1.01779163,1.56835278e-07 L2.45058861,1.56835278e-07 L1.51482279,4.58098751 C1.48602269,4.70778874 1.47452609,4.82580738 1.47603577,4.93217978 C1.47452609,5.16682405 1.53204825,5.35910442 1.64856447,5.50911641 C1.81830593,5.73211585 2.09380234,5.8427827 2.47718195,5.8427827 C2.91804595,5.8427827 3.28131592,5.73358633 3.56325763,5.51348849 C3.84525725,5.29493908 4.02935998,4.98464132 4.11206274,4.58098736 L5.05077126,5.03597164e-13 L6.47630957,5.03597164e-13 L5.52693779,4.63344921" id="path28"></path>
                    <path d="M11.5442293,2.81061699 L12.6663626,2.81061699 L11.7873836,6.94584071 L10.6674571,6.94584071 L11.5442293,2.81061699 M11.8974545,1.30408145 L13.0295746,1.30408145 L12.8181047,2.30782478 L11.6860613,2.30782478 L11.8974545,1.30408145" id="path34"></path>
                    <path d="M13.6596512,6.63109308 C13.3661549,6.34698674 13.2179744,5.96378073 13.2165426,5.4771229 C13.2165426,5.39401976 13.221536,5.29936997 13.2324137,5.19583926 C13.2432323,5.09091696 13.2569167,4.98891554 13.2762715,4.89426576 C13.4093358,4.22258116 13.6927672,3.68928412 14.1293146,3.29582473 C14.5651851,2.90097374 15.091056,2.70279324 15.706731,2.70279324 C16.2109245,2.70279324 16.610793,2.84561153 16.9036314,3.13118836 C17.1962758,3.4182741 17.3429868,3.80577346 17.3429868,4.29841156 C17.3429868,4.38278772 17.3365981,4.48043745 17.3257607,4.58534046 C17.3127922,4.69171302 17.2971159,4.79371443 17.2789213,4.8942656 C17.1488576,5.55575562 16.866278,6.0832493 16.4296324,6.46943611 C15.9929893,6.85846461 15.468666,7.05211619 14.8572484,7.05211619 C14.3509285,7.05211619 13.9524114,6.91229768 13.6596512,6.63109293 M15.7980851,5.81221905 C15.995893,5.59512099 16.1375691,5.26574789 16.2238907,4.82725731 C16.2368592,4.75879878 16.2482779,4.68736101 16.2554392,4.61598174 C16.2626003,4.54599407 16.265504,4.48043729 16.265504,4.42070284 C16.265504,4.16568966 16.2014408,3.9675868 16.0727309,3.82767136 C15.944796,3.68630442 15.7628604,3.61645444 15.5276991,3.61645444 C15.2168622,3.61645444 14.9636998,3.7270424 14.7653131,3.94859034 C14.5651851,4.17013953 14.423509,4.50523694 14.3342814,4.95109829 C14.3220877,5.01955682 14.3120252,5.08809299 14.3027329,5.15510127 C14.2955718,5.22355981 14.2934429,5.28766634 14.2947991,5.34593014 C14.2947991,5.59949323 14.3588623,5.79477197 14.4875722,5.93313914 C14.6155071,6.07160448 14.7966677,6.14006286 15.0349266,6.14006286 C15.3471197,6.14006286 15.6002796,6.0307876 15.7980851,5.8122189" id="path36"></path>
                    <path d="M24.6234898,9.85708619 L24.8940696,8.89255202 L26.2620681,8.89255202 L26.203035,9.24650834 C26.203035,9.24650834 26.9021303,8.89255202 27.405549,8.89255202 L29.0971592,8.89255202 L28.8283207,9.85708619 L28.5621921,9.85708619 L27.286129,14.406137 L27.5522575,14.406137 L27.2990974,15.3095451 L27.0329689,15.3095451 L26.9222601,15.7014741 L25.5974225,15.7014741 L25.7079399,15.3095451 L23.0942667,15.3095451 L23.3489765,14.406137 L23.6108476,14.406137 L24.8880708,9.85708619 L24.6234899,9.85708619 L24.6234898,9.85708619 Z M26.0994873,9.85708619 L25.7512945,11.0882388 C25.7512945,11.0882388 26.347036,10.8566721 26.860517,10.7911152 C26.9739382,10.361192 27.1221942,9.85708603 27.1221942,9.85708603 L26.0994871,9.85708603 L26.0994873,9.85708619 Z M25.59007,11.6653514 L25.2407149,12.9548673 C25.2407149,12.9548673 25.9009068,12.6255731 26.3540034,12.5978515 C26.484842,12.099471 26.6158745,11.6653516 26.6158745,11.6653516 L25.59007,11.6653516 L25.59007,11.6653514 Z M25.8461337,14.406137 L26.1080023,13.4707162 L25.0868451,13.4707162 L24.8236179,14.406137 L25.8461337,14.406137 L25.8461337,14.406137 Z M29.1548362,8.83283687 L30.4409619,8.83283687 L30.4955438,9.31351662 C30.4870264,9.43588711 30.5588343,9.49432673 30.7113503,9.49432673 L30.9385755,9.49432673 L30.7086403,10.3087507 L29.7633524,10.3087507 C29.4023849,10.3276683 29.2167706,10.1879095 29.1995469,9.88617919 L29.1548362,8.83283687 L29.1548362,8.83283687 Z M28.7779988,10.5798398 L32.9439263,10.5798398 L32.699475,11.4541345 L31.3730898,11.4541345 L31.1456708,12.2670281 L32.4707021,12.2670281 L32.224701,13.139893 L30.7488974,13.139893 L30.415027,13.6514487 L31.1373497,13.6514487 L31.3041879,14.6756967 C31.3241215,14.7776981 31.4133493,14.827238 31.5658651,14.827238 L31.7901867,14.827238 L31.5544441,15.6707538 L30.7603184,15.6707538 C30.3488352,15.6912795 30.136126,15.5513831 30.1187063,15.2498108 L29.927287,14.3143877 L29.2699987,15.3095452 C29.114579,15.5907307 28.875739,15.7219233 28.5536773,15.7014742 L27.3409047,15.7014742 L27.5768387,14.8577239 L27.955226,14.8577239 C28.1106457,14.8577239 28.2399344,14.7877949 28.3564508,14.6465057 L29.385159,13.139893 L28.0587737,13.139893 L28.3045811,12.2670281 L29.7432228,12.2670281 L29.9719955,11.4541345 L28.532,11.4541345 L28.7779988,10.5798398 L28.7779988,10.5798398 Z" id="path26"></path>
                    <path d="M6.8467608,2.80916674 L7.85872616,2.80916674 L7.74298476,3.40655008 L7.88822381,3.23609013 C8.21626789,2.88060466 8.61470585,2.70424443 9.08512416,2.70424443 C9.5109298,2.70424443 9.8180326,2.82961454 10.0108256,3.08162811 C10.2006572,3.33373969 10.2524511,3.68201122 10.1626445,4.12932391 L9.60512963,6.94729206 L8.56509964,6.94729206 L9.06855598,4.39306134 C9.12042794,4.12932407 9.10606652,3.93259367 9.02607327,3.8057733 C8.94706635,3.67903183 8.79592424,3.61645444 8.57802803,3.61645444 C8.31046771,3.61645444 8.08531345,3.700851 7.90190704,3.86848824 C7.71772689,4.03749668 7.59623727,4.27214111 7.53650835,4.57079388 L7.07259201,6.94729206 L6.03039429,6.94729206 L6.8467608,2.80916674" id="path30"></path>
                    <path d="M18.4520178,2.80916674 L19.4648539,2.80916674 L19.3498874,3.40655008 L19.4935008,3.23609013 C19.8217575,2.88060466 20.2216283,2.70424443 20.6905949,2.70424443 C21.1164005,2.70424443 21.4241423,2.82961454 21.6153655,3.08162811 C21.8040748,3.33373969 21.8586567,3.68201122 21.7665276,4.12932391 L21.211237,6.94729206 L20.1697564,6.94729206 L20.6733686,4.39306134 C20.7250444,4.12932407 20.710722,3.93259367 20.6315617,3.8057733 C20.5494974,3.67903183 20.401239,3.61645444 20.1842725,3.61645444 C19.9165963,3.61645444 19.6922726,3.700851 19.5066607,3.86848824 C19.3224027,4.03749668 19.200275,4.27214111 19.1427895,4.57079388 L18.6767266,6.94729206 L17.6358248,6.94729206 L18.4520175,2.80916674" id="path32"></path>
                    <path d="M23.4583293,0.244661775 L26.3987116,0.244661775 C26.9640646,0.244661775 27.4012889,0.374442393 27.7018696,0.629298899 C28.0010941,0.887292728 28.1509001,1.25742295 28.1509001,1.73969003 L28.1509001,1.75419709 C28.1509001,1.84594591 28.1449014,1.9494556 28.136384,2.06159435 C28.1218679,2.17235765 28.1030944,2.28449451 28.0789009,2.40114053 C27.9494183,3.03935988 27.6486439,3.552288 27.1841287,3.94131666 C26.7178721,4.32887577 26.1656791,4.52415467 25.5298744,4.52415467 L23.9530368,4.52415467 L23.4654904,6.94729096 L22.1002019,6.94729096 L23.4583291,0.244661932 M24.1932303,3.35853856 L25.5010357,3.35853856 C25.8418735,3.35853856 26.1122596,3.27827852 26.3094838,3.11954244 C26.5051628,2.95925683 26.6346454,2.71451601 26.7064509,2.3823213 C26.717872,2.32095954 26.7250331,2.26567512 26.7337418,2.2147032 C26.7381931,2.16667286 26.7438066,2.11844632 26.7438066,2.07198292 C26.7438066,1.8343784 26.66058,1.66244969 26.4935479,1.55462579 C26.3267097,1.44523196 26.0650346,1.39288993 25.7023235,1.39288993 L24.5917448,1.39288993 L24.19323,3.35853856" id="path38"></path>
                    <path d="M34.2616,7.74730592 C33.8299869,8.67684555 33.4186974,9.21878905 33.1771498,9.4708815 C32.9352147,9.72015014 32.4563771,10.3000865 31.3026377,10.2562903 L31.4019279,9.54676945 C32.3727654,9.24368578 32.8978614,7.87826296 33.1970858,7.27366554 L32.8403758,2.82081172 L33.591343,2.81061824 L34.2213404,2.81061824 L34.2890822,5.60386437 L35.4699189,2.81061824 L36.6654653,2.81061824 L34.2615998,7.74730592" id="path40"></path>
                    <path d="M30.9186392,3.14718504 L30.4436715,3.47800839 C29.9474141,3.08462804 29.4943176,2.84125952 28.6198688,3.25210735 C27.4285798,3.8115958 26.4331636,8.10279154 29.7130278,6.68937728 L29.8999958,6.91374918 L31.1903789,6.94729222 L32.0377327,3.04808538 L30.9186392,3.1471852 M30.184898,5.27892217 C29.9776088,5.89822395 29.514641,6.30762152 29.152126,6.19107352 C28.7896109,6.07742713 28.6601262,5.47994577 28.8701252,4.85927137 C29.077223,4.23852044 29.5432858,3.83057327 29.9028971,3.9471404 C30.2654146,4.0607868 30.3962532,4.65817014 30.184898,5.27892217" id="path42"></path>
                </g>
            </g>
        </g>
    </g>
</svg>