<svg xmlns="http://www.w3.org/2000/svg" width="45" height="31" viewBox="0 0 45 31">
    <defs>
        <filter id="a" width="118.6%" height="127.6%" x="-9.3%" y="-13.8%" filterUnits="objectBoundingBox">
            <feOffset dy="1" in="SourceAlpha" result="shadowOffsetOuter1"/>
            <feGaussianBlur in="shadowOffsetOuter1" result="shadowBlurOuter1" stdDeviation=".5"/>
            <feComposite in="shadowBlurOuter1" in2="SourceAlpha" operator="out" result="shadowBlurOuter1"/>
            <feColorMatrix in="shadowBlurOuter1" result="shadowMatrixOuter1" values="0 0 0 0 0 0 0 0 0 0 0 0 0 0 0 0 0 0 0.16 0"/>
            <feMerge>
                <feMergeNode in="shadowMatrixOuter1"/>
                <feMergeNode in="SourceGraphic"/>
            </feMerge>
        </filter>
    </defs>
    <g fill="none" fill-rule="nonzero" filter="url(#a)" transform="translate(1)">
        <path fill="#000" d="M39.15 0H3.41c-.124.002-.248.003-.372.007-.27.008-.542.024-.808.075A2.59 2.59 0 0 0 .807.85a2.713 2.713 0 0 0-.476.69 2.972 2.972 0 0 0-.253.81c-.049.28-.065.567-.072.851-.003.13-.005.26-.005.391L0 4.057v21.351c.001.13.003.261.006.391.007.284.023.57.072.852.048.285.128.55.253.81.123.255.283.488.475.69a2.575 2.575 0 0 0 1.424.768c.266.05.538.067.808.074L3.41 29l.44.001h35.3l.44-.001c.124 0 .247-.003.372-.006.27-.007.541-.024.809-.074a2.577 2.577 0 0 0 1.423-.768c.191-.202.352-.435.475-.69.125-.26.205-.525.253-.81.048-.281.064-.568.071-.852.004-.13.005-.26.006-.39l.001-.466V4.057l-.001-.465c0-.13-.002-.26-.006-.391a5.944 5.944 0 0 0-.07-.852 2.954 2.954 0 0 0-.254-.81 2.73 2.73 0 0 0-.475-.69A2.593 2.593 0 0 0 40.77.083a5.146 5.146 0 0 0-.81-.075A17.612 17.612 0 0 0 39.59 0L39.15 0z"/>
        <path fill="#FFF" d="M39.079 1h.432l.352.006c.205.006.445.018.668.06a1.66 1.66 0 0 1 .933.498c.124.132.227.281.306.446.08.163.132.334.167.54.04.234.051.488.057.705.003.123.004.246.005.371l.001.457v20.835l-.001.459c0 .123-.002.245-.005.368-.006.218-.017.471-.057.707a1.944 1.944 0 0 1-.167.54c-.08.163-.182.313-.306.443a1.652 1.652 0 0 1-.931.499 4.41 4.41 0 0 1-.666.06c-.118.003-.236.004-.357.005L39.08 28H3.916l-.43-.001c-.118 0-.235-.002-.35-.005a4.418 4.418 0 0 1-.668-.06 1.73 1.73 0 0 1-.513-.178 1.646 1.646 0 0 1-.42-.322 1.735 1.735 0 0 1-.305-.443 1.967 1.967 0 0 1-.167-.542 5.027 5.027 0 0 1-.057-.703 19.035 19.035 0 0 1-.005-.37L1 25.013V3.625c.001-.123.003-.247.006-.37.005-.216.016-.469.057-.706.035-.204.088-.376.167-.541a1.74 1.74 0 0 1 .305-.443 1.659 1.659 0 0 1 .933-.499 4.33 4.33 0 0 1 .67-.06c.116-.003.233-.004.35-.005L3.922 1h35.157"/>
    </g>
</svg>
