<?xml version="1.0" encoding="UTF-8"?>
<svg width="43px" height="30px" viewBox="0 0 43 30" version="1.1" xmlns="http://www.w3.org/2000/svg" xmlns:xlink="http://www.w3.org/1999/xlink">
    <!-- Generator: Sketch 55.2 (78181) - https://sketchapp.com -->
    <title>JCB </title>
    <desc>Created with Sketch.</desc>
    <defs>
        <linearGradient x1="100%" y1="43.9848873%" x2="3.38051762%" y2="43.984887%" id="linearGradient-1">
            <stop stop-color="#43C311" offset="0%"></stop>
            <stop stop-color="#288C00" offset="100%"></stop>
        </linearGradient>
        <path d="M3.53942406,0 C3.33349936,0.000580175726 3.12813097,0.00763898039 2.92600768,0.0308460094 L2.92600768,0.0308460094 C2.13522347,0.121450119 1.3912614,0.51935397 0.856932713,1.13327658 L0.856932713,1.13327658 C0.460567079,1.58871453 0.185382705,2.15274203 0.068651867,2.7558347 L0.068651867,2.7558347 C0.0110745434,3.05356154 0.00374989189,3.35206195 0.00374989189,3.65375333 L0.00374989189,3.65375333 L0.00374989189,5.65632654 L0.00374989189,6.62705722 L0.00374989189,6.91231029 C0.00374989189,6.98870009 -0.0137736414,6.99469524 0.0670756761,6.99469524 L0.0670756761,6.99469524 L1.33238604,6.99469524 L2.59306055,6.99469524 L3.86143057,6.99469524 C4.27550517,6.99469524 4.69291759,6.97845032 5.10578687,7.01751549 L5.10578687,7.01751549 C5.51253682,7.05609717 5.92661142,7.17687042 6.25557172,7.43756271 L6.25557172,7.43756271 C6.71813736,7.80423377 6.90626038,8.43672201 6.74808499,9.01854157 L6.74808499,9.01854157 C6.5963998,9.5770574 6.14143696,9.95156083 5.6213867,10.1070479 L5.6213867,10.1070479 C5.56380938,10.1242598 5.50558304,10.1390543 5.44689311,10.1516248 L5.44689311,10.1516248 C5.41286593,10.1589736 5.36697096,10.1576199 5.33600345,10.1726078 L5.33600345,10.1726078 C5.32079784,10.1799567 5.28194937,10.1891428 5.31041353,10.217378 L5.31041353,10.217378 C5.31755274,10.2244368 5.3476858,10.2243401 5.36984519,10.2241467 L5.36984519,10.2241467 C5.37893147,10.22405 5.3867197,10.22405 5.39117013,10.2244368 L5.39117013,10.2244368 C5.55435223,10.2407784 5.71669989,10.2702707 5.87506071,10.315331 L5.87506071,10.315331 C6.35932216,10.453026 6.82939789,10.7491091 7.05377329,11.2351029 L7.05377329,11.2351029 C7.31931509,11.8102505 7.18394811,12.5226096 6.75494606,12.9687647 L6.75494606,12.9687647 C6.41708492,13.3202545 5.94543299,13.4996255 5.47860236,13.5590935 L5.47860236,13.5590935 C5.24449166,13.5887791 5.00871206,13.5826873 4.77339604,13.5826873 L4.77339604,13.5826873 L3.50502601,13.5826873 L2.23665599,13.5826873 L0.975888761,13.5826873 L0.341703748,13.5826873 L0.183157494,13.5826873 C0.146997823,13.5826873 0.0448235704,13.564025 0.0151540961,13.5826873 L0.0151540961,13.5826873 C-0.00218400297,13.5937106 0.00374989189,13.6096655 0.00374989189,13.6386743 L0.00374989189,13.6386743 L0.00374989189,14.8608144 L0.00374989189,17.0174243 L0.00374989189,19.196661 L0.00374989189,20.486585 C0.00374989189,20.4995423 -0.00468736487,20.5561094 0.00374989189,20.5665526 L0.00374989189,20.5665526 C0.0138560566,20.578833 0.0988776439,20.568003 0.119738993,20.568003 L0.119738993,20.568003 L0.278285246,20.568003 L0.91247026,20.568003 L2.17323748,20.568003 L3.44160751,20.568003 L4.70589799,20.568003 C5.45913177,20.568003 6.17629859,20.3642647 6.78665531,19.8880371 L6.78665531,19.8880371 C7.61452636,19.2423015 8.10351638,18.2155839 8.10768865,17.1381008 L8.10768865,17.1381008 C8.10787409,17.0964249 8.1079668,17.0546522 8.1079668,17.0129763 L8.1079668,17.0129763 L8.1079668,16.9519611 C8.10787409,16.8597132 8.10768865,16.7673686 8.10768865,16.6751206 L8.10768865,16.6751206 L8.10768865,15.5392332 L8.10768865,13.889697 L8.10768865,13.889697 L8.10768865,11.8633365 L8.10768865,11.8633365 L8.10768865,9.6272426 L8.10768865,9.6272426 L8.10768865,7.31340511 L8.10768865,7.31340511 L8.10768865,5.08214596 L8.10768865,5.08214596 L8.10768865,3.09253001 L8.10768865,3.09253001 L8.10768865,1.47848114 L8.10768865,1.47848114 L8.10768865,0.403705609 L8.10768865,0.00995968329 L8.10768865,0.00995968329 L8.09470826,0.00995968329 C7.69175971,0.010636555 7.28862573,0.00995968329 6.88558446,0.00995968329 L6.88558446,0.00995968329 L5.6213867,0.00995968329 L4.35292396,0.00995968329 C4.10240233,0.00995968329 3.84770844,0.00067687168 3.59375628,0 L3.59375628,0 L3.53942406,0 Z M1.58963464,8.03570433 C1.57931126,8.05937903 1.58963464,8.11174746 1.58963464,8.13722143 L1.58963464,8.13722143 L1.58963464,9.04926549 L1.58963464,9.47550475 C1.58963464,9.5111115 1.57321108,9.63346234 1.59808104,9.65154981 L1.59808104,9.65154981 C1.61938474,9.66698571 1.71154437,9.65154981 1.73894826,9.65154981 L1.73894826,9.65154981 L1.89117119,9.65154981 L2.18407365,9.65154981 L2.76584306,9.65154981 C2.95691945,9.65154981 3.14837123,9.65505366 3.33935377,9.65154981 L3.33935377,9.65154981 C3.57594688,9.64719366 3.80512592,9.57598017 3.97330317,9.4012609 L3.97330317,9.4012609 C4.16362877,9.20362452 4.23166923,8.91289923 4.17376445,8.64613274 L4.17376445,8.64613274 C4.14739291,8.52813804 4.0965268,8.41752985 4.02144767,8.32292576 L4.02144767,8.32292576 C3.87738958,8.14167227 3.66285097,8.04119686 3.43564275,8.02263589 L3.43564275,8.02263589 C3.3277165,8.01382891 3.21875791,8.01790095 3.11055012,8.01790095 L3.11055012,8.01790095 L2.52878071,8.01790095 L1.93565558,8.01790095 L1.64688247,8.01790095 C1.63130355,8.01790095 1.62088632,8.01648047 1.61328456,8.01648047 L1.61328456,8.01648047 C1.60174115,8.01648047 1.5966733,8.01970023 1.58963464,8.03570433 L1.58963464,8.03570433 Z M2.83946711,10.7216177 L1.58924973,10.7216177 L1.58924973,10.7720786 L1.58924973,10.7720786 L1.58924973,11.6842876 L1.58924973,12.222929 L1.58924973,12.4195898 C1.58924973,12.4476563 1.57814738,12.5069186 1.58924973,12.5327358 L1.58924973,12.5327358 C1.6060883,12.571755 1.76142871,12.5497517 1.81120426,12.5497517 L1.81120426,12.5497517 L2.12762129,12.5497517 L2.75277624,12.5497517 L3.38135442,12.5497517 C3.5856377,12.5497517 3.78159422,12.5365497 3.96265508,12.4236971 L3.96265508,12.4236971 C4.18266669,12.2865919 4.33254845,12.047098 4.37020392,11.7803199 L4.37020392,11.7803199 C4.41331806,11.4753049 4.31543232,11.1596305 4.09708606,10.9526037 L4.09708606,10.9526037 C3.92037362,10.785085 3.70119468,10.7234757 3.46813781,10.7216177 L3.46813781,10.7216177 C3.39819299,10.7210309 3.32834069,10.7208353 3.25848839,10.7208353 L3.25848839,10.7208353 C3.11878379,10.7208353 2.97907919,10.7216177 2.83946711,10.7216177 L2.83946711,10.7216177 Z" id="path-2"></path>
        <linearGradient x1="0.25781251%" y1="49.7500002%" x2="101.257813%" y2="49.7500002%" id="linearGradient-4">
            <stop stop-color="#21469E" offset="0%"></stop>
            <stop stop-color="#1E81EB" offset="100%"></stop>
        </linearGradient>
        <path d="M2.78570416,0.0457535588 C2.31378745,0.124782433 1.86081869,0.312149544 1.46497522,0.588315317 L1.46497522,0.588315317 C0.552940597,1.22480246 0.00720189155,2.30247772 0.00316841539,3.4365469 L0.00316841539,3.4365469 C0.00204279413,3.76997717 0.00316841539,4.10340744 0.00316841539,4.43693444 L0.00316841539,4.43693444 L0.00316841539,6.56065407 L0.00316841539,9.02979855 L0.00316841539,11.0664607 L0.00316841539,11.6810867 L0.00316841539,11.8434006 C0.00316841539,11.9062755 0.00260560476,11.8931201 0.0719251138,11.9270725 L0.0719251138,11.9270725 C0.14903017,11.9647975 0.226510433,12.0014583 0.304365903,12.0371519 L0.304365903,12.0371519 C0.92589644,12.3212496 1.58138322,12.5374424 2.25788159,12.6225653 L2.25788159,12.6225653 C2.74414997,12.6837958 3.26343658,12.7008204 3.72269005,12.5006848 L3.72269005,12.5006848 C4.0905806,12.3404023 4.38380494,12.0446002 4.53445058,11.6610635 L4.53445058,11.6610635 C4.63134781,11.414594 4.65911314,11.1541953 4.65911314,10.8905078 L4.65911314,10.8905078 L4.65911314,7.96750345 L4.65911314,7.30944539 L4.65911314,7.09954006 C4.65911314,7.07854953 4.64757552,7.01306293 4.65911314,6.99545797 L4.65911314,6.99545797 C4.67346481,6.97350013 4.78715255,6.98752606 4.81988937,6.98752606 L4.81988937,6.98752606 L5.06771365,6.98752606 L5.55632708,6.98752606 L7.51753451,6.98752606 L7.51753451,7.04778921 L7.51753451,9.93335879 C7.51753451,10.2721092 7.51819113,10.6109564 7.51753451,10.9497069 L7.51753451,10.9497069 C7.5168779,11.3443676 7.46078444,11.7404793 7.30422929,12.1032189 L7.30422929,12.1032189 C7.14823694,12.4647978 6.89806762,12.7700794 6.58889698,13.002523 L6.58889698,13.002523 C5.83885801,13.5664622 4.84502825,13.7133959 3.93862173,13.7556672 L3.93862173,13.7556672 C3.29017009,13.7859439 2.63909199,13.7598266 1.9934544,13.693276 L1.9934544,13.693276 C1.3262424,13.6245973 0.651244853,13.5224498 0.00316841539,13.3422407 L0.00316841539,13.3422407 L0.00316841539,13.576232 L0.00316841539,15.1807019 L0.00316841539,17.5215817 L0.00316841539,19.6362086 L0.00316841539,20.3089697 L0.00316841539,20.4977878 C0.00316841539,20.5078478 -0.00396051923,20.5574706 0.00316841539,20.5655959 L0.00316841539,20.5655959 C0.0166758705,20.5808794 0.139556191,20.5656927 0.16385085,20.5656927 L0.16385085,20.5656927 L0.328097751,20.5656927 L0.664377101,20.5656927 L1.32924406,20.5656927 L2.66179202,20.5656927 L3.99490279,20.5656927 C4.56005847,20.5656927 5.13975341,20.6058359 5.69215204,20.461804 L5.69215204,20.461804 C6.65812268,20.2101111 7.47888818,19.5056224 7.89668127,18.5728495 L7.89668127,18.5728495 C8.1260266,18.0609513 8.20116182,17.5167452 8.20116182,16.9592869 L8.20116182,16.9592869 L8.20116182,16.0406367 L8.20116182,14.4929476 L8.20116182,12.4872393 L8.20116182,10.2043978 L8.20116182,7.79648381 L8.20116182,5.44322254 L8.20116182,3.32366233 L8.20116182,1.59141131 L8.20116182,0.426581806 L8.20116182,0.000290191705 L7.86985397,0.000290191705 L6.48505842,0.000290191705 L5.09970006,0.000290191705 L3.71856278,0.000290191705 C3.65702881,0.000290191705 3.59558865,0 3.53414849,0 L3.53414849,0 C3.28379157,0 3.03409125,0.00415941444 2.78570416,0.0457535588" id="path-5"></path>
        <linearGradient x1="100%" y1="50%" x2="0%" y2="50%" id="linearGradient-7">
            <stop stop-color="#F42D3E" offset="0%"></stop>
            <stop stop-color="#9C0017" offset="100%"></stop>
        </linearGradient>
        <path d="M3.07972298,0.00847089659 C2.72434418,0.0318621224 2.372674,0.115127185 2.04325556,0.255859581 L2.04325556,0.255859581 C1.31701445,0.566491209 0.713157907,1.14626632 0.357408243,1.87370457 L0.357408243,1.87370457 C0.124414001,2.34999998 0.00666521973,2.87943102 0.00453276148,3.4130975 L0.00453276148,3.4130975 C0.00416189918,3.49944289 0.00453276148,3.58578828 0.00453276148,3.67222993 L0.00453276148,3.67222993 L0.00453276148,5.1864027 L0.00453276148,7.87822261 C0.0266917841,7.85839301 0.0494071002,7.83885219 0.0724932785,7.81950389 L0.0724932785,7.81950389 C0.153804839,7.75115916 0.238546875,7.68724239 0.325699516,7.62736855 L0.325699516,7.62736855 C0.868827359,7.25474537 1.50253832,7.04605328 2.13828902,6.92284024 L2.13828902,6.92284024 C2.65582737,6.82253712 3.18272998,6.77941255 3.70870545,6.76892019 L3.70870545,6.76892019 C4.22615107,6.75871661 4.74508015,6.77700605 5.25974431,6.83485842 L5.25974431,6.83485842 C5.78488533,6.89376966 6.30678131,6.98569814 6.82311435,7.1006328 L6.82311435,7.1006328 C6.88653181,7.11478305 6.94985654,7.12922208 7.01308857,7.14423867 L7.01308857,7.14423867 C7.04692975,7.15232452 7.17663884,7.16329819 7.19462566,7.19025104 L7.19462566,7.19025104 C7.20751313,7.20950308 7.19462566,7.28631871 7.19462566,7.30855481 L7.19462566,7.30855481 L7.19462566,7.58616919 L7.19462566,8.63280622 C7.12128764,8.59439841 7.04757876,8.55676067 6.97322087,8.52037432 L6.97322087,8.52037432 C6.4114572,8.24458888 5.81928281,8.0397472 5.20467126,7.93905905 L5.20467126,7.93905905 C4.37894634,7.80362096 3.44455877,7.80737511 2.73148328,8.32034565 L2.73148328,8.32034565 C2.04325556,8.81550806 1.80238049,9.69417106 1.87673838,10.5297095 L1.87673838,10.5297095 C1.94914925,11.3428193 2.3822237,12.0399356 3.11133899,12.3650063 L3.11133899,12.3650063 C3.83173902,12.6861302 4.66766265,12.6429094 5.42208929,12.4880268 L5.42208929,12.4880268 C6.04105847,12.3609633 6.63119311,12.1282062 7.19462566,11.8364416 L7.19462566,11.8364416 L7.19462566,11.939825 L7.19462566,13.1596341 C7.19462566,13.1823515 7.20769856,13.2594559 7.19462566,13.2789967 L7.19462566,13.2789967 C7.17700971,13.3051795 7.0454463,13.3163457 7.01308857,13.3240465 L7.01308857,13.3240465 C6.88143245,13.3552348 6.74922004,13.3844979 6.6168222,13.4121246 L6.6168222,13.4121246 C6.0965951,13.5208023 5.5709905,13.6070515 5.04232629,13.6561442 L5.04232629,13.6561442 C4.52478794,13.7042743 4.00205753,13.7137078 3.48294302,13.6933969 L3.48294302,13.6933969 C2.9530735,13.6727972 2.42255498,13.6160999 1.90436763,13.4968335 L1.90436763,13.4968335 C1.22123926,13.3397369 0.54126323,13.0695346 0.00453276148,12.5915065 L0.00453276148,12.5915065 L0.00453276148,12.8161778 L0.00453276148,14.387144 L0.00453276148,16.7310796 L0.00453276148,19.0130236 L0.00453276148,20.3661531 C0.00453276148,20.3821323 -0.00566595185,20.4489369 0.00453276148,20.4618357 L0.00453276148,20.4618357 C0.0266917841,20.4897512 0.211010349,20.4668413 0.254215807,20.4668413 L0.254215807,20.4668413 L0.927145456,20.4668413 L2.28014385,20.4668413 L3.62600315,20.4668413 C4.10098505,20.4668413 4.58431134,20.4931203 5.05818065,20.4579853 L5.05818065,20.4579853 C5.91746861,20.3943574 6.73123322,19.9726415 7.29772539,19.2985314 L7.29772539,19.2985314 C7.84029693,18.652818 8.1079668,17.8356653 8.1079668,16.9839551 L8.1079668,16.9839551 L8.1079668,16.2201305 L8.1079668,14.7598635 L8.1079668,12.7875885 L8.1079668,10.4860074 L8.1079668,8.0477368 L8.1079668,5.63564899 L8.1079668,3.45006142 L8.1079668,1.65606028 L8.1079668,0.445588412 L8.1079668,0.00154016302 L7.85948906,0.00154016302 L5.77032899,0.00154016302 L3.68932789,0.00154016302 C3.59095666,0.00154016302 3.49221458,0 3.3935652,0 L3.3935652,0 C3.2887966,0 3.184028,0.00173268339 3.07972298,0.00847089659" id="path-8"></path>
    </defs>
    <g id="New" stroke="none" stroke-width="1" fill="none" fill-rule="evenodd">
        <g id="Desktop-/-Payment" transform="translate(-513.000000, -366.000000)">
            <g id="JCB-" transform="translate(513.392804, 366.000000)">
                <path d="M0.25,2.99670441 L0.25,26.5599458 C0.25,28.0736425 1.48111175,29.3066502 2.99562817,29.3066502 L39.1275751,29.3066502 C40.6434047,29.3066502 41.8732033,28.0766392 41.8732033,26.5599458 L41.8732033,2.99670441 C41.8732033,1.48300779 40.6420915,0.25 39.1275751,0.25 L2.99562817,0.25 C1.47979857,0.25 0.25,1.48001108 0.25,2.99670441 Z" id="Rectangle-Copy-19" stroke="#919191" stroke-width="0.5" fill="#FFFFFF"></path>
                <g id="Page-1-Copy" transform="translate(7.662594, 4.285714)">
                    <g id="Group-3" transform="translate(18.452614, 0.000000)">
                        <mask id="mask-3" fill="white">
                            <use xlink:href="#path-2"></use>
                        </mask>
                        <use id="Clip-2" fill="url(#linearGradient-1)" xlink:href="#path-2"></use>
                    </g>
                    <g id="Group-6">
                        <mask id="mask-6" fill="white">
                            <use xlink:href="#path-5"></use>
                        </mask>
                        <use id="Clip-5" fill="url(#linearGradient-4)" xlink:href="#path-5"></use>
                    </g>
                    <g id="Group-9" transform="translate(9.226307, 0.000000)">
                        <mask id="mask-9" fill="white">
                            <use xlink:href="#path-8"></use>
                        </mask>
                        <use id="Clip-8" fill="url(#linearGradient-7)" xlink:href="#path-8"></use>
                    </g>
                </g>
            </g>
        </g>
    </g>
</svg>