<?xml version="1.0" encoding="UTF-8"?>
<svg width="43px" height="30px" viewBox="0 0 43 30" version="1.1" xmlns="http://www.w3.org/2000/svg" xmlns:xlink="http://www.w3.org/1999/xlink">
    <!-- Generator: Sketch 55.2 (78181) - https://sketchapp.com -->
    <title>Maestro</title>
    <desc>Created with Sketch.</desc>
    <g id="New" stroke="none" stroke-width="1" fill="none" fill-rule="evenodd">
        <g id="Desktop-/-Payment" transform="translate(-729.000000, -366.000000)">
            <g id="Maestro" transform="translate(729.303003, 366.000000)">
                <path d="M0,2.99096072 C0,1.33909873 1.34536173,0 2.99370222,0 L38.8667629,0 C40.520139,0 41.8604651,1.34420997 41.8604651,2.99096072 L41.8604651,26.5090393 C41.8604651,28.1609013 40.5151034,29.5 38.8667629,29.5 L2.99370222,29.5 C1.34032614,29.5 0,28.15579 0,26.5090393 L0,2.99096072 Z" id="Rectangle-Copy-17" fill="#262626"></path>
                <g id="_Group_-Copy" transform="translate(8.245243, 7.054348)">
                    <rect id="Rectangle" fill="#7673C0" x="9.34389221" y="1.90634306" width="6.77249436" height="12.4329586"></rect>
                    <path d="M9.77604185,8.12172424 C9.77417078,5.6959689 10.8642868,3.40404758 12.7322894,1.90634306 C9.55884696,-0.641292975 5.00165635,-0.270207755 2.26338866,2.75881 C-0.474879033,5.78782776 -0.474879033,10.457817 2.26338866,13.4868347 C5.00165635,16.5158525 9.55884696,16.8869377 12.7322894,14.3393017 C10.8636924,12.8411215 9.77350972,10.5482503 9.77604185,8.12172424 L9.77604185,8.12172424 Z" id="_Path_" fill="#EB001B"></path>
                    <path d="M24.6467782,13.9055677 L24.6467782,12.9183336 L24.8329168,12.9183336 L24.8329168,12.7140783 L24.3616297,12.7140783 L24.3616297,12.9183336 L24.5477683,12.9183336 L24.5477683,13.9055677 L24.6467782,13.9055677 Z M25.5616297,13.9055677 L25.5616297,12.7140783 L25.4190554,12.7140783 L25.2527188,13.5651422 L25.0863822,12.7140783 L24.9398475,12.7140783 L24.9398475,13.9055677 L25.0428178,13.9055677 L25.0428178,13.0119507 L25.1972733,13.7864187 L25.304204,13.7864187 L25.4586594,13.0119507 L25.4586594,13.9140783 L25.5616297,13.9055677 Z" id="Shape" fill="#00A1DF" fill-rule="nonzero"></path>
                    <path d="M25.2538792,8.12172424 C25.2538792,11.1488961 23.5617059,13.9102977 20.89621,15.2331512 C18.2307141,16.5560047 15.0597893,16.2080658 12.7301394,14.3371054 C14.5973269,12.8381294 15.687525,10.5465128 15.687525,8.12062612 C15.687525,5.69473945 14.5973269,3.40312285 12.7301394,1.90414681 C15.0600942,0.0329413939 18.2315121,-0.314824149 20.8971771,1.00858075 C23.562842,2.33198564 25.2546332,5.09415618 25.2538792,8.12172424 Z" id="Path" fill="#00A1DF"></path>
                </g>
            </g>
        </g>
    </g>
</svg>