<?xml version="1.0" encoding="UTF-8"?>
<svg width="43px" height="30px" viewBox="0 0 43 30" version="1.1" xmlns="http://www.w3.org/2000/svg" xmlns:xlink="http://www.w3.org/1999/xlink">
    <!-- Generator: Sketch 55.2 (78181) - https://sketchapp.com -->
    <title>Mastercard</title>
    <desc>Created with Sketch.</desc>
    <g id="New" stroke="none" stroke-width="1" fill="none" fill-rule="evenodd">
        <g id="Desktop-/-Payment" transform="translate(-675.000000, -366.000000)">
            <g id="Mastercard" transform="translate(675.198335, 366.000000)">
                <path d="M0,3.00001915 C0,1.34315432 1.34434391,0 2.99343724,0 L39.5765273,0 C41.229757,0 42.5699645,1.34731857 42.5699645,3.00001915 L42.5699645,26.9999809 C42.5699645,28.6568457 41.2256206,30 39.5765273,30 L2.99343724,30 C1.3402075,30 0,28.6526814 0,26.9999809 L0,3.00001915 Z" id="Rectangle-Copy-4" fill="#262626"></path>
                <g id="mc_symbol" transform="translate(8.384993, 6.521739)">
                    <g id="Group" opacity="0" fill="#FFFFFF">
                        <rect id="Rectangle" x="0" y="0" width="25.6807513" height="16.9370315"></rect>
                    </g>
                    <rect id="Rectangle" fill="#FF5F00" x="9.45412849" y="2.95082459" width="6.7744489" height="11.0334333"></rect>
                    <path d="M10.1519006,8.46851574 C10.1501997,6.31581738 11.1412142,4.2818879 12.8393984,2.95277361 C9.95445073,0.69191414 5.81155018,1.02122787 3.32221591,3.70928197 C0.832881644,6.39733607 0.832881644,10.5416444 3.32221591,13.2296985 C5.81155018,15.9177526 9.95445073,16.2470664 12.8393984,13.9862069 C11.1406738,12.6566705 10.1495987,10.6218981 10.1519006,8.46851574 Z" id="Path" fill="#EB001B"></path>
                    <path d="M23.6933896,13.743928 L23.6933896,12.7496423 L23.8933896,12.7496423 L23.8933896,12.543928 L23.4173896,12.543928 L23.4173896,12.7496423 L23.6053896,12.7496423 L23.6053896,13.743928 L23.6933896,13.743928 Z M24.6173896,13.743928 L24.6173896,12.543928 L24.4733896,12.543928 L24.3053896,13.4010709 L24.1373896,12.543928 L23.9933896,12.543928 L23.9933896,13.743928 L24.0973896,13.743928 L24.0973896,12.8353566 L24.2533896,13.6153566 L24.3613896,13.6153566 L24.5173896,12.8353566 L24.5173896,13.743928 L24.6173896,13.743928 Z" id="Shape" fill="#F79E1B" fill-rule="nonzero"></path>
                    <path d="M24.2246162,8.46851574 C24.2246162,11.1549317 22.686277,13.6054941 20.2630989,14.7794396 C17.8399209,15.9533851 14.9572619,15.6446122 12.8393984,13.9842579 C14.5368416,12.6540152 15.5279308,10.6203561 15.5279308,8.46754123 C15.5279308,6.31472632 14.5368416,4.28106726 12.8393984,2.95082459 C14.9572619,1.29047027 17.8399209,0.981697354 20.2630989,2.15564287 C22.686277,3.32958839 24.2246162,5.78015075 24.2246162,8.46656672 L24.2246162,8.46851574 Z" id="Path" fill="#F79E1B"></path>
                </g>
            </g>
        </g>
    </g>
</svg>