<svg xmlns="http://www.w3.org/2000/svg" xmlns:xlink="http://www.w3.org/1999/xlink" width="50" height="50" viewBox="0 0 50 50">
    <defs>
        <path id="a" d="M0 .168h49.837V50H0z"/>
    </defs>
    <g fill="none" fill-rule="evenodd">
        <g>
            <mask id="b" fill="#fff">
                <use xlink:href="#a"/>
            </mask>
            <path fill="#ED171E" d="M12.024 11.806l1.998-6.081 1.99 6.08 6.405.025-5.174 3.778 1.956 6.094-5.183-3.766-5.194 3.766 1.965-6.094-5.164-3.79 6.401-.012zm14.77-8.336l2.112.987L30.5 2.75l-.278 2.316 2.106.999-2.282.439-.29 2.315-1.135-2.035-2.285.426 1.584-1.706-1.125-2.035zm7.878 16.647l.72-2.218.725 2.218h2.334l-1.88 1.377.707 2.218-1.887-1.364-1.883 1.364.711-2.218-1.88-1.377h2.333zM34.136 8.88l1.624 1.67 2.094-1.012-1.094 2.06 1.62 1.682-2.296-.403-1.1 2.06-.323-2.303-2.3-.427 2.093-1.011-.318-2.316zm-4.054 18.975l-.168 2.303-1.24-1.962-2.257.548 1.49-1.78-1.232-1.973 2.166.877 1.502-1.791-.16 2.328 2.161.877-2.262.573zM24.92 50c13.761 0 24.918-11.156 24.918-24.92 0-13.694-11.05-24.805-24.72-24.912h-.397C11.05.275 0 11.386 0 25.08 0 38.844 11.156 50 24.92 50z" mask="url(#b)"/>
        </g>
        <path fill="#FFDF00" d="M8.822 21.701l5.194-3.766 5.183 3.766-1.956-6.093 5.174-3.778-6.405-.025-1.99-6.08-1.998 6.08-6.4.013 5.163 3.79zM30.344 24.078l-1.502 1.792-2.166-.878 1.23 1.974-1.49 1.779 2.259-.548 1.239 1.962.168-2.303 2.263-.573-2.162-.877zM34.661 12.634l.322 2.303 1.101-2.059 2.297.402-1.62-1.682 1.093-2.059-2.093 1.011-1.624-1.669.317 2.315-2.094 1.012zM33.509 23.712l1.883-1.365 1.887 1.365-.707-2.218 1.879-1.377h-2.334l-.725-2.218-.72 2.218H32.34l1.88 1.377zM28.62 6.785l1.135 2.035.29-2.315 2.282-.44-2.105-.998.277-2.316-1.593 1.706-2.112-.987 1.125 2.035-1.584 1.706z"/>
    </g>
</svg>
