<svg xmlns="http://www.w3.org/2000/svg" xmlns:xlink="http://www.w3.org/1999/xlink" width="50" height="50" viewBox="0 0 50 50">
    <defs>
        <path id="a" d="M.78.662H14v16.666H.78z"/>
        <path id="c" d="M0 .662h13.22v16.667H0z"/>
    </defs>
    <g fill="none" fill-rule="evenodd">
        <path fill="#000" d="M1.43 16.657h11.633V11.76h23.875v4.897H48.57C45.157 7.009 35.99.082 25.194 0h-.387C14.009.082 4.843 7.009 1.43 16.657"/>
        <g transform="translate(36 15.995)">
            <mask id="b" fill="#fff">
                <use xlink:href="#a"/>
            </mask>
            <path fill="#FF001A" d="M.938 15.842c0 .539-.06 1.029-.157 1.486h11.793A24.935 24.935 0 0 0 14 9c0-2.925-.507-5.73-1.43-8.338H.938v15.18z" mask="url(#b)"/>
        </g>
        <g transform="translate(0 15.995)">
            <mask id="d" fill="#fff">
                <use xlink:href="#c"/>
            </mask>
            <path fill="#FF001A" d="M13.063.662H1.43A24.945 24.945 0 0 0 0 9c0 2.92.506 5.723 1.427 8.329H13.22a7.11 7.11 0 0 1-.157-1.487V.662z" mask="url(#d)"/>
        </g>
        <path fill="#FFDA00" d="M48.573 33.324H36.78c-.776 3.654-4.426 4.877-7.433 5.87-1.958.652-3.648 1.212-4.284 2.268l-.064.11-.063-.11c-.638-1.056-2.329-1.616-4.287-2.269-3-.992-6.652-2.215-7.43-5.87H1.427c3.41 9.654 12.58 16.587 23.382 16.667h.381c10.803-.08 19.972-7.013 23.383-16.666"/>
        <path fill="#000" d="M13.21 11.904h23.58v4.753h.148V11.76H13.063v4.898h.147z"/>
        <path fill="#000" d="M13.21 31.837v-15.18h-.147v15.18c0 .54.06 1.03.157 1.486h.145a7.15 7.15 0 0 1-.155-1.486M36.938 16.657h-.148v15.18c0 .54-.058 1.03-.156 1.487h.147a7.11 7.11 0 0 0 .157-1.487v-15.18zM29.304 39.054c-1.928.643-3.6 1.192-4.304 2.234-.706-1.042-2.377-1.591-4.297-2.234-3.11-1.03-6.583-2.193-7.337-5.73h-.146c.777 3.653 4.43 4.876 7.43 5.87 1.958.652 3.648 1.211 4.287 2.268l.062.11.065-.11c.636-1.057 2.326-1.616 4.284-2.268 3.007-.994 6.656-2.217 7.433-5.87h-.147c-.754 3.537-4.226 4.7-7.33 5.73"/>
        <path fill="#FFD800" d="M13.21 11.904v4.753h1.165c.087-.897.331-1.546.737-1.938v-.007c-.6-.17-.918-.609-.955-1.327 1.675 1.382 4.311-1.855 5.867 1.501-.835 1.676-2.516 1.501-3.115.54-.306.261-.468.71-.417 1.231h7.531c.068-.246.125-.528.166-.808-.057.002-.114.005-.175.005-.614 0-1.434-.12-1.796-.404l.074.003c.16.008.301.012.44.016.106.003.21.006.304.007-.705-.182-1.18-.44-1.424-.744l.08.026a10.31 10.31 0 0 0 2.491.539c-.039-.094-.082-.172-.124-.249-.328-.552-.747-.656-.988-.66h-.005c-.324 0-.563.154-.61.274-.01-.01-.014-.02-.022-.03-.076-.093-.126-.182-.186-.27-.403-.608-.47-1.163-.184-1.505.337-.402 1.028-.413 1.83-.068.226-.385.836-.014 1.22.182.481.235 1.68.603 2.341.603a2.338 2.338 0 0 1-.909.528c.123.375.326 1.158.514 2.555h6.445c.051-.52-.11-.97-.42-1.232-.598.962-2.273 1.137-3.117-.539 1.558-3.356 4.194-.119 5.875-1.5-.042.717-.366 1.156-.957 1.326v.01c.405.392.646 1.04.732 1.935h1.171v-4.753H13.21zM26.453 33.324h1.38l-1.458-2.26c-.024.855.011 1.59.078 2.26M22.167 33.324h1.374a17.48 17.48 0 0 0 .076-2.26l-1.45 2.26zM27.993 32.097v1.227h1.308l-.115-.11zM32.602 21.332c-.073.037-.151.073-.228.109v10.818l-1.448-1.19v-9.071l-.227.06v8.826l-1.453-1.193v-7.316c-.076.012-.151.025-.227.036v7.093l-1.387-1.137V22.56a19.58 19.58 0 0 1-.362.022c-.133 1.667-.401 3.444-.735 5.23l2.484 2.656.949 1.015-1.093-.132.385.51 1.058 1.463h.928c.42-.192.826-.395.969-.512.039-.032.065-.046.088-.06l.023-.011.03-.02a.204.204 0 0 1 .048-.031l.012-.007c.06-.023.098-.017.118-.007l.019.01.006.02a.432.432 0 0 1 .01.045v.012h.002a.22.22 0 0 0 .007.034l.04.014c.028.009.056.018.086.035.15.112.237.269.28.478h.687l-1.07-.878V21.332zM17.408 32.81c.015-.003.028-.008.041-.013l.007-.033.001-.001.001-.012a.432.432 0 0 1 .01-.044l.005-.021.02-.01c.02-.01.058-.016.117.007l.013.007c.007 0 .026.015.048.03.01.008.021.015.03.02l.022.013a.492.492 0 0 1 .088.059c.144.117.548.32.97.512h.928l1.057-1.462.39-.515-1.132.136 3.436-3.672c-.335-1.786-.603-3.563-.736-5.23-.124-.005-.244-.013-.364-.021v5.807l-1.384 1.135V22.41a7.486 7.486 0 0 1-.224-.036v7.31l-1.456 1.197v-8.823c-.074-.02-.152-.04-.222-.06v9.065l-1.454 1.193V21.44c-.075-.036-.152-.071-.225-.108V32.44l-1.074.883h.721c.044-.21.131-.366.281-.478.03-.017.058-.026.085-.035M20.84 33.215l-.114.109h1.281v-1.201zM15.715 20.176v13.147h.229V20.378a8.008 8.008 0 0 1-.229-.202M14.334 17.4c0-.27.02-.51.041-.743H13.21v15.18c0 .54.06 1.03.155 1.487h.97V17.4zM27.343 20.185a13.659 13.659 0 0 0 1.676-.209c.075-.014.153-.027.226-.042a9.222 9.222 0 0 0 1.68-.506c1.757-.74 2.492-1.865 2.58-2.77H27.06a43 43 0 0 1 .273 2.836c.014.22.004.463.01.691M35.658 17.4v15.924h.976c.097-.456.155-.946.155-1.486V16.657h-1.17c.02.234.04.474.04.743M19.074 19.43c.071.03.146.058.222.087.427.165.911.306 1.456.418.073.016.15.027.224.042.512.095 1.06.17 1.676.209.006-.229-.005-.473.01-.692.058-.898.838-1.794 1.137-2.268a2.36 2.36 0 0 0 .223-.569h-7.53c.088.907.824 2.032 2.582 2.773M34.053 20.377v12.947h.224V20.18a7.486 7.486 0 0 1-.224.197"/>
        <path fill="#FFD800" d="M19.149 33.486a10.227 10.227 0 0 0 .342.14l.219-.303h-.928c.123.057.247.112.367.163"/>
        <path fill="#FFD800" d="M35.659 34.955l-1.382-1.134v-.497h-.224v.313l-.382-.313h-.686c.03.145.042.31.026.519L33 34l-.082-.136c-.031-.051-.06-.101-.09-.145l-.002-.005a.908.908 0 0 0-.225-.285c.024.105.03.161.007.192-.025.038-.086.058-.248.084l-.015.003c-.053.008-.103.016-.18.026-.26.032-.655.124-1.171.273l.01.009c.184.133.676.424 1.037.636.209.123.373.22.426.255.052.032.14.067.236.105l.105.041.134.058c.054.023.102.046.139.066.053.026.07.041.079.056l.038.06-.07.016-.012.004c-.007.002-.013.005-.022.006-.01.002-.015.005-.023.006.004.01.009.018.012.03.062.264-.141.677-.494 1.004l-.111.102.028-.148.004-.041a.487.487 0 0 1 .006-.054c.066-.21.066-.42.009-.625a.688.688 0 0 0-.1.152c-.034.096-.075.143-.121.143l-.017-.003c-.053-.02-.11-.051-.254-.246-.315-.41-1.162-1.004-1.383-1.155-.04.184-.073.831.027 1.45l.048.269.004.018c.038.195.049.258.02.288-.012.022-.036.029-.066.029-.022 0-.05-.005-.078-.008l-.002-.002a.502.502 0 0 1-.023.205c-.084.18-.33.317-.793.44l-.137.036.084-.114a2.33 2.33 0 0 0 .115-.17.987.987 0 0 0 .216-.46 1.36 1.36 0 0 0-.21.01l-.01.002-.007-.002a.098.098 0 0 1-.073-.055c-.045-.086.016-.248.054-.336l.056-.147c.044-.139.057-.986.058-1.505-.184.017-.846.218-1.056.433-.072.075-.156.115-.224.1-.101-.009-.178-.09-.245-.176a.862.862 0 0 0-.04.636l.034.116-.106-.057a.786.786 0 0 1-.083-.052c-.145-.148-.286-.313-.337-.524-.031-.14 0-.29.082-.456l-.006-.002-.025-.014c-.007-.005-.015-.008-.023-.011a.184.184 0 0 1-.064-.038l-.016-.019.003-.023c.019-.143.357-.218.679-.218.106 0 .264-.016.482-.049a19.943 19.943 0 0 0 .925-.174l-.612-.58h-1.307v.25l-.161-.25h-1.38c.27 2.677 1.252 3.901 2.977 3.61-.68 1.352-1.733 1.597-3.172.714l-1.261 1.5-1.257-1.5c-1.436.883-2.493.637-3.172-.714 1.722.291 2.706-.933 2.974-3.61h-1.375l-.16.25v-.25h-1.281l-.611.58c.15.032.42.09.7.138.076.014.15.026.225.036.217.033.376.05.48.05.323 0 .66.074.68.218l.004.023-.017.017a.19.19 0 0 1-.063.038c-.008.005-.017.008-.024.013a.521.521 0 0 0-.024.013l-.006.002c.082.166.112.317.08.456-.05.212-.191.377-.336.524a.696.696 0 0 1-.083.051l-.106.058.035-.115a.867.867 0 0 0-.04-.637c-.068.087-.146.167-.245.176-.07.015-.153-.025-.225-.1-.21-.215-.871-.416-1.056-.433 0 .518.014 1.366.058 1.505l.056.148c.039.087.099.25.054.335a.097.097 0 0 1-.073.055l-.008.002-.01-.002a1.368 1.368 0 0 0-.21-.01c.025.15.094.307.216.46.035.056.07.108.115.17l.084.114-.136-.036c-.465-.123-.71-.26-.791-.44a.47.47 0 0 1-.025-.204h-.002c-.028.004-.055.008-.078.008-.03 0-.053-.006-.067-.029-.027-.03-.017-.093.02-.287l.005-.018.048-.27c.1-.617.066-1.264.027-1.449-.22.151-1.068.744-1.382 1.154-.146.196-.202.227-.254.247l-.018.003c-.046 0-.087-.047-.122-.142a.654.654 0 0 0-.1-.153c-.055.205-.056.415.01.624.004.025.005.04.006.055 0 .013.002.026.004.04l.028.15-.111-.104c-.353-.326-.556-.74-.493-1.003.003-.011.008-.02.012-.03l-.024-.006c-.01-.002-.015-.005-.021-.007-.004-.002-.01-.002-.014-.003l-.068-.017.038-.06c.008-.014.025-.029.079-.056.036-.02.085-.043.138-.066l.134-.056.106-.043c.094-.038.183-.073.235-.104.054-.035.218-.132.427-.255.36-.212.852-.504 1.035-.636l.012-.01c-.517-.148-.911-.24-1.172-.273l-.18-.025-.015-.003c-.162-.026-.222-.045-.248-.084-.024-.03-.017-.087.007-.192a.892.892 0 0 0-.224.285l-.003.005c-.03.044-.06.093-.09.145l-.081.137-.012-.158a1.866 1.866 0 0 1 .026-.52h-.72l-.377.31v-.31h-.23v.498l-1.381 1.134v-1.631h-.968c.755 3.537 4.227 4.7 7.338 5.73 1.92.643 3.59 1.191 4.296 2.233.706-1.041 2.376-1.59 4.304-2.233 3.104-1.03 6.576-2.194 7.33-5.73h-.975v1.63z"/>
        <path fill="#FFD800" d="M30.657 33.578a15.952 15.952 0 0 0 .588-.254h-.928l.22.3c.036-.012.096-.036.12-.046"/>
        <path fill="#E30B15" d="M19.71 36.492l-.187.025h-.004a.459.459 0 0 0 .02.175c.06.13.255.245.593.346a.77.77 0 0 1-.037-.055 1.085 1.085 0 0 1-.24-.508c-.043.003-.09.01-.145.017M17.436 33.287a1.488 1.488 0 0 0-.005-.326l-.004-.05a.218.218 0 0 0-.048.018.635.635 0 0 0-.237.394h.252c.015-.01.027-.027.042-.036M17.114 33.665a.96.96 0 0 1 .28-.341h-.253c-.023.1-.037.212-.034.35l.007-.01M21.977 34.516c-.095.038-.184.078-.241.161l-.03.038a.93.93 0 0 1 .083.601c.114-.12.224-.262.264-.43a.577.577 0 0 0-.061-.376l-.015.006M20.997 32.936l1.01-.95v-.724l-.73.088-.558.743-.888 1.23h.742zM17.676 32.841a.6.6 0 0 1-.062-.039.227.227 0 0 0-.038-.024l-.011-.007c-.003 0-.005 0-.008-.002l-.001.006-.002.014a.747.747 0 0 0-.016.156c.007.046 0 .1.002.15v.02c.002.06.01.118.003.178l-.003.03h1.004c-.307-.144-.65-.316-.796-.433-.032-.027-.051-.037-.072-.049M17.22 35.443a1.274 1.274 0 0 0-.177-.068l-.001.002c-.047.2.098.519.353.796a1.155 1.155 0 0 1 .008-.617.944.944 0 0 0-.181-.112l-.002-.001z"/>
        <path fill="#E30B15" d="M17.537 33.34v.014l-.003.024-.003.021c0 .012-.002.025-.006.038a.514.514 0 0 0-.02.132c.004 0 .04.016.178.037l.014.003c.052.008.102.016.176.025.272.034.683.13 1.221.286l.046.013.038.01.003.057-.012.015-.025.026s-.037.035-.064.055c-.186.136-.68.428-1.043.641-.199.118-.37.22-.424.255-.06.036-.154.073-.253.112a11.9 11.9 0 0 0-.329.141c.084.022.138.066.208.098l.03.014c.07.034.157.056.214.101a.144.144 0 0 1 .038.027c.012.005.021.01.03.017l.018.015c.057.056.095.133.123.19a.422.422 0 0 0 .036.073c.03-.017.08-.06.186-.2.371-.486 1.452-1.209 1.463-1.216l.027-.018.028.02c.018.013.025.033.033.06l.003.008c.051.183.084.884-.02 1.517l-.052.29c-.013.07-.03.152-.034.195a.588.588 0 0 0 .046-.006l.054-.008.186-.035c.085-.01.152-.015.21-.019.013 0 .024 0 .037-.002h.041c.123-.008.188.003.234.01.016-.034 0-.13-.055-.253l-.058-.153c-.06-.19-.063-1.357-.063-1.588v-.037l.034-.01h.001l.064-.002c.192.013.896.225 1.13.463.053.057.11.074.137.07.084-.007.16-.102.21-.172a.079.079 0 0 1 .012-.015l.014-.018a.164.164 0 0 1 .024-.032c.085-.122.202-.17.306-.216l.018-.008c.008-.003.012-.004.018-.008.01-.006.017-.012.028-.015l.02-.01.02-.013.02-.01c.008-.005.018-.009.03-.014-.063-.043-.249-.108-.56-.108-.11 0-.273-.016-.497-.05a11.53 11.53 0 0 1-.225-.036 19.113 19.113 0 0 1-.795-.159l-.088-.056.07-.065.588-.538h-.742l-.3.416-.03-.006a1.392 1.392 0 0 1-.169-.062 20.847 20.847 0 0 1-.788-.348H17.54c0 .006 0 .011-.003.017M29.229 33.908l-.016.015a.218.218 0 0 1 .074-.003l-.058-.012M30.317 36.492a4.856 4.856 0 0 0-.145-.017 1.077 1.077 0 0 1-.242.508c-.01.018-.023.037-.035.056.338-.102.532-.217.593-.346.02-.054.02-.121.02-.176h-.003l-.188-.026zM32.648 32.929a.252.252 0 0 0-.048-.019l-.004.051a1.557 1.557 0 0 0-.005.326c.015.009.028.026.042.037h.252a.635.635 0 0 0-.237-.395"/>
        <path fill="#E30B15" d="M32.912 33.665l.007.01a1.396 1.396 0 0 0-.034-.351h-.252a.96.96 0 0 1 .28.34M28.05 34.516l-.015-.006a.577.577 0 0 0-.061.376c.04.168.15.31.264.43a.93.93 0 0 1 .083-.6l-.03-.039c-.057-.083-.146-.123-.241-.16M29.308 32.093l-.56-.743-.733-.089v.72l1.015.955.424.387h.742zM32.486 33.114v-.02c.002-.05-.005-.103.003-.148a.75.75 0 0 0-.017-.157l-.002-.014v-.006l-.008.002-.012.007a.32.32 0 0 0-.038.024.553.553 0 0 1-.062.04c-.02.011-.04.021-.072.048-.145.117-.487.29-.795.433h1.004a.165.165 0 0 1-.004-.03c-.005-.06.002-.118.003-.179"/>
        <path fill="#E30B15" d="M30.918 33.578l-.223.093a1.27 1.27 0 0 1-.169.062l-.03.006-.3-.415h-.743l.588.537.07.066-.088.055a17.522 17.522 0 0 1-1.02.195c-.224.034-.386.05-.497.05-.31 0-.497.065-.558.108l.029.015.02.009.02.013a.366.366 0 0 1 .02.01.15.15 0 0 1 .027.015l.018.009.018.008c.104.044.221.094.306.215l.012.014.012.019.015.017.011.015c.05.07.127.165.21.173.029.003.084-.014.139-.071.233-.237.936-.45 1.128-.463H30l.034.013v.036c0 .232-.004 1.398-.064 1.589l-.058.152c-.055.124-.072.219-.055.252.046-.006.11-.017.233-.01l.042.002c.014 0 .024 0 .038.002.058.003.125.008.21.018l.185.035.055.008a.588.588 0 0 0 .046.006c-.005-.043-.021-.126-.035-.195l-.052-.29c-.104-.633-.072-1.334-.02-1.517l.003-.01c.009-.025.015-.045.034-.058l.027-.02.027.018c.011.007 1.092.73 1.463 1.215.105.14.157.185.185.202a.339.339 0 0 0 .038-.075.696.696 0 0 1 .123-.188l.017-.016a.201.201 0 0 1 .03-.017.174.174 0 0 1 .038-.026c.057-.045.145-.068.215-.102l.03-.014c.07-.031.123-.075.208-.098l-.093-.043-.133-.056-.104-.042c-.098-.04-.192-.076-.252-.112-.053-.036-.226-.137-.425-.254-.361-.214-.858-.506-1.043-.642-.027-.02-.065-.055-.065-.055a.392.392 0 0 1-.023-.025L30.846 34l.003-.057.038-.01a.786.786 0 0 0 .046-.013c.538-.155.948-.252 1.22-.286l.177-.025.014-.003c.139-.021.173-.036.178-.036a.503.503 0 0 0-.02-.132.185.185 0 0 1-.007-.04l-.002-.02-.003-.024v-.014c-.003-.006-.003-.01-.003-.016h-1.005c-.27.127-.514.232-.564.254M32.632 36.173c.255-.277.399-.597.353-.797l-.001-.002a1.49 1.49 0 0 0-.177.07h-.003a.864.864 0 0 0-.18.112c.059.205.061.413.008.617"/>
        <path fill="#E30B15" d="M29.233 34.417l.008.08v-.078a.064.064 0 0 1-.008-.002"/>
        <path fill="#020206" d="M16.91 15.425c.598.962 2.278 1.137 3.114-.539-1.556-3.356-4.192-.119-5.867-1.5.037.717.354 1.156.955 1.326v.007c-.406.392-.65 1.041-.737 1.938h2.117c-.05-.52.11-.97.417-1.232M34.886 14.723v-.01c.59-.17.915-.61.957-1.327-1.681 1.38-4.316-1.855-5.875 1.5.844 1.677 2.52 1.502 3.117.54.309.261.47.71.42 1.231h2.113c-.086-.895-.327-1.543-.732-1.934M24.339 13.99a.57.57 0 0 1-.189-.14c-.292-.313-.147-.86-.047-.759l.009.007c.033.03.09.07.165.113-.165.108-.188.3-.057.593a.576.576 0 0 1 .333-.439c.143.077.27.14.27.14-.244.125-.404.28-.484.484m.34 1.7c-.078.05-.256.077-.479.09a5.429 5.429 0 0 1-1.514-.15 1.614 1.614 0 0 1-.368-.162c.366.04.67.057.939.06H23.406c.34-.007.591-.054.763-.14.009-.004.024-.006.031-.01.005-.003.015-.004.02-.007l-.002-.004c.007-.003.017-.005.023-.009l-.006-.055c-.337-.85-.869-.984-1.158-.989-.308 0-.595.146-.616.285l-.012.015c-.515-.692-.637-1.338-.324-1.707.307-.372.977-.37 1.735-.052a.933.933 0 0 0-.059.352c0 .537.296 1.006.553 1.451.192.336.351.66.351.985-.008.017-.012.04-.026.047m-2.819-.782a1.457 1.457 0 0 1-.158-.14c.664.305 1.469.5 2.397.598-.186.073-.488.106-.905.11-.592-.168-1.033-.362-1.334-.568m4.686-.805c.283-.09.631-.257.909-.528-.661 0-1.86-.368-2.342-.603-.383-.196-.993-.566-1.219-.182-.802-.345-1.492-.334-1.83.068-.287.342-.219.897.184 1.504.06.09.111.178.186.27.009.01.012.02.021.031.048-.12.287-.274.612-.274h.004c.241.004.66.108.988.66.042.077.085.155.123.25a10.31 10.31 0 0 1-2.49-.54l-.08-.026c.245.303.719.562 1.424.744-.093 0-.198-.004-.303-.007-.14-.004-.282-.008-.441-.016l-.074-.003c.362.284 1.183.404 1.796.404.061 0 .118-.003.175-.005a6.62 6.62 0 0 1-.166.808h3.037c-.188-1.397-.391-2.18-.514-2.555M17.354 32.886c.032-.019.082-.029.12-.045 0 .029.002.064.006.114.013.097.019.228.002.363l-.006.005h.015c0-.011.003-.023.004-.035a1.654 1.654 0 0 0-.006-.342c0-.039 0-.08.01-.138 0-.009.004-.021.006-.032a.263.263 0 0 0 .003-.013c.003-.016.003-.023.008-.042.01-.005.034-.008.077.009l.002.001c.019.008.055.037.08.052.034.02.058.028.106.068.143.117.518.304.883.472h.118c-.422-.191-.826-.395-.97-.511a.492.492 0 0 0-.088-.059l-.022-.013a.315.315 0 0 1-.031-.02.258.258 0 0 0-.047-.03l-.013-.007c-.06-.023-.098-.017-.117-.007l-.02.01-.006.021a.432.432 0 0 0-.01.044v.011l-.001.001-.007.034-.041.014c-.028.009-.056.018-.085.035-.151.112-.238.269-.282.477h.05a.696.696 0 0 1 .262-.437M32.618 32.81c-.015-.003-.028-.008-.04-.013a.22.22 0 0 1-.008-.033v-.001l-.002-.012a.432.432 0 0 0-.01-.044l-.005-.021-.02-.01c-.019-.01-.058-.016-.117.007l-.013.007c-.007 0-.026.015-.048.03-.01.008-.02.015-.03.02l-.022.013a.492.492 0 0 0-.088.059c-.144.117-.548.32-.97.512h.118c.364-.17.74-.356.883-.473.048-.04.071-.047.104-.068.027-.015.063-.044.081-.052l.002-.001c.043-.017.068-.014.078-.01.005.02.004.028.007.043l.003.013.007.033a.82.82 0 0 1 .01.137 1.526 1.526 0 0 0-.002.378h.016l-.007-.006a1.442 1.442 0 0 1 .002-.362c.004-.051.005-.085.006-.115.038.016.087.026.12.045.14.105.22.248.261.438h.05c-.044-.21-.13-.366-.28-.478-.03-.017-.059-.026-.086-.035"/>
        <path fill="#020206" d="M14.334 33.324h1.381V20.177c.073.067.15.134.23.2v12.947h.376l1.075-.883V21.333c.072.037.15.073.224.108v10.817l1.454-1.195V22c.071.02.15.038.222.058v8.823l1.456-1.195v-7.31l.225.034v7.093l1.383-1.137V22.56l.365.023c.132 1.666.4 3.442.735 5.228l-3.436 3.672 1.131-.137-.388.517-1.058 1.46h.062l.908-1.26.13-.172.222-.296.22-.293.811-.096v.796l-1.03.97-.027.026-.197.18-.16.146h.078l.114-.11 1.167-1.091v1.2h.16l1.45-2.259c.025.855-.01 1.59-.076 2.26h2.912a17.633 17.633 0 0 1-.078-2.26l1.458 2.26h.16v-1.227l1.194 1.117.114.11h.077l-.159-.146-.197-.18-.027-.026-1.03-.97v-.797l.811.098.22.291.223.297.13.172.908 1.26h.06l-1.057-1.46-.385-.512 1.093.133-.949-1.016-2.485-2.655c.334-1.787.603-3.564.736-5.23l.362-.023v5.806l1.387 1.139V22.41c.076-.01.151-.023.226-.035v7.316l1.453 1.193v-8.826c.075-.02.156-.038.228-.06v9.072l1.448 1.19V21.44c.076-.036.154-.072.228-.109v11.115l1.07.878h.381V20.377c.078-.066.152-.131.223-.197v13.144h1.382V17.4c0-.268-.018-.51-.04-.743h-2.113c-.088.907-.823 2.032-2.579 2.77a9.222 9.222 0 0 1-1.681.507c-.073.015-.15.028-.226.043-.512.095-1.059.17-1.676.209-.006-.229.004-.473-.01-.692a43.04 43.04 0 0 0-.273-2.837h-3.038a2.353 2.353 0 0 1-.223.569c-.299.473-1.079 1.37-1.137 2.268-.015.22-.004.463-.01.692a13.616 13.616 0 0 1-1.675-.21c-.076-.014-.152-.026-.225-.041a9.188 9.188 0 0 1-1.456-.418l-.222-.087c-1.758-.74-2.494-1.866-2.582-2.773h-2.117a7.72 7.72 0 0 0-.04.742v15.925z"/>
        <path fill="#020206" d="M27.993 33.573v-.25h-.16zM14.334 34.954l1.381-1.134v-.497h-1.38zM22.092 34.899c-.049.208-.199.374-.323.499a1.017 1.017 0 0 1-.07.042c.075-.261.063-.508-.062-.73.015-.021.034-.04.05-.061.063-.095.164-.14.263-.18.021-.007.033-.02.053-.028.081.15.123.304.09.458zm-1.954 2.059c.033.054.073.11.115.168-.436-.117-.684-.247-.76-.414a.48.48 0 0 1-.022-.21.3.3 0 0 0 .008-.031c.014-.002.021-.001.037-.004l.186-.025a3.79 3.79 0 0 1 .197-.021.995.995 0 0 0 .24.537zm-.118-3.06l.023.005-.03.03a18.134 18.134 0 0 0 1.018.195c.19.029.366.049.49.049.36 0 .618.09.63.175-.018.019-.05.027-.077.04l-.02.013c-.016.007-.028.016-.044.023-.017.007-.028.018-.046.024-.105.045-.222.09-.3.204-.01.014-.02.024-.03.037l-.002.004-.02.026c-.07.099-.15.185-.24.193-.054.01-.123-.02-.185-.085-.228-.232-.938-.443-1.107-.45h-.036c0 .056 0 1.382.06 1.572l.057.15c.043.094.117.304.018.324-.045-.006-.112-.016-.24-.011h-.042l-.037.003a2.86 2.86 0 0 0-.202.018l-.187.035h-.009a1.215 1.215 0 0 1-.046.008c-.047.007-.09.012-.098.002-.016-.02.005-.13.033-.27l.047-.27c.107-.644.068-1.343.021-1.5-.006-.016-.01-.032-.016-.035-.047.03-1.09.733-1.448 1.202-.143.189-.192.214-.232.229-.023 0-.052-.05-.076-.11-.027-.054-.06-.124-.116-.18l-.008-.004c-.01-.01-.024-.014-.035-.023-.01-.01-.024-.014-.035-.023-.057-.044-.135-.062-.202-.094a.93.93 0 0 1 .21.135c-.069.217-.074.453.003.694.004.03.002.058.008.089-.334-.31-.538-.704-.479-.955.005-.02.017-.035.024-.052.07.02.14.045.211.078-.073-.034-.136-.08-.217-.102l-.016-.005c-.017-.004-.033-.011-.05-.015l-.035-.011a.168.168 0 0 1 .06-.04c.035-.02.084-.041.135-.063.046-.021.093-.04.134-.057.132-.054.272-.105.347-.15.151-.102 1.178-.684 1.466-.894.026-.02.038-.031.051-.043.01-.01.026-.023.026-.027l.003-.003h-.003c-.02-.004-.789-.24-1.262-.3-.08-.01-.134-.018-.19-.027-.115-.018-.198-.035-.216-.062-.015-.02-.005-.08.018-.17.004-.018.002-.035.005-.053.003-.013.003-.027.005-.04l.001-.007h-.014c-.118.066-.227.188-.319.367a2.129 2.129 0 0 0-.092.148 1.789 1.789 0 0 1 .027-.515h-.05c-.029.145-.042.31-.026.519l.011.158.081-.137c.032-.051.061-.101.09-.146l.003-.005a.932.932 0 0 1 .225-.284c-.025.106-.03.162-.007.193.025.038.086.058.248.083l.015.003c.052.008.103.016.18.026.26.033.655.125 1.171.273l-.012.009c-.182.133-.674.424-1.035.635-.209.124-.373.22-.426.257-.052.03-.14.066-.236.104l-.105.042-.134.056a1.908 1.908 0 0 0-.139.066c-.053.028-.07.042-.079.057l-.038.06.068.016c.005 0 .01.002.014.004l.022.006.023.007c-.004.01-.009.017-.012.029-.062.264.141.676.493 1.004l.112.103-.028-.15-.004-.04a.441.441 0 0 0-.006-.054 1.07 1.07 0 0 1-.009-.624.688.688 0 0 1 .1.152c.034.094.075.142.121.142l.017-.003c.053-.02.11-.051.254-.246.315-.41 1.162-1.003 1.383-1.154.04.184.073.83-.027 1.449l-.048.269-.004.018c-.038.195-.049.258-.022.287.014.023.037.03.068.03a.48.48 0 0 0 .078-.01h.002a.486.486 0 0 0 .024.205c.082.18.326.317.791.44l.137.037-.084-.115a2.844 2.844 0 0 1-.115-.17.988.988 0 0 1-.215-.46c.106-.002.17.005.21.01l.01.003.006-.002a.103.103 0 0 0 .074-.055c.045-.086-.016-.25-.054-.336l-.057-.147c-.044-.14-.056-.988-.057-1.505.184.017.845.217 1.055.433.073.075.157.115.225.099.1-.008.178-.09.245-.175.09.189.11.4.04.636l-.034.115.105-.057a.624.624 0 0 0 .083-.051c.146-.148.287-.313.337-.524.032-.14.001-.291-.08-.456l.005-.004.025-.012c.006-.005.015-.008.023-.012a.173.173 0 0 0 .064-.04l.016-.016-.003-.024c-.019-.143-.357-.217-.679-.217-.106 0-.264-.017-.482-.05-.074-.011-.148-.022-.224-.035-.28-.05-.55-.106-.7-.14l.611-.58h-.078l-.628.576zM34.053 33.636v-.313h-.382zM22.007 33.573l.16-.25h-.16z"/>
        <path fill="#020206" d="M20.567 36.934c.68 1.352 1.736 1.596 3.172.713l1.258 1.501 1.26-1.5c1.44.882 2.494.638 3.172-.714-1.724.291-2.706-.934-2.976-3.61h-2.912c-.268 2.676-1.252 3.901-2.974 3.61"/>
        <path fill="#020206" d="M30.533 36.711c-.076.167-.323.298-.759.414.041-.058.081-.114.114-.168.15-.186.226-.37.24-.537.054.005.117.011.196.021l.187.026.036.004c.003.011.007.021.008.032a.475.475 0 0 1-.022.208m-2.205-1.27c-.024-.015-.048-.028-.07-.044-.124-.125-.275-.29-.324-.499-.034-.153.008-.306.09-.458.02.008.031.021.053.03.1.04.2.084.264.178.015.023.033.041.048.062-.125.221-.137.47-.06.73m4.632-1.602c-.03-.052-.06-.103-.092-.148a.866.866 0 0 0-.317-.367h-.016l.001.007c.002.014.002.027.005.041.004.018.001.035.006.053.022.09.033.15.017.17-.017.026-.1.044-.215.062a7.47 7.47 0 0 1-.19.028c-.474.06-1.242.294-1.263.298l-.003.001.003.002c0 .005.018.018.027.027a.442.442 0 0 0 .05.044c.288.21 1.315.792 1.466.894.075.045.215.095.347.15a3.985 3.985 0 0 1 .27.12.203.203 0 0 1 .06.04c-.013.002-.022.007-.035.01-.018.004-.033.011-.05.016-.007.001-.01.003-.016.005-.082.021-.144.068-.217.101a1.5 1.5 0 0 1 .211-.078c.006.018.018.032.023.052.06.251-.145.645-.479.956.006-.03.004-.059.01-.09.075-.24.071-.477.002-.694a.966.966 0 0 1 .21-.135c-.068.033-.145.05-.203.095-.01.008-.024.013-.035.023-.01.01-.025.013-.035.023l-.008.004a.667.667 0 0 0-.116.18c-.023.06-.053.11-.075.11-.04-.015-.09-.04-.233-.23-.358-.468-1.4-1.17-1.448-1.2-.005.002-.01.018-.015.033v.001c-.048.156-.086.856.02 1.5l.048.27c.027.14.05.25.032.27-.008.01-.05.004-.098-.003l-.024-.003a.143.143 0 0 1-.022-.004h-.009l-.187-.036a3.536 3.536 0 0 0-.202-.018c-.014 0-.025 0-.037-.002h-.04c-.13-.005-.197.004-.242.01-.099-.02-.025-.229.018-.324l.057-.15c.06-.189.06-1.515.06-1.57-.006-.003-.022 0-.035 0-.17.005-.88.217-1.107.45-.062.063-.132.093-.185.083-.09-.008-.17-.094-.24-.193-.007-.009-.014-.016-.02-.026l-.003-.003c-.008-.013-.02-.024-.028-.037-.08-.115-.197-.16-.302-.204-.018-.007-.028-.018-.046-.025-.016-.006-.028-.015-.043-.023l-.02-.01c-.026-.016-.06-.024-.078-.042.012-.085.271-.175.631-.175.123 0 .3-.02.49-.049.073-.012.147-.023.223-.037.39-.068.77-.152.795-.158l-.03-.03.023-.005-.629-.575h-.077l.611.581a17.74 17.74 0 0 1-.925.174 3.532 3.532 0 0 1-.48.05c-.324 0-.662.074-.68.217l-.004.024.017.017c.018.02.042.03.063.038l.024.012a.521.521 0 0 0 .024.013l.006.003c-.08.165-.112.316-.08.457.05.211.19.376.336.523a.534.534 0 0 0 .083.051l.105.058-.034-.116a.867.867 0 0 1 .04-.636c.067.087.145.167.245.176.07.015.152-.025.225-.1.21-.215.871-.416 1.055-.432 0 .517-.013 1.365-.057 1.504l-.057.147c-.038.087-.098.251-.054.336.015.03.04.05.074.055l.008.002h.008c.04-.007.104-.014.21-.012a.977.977 0 0 1-.216.46c-.033.055-.07.11-.115.17l-.084.115.137-.037c.465-.124.71-.259.793-.44a.5.5 0 0 0 .023-.205l.002.001c.03.004.056.008.078.008.031 0 .054-.007.068-.029.027-.03.016-.093-.022-.287l-.004-.019-.047-.268c-.1-.619-.067-1.265-.028-1.45.221.151 1.07.744 1.383 1.155.146.194.201.226.254.245l.018.003c.045 0 .086-.047.122-.14a.673.673 0 0 1 .098-.154c.057.205.057.415-.009.624a.83.83 0 0 0-.005.054.659.659 0 0 1-.004.042l-.029.148.112-.103c.352-.327.555-.74.493-1.003-.003-.012-.008-.02-.012-.029a.168.168 0 0 1 .024-.007.13.13 0 0 0 .021-.007c.004 0 .01-.003.014-.004l.068-.016-.038-.06c-.009-.014-.025-.029-.079-.056a1.565 1.565 0 0 0-.139-.066l-.134-.057-.105-.042a1.762 1.762 0 0 1-.235-.104 15.089 15.089 0 0 0-.427-.256c-.36-.212-.853-.503-1.035-.636l-.012-.009c.517-.148.911-.24 1.172-.273.076-.009.127-.018.18-.026l.014-.002c.162-.026.223-.046.248-.084.025-.03.018-.086-.007-.192.081.068.16.157.225.284l.003.005c.03.044.06.094.09.146l.081.137.012-.159a1.862 1.862 0 0 0-.027-.519h-.05c.032.142.042.307.027.515M34.276 33.82l1.382 1.135v-1.631h-1.382zM15.944 33.633l.377-.31h-.377zM19.37 33.578a15.952 15.952 0 0 1-.588-.254h-.119a17.586 17.586 0 0 0 .687.3c.08.032.143.057.161.06l.26-.36h-.062l-.219.3a2.923 2.923 0 0 1-.12-.046"/>
        <path fill="#020206" d="M30.676 33.625a13.61 13.61 0 0 0 .687-.301h-.118a15.952 15.952 0 0 1-.71.3l-.217-.3h-.061l.259.36c.017-.003.08-.028.16-.06M20.052 33.923a.222.222 0 0 1 .073-.002 8.29 8.29 0 0 1-.057-.013l-.016.015zM20.071 34.417c.004.022.006.054.008.08v-.078l-.008-.002M20.132 37.038c-.338-.102-.533-.216-.594-.346a.454.454 0 0 1-.019-.175h.004l.187-.026c.055-.007.102-.013.145-.016.025.168.109.344.24.507.012.018.023.037.037.056m-.43-.597l-.186.026-.036.004-.009.031a.478.478 0 0 0 .022.21c.077.166.325.297.76.413a2.672 2.672 0 0 1-.115-.168c-.15-.186-.226-.37-.238-.537a5.15 5.15 0 0 0-.198.021M17.48 32.955c-.004-.05-.005-.085-.006-.114-.038.016-.088.026-.12.045a.696.696 0 0 0-.262.437h.05a.635.635 0 0 1 .237-.394.218.218 0 0 1 .048-.019c0 .015.002.032.004.051.008.063.019.187.005.326-.015.01-.027.026-.042.036h.082c.002 0 .004-.004.006-.006a1.444 1.444 0 0 0-.002-.362M17.114 33.665l-.007.01a1.396 1.396 0 0 1 .034-.351h-.049a1.754 1.754 0 0 0-.027.515c.03-.053.061-.104.092-.15.092-.177.201-.3.318-.365h-.082a.96.96 0 0 0-.279.34M22.053 34.886c-.04.168-.15.31-.265.43a.923.923 0 0 0-.083-.6c.01-.014.022-.026.03-.038.058-.084.147-.124.242-.161l.014-.007a.578.578 0 0 1 .062.377m-.103-.418c-.1.04-.2.084-.264.18-.015.023-.033.04-.05.062.126.22.139.468.063.729.023-.014.047-.027.07-.042.124-.126.274-.292.323-.5.034-.154-.008-.306-.09-.458-.018.009-.031.022-.052.03M20.719 32.093l.559-.743.729-.088v.724l-1.01.95-.424.387h.076l.159-.145.197-.18.026-.026 1.03-.97v-.797l-.81.098-.22.291-.223.298-.13.171-.907 1.26h.06z"/>
        <path fill="#020206" d="M17.543 33.293c.007-.06 0-.118-.002-.18v-.02c-.002-.05.004-.102-.003-.147a.747.747 0 0 1 .016-.157l.002-.014.001-.006c.003 0 .005.002.007.003l.012.006a.32.32 0 0 1 .038.024.553.553 0 0 0 .035.024l.027.015c.021.012.04.022.072.049.146.117.488.29.796.434h.12c-.365-.17-.74-.356-.884-.473-.048-.04-.07-.047-.104-.068-.027-.015-.063-.044-.08-.052l-.003-.001c-.043-.017-.067-.014-.077-.01-.005.02-.005.028-.008.043 0 .005-.002.009-.003.013l-.006.033a.738.738 0 0 0-.01.137c.012.095.017.217.005.342 0 .012-.003.024-.004.036h.05l.003-.031"/>
        <path fill="#020206" d="M19.35 33.625a13.61 13.61 0 0 1-.686-.301h-.12a19.121 19.121 0 0 0 .788.347c.107.043.15.058.168.062l.032.006.299-.415h-.06l-.26.36a1.833 1.833 0 0 1-.16-.06"/>
        <path fill="#020206" d="M17.402 35.556a1.155 1.155 0 0 0-.008.617c-.254-.277-.398-.596-.351-.797v-.002c.056.018.117.04.177.069l.002.001a.915.915 0 0 1 .18.112zm2.583-1.695l-.07.066.088.055c.096.022.439.096.796.159l.224.036c.224.034.387.05.497.05.311 0 .497.065.56.108l-.03.014-.02.01-.021.012-.018.011a.106.106 0 0 0-.029.015.076.076 0 0 1-.017.009l-.02.007c-.102.045-.22.095-.305.216a.7.7 0 0 0-.025.032l-.012.018a.079.079 0 0 0-.012.015c-.05.07-.127.165-.21.173-.029.003-.085-.014-.14-.071-.232-.238-.936-.449-1.128-.463l-.064.001-.035.012v.036c0 .232.003 1.398.063 1.589l.059.152c.055.123.07.219.055.252-.046-.006-.111-.017-.235-.01l-.04.002-.038.001a4.118 4.118 0 0 0-.21.019l-.186.035-.053.008a.657.657 0 0 1-.046.006 2.4 2.4 0 0 1 .034-.195l.052-.29c.102-.633.07-1.334.018-1.517l-.002-.009c-.008-.026-.014-.046-.034-.059l-.027-.019-.026.017c-.012.007-1.093.731-1.463 1.215-.107.141-.157.185-.186.202a.407.407 0 0 1-.037-.075.716.716 0 0 0-.122-.189l-.02-.015a.1.1 0 0 0-.029-.017.163.163 0 0 0-.038-.027c-.058-.045-.143-.067-.215-.101l-.029-.014c-.07-.032-.123-.076-.207-.098.026-.014.058-.028.093-.043l.131-.056.104-.042c.1-.039.192-.076.253-.112.053-.036.226-.137.425-.254.361-.214.857-.506 1.043-.642.027-.02.064-.055.064-.055.01-.008.024-.026.024-.026L19.18 34l-.003-.057-.037-.01a.654.654 0 0 1-.047-.013c-.538-.156-.948-.252-1.22-.286-.075-.009-.123-.017-.175-.025l-.015-.003c-.139-.021-.174-.036-.178-.036a.47.47 0 0 1 .02-.133c.005-.013.006-.026.007-.038 0-.006 0-.011.003-.021 0-.008 0-.016.002-.024v-.014c.003-.006.003-.011.004-.016h-.05c-.002.002-.002.004-.002.006-.002.014-.002.027-.005.041-.003.018 0 .035-.006.053-.022.09-.032.15-.017.17.019.026.102.044.215.062.058.009.11.018.192.028.472.059 1.24.294 1.262.298l.002.001-.003.003c0 .004-.017.017-.027.027-.012.012-.024.023-.05.043-.288.21-1.314.792-1.465.895-.076.044-.215.094-.348.149-.04.017-.088.036-.134.057-.052.022-.1.044-.137.064a.171.171 0 0 0-.058.039l.035.01c.017.005.032.012.05.016l.015.005c.081.021.145.068.217.101a1.5 1.5 0 0 0-.21-.078c-.008.018-.018.033-.023.053-.06.251.143.645.477.955-.006-.031-.003-.059-.006-.089a1.123 1.123 0 0 1-.005-.695.948.948 0 0 0-.209-.134c.067.032.144.049.202.094.012.009.024.014.035.023.012.009.024.013.035.023l.009.005c.055.055.088.125.116.179.024.06.053.11.075.11.04-.015.09-.04.233-.229.358-.469 1.4-1.172 1.448-1.202.005.003.01.019.015.035v.001c.046.155.087.855-.02 1.5l-.049.269c-.027.14-.049.25-.032.269.008.011.051.006.098-.002l.024-.003.022-.003.009-.001.188-.036c.08-.009.145-.014.201-.018l.038-.002.04-.001c.13-.004.196.005.24.012.1-.02.026-.23-.017-.325l-.056-.15c-.06-.189-.06-1.515-.06-1.57.004-.002.022 0 .034 0h.002c.169.006.878.217 1.105.449.064.064.133.095.186.084.09-.007.17-.093.24-.192l.02-.026.002-.004c.01-.013.02-.023.03-.037.078-.115.195-.16.3-.204.019-.006.03-.018.046-.024.016-.007.028-.016.042-.023l.023-.012c.024-.014.058-.023.076-.041-.012-.085-.27-.175-.63-.175-.123 0-.302-.02-.49-.049a9.448 9.448 0 0 1-.223-.036c-.39-.069-.77-.153-.796-.159l.032-.03-.024-.005.628-.574h-.075l-.588.537zM30.487 36.692c-.06.13-.254.244-.592.346l.035-.055c.133-.164.215-.34.241-.508l.146.016.188.025.003.001c0 .054 0 .122-.02.175m.022-.225l-.186-.025a2.987 2.987 0 0 0-.196-.02c-.014.165-.09.35-.24.535-.033.054-.073.11-.114.168.436-.116.683-.246.76-.414a.475.475 0 0 0 .021-.208l-.008-.032-.037-.004M32.59 33.287a1.488 1.488 0 0 1 .006-.326l.004-.05a.218.218 0 0 1 .048.018.635.635 0 0 1 .237.394h.05a.692.692 0 0 0-.262-.437c-.032-.019-.082-.029-.12-.045-.001.03-.002.063-.006.114a1.493 1.493 0 0 0-.002.362c.002.002.004.005.007.006h.08c-.014-.01-.026-.027-.041-.036M32.87 33.69c.03.045.061.096.091.148a1.754 1.754 0 0 0-.027-.515h-.049c.023.101.037.213.034.351l-.007-.009a.956.956 0 0 0-.279-.342h-.08a.866.866 0 0 1 .316.367M28.238 35.317c-.114-.122-.225-.262-.265-.43a.582.582 0 0 1 .062-.377l.015.007a.497.497 0 0 1 .271.199.923.923 0 0 0-.083.6m-.16-.846c-.023-.008-.035-.021-.055-.03-.08.152-.123.305-.089.459.05.208.2.374.324.499a.81.81 0 0 0 .07.042c-.076-.261-.064-.508.061-.73-.015-.021-.033-.04-.048-.061-.065-.095-.165-.14-.264-.18M29.03 32.936l-1.016-.956v-.718l.735.088.558.743.888 1.23h.062l-.91-1.26-.129-.171-.223-.298-.219-.291-.81-.097v.796l1.03.97.026.026.196.18.16.146h.075z"/>
        <path fill="#020206" d="M32.278 32.89c.032-.027.051-.037.072-.05.01-.004.018-.01.027-.014a.553.553 0 0 0 .035-.024c.012-.008.031-.021.038-.024l.012-.007.007-.002.001.006.002.014a.756.756 0 0 1 .016.157c-.007.045 0 .098-.003.148v.02c0 .06-.008.119-.002.179 0 .01.002.02.004.03h.05a1.525 1.525 0 0 1 .002-.378.838.838 0 0 0-.01-.137l-.008-.032c0-.004 0-.008-.003-.013-.003-.016-.002-.022-.008-.042-.009-.005-.034-.008-.077.009h-.002c-.018.009-.054.038-.08.053-.034.02-.057.028-.105.068-.144.117-.519.304-.883.473h.12c.307-.144.65-.317.795-.434"/>
        <path fill="#020206" d="M30.495 33.74l.031-.007c.02-.004.062-.019.168-.062a19.438 19.438 0 0 0 .788-.348h-.119a15.002 15.002 0 0 1-.687.302 2.278 2.278 0 0 1-.16.06l-.259-.362h-.062l.3.416z"/>
        <path fill="#020206" d="M32.804 35.444l.003-.001a1.324 1.324 0 0 1 .178-.066c.047.2-.098.519-.353.796a1.155 1.155 0 0 0-.008-.617.908.908 0 0 1 .18-.112m-2.82-1.541l.03.03a18.134 18.134 0 0 1-1.02.195 3.564 3.564 0 0 1-.488.049c-.36 0-.618.09-.631.175.019.019.052.027.077.04a.437.437 0 0 0 .022.013c.015.007.026.017.043.023.017.007.027.018.046.024.104.045.22.09.302.204.007.014.019.024.028.038l.003.003a.428.428 0 0 0 .019.026c.07.099.15.185.24.193.053.01.124-.02.185-.085.228-.232.938-.443 1.107-.45h.036c0 .056 0 1.382-.061 1.572l-.056.15c-.043.094-.118.304-.018.324.045-.006.11-.016.24-.011h.04c.014 0 .025.002.038.003.057.003.122.008.202.018l.188.035h.009l.02.004a.257.257 0 0 0 .026.004c.047.007.089.012.097.002.018-.02-.005-.13-.032-.27l-.048-.27c-.105-.644-.067-1.343-.02-1.5.006-.016.01-.032.015-.035.048.03 1.09.733 1.449 1.202.142.189.192.214.232.23.022 0 .053-.05.075-.11.028-.055.062-.125.116-.18l.008-.005c.01-.01.025-.014.035-.023.01-.01.025-.014.036-.023.057-.044.134-.062.202-.094a.887.887 0 0 0-.21.135c.069.217.074.453-.002.694-.005.03-.003.058-.01.089.335-.31.539-.704.479-.955-.004-.02-.016-.035-.023-.052-.07.02-.141.046-.211.078.073-.033.136-.08.218-.102l.015-.005c.017-.004.033-.011.05-.015.013-.003.023-.008.034-.011-.004-.01-.028-.024-.058-.04a1.529 1.529 0 0 0-.137-.063c-.046-.021-.093-.04-.134-.057-.131-.054-.271-.105-.346-.15-.152-.102-1.178-.684-1.466-.894-.026-.02-.038-.031-.051-.043-.01-.01-.026-.023-.026-.027l-.003-.002.003-.001c.02-.004.789-.24 1.26-.3.084-.01.135-.018.193-.027.113-.018.197-.035.215-.062.015-.02.005-.08-.018-.17-.005-.018-.002-.035-.006-.053-.003-.013-.003-.027-.005-.04l-.001-.007h-.048c0 .006 0 .01.002.016v.014a.193.193 0 0 1 .002.024l.003.02a.185.185 0 0 0 .006.04.48.48 0 0 1 .022.132c-.005 0-.04.015-.18.037l-.014.002c-.051.008-.101.016-.175.025-.273.035-.683.13-1.221.287l-.046.013-.038.009-.003.058.012.015s.014.017.024.025c0 0 .037.035.065.055.185.137.68.429 1.043.642.199.117.37.218.423.254.06.036.155.074.253.113l.104.042.133.055.092.043c-.084.023-.137.067-.208.098l-.03.014c-.07.034-.156.057-.214.102a.19.19 0 0 0-.038.026.119.119 0 0 0-.03.018l-.018.015c-.056.056-.094.133-.123.188a.306.306 0 0 1-.036.075c-.03-.017-.08-.061-.185-.202-.371-.484-1.453-1.208-1.463-1.215l-.028-.017-.027.019c-.02.013-.025.034-.033.059l-.003.009c-.052.183-.084.884.019 1.517l.052.29a2.4 2.4 0 0 1 .034.195.743.743 0 0 1-.046-.006l-.053-.007-.187-.036a3.969 3.969 0 0 0-.21-.018l-.037-.002-.041-.002c-.123-.006-.187.004-.233.01-.017-.033 0-.128.054-.252l.059-.152c.06-.191.063-1.357.063-1.59v-.035l-.035-.011-.001-.001-.063-.001c-.193.014-.897.226-1.13.463-.054.057-.11.074-.138.07-.084-.007-.16-.102-.21-.172-.003-.004-.006-.01-.011-.015l-.014-.017-.014-.02a.057.057 0 0 1-.01-.012c-.085-.122-.203-.172-.306-.216l-.02-.008a.091.091 0 0 1-.016-.01.132.132 0 0 0-.03-.014l-.017-.01a.164.164 0 0 0-.022-.012l-.02-.01a.26.26 0 0 0-.028-.014c.06-.043.248-.11.558-.11.11 0 .274-.015.497-.05.074-.01.149-.022.226-.035.356-.062.698-.137.795-.158l.088-.056-.071-.066-.588-.537h-.075l.629.575-.023.004"/>
        <path fill="#EC0016" d="M24.099 15.366c-.928-.1-1.732-.293-2.396-.6.044.05.1.095.158.142.3.205.74.399 1.334.566.417-.004.718-.037.904-.108"/>
        <path fill="#EC0016" d="M23.8 13.206c0-.154.025-.263.06-.352-.758-.318-1.428-.32-1.735.053-.313.368-.191 1.014.324 1.706l.012-.015c.02-.14.308-.285.616-.285.289.005.82.139 1.159.989l.005.055c-.005.004-.016.006-.023.01l.002.004c-.005.002-.015.003-.02.006-.007.004-.022.006-.031.01-.172.087-.423.133-.763.14l-.114-.001h-.035a9.197 9.197 0 0 1-.938-.06c.1.064.224.118.367.163a5.429 5.429 0 0 0 1.514.149c.223-.011.4-.04.479-.09.014-.007.018-.028.026-.045 0-.327-.16-.65-.351-.985-.257-.446-.553-.915-.553-1.452"/>
        <path fill="#EEF7FF" d="M24.22 13.805c-.131-.293-.107-.486.057-.595a1.003 1.003 0 0 1-.164-.113l-.01-.005c-.1-.103-.245.445.047.758.05.055.11.104.189.14.08-.206.24-.36.485-.485 0 0-.127-.064-.271-.14a.578.578 0 0 0-.333.44"/>
    </g>
</svg>
