<svg xmlns="http://www.w3.org/2000/svg" xmlns:xlink="http://www.w3.org/1999/xlink" width="50" height="50" viewBox="0 0 50 50">
    <defs>
        <path id="a" d="M0 .432h16.666v47.145H0z"/>
        <path id="c" d="M.666.01h16.666V50H.666z"/>
    </defs>
    <g fill="none" fill-rule="evenodd">
        <g transform="translate(0 1)">
            <mask id="b" fill="#fff">
                <use xlink:href="#a"/>
            </mask>
            <path fill="#00933E" d="M16.666 47.577V.431C6.957 3.865 0 13.12 0 24.005c0 10.884 6.957 20.139 16.666 23.572" mask="url(#b)"/>
        </g>
        <g transform="translate(16)">
            <mask id="d" fill="#fff">
                <use xlink:href="#c"/>
            </mask>
            <path fill="#FFF" d="M17.332 1.433A24.961 24.961 0 0 0 9.192.01h-.385a24.958 24.958 0 0 0-8.14 1.423v47.144a24.922 24.922 0 0 0 8.143 1.422h.38a24.942 24.942 0 0 0 8.143-1.422V1.432z" mask="url(#d)"/>
        </g>
        <path fill="#EF2734" d="M33.333 1.433v47.145c9.709-3.434 16.666-12.689 16.666-23.574C50 14.12 43.041 4.866 33.334 1.433"/>
    </g>
</svg>
