<svg xmlns="http://www.w3.org/2000/svg" xmlns:xlink="http://www.w3.org/1999/xlink" width="52" height="52" viewBox="0 0 52 52">
    <defs>
        <path id="a" d="M0 .168h49.832V50H.001z"/>
    </defs>
    <g fill="none" fill-rule="evenodd" transform="translate(1)">
        <g transform="translate(0 .832)">
            <mask id="b" fill="#fff">
                <use xlink:href="#a"/>
            </mask>
            <path fill="#FFF" d="M39.647 42.419l3.177-4.768 1.735 1.158-3.174 4.767-1.738-1.157zm-2.6-1.746l3.179-4.757 1.728 1.157-3.172 4.758-1.734-1.158zm-19.063-5.186c-5.557-3.708-7.175-11.092-3.8-16.773.102-.191.213-.378.336-.562 3.827-5.735 11.587-7.301 17.332-3.471 5.558 3.708 7.17 11.095 3.792 16.776a6.38 6.38 0 0 1-.333.559c-3.825 5.755-11.583 7.3-17.327 3.47zM11.05 41.83L4.12 31.438l1.732-1.158 6.933 10.393-1.734 1.158zm-2.598 1.745l-3.176-4.767 1.732-1.158 3.174 4.768-1.73 1.157zM1.52 33.173l1.733-1.157 3.172 4.758-1.728 1.157-3.177-4.758zM8.453 6.592l1.73 1.157-6.93 10.403-1.732-1.157L8.453 6.592zm4.332 2.892L5.852 19.877 4.12 18.73l6.93-10.403 1.735 1.156zm25.997-1.156l3.172 4.767-1.728 1.157-3.178-4.768 1.734-1.156zm2.603-1.736l6.932 10.403-1.735 1.157-6.935-10.403 1.738-1.157zM40.8 15.12l1.73-1.157 3.185 4.768-1.735 1.146-3.18-4.757zm3.18 15.16l1.735 1.158-3.184 4.767-1.731-1.147 3.18-4.778zm1.157 7.65l-1.736-1.156 3.18-4.758 1.735 1.157-3.18 4.758zm4.695-12.846C49.833 11.323 38.677.168 24.917.168 11.156.168 0 11.323 0 25.084 0 38.844 11.156 50 24.917 50c13.76 0 24.916-11.155 24.916-24.916z" mask="url(#b)"/>
        </g>
        <path fill="#000" d="M41.953 13.927L38.781 9.16l-1.733 1.157 3.177 4.768zM45.716 19.563l-3.185-4.768-1.73 1.158 3.18 4.757zM48.316 17.827L41.386 7.424l-1.738 1.157 6.934 10.403zM4.12 32.27l6.931 10.393 1.733-1.157-6.933-10.393zM3.254 32.848l-1.733 1.157 3.176 4.758 1.729-1.157zM5.277 39.64l3.176 4.768 1.73-1.157-3.175-4.767zM5.852 20.71l6.933-10.393L11.05 9.16 4.12 19.563zM10.183 8.581l-1.73-1.157L1.52 17.827l1.733 1.157zM40.226 36.748l-3.178 4.758 1.734 1.157 3.172-4.758zM42.531 37.037l3.185-4.768-1.736-1.157-3.179 4.778zM42.823 38.484l-3.177 4.768 1.74 1.156 3.172-4.767zM43.401 37.606l1.736 1.157 3.18-4.758-1.736-1.157z"/>
        <path fill="#D40035" d="M16.252 27.651a6.246 6.246 0 0 0 8.663-1.735c1.915-2.872 5.795-3.64 8.665-1.736a6.25 6.25 0 0 1 2.064 8.11c3.38-5.681 1.765-13.069-3.792-16.776-5.746-3.83-13.505-2.264-17.332 3.47-.123.183-.224.375-.335.563a6.25 6.25 0 0 0 2.067 8.104"/>
        <path fill="#023179" d="M33.58 24.18c-2.87-1.904-6.75-1.136-8.665 1.736a6.245 6.245 0 0 1-8.663 1.736 6.25 6.25 0 0 1-2.068-8.105c-3.375 5.68-1.757 13.065 3.8 16.772 5.743 3.83 13.501 2.284 17.326-3.471.123-.182.222-.372.333-.56a6.248 6.248 0 0 0-2.063-8.107M14.185 19.547c.11-.188.212-.38.335-.563a6.21 6.21 0 0 0-.335.563"/>
        <path fill="#023179" d="M35.31 32.848a6.53 6.53 0 0 0 .334-.559c-.111.186-.211.376-.333.56"/>
        <circle cx="25" cy="26" r="25" stroke="#000" stroke-opacity=".1"/>
    </g>
</svg>
