<?xml version="1.0" encoding="UTF-8"?>
<svg width="50px" height="50px" viewBox="0 0 50 50" version="1.1" xmlns="http://www.w3.org/2000/svg" xmlns:xlink="http://www.w3.org/1999/xlink">
    <!-- Generator: Sketch 55.2 (78181) - https://sketchapp.com -->
    <title>Group Copy</title>
    <desc>Created with Sketch.</desc>
    <defs>
        <polygon id="path-1" points="0.0002 0.0005 50 0.0005 50 50 0.0002 50"></polygon>
    </defs>
    <g id="New" stroke="none" stroke-width="1" fill="none" fill-rule="evenodd">
        <g id="Language" transform="translate(-50.000000, -95.000000)">
            <g id="Group-Copy" transform="translate(50.000000, 95.000000)">
                <circle id="Oval" fill="#FFFFFF" cx="25" cy="25" r="25"></circle>
                <g id="Group-28">
                    <path d="M38.0576,18.0778 L46.6006,12.4198 C46.1356,11.6218 45.6306,10.8488 45.0816,10.1098 L33.0506,18.0778 L38.0576,18.0778 Z" id="Fill-1" fill="#DD0032"></path>
                    <path d="M36.9272,32.9254 L45.8312,38.8204 C46.3422,38.0524 46.8072,37.2544 47.2312,36.4304 L41.9372,32.9254 L36.9272,32.9254 Z" id="Fill-3" fill="#DD0032"></path>
                    <path d="M14,18.0778 L4.006,11.4328 C3.504,12.2088 3.043,13.0138 2.627,13.8448 L8.988,18.0778 L14,18.0778 Z" id="Fill-5" fill="#DD0032"></path>
                    <path d="M12.8633,32.9254 L4.1093,38.7274 C4.6193,39.5014 5.1673,40.2474 5.7573,40.9584 L17.8773,32.9254 L12.8633,32.9254 Z" id="Fill-7" fill="#DD0032"></path>
                    <path d="M43.9331,8.6842 C40.7481,4.9922 36.5051,2.2432 31.6711,0.9072 L31.6711,16.8082 L43.9331,8.6842 Z" id="Fill-9" fill="#0D1D7E"></path>
                    <path d="M18.4697,0.8673 C13.6127,2.1783 9.3447,4.9163 6.1367,8.6043 L18.4697,16.8073 L18.4697,0.8673 Z" id="Fill-11" fill="#0D1D7E"></path>
                    <path d="M49.0215,18.0778 C48.7965,17.2948 48.5345,16.5288 48.2365,15.7798 L44.7895,18.0778 L49.0215,18.0778 Z" id="Fill-13" fill="#0D1D7E"></path>
                    <path d="M47.9189,34.9889 C48.2119,34.3159 48.4749,33.6269 48.7099,32.9259 L44.7899,32.9259 L47.9189,34.9889 Z" id="Fill-15" fill="#0D1D7E"></path>
                    <path d="M6.6865,42.0109 C9.8255,45.3889 13.8855,47.8949 18.4695,49.1329 L18.4695,34.1999 L6.6865,42.0109 Z" id="Fill-17" fill="#0D1D7E"></path>
                    <path d="M31.6714,49.0929 C36.2304,47.8329 40.2664,45.3189 43.3824,41.9389 L31.6714,34.1999 L31.6714,49.0929 Z" id="Fill-19" fill="#0D1D7E"></path>
                    <path d="M1.29,32.9254 C1.535,33.6574 1.811,34.3754 2.12,35.0754 L5.349,32.9254 L1.29,32.9254 Z" id="Fill-21" fill="#0D1D7E"></path>
                    <path d="M1.7925,15.7057 C1.4825,16.4777 1.2105,17.2687 0.9785,18.0777 L5.3495,18.0777 L1.7925,15.7057 Z" id="Fill-23" fill="#0D1D7E"></path>
                    <g id="Group-27">
                        <mask id="mask-2" fill="white">
                            <use xlink:href="#path-1"></use>
                        </mask>
                        <g id="Clip-26"></g>
                        <path d="M29.4302,0.3995 C27.9912,0.1415 26.5132,0.0005 25.0002,0.0005 C23.5362,0.0005 22.1052,0.1325 20.7112,0.3745 L20.7112,21.0475 L0.3142,21.0475 C0.1092,22.3355 0.0002,23.6545 0.0002,25.0005 C0.0002,26.6995 0.1712,28.3575 0.4942,29.9615 L20.7112,29.9615 L20.7112,49.6265 C22.1052,49.8675 23.5362,50.0005 25.0002,50.0005 C26.5132,50.0005 27.9912,49.8575 29.4302,49.6005 L29.4302,29.9615 L49.5062,29.9615 C49.8282,28.3575 50.0002,26.6995 50.0002,25.0005 C50.0002,23.6545 49.8902,22.3355 49.6862,21.0475 L29.4302,21.0475 L29.4302,0.3995 Z" id="Fill-25" fill="#DD0032" mask="url(#mask-2)"></path>
                    </g>
                </g>
            </g>
        </g>
    </g>
</svg>
