<svg xmlns="http://www.w3.org/2000/svg" width="34" height="70" viewBox="0 0 34 70">
    <g fill="none" fill-rule="evenodd">
        <path fill="#FFF" stroke="#979797" d="M1.53 6.769h30.939v55.418H1.53z"/>
        <g fill-rule="nonzero">
            <path fill="#424242" d="M29.11 0H5.026C2.247 0 0 2.281 0 5.14v59.532C0 67.547 2.247 70 5.026 70h24.07C31.873 70 34 67.547 34 64.672V5.14C34.015 2.28 31.89 0 29.11 0zM14.73 3.594h4.555c.334 0 .608.281.608.625a.618.618 0 0 1-.608.625H14.73a.618.618 0 0 1-.608-.625c0-.344.274-.625.608-.625zm2.353 64.062c-1.457 0-2.642-1.219-2.642-2.719 0-1.5 1.185-2.718 2.642-2.718 1.458 0 2.643 1.218 2.643 2.718s-1.185 2.72-2.643 2.72zM31.282 60H2.733a.31.31 0 0 1-.303-.313V8.282a.31.31 0 0 1 .303-.312h28.549a.31.31 0 0 1 .303.312v51.407a.31.31 0 0 1-.303.312z"/>
            <path fill="#C69C6D" d="M23.697 42.836H10.303l-3.09 3.134V28.21c0-1.724 1.39-3.134 3.09-3.134h13.394c1.7 0 3.09 1.41 3.09 3.134v11.492c0 1.724-1.39 3.135-3.09 3.135z"/>
            <g fill="#FFF" transform="translate(10.303 32.388)">
                <ellipse cx="6.697" cy="1.567" rx="1.545" ry="1.567"/>
                <ellipse cx="11.848" cy="1.567" rx="1.545" ry="1.567"/>
                <ellipse cx="1.545" cy="1.567" rx="1.545" ry="1.567"/>
            </g>
        </g>
    </g>
</svg>
